<?xml version="1.0"?>
<svg xmlns:rdf="http://www.w3.org/1999/02/22-rdf-syntax-ns#" xmlns="http://www.w3.org/2000/svg" xmlns:cc="http://creativecommons.org/ns#" xmlns:dc="http://purl.org/dc/elements/1.1/" xmlns:svg="http://www.w3.org/2000/svg" id="svg2" xml:space="preserve" viewBox="0 0 326.7 315.08" version="1.1">
  <g id="g12" transform="matrix(1.25 0 0 -1.25 -248.31 448.79)">
    <path id="path170" d="m199.15 358.53h260.36v-251.06h-260.36v251.06z" fill="#fff" fill-rule="evenodd"/>
    <path id="path192" d="m258.44 136.42s-0.295 8.585-0.438 18.249c-0.145 9.769-0.132 20.629 0.447 24.994 1.2 9.04 0.035 18.323-0.468 27.465-0.687 12.456-0.35 54.811 1.39 65.148l3.926-2.004c-3.654-7.127 1.558-51.242 2.169-62.324 0.52-9.432-1.424-19.534-2.662-28.863-1.452-10.942-0.373-30.795 0.018-42.518l-4.382-0.147" fill="#d3d2d2"/>
    <path id="path194" d="m326.16 119.36 6.69 19.667 4.159-1.414-6.69-19.668-4.159 1.415" fill="#d3d2d2"/>
    <path id="path196" d="m347.4 113.44 7.772 23.732 4.179-1.353-7.738-23.911-4.213 1.532" fill="#d3d2d2"/>
    <path id="path198" d="m349.7 337.47c-0.118-0.637-2.321-13.501-0.054-16.561 3.142-4.241 10.433-2.625 17.089-16.533 4.605-9.621 7.725-25.37 8.986-36.186l-4.363-0.509s-0.654 5.592-2.064 12.766c-2.091 10.636-5.352 26.232-15.325 32.503-8.725 5.486-10.455 5.032-9.577 17.458 0.297 4.194 0.981 7.865 0.981 7.865l4.327-0.803" fill="#d3d2d2"/>
    <path id="path200" d="m339.99 340.98s-0.09-5.737-0.969-11.268c-0.594-3.739-2.328-13.086-8.27-11.539-7.483 1.948-4.909 17.722-3.893 22.591l4.3-0.897c-0.373-1.79-2.818-16.527 0.7-17.443 2.591-0.674 3.694 15.74 3.74 18.624l4.392-0.068" fill="#d3d2d2"/>
    <path id="path202" d="m303.06 343.54c0.246-2.322 3.434-25.502 10.726-23.428 4.768 1.356 2.076 20.091 1.782 21.77l4.336 0.758s0.994-5.724 1.064-11.713c0.054-4.635-0.288-13.421-5.98-15.04-11.819-3.361-15.606 20.511-16.313 27.191l4.385 0.462" fill="#d3d2d2"/>
    <path id="path204" d="m282.68 271.52c-0.106-2.209-0.325-21.806 6.902-21.071 4.193 1.381 0.123 14.718-0.479 17.08-1.975 7.751-5.98 20.922-1.973 28.486 6.571 12.405 6.557 14.201 5.414 21.284-1.229 7.617-5.906 21.62-5.906 21.62l4.193 1.389s4.782-14.451 6.05-22.309c2.958-18.333-8.97-18.627-6.735-34.899 1.277-9.301 2.4-16.683 6.313-26.601 4.949-12.543 18.27-29.353 18.27-29.353l-3.144-7.886s-12.13 24.41-21.103 26.876c-11.862-1.645-12.531 18.462-12.19 25.594l4.388-0.21" fill="#d3d2d2"/>
    <path id="path206" d="m376.76 220.94s1.922-14.277 1.922-24.435c0-10.159-1.373-24.71-6.864-26.632s-8.237 2.471-14.003 6.04c-5.765 3.569-4.392-1.922-2.745-5.491s18.669-17.297-0.824-23.886-43.928 10.982-57.93 19.493c-14.003 8.511-13.325-0.23-13.325-0.23s2.779 1.076 7.979-3.721c5.2-4.796 23.848-20.619 41.285-24.608 17.436-3.989 40.506-6.413 50.965 7.171 15.6 20.263-2.913 65.805-4.259 76.966-1.652 3.726-2.201-0.667-2.201-0.667z" stroke="#231f20" stroke-miterlimit="3.864" stroke-width=".549" fill="#231f20"/>
    <path id="path208" d="m349.7 337.47c-0.118-0.637-2.321-13.501-0.054-16.561 3.142-4.241 10.433-2.625 17.089-16.533 4.605-9.621 7.725-25.37 8.986-36.186l-4.363-0.509s-0.654 5.592-2.064 12.766c-2.091 10.636-5.352 26.232-15.325 32.503-8.725 5.486-10.455 5.032-9.577 17.458 0.297 4.194 0.981 7.865 0.981 7.865m-54.536 2.04s4.782-14.451 6.05-22.309c2.958-18.333-8.97-18.627-6.735-34.899 1.277-9.301 2.4-16.683 6.313-26.601 4.949-12.543 18.27-29.353 18.27-29.353l-3.144-7.886s-12.13 24.41-21.103 26.876c-11.862-1.645-12.531 18.462-12.19 25.594" stroke="#231f20" stroke-miterlimit="3.864" stroke-width="1.098" fill="none"/>
    <path id="path210" d="m342.07 224.25-23.668 43.429s-0.616 1.416-1.235 3.542c-2.805 9.627-2.491 21.219 7.545 27.067 15.318 8.927 24.298-2.413 25.883-14.067l-1.525-0.192-1.78-0.188c-1.673 17.38-34.431 17.867-25.906-11.391 0.446-1.529 0.858-2.574 0.977-2.865l25.054-46.126s0.036-0.911 2.007-1.718c1.971-0.808 3.99 0.625 7.844-1.346 3.855-1.971 7.71-19.186 7.71-19.186s-2.347 5.644-4.528 6.008c-0.807 0.134-4.796 2.287-4.796 6.276 0 0-1.433 0.942-2.375-0.135-0.942-1.076-3.586 0.088-3.855 1.703-0.269 1.614-3.632 6.814-7.083 5.603s-5.066 0.807-4.528 2.375c0.539 1.568 2.106 1.345 4.259 1.211z" stroke="#231f20" stroke-miterlimit="3.864" stroke-width="1.098" fill="#d3d2d2"/>
    <path id="path212" d="m325.63 292.52s-2.689 2.516-1.694 1.641c16.369-14.393-8.979-34.129-9.454-49.853-0.348-11.532 4.385-63.33 4.385-63.33l-4.375-0.399s-4.751 52.233-4.401 63.861c0.478 15.843 20.497 32.324 13.319 43.656-0.853 1.347 0.768 0.322-0.602 1.184l2.822 3.24" fill="#fff"/>
    <path id="path214" d="m347.65 271.02s2.296 0.95 5.689 1.37c8.769 1.086 13.597-4.513 22.436-1.012 2.662 1.055 28.479 8.846 28.479 8.846l1.268-4.205s-25.5-7.684-28.13-8.725c-11.618-4.602-17.581 3.868-28.083-0.341l-1.659 4.067" fill="#d3d2d2"/>
    <path id="path216" d="m390.5 296.61-25.083-7.578-16.297-4.393-9.423 0.637-6.16 10.354-3.607-0.294-3.412-1.375-3.705-3.411 3.068-2.089 1.274-5.667-3.961-8.069-5.295-9.949-4.559-12.095-1.911-12.541 1.274-17.572 21.327-0.637 0.637 20.053 6.941 21.328 11.268 8.786 14.452 6.94 22.601 7.512s7.446 5.03 0.571 10.06z" stroke="#fff" stroke-miterlimit="3.864" stroke-width=".549" fill="#fff"/>
    <path id="path218" d="m314.15 183.41-0.891-1.313-0.811-2.917 1.459-4.15 3.258-3.583 3.178-2.447 6.256-3.161-2.026 3.728-1.799 3.501-1.135 3.907-0.891 2.529-1.151 1.215-0.892 0.649 0.081 2.366-4.636-0.324" fill="#fff"/>
    <path id="path220" d="m325.08 293.11c14.055-14.292-10.135-33.459-10.598-48.805-0.102-3.398 0.266-8.845 0.795-16.879 1.476-0.388 2.684 0.855 4.746 2.331 2.063 1.476 3.574 0.31 3.574 0.31l-8.088-7.706c1.3-18.69 3.358-41.386 3.358-41.386s1.845 0.009 2.69-3.539c0.845-3.547 2.958-9.938 6.506-12.192 0 0-12.616 4.998-15.01 11.347-1.55 4.111 0.986 6.224 0.986 6.224s-4.298 49.994-3.948 61.622c0.478 15.843 20.497 32.324 13.319 43.656-0.347 0.548-0.761 1.107-1.222 1.635l2.892 3.382" fill="#d3d2d2"/>
    <path id="path222" d="m356.76 254.47c1.007 3.835-4.226 8.74-7.616 6.734s-3.678-5.61-2.507-8.619c1.17-3.009 3.813-6.324 8.238-3.724 1.216 0.715 2.533 3.394 1.885 5.609z" stroke="#231f20" stroke-miterlimit="3.864" stroke-width=".549" fill="#fff"/>
    <path id="path224" d="m271.06 290.95s-14.277-64.52 29.651-103.23" stroke="#231f20" stroke-miterlimit="3.864" stroke-width=".549" fill="none"/>
    <path id="path226" d="m300.71 187.71 0.249 1.935 2.202-4.065-4.333 1.615 1.882 0.515" fill="#231f20" fill-rule="evenodd"/>
    <path id="path228" d="m270.06 116.57s-6.696 54.398 4.836 65.38c11.531 10.982 29.102-1.372 29.102-1.372" stroke="#231f20" stroke-miterlimit="3.864" stroke-width=".549" fill="none"/>
    <path id="path230" d="m304 180.58 0.045 1.95 2.615-3.813-4.478 1.153 1.818 0.71" fill="#231f20" fill-rule="evenodd"/>
    <path id="path232" d="m325.98 204.19s-7.971 25.259 1.913 53.538" stroke="#231f20" stroke-miterlimit="3.864" stroke-width=".549" fill="none"/>
    <path id="path234" d="m327.89 257.73-1.887-0.495 2.944 3.565 0.126-4.622-1.183 1.552" fill="#231f20" fill-rule="evenodd"/>
    <path id="path236" d="m329 159.98s15.083-6.315 16.456 0.275c1.372 6.589-6.315 12.354-6.315 12.354" stroke="#231f20" stroke-miterlimit="3.864" stroke-width=".549" fill="none"/>
    <path id="path238" d="m339.14 172.61-0.113-1.948-2.48 3.903 4.434-1.309-1.841-0.646" fill="#231f20" fill-rule="evenodd"/>
    <path id="path240" d="m368.25 198.97s4.942-12.63-0.823-14.003c-5.766-1.372-18.67 14.552-18.67 14.552" stroke="#231f20" stroke-miterlimit="3.864" stroke-width=".549" fill="none"/>
    <path id="path242" d="m348.75 199.52-0.58-1.863-1.463 4.386 3.986-2.343-1.943-0.18" fill="#231f20" fill-rule="evenodd"/>
    <path id="path244" d="m351.22 256.08 6.04-18.121" stroke="#231f20" stroke-miterlimit="3.864" stroke-width=".549" fill="none"/>
    <path id="path246" d="m357.26 237.96 1.21 1.531-0.206-4.619-2.882 3.616 1.878-0.528" fill="#231f20" fill-rule="evenodd"/>
    <path id="path248" d="m411.65 274.23s-27.474-3.596-45.595-20.069" stroke="#231f20" stroke-miterlimit="3.864" stroke-width=".549" fill="none"/>
    <path id="path250" d="m366.05 254.16 1.891-0.483-4.304-1.69 2.131 4.103 0.282-1.93" fill="#231f20" fill-rule="evenodd"/>
    <path id="path252" d="m357.26 281.06s18.127 7.862 41.19 11.431" stroke="#231f20" stroke-miterlimit="3.864" stroke-width=".549" fill="none"/>
    <path id="path254" d="m398.46 292.49-1.323 1.434 4.53-0.926-4.022-2.281 0.815 1.773" fill="#231f20" fill-rule="evenodd"/>
    <path id="path256" d="m302.36 313.73-10.982 35.966" stroke="#231f20" stroke-miterlimit="3.864" stroke-width=".549" fill="none"/>
    <path id="path258" d="m291.37 349.7-1.237-1.51 0.287 4.615 2.819-3.665-1.869 0.56" fill="#231f20" fill-rule="evenodd"/>
    <path id="path260" d="m323.22 316.75-0.549 35.692" stroke="#231f20" stroke-miterlimit="3.864" stroke-width=".549" fill="none"/>
    <path id="path262" d="m322.67 352.45-1.605-1.111 1.548 4.357 1.699-4.3-1.642 1.054" fill="#231f20" fill-rule="evenodd"/>
    <path id="path264" d="m340.52 315.66 2.47 37.064" stroke="#231f20" stroke-miterlimit="3.864" stroke-width=".549" fill="none"/>
    <path id="path266" d="m342.99 352.72-1.695-0.966 1.922 4.205 1.318-4.432-1.545 1.193" fill="#231f20" fill-rule="evenodd"/>
    <path id="path268" d="m282.68 271.52c-0.106-2.209-0.325-21.806 6.902-21.071 4.193 1.381 0.123 14.718-0.479 17.08-1.975 7.751-5.98 20.922-1.973 28.486 6.571 12.405 6.557 14.201 5.414 21.284-1.229 7.617-5.906 21.62-5.906 21.62m16.415 4.62c0.246-2.322 3.434-25.502 10.726-23.428 4.768 1.356 2.076 20.091 1.782 21.77m4.336 0.758s0.994-5.724 1.064-11.713c0.054-4.635-0.288-13.421-5.98-15.04-11.819-3.361-15.606 20.511-16.313 27.191m41.32-2.1s-0.09-5.737-0.969-11.268c-0.594-3.739-2.328-13.086-8.27-11.539-7.483 1.948-4.909 17.722-3.893 22.591m4.3-0.897c-0.373-1.79-2.818-16.527 0.7-17.443 2.591-0.674 3.694 15.74 3.74 18.624m22.412-68.662c6.111-0.721 10.611-3.845 17.762-1.013 2.662 1.055 28.479 8.846 28.479 8.846m1.277-4.205s-25.509-7.684-28.139-8.725c-10.898-4.317-16.82 2.867-26.179 0.302" stroke="#231f20" stroke-miterlimit="3.864" stroke-width="1.098" fill="none"/>
    <path id="path270" d="m373.83 227.23c-1.171-4.894-5.61-8.07-4.895-10.457s-0.334-9.956-0.334-9.956c-0.502 3.223-2.22 5.396-4.393 9.287s1.672 8.452 4.226 12.009 5.03 11.63 5.03 11.63c0.066 2.374 0.245 4.506 0.614 6.319 3.022 14.852 19.089 22.646 32.73 23.716l0.344-4.38c-0.457-0.035-25.105-2.207-28.77-20.212-3.83-18.821 10.382-63.88-2.793-75.536-12.648-11.191-33.872 18.947-39.503 27.878l3.715 2.344s1.476-2.339 3.876-5.683c3.758-5.237 20.968-28.358 29.002-21.249 7.509 6.645 2.767 33.566 1.151 54.29" fill="#d3d2d2"/>
    <path id="path272" d="m407.16 265.39c-0.457-0.035-25.113-2.207-28.778-20.212-3.83-18.821 10.382-63.88-2.793-75.536-12.648-11.191-33.872 18.947-39.503 27.878l3.715 2.344s1.476-2.339 3.876-5.683c3.758-5.237 20.968-28.358 29.002-21.249 7.509 6.645 2.767 33.566 1.151 54.29-1.171-4.894-5.61-8.07-4.895-10.457s-0.334-9.956-0.334-9.956c-0.502 3.223-2.22 5.396-4.393 9.287s1.672 8.452 4.226 12.009 5.03 11.63 5.03 11.63c0.066 2.374 0.245 4.506 0.614 6.319 3.022 14.852 19.089 22.646 32.73 23.716" stroke="#231f20" stroke-miterlimit="3.864" stroke-width="1.098" fill="none"/>
    <path id="path274" d="m331.77 223.11c-0.778 9.992-0.546 19.968 3.273 29.598 6.227 15.699 21.645 29.154 55.536 36.003l0.87-4.306c-33.109-6.691-56.492-20.356-55.652-55.221 0.181-7.53 1.282-14.874 2.038-21.446 1.434-12.451 9.871-23.343 17.104-33.052 4.606-6.183 14.618-17.959 7.278-25.807-9.775-10.452-29.081-5.524-45.086 2.167-5.911 2.84-25.121 15.444-29.77 16.129-10.194 1.502-6.855-27.367-6.294-31.04l-4.343-0.663s-1.393 9.132-0.964 17.996c0.337 6.969 2.153 19.54 12.242 18.053 0.771-0.113 1.759-0.467 2.81-0.868 1.832 3.548 3.547 1.55 5.661 0.986 2.113-0.563 3.97-1.268 7.94 1.409s5.943-0.141 7.236-1.972c1.293-1.832 10.054-9.797 10.054-9.797s-7.377 4.84-15.317 6.39c-7.941 1.55-6.419-1.555-6.419-1.555 7.019-4.002 14.832-9.074 19.066-11.109 16.562-7.958 32.662-10.946 39.976-3.125 4.888 5.226-4.764 16.385-7.592 20.181-7.805 10.477-16.397 21.731-17.946 35.174-0.381 3.31-0.799 6.638-1.159 9.971 0 0-1.513 1.828-3.265 2.993s-4.548 4.859-3.694 8.553 4.122-4.745 6.417-5.642" fill="#d3d2d2"/>
    <path id="path276" d="m347.46 113.26 7.721 23.912 4.179-1.353-7.738-23.911m-25.459 7.449 6.69 19.667 4.159-1.414-6.69-19.668m-53.587 17.523s-1.402 9.132-0.973 17.996c0.337 6.969 2.153 19.54 12.242 18.053 0.771-0.113 1.759-0.467 2.81-0.868 1.832 3.548 3.547 1.55 5.661 0.986 2.113-0.563 3.97-1.268 7.94 1.409s5.943-0.141 7.236-1.972c1.293-1.832 10.054-9.797 10.054-9.797s-7.377 4.84-15.317 6.39c-7.941 1.55-6.419-1.555-6.419-1.555 7.019-4.002 14.832-9.074 19.066-11.109 16.562-7.958 32.662-10.946 39.976-3.125 4.888 5.226-4.764 16.385-7.592 20.181-7.805 10.477-16.397 21.731-17.946 35.174-0.381 3.31-0.799 6.638-1.159 9.971 0 0-1.513 1.828-3.265 2.993s-4.548 4.859-3.694 8.553 4.122-4.745 6.417-5.642c-0.778 9.992-0.546 19.968 3.273 29.598 6.227 15.699 21.645 29.154 55.536 36.003m0.896-4.306c-33.109-6.691-56.518-20.356-55.678-55.221 0.181-7.53 1.282-14.874 2.038-21.446 1.434-12.451 9.871-23.343 17.104-33.052 4.606-6.183 14.618-17.959 7.278-25.807-9.775-10.452-29.081-5.524-45.086 2.167-5.911 2.84-25.121 15.444-29.77 16.129-10.194 1.502-6.855-27.367-6.294-31.04m-17.771 134.15c-3.654-7.127 1.558-51.242 2.169-62.324 0.52-9.432-1.424-19.534-2.662-28.863-1.452-10.942-0.373-30.795 0.018-42.518m-4.382-0.147s-0.295 8.585-0.438 18.249c-0.145 9.769-0.132 20.629 0.447 24.994 1.2 9.04 0.035 18.323-0.468 27.465-0.687 12.456-0.35 54.811 1.39 65.148" stroke="#231f20" stroke-miterlimit="3.864" stroke-width="1.098" fill="none"/>
    <path id="path278" d="m415.09 150.85h0.688l1.335 4.446h-0.656l-1.007-3.91h-0.016l-1.008 3.91h-0.655l1.319-4.446" fill="#231f20"/>
    <path id="path280" d="m418.22 153.54c0.025 0.527 0.041 1.343 0.776 1.343 0.736 0 0.704-0.824 0.728-1.343h-1.504zm1.536-1.208c0.04-0.503-0.128-1.063-0.736-1.063-0.887 0-0.783 1.151-0.8 1.751h2.159c-0.032 1.039 0.048 2.398-1.391 2.398-1.175 0-1.423-1.399-1.423-2.334 0-1.791 0.6-2.351 1.439-2.351 0.936 0 1.383 0.728 1.343 1.599h-0.591" fill="#231f20" fill-rule="evenodd"/>
    <path id="path282" d="m421.97 155.3h-0.616v-4.446h0.632v2.974c0 0.32 0.032 0.576 0.287 0.808 0.168 0.16 0.392 0.248 0.624 0.248 0.512 0 0.664-0.312 0.664-0.776v-3.254h0.631v3.43c0 0.784-0.431 1.135-1.095 1.135-0.48 0-0.808-0.223-1.127-0.607v0.488" fill="#231f20" fill-rule="evenodd"/>
    <path id="path284" d="m426.08 156.51h-0.624v-1.207h-0.615v-0.536h0.615v-3.182c0-0.672 0.28-0.736 0.656-0.728h0.696v0.536h-0.424c-0.352 0-0.296 0.192-0.296 0.344v3.03h0.736v0.536h-0.744v1.207" fill="#231f20"/>
    <path id="path286" d="m428.25 155.3h-0.608v-4.446h0.632v2.695c0 0.807 0.48 1.319 1.295 1.175v0.624c-0.663 0.056-1.039-0.192-1.303-0.776h-0.016v0.728" fill="#231f20"/>
    <path id="path288" d="m430.23 150.85h0.632v4.445h-0.632v-4.445zm0 5.197h0.632v0.799h-0.632v-0.799z" fill="#231f20" fill-rule="evenodd"/>
    <path id="path290" d="m433.31 154.88c0.6 0 0.728-0.496 0.736-0.984h0.592c0.008 0.824-0.424 1.519-1.32 1.519-1.359 0-1.535-1.311-1.535-2.398 0-1.151 0.192-2.287 1.551-2.287 0.992 0 1.312 0.816 1.335 1.671h-0.599c-0.032-0.544-0.096-1.135-0.784-1.135-0.807 0-0.847 1.031-0.847 1.615 0 0.632-0.048 1.999 0.871 1.999" fill="#231f20"/>
    <path id="path292" d="m435.56 150.85h0.632v5.997h-0.632v-5.997z" fill="#231f20"/>
    <path id="path294" d="m437.76 153.54c0.024 0.527 0.04 1.343 0.775 1.343 0.736 0 0.704-0.824 0.728-1.343h-1.503zm1.535-1.208c0.04-0.503-0.128-1.063-0.736-1.063-0.887 0-0.783 1.151-0.799 1.751h2.159c-0.032 1.039 0.048 2.398-1.392 2.398-1.175 0-1.423-1.399-1.423-2.334 0-1.791 0.6-2.351 1.439-2.351 0.936 0 1.384 0.728 1.344 1.599h-0.592" fill="#231f20" fill-rule="evenodd"/>
    <path id="path296" d="m415.02 164.25h0.936c0.447 0 1.255-0.024 1.271-1.055 0.016-1.048-0.848-1.096-1.159-1.104h-1.048v2.159zm0-2.758h1.16c0.783 0 1.023-0.512 1.023-1.112 0-0.4 0.064-1.143 0.208-1.527h0.775v0.136c-0.159 0-0.207 0.264-0.231 0.376-0.064 0.448-0.104 0.887-0.128 1.335-0.096 0.8-0.288 1.048-1.064 1.119v0.016c0.696 0.096 1.128 0.6 1.152 1.304 0.04 1.383-0.76 1.711-2.015 1.711h-1.543v-5.997h0.663v2.639" fill="#231f20" fill-rule="evenodd"/>
    <path id="path298" d="m419.13 158.85h0.632v4.446h-0.632v-4.446zm0 5.197h0.632v0.799h-0.632v-0.799z" fill="#231f20" fill-rule="evenodd"/>
    <path id="path300" d="m422.22 162.88c0.704 0 0.888-0.832 0.888-1.711 0-0.712 0.008-1.903-0.952-1.903-0.624 0-0.807 0.719-0.807 1.807 0 0.599 0.031 1.807 0.871 1.807zm0.888-0.088h-0.016c-0.216 0.424-0.584 0.624-0.992 0.624-1.175 0-1.407-1.376-1.407-2.311 0-1.791 0.583-2.375 1.423-2.375 0.408 0 0.696 0.184 0.959 0.64h0.017c-0.009-0.488 0.095-1.495-0.928-1.495-0.384 0-0.64 0.151-0.696 0.551h-0.615c0.088-0.759 0.615-1.087 1.327-1.087 0.488 0 0.944 0.176 1.223 0.616 0.296 0.471 0.336 0.887 0.336 1.431v3.91h-0.631v-0.504" fill="#231f20" fill-rule="evenodd"/>
    <path id="path302" d="m425.55 161.83c0 0.32 0.032 0.576 0.288 0.808 0.168 0.16 0.392 0.248 0.623 0.248 0.512 0 0.664-0.312 0.664-0.776v-3.254h0.632v3.43c0 0.784-0.432 1.136-1.096 1.136-0.479 0-0.807-0.224-1.111-0.608v2.039h-0.632v-5.997h0.632v2.974" fill="#231f20"/>
    <path id="path304" d="m429.64 164.51h-0.623v-1.207h-0.616v-0.536h0.616v-3.182c0-0.672 0.28-0.736 0.655-0.728h0.696v0.536h-0.424c-0.352 0-0.296 0.192-0.296 0.344v3.03h0.736v0.536h-0.744v1.207" fill="#231f20"/>
    <path id="path306" d="m417.44 182.85v0.6h-2.447v5.397h-0.663v-5.997h3.11" fill="#231f20"/>
    <path id="path308" d="m418.67 185.54c0.024 0.527 0.04 1.343 0.775 1.343 0.736 0 0.704-0.824 0.728-1.343h-1.503zm1.535-1.208c0.04-0.503-0.128-1.063-0.736-1.063-0.887 0-0.783 1.151-0.799 1.751h2.159c-0.032 1.039 0.048 2.399-1.392 2.399-1.175 0-1.423-1.4-1.423-2.335 0-1.791 0.6-2.351 1.439-2.351 0.936 0 1.384 0.728 1.344 1.599h-0.592" fill="#231f20" fill-rule="evenodd"/>
    <path id="path310" d="m421.96 182.85h0.632v3.91h0.695v0.536h-0.695v0.471c0 0.544 0.184 0.592 0.695 0.544v0.536c-0.591 0.056-0.967-0.024-1.175-0.32-0.16-0.224-0.16-0.592-0.16-0.856v-0.375h-0.639v-0.536h0.647v-3.91" fill="#231f20"/>
    <path id="path312" d="m424.76 188.51h-0.624v-1.207h-0.615v-0.536h0.615v-3.182c0-0.672 0.28-0.736 0.656-0.728h0.695v0.536h-0.423c-0.352 0-0.296 0.192-0.296 0.344v3.03h0.735v0.536h-0.743v1.207" fill="#231f20"/>
    <path id="path314" d="m429.09 182.85h0.687l1.336 4.446h-0.656l-1.007-3.91h-0.016l-1.008 3.91h-0.655l1.319-4.446" fill="#231f20"/>
    <path id="path316" d="m432.22 185.54c0.024 0.527 0.04 1.343 0.776 1.343 0.735 0 0.703-0.824 0.727-1.343h-1.503zm1.535-1.208c0.04-0.503-0.128-1.063-0.735-1.063-0.888 0-0.784 1.151-0.8 1.751h2.159c-0.032 1.039 0.048 2.399-1.391 2.399-1.176 0-1.423-1.4-1.423-2.335 0-1.791 0.599-2.351 1.439-2.351 0.935 0 1.383 0.728 1.343 1.599h-0.592" fill="#231f20" fill-rule="evenodd"/>
    <path id="path318" d="m435.97 187.3h-0.615v-4.446h0.631v2.974c0 0.32 0.032 0.576 0.288 0.808 0.168 0.16 0.392 0.248 0.624 0.248 0.512 0 0.663-0.312 0.663-0.776v-3.254h0.632v3.43c0 0.784-0.432 1.136-1.095 1.136-0.48 0-0.808-0.224-1.128-0.608v0.488" fill="#231f20" fill-rule="evenodd"/>
    <path id="path320" d="m440.08 188.51h-0.624v-1.207h-0.616v-0.536h0.616v-3.182c0-0.672 0.28-0.736 0.656-0.728h0.695v0.536h-0.423c-0.352 0-0.296 0.192-0.296 0.344v3.03h0.735v0.536h-0.743v1.207" fill="#231f20"/>
    <path id="path322" d="m442.25 187.3h-0.608v-4.446h0.632v2.695c0 0.807 0.479 1.319 1.295 1.175v0.624c-0.664 0.056-1.04-0.192-1.303-0.776h-0.016v0.728" fill="#231f20"/>
    <path id="path324" d="m444.23 182.85h0.632v4.446h-0.632v-4.446zm0 5.197h0.632v0.799h-0.632v-0.799z" fill="#231f20" fill-rule="evenodd"/>
    <path id="path326" d="m447.31 186.88c0.6 0 0.727-0.496 0.735-0.984h0.592c0.008 0.824-0.424 1.52-1.319 1.52-1.359 0-1.535-1.312-1.535-2.399 0-1.152 0.192-2.287 1.551-2.287 0.991 0 1.311 0.816 1.335 1.671h-0.6c-0.032-0.544-0.095-1.135-0.783-1.135-0.808 0-0.848 1.031-0.848 1.615 0 0.632-0.048 1.999 0.872 1.999" fill="#231f20"/>
    <path id="path328" d="m449.56 182.85h0.632v5.997h-0.632v-5.997z" fill="#231f20"/>
    <path id="path330" d="m451.75 185.54c0.024 0.527 0.04 1.343 0.776 1.343s0.704-0.824 0.728-1.343h-1.504zm1.536-1.208c0.04-0.503-0.128-1.063-0.736-1.063-0.888 0-0.784 1.151-0.8 1.751h2.159c-0.032 1.039 0.048 2.399-1.391 2.399-1.175 0-1.423-1.4-1.423-2.335 0-1.791 0.6-2.351 1.439-2.351 0.935 0 1.383 0.728 1.343 1.599h-0.591" fill="#231f20" fill-rule="evenodd"/>
    <path id="path332" d="m416.92 208.18c-0.072-0.295-0.112-0.591-0.152-0.895h-0.016c-0.032 0.384-0.064 0.632-0.128 0.887l-1.175 4.678h-1.175v-5.997h0.663v4.925c0 0.256-0.016 0.52-0.016 0.776h0.016c0.072-0.328 0.12-0.528 0.176-0.736l1.255-4.965h0.792l1.255 4.893c0.056 0.232 0.112 0.456 0.184 0.808h0.016c0.016-0.256 0-0.504 0-0.76v-4.941h0.664v5.997h-1.168l-1.191-4.67" fill="#231f20"/>
    <path id="path334" d="m420.47 206.85h0.632v4.446h-0.632v-4.446zm0 5.197h0.632v0.799h-0.632v-0.799z" fill="#231f20" fill-rule="evenodd"/>
    <path id="path336" d="m422.98 212.51h-0.623v-1.207h-0.616v-0.536h0.616v-3.182c0-0.672 0.28-0.736 0.655-0.728h0.696v0.536h-0.424c-0.351 0-0.296 0.192-0.296 0.344v3.03h0.736v0.536h-0.744v1.207" fill="#231f20"/>
    <path id="path338" d="m425.14 211.3h-0.607v-4.446h0.631v2.695c0 0.807 0.48 1.319 1.296 1.175v0.624c-0.664 0.056-1.04-0.192-1.304-0.776h-0.016v0.728" fill="#231f20"/>
    <path id="path340" d="m428.85 208.17c0-0.719-0.528-0.903-0.768-0.903-0.512 0-0.624 0.288-0.624 0.735 0 0.304 0.096 0.632 0.392 0.768 0.336 0.16 0.688 0.296 1 0.48v-1.08zm1.039-0.855c-0.088-0.008-0.184-0.016-0.272 0.008-0.128 0.064-0.112 0.224-0.112 0.336v2.55c0 0.104 0.112 1.208-1.207 1.208-0.896 0-1.351-0.4-1.319-1.32h0.567c-0.008 0.52 0.072 0.784 0.648 0.784 0.512 0 0.704-0.192 0.704-0.696 0-0.232 0.016-0.408-0.12-0.512-0.08-0.063-0.976-0.399-1.336-0.559-0.615-0.272-0.639-0.912-0.639-1.079 0-0.808 0.256-1.304 1.143-1.304 0.424 0 0.832 0.328 0.984 0.72h0.015c0.064-0.608 0.264-0.656 0.8-0.632 0.048 0.016 0.096 0.024 0.144 0.032v0.464" fill="#231f20" fill-rule="evenodd"/>
    <path id="path342" d="m430.68 206.85h0.632v5.997h-0.632v-5.997z" fill="#231f20"/>
    <path id="path344" d="m435.3 206.85h0.688l1.335 4.446h-0.655l-1.008-3.91h-0.016l-1.007 3.91h-0.656l1.319-4.446" fill="#231f20"/>
    <path id="path346" d="m439.72 208.17c0-0.719-0.528-0.903-0.767-0.903-0.512 0-0.624 0.288-0.624 0.735 0 0.304 0.096 0.632 0.392 0.768 0.335 0.16 0.687 0.296 0.999 0.48v-1.08zm1.039-0.855c-0.087-0.008-0.183-0.016-0.271 0.008-0.128 0.064-0.112 0.224-0.112 0.336v2.55c0 0.104 0.112 1.208-1.208 1.208-0.895 0-1.351-0.4-1.319-1.32h0.568c-0.008 0.52 0.072 0.784 0.647 0.784 0.512 0 0.704-0.192 0.704-0.696 0-0.232 0.016-0.408-0.12-0.512-0.08-0.063-0.975-0.399-1.335-0.559-0.616-0.272-0.64-0.912-0.64-1.079 0-0.808 0.256-1.304 1.144-1.304 0.423 0 0.831 0.328 0.983 0.72h0.016c0.064-0.608 0.264-0.656 0.8-0.632 0.048 0.016 0.095 0.024 0.143 0.032v0.464" fill="#231f20" fill-rule="evenodd"/>
    <path id="path348" d="m441.56 206.85h0.632v5.997h-0.632v-5.997z" fill="#231f20"/>
    <path id="path350" d="m444.18 206.85h0.687l1.335 4.446h-0.655l-1.008-3.91h-0.016l-1.007 3.91h-0.656l1.32-4.446" fill="#231f20"/>
    <path id="path352" d="m447.31 209.54c0.024 0.527 0.04 1.343 0.776 1.343 0.735 0 0.703-0.824 0.727-1.343h-1.503zm1.535-1.208c0.04-0.503-0.128-1.063-0.735-1.063-0.888 0-0.784 1.151-0.8 1.751h2.159c-0.032 1.039 0.048 2.399-1.392 2.399-1.175 0-1.423-1.4-1.423-2.335 0-1.791 0.6-2.351 1.44-2.351 0.935 0 1.383 0.728 1.343 1.599h-0.592" fill="#231f20" fill-rule="evenodd"/>
    <path id="path354" d="m413.76 222.85h0.736l0.439 1.727h1.895l0.472-1.727h0.736l-1.688 5.997h-0.879l-1.711-5.997zm2.918 2.327h-1.583l0.792 3.19h0.016l0.775-3.19" fill="#231f20" fill-rule="evenodd"/>
    <path id="path356" d="m421.71 225.23c0 1.343-0.496 2.19-1.591 2.19s-1.591-0.847-1.591-2.19c0-1.919 0.632-2.495 1.591-2.495 0.975 0 1.591 0.568 1.591 2.495zm-0.656-0.2c0-1.048-0.184-1.759-0.935-1.759-0.736 0-0.935 0.711-0.935 1.759 0 1.343 0.287 1.855 0.935 1.855 0.664 0 0.935-0.512 0.935-1.855" fill="#231f20" fill-rule="evenodd"/>
    <path id="path358" d="m423.37 227.3h-0.608v-4.446h0.632v2.695c0 0.807 0.48 1.319 1.295 1.175v0.624c-0.663 0.056-1.039-0.192-1.303-0.776h-0.016v0.728" fill="#231f20"/>
    <path id="path360" d="m426.09 228.51h-0.624v-1.207h-0.616v-0.536h0.616v-3.182c0-0.672 0.28-0.736 0.656-0.728h0.695v0.536h-0.424c-0.351 0-0.295 0.192-0.295 0.344v3.03h0.735v0.536h-0.743v1.207" fill="#231f20"/>
    <path id="path362" d="m427.58 222.85h0.632v4.445h-0.632v-4.445zm0 5.197h0.632v0.799h-0.632v-0.799z" fill="#231f20" fill-rule="evenodd"/>
    <path id="path364" d="m430.66 226.88c0.6 0 0.728-0.496 0.736-0.984h0.591c0.008 0.824-0.423 1.519-1.319 1.519-1.359 0-1.535-1.311-1.535-2.398 0-1.151 0.192-2.287 1.551-2.287 0.991 0 1.311 0.816 1.335 1.671h-0.599c-0.032-0.544-0.096-1.135-0.784-1.135-0.808 0-0.847 1.031-0.847 1.615 0 0.632-0.048 1.999 0.871 1.999" fill="#231f20"/>
    <path id="path366" d="m435.75 222.85h0.687l1.336 4.446h-0.656l-1.008-3.91h-0.015l-1.008 3.91h-0.656l1.32-4.446" fill="#231f20"/>
    <path id="path368" d="m440.17 224.17c0-0.719-0.527-0.903-0.767-0.903-0.512 0-0.624 0.288-0.624 0.735 0 0.304 0.096 0.632 0.392 0.768 0.336 0.16 0.688 0.296 0.999 0.48v-1.08zm1.04-0.855c-0.088-0.008-0.184-0.016-0.272 0.008-0.128 0.064-0.112 0.224-0.112 0.336v2.55c0 0.104 0.112 1.207-1.207 1.207-0.896 0-1.352-0.399-1.32-1.319h0.568c-0.008 0.52 0.072 0.784 0.648 0.784 0.511 0 0.703-0.192 0.703-0.696 0-0.232 0.016-0.408-0.12-0.512-0.08-0.063-0.975-0.399-1.335-0.559-0.616-0.272-0.64-0.912-0.64-1.08 0-0.807 0.256-1.303 1.144-1.303 0.424 0 0.831 0.328 0.983 0.72h0.016c0.064-0.608 0.264-0.656 0.8-0.632 0.048 0.016 0.096 0.024 0.144 0.032v0.464" fill="#231f20" fill-rule="evenodd"/>
    <path id="path370" d="m442 222.85h0.632v5.997h-0.632v-5.997z" fill="#231f20"/>
    <path id="path372" d="m444.63 222.85h0.687l1.336 4.446h-0.656l-1.007-3.91h-0.016l-1.008 3.91h-0.655l1.319-4.446" fill="#231f20"/>
    <path id="path374" d="m447.76 225.54c0.024 0.527 0.04 1.343 0.776 1.343 0.735 0 0.704-0.824 0.727-1.343h-1.503zm1.535-1.208c0.04-0.503-0.128-1.063-0.735-1.063-0.888 0-0.784 1.151-0.8 1.751h2.159c-0.032 1.039 0.048 2.398-1.391 2.398-1.176 0-1.423-1.399-1.423-2.334 0-1.791 0.599-2.351 1.439-2.351 0.935 0 1.383 0.728 1.343 1.599h-0.592" fill="#231f20" fill-rule="evenodd"/>
    <path id="path376" d="m417.44 238.85v0.6h-2.447v5.397h-0.663v-5.997h3.11" fill="#231f20"/>
    <path id="path378" d="m418.67 241.54c0.024 0.527 0.04 1.343 0.775 1.343 0.736 0 0.704-0.824 0.728-1.343h-1.503zm1.535-1.208c0.04-0.503-0.128-1.063-0.736-1.063-0.887 0-0.783 1.151-0.799 1.751h2.159c-0.032 1.039 0.048 2.398-1.392 2.398-1.175 0-1.423-1.399-1.423-2.334 0-1.791 0.6-2.351 1.439-2.351 0.936 0 1.384 0.728 1.344 1.599h-0.592" fill="#231f20" fill-rule="evenodd"/>
    <path id="path380" d="m421.96 238.85h0.632v3.91h0.695v0.536h-0.695v0.471c0 0.544 0.184 0.592 0.695 0.544v0.536c-0.591 0.056-0.967-0.024-1.175-0.32-0.16-0.224-0.16-0.592-0.16-0.855v-0.376h-0.639v-0.536h0.647v-3.91" fill="#231f20"/>
    <path id="path382" d="m424.76 244.51h-0.624v-1.207h-0.615v-0.536h0.615v-3.182c0-0.672 0.28-0.736 0.656-0.728h0.695v0.536h-0.423c-0.352 0-0.296 0.192-0.296 0.344v3.03h0.735v0.536h-0.743v1.207" fill="#231f20"/>
    <path id="path384" d="m429.96 240.17c0-0.719-0.527-0.903-0.767-0.903-0.512 0-0.624 0.288-0.624 0.735 0 0.304 0.096 0.632 0.392 0.768 0.336 0.16 0.688 0.296 0.999 0.48v-1.08zm1.04-0.855c-0.088-0.008-0.184-0.016-0.272 0.008-0.128 0.064-0.112 0.224-0.112 0.336v2.55c0 0.104 0.112 1.207-1.207 1.207-0.896 0-1.352-0.399-1.32-1.319h0.568c-0.008 0.52 0.072 0.784 0.648 0.784 0.511 0 0.703-0.192 0.703-0.696 0-0.232 0.016-0.408-0.12-0.512-0.08-0.063-0.975-0.399-1.335-0.559-0.615-0.272-0.639-0.912-0.639-1.08 0-0.807 0.255-1.303 1.143-1.303 0.424 0 0.831 0.328 0.983 0.72h0.016c0.064-0.608 0.264-0.656 0.8-0.632 0.048 0.016 0.096 0.024 0.144 0.032v0.464" fill="#231f20" fill-rule="evenodd"/>
    <path id="path386" d="m432.53 244.51h-0.624v-1.207h-0.615v-0.536h0.615v-3.182c0-0.672 0.28-0.736 0.656-0.728h0.696v0.536h-0.424c-0.352 0-0.296 0.192-0.296 0.344v3.03h0.736v0.536h-0.744v1.207" fill="#231f20"/>
    <path id="path388" d="m434.7 243.3h-0.608v-4.446h0.632v2.695c0 0.807 0.48 1.319 1.295 1.175v0.624c-0.663 0.056-1.039-0.192-1.303-0.776h-0.016v0.728" fill="#231f20"/>
    <path id="path390" d="m436.68 238.85h0.632v4.446h-0.632v-4.446zm0 5.197h0.632v0.8h-0.632v-0.8z" fill="#231f20" fill-rule="evenodd"/>
    <path id="path392" d="m440.64 238.85h0.631v4.446h-0.631v-2.855c0-0.256-0.04-0.559-0.184-0.783-0.176-0.256-0.456-0.392-0.76-0.392-0.447 0-0.567 0.2-0.567 0.575v3.455h-0.632v-3.431c0-0.783 0.408-1.135 1.071-1.135 0.432 0 0.84 0.248 1.056 0.704h0.016v-0.584" fill="#231f20"/>
    <path id="path394" d="m443.12 241.83c0 0.32 0.016 0.576 0.272 0.808 0.168 0.16 0.392 0.248 0.624 0.248 0.511 0 0.663-0.312 0.663-0.776v-3.254h0.632v2.974c0 0.32 0.032 0.576 0.288 0.808 0.16 0.152 0.376 0.24 0.591 0.248 0.544 0 0.68-0.28 0.68-0.776v-3.254h0.632v3.214c0 0.28 0.016 0.776-0.272 1.04-0.232 0.208-0.512 0.311-0.816 0.311-0.559 0-0.879-0.247-1.191-0.703-0.2 0.424-0.584 0.703-1.055 0.703-0.464 0-0.848-0.311-1.072-0.687v0.568h-0.608v-4.446h0.632v2.974" fill="#231f20" fill-rule="evenodd"/>
    <path id="path396" d="m415.52 300.66c-0.816-1.328-1.239-2.343-1.239-3.918 0-1.399 0.519-2.623 1.239-3.798h0.464c-0.752 1.279-1.032 2.423-1.032 3.894 0 2.039 0.632 3.078 0.992 3.822h-0.424" fill="#231f20" fill-rule="evenodd"/>
    <path id="path398" d="m417.64 300.32h-0.624v-1.207h-0.615v-0.536h0.615v-3.182c0-0.672 0.28-0.736 0.656-0.728h0.695v0.536h-0.423c-0.352 0-0.296 0.192-0.296 0.344v3.03h0.736v0.536h-0.744v1.207" fill="#231f20"/>
    <path id="path400" d="m422.14 297.04c0 1.343-0.496 2.19-1.592 2.19-1.095 0-1.591-0.847-1.591-2.19 0-1.919 0.632-2.495 1.591-2.495 0.976 0 1.592 0.568 1.592 2.495zm-0.656-0.2c0-1.048-0.184-1.759-0.936-1.759-0.735 0-0.935 0.711-0.935 1.759 0 1.343 0.288 1.855 0.935 1.855 0.664 0 0.936-0.512 0.936-1.855" fill="#231f20" fill-rule="evenodd"/>
    <path id="path402" d="m425.13 294.67h0.632v5.997h-0.632v-5.997z" fill="#231f20"/>
    <path id="path404" d="m429.09 294.67h0.631v4.446h-0.631v-2.855c0-0.256-0.04-0.56-0.184-0.783-0.176-0.256-0.456-0.392-0.76-0.392-0.447 0-0.567 0.2-0.567 0.575v3.455h-0.632v-3.431c0-0.783 0.408-1.135 1.071-1.135 0.432 0 0.84 0.248 1.056 0.704h0.016v-0.584" fill="#231f20"/>
    <path id="path406" d="m431.53 299.11h-0.616v-4.446h0.632v2.974c0 0.32 0.032 0.576 0.288 0.808 0.168 0.16 0.392 0.248 0.624 0.248 0.511 0 0.663-0.312 0.663-0.776v-3.254h0.632v3.43c0 0.784-0.432 1.135-1.096 1.135-0.479 0-0.807-0.223-1.127-0.607v0.488" fill="#231f20" fill-rule="evenodd"/>
    <path id="path408" d="m436.22 298.7c0.704 0 0.888-0.832 0.888-1.711 0-0.712 0.008-1.903-0.952-1.903-0.623 0-0.807 0.719-0.807 1.807 0 0.599 0.032 1.807 0.871 1.807zm0.888-0.088h-0.016c-0.216 0.424-0.584 0.623-0.992 0.623-1.175 0-1.407-1.375-1.407-2.31 0-1.791 0.584-2.375 1.423-2.375 0.408 0 0.696 0.184 0.96 0.64h0.016c-0.008-0.488 0.096-1.495-0.928-1.495-0.384 0-0.639 0.151-0.696 0.551h-0.615c0.088-0.759 0.615-1.087 1.327-1.087 0.488 0 0.944 0.176 1.223 0.615 0.296 0.472 0.336 0.888 0.336 1.432v3.91h-0.631v-0.504" fill="#231f20" fill-rule="evenodd"/>
    <path id="path410" d="m441.37 297.92c0.016 0.912-0.496 1.311-1.375 1.311-0.768 0-1.304-0.487-1.304-1.255 0-0.775 0.4-1.007 1.088-1.263 0.456-0.192 1.095-0.248 1.095-0.88 0-0.543-0.336-0.751-0.847-0.751-0.592 0-0.776 0.336-0.752 0.879h-0.6c0-0.304-0.016-0.599 0.248-0.951 0.232-0.336 0.712-0.472 1.104-0.464 0.911-0.008 1.503 0.52 1.503 1.367 0 0.832-0.64 0.992-1.279 1.28-0.432 0.183-0.904 0.255-0.904 0.831 0 0.464 0.256 0.672 0.704 0.672 0.535 0 0.727-0.248 0.703-0.776h0.616" fill="#231f20"/>
    <path id="path412" d="m442.7 292.95c0.816 1.327 1.24 2.343 1.24 3.918 0 1.399-0.52 2.622-1.24 3.798h-0.463c0.751-1.28 1.031-2.423 1.031-3.894 0-2.039-0.632-3.078-0.991-3.822h0.423" fill="#231f20" fill-rule="evenodd"/>
    <path id="path414" d="m415.96 303.99c0-0.719-0.528-0.903-0.768-0.903-0.512 0-0.624 0.288-0.624 0.735 0 0.304 0.096 0.632 0.392 0.768 0.336 0.16 0.688 0.296 1 0.48v-1.08zm1.039-0.855c-0.088-0.008-0.184-0.016-0.272 0.008-0.128 0.064-0.112 0.224-0.112 0.335v2.551c0 0.104 0.112 1.207-1.207 1.207-0.896 0-1.351-0.399-1.319-1.319h0.567c-0.008 0.52 0.072 0.784 0.648 0.784 0.512 0 0.704-0.192 0.704-0.696 0-0.232 0.016-0.408-0.12-0.512-0.08-0.063-0.976-0.399-1.335-0.559-0.616-0.272-0.64-0.912-0.64-1.08 0-0.807 0.256-1.303 1.143-1.303 0.424 0 0.832 0.328 0.984 0.72h0.016c0.064-0.608 0.263-0.656 0.799-0.632 0.048 0.016 0.096 0.024 0.144 0.032v0.464" fill="#231f20" fill-rule="evenodd"/>
    <path id="path416" d="m418.48 307.11h-0.607v-4.445h0.631v2.695c0 0.807 0.48 1.319 1.296 1.175v0.623c-0.664 0.056-1.04-0.191-1.304-0.775h-0.016v0.727" fill="#231f20"/>
    <path id="path418" d="m421.19 308.32h-0.624v-1.208h-0.615v-0.535h0.615v-3.182c0-0.672 0.28-0.736 0.656-0.728h0.696v0.536h-0.424c-0.352 0-0.296 0.192-0.296 0.343v3.031h0.736v0.535h-0.744v1.208" fill="#231f20"/>
    <path id="path420" d="m423.1 305.35c0.024 0.528 0.04 1.344 0.776 1.344 0.735 0 0.703-0.824 0.727-1.344h-1.503zm1.535-1.207c0.04-0.503-0.128-1.063-0.735-1.063-0.888 0-0.784 1.151-0.8 1.751h2.159c-0.032 1.039 0.048 2.398-1.391 2.398-1.176 0-1.423-1.399-1.423-2.334 0-1.791 0.599-2.351 1.439-2.351 0.935 0 1.383 0.728 1.343 1.599h-0.592" fill="#231f20" fill-rule="evenodd"/>
    <path id="path422" d="m426.91 307.11h-0.607v-4.445h0.631v2.695c0 0.807 0.48 1.319 1.296 1.175v0.623c-0.664 0.056-1.04-0.191-1.304-0.775h-0.016v0.727" fill="#231f20"/>
    <path id="path424" d="m429.92 302.56c-0.176-0.44-0.192-0.879-0.784-0.879-0.152 0-0.328 0.031-0.472 0.095v-0.559c0.152-0.048 0.304-0.072 0.456-0.072 0.464 0 0.784 0.168 1.016 0.583 0.128 0.224 0.327 0.872 0.407 1.136l1.32 4.245h-0.656l-1.031-3.853h-0.016l-1 3.853h-0.655l1.415-4.549" fill="#231f20"/>
    <path id="path426" d="m415.02 316.06h0.688c0.807 0.016 1.423-0.12 1.423-1.087 0.008-1.032-0.552-1.16-1.463-1.168h-0.648v2.255zm0-5.397v2.543h0.4c0.456 0 1.135 0 1.551 0.176 0.648 0.295 0.848 0.943 0.848 1.607 0 0.479-0.128 0.943-0.488 1.279-0.352 0.336-0.936 0.392-1.399 0.392h-1.575v-5.997h0.663" fill="#231f20" fill-rule="evenodd"/>
    <path id="path428" d="m420.88 310.67h0.631v4.445h-0.631v-2.854c0-0.256-0.04-0.56-0.184-0.783-0.176-0.256-0.456-0.392-0.76-0.392-0.448 0-0.568 0.2-0.568 0.575v3.454h-0.631v-3.43c0-0.783 0.408-1.135 1.071-1.135 0.432 0 0.84 0.248 1.056 0.704h0.016v-0.584" fill="#231f20"/>
    <path id="path430" d="m422.69 310.67h0.632v5.997h-0.632v-5.997z" fill="#231f20"/>
    <path id="path432" d="m425.13 313.64c0 0.32 0.016 0.576 0.272 0.808 0.168 0.16 0.391 0.248 0.623 0.248 0.512 0 0.664-0.312 0.664-0.776v-3.254h0.632v2.974c0 0.32 0.032 0.576 0.287 0.808 0.16 0.152 0.376 0.24 0.592 0.248 0.544 0 0.68-0.28 0.68-0.776v-3.254h0.631v3.214c0 0.28 0.016 0.776-0.271 1.04-0.232 0.208-0.512 0.311-0.816 0.311-0.56 0-0.88-0.247-1.191-0.703-0.2 0.424-0.584 0.703-1.056 0.703-0.463 0-0.847-0.311-1.071-0.687v0.567h-0.608v-4.445h0.632v2.974" fill="#231f20" fill-rule="evenodd"/>
    <path id="path434" d="m433.7 313.04c0 1.343-0.496 2.19-1.591 2.19-1.096 0-1.591-0.847-1.591-2.19 0-1.919 0.631-2.495 1.591-2.495 0.975 0 1.591 0.568 1.591 2.495zm-0.656-0.2c0-1.048-0.184-1.759-0.935-1.759-0.736 0-0.936 0.711-0.936 1.759 0 1.343 0.288 1.855 0.936 1.855 0.663 0 0.935-0.512 0.935-1.855" fill="#231f20" fill-rule="evenodd"/>
    <path id="path436" d="m435.32 315.11h-0.616v-4.445h0.632v2.974c0 0.32 0.032 0.576 0.288 0.808 0.167 0.16 0.391 0.248 0.623 0.248 0.512 0 0.664-0.312 0.664-0.776v-3.254h0.631v3.43c0 0.784-0.431 1.135-1.095 1.135-0.48 0-0.808-0.223-1.127-0.607v0.487" fill="#231f20" fill-rule="evenodd"/>
    <path id="path438" d="m440.41 311.99c0-0.719-0.528-0.903-0.768-0.903-0.512 0-0.624 0.288-0.624 0.735 0 0.304 0.096 0.632 0.392 0.768 0.336 0.16 0.688 0.296 1 0.48v-1.08zm1.039-0.855c-0.088-0.008-0.184-0.016-0.272 0.008-0.128 0.064-0.112 0.224-0.112 0.336v2.55c0 0.104 0.112 1.207-1.207 1.207-0.896 0-1.351-0.399-1.319-1.319h0.567c-0.008 0.52 0.072 0.784 0.648 0.784 0.512 0 0.704-0.192 0.704-0.696 0-0.232 0.016-0.408-0.12-0.512-0.08-0.064-0.976-0.399-1.336-0.559-0.615-0.272-0.639-0.912-0.639-1.08 0-0.807 0.255-1.303 1.143-1.303 0.424 0 0.832 0.328 0.984 0.72h0.016c0.063-0.608 0.263-0.656 0.799-0.632 0.048 0.016 0.096 0.024 0.144 0.032v0.464" fill="#231f20" fill-rule="evenodd"/>
    <path id="path440" d="m442.92 315.11h-0.607v-4.445h0.631v2.694c0 0.808 0.48 1.32 1.296 1.176v0.624c-0.664 0.055-1.04-0.192-1.304-0.776h-0.016v0.727" fill="#231f20"/>
    <path id="path442" d="m445.93 310.56c-0.176-0.44-0.192-0.879-0.784-0.879-0.152 0-0.328 0.032-0.471 0.096v-0.56c0.151-0.048 0.303-0.072 0.455-0.072 0.464 0 0.784 0.168 1.016 0.583 0.128 0.224 0.328 0.872 0.408 1.136l1.319 4.245h-0.656l-1.031-3.853h-0.016l-1 3.853h-0.655l1.415-4.549" fill="#231f20"/>
    <path id="path444" d="m415.52 332.66c-0.816-1.328-1.239-2.343-1.239-3.918 0-1.399 0.519-2.623 1.239-3.798h0.464c-0.752 1.279-1.032 2.423-1.032 3.894 0 2.039 0.632 3.078 0.992 3.822h-0.424" fill="#231f20" fill-rule="evenodd"/>
    <path id="path446" d="m417.64 332.32h-0.624v-1.208h-0.615v-0.535h0.615v-3.182c0-0.672 0.28-0.736 0.656-0.728h0.695v0.536h-0.423c-0.352 0-0.296 0.192-0.296 0.343v3.031h0.736v0.535h-0.744v1.208" fill="#231f20"/>
    <path id="path448" d="m422.14 329.04c0 1.343-0.496 2.19-1.592 2.19-1.095 0-1.591-0.847-1.591-2.19 0-1.919 0.632-2.495 1.591-2.495 0.976 0 1.592 0.568 1.592 2.495zm-0.656-0.2c0-1.048-0.184-1.759-0.936-1.759-0.735 0-0.935 0.711-0.935 1.759 0 1.343 0.288 1.855 0.935 1.855 0.664 0 0.936-0.512 0.936-1.855" fill="#231f20" fill-rule="evenodd"/>
    <path id="path450" d="m425.75 328.78c0 0.648-0.056 1.919 0.879 1.919 0.808 0 0.848-1.144 0.848-1.727 0-1.2-0.184-1.887-0.84-1.887-0.895 0-0.887 1.047-0.887 1.695zm-0.016-1.583h0.016c0.264-0.52 0.631-0.648 1.015-0.648 1.199 0 1.367 1.367 1.367 2.631 0 0.911-0.271 2.054-1.399 2.054-0.392 0-0.679-0.175-0.927-0.575h-0.016v2.007h-0.632v-5.997h0.576v0.528" fill="#231f20" fill-rule="evenodd"/>
    <path id="path452" d="m432.14 329.04c0 1.343-0.496 2.19-1.591 2.19-1.096 0-1.591-0.847-1.591-2.19 0-1.919 0.631-2.495 1.591-2.495 0.975 0 1.591 0.568 1.591 2.495zm-0.656-0.2c0-1.048-0.184-1.759-0.935-1.759-0.736 0-0.936 0.711-0.936 1.759 0 1.343 0.288 1.855 0.936 1.855 0.663 0 0.935-0.512 0.935-1.855" fill="#231f20" fill-rule="evenodd"/>
    <path id="path454" d="m435.31 328.41c0-0.504-0.184-1.327-0.84-1.327-0.863 0-0.895 0.871-0.895 1.831 0 1.367 0.344 1.783 0.871 1.783 0.848 0 0.864-1.128 0.864-1.735v-0.552zm0 2.247h-0.016c-0.296 0.384-0.568 0.575-1.024 0.575-0.951 0-1.383-1.031-1.335-2.334 0.016-0.392-0.096-2.351 1.303-2.351 0.536 0 0.808 0.176 1.08 0.704h0.016v-0.584h0.608v5.997h-0.632v-2.007" fill="#231f20" fill-rule="evenodd"/>
    <path id="path456" d="m438.01 326.56c-0.176-0.44-0.192-0.879-0.784-0.879-0.151 0-0.327 0.031-0.471 0.095v-0.559c0.152-0.048 0.303-0.072 0.455-0.072 0.464 0 0.784 0.168 1.016 0.583 0.128 0.224 0.328 0.872 0.408 1.136l1.319 4.245h-0.656l-1.031-3.853h-0.016l-1 3.853h-0.655l1.415-4.549" fill="#231f20"/>
    <path id="path458" d="m440.92 324.95c0.815 1.327 1.239 2.343 1.239 3.918 0 1.399-0.52 2.622-1.239 3.798h-0.464c0.751-1.28 1.031-2.423 1.031-3.894 0-2.039-0.632-3.079-0.991-3.822h0.424" fill="#231f20" fill-rule="evenodd"/>
    <path id="path460" d="m413.76 334.67h0.736l0.439 1.727h1.895l0.472-1.727h0.736l-1.688 5.997h-0.879l-1.711-5.997zm2.918 2.327h-1.583l0.792 3.19h0.016l0.775-3.19" fill="#231f20" fill-rule="evenodd"/>
    <path id="path462" d="m421.71 337.04c0 1.343-0.496 2.19-1.591 2.19s-1.591-0.847-1.591-2.19c0-1.919 0.632-2.495 1.591-2.495 0.975 0 1.591 0.568 1.591 2.495zm-0.656-0.2c0-1.048-0.184-1.759-0.935-1.759-0.736 0-0.935 0.711-0.935 1.759 0 1.343 0.287 1.855 0.935 1.855 0.664 0 0.935-0.512 0.935-1.855" fill="#231f20" fill-rule="evenodd"/>
    <path id="path464" d="m423.37 339.11h-0.608v-4.445h0.632v2.694c0 0.808 0.48 1.32 1.295 1.176v0.624c-0.663 0.055-1.039-0.192-1.303-0.776h-0.016v0.727" fill="#231f20"/>
    <path id="path466" d="m426.09 340.32h-0.624v-1.208h-0.616v-0.535h0.616v-3.182c0-0.672 0.28-0.736 0.656-0.728h0.695v0.536h-0.424c-0.351 0-0.295 0.192-0.295 0.343v3.031h0.735v0.535h-0.743v1.208" fill="#231f20"/>
    <path id="path468" d="m429.3 335.99c0-0.719-0.528-0.903-0.768-0.903-0.511 0-0.623 0.288-0.623 0.735 0 0.304 0.096 0.632 0.392 0.768 0.335 0.16 0.687 0.296 0.999 0.48v-1.08zm1.039-0.855c-0.088-0.008-0.184-0.016-0.271 0.008-0.128 0.064-0.112 0.224-0.112 0.336v2.55c0 0.104 0.112 1.207-1.208 1.207-0.895 0-1.351-0.399-1.319-1.319h0.568c-0.008 0.52 0.072 0.784 0.647 0.784 0.512 0 0.704-0.192 0.704-0.696 0-0.232 0.016-0.408-0.12-0.512-0.08-0.064-0.975-0.399-1.335-0.559-0.616-0.272-0.64-0.912-0.64-1.08 0-0.807 0.256-1.303 1.143-1.303 0.424 0 0.832 0.328 0.984 0.72h0.016c0.064-0.608 0.264-0.656 0.799-0.632 0.048 0.016 0.096 0.024 0.144 0.032v0.464" fill="#231f20" fill-rule="evenodd"/>
    <path id="path470" d="m390.49 293.97s-10.947-3.837-22.489-7.235c-3.694-1.088-24.004-7.938-27.862-4.242-4.346 4.163-6.809 6.561-8.543 12.065h4.786s-1.534 2.983-0.016-0.06c1.565-3.136 3.691-6.486 6.324-8.426 5.414-1.798 41.513 10.349 46.346 12.043l1.454-4.145" fill="#d3d2d2"/>
    <path id="path472" d="m335.86 295.61c0.167-0.36 0.32-0.732 0.509-1.112 1.565-3.136 3.691-6.486 6.324-8.426 5.414-1.798 41.513 10.349 46.346 12.043m1.454-4.145s-10.947-3.837-22.489-7.235c-3.694-1.088-23.56-7.411-27.862-4.242-3.829 2.821-7.13 8.242-9.148 13.139m-5.883-2.517c14.055-14.292-10.16-33.459-10.623-48.805-0.102-3.398 0.266-8.845 0.795-16.879 1.476-0.388 2.684 0.855 4.746 2.331 2.063 1.476 3.574 0.31 3.574 0.31l-8.088-7.706c1.3-18.69 3.358-41.386 3.358-41.386s1.845 0.009 2.69-3.539c0.845-3.547 2.958-9.938 6.506-12.192 0 0-12.616 4.998-15.01 11.347-1.55 4.111 0.986 6.224 0.986 6.224s-4.298 49.994-3.948 61.622c0.478 15.843 20.497 32.324 13.319 43.656-0.347 0.548-0.761 1.107-1.222 1.635m24.691-3.588c-4.191 15.058-33.629 14.21-25.498-13.694 0.078-0.266 0.154-0.518 0.229-0.753" stroke="#231f20" stroke-miterlimit="3.864" stroke-width="1.098" fill="none"/>
    <path id="path474" d="m411.65 337.29-62.287-31.459m62.287 3.906-29.116-2.734-5.228-14.513" stroke="#fff" stroke-miterlimit="3.864" stroke-width="1.2" fill="none"/>
    <path id="path476" d="m411.65 309.74-29.116-2.734-5.228-14.513" stroke="#231f20" stroke-miterlimit="3.864" stroke-dasharray="0.8, 0.8" stroke-width=".4" fill="none"/>
    <path id="path478" d="m411.65 225.76h-59.553l-10.696-3.666m70.249-12.259h-47.534m47.534-24.428h-39.963m39.963-26.772h-60.334" stroke="#fff" stroke-miterlimit="3.864" stroke-width="1.2" fill="none"/>
    <path id="path480" d="m411.65 225.76h-59.553l-10.696-3.666m70.249-12.259h-47.534m47.534-24.428h-39.963m39.963-26.772h-60.334" stroke="#231f20" stroke-miterlimit="3.864" stroke-dasharray="0.8, 0.8" stroke-width=".4" fill="none"/>
    <path id="path482" d="m228.93 228.88h92.725m-69.468-16.706h20.762m-42.066-37.619h70.4m-61.896-25.209h26.772" stroke="#fff" stroke-miterlimit="3.864" stroke-width="1.2" fill="none"/>
    <path id="path484" d="m228.93 228.88h92.725m-69.468-16.706h20.762m-42.066-37.619h70.4m-55.105-25.209h19.981m145.49 187.94-62.287-31.459" stroke="#231f20" stroke-miterlimit="3.864" stroke-dasharray="0.8, 0.8" stroke-width=".4" fill="none"/>
    <path id="path486" d="m212.28 133.23c0 0.648-0.056 1.919 0.88 1.919 0.807 0 0.847-1.143 0.847-1.727 0-1.199-0.184-1.887-0.839-1.887-0.896 0-0.888 1.048-0.888 1.695zm-0.016-1.583h0.016c0.264-0.52 0.632-0.648 1.016-0.648 1.199 0 1.367 1.368 1.367 2.631 0 0.911-0.272 2.055-1.399 2.055-0.392 0-0.68-0.176-0.928-0.576h-0.016v2.007h-0.631v-5.997h0.575v0.528" fill="#231f20" fill-rule="evenodd"/>
    <path id="path488" d="m218.68 133.49c0 1.343-0.495 2.191-1.591 2.191-1.095 0-1.591-0.848-1.591-2.191 0-1.919 0.632-2.495 1.591-2.495 0.976 0 1.591 0.568 1.591 2.495zm-0.655-0.2c0-1.047-0.184-1.759-0.936-1.759-0.735 0-0.935 0.712-0.935 1.759 0 1.343 0.288 1.855 0.935 1.855 0.664 0 0.936-0.512 0.936-1.855" fill="#231f20" fill-rule="evenodd"/>
    <path id="path490" d="m221.84 132.86c0-0.503-0.184-1.327-0.839-1.327-0.864 0-0.896 0.872-0.896 1.831 0 1.367 0.344 1.783 0.872 1.783 0.847 0 0.863-1.127 0.863-1.735v-0.552zm0 2.247h-0.016c-0.296 0.384-0.567 0.576-1.023 0.576-0.952 0-1.383-1.032-1.335-2.335 0.016-0.392-0.096-2.351 1.303-2.351 0.536 0 0.808 0.176 1.079 0.704h0.016v-0.584h0.608v5.997h-0.632v-2.007" fill="#231f20" fill-rule="evenodd"/>
    <path id="path492" d="m224.54 131.02c-0.176-0.439-0.192-0.879-0.784-0.879-0.152 0-0.328 0.032-0.472 0.096v-0.56c0.152-0.048 0.304-0.072 0.456-0.072 0.464 0 0.784 0.168 1.015 0.584 0.128 0.224 0.328 0.871 0.408 1.135l1.319 4.246h-0.655l-1.032-3.854h-0.016l-0.999 3.854h-0.656l1.416-4.55" fill="#231f20"/>
    <path id="path494" d="m227.45 129.4c0.816 1.328 1.239 2.343 1.239 3.918 0 1.4-0.519 2.623-1.239 3.798h-0.464c0.752-1.279 1.032-2.423 1.032-3.894 0-2.039-0.632-3.078-0.992-3.822h0.424" fill="#231f20" fill-rule="evenodd"/>
    <path id="path496" d="m212.93 145.12c-0.816-1.327-1.239-2.343-1.239-3.918 0-1.399 0.519-2.622 1.239-3.798h0.464c-0.752 1.28-1.032 2.423-1.032 3.894 0 2.039 0.632 3.079 0.992 3.822h-0.424" fill="#231f20" fill-rule="evenodd"/>
    <path id="path498" d="m214.49 139.12h0.632v3.91h0.695v0.536h-0.695v0.472c0 0.543 0.184 0.591 0.695 0.543v0.536c-0.591 0.056-0.967-0.024-1.175-0.32-0.16-0.224-0.16-0.591-0.16-0.855v-0.376h-0.639v-0.536h0.647v-3.91" fill="#231f20"/>
    <path id="path500" d="m217.23 143.57h-0.608v-4.446h0.632v2.695c0 0.808 0.48 1.319 1.295 1.175v0.624c-0.664 0.056-1.039-0.192-1.303-0.776h-0.016v0.728" fill="#231f20"/>
    <path id="path502" d="m222.22 141.49c0 1.343-0.495 2.191-1.591 2.191-1.095 0-1.591-0.848-1.591-2.191 0-1.919 0.632-2.494 1.591-2.494 0.976 0 1.591 0.567 1.591 2.494zm-0.655-0.2c0-1.047-0.184-1.759-0.936-1.759-0.735 0-0.935 0.712-0.935 1.759 0 1.343 0.288 1.855 0.935 1.855 0.664 0 0.936-0.512 0.936-1.855" fill="#231f20" fill-rule="evenodd"/>
    <path id="path504" d="m223.87 142.09c0 0.32 0.016 0.575 0.272 0.807 0.168 0.16 0.392 0.248 0.624 0.248 0.511 0 0.663-0.312 0.663-0.775v-3.255h0.632v2.975c0 0.32 0.032 0.575 0.288 0.807 0.16 0.152 0.376 0.24 0.591 0.248 0.544 0 0.68-0.28 0.68-0.775v-3.255h0.632v3.215c0 0.28 0.016 0.775-0.272 1.039-0.232 0.208-0.512 0.312-0.816 0.312-0.559 0-0.879-0.248-1.191-0.704-0.2 0.424-0.584 0.704-1.056 0.704-0.463 0-0.847-0.312-1.071-0.688v0.568h-0.608v-4.446h0.632v2.975" fill="#231f20" fill-rule="evenodd"/>
    <path id="path506" d="m231.43 139.12h0.632v5.997h-0.632v-5.997z" fill="#231f20"/>
    <path id="path508" d="m236.22 141.49c0 1.343-0.495 2.191-1.591 2.191-1.095 0-1.591-0.848-1.591-2.191 0-1.919 0.632-2.494 1.591-2.494 0.976 0 1.591 0.567 1.591 2.494zm-0.655-0.2c0-1.047-0.184-1.759-0.936-1.759-0.735 0-0.935 0.712-0.935 1.759 0 1.343 0.288 1.855 0.935 1.855 0.664 0 0.936-0.512 0.936-1.855" fill="#231f20" fill-rule="evenodd"/>
    <path id="path510" d="m239.62 143.57h-0.656l-0.703-3.91h-0.016l-0.808 3.91h-0.655l1.143-4.446h0.656l0.703 3.91h0.016l0.752-3.91h0.655l1.112 4.446h-0.656l-0.775-3.91h-0.016l-0.752 3.91" fill="#231f20"/>
    <path id="path512" d="m242.97 141.81c0.024 0.528 0.04 1.343 0.775 1.343 0.736 0 0.704-0.823 0.728-1.343h-1.503zm1.535-1.207c0.04-0.504-0.128-1.064-0.736-1.064-0.887 0-0.783 1.152-0.799 1.751h2.159c-0.032 1.04 0.048 2.399-1.392 2.399-1.175 0-1.423-1.399-1.423-2.335 0-1.791 0.6-2.35 1.439-2.35 0.936 0 1.384 0.727 1.344 1.599h-0.592" fill="#231f20" fill-rule="evenodd"/>
    <path id="path514" d="m246.78 143.57h-0.608v-4.446h0.632v2.695c0 0.808 0.48 1.319 1.295 1.175v0.624c-0.664 0.056-1.039-0.192-1.303-0.776h-0.016v0.728" fill="#231f20"/>
    <path id="path516" d="m212.51 147.12h0.688l1.335 4.446h-0.656l-1.007-3.91h-0.016l-1.008 3.91h-0.655l1.319-4.446" fill="#231f20"/>
    <path id="path518" d="m215.64 149.81c0.025 0.528 0.04 1.343 0.776 1.343s0.704-0.823 0.728-1.343h-1.504zm1.536-1.207c0.04-0.504-0.128-1.064-0.736-1.064-0.887 0-0.784 1.152-0.8 1.751h2.159c-0.032 1.04 0.048 2.399-1.391 2.399-1.175 0-1.423-1.399-1.423-2.335 0-1.791 0.599-2.351 1.439-2.351 0.936 0 1.383 0.728 1.343 1.6h-0.591" fill="#231f20" fill-rule="evenodd"/>
    <path id="path520" d="m219.39 151.57h-0.616v-4.446h0.632v2.975c0 0.32 0.031 0.575 0.287 0.807 0.168 0.16 0.392 0.248 0.624 0.248 0.512 0 0.664-0.312 0.664-0.775v-3.255h0.631v3.431c0 0.783-0.431 1.135-1.095 1.135-0.48 0-0.808-0.224-1.127-0.608v0.488" fill="#231f20" fill-rule="evenodd"/>
    <path id="path522" d="m224.48 148.44c0-0.72-0.527-0.904-0.767-0.904-0.512 0-0.624 0.288-0.624 0.736 0 0.304 0.096 0.631 0.392 0.767 0.336 0.16 0.688 0.296 0.999 0.48v-1.079zm1.04-0.856c-0.088-0.008-0.184-0.016-0.272 0.008-0.128 0.064-0.112 0.224-0.112 0.336v2.551c0 0.104 0.112 1.207-1.207 1.207-0.896 0-1.351-0.4-1.32-1.319h0.568c-0.008 0.519 0.072 0.783 0.648 0.783 0.512 0 0.703-0.192 0.703-0.695 0-0.232 0.016-0.408-0.119-0.512-0.081-0.064-0.976-0.4-1.336-0.56-0.615-0.272-0.639-0.911-0.639-1.079 0-0.808 0.255-1.304 1.143-1.304 0.424 0 0.832 0.328 0.983 0.72h0.016c0.064-0.608 0.264-0.656 0.8-0.632 0.048 0.016 0.096 0.024 0.144 0.032v0.464" fill="#231f20" fill-rule="evenodd"/>
    <path id="path524" d="m229.62 151.15c0.6 0 0.728-0.496 0.736-0.983h0.591c0.008 0.823-0.423 1.519-1.319 1.519-1.359 0-1.535-1.311-1.535-2.399 0-1.151 0.192-2.287 1.551-2.287 0.992 0 1.311 0.816 1.335 1.672h-0.599c-0.032-0.544-0.096-1.136-0.784-1.136-0.807 0-0.847 1.032-0.847 1.615 0 0.632-0.049 1.999 0.871 1.999" fill="#231f20"/>
    <path id="path526" d="m233.59 148.44c0-0.72-0.528-0.904-0.768-0.904-0.511 0-0.623 0.288-0.623 0.736 0 0.304 0.096 0.631 0.391 0.767 0.336 0.16 0.688 0.296 1 0.48v-1.079zm1.039-0.856c-0.088-0.008-0.183-0.016-0.271 0.008-0.128 0.064-0.112 0.224-0.112 0.336v2.551c0 0.104 0.112 1.207-1.208 1.207-0.895 0-1.351-0.4-1.319-1.319h0.568c-0.008 0.519 0.072 0.783 0.647 0.783 0.512 0 0.704-0.192 0.704-0.695 0-0.232 0.016-0.408-0.12-0.512-0.08-0.064-0.975-0.4-1.335-0.56-0.616-0.272-0.64-0.911-0.64-1.079 0-0.808 0.256-1.304 1.143-1.304 0.424 0 0.832 0.328 0.984 0.72h0.016c0.064-0.608 0.264-0.656 0.799-0.632 0.048 0.016 0.097 0.024 0.144 0.032v0.464" fill="#231f20" fill-rule="evenodd"/>
    <path id="path528" d="m236.27 147.12h0.687l1.335 4.446h-0.655l-1.008-3.91h-0.016l-1.007 3.91h-0.656l1.32-4.446" fill="#231f20"/>
    <path id="path530" d="m240.69 148.44c0-0.72-0.527-0.904-0.767-0.904-0.512 0-0.624 0.288-0.624 0.736 0 0.304 0.096 0.631 0.392 0.767 0.336 0.16 0.687 0.296 0.999 0.48v-1.079zm1.04-0.856c-0.088-0.008-0.184-0.016-0.272 0.008-0.128 0.064-0.112 0.224-0.112 0.336v2.551c0 0.104 0.112 1.207-1.207 1.207-0.896 0-1.352-0.4-1.32-1.319h0.568c-0.008 0.519 0.072 0.783 0.648 0.783 0.511 0 0.703-0.192 0.703-0.695 0-0.232 0.016-0.408-0.12-0.512-0.08-0.064-0.975-0.4-1.335-0.56-0.616-0.272-0.64-0.911-0.64-1.079 0-0.808 0.256-1.304 1.144-1.304 0.423 0 0.831 0.328 0.983 0.72h0.016c0.064-0.608 0.264-0.656 0.8-0.632 0.048 0.016 0.096 0.024 0.144 0.032v0.464" fill="#231f20" fill-rule="evenodd"/>
    <path id="path532" d="m211.87 155.12h0.664v5.997h-0.664v-5.997z" fill="#231f20"/>
    <path id="path534" d="m214.51 159.57h-0.615v-4.446h0.631v2.975c0 0.32 0.032 0.575 0.288 0.807 0.168 0.16 0.392 0.248 0.624 0.248 0.511 0 0.663-0.312 0.663-0.775v-3.255h0.632v3.43c0 0.784-0.432 1.136-1.096 1.136-0.479 0-0.807-0.224-1.127-0.608v0.488" fill="#231f20" fill-rule="evenodd"/>
    <path id="path536" d="m218.05 155.12h0.632v3.91h0.695v0.536h-0.695v0.472c0 0.543 0.183 0.591 0.695 0.543v0.536c-0.592 0.056-0.967-0.024-1.175-0.32-0.16-0.224-0.16-0.591-0.16-0.855v-0.376h-0.64v-0.536h0.648v-3.91" fill="#231f20"/>
    <path id="path538" d="m220.53 157.81c0.024 0.528 0.04 1.343 0.775 1.343 0.736 0 0.704-0.823 0.728-1.343h-1.503zm1.535-1.207c0.04-0.504-0.128-1.064-0.736-1.064-0.887 0-0.783 1.152-0.799 1.751h2.158c-0.032 1.04 0.048 2.399-1.391 2.399-1.175 0-1.423-1.399-1.423-2.335 0-1.791 0.6-2.351 1.439-2.351 0.936 0 1.383 0.728 1.343 1.6h-0.591" fill="#231f20" fill-rule="evenodd"/>
    <path id="path540" d="m224.34 159.57h-0.608v-4.446h0.632v2.695c0 0.808 0.479 1.319 1.295 1.175v0.624c-0.664 0.056-1.04-0.192-1.303-0.776h-0.016v0.728" fill="#231f20"/>
    <path id="path542" d="m226.32 155.12h0.632v4.446h-0.632v-4.446zm0 5.198h0.632v0.8h-0.632v-0.8z" fill="#231f20" fill-rule="evenodd"/>
    <path id="path544" d="m231.11 157.49c0 1.343-0.496 2.191-1.591 2.191s-1.591-0.848-1.591-2.191c0-1.919 0.631-2.495 1.591-2.495 0.975 0 1.591 0.568 1.591 2.495zm-0.656-0.2c0-1.047-0.184-1.759-0.935-1.759-0.736 0-0.936 0.712-0.936 1.759 0 1.343 0.288 1.855 0.936 1.855 0.664 0 0.935-0.512 0.935-1.855" fill="#231f20" fill-rule="evenodd"/>
    <path id="path546" d="m232.78 159.57h-0.608v-4.446h0.632v2.695c0 0.808 0.48 1.319 1.295 1.175v0.624c-0.664 0.056-1.039-0.192-1.303-0.776h-0.016v0.728" fill="#231f20"/>
    <path id="path548" d="m212.51 171.12h0.688l1.335 4.446h-0.656l-1.007-3.91h-0.016l-1.008 3.91h-0.655l1.319-4.446" fill="#231f20"/>
    <path id="path550" d="m216.93 172.44c0-0.72-0.528-0.904-0.768-0.904-0.512 0-0.623 0.288-0.623 0.736 0 0.304 0.095 0.631 0.391 0.767 0.336 0.16 0.688 0.296 1 0.48v-1.079zm1.039-0.856c-0.088-0.008-0.184-0.016-0.272 0.008-0.128 0.064-0.112 0.224-0.112 0.336v2.551c0 0.104 0.112 1.207-1.207 1.207-0.895 0-1.351-0.4-1.319-1.319h0.567c-0.008 0.519 0.072 0.783 0.648 0.783 0.512 0 0.704-0.192 0.704-0.695 0-0.232 0.016-0.408-0.12-0.512-0.08-0.064-0.976-0.4-1.335-0.56-0.616-0.272-0.64-0.911-0.64-1.079 0-0.808 0.256-1.304 1.143-1.304 0.424 0 0.832 0.328 0.984 0.72h0.016c0.064-0.608 0.264-0.656 0.799-0.632 0.048 0.016 0.096 0.024 0.144 0.032v0.464" fill="#231f20" fill-rule="evenodd"/>
    <path id="path552" d="m218.76 171.12h0.632v5.997h-0.632v-5.997z" fill="#231f20"/>
    <path id="path554" d="m221.39 171.12h0.688l1.335 4.446h-0.655l-1.008-3.91h-0.016l-1.007 3.91h-0.656l1.319-4.446" fill="#231f20"/>
    <path id="path556" d="m224.51 173.81c0.024 0.528 0.04 1.343 0.775 1.343 0.736 0 0.704-0.823 0.728-1.343h-1.503zm1.535-1.207c0.04-0.504-0.128-1.064-0.736-1.064-0.887 0-0.783 1.152-0.799 1.751h2.159c-0.032 1.04 0.047 2.399-1.392 2.399-1.175 0-1.423-1.399-1.423-2.335 0-1.791 0.6-2.351 1.439-2.351 0.936 0 1.383 0.728 1.344 1.6h-0.592" fill="#231f20" fill-rule="evenodd"/>
    <path id="path558" d="m211.21 184.52h1.551v-5.397h0.664v5.397h1.551v0.6h-3.766v-0.6" fill="#231f20"/>
    <path id="path560" d="m215.75 183.57h-0.608v-4.446h0.632v2.695c0 0.808 0.48 1.319 1.295 1.175v0.624c-0.664 0.056-1.039-0.192-1.303-0.776h-0.016v0.728" fill="#231f20"/>
    <path id="path562" d="m217.73 179.12h0.632v4.445h-0.632v-4.445zm0 5.198h0.632v0.8h-0.632v-0.8z" fill="#231f20" fill-rule="evenodd"/>
    <path id="path564" d="m220.81 183.15c0.6 0 0.728-0.496 0.736-0.983h0.591c0.008 0.823-0.423 1.519-1.319 1.519-1.359 0-1.535-1.311-1.535-2.399 0-1.151 0.192-2.287 1.551-2.287 0.992 0 1.311 0.816 1.335 1.672h-0.599c-0.032-0.544-0.096-1.136-0.784-1.136-0.807 0-0.847 1.032-0.847 1.615 0 0.632-0.048 1.999 0.871 1.999" fill="#231f20"/>
    <path id="path566" d="m225.24 179.12h0.631v4.446h-0.631v-2.854c0-0.256-0.04-0.56-0.184-0.784-0.176-0.256-0.456-0.392-0.76-0.392-0.447 0-0.567 0.2-0.567 0.576v3.454h-0.632v-3.43c0-0.784 0.408-1.136 1.071-1.136 0.432 0 0.84 0.248 1.056 0.704h0.016v-0.584" fill="#231f20"/>
    <path id="path568" d="m229.52 182.37c0.016 0.911-0.496 1.311-1.375 1.311-0.768 0-1.303-0.488-1.303-1.255 0-0.776 0.399-1.008 1.087-1.264 0.456-0.192 1.095-0.248 1.095-0.879 0-0.544-0.335-0.752-0.847-0.752-0.592 0-0.776 0.336-0.752 0.88h-0.599c0-0.304-0.016-0.6 0.247-0.952 0.232-0.336 0.712-0.471 1.104-0.464 0.911-0.007 1.503 0.52 1.503 1.368 0 0.831-0.64 0.991-1.279 1.279-0.432 0.184-0.904 0.256-0.904 0.832 0 0.463 0.256 0.671 0.704 0.671 0.536 0 0.727-0.248 0.703-0.775h0.616" fill="#231f20"/>
    <path id="path570" d="m232.95 181.42c0-1.199-0.208-1.887-0.863-1.887-0.872 0-0.848 1.2-0.848 1.815 0 0.632 0.016 1.799 0.84 1.799 0.807 0 0.871-1.143 0.871-1.727zm-1.711-1.839c0.24-0.36 0.496-0.584 0.944-0.584 1.199 0 1.423 1.376 1.423 2.639 0 0.911-0.328 2.047-1.455 2.047-0.36-0.024-0.72-0.2-0.92-0.616h-0.016v0.496h-0.607v-5.949h0.631v1.967" fill="#231f20" fill-rule="evenodd"/>
    <path id="path572" d="m234.61 179.12h0.632v4.445h-0.632v-4.445zm0 5.198h0.632v0.8h-0.632v-0.8z" fill="#231f20" fill-rule="evenodd"/>
    <path id="path574" d="m238.57 180.86c0-0.503-0.184-1.327-0.84-1.327-0.863 0-0.895 0.872-0.895 1.831 0 1.367 0.344 1.783 0.871 1.783 0.848 0 0.864-1.127 0.864-1.735v-0.552zm0 2.247h-0.016c-0.296 0.384-0.568 0.576-1.024 0.576-0.951 0-1.383-1.032-1.335-2.335 0.016-0.392-0.096-2.351 1.303-2.351 0.536 0 0.808 0.176 1.08 0.704h0.016v-0.584h0.607v5.997h-0.631v-2.007" fill="#231f20" fill-rule="evenodd"/>
    <path id="path576" d="m212.44 216.52h0.936c0.447 0 1.255-0.024 1.271-1.055 0.016-1.047-0.848-1.095-1.16-1.103h-1.047v2.158zm0-2.758h1.16c0.783 0 1.023-0.512 1.023-1.111 0-0.4 0.064-1.144 0.208-1.528h0.775v0.136c-0.16 0-0.207 0.264-0.231 0.376-0.064 0.448-0.104 0.888-0.128 1.335-0.096 0.8-0.288 1.048-1.064 1.12v0.016c0.696 0.096 1.128 0.599 1.152 1.303 0.04 1.383-0.76 1.711-2.015 1.711h-1.543v-5.997h0.663v2.639" fill="#231f20" fill-rule="evenodd"/>
    <path id="path578" d="m216.55 211.12h0.632v4.446h-0.632v-4.446zm0 5.198h0.632v0.8h-0.632v-0.8z" fill="#231f20" fill-rule="evenodd"/>
    <path id="path580" d="m219.64 215.15c0.704 0 0.888-0.831 0.888-1.711 0-0.711 0.007-1.903-0.952-1.903-0.624 0-0.808 0.72-0.808 1.807 0 0.6 0.032 1.807 0.872 1.807zm0.888-0.088h-0.017c-0.215 0.424-0.583 0.624-0.991 0.624-1.175 0-1.407-1.375-1.407-2.311 0-1.791 0.584-2.374 1.423-2.374 0.408 0 0.696 0.183 0.96 0.639h0.015c-0.008-0.488 0.096-1.495-0.927-1.495-0.384 0-0.64 0.152-0.696 0.552h-0.615c0.088-0.76 0.615-1.088 1.327-1.088 0.488 0 0.944 0.176 1.223 0.616 0.296 0.472 0.336 0.887 0.336 1.431v3.91h-0.631v-0.504" fill="#231f20" fill-rule="evenodd"/>
    <path id="path582" d="m222.96 214.09c0 0.32 0.032 0.575 0.288 0.807 0.168 0.16 0.391 0.248 0.623 0.248 0.512 0 0.664-0.312 0.664-0.775v-3.255h0.632v3.43c0 0.784-0.432 1.136-1.096 1.136-0.48 0-0.807-0.224-1.111-0.608v2.039h-0.632v-5.997h0.632v2.975" fill="#231f20"/>
    <path id="path584" d="m227.06 216.77h-0.623v-1.207h-0.616v-0.536h0.616v-3.182c0-0.672 0.279-0.736 0.655-0.728h0.696v0.536h-0.424c-0.352 0-0.296 0.192-0.296 0.344v3.03h0.736v0.536h-0.744v1.207" fill="#231f20"/>
    <path id="path586" d="m232.27 212.44c0-0.72-0.528-0.904-0.768-0.904-0.511 0-0.623 0.288-0.623 0.736 0 0.304 0.096 0.632 0.391 0.767 0.336 0.16 0.688 0.296 1 0.48v-1.079zm1.039-0.856c-0.088-0.008-0.184-0.016-0.271 0.008-0.128 0.064-0.113 0.224-0.113 0.336v2.551c0 0.103 0.113 1.207-1.207 1.207-0.895 0-1.351-0.4-1.319-1.319h0.568c-0.008 0.519 0.072 0.783 0.647 0.783 0.512 0 0.704-0.192 0.704-0.695 0-0.232 0.016-0.408-0.12-0.512-0.08-0.064-0.975-0.4-1.335-0.56-0.616-0.272-0.64-0.911-0.64-1.079 0-0.808 0.256-1.303 1.143-1.303 0.424 0 0.832 0.327 0.984 0.719h0.016c0.064-0.608 0.264-0.656 0.799-0.632 0.048 0.016 0.096 0.024 0.144 0.032v0.464" fill="#231f20" fill-rule="evenodd"/>
    <path id="path588" d="m234.84 216.77h-0.624v-1.207h-0.616v-0.536h0.616v-3.182c0-0.672 0.28-0.736 0.655-0.728h0.696v0.536h-0.424c-0.351 0-0.296 0.192-0.296 0.344v3.03h0.736v0.536h-0.743v1.207" fill="#231f20"/>
    <path id="path590" d="m237 215.57h-0.608v-4.446h0.631v2.695c0 0.808 0.48 1.319 1.296 1.175v0.624c-0.664 0.056-1.04-0.192-1.304-0.776h-0.015v0.728" fill="#231f20"/>
    <path id="path592" d="m238.98 211.12h0.632v4.446h-0.632v-4.446zm0 5.198h0.632v0.8h-0.632v-0.8z" fill="#231f20" fill-rule="evenodd"/>
    <path id="path594" d="m242.94 211.12h0.632v4.446h-0.632v-2.855c0-0.255-0.04-0.559-0.184-0.783-0.175-0.256-0.455-0.392-0.759-0.392-0.448 0-0.568 0.2-0.568 0.576v3.454h-0.631v-3.43c0-0.784 0.407-1.135 1.071-1.135 0.432 0 0.839 0.247 1.055 0.703h0.016v-0.584" fill="#231f20"/>
    <path id="path596" d="m245.42 214.09c0 0.32 0.016 0.575 0.272 0.807 0.167 0.16 0.391 0.248 0.623 0.248 0.512 0 0.664-0.312 0.664-0.775v-3.255h0.631v2.975c0 0.32 0.032 0.575 0.288 0.807 0.16 0.152 0.376 0.24 0.592 0.248 0.544 0 0.68-0.28 0.68-0.775v-3.255h0.631v3.215c0 0.28 0.016 0.775-0.272 1.039-0.232 0.208-0.511 0.312-0.815 0.312-0.56 0-0.88-0.248-1.192-0.704-0.199 0.424-0.583 0.704-1.055 0.704-0.464 0-0.847-0.312-1.071-0.688v0.568h-0.608v-4.446h0.632v2.975" fill="#231f20" fill-rule="evenodd"/>
    <path id="path598" d="m212.51 227.12h0.688l1.335 4.446h-0.656l-1.007-3.91h-0.016l-1.008 3.91h-0.655l1.319-4.446" fill="#231f20"/>
    <path id="path600" d="m216.93 228.44c0-0.72-0.528-0.904-0.768-0.904-0.512 0-0.623 0.288-0.623 0.736 0 0.304 0.095 0.632 0.391 0.767 0.336 0.16 0.688 0.296 1 0.48v-1.079zm1.039-0.856c-0.088-0.008-0.184-0.016-0.272 0.008-0.128 0.064-0.112 0.224-0.112 0.336v2.551c0 0.104 0.112 1.207-1.207 1.207-0.895 0-1.351-0.4-1.319-1.319h0.567c-0.008 0.519 0.072 0.783 0.648 0.783 0.512 0 0.704-0.192 0.704-0.695 0-0.232 0.016-0.408-0.12-0.512-0.08-0.064-0.976-0.4-1.335-0.56-0.616-0.272-0.64-0.911-0.64-1.079 0-0.808 0.256-1.304 1.143-1.304 0.424 0 0.832 0.328 0.984 0.72h0.016c0.064-0.608 0.264-0.656 0.799-0.631 0.048 0.015 0.096 0.023 0.144 0.031v0.464" fill="#231f20" fill-rule="evenodd"/>
    <path id="path602" d="m218.76 227.12h0.632v5.997h-0.632v-5.997z" fill="#231f20"/>
    <path id="path604" d="m221.39 227.12h0.688l1.335 4.446h-0.655l-1.008-3.91h-0.016l-1.007 3.91h-0.656l1.319-4.446" fill="#231f20"/>
    <path id="path606" d="m224.51 229.81c0.024 0.528 0.04 1.343 0.775 1.343 0.736 0 0.704-0.823 0.728-1.343h-1.503zm1.535-1.207c0.04-0.504-0.128-1.064-0.736-1.064-0.887 0-0.783 1.152-0.799 1.751h2.159c-0.032 1.04 0.047 2.399-1.392 2.399-1.175 0-1.423-1.399-1.423-2.335 0-1.791 0.6-2.351 1.439-2.351 0.936 0 1.383 0.728 1.344 1.6h-0.592" fill="#231f20" fill-rule="evenodd"/>
    <path id="path608" d="m212.44 240.52h0.688c0.807 0.017 1.423-0.119 1.423-1.087 0.008-1.031-0.552-1.159-1.463-1.167h-0.648v2.254zm0-5.397v2.543h0.4c0.456 0 1.135 0 1.551 0.176 0.648 0.296 0.848 0.943 0.848 1.607 0 0.48-0.128 0.944-0.488 1.279-0.352 0.336-0.936 0.392-1.399 0.392h-1.575v-5.997h0.663" fill="#231f20" fill-rule="evenodd"/>
    <path id="path610" d="m218.29 235.12h0.632v4.446h-0.632v-2.855c0-0.255-0.039-0.559-0.183-0.783-0.176-0.256-0.456-0.392-0.76-0.392-0.448 0-0.568 0.2-0.568 0.576v3.454h-0.631v-3.43c0-0.784 0.408-1.135 1.071-1.135 0.432 0 0.84 0.247 1.056 0.703h0.015v-0.584" fill="#231f20"/>
    <path id="path612" d="m220.11 235.12h0.632v5.997h-0.632v-5.997z" fill="#231f20"/>
    <path id="path614" d="m222.55 238.09c0 0.32 0.016 0.575 0.272 0.807 0.168 0.16 0.391 0.248 0.623 0.248 0.512 0 0.664-0.312 0.664-0.775v-3.255h0.632v2.975c0 0.32 0.032 0.575 0.287 0.807 0.16 0.152 0.376 0.24 0.592 0.248 0.544 0 0.68-0.28 0.68-0.775v-3.255h0.631v3.215c0 0.28 0.016 0.775-0.271 1.039-0.232 0.208-0.512 0.312-0.816 0.312-0.56 0-0.88-0.248-1.191-0.704-0.2 0.424-0.584 0.704-1.056 0.704-0.464 0-0.847-0.312-1.071-0.688v0.568h-0.608v-4.446h0.632v2.975" fill="#231f20" fill-rule="evenodd"/>
    <path id="path616" d="m231.12 237.49c0 1.343-0.496 2.191-1.591 2.191-1.096 0-1.591-0.848-1.591-2.191 0-1.919 0.631-2.494 1.591-2.494 0.975 0 1.591 0.567 1.591 2.494zm-0.656-0.2c0-1.047-0.184-1.759-0.935-1.759-0.736 0-0.936 0.712-0.936 1.759 0 1.344 0.288 1.855 0.936 1.855 0.663 0 0.935-0.511 0.935-1.855" fill="#231f20" fill-rule="evenodd"/>
    <path id="path618" d="m232.73 239.57h-0.616v-4.446h0.632v2.975c0 0.32 0.032 0.575 0.287 0.807 0.168 0.16 0.392 0.248 0.624 0.248 0.512 0 0.664-0.312 0.664-0.775v-3.255h0.631v3.43c0 0.784-0.431 1.136-1.095 1.136-0.48 0-0.808-0.224-1.127-0.608v0.488" fill="#231f20" fill-rule="evenodd"/>
    <path id="path620" d="m237.83 236.44c0-0.72-0.527-0.904-0.767-0.904-0.512 0-0.624 0.288-0.624 0.736 0 0.304 0.096 0.632 0.392 0.767 0.336 0.16 0.688 0.296 0.999 0.48v-1.079zm1.04-0.856c-0.088-0.008-0.184-0.016-0.272 0.008-0.128 0.064-0.112 0.224-0.112 0.336v2.551c0 0.103 0.112 1.207-1.207 1.207-0.896 0-1.351-0.4-1.319-1.319h0.567c-0.008 0.519 0.072 0.783 0.648 0.783 0.512 0 0.704-0.192 0.704-0.695 0-0.232 0.016-0.408-0.12-0.512-0.08-0.064-0.976-0.4-1.336-0.56-0.615-0.272-0.639-0.911-0.639-1.079 0-0.808 0.256-1.303 1.143-1.303 0.424 0 0.832 0.327 0.984 0.719h0.015c0.064-0.608 0.264-0.656 0.8-0.632 0.048 0.016 0.096 0.024 0.144 0.032v0.464" fill="#231f20" fill-rule="evenodd"/>
    <path id="path622" d="m240.34 239.57h-0.607v-4.446h0.631v2.695c0 0.808 0.48 1.319 1.296 1.175v0.624c-0.664 0.056-1.04-0.192-1.304-0.776h-0.016v0.728" fill="#231f20"/>
    <path id="path624" d="m243.34 235.02c-0.176-0.439-0.192-0.879-0.784-0.879-0.152 0-0.328 0.032-0.472 0.096v-0.56c0.152-0.048 0.304-0.072 0.456-0.072 0.464 0 0.784 0.168 1.016 0.584 0.128 0.224 0.328 0.871 0.407 1.135l1.32 4.246h-0.656l-1.031-3.854h-0.016l-1 3.854h-0.655l1.415-4.55" fill="#231f20"/>
    <path id="path626" d="m212.28 261.23c0 0.648-0.056 1.919 0.88 1.919 0.807 0 0.847-1.143 0.847-1.727 0-1.199-0.184-1.887-0.839-1.887-0.896 0-0.888 1.048-0.888 1.695zm-0.016-1.583h0.016c0.264-0.52 0.632-0.647 1.016-0.647 1.199 0 1.367 1.367 1.367 2.63 0 0.912-0.272 2.055-1.399 2.055-0.392 0-0.68-0.176-0.928-0.576h-0.016v2.007h-0.631v-5.997h0.575v0.528" fill="#231f20" fill-rule="evenodd"/>
    <path id="path628" d="m218.68 261.49c0 1.343-0.495 2.191-1.591 2.191-1.095 0-1.591-0.848-1.591-2.191 0-1.919 0.632-2.494 1.591-2.494 0.976 0 1.591 0.567 1.591 2.494zm-0.655-0.2c0-1.047-0.184-1.759-0.936-1.759-0.735 0-0.935 0.712-0.935 1.759 0 1.344 0.288 1.855 0.935 1.855 0.664 0 0.936-0.511 0.936-1.855" fill="#231f20" fill-rule="evenodd"/>
    <path id="path630" d="m221.84 260.86c0-0.503-0.184-1.327-0.839-1.327-0.864 0-0.896 0.872-0.896 1.831 0 1.367 0.344 1.783 0.872 1.783 0.847 0 0.863-1.127 0.863-1.735v-0.552zm0 2.247h-0.016c-0.296 0.384-0.567 0.576-1.023 0.576-0.952 0-1.383-1.032-1.335-2.335 0.016-0.392-0.096-2.35 1.303-2.35 0.536 0 0.808 0.175 1.079 0.703h0.016v-0.584h0.608v5.997h-0.632v-2.007" fill="#231f20" fill-rule="evenodd"/>
    <path id="path632" d="m224.54 259.02c-0.176-0.439-0.192-0.879-0.784-0.879-0.152 0-0.328 0.032-0.472 0.096v-0.56c0.152-0.048 0.304-0.072 0.456-0.072 0.464 0 0.784 0.168 1.015 0.584 0.128 0.224 0.328 0.871 0.408 1.135l1.319 4.246h-0.655l-1.032-3.854h-0.016l-0.999 3.854h-0.656l1.416-4.55" fill="#231f20"/>
    <path id="path634" d="m227.45 257.4c0.816 1.328 1.239 2.343 1.239 3.918 0 1.399-0.519 2.623-1.239 3.798h-0.464c0.752-1.279 1.032-2.423 1.032-3.894 0-2.039-0.632-3.078-0.992-3.822h0.424" fill="#231f20" fill-rule="evenodd"/>
    <path id="path636" d="m212.93 273.12c-0.816-1.327-1.239-2.343-1.239-3.918 0-1.399 0.519-2.622 1.239-3.798h0.464c-0.752 1.28-1.032 2.423-1.032 3.894 0 2.039 0.632 3.079 0.992 3.822h-0.424" fill="#231f20" fill-rule="evenodd"/>
    <path id="path638" d="m214.49 267.12h0.632v3.91h0.695v0.536h-0.695v0.472c0 0.543 0.184 0.591 0.695 0.543v0.536c-0.591 0.056-0.967-0.024-1.175-0.32-0.16-0.224-0.16-0.591-0.16-0.855v-0.376h-0.639v-0.536h0.647v-3.91" fill="#231f20"/>
    <path id="path640" d="m217.23 271.57h-0.608v-4.446h0.632v2.695c0 0.808 0.48 1.319 1.295 1.175v0.624c-0.664 0.056-1.039-0.192-1.303-0.776h-0.016v0.728" fill="#231f20"/>
    <path id="path642" d="m222.22 269.49c0 1.343-0.495 2.191-1.591 2.191-1.095 0-1.591-0.848-1.591-2.191 0-1.919 0.632-2.495 1.591-2.495 0.976 0 1.591 0.568 1.591 2.495zm-0.655-0.2c0-1.047-0.184-1.759-0.936-1.759-0.735 0-0.935 0.712-0.935 1.759 0 1.343 0.288 1.855 0.935 1.855 0.664 0 0.936-0.512 0.936-1.855" fill="#231f20" fill-rule="evenodd"/>
    <path id="path644" d="m223.87 270.09c0 0.32 0.016 0.575 0.272 0.807 0.168 0.16 0.392 0.248 0.624 0.248 0.511 0 0.663-0.312 0.663-0.775v-3.255h0.632v2.975c0 0.32 0.032 0.575 0.288 0.807 0.16 0.152 0.376 0.24 0.591 0.248 0.544 0 0.68-0.28 0.68-0.775v-3.255h0.632v3.215c0 0.28 0.016 0.775-0.272 1.039-0.232 0.208-0.512 0.312-0.816 0.312-0.559 0-0.879-0.248-1.191-0.704-0.2 0.424-0.584 0.704-1.056 0.704-0.463 0-0.847-0.312-1.071-0.688v0.568h-0.608v-4.446h0.632v2.975" fill="#231f20" fill-rule="evenodd"/>
    <path id="path646" d="m233.62 267.12h0.632v4.446h-0.632v-2.854c0-0.256-0.04-0.56-0.184-0.784-0.176-0.256-0.456-0.392-0.76-0.392-0.447 0-0.567 0.2-0.567 0.576v3.454h-0.632v-3.43c0-0.784 0.408-1.136 1.071-1.136 0.432 0 0.84 0.248 1.056 0.704h0.016v-0.584" fill="#231f20"/>
    <path id="path648" d="m237.78 269.42c0-1.199-0.208-1.887-0.863-1.887-0.872 0-0.848 1.2-0.848 1.815 0 0.632 0.016 1.799 0.84 1.799 0.807 0 0.871-1.143 0.871-1.727zm-1.711-1.839c0.24-0.36 0.496-0.584 0.944-0.584 1.199 0 1.423 1.376 1.423 2.639 0 0.912-0.328 2.047-1.455 2.047-0.36-0.024-0.72-0.2-0.92-0.616h-0.016v0.496h-0.607v-5.949h0.631v1.967" fill="#231f20" fill-rule="evenodd"/>
    <path id="path650" d="m241.78 269.42c0-1.199-0.208-1.887-0.864-1.887-0.871 0-0.847 1.2-0.847 1.815 0 0.632 0.016 1.799 0.839 1.799 0.808 0 0.872-1.143 0.872-1.727zm-1.711-1.839c0.24-0.36 0.496-0.584 0.943-0.584 1.2 0 1.423 1.376 1.423 2.639 0 0.912-0.327 2.047-1.455 2.047-0.36-0.024-0.719-0.2-0.919-0.616h-0.016v0.496h-0.608v-5.949h0.632v1.967" fill="#231f20" fill-rule="evenodd"/>
    <path id="path652" d="m243.86 269.81c0.024 0.528 0.04 1.343 0.776 1.343 0.735 0 0.703-0.823 0.728-1.343h-1.504zm1.536-1.207c0.039-0.504-0.128-1.064-0.736-1.064-0.888 0-0.784 1.152-0.8 1.751h2.159c-0.032 1.04 0.048 2.399-1.391 2.399-1.175 0-1.423-1.399-1.423-2.335 0-1.791 0.599-2.351 1.439-2.351 0.935 0 1.383 0.728 1.343 1.6h-0.591" fill="#231f20" fill-rule="evenodd"/>
    <path id="path654" d="m247.66 271.57h-0.607v-4.446h0.631v2.695c0 0.808 0.48 1.319 1.296 1.175v0.624c-0.664 0.056-1.04-0.192-1.304-0.776h-0.016v0.728" fill="#231f20"/>
    <path id="path656" d="m212.51 275.12h0.688l1.335 4.446h-0.656l-1.007-3.91h-0.016l-1.008 3.91h-0.655l1.319-4.446" fill="#231f20"/>
    <path id="path658" d="m215.64 277.81c0.025 0.528 0.04 1.343 0.776 1.343s0.704-0.823 0.728-1.343h-1.504zm1.536-1.207c0.04-0.504-0.128-1.064-0.736-1.064-0.887 0-0.784 1.152-0.8 1.751h2.159c-0.032 1.04 0.048 2.399-1.391 2.399-1.175 0-1.423-1.399-1.423-2.335 0-1.791 0.599-2.351 1.439-2.351 0.936 0 1.383 0.728 1.343 1.6h-0.591" fill="#231f20" fill-rule="evenodd"/>
    <path id="path660" d="m219.39 279.57h-0.616v-4.446h0.632v2.975c0 0.32 0.031 0.575 0.287 0.807 0.168 0.16 0.392 0.248 0.624 0.248 0.512 0 0.664-0.312 0.664-0.775v-3.255h0.631v3.43c0 0.784-0.431 1.136-1.095 1.136-0.48 0-0.808-0.224-1.127-0.608v0.488" fill="#231f20" fill-rule="evenodd"/>
    <path id="path662" d="m224.48 276.44c0-0.72-0.527-0.904-0.767-0.904-0.512 0-0.624 0.288-0.624 0.736 0 0.304 0.096 0.632 0.392 0.767 0.336 0.16 0.688 0.296 0.999 0.48v-1.079zm1.04-0.856c-0.088-0.008-0.184-0.016-0.272 0.008-0.128 0.064-0.112 0.224-0.112 0.336v2.551c0 0.104 0.112 1.207-1.207 1.207-0.896 0-1.351-0.4-1.32-1.319h0.568c-0.008 0.519 0.072 0.783 0.648 0.783 0.512 0 0.703-0.192 0.703-0.695 0-0.232 0.016-0.408-0.119-0.512-0.081-0.064-0.976-0.4-1.336-0.56-0.615-0.272-0.639-0.911-0.639-1.079 0-0.808 0.255-1.304 1.143-1.304 0.424 0 0.832 0.328 0.983 0.72h0.016c0.064-0.608 0.264-0.656 0.8-0.631 0.048 0.015 0.096 0.023 0.144 0.031v0.464" fill="#231f20" fill-rule="evenodd"/>
    <path id="path664" d="m229.62 279.15c0.6 0 0.728-0.496 0.736-0.983h0.591c0.008 0.823-0.423 1.519-1.319 1.519-1.359 0-1.535-1.311-1.535-2.399 0-1.151 0.192-2.287 1.551-2.287 0.992 0 1.311 0.816 1.335 1.672h-0.599c-0.032-0.544-0.096-1.136-0.784-1.136-0.807 0-0.847 1.032-0.847 1.615 0 0.632-0.049 1.999 0.871 1.999" fill="#231f20"/>
    <path id="path666" d="m233.59 276.44c0-0.72-0.528-0.904-0.768-0.904-0.511 0-0.623 0.288-0.623 0.736 0 0.304 0.096 0.632 0.391 0.767 0.336 0.16 0.688 0.296 1 0.48v-1.079zm1.039-0.856c-0.088-0.008-0.183-0.016-0.271 0.008-0.128 0.064-0.112 0.224-0.112 0.336v2.551c0 0.104 0.112 1.207-1.208 1.207-0.895 0-1.351-0.4-1.319-1.319h0.568c-0.008 0.519 0.072 0.783 0.647 0.783 0.512 0 0.704-0.192 0.704-0.695 0-0.232 0.016-0.408-0.12-0.512-0.08-0.064-0.975-0.4-1.335-0.56-0.616-0.272-0.64-0.911-0.64-1.079 0-0.808 0.256-1.304 1.143-1.304 0.424 0 0.832 0.328 0.984 0.72h0.016c0.064-0.608 0.264-0.656 0.799-0.631 0.048 0.015 0.097 0.023 0.144 0.031v0.464" fill="#231f20" fill-rule="evenodd"/>
    <path id="path668" d="m236.27 275.12h0.687l1.335 4.446h-0.655l-1.008-3.91h-0.016l-1.007 3.91h-0.656l1.32-4.446" fill="#231f20"/>
    <path id="path670" d="m240.69 276.44c0-0.72-0.527-0.904-0.767-0.904-0.512 0-0.624 0.288-0.624 0.736 0 0.304 0.096 0.632 0.392 0.767 0.336 0.16 0.687 0.296 0.999 0.48v-1.079zm1.04-0.856c-0.088-0.008-0.184-0.016-0.272 0.008-0.128 0.064-0.112 0.224-0.112 0.336v2.551c0 0.104 0.112 1.207-1.207 1.207-0.896 0-1.352-0.4-1.32-1.319h0.568c-0.008 0.519 0.072 0.783 0.648 0.783 0.511 0 0.703-0.192 0.703-0.695 0-0.232 0.016-0.408-0.12-0.512-0.08-0.064-0.975-0.4-1.335-0.56-0.616-0.272-0.64-0.911-0.64-1.079 0-0.808 0.256-1.304 1.144-1.304 0.423 0 0.831 0.328 0.983 0.72h0.016c0.064-0.608 0.264-0.656 0.8-0.631 0.048 0.015 0.096 0.023 0.144 0.031v0.464" fill="#231f20" fill-rule="evenodd"/>
    <path id="path672" d="m214.95 287.54c0.064 1.127-0.608 1.695-1.703 1.695-0.976 0-1.671-0.648-1.671-1.639 0-0.592 0.144-1.071 0.711-1.359 0.32-0.168 0.848-0.336 1.176-0.464 0.607-0.232 0.975-0.24 0.975-1.151 0-0.704-0.472-1.048-1.143-1.048-1 0-1.168 0.56-1.136 1.447h-0.663c0.008-0.32 0-0.799 0.128-1.095 0.343-0.784 1.047-0.951 1.639-0.951 1.151 0 1.863 0.663 1.863 1.798 0 0.792-0.208 1.192-1.344 1.616-0.319 0.12-0.631 0.24-0.951 0.36-0.384 0.143-0.568 0.399-0.568 0.815 0 0.464 0.104 1.071 1.072 1.071 0.663 0 0.999-0.471 0.951-1.095h0.664" fill="#231f20"/>
    <path id="path674" d="m218.29 283.12h0.632v4.446h-0.632v-2.855c0-0.255-0.039-0.559-0.183-0.783-0.176-0.256-0.456-0.392-0.76-0.392-0.448 0-0.568 0.2-0.568 0.576v3.454h-0.631v-3.43c0-0.784 0.408-1.135 1.071-1.135 0.432 0 0.84 0.247 1.056 0.703h0.015v-0.584" fill="#231f20"/>
    <path id="path676" d="m222.45 285.42c0-1.199-0.208-1.887-0.864-1.887-0.871 0-0.847 1.2-0.847 1.815 0 0.632 0.016 1.799 0.839 1.799 0.808 0 0.872-1.143 0.872-1.727zm-1.711-1.839c0.24-0.36 0.496-0.583 0.943-0.583 1.2 0 1.424 1.375 1.424 2.638 0 0.912-0.328 2.047-1.456 2.047-0.359-0.024-0.719-0.2-0.919-0.616h-0.016v0.496h-0.608v-5.949h0.632v1.967" fill="#231f20" fill-rule="evenodd"/>
    <path id="path678" d="m224.53 285.81c0.025 0.528 0.04 1.343 0.776 1.343s0.704-0.823 0.728-1.343h-1.504zm1.536-1.207c0.04-0.504-0.128-1.064-0.736-1.064-0.887 0-0.784 1.152-0.8 1.751h2.159c-0.032 1.04 0.048 2.399-1.391 2.399-1.175 0-1.423-1.399-1.423-2.335 0-1.791 0.599-2.35 1.439-2.35 0.936 0 1.383 0.727 1.343 1.599h-0.591" fill="#231f20" fill-rule="evenodd"/>
    <path id="path680" d="m228.34 287.57h-0.607v-4.446h0.631v2.695c0 0.808 0.48 1.319 1.296 1.175v0.624c-0.664 0.056-1.04-0.192-1.304-0.776h-0.016v0.728" fill="#231f20"/>
    <path id="path682" d="m230.32 283.12h0.632v4.446h-0.632v-4.446zm0 5.198h0.632v0.8h-0.632v-0.8z" fill="#231f20" fill-rule="evenodd"/>
    <path id="path684" d="m235.11 285.49c0 1.343-0.496 2.191-1.591 2.191-1.096 0-1.591-0.848-1.591-2.191 0-1.919 0.631-2.494 1.591-2.494 0.975 0 1.591 0.567 1.591 2.494zm-0.656-0.2c0-1.047-0.184-1.759-0.935-1.759-0.736 0-0.936 0.712-0.936 1.759 0 1.343 0.288 1.855 0.936 1.855 0.663 0 0.935-0.512 0.935-1.855" fill="#231f20" fill-rule="evenodd"/>
    <path id="path686" d="m236.78 287.57h-0.608v-4.446h0.632v2.695c0 0.808 0.479 1.319 1.295 1.175v0.624c-0.664 0.056-1.04-0.192-1.303-0.776h-0.016v0.728" fill="#231f20"/>
    <path id="path688" d="m231.66 261.33h34.495" stroke="#fff" stroke-miterlimit="3.864" stroke-width="1.2" fill="none"/>
    <path id="path690" d="m231.66 261.33h34.495" stroke="#231f20" stroke-miterlimit="3.864" stroke-dasharray="0.8, 0.8" stroke-width=".4" fill="none"/>
    <path id="path692" d="m415.52 262.15c-0.816-1.328-1.239-2.343-1.239-3.918 0-1.399 0.519-2.623 1.239-3.798h0.464c-0.752 1.279-1.032 2.423-1.032 3.894 0 2.039 0.632 3.078 0.992 3.822h-0.424" fill="#231f20" fill-rule="evenodd"/>
    <path id="path694" d="m417.07 256.15h0.632v3.91h0.695v0.536h-0.695v0.471c0 0.544 0.184 0.592 0.695 0.544v0.536c-0.591 0.056-0.967-0.024-1.175-0.32-0.16-0.224-0.16-0.592-0.16-0.856v-0.375h-0.639v-0.536h0.647v-3.91" fill="#231f20"/>
    <path id="path696" d="m419.81 260.6h-0.608v-4.446h0.632v2.695c0 0.807 0.48 1.319 1.295 1.175v0.624c-0.663 0.055-1.039-0.192-1.303-0.776h-0.016v0.728" fill="#231f20"/>
    <path id="path698" d="m424.8 258.53c0 1.343-0.495 2.191-1.591 2.191-1.095 0-1.591-0.848-1.591-2.191 0-1.919 0.632-2.495 1.591-2.495 0.976 0 1.591 0.568 1.591 2.495zm-0.655-0.2c0-1.048-0.184-1.759-0.936-1.759-0.735 0-0.935 0.711-0.935 1.759 0 1.343 0.288 1.855 0.935 1.855 0.664 0 0.936-0.512 0.936-1.855" fill="#231f20" fill-rule="evenodd"/>
    <path id="path700" d="m426.46 259.12c0 0.32 0.016 0.576 0.272 0.808 0.168 0.16 0.392 0.248 0.624 0.248 0.511 0 0.663-0.312 0.663-0.776v-3.254h0.632v2.974c0 0.32 0.032 0.576 0.288 0.808 0.16 0.152 0.376 0.24 0.591 0.248 0.544 0 0.68-0.28 0.68-0.776v-3.254h0.632v3.214c0 0.28 0.016 0.776-0.272 1.04-0.232 0.208-0.512 0.312-0.816 0.312-0.559 0-0.879-0.248-1.191-0.704-0.2 0.424-0.584 0.704-1.055 0.704-0.464 0-0.848-0.312-1.072-0.688v0.568h-0.607v-4.446h0.631v2.974" fill="#231f20" fill-rule="evenodd"/>
    <path id="path702" d="m434.02 256.15h0.632v5.997h-0.632v-5.997z" fill="#231f20"/>
    <path id="path704" d="m437.97 256.15h0.631v4.446h-0.631v-2.855c0-0.256-0.04-0.56-0.184-0.783-0.176-0.256-0.456-0.392-0.76-0.392-0.447 0-0.567 0.2-0.567 0.576v3.454h-0.632v-3.431c0-0.783 0.408-1.135 1.071-1.135 0.432 0 0.84 0.248 1.056 0.704h0.016v-0.584" fill="#231f20"/>
    <path id="path706" d="m440.41 260.6h-0.616v-4.446h0.632v2.974c0 0.32 0.032 0.576 0.288 0.808 0.168 0.16 0.392 0.248 0.624 0.248 0.511 0 0.663-0.312 0.663-0.776v-3.254h0.632v3.43c0 0.784-0.432 1.136-1.095 1.136-0.48 0-0.808-0.224-1.128-0.608v0.488" fill="#231f20" fill-rule="evenodd"/>
    <path id="path708" d="m445.1 260.18c0.704 0 0.888-0.832 0.888-1.711 0-0.712 0.008-1.903-0.952-1.903-0.623 0-0.807 0.719-0.807 1.807 0 0.599 0.032 1.807 0.871 1.807zm0.888-0.088h-0.016c-0.216 0.424-0.584 0.624-0.992 0.624-1.175 0-1.407-1.376-1.407-2.311 0-1.791 0.584-2.375 1.423-2.375 0.408 0 0.696 0.184 0.96 0.64h0.016c-0.008-0.488 0.096-1.495-0.928-1.495-0.384 0-0.639 0.151-0.695 0.551h-0.616c0.088-0.759 0.616-1.087 1.327-1.087 0.488 0 0.944 0.176 1.224 0.615 0.295 0.472 0.335 0.888 0.335 1.432v3.91h-0.631v-0.504" fill="#231f20" fill-rule="evenodd"/>
    <path id="path710" d="m450.25 259.4c0.016 0.912-0.496 1.312-1.375 1.312-0.768 0-1.303-0.488-1.303-1.256 0-0.775 0.399-1.007 1.087-1.263 0.456-0.192 1.095-0.248 1.095-0.88 0-0.543-0.335-0.751-0.847-0.751-0.592 0-0.776 0.336-0.752 0.879h-0.599c0-0.303-0.016-0.599 0.247-0.951 0.232-0.336 0.712-0.472 1.104-0.464 0.911-0.008 1.503 0.52 1.503 1.367 0 0.832-0.64 0.992-1.279 1.28-0.432 0.184-0.904 0.256-0.904 0.831 0 0.464 0.256 0.672 0.704 0.672 0.536 0 0.727-0.248 0.703-0.776h0.616" fill="#231f20"/>
    <path id="path712" d="m451.58 254.43c0.815 1.327 1.239 2.343 1.239 3.918 0 1.399-0.52 2.622-1.239 3.798h-0.464c0.751-1.279 1.031-2.423 1.031-3.894 0-2.039-0.631-3.078-0.991-3.822h0.424" fill="#231f20" fill-rule="evenodd"/>
    <path id="path714" d="m415.09 264.15h0.688l1.335 4.446h-0.656l-1.007-3.91h-0.016l-1.008 3.91h-0.655l1.319-4.446" fill="#231f20"/>
    <path id="path716" d="m418.22 266.84c0.025 0.527 0.041 1.343 0.776 1.343 0.736 0 0.704-0.824 0.728-1.343h-1.504zm1.536-1.208c0.04-0.503-0.128-1.063-0.736-1.063-0.887 0-0.783 1.151-0.8 1.751h2.159c-0.032 1.039 0.048 2.399-1.391 2.399-1.175 0-1.423-1.4-1.423-2.335 0-1.791 0.6-2.351 1.439-2.351 0.936 0 1.383 0.728 1.343 1.599h-0.591" fill="#231f20" fill-rule="evenodd"/>
    <path id="path718" d="m421.35 264.15h0.632v4.446h-0.632v-4.446zm0 5.197h0.632v0.8h-0.632v-0.8z" fill="#231f20" fill-rule="evenodd"/>
    <path id="path720" d="m423.74 268.6h-0.615v-4.446h0.632v2.974c0 0.32 0.031 0.576 0.287 0.808 0.168 0.16 0.392 0.248 0.624 0.248 0.512 0 0.664-0.312 0.664-0.776v-3.254h0.631v3.43c0 0.784-0.432 1.136-1.095 1.136-0.48 0-0.808-0.224-1.128-0.608v0.488" fill="#231f20" fill-rule="evenodd"/>
    <path id="path722" d="m415.02 277.55h0.688c0.807 0.016 1.423-0.12 1.423-1.087 0.008-1.032-0.552-1.16-1.463-1.168h-0.648v2.255zm0-5.397v2.543h0.4c0.456 0 1.135 0 1.551 0.175 0.648 0.296 0.848 0.944 0.848 1.608 0 0.479-0.128 0.943-0.488 1.279-0.352 0.336-0.936 0.392-1.399 0.392h-1.575v-5.997h0.663" fill="#231f20" fill-rule="evenodd"/>
    <path id="path724" d="m420.88 272.15h0.631v4.446h-0.631v-2.855c0-0.256-0.04-0.56-0.184-0.783-0.176-0.256-0.456-0.392-0.76-0.392-0.448 0-0.568 0.2-0.568 0.575v3.455h-0.631v-3.431c0-0.783 0.408-1.135 1.071-1.135 0.432 0 0.84 0.248 1.056 0.704h0.016v-0.584" fill="#231f20"/>
    <path id="path726" d="m422.69 272.15h0.632v5.997h-0.632v-5.997z" fill="#231f20"/>
    <path id="path728" d="m425.13 275.12c0 0.32 0.016 0.576 0.272 0.808 0.168 0.16 0.391 0.248 0.623 0.248 0.512 0 0.664-0.312 0.664-0.776v-3.254h0.632v2.974c0 0.32 0.032 0.576 0.287 0.808 0.16 0.152 0.376 0.24 0.592 0.248 0.544 0 0.68-0.28 0.68-0.776v-3.254h0.631v3.214c0 0.28 0.016 0.776-0.271 1.04-0.232 0.208-0.512 0.311-0.816 0.311-0.56 0-0.88-0.247-1.191-0.703-0.2 0.424-0.584 0.703-1.056 0.703-0.463 0-0.847-0.311-1.071-0.687v0.568h-0.608v-4.446h0.632v2.974" fill="#231f20" fill-rule="evenodd"/>
    <path id="path730" d="m433.7 274.53c0 1.343-0.496 2.19-1.591 2.19-1.096 0-1.591-0.847-1.591-2.19 0-1.919 0.631-2.495 1.591-2.495 0.975 0 1.591 0.568 1.591 2.495zm-0.656-0.2c0-1.048-0.184-1.759-0.935-1.759-0.736 0-0.936 0.711-0.936 1.759 0 1.343 0.288 1.855 0.936 1.855 0.663 0 0.935-0.512 0.935-1.855" fill="#231f20" fill-rule="evenodd"/>
    <path id="path732" d="m435.32 276.6h-0.616v-4.446h0.632v2.974c0 0.32 0.032 0.576 0.288 0.808 0.167 0.16 0.391 0.248 0.623 0.248 0.512 0 0.664-0.312 0.664-0.776v-3.254h0.631v3.43c0 0.784-0.431 1.135-1.095 1.135-0.48 0-0.808-0.223-1.127-0.607v0.488" fill="#231f20" fill-rule="evenodd"/>
    <path id="path734" d="m440.41 273.47c0-0.719-0.528-0.903-0.768-0.903-0.512 0-0.624 0.288-0.624 0.735 0 0.304 0.096 0.632 0.392 0.768 0.336 0.16 0.688 0.296 1 0.48v-1.08zm1.039-0.855c-0.088-0.008-0.184-0.016-0.272 0.008-0.128 0.064-0.112 0.224-0.112 0.336v2.55c0 0.104 0.112 1.207-1.207 1.207-0.896 0-1.351-0.399-1.319-1.319h0.567c-0.008 0.52 0.072 0.784 0.648 0.784 0.512 0 0.704-0.192 0.704-0.696 0-0.232 0.016-0.408-0.12-0.512-0.08-0.064-0.976-0.399-1.336-0.559-0.615-0.272-0.639-0.912-0.639-1.08 0-0.807 0.255-1.303 1.143-1.303 0.424 0 0.832 0.328 0.984 0.72h0.016c0.063-0.608 0.263-0.656 0.799-0.632 0.048 0.016 0.096 0.024 0.144 0.032v0.464" fill="#231f20" fill-rule="evenodd"/>
    <path id="path736" d="m442.92 276.6h-0.607v-4.446h0.631v2.695c0 0.807 0.48 1.319 1.296 1.175v0.624c-0.664 0.056-1.04-0.192-1.304-0.776h-0.016v0.728" fill="#231f20"/>
    <path id="path738" d="m445.93 272.05c-0.176-0.44-0.192-0.879-0.784-0.879-0.152 0-0.328 0.032-0.471 0.096v-0.56c0.151-0.048 0.303-0.072 0.455-0.072 0.464 0 0.784 0.168 1.016 0.584 0.128 0.223 0.328 0.871 0.408 1.135l1.319 4.246h-0.656l-1.031-3.854h-0.016l-1 3.854h-0.655l1.415-4.55" fill="#231f20"/>
    <path id="path740" d="m411.65 241.29h-48.316" stroke="#fff" stroke-miterlimit="3.864" stroke-width="1.2" fill="none"/>
    <path id="path742" d="m411.65 241.29h-48.316" stroke="#231f20" stroke-miterlimit="3.864" stroke-dasharray="0.8, 0.8" stroke-width=".4" fill="none"/>
    <path id="path744" d="m411.65 258.54h-27.925" stroke="#fff" stroke-miterlimit="3.864" stroke-width="1.2" fill="none"/>
    <path id="path746" d="m411.65 258.54h-27.925" stroke="#231f20" stroke-miterlimit="3.864" stroke-dasharray="0.8, 0.8" stroke-width=".4" fill="none"/>
  </g>
<metadata><rdf:RDF><cc:Work><dc:format>image/svg+xml</dc:format><dc:type rdf:resource="http://purl.org/dc/dcmitype/StillImage"/><cc:license rdf:resource="http://creativecommons.org/licenses/publicdomain/"/><dc:publisher><cc:Agent rdf:about="http://openclipart.org/"><dc:title>Openclipart</dc:title></cc:Agent></dc:publisher><dc:title>58294main_The.Brain.in.Space-page-121-heart-cross-section</dc:title><dc:date>2010-04-06T07:38:24</dc:date><dc:description>This is clipart converted and broken apart that has been released into the public domain because the document says so, and its from NASA, a USA government agency. The publication is called "The Brain in Space:"&#xD;\n&#xD;\nhttp://www.nasa.gov/audience/foreducators/topnav/materials/listbytype/The.Brain.in.Space.html</dc:description><dc:source>http://openclipart.org/detail/38455/-by-rejon-38455</dc:source><dc:creator><cc:Agent><dc:title>rejon</dc:title></cc:Agent></dc:creator><dc:subject><rdf:Bag><rdf:li>astronomy</rdf:li><rdf:li>brain</rdf:li><rdf:li>clip art</rdf:li><rdf:li>clipart</rdf:li><rdf:li>converted</rdf:li><rdf:li>government</rdf:li><rdf:li>nasa</rdf:li><rdf:li>science</rdf:li><rdf:li>space</rdf:li><rdf:li>usa</rdf:li></rdf:Bag></dc:subject></cc:Work><cc:License rdf:about="http://creativecommons.org/licenses/publicdomain/"><cc:permits rdf:resource="http://creativecommons.org/ns#Reproduction"/><cc:permits rdf:resource="http://creativecommons.org/ns#Distribution"/><cc:permits rdf:resource="http://creativecommons.org/ns#DerivativeWorks"/></cc:License></rdf:RDF></metadata></svg>
