<?xml version="1.0" encoding="UTF-8" standalone="no"?>
<!-- Created with Inkscape (http://www.inkscape.org/) -->

<svg
   xmlns:dc="http://purl.org/dc/elements/1.1/"
   xmlns:cc="http://creativecommons.org/ns#"
   xmlns:rdf="http://www.w3.org/1999/02/22-rdf-syntax-ns#"
   xmlns:svg="http://www.w3.org/2000/svg"
   xmlns="http://www.w3.org/2000/svg"
   xmlns:sodipodi="http://sodipodi.sourceforge.net/DTD/sodipodi-0.dtd"
   xmlns:inkscape="http://www.inkscape.org/namespaces/inkscape"
   width="94.161896mm"
   height="83.334145mm"
   viewBox="0 0 333.64451 295.27846"
   id="svg15250"
   version="1.1"
   inkscape:version="0.91 r13725"
   sodipodi:docname="astronaut retro.svg">
  <defs
     id="defs15252" />
  <sodipodi:namedview
     id="base"
     pagecolor="#ffffff"
     bordercolor="#666666"
     borderopacity="1.0"
     inkscape:pageopacity="0.0"
     inkscape:pageshadow="2"
     inkscape:zoom="1.0479314"
     inkscape:cx="-88.094768"
     inkscape:cy="58.371561"
     inkscape:document-units="px"
     inkscape:current-layer="layer1"
     showgrid="false"
     fit-margin-top="0"
     fit-margin-left="0"
     fit-margin-right="0"
     fit-margin-bottom="0"
     inkscape:window-width="1366"
     inkscape:window-height="705"
     inkscape:window-x="-8"
     inkscape:window-y="-8"
     inkscape:window-maximized="1" />
  <metadata
     id="metadata15255">
    <rdf:RDF>
      <cc:Work
         rdf:about="">
        <dc:format>image/svg+xml</dc:format>
        <dc:type
           rdf:resource="http://purl.org/dc/dcmitype/StillImage" />
        <dc:title></dc:title>
      </cc:Work>
    </rdf:RDF>
  </metadata>
  <g
     inkscape:label="Layer 1"
     inkscape:groupmode="layer"
     id="layer1"
     transform="translate(-1068.0938,67.573386)">
    <rect
       style="opacity:1;fill:#d8dcc8;fill-opacity:1;stroke:none;stroke-width:1;stroke-miterlimit:4;stroke-dasharray:none;stroke-opacity:1"
       id="rect15851"
       width="342.57965"
       height="321.58591"
       x="1065.231"
       y="-71.932831" />
    <path
       style="opacity:1;fill:#eed93a;fill-opacity:1;stroke:none;stroke-width:1;stroke-miterlimit:4;stroke-dasharray:none;stroke-opacity:1"
       d="m 1068.2949,119.0957 0,108.78516 19.086,0 0,-0.46289 62.5039,0.46289 -40.0801,-104.96875 -22.4238,-2.00195 0,-1.81446 z m 309.1817,61.07227 -10.0215,0.47656 -18.1305,12.4055 4.2951,6.20337 6.2019,11.92856 2.8628,24.33217 33.8761,-4.76992 -0.4765,-24.33405 -6.6797,-16.69922 z"
       id="rect15833"
       inkscape:connector-curvature="0"
       sodipodi:nodetypes="ccccccccccccccccccc" />
    <path
       style="fill:#e19b40;fill-rule:evenodd;stroke:none;stroke-width:1px;stroke-linecap:butt;stroke-linejoin:miter;stroke-opacity:1;fill-opacity:1"
       d="m 1067.6167,231.99926 6.2027,-21.47087 9.0654,-34.83053 13.3597,-31.01347 13.8368,-23.3794 13.8368,0.47713 12.4054,-10.49687 8.5883,-2.38565 26.2422,31.49061 4.7713,25.76505 9.0655,8.58834 18.6081,8.11122 23.8565,7.15696 10.0197,0.47713 5.2484,10.49687 7.6341,10.01974 -1.4314,5.72556 3.34,6.2027 12.8825,10.974 z"
       id="path15841"
       inkscape:connector-curvature="0" />
    <path
       style="fill:#d2b5ab;fill-rule:evenodd;stroke:none;stroke-width:1px;stroke-linecap:butt;stroke-linejoin:miter;stroke-opacity:1;fill-opacity:1"
       d="m 1236.998,190.96604 -10.0198,-0.47713 -23.3793,-7.15696 -35.3077,-23.37939 1.4314,-22.42513 -17.1767,-18.60809 -8.1112,-10.49687 -15.2682,-39.601826 -1.9085,-25.28791 3.3399,-10.49687 6.2027,-10.019739 3.817,-1.431391 -3.3399,-17.653826 4.2942,-12.882522 14.3139,-11.928262 8.5884,-4.771304 30.5363,-25.765044 31.0135,-11.928261 32.922,-3.339914 20.5166,2.862783 27.6736,7.156957 37.6933,21.47087 28.6278,31.013479 13.8368,36.739044 9.5426,15.26817 3.817,12.4054 -6.6798,10.01974 -10.4969,7.63408 -0.9542,8.11122 -0.4772,9.06548 -5.7255,12.405386 -10.0198,16.22244 -25.765,26.24217 -22.4251,12.40539 -64.8898,5.72557 z"
       id="path15847"
       inkscape:connector-curvature="0" />
    <path
       style="fill:#bc944d;fill-rule:evenodd;stroke:none;stroke-width:1px;stroke-linecap:butt;stroke-linejoin:miter;stroke-opacity:1;fill-opacity:1"
       d="m 1261.3316,232.47639 -6.2027,-8.11122 -5.2484,-3.33991 -1.4314,-7.15696 2.3857,-2.86278 -5.2485,-2.38565 -0.4771,-6.2027 9.0655,-10.01974 1.4314,-21.47087 57.7328,-7.15696 12.4053,13.83679 27.6736,23.37939 5.2484,30.53635 z"
       id="path15843"
       inkscape:connector-curvature="0" />
    <path
       style="fill:#bca989;fill-rule:evenodd;stroke:none;stroke-width:1px;stroke-linecap:butt;stroke-linejoin:miter;stroke-opacity:1;fill-opacity:1"
       d="m 1245.5863,205.27995 -7.6341,-12.40539 -1.9085,-10.974 3.3399,-10.01974 8.1113,-18.60809 7.634,-7.15695 8.1113,-7.15696 11.4511,-4.7713 13.3596,-0.47714 10.0198,4.77131 11.4511,10.01974 3.3399,14.79104 -25.2879,4.29418 -13.8368,0.95426 -21.4708,4.7713 -2.3857,18.60809 -2.3856,8.11122 z"
       id="path15845"
       inkscape:connector-curvature="0" />
    <path
       style="fill:#e7c290;fill-rule:evenodd;stroke:none;stroke-width:1px;stroke-linecap:butt;stroke-linejoin:miter;stroke-opacity:1;fill-opacity:1"
       d="m 1195.4876,134.66465 11.9283,7.15695 14.791,7.15696 13.8368,5.72556 10.0198,1.90853 4.7713,-7.15696 9.0654,-7.15696 10.4969,-5.72556 13.8368,-2.38565 11.9283,0.95426 19.5623,-17.1767 0.4771,-15.26817 8.5884,-15.268176 9.0655,-11.45113 -17.6539,-20.99374 -34.8305,-3.33991 -66.7982,-0.47713 -10.4969,2.38565 -6.6798,-4.29417 -1.9086,-5.72557 -6.2027,0.95426 -3.3399,4.77131 -0.4771,10.01974 0.9543,20.99373 1.9085,17.1767 5.7255,10.019736 z"
       id="path15849"
       inkscape:connector-curvature="0" />
    <path
       style="fill:#000000"
       d="m 1246.8281,-67.566406 c -0.1173,0.03055 -0.2651,0.163084 -0.4355,0.396484 -0.4041,0.55345 -2.4811,0.965769 -4.6172,0.917969 -8.5477,-0.19133 -30.7032,5.648597 -42.1777,11.117187 -10.9234,5.20597 -27.3335,17.359963 -34.6211,25.642578 -3.8203,4.34179 -7.0131,6.817457 -11.336,8.785157 -12.8139,5.83251 -19.02,18.6870822 -15.9453,33.033203 1.7982,8.39287 1.7949,9.337823 -0.037,8.634766 -0.825,-0.316591 -1.5161,-0.477652 -1.5371,-0.357422 -1.1071,6.40863 -0.9193,8.13455 1.4512,13.3125 1.4152,3.09113 2.2801,6.091438 1.9238,6.667968 -0.3626,0.58664 -0.1703,0.753327 0.4355,0.378907 0.5954,-0.36797 1.3461,0.161671 1.668,1.175781 0.4805,1.51405 11.3619,12.900324 15.9434,16.683594 2.3328,1.92635 9.6146,5.55355 9.5996,4.78125 -0.021,-1.04617 -1.9488,-3.992833 -1.9688,-3.007813 -0.033,1.66707 -7.5416,-3.969507 -13.0195,-9.773437 -9.3644,-9.92186 -12.8924,-16.072532 -14.6895,-25.607422 -0.7975,-4.23133 2.1874,-4.447247 4.7247,-0.341797 1.1725,1.89713 2.5456,3.449219 3.0507,3.449219 1.3248,0 1.1307,-0.92799 -0.541,-2.59961 -1.8099,-1.80998 -5.1462,-12.129167 -4.2207,-13.054687 0.8144,-0.81437 1.7277,-0.02795 2.1035,1.8125 0.2558,1.253 0.5338,2.074047 2.2344,6.591797 0.3621,0.9625 0.5689,2.143077 0.459,2.623046 -0.1098,0.479981 0.4943,0.606461 1.3418,0.28125 0.9568,-0.367159 1.541,-0.03496 1.541,0.876954 0,2.00509 2.6927,1.84992 4.8789,-0.28125 2.814,-2.74324 7.616,-10.531281 7.9199,-12.845704 0.3267,-2.4882172 -2.161,-4.8616936 -4.2539,-4.0585932 -0.8143,0.3125099 -1.7633,0.1087381 -2.1093,-0.4511719 -0.7745,-1.25228 -5.5688,-3.3072663 -6.9356,-2.9726563 -0.55,0.13465 -0.6675,-0.088364 -0.2598,-0.4960937 0.4077,-0.40773 0.2414,-1.3439313 -0.3711,-2.0820313 -0.6126,-0.73810982 -0.8344,-1.34374994 -0.4921,-1.34374998 0.3424,0 -0.1645,-0.82620061 -1.127,-1.83789062 -1.1975,-1.25864 -2.1447,-1.5370765 -3,-0.8789062 -0.9116,0.7014697 -1.25,0.3750456 -1.25,-1.2089844 0,-5.11401 5.2535,-11.1133064 13.3828,-15.2792964 4.136,-2.11956 5.8493,-2.553969 12.9824,-3.298829 l 3.8653,-0.404297 -0.6699,8.205079 c -0.8071,9.8934774 -1.8021,14.17060477 -5.2813,22.7031246 -2.9486,7.2315204 -5.911,11.6720004 -11.5137,17.2500004 -4.4158,4.39637 -4.6731,5.120919 -1.2656,3.568359 1.375,-0.6265 2.5,-1.591151 2.5,-2.144531 0,-0.55339 0.2787,-0.727189 0.6191,-0.386719 0.7357,0.73567 3.3809,-1.713929 3.3809,-3.130859 0,-0.54345 0.3457,-1.138926 0.7676,-1.322266 2.1761,-0.9455 8.5393,-11.470552 10.2832,-17.0078125 1.0958,-3.47945 2.3942,-7.0451781 2.8848,-7.9238281 0.49,-0.87865 1.1846,-4.02865 1.5429,-7 0.3582,-2.9713494 0.8484,-6.6119474 1.0899,-8.0917974 0.5247,-3.215029 -2.5082,-5.810546 -6.7911,-5.810546 -1.5276,0 -2.7773,-0.381397 -2.7773,-0.847657 0,-0.8105 7.73,-8.668861 13,-13.216797 13.8717,-11.971049 25.6597,-17.893071 45,-22.607421 12.9001,-3.1445 41.1216,-4.40581 52.5898,-2.34961 3.8004,0.6814 8.4852,1.461865 10.4102,1.734375 1.925,0.27252 3.95,0.828818 4.5,1.236328 0.55,0.40751 3.25,1.304621 6,1.994141 2.75,0.68953 6.35,1.844313 8,2.564453 1.65,0.72015 5.025,2.115013 7.5,3.101563 4.2968,1.71275 12.6057,6.186685 17.4395,9.390625 5.6354,3.73532 8.1332,5.554906 9.0605,6.597656 0.55,0.61851 3.025,2.487444 5.5,4.152344 3.7983,2.55507 12.0871,10.8023 18.8438,18.75 3.8977,4.5847774 11.2071,16.3938396 11.7597,18.9999996 0.1166,0.55 1.2034,3.2046178 2.416,5.8984374 1.2126,2.69381 2.5884,7.86881 3.0586,11.5 0.4701,3.63118 1.3237,10.201563 1.8965,14.601563 1.387,10.65488 1.0925,34.773547 -0.5,40.929687 -0.7013,2.71093 -1.1018,5.41093 -0.8906,6 0.3326,0.92741 -9.6663,8.928494 -11.4375,9.152344 -0.3555,0.04493 -2.743,1.024521 -5.3047,2.175781 -2.5617,1.15126 -6.8367,2.431743 -9.5,2.845703 -4.1504,0.64512 -4.4846,0.854614 -2.3418,1.464839 1.375,0.39169 3.175,0.55728 4,0.36915 0.825,-0.18814 2.85,-0.65292 4.5,-1.033208 4.2837,-0.98726 14.3519,-6.150904 18.748,-9.615234 2.962,-2.33356 3.6268,-3.438052 3.17,-5.257812 -0.3768,-1.5016 0.01,-2.776806 1.1093,-3.666016 4.8941,-3.95944 10.6304,-10.526117 13.6504,-15.623047 l 3.4024,-5.742187 -1.5918,-6 c -1.6883,-6.3639 -3.3494,-9.45949 -8.668,-16.15625 -2.0025,-2.52134 -3.7469,-6.233337 -4.4336,-9.435547 -1.0686,-4.98274 -5.3054,-17.413053 -7.8086,-22.9082034 -6.9276,-15.2077 -20.6686,-31.1567926 -37.8066,-43.8828126 -3.7245,-2.76564 -7.3142,-5.497808 -7.9785,-6.072265 -0.6642,-0.57445 -1.4968,-1.044922 -1.8496,-1.044922 -0.3528,0 -3.1851,-1.567182 -6.293,-3.482422 -10.5808,-6.52038 -36.5538,-15.428285 -41.3359,-14.177735 -0.9993,0.26132 -1.5998,0.12337 -1.334,-0.30664 0.2657,-0.43001 -1.2683,-1.06374 -3.4102,-1.40625 -2.1419,-0.3425 -4.7219,-0.89068 -5.7324,-1.21875 -1.5267,-0.4956 -1.5841,-0.414078 -0.3379,0.482422 1.2475,0.89735 1.1212,1.083003 -0.75,1.095703 -1.2375,0.0084 -2.2851,-0.548828 -2.3281,-1.236328 -0.063,-1 -0.1805,-1 -0.584,0 -0.2775,0.6875 -0.9439,1.25 -1.4805,1.25 -0.5366,0 -0.6989,-0.445848 -0.3613,-0.992188 0.3403,-0.55065 -0.4137,-0.980491 -1.6914,-0.96289 -1.2677,0.01748 -5.2297,-0.146135 -8.8047,-0.365235 -3.575,-0.2191 -7.2875,0.0038 -8.25,0.496094 -1.222,0.62506 -1.7546,0.506825 -1.7656,-0.390625 -0.01,-0.496819 -0.1189,-0.724744 -0.3145,-0.673828 z M 1140.8184,4.5488281 c 0.2244,-0.07023 0.3398,0.9645269 0.3398,3.1074219 0,2.01667 -0.4384,3.666016 -0.9746,3.666016 -0.5602,0 -0.7128,-1.3825504 -0.3574,-3.2500004 0.4337,-2.278645 0.7677,-3.4532075 0.9922,-3.5234375 z m -8.7637,23.3691409 c -0.5166,-0.06249 -1.024,0.574722 -1.9805,2.103515 -3.8741,6.1926 -4.4931,24.089288 -1.3457,38.929688 1.9344,9.1207 7.1944,24.113885 11.2598,32.093748 1.7433,3.42182 3.1699,6.39893 3.1699,6.61719 0,0.21827 -1.7251,0.62925 -3.834,0.91211 -3.7491,0.50286 -13.3706,6.50357 -14.9492,9.32422 -1.2165,2.17383 -21.7522,2.70043 -35.3555,0.90625 -10.7218,-1.41413 -17.9063,-1.81895 -20.9257,-1.22461 l 0,4.12695 c 0.2045,-0.36015 0.4469,-0.46165 0.7402,-0.47656 0.6034,-0.0307 1.2364,-0.0489 1.9004,-0.0547 4.6476,-0.0404 10.7517,0.52637 17.9238,1.66992 4.95,0.78926 10.8558,1.55805 13.125,1.70703 l 4.127,0.26954 -5.4082,8.95117 c -2.9738,4.92246 -5.6924,10.09313 -6.043,11.49023 -0.3507,1.39709 -1.2366,3.13886 -1.9688,3.8711 -0.7322,0.73223 -1.332,2.10982 -1.332,3.06054 0,0.95071 -0.4113,2.15524 -0.9141,2.67774 -1.667,1.73216 -8.1623,18.79547 -11.0195,28.94922 -6.6445,23.61305 -9.277,34.13419 -9.7949,39.15234 -0.2148,2.08109 -0.5378,3.84785 -0.8281,4.73047 l 3.6093,0 c 0.081,-0.70729 1.3028,-7.42608 2.4375,-13.38281 0.6754,-3.54549 1.4449,-7.10006 2.1641,-10 0.341,-1.375 0.6704,-3.69432 0.7324,-5.1543 0.062,-1.45998 0.4057,-2.47317 0.7637,-2.25195 0.3579,0.22123 1.2056,-1.95946 1.8828,-4.84571 0.6773,-2.88624 1.6045,-5.97262 2.0606,-6.85937 0.4561,-0.88675 1.0936,-3.11823 1.4179,-4.95899 0.3243,-1.84077 0.9575,-3.81618 1.4063,-4.38867 0.4487,-0.57249 1.7385,-3.51601 2.8672,-6.54101 1.1286,-3.025 2.8486,-7.3 3.8222,-9.5 0.9736,-2.2 1.7991,-4.24515 1.8321,-4.54688 0.2225,-2.00889 13.2324,-26.1037 15.5996,-28.89062 1.6488,-1.9412 2.7769,-2.8377 3.248,-2.82422 0.6058,0.0173 0.1242,1.54059 -1.7383,4.28515 -1.4022,2.06623 -2.5488,4.11529 -2.5488,4.55274 0,0.43744 -0.5205,2.06107 -1.1562,3.60937 -0.6358,1.54831 -1.218,3.26446 -1.295,3.81446 -1.5333,11.00341 -2.1418,13.41674 -4.0371,16 -2.6304,3.58506 -9.7098,20.59239 -12.0703,29 -0.9265,3.3 -2.7419,9.15 -4.0351,13 -1.2931,3.85 -2.8255,9.025 -3.4063,11.5 -0.5808,2.475 -1.3237,5.4 -1.6504,6.5 -0.3267,1.1 -1.0865,4.3625 -1.6875,7.25 -0.5542,2.6622 -0.9012,3.98172 -1.5312,4.63281 l 4.3613,0 c -0.7721,-0.8356 -0.484,-2.73058 0.5625,-6.88281 1.7719,-7.03004 2.1773,-8.96588 2.1973,-10.5 0.011,-0.825 0.3506,-1.95 0.7539,-2.5 0.4033,-0.55 1.0541,-2.8 1.4453,-5 0.3912,-2.2 1.7158,-6.7 2.9453,-10 3.648,-9.79179 5.7516,-15.90368 6.0215,-17.5 0.1394,-0.825 0.9214,-3.075 1.7383,-5 0.8169,-1.925 2.353,-5.63566 3.414,-8.2461 1.1977,-2.94687 2.3055,-4.50705 3.1133,-4.64453 0.8078,-0.13748 1.3164,1.14758 1.3164,3.89063 0,2.35784 0.4735,4 1.1543,4 0.7318,0 0.596,0.64121 -0.3711,1.75 -2.2927,2.62841 -3.6668,5.60237 -6.9844,15.10742 -6.7742,19.40868 -12.6493,40.65513 -12.1484,43.9375 0.1155,0.75701 0.1031,1.25376 -0.1094,1.58789 l 2.7481,0 c -0.1908,-0.43088 -0.058,-1.16006 0.2148,-2.40039 0.3647,-1.66037 0.8047,-4.69787 0.9766,-6.75 0.172,-2.05214 0.5798,-4.40742 0.9082,-5.23242 0.3284,-0.825 1.5045,-5.07457 2.6133,-9.44532 1.1088,-4.37074 2.3505,-8.19574 2.7578,-8.5 0.4073,-0.30425 0.74,-1.00468 0.75,-1.55468 0.018,-1.69337 4.3557,-14.98286 6.33,-19.39258 l 1.8692,-4.17188 2.166,5.94141 2.166,5.9414 -2.1191,3.58985 c -1.1655,1.97538 -1.7952,3.5918 -1.3985,3.5918 0.3966,0 0.2587,0.5625 -0.3066,1.25 -0.5654,0.6875 -1.8077,3.9449 -2.7617,7.23828 -0.9541,3.29338 -2.0791,6.66838 -2.5,7.5 -1.6302,3.2213 -4.5404,15.48407 -5.1641,21.76172 -0.024,0.23829 -0.2083,0.45029 -0.498,0.63281 l 4.705,0 0,-2.56641 c 0,-2.0267 0.4128,-4.76821 0.9161,-6.09179 0.5032,-1.32363 1.1959,-3.93976 1.539,-5.81446 0.8533,-4.66261 1.0126,-5.2609 1.7071,-6.41015 0.3324,-0.55 0.9415,-2.56812 1.3535,-4.48633 0.9181,-4.27342 5.5008,-15.01367 6.4062,-15.01367 0.3619,0 1.9876,2.5875 3.6133,5.75 1.6257,3.1625 3.2336,5.975 3.5723,6.25 0.3387,0.275 1.3513,1.93939 2.2519,3.69726 0.9005,1.75787 2.7172,4.45787 4.0352,6 8.7597,10.24945 14.4756,16.07861 16.8574,17.18945 0.8598,0.401 1.6217,0.95509 2.127,1.4961 l 8.9101,0 c -0.3665,-0.77411 -0.9817,-1.38281 -1.4609,-1.38281 -1.1285,0 -7.2137,-4.51066 -10.5254,-7.80274 -1.2747,-1.26711 -2.775,-2.02127 -3.334,-1.67578 -0.559,0.34549 -0.8933,0.21871 -0.7422,-0.28125 0.1511,-0.49995 -1.5246,-2.96076 -3.7246,-5.46875 -2.2,-2.50798 -4.9,-5.80634 -6,-7.33008 -1.1,-1.52374 -2.45,-3.2785 -3,-3.89844 -2.8911,-3.25862 -10.6824,-18.5097 -13.5605,-26.54296 -3.0477,-8.50668 -3.4224,-26.10106 -0.6973,-32.75 1.2793,-3.12146 1.4121,-4.25248 0.5,-4.26368 -0.8707,-0.0107 -0.9114,-0.23493 -0.1328,-0.75 0.6107,-0.40408 1.807,-2.08632 2.6562,-3.73632 1.843,-3.58046 5.1329,-7.46736 6.1309,-7.34571 0.067,0.008 0.1229,0.0331 0.168,0.0781 0.3041,0.30406 -0.092,2.96354 -0.8809,5.91015 -2.1969,8.20502 -2.5339,14.00962 -1.2871,22.12696 0.4029,2.62315 1.0408,4.58119 1.418,4.34961 0.3772,-0.23158 0.7282,0.77201 0.7812,2.23047 0.053,1.45842 1.5086,5.57539 3.2344,9.15039 1.7258,3.575 3.033,6.80173 2.9043,7.16992 -0.1286,0.36819 0.6897,1.71819 1.8183,3 1.1287,1.28181 2.9177,4.01758 3.9766,6.08008 1.059,2.0625 2.1658,3.75 2.4609,3.75 0.2951,0 1.6324,1.77208 2.9707,3.9375 1.3383,2.16543 2.7949,3.71428 3.2364,3.4414 0.4415,-0.27289 0.8027,0.0294 0.8027,0.67188 0,1.22032 2.8712,4.73227 6.8145,8.33593 12.2001,11.14932 12.3622,11.282 15.6484,12.7793 1.3957,0.63591 2.5371,1.53433 2.5371,1.9961 0,0.46171 0.3375,0.74789 0.75,0.63671 0.4125,-0.11118 2.775,0.8956 5.25,2.23633 2.475,1.34074 6.3,3.20481 8.5,4.14453 1.0502,0.44857 1.8337,0.86958 2.2988,1.20313 l 15.3907,0 c -4.9384,-0.57742 -7.1895,-1.39494 -7.1895,-2.49805 0,-0.48585 -0.5849,-0.88476 -1.2988,-0.88476 -0.7139,0 -4.9855,-1.80666 -9.4922,-4.01563 -4.5067,-2.20898 -8.3394,-3.89648 -8.5176,-3.75 -0.1782,0.14647 -1.4191,-0.90506 -2.7578,-2.33594 -1.3387,-1.43088 -3.7265,-3.27185 -5.3066,-4.09179 -3.6187,-1.8777 -20.3875,-18.47149 -21.1758,-20.95508 -0.3231,-1.01795 -0.9536,-1.85156 -1.4024,-1.85156 -0.4488,0 -1.0811,-0.7875 -1.4043,-1.75 -0.5864,-1.74655 -2.676,-5.30317 -3.6718,-6.25 -1.3351,-1.26949 -6.9727,-8.85296 -6.9727,-9.37891 0,-0.32509 -1.3867,-2.84436 -3.082,-5.59961 -3.0863,-5.01578 -6.1955,-17.98968 -5.3555,-22.35156 0.214,-1.11141 -0.1613,-2.70328 -0.8359,-3.53711 -0.8255,-1.02102 -0.8491,-1.28892 -0.07,-0.82227 0.7846,0.47024 1.3801,-0.9387 1.8535,-4.38086 0.3946,-2.86881 1.3013,-5.30365 2.0879,-5.60547 0.7652,-0.2935 1.1173,-0.97506 0.7832,-1.51562 -0.6817,-1.10302 6.2328,-7.78816 11.7011,-11.3125 1.9706,-1.27008 4.9826,-2.45552 6.6914,-2.63477 0.3333,-0.035 0.6377,-0.0579 0.9219,-0.0625 1.9895,-0.0319 2.9463,0.78891 5.2442,3.96094 1.683,2.32339 3.0605,4.65766 3.0605,5.1875 0,0.52984 -1.5861,1.25961 -3.5234,1.62305 -3.4826,0.65333 -9.9547,6.84943 -8.9141,8.5332 0.2583,0.41788 0.016,1.03989 -0.5391,1.38281 -1.3857,0.8564 -0.2695,15.56389 1.5782,20.80079 2.6197,7.42497 6.4956,13.06484 14.748,21.46289 4.4588,4.5375 8.4894,8.25 8.959,8.25 0.4696,0 2.7308,1.4625 5.0234,3.25 6.7005,5.22434 8.7603,6.18176 9.8965,4.59375 0.7448,-1.04093 0.8437,-0.97834 0.4453,0.27929 -0.6074,1.9173 3.4244,5.17397 9.0118,7.28125 13.5022,5.09257 24.093,8.84582 25.8144,9.14844 1.1,0.19338 3.2043,0.60152 4.6758,0.90625 2.0057,0.41534 2.7891,0.11523 3.1328,-1.20117 0.3498,-1.33981 0.4882,-1.22753 0.5762,0.47461 0.075,1.44582 0.907,2.40662 2.3652,2.73242 12.4311,2.7775 15.2098,3.2803 16.6191,3.00586 0.8964,-0.17455 1.9153,-0.35048 2.2637,-0.39258 0.3483,-0.0421 0.8759,-1.0031 1.1719,-2.13477 0.4667,-1.78476 0.8036,-1.89246 2.5391,-0.80859 1.7334,1.08251 1.8238,1.50267 0.6738,3.14453 -1.8522,2.64439 -0.322,7.39495 3.5117,10.89649 1.6834,1.53753 3.378,2.68975 3.7656,2.56054 0.3569,-0.11896 0.6426,0.1719 0.6875,0.64649 l 5.5352,0 c -0.1092,-0.53242 0.4135,-0.851 1.4941,-0.84375 0.223,0.001 0.4701,0.0152 0.7383,0.0449 1.2375,0.13725 2.5875,0.28818 3,0.33398 0.2585,0.0287 0.4763,0.21636 0.6113,0.46485 l 3.5664,0 c 0,-0.002 -0.01,-0.004 -0.01,-0.006 -0.5064,-0.7638 -4.7449,-2.3385 -9.4199,-3.5 -11.4858,-2.85362 -12.106,-3.24543 -11.8223,-7.45703 l 0.2344,-3.48047 4.5449,0.71484 c 2.499,0.39233 5.3305,0.72694 6.293,0.74414 0.9625,0.0172 1.75,0.29504 1.75,0.61719 0,0.32214 1.0125,0.61148 2.25,0.64258 2.0502,0.0515 6.3151,0.63567 14.166,1.94336 1.6037,0.26713 3.2164,0.67127 3.584,0.89844 0.3676,0.22717 2.1867,0.68079 4.043,1.00781 1.8562,0.32702 3.8435,0.9782 4.416,1.44531 2.0501,1.67272 13.5245,5.88128 13.9883,5.13086 0.6204,-1.00393 -4.0263,-4.33584 -8.4473,-6.05664 -1.925,-0.74927 -3.95,-1.68381 -4.5,-2.07813 -1.1628,-0.83362 -7.6475,-2.4187 -8.75,-2.13867 -0.4125,0.10478 -0.75,-0.28668 -0.75,-0.86914 0,-0.58241 -0.3375,-0.85093 -0.75,-0.59765 -0.4125,0.25328 -4.35,-0.17348 -8.75,-0.94727 -4.4,-0.77379 -10.025,-1.62021 -12.5,-1.88086 -13.4401,-1.41547 -13.2405,-1.30984 -14.168,-7.51562 -0.4552,-3.04543 1.2895,-5.8663 3.9629,-6.40821 4.2832,-0.86821 39.835,0.14517 41.8692,1.19336 1.0098,0.52032 2.3984,0.74456 3.0859,0.49805 1.8592,-0.66665 1.5021,1.81619 -0.75,5.2168 -1.0928,1.65 -1.9541,3.9 -1.9141,5 0.041,1.13411 0.296,1.44147 0.5899,0.70898 0.3554,-0.88589 0.8963,-0.97675 1.7226,-0.29102 1.5326,1.27194 5.2952,0.32124 6,-1.51562 0.6673,-1.73877 -0.574,-1.82279 -2.2617,-0.15234 -1.0165,1.00605 -1.0555,0.7014 -0.1992,-1.56641 0.974,-2.57961 0.8946,-2.76426 -0.9473,-2.17969 -1.8418,0.58458 -1.9122,0.42196 -0.8398,-1.93164 0.6442,-1.41396 1.739,-2.57226 2.4336,-2.57226 1.5144,0 9.7182,6.14591 13.1543,9.85351 1.3498,1.4564 2.7952,2.64649 3.2109,2.64649 0.4157,0 2.6802,1.6875 5.0332,3.75 2.3529,2.0625 5.0077,3.74432 5.8985,3.73632 2.4396,-0.0231 4.4653,-1.61625 3.6777,-2.89062 -0.3835,-0.62081 -1.064,-0.90097 -1.5137,-0.62305 -0.4497,0.27791 -1.375,-0.16348 -2.0547,-0.98242 -0.68,-0.81894 -0.9453,-1.49023 -0.5918,-1.49023 0.3534,0 -0.6609,-2.28113 -2.2539,-5.07032 -3.5996,-6.30268 -13.5815,-16.74917 -16.7675,-17.54883 -2.506,-0.62897 -3.2525,-2.2908 -1.127,-2.50781 0.6875,-0.0702 2.3415,-0.23673 3.6758,-0.37109 2.9806,-0.30014 12.3783,6.15797 11.414,7.84375 -0.3636,0.63563 -0.289,0.81899 0.1641,0.4082 0.9974,-0.90419 6.673,5.21743 6.1875,6.67383 -0.1887,0.56612 0.4442,1.87741 1.4082,2.91211 0.9639,1.0347 1.5,2.61931 1.1914,3.52148 -0.4235,1.23817 -0.1973,1.17262 0.9219,-0.26367 0.8156,-1.04652 1.9554,-1.61173 2.5312,-1.25586 0.5758,0.35587 1.3159,-0.0534 1.6446,-0.91015 0.3288,-0.8567 0.9821,-1.32039 1.4531,-1.0293 0.471,0.29109 1.4499,-0.57932 2.1758,-1.93555 0.7258,-1.35623 1.6933,-2.46679 2.1504,-2.46679 0.457,0 0.8671,-0.7875 0.9101,-1.75 0.043,-0.9625 0.2991,-1.2117 0.5664,-0.55469 0.2672,0.65701 0.06,2.00701 -0.4589,3 -0.6183,1.18188 -0.5107,3.48741 0.3105,6.67383 0.6899,2.67718 1.0827,7.06468 0.873,9.75 -0.2871,3.67453 -0.039,4.88086 1.002,4.88086 1.832,0 3.8077,-2.45071 2.8691,-3.5586 -0.4077,-0.48126 -0.01,-0.31832 0.8848,0.36133 0.8937,0.67966 1.625,2.40282 1.625,3.83008 0,0.9782 0.2944,2.02132 0.7207,2.75 l 24.3184,0 c -0.1281,-0.15193 -0.2626,-0.34439 -0.4219,-0.61524 -0.4767,-0.81034 -1.5422,-1.72878 -2.3672,-2.04101 -0.8836,-0.33441 -0.3938,-0.59999 1.1914,-0.64649 1.48,-0.0434 2.9124,0.27999 3.1836,0.71875 0.2712,0.43876 0.1253,1.39192 -0.3242,2.11914 -0.1293,0.20915 -0.2375,0.3397 -0.3457,0.46485 l 3.7656,0 0.012,-6.61914 c 0.014,-7.89298 -0.1871,-8.66478 -3.9844,-15.23438 -3.02,-5.22551 -5.6375,-8.15555 -10.6855,-11.96094 -6.1828,-4.66083 -6.5587,-5.15577 -5,-6.5996 2.4075,-2.22996 9.7028,-4.96875 13.2383,-4.96875 l 0,0 c 8.1634,0 14.5414,6.01789 18.4043,17.36328 2.3699,6.95372 2.64,9.09342 2.3594,18.5 l -0.2851,9.51953 3.0175,0 c 1.6419,-1.26748 1.974,-2.80751 2.0879,-9.60156 0.075,-4.47361 -0.2113,-9.2917 -0.6347,-10.70704 -0.4233,-1.41534 -1.3411,-4.59921 -2.0411,-7.07421 -2.7416,-9.69263 -7.7588,-16.128 -15.6054,-20.01954 -8.003,-3.96905 -15.3373,-3.02043 -21.961,2.84375 -1.9728,1.74663 -4.051,3.17579 -4.6172,3.17579 -1.0935,0 -22.2136,-10.47255 -29.7773,-14.76563 -4.3382,-2.46233 -9.5757,-7.01417 -8.8516,-7.69336 0.1932,-0.18119 3.1075,-1.48355 6.4766,-2.89453 7.0163,-2.93847 13.0053,-6.29775 15.8125,-8.86914 1.0663,-0.97661 2.2469,-1.77734 2.6231,-1.77734 0.3759,0 3.4437,-2.20432 6.8164,-4.90039 7.2773,-5.81721 18.8511,-18.34251 23.7031,-25.65235 6.7504,-10.16988 14.326,-27.447264 12.0351,-27.447264 -0.3494,0 -2.7681,1.4625 -5.375,3.25 -7.6246,5.228164 -18.3307,9.992824 -25.0742,11.158204 l -3.3359,0.57617 0.8359,-7.742187 c 0.459,-4.25805 0.7789,-11.444273 0.7129,-15.970703 -0.1,-6.81604 -0.5856,-9.151817 -2.832,-13.591797 -3.7282,-7.36874 -7.831,-11.639398 -16.0469,-16.705078 -3.85,-2.3738 -7.7875,-4.982578 -8.75,-5.798828 -0.9625,-0.81627 -1.75,-1.218981 -1.75,-0.894531 0,0.32446 -3.2625,-0.906015 -7.25,-2.734375 -7.0061,-3.21246 -26.1036,-9.187524 -32.25,-10.089844 -4.7692,-0.70014 -18.8713,-2.457031 -19.7246,-2.457031 -0.4269,0 -0.7754,0.669048 -0.7754,1.486328 0,1.23978 -0.9397,1.134541 -5.6738,-0.636719 -5.2691,-1.9714 -6.9649,-2.081039 -23.75,-1.542969 -17.579,0.5635 -26.5506,1.981562 -36.0762,5.701172 -1.65,0.6443 -3.8358,1.338952 -4.8574,1.544922 -6.3246,1.27508 -20.6618,17.404008 -17.4883,19.673828 1.0496,0.75065 0.9901,0.850315 -0.2656,0.453125 -1.1693,-0.36986 -2.2169,0.83687 -3.8301,4.40625 -1.2217,2.70323 -2.6784,4.914063 -3.2363,4.914063 -1.324,0 -7.2251,-3.27929 -7.6582,-4.25586 -0.1845,-0.41593 -0.6858,-0.538897 -1.1153,-0.273437 -0.4295,0.26546 -1.5865,-0.407111 -2.5703,-1.494141 -0.9837,-1.08703 -2.4696,-1.976562 -3.3027,-1.976562 -1.7796,0 -12.1758,-10.866303 -12.1758,-12.726563 0,-0.6999 -0.4024,-1.273437 -0.8926,-1.273437 -1.4213,0 -3.9082,-7.188805 -3.9082,-11.296875 0,-2.0662 -0.5695,-4.44244 -1.2656,-5.28125 -0.4143,-0.499238 -0.7271,-0.788675 -1.0371,-0.826172 z m 132.1035,4.404297 c 1.1111,0 2,0.66667 2,1.5 0,0.825 -0.1125,1.448565 -0.25,1.384765 -0.1375,-0.0638 -1.0375,-0.322688 -2,-0.574219 -2.3957,-0.626049 -2.2134,-2.310546 0.25,-2.310546 z m -58.7324,4.121093 c 1.9801,-0.007 2.2567,0.956105 0.6328,2.580079 -0.8002,0.800167 0.086,0.860073 3.25,0.220703 14.1574,-2.86086 41.6107,-3.024269 59.8164,-0.355469 11.1353,1.63232 15.2393,3.022479 6.0332,2.042969 -23.1691,-2.46514 -47.5873,-2.497824 -62.7402,-0.08203 -12.462,1.98677 -12.2302,2.012417 -11.3575,-1.277343 0.532,-2.00514 1.4572,-2.835697 3.4141,-3.066407 0.3519,-0.04149 0.6683,-0.0615 0.9512,-0.0625 z m 182.9883,0.101563 c 0.1665,-0.05967 0.4731,0.13875 0.9414,0.527344 2.4096,1.99982 7.0691,12.4438 7.582,16.99414 0.3904,3.46345 0.1762,4.25586 -1.1504,4.25586 -0.8965,0 -1.6367,0.5625 -1.6367,1.25 0,0.6875 -1.0731,1.744356 -2.375,2.347656 l -2.3672,1.097656 0,-10.140625 c 0,-5.57676 -0.3406,-11.685412 -0.7559,-13.576172 -0.4041,-1.840381 -0.5158,-2.656416 -0.2382,-2.755859 z m -257.5059,2.78125 c 0.4125,0.0021 1.5729,2.007851 2.5801,4.457031 2.3779,5.78258 13.6026,17.262916 21.8496,22.347656 2.0236,1.24768 3.8236,2.696279 4,3.220703 0.1764,0.524441 1.5578,1.056941 3.0703,1.181641 3.203,0.26407 3.1749,0.05473 1.3125,9.789063 -1.6375,8.5589 -0.6345,21.008184 2.127,26.396484 2.5915,5.05659 7.459,11.78898 8.0761,11.17187 0.7178,-0.71778 4.2344,2.39012 4.2344,3.74219 0,0.55 -1.0125,0.15048 -2.25,-0.88867 -1.2375,-1.03914 -0.918,-0.42197 0.7109,1.37109 1.629,1.79305 3.5279,3.04248 4.2188,2.77735 0.6909,-0.26513 1.5225,-0.0514 1.8476,0.47461 0.3251,0.52598 0.058,0.95508 -0.5917,0.95508 -0.865,0 -0.836,0.41679 0.1035,1.54882 1.0257,1.2359 1.4501,1.28622 2.1074,0.25 0.7819,-1.23259 0.9372,-1.0849 1.2285,1.16993 0.1746,1.35132 2.8251,4.16666 6.1465,6.53125 1.5452,1.1 3.3056,2.45 3.9141,3 2.7024,2.44395 13.7577,9.44807 15.3281,9.71093 0.9544,0.15977 2.263,0.96407 2.9062,1.78907 0.6431,0.825 1.5431,1.53713 2,1.58203 0.4568,0.0449 3.9101,1.50739 7.6739,3.25 3.7638,1.74262 7.4432,3.16797 8.1777,3.16797 0.7344,0 1.9294,0.5625 2.6562,1.25 0.7267,0.6875 2.4188,1.37212 3.7598,1.52148 1.341,0.14936 2.6261,0.46001 2.8555,0.68945 0.2295,0.22945 -0.641,3.14483 -1.9336,6.47852 -1.2927,3.3337 -2.6805,6.06055 -3.084,6.06055 -0.4035,0 -0.2336,-1.09562 0.3769,-2.43555 1.6399,-3.59923 0.5172,-5.20106 -4.1738,-5.95117 -2.3062,-0.36879 -6.7326,-1.58959 -9.8359,-2.71289 -3.1034,-1.12329 -6.0926,-2.13301 -6.6426,-2.24414 -2.8112,-0.56803 -8.3225,-3.28547 -10.8262,-5.3379 -1.5547,-1.27446 -3.4672,-2.31835 -4.25,-2.31835 -0.7828,0 -1.4238,-0.62526 -1.4238,-1.39063 0,-0.76538 -1.0548,-1.65699 -2.3437,-1.98047 -1.2889,-0.32349 -3.4264,-1.61905 -4.75,-2.88086 -1.3236,-1.26182 -4.4227,-3.63465 -6.8868,-5.27148 -5.9023,-3.92056 -9.0195,-6.61651 -9.0195,-7.79883 0,-0.52877 -1.4014,-2.29959 -3.1133,-3.93555 -2.3297,-2.22635 -3.1825,-4.00354 -3.3906,-7.07031 -0.1606,-2.36784 -0.851,-4.28345 -1.6367,-4.53711 -2.3806,-0.76858 -7.9939,-7.34442 -7.459,-8.73828 0.2831,-0.73776 -0.4142,-1.99296 -1.5508,-2.78906 -1.1366,-0.79609 -1.768,-1.93182 -1.4023,-2.52344 0.3683,-0.596 -0.511,-1.61135 -1.9727,-2.27734 l -2.6387,-1.20118 2.3321,-0.90625 2.332,-0.904292 -2.5,-1.09375 c -3.4601,-1.512941 -3.4335,-1.471952 -2.0195,-3.175782 0.6957,-0.8383 0.8485,-1.52539 0.3398,-1.52539 -0.8352,0 -3.0211,-7.44883 -3.668,-12.5 -0.6408,-5.0027 -3.054,-13.5 -3.8339,-13.5 -0.4748,0 -2.8165,-1.8 -5.2032,-4 -2.3867,-2.2 -4.5744,-4 -4.8613,-4 -1.0012,0 -1.5391,5.37471 -0.6933,6.93164 0.4681,0.86328 1.5663,4.26836 2.4394,7.56836 2.0269,7.66125 3.5617,11.570774 4.3652,11.115234 0.3487,-0.19768 1.5348,0.54839 2.6348,1.65625 l 2,2.013672 -2.25,-0.548828 c -1.5268,-0.37223 -2.25,-0.09691 -2.25,0.857422 0,0.77351 0.3937,1.40625 0.875,1.40625 0.4812,0 1.1526,1.38973 1.4922,3.08789 0.8641,4.32041 6.5939,13.346074 9.8789,15.560544 2.7055,1.82385 3.9393,4.11317 1.5039,2.79102 -0.6875,-0.37324 0.5192,0.95066 2.6816,2.9414 2.1624,1.99081 3.5415,3.61915 3.0645,3.61915 -0.477,0 -1.9069,-0.97609 -3.1777,-2.16993 -3.6279,-3.40817 -3.746,-1.49005 -0.1407,2.28321 1.7801,1.86299 3.1386,3.7382 3.0196,4.16601 -0.119,0.4278 0.4628,1.03693 1.2929,1.35547 0.8301,0.31854 1.5098,1.12271 1.5098,1.78516 0,1.38624 1.7367,3.23504 9.1699,9.75781 2.931,2.57199 6.8928,6.05949 8.8028,7.75 1.9101,1.69051 2.8896,3.07227 2.1777,3.07227 -0.7118,0 -1.8966,-0.5625 -2.6348,-1.25 -0.7382,-0.6875 -2.8106,-2.375 -4.6054,-3.75 -8.3174,-6.37207 -18.0566,-16.87597 -25.8653,-27.90039 -1.0887,-1.53697 -1.6779,-1.74498 -2.3437,-0.82618 -0.6095,0.84117 -0.7165,0.68704 -0.3399,-0.48828 0.3172,-0.98977 -1.0818,-4.50717 -3.3066,-8.31445 -2.1209,-3.62937 -4.1668,-8.255391 -4.5469,-10.281251 -0.38,-2.02585 -1.0006,-3.909287 -1.3789,-4.185547 -1.5084,-1.10134 -7.0863,-19.973942 -8.0762,-27.326172 -1.2184,-9.04911 -1.4002,-22.678828 -0.3027,-22.673828 z m 64.8398,0.996094 c 0.3964,0 -0.094,0.9 -1.0898,2 -1.9392,2.14273 -3.5,2.604356 -3.5,1.035156 0,-0.94405 3.1624,-3.035156 4.5898,-3.035156 z m -6.5761,1.164062 c 0.2524,-0.04012 0.4725,0.01731 0.6465,0.195313 0.4618,0.47262 -0.1727,1.541086 -1.4102,2.373047 -1.6448,1.10575 -2.25,2.491406 -2.25,5.154296 0,2.00356 -0.9136,5.346175 -2.0293,7.427735 -1.1156,2.08155 -1.7213,4.282845 -1.3457,4.890625 0.3986,0.64483 0.2276,0.823887 -0.4102,0.429687 -0.6012,-0.37155 -1.502,0.05831 -2.0039,0.955078 -0.8093,1.44618 -0.98,1.456196 -1.5058,0.08594 -0.3261,-0.84967 -0.2364,-1.688298 0.1992,-1.861328 1.7727,-0.70415 5.8552,-9.622947 5.4492,-11.904297 -0.423,-2.376491 2.8929,-7.465248 4.6602,-7.746094 z M 1298.8203,41.875 c 0.4209,10e-4 1.0206,0.136828 1.7344,0.408203 1.3184,0.50127 2.7404,0.603943 3.1601,0.226563 0.4199,-0.37739 0.4406,-0.125 0.045,0.5625 -0.3956,0.6875 -0.8052,1.190134 -0.9102,1.115234 -0.1051,-0.0749 -1.2039,-0.331964 -2.4414,-0.570312 -1.2375,-0.238361 -2.25,-0.841714 -2.25,-1.339844 0,-0.269525 0.2413,-0.403382 0.6621,-0.402344 z m -15.2988,1.794922 c 0.091,0.01377 0.2006,0.165695 0.3203,0.464844 0.2888,0.72187 0.252,1.585678 -0.08,1.917968 -0.3323,0.33229 -0.5684,-0.25834 -0.5254,-1.3125 0.03,-0.728093 0.1336,-1.093263 0.2852,-1.070312 z m -79.3047,0.652344 c 2.0635,0 2.6638,2.436208 0.873,3.542968 -0.5879,0.3631 -0.8438,1.242368 -0.5703,1.955078 0.3024,0.787951 -0.4761,1.483185 -1.9843,1.771485 -2.3139,0.44235 -2.4345,0.263442 -1.8106,-2.648438 0.8961,-4.18224 1.2274,-4.621093 3.4922,-4.621093 z m -13.3262,1.148437 c 3.0935,-0.121966 4.1184,1.915203 5.416,9.921875 1.3498,8.32797 3.1556,10.869539 5.9336,8.355469 0.947,-0.85695 1.6041,-2.314099 1.461,-3.240235 -0.1431,-0.926129 0.238,-2.061274 0.8476,-2.521484 1.2003,-0.9061 -1.6707,-0.392592 -4.6406,0.830078 -1.4764,0.60779 -1.75,0.156292 -1.75,-2.886718 0,-4.043971 0.2228,-4.242083 2.3633,-2.101563 1.6417,1.64168 4.4788,1.988774 9.1367,1.115234 10.6438,-1.99614 21.3043,-2.745921 22.043,-1.550781 0.3165,0.51219 1.3356,0.898075 2.2656,0.859375 1.3851,-0.05756 1.3296,-0.230074 -0.3086,-0.958984 -1.2464,-0.55459 4.3106,-0.810678 14.75,-0.679688 10.6333,0.13343 16.7556,-0.156225 16.7656,-0.791015 0.01,-0.55 0.3517,-0.470076 0.7637,0.177734 0.8301,1.30523 15.1965,2.074564 17.0742,0.914062 0.6305,-0.389648 1.1465,-0.174234 1.1465,0.478516 0,0.82154 1.2125,0.992721 3.9395,0.556641 2.2996,-0.36772 4.2009,-0.205828 4.5683,0.388672 0.3462,0.56016 1.0486,0.759799 1.5606,0.443359 0.512,-0.31643 1.4609,-0.249169 2.1074,0.150391 0.6465,0.39956 3.0196,0.865216 5.2734,1.035156 2.2539,0.16995 6.7051,1.169133 9.8926,2.220703 6.3751,2.10316 10.5109,1.868422 8.5566,-0.486328 -1.3562,-1.63409 -0.8946,-1.706994 2.5372,-0.402344 2.7606,1.04979 3.3273,0.231073 1.3144,-1.898437 -1.0327,-1.09247 -0.8487,-1.115993 1.0606,-0.132813 1.2708,0.65456 2.0578,1.722787 1.75,2.373047 -0.3085,0.65027 -0.8363,1.969141 -1.1758,2.931641 -0.3395,0.9625 -1.0647,1.75 -1.6094,1.75 -0.5447,0 -0.7307,-0.675 -0.4141,-1.5 0.3166,-0.825 0.1402,-1.5 -0.3925,-1.5 -0.5327,0 -0.9688,0.703086 -0.9688,1.560546 0,0.857462 -0.4116,1.304751 -0.9141,0.994141 -0.5025,-0.31057 -1.5012,0.765055 -2.2207,2.390625 -0.7237,1.63489 -1.5991,2.484614 -1.9589,1.902344 -0.3578,-0.57895 -0.9766,1.992215 -1.375,5.71289 -0.8309,7.758213 -2.8987,16.291705 -5.2364,21.615235 -1.2634,2.87708 -2.6112,4.052619 -6.2051,5.412109 -2.5249,0.95509 -5.526,2.340034 -6.6699,3.078124 -1.1439,0.73808 -2.405,1.0168 -2.8027,0.61914 -0.3972,-0.39767 -0.4207,0.0617 -0.053,1.02149 0.5212,1.35805 0.9762,1.49103 2.0527,0.59765 0.7608,-0.63138 1.3828,-0.7146 1.3828,-0.18554 0,0.52906 -1.1783,1.4978 -2.6191,2.15429 -2.1003,0.95711 -2.5214,0.93934 -2.125,-0.0937 0.2719,-0.7086 -0.049,-1.79576 -0.7129,-2.41601 -0.9075,-0.84767 -1.4934,-0.67154 -2.3555,0.70898 -0.8538,1.36703 -0.8555,2.01544 -0.012,2.53711 0.6953,0.42972 0.8573,0.25278 0.4199,-0.45508 -0.3925,-0.63498 -0.2367,-1.15429 0.3457,-1.15429 2.4205,0 0.8004,2.75283 -2.5644,4.35742 -4.0387,1.92566 -4.1016,3.24885 -0.082,1.7207 1.7777,-0.6759 2.6838,-0.6404 2.9356,0.11523 0.2599,0.77976 0.9854,0.7618 2.5293,-0.0644 1.1908,-0.63726 1.9467,-1.72794 1.6797,-2.42383 -0.2961,-0.77156 1.6694,-2.3229 5.0371,-3.97461 5.5236,-2.709 7.0666,-2.71496 3.7734,-0.0156 -0.9836,0.80623 -1.0931,1.08994 -0.25,0.64844 1.1689,-0.61211 1.1052,-0.17981 -0.291,1.95507 -0.9853,1.50676 -1.552,3.12749 -1.2578,3.60352 1.0503,1.69949 -2.4775,7.98115 -5.4785,9.75391 -3.2262,1.90567 -4.9065,5.79286 -3.2286,7.4707 1.178,1.17805 -0.6496,5.8335 -2.2949,5.8457 -2.3074,0.0171 -3.1983,-2.16799 -2.375,-5.81836 0.9137,-4.05104 0.1,-5.54547 -2.7187,-5.00195 -2.0246,0.39041 -2.6545,5.26904 -0.9825,7.60352 1.272,1.77521 0.9674,1.89605 -6.5429,2.60156 -3.6681,0.34457 -8.7211,1.50637 -11.2305,2.58203 -4.2262,1.81156 -4.8348,1.84233 -8.2344,0.42187 -2.0187,-0.84343 -4.5023,-1.31678 -5.5195,-1.05078 -1.0172,0.266 -1.5973,0.0768 -1.2891,-0.42187 0.3082,-0.49871 -0.2912,-0.9082 -1.332,-0.9082 -1.0408,0 -2.2141,-0.32153 -2.6074,-0.71485 -1.3125,-1.31246 -10.0564,-3.19566 -15.1172,-3.25586 -3.6083,-0.0429 -4.5825,-0.32973 -3.5,-1.02929 2.2171,-1.43282 9.1696,-1.20313 13.875,0.45703 2.3657,0.83468 4.125,1.03775 4.125,0.47656 0,-0.53828 1.0487,-0.29273 2.3301,0.54687 1.2814,0.83961 2.5648,1.29263 2.8515,1.00586 0.6896,-0.68961 5.0611,1.6138 7.2872,3.83985 0.973,0.97306 2.0459,1.49309 2.3847,1.15429 1.5581,-1.5581 -10.3664,-8.38375 -14.8535,-8.50195 -1.375,-0.0362 -4.1713,-0.66306 -6.2148,-1.39258 -2.7695,-0.98869 -4.8063,-1.0684 -8,-0.3164 -5.2966,1.24715 -12.0106,3.80879 -9.2852,3.54297 1.1,-0.10729 3.0574,0.16086 4.3496,0.5957 1.2923,0.43485 3.3173,0.91503 4.5,1.06836 7.1808,0.93089 22.3564,6.45542 19.9434,7.25976 -0.5801,0.19335 -5.9205,-1.24247 -11.8692,-3.1914 -11.6623,-3.82083 -13.4238,-4.14066 -13.4238,-2.4375 0,3.51052 14.0256,10.15069 21.7441,10.29492 5.6739,0.10603 6.2543,0.49407 3.4082,2.27148 -1.4211,0.88747 -4.2023,0.76663 -12.0625,-0.51953 -8.5738,-1.4029 -10.5394,-2.07146 -12.2207,-4.16211 -1.7269,-2.14748 -1.8561,-2.18829 -0.9296,-0.29297 0.5912,1.20929 1.9702,2.82481 3.0625,3.58985 1.0922,0.76504 1.748,1.62688 1.4589,1.91601 -1.008,1.00799 5.1046,2.84561 10.2168,3.07032 5.5464,0.24379 6.0045,0.65955 4.0879,3.72851 -1.5536,2.4877 -1.6317,2.48128 -14.2031,-1.17969 -6.7716,-1.97201 -20.0877,-8.08502 -30.0039,-13.77343 -4.7246,-2.71026 -5.0027,-3.112 -6.3398,-9.19141 -1.73,-7.86652 -2.2014,-22.08587 -0.7657,-23.09375 0.7221,-0.50711 0.7137,-0.7394 -0.025,-0.75 -0.7338,-0.0105 -0.8184,-2.10277 -0.2714,-6.646484 0.8492,-7.0538 0.58,-8.36914 -1.7149,-8.36914 -0.7926,0 -1.3873,-0.3375 -1.3223,-0.75 0.065,-0.4125 0.065,-1.621832 0,-2.689454 -0.1149,-1.88369 -0.159,-1.887106 -1.4804,-0.08008 -1.4232,1.94645 -1.1141,5.048534 0.7383,7.402344 0.8832,1.12222 1.2231,0.93382 1.8066,-1 l 0.7187,-2.382812 -0.2011,2.490234 c -0.1191,1.47126 -0.9161,2.627309 -1.9492,2.824219 -2.2116,0.42151 -4.5621,-1.861636 -3.9356,-3.822266 0.3588,-1.1229 -0.032,-1.041289 -1.5801,0.332031 -1.1309,1.00297 -2.3355,2.934006 -2.6757,4.291016 -0.3406,1.35702 -1.0541,2.197841 -1.586,1.869141 -1.2549,-0.77561 1.0355,-5.212108 4.7363,-9.173829 2.5929,-2.775717 2.735,-3.294351 1.6114,-5.925781 -0.7757,-1.81673 -1.2494,-8.200909 -1.2774,-17.255859 -0.04,-12.66525 0.1333,-14.225926 1.4551,-13.128906 0.8367,0.69443 1.5,0.803923 1.5,0.246093 0,-0.55 -0.6972,-1.578436 -1.5488,-2.285156 -2.3881,-1.98201 -1.4162,-5.40512 1.6347,-5.759765 0.2254,-0.02619 0.4403,-0.0446 0.6465,-0.05273 z m 83.7676,0.851563 c 0.825,0 1.5,0.45 1.5,1 0,0.55 -0.675,1 -1.5,1 -0.825,0 -1.5,-0.45 -1.5,-1 0,-0.55 0.675,-1 1.5,-1 z m 5.0117,1.125 c 0.8166,0.0027 1.985,0.07135 3.4883,0.222656 3.025,0.30447 6.85,0.666527 8.5,0.804687 2.754,0.23061 4.4454,1.36302 4.4844,3 0.01,0.35807 -1.5594,0.605382 -3.4844,0.550782 -1.925,-0.05456 -3.5,-0.410819 -3.5,-0.792969 0,-0.92105 -2.5182,-1.845987 -6.9141,-2.53711 -4.3107,-0.677697 -5.0239,-1.256293 -2.5742,-1.248046 z m 31.9492,3.875 c 0.8466,0 1.5391,0.675 1.5391,1.5 0,1.82371 -0.15,1.8214 -1.7891,-0.03711 -1.0654,-1.2079 -1.0219,-1.46289 0.25,-1.46289 z m -73.5195,3 c -1.1401,0 -1.7794,0.454858 -1.4316,1.017578 0.3454,0.55899 1.0162,0.775362 1.4902,0.482422 0.474,-0.29294 1.1447,-0.0746 1.4902,0.484375 0.3454,0.55897 1.3883,0.96419 2.3184,0.90039 1.5245,-0.10458 1.5195,-0.161915 -0.059,-0.574219 -0.9625,-0.251519 -1.75,-0.873142 -1.75,-1.382812 0,-0.50968 -0.9262,-0.927734 -2.0586,-0.927734 z m 91.8887,1.107422 c 0.078,0.03539 -0.039,0.521076 -0.2988,1.482421 -0.4089,1.51445 0.042,2.360949 1.6406,3.074219 1.2135,0.54133 1.7842,1.231763 1.2676,1.533203 -0.5166,0.30145 -1.7694,-0.259143 -2.7832,-1.246093 -1.4764,-1.437422 -1.6151,-2.159017 -0.7012,-3.623047 0.5248,-0.84076 0.7971,-1.256093 0.875,-1.220703 z m -79.9141,0.01758 c -0.3474,-0.0143 -0.7425,0.04892 -1.1035,0.193359 -0.7977,0.31922 -0.5615,0.555516 0.6035,0.603516 1.0541,0.04342 1.6447,-0.193101 1.3125,-0.525391 -0.1661,-0.166125 -0.4651,-0.257182 -0.8125,-0.271484 z m -60.8926,0.234375 c -0.8735,0.01985 -0.9426,0.736023 -0.455,2.970703 0.8815,4.04014 2.2839,7.550382 2.3672,5.919922 0.035,-0.6875 0.5675,-1.25 1.1816,-1.25 1.0804,0 0.8934,1.595718 -0.6152,5.261718 -0.551,1.33898 -0.3484,1.617154 0.8476,1.158204 2.2046,-0.84598 2.7357,-3.280336 1.6973,-7.791016 -0.9754,-4.23748 -2.1906,-5.884711 -4.5996,-6.238281 -0.1583,-0.02323 -0.2991,-0.03409 -0.4239,-0.03125 z m 65.045,0.699218 c -0.8627,0.03225 2.4816,1.233289 7.4316,2.667969 4.95,1.43467 9.1125,2.870836 9.25,3.191406 0.1375,0.32057 1.3183,0.582032 2.623,0.582032 1.5553,0 2.1974,-0.455013 1.8653,-1.320313 -0.3927,-1.02352 0.3662,-1.162379 3.3769,-0.619141 2.1362,0.38547 4.4064,1.114151 5.045,1.619141 0.7118,0.56302 1.3942,0.54115 1.7636,-0.05664 0.3829,-0.619438 1.7799,-0.637376 3.8321,-0.04883 1.7764,0.50948 4.5846,0.8757 6.2382,0.8125 2.9336,-0.11221 2.9189,-0.132933 -0.5293,-0.808593 -1.9437,-0.38085 -3.9687,-0.961233 -4.5,-1.289063 -1.7991,-1.11007 -19.0898,-1.937657 -17.4648,-0.835937 1.7236,1.16865 0.583,1.309484 -2.9473,0.365234 -2.2864,-0.61155 -2.3191,-0.70807 -0.5,-1.5 1.4565,-0.63407 1.2467,-0.711337 -0.8379,-0.304687 -1.5323,0.29889 -5.1016,-0.143935 -7.9316,-0.984376 -2.8301,-0.84044 -5.8521,-1.502903 -6.7148,-1.470703 z m -9.5743,1.267579 c -0.1075,0.007 -0.1826,0.03028 -0.2207,0.06836 -0.184,0.18398 2.0412,1.243982 4.9454,2.357422 2.9043,1.11343 5.3937,2.075218 5.5312,2.136719 0.1375,0.06149 0.25,-0.252246 0.25,-0.697266 0,-0.773391 -8.8924,-3.970672 -10.5059,-3.865234 z m -24.4746,0.289062 c -2.0091,0.07614 -3.9698,0.655525 -3.5058,1.40625 0.2694,0.43582 -0.3617,0.570458 -1.4004,0.298828 -1.0387,-0.27162 -2.2322,0.0624 -2.6524,0.742188 -0.5882,0.95177 0.4244,1.078731 4.4043,0.550781 4.2065,-0.55802 5.2819,-0.392428 5.7735,0.888672 0.5848,1.52399 7.2576,4.93567 8.0683,4.125 0.2205,-0.22049 3.1358,0.923727 6.4786,2.542969 3.3421,1.61923 6.6949,2.706668 7.4472,2.417968 0.7523,-0.28869 1.3672,-0.05806 1.3672,0.511719 0,1.55979 6.1566,0.629791 8.9727,-1.355469 l 2.4726,-1.74414 -2.7812,0 c -1.6662,0 -2.5247,0.415809 -2.1407,1.037109 0.3525,0.57046 -1.3783,-0.38579 -3.8457,-2.125 -2.4675,-1.7392 -5.6468,-3.162109 -7.0644,-3.162109 -1.4177,0 -2.3628,-0.345003 -2.1016,-0.767578 0.5321,-0.860873 -4.4631,-2.362981 -5.248,-1.578126 -0.2755,0.275582 -1.1563,-0.152361 -1.9551,-0.951171 -0.7988,-0.79881 -2.7984,-1.453125 -4.4453,-1.453125 -1.6469,0 -3.7573,-0.40736 -4.6895,-0.90625 -0.7253,-0.388159 -1.9488,-0.524197 -3.1543,-0.478516 z m 116.0625,1.384766 c 0.567,0 0.2325,1.35 -0.7422,3 -0.9747,1.65 -2.1365,3 -2.582,3 -0.4455,0 -0.1111,-1.35 0.7422,-3 0.8532,-1.65 2.015,-3 2.582,-3 z m 60.5625,2.535156 c 0.2088,-0.02215 0.316,0.177751 0.3243,0.59375 0.017,0.89515 -0.6438,2.186404 -1.4688,2.871094 -0.825,0.68469 -1.5009,1.752897 -1.502,2.373046 0,0.62016 -1.2534,2.589454 -2.7812,4.376954 -1.5278,1.7875 -3.1022,3.25 -3.498,3.25 -1.6002,0 -0.558,-2.872913 2.0312,-5.601563 1.5126,-1.59407 3.7488,-4.248437 4.9688,-5.898437 0.9448,-1.277975 1.5777,-1.927931 1.9257,-1.964844 z m -186.332,0.5625 c -0.073,-0.01302 -0.11,0.495778 -0.1758,1.517578 -0.075,1.16333 0.7956,3.30083 1.9356,4.75 1.1399,1.44917 2.7488,2.634766 3.5761,2.634766 0.9423,0 0.3788,-0.945694 -1.5078,-2.533204 -1.6564,-1.393777 -3.2035,-3.531278 -3.4394,-4.75 -0.2072,-1.070458 -0.3157,-1.606123 -0.3887,-1.61914 z m 89.9375,0.917969 c -1.4956,0.01309 -1.5319,0.155945 -0.25,0.984375 1.8872,1.21961 2,1.21961 2,0 0,-0.55 -0.7875,-0.992375 -1.75,-0.984375 z m -65.25,0.259765 c 1.1,-0.08286 2,0.245156 2,0.728516 0,1.22359 -1.2645,1.812167 -2.75,1.279297 -1.9161,-0.68731 -1.4859,-1.839383 0.75,-2.007813 z m 86.2813,0.34961 c 0.1164,-0.002 0.2473,0.02632 0.3925,0.08203 0.7291,0.27978 1.3206,0.796729 1.3106,1.150391 -0.02,0.860489 -1.9272,3.779338 -2.0528,3.142578 -0.5776,-2.927969 -0.4656,-4.360997 0.3497,-4.375 z m -135.918,0.722656 c 0.091,0.01377 0.2006,0.165695 0.3203,0.464844 0.2888,0.72187 0.252,1.585678 -0.08,1.917968 -0.3323,0.33229 -0.5684,-0.25834 -0.5254,-1.3125 0.03,-0.728093 0.1336,-1.093263 0.2852,-1.070312 z m -7.1348,0.660156 c 0.4008,-0.0043 0.2164,1.117188 -0.4101,2.492188 -0.6265,1.375 -1.4749,2.5 -1.8848,2.5 -0.41,0 -0.2256,-1.121478 0.4102,-2.492188 0.6357,-1.37071 1.484,-2.496 1.8847,-2.5 z m 96.4063,0.589844 c -0.051,-0.028 -0.1532,0.09703 -0.293,0.378906 -0.2796,0.56375 -1.1205,1.023438 -1.8672,1.023438 -0.7467,0 -1.6314,0.445691 -1.9668,0.988281 -0.3869,0.62602 0.2133,0.682287 1.6406,0.154297 1.2371,-0.45761 2.3505,-1.362999 2.4746,-2.011719 0.063,-0.324365 0.063,-0.505201 0.012,-0.533203 z m -11.2188,0.857422 c -0.077,-0.01549 -0.1747,-0.01568 -0.293,0.002 -0.1568,0.02345 -0.3497,0.07674 -0.5722,0.162109 -0.8535,0.32755 -1.5508,0.772121 -1.5508,0.988282 0,0.80991 1.9049,0.354506 2.4922,-0.595704 0.197,-0.318858 0.1554,-0.51017 -0.076,-0.55664 z m 36.1133,0.183594 c -0.8965,-0.04016 -1.5293,0.1447 -1.5293,0.5 0,0.47373 1.125,0.861328 2.5,0.861328 1.375,0 2.5,-0.171933 2.5,-0.382813 0,-0.21089 -1.125,-0.598478 -2.5,-0.861328 -0.3437,-0.06571 -0.6719,-0.103803 -0.9707,-0.117187 z m -116.2285,1.84375 c 0.3596,0.06077 0.1585,0.771884 -0.4473,2.509765 -1.2063,3.46039 -2.3595,3.911476 -2.5781,1.009766 -0.083,-1.09899 0.6994,-2.451833 1.7383,-3.007813 0.6545,-0.350302 1.0713,-0.548181 1.2871,-0.511718 z m 38.5722,0.693359 c -1.2536,-0.01688 -1.9526,0.05592 -1.7929,0.220703 0.3193,0.32956 1.7818,0.698802 3.25,0.820312 4.0183,0.332572 3.2081,1.783204 -0.9961,1.783204 -4.7728,0 -3.5254,1.263677 1.3808,1.398437 2.8435,0.0781 3.8441,0.562467 4.1211,1.998047 0.3737,1.93609 0.4235,1.937224 -4.7597,-0.166016 -0.8519,-0.34568 -0.6511,0.23176 0.5,1.4375 1.058,1.10824 2.1488,1.90977 2.4238,1.78125 0.275,-0.12851 2.3,0.117412 4.5,0.544922 5.7588,1.11907 5.8856,1.116565 9.4023,-0.109375 7.2594,-2.53065 -0.6099,-8.261714 -12.9023,-9.396484 -2.0625,-0.190375 -3.8728,-0.295623 -5.127,-0.3125 z m 73.045,1.201172 c -4.0542,0.128134 -11.0309,1.629669 -14.168,3.455078 -3.9969,2.32566 -3.372,3.484423 1.5,2.783203 2.3375,-0.33644 4.9142,-0.185222 5.7266,0.335938 1.0082,0.646737 1.9954,0.480969 3.1074,-0.525391 2.2602,-2.04547 12.3223,-1.949468 14.5508,0.138672 0.6238,0.58451 2.7884,0.868882 4.8105,0.632812 l 3.6758,-0.429687 -3.6523,-2.482422 c -2.3002,-1.56305 -4.5447,-2.311264 -6.0606,-2.021484 -1.3241,0.253118 -2.4082,0.04204 -2.4082,-0.46875 0,-0.510791 -0.9,-0.644052 -2,-0.294922 -1.1,0.34913 -2,0.193423 -2,-0.347657 0,-0.608184 -1.2392,-0.833633 -3.082,-0.77539 z m -116.8399,0.109375 c 0.3632,-0.06732 0.4628,0.550507 0.211,1.513672 -0.6106,2.33499 -1.2891,2.630296 -1.2891,0.560546 0,-0.79254 0.4076,-1.693733 0.9063,-2.001953 0.062,-0.03853 0.1199,-0.06265 0.1718,-0.07227 z m 144.8965,0.07813 c 0.5862,-0.377972 4.0254,7.28765 4.0254,9.189453 0,0.84374 -3.1853,4.619435 -7.0781,8.390625 -3.8928,3.7712 -7.3155,6.855469 -7.6074,6.855469 -0.8817,0 0.691,-5.23248 2.9316,-9.75 1.1593,-2.3375 2.4478,-4.25 2.8633,-4.25 0.7766,0 1.9237,-2.805819 1.7929,-4.386719 -0.04,-0.4885 0.5273,-1.260914 1.2618,-1.714844 0.7345,-0.45393 1.3919,-1.291258 1.4609,-1.861328 0.069,-0.57006 0.1905,-1.599609 0.2715,-2.287109 0.012,-0.100788 0.039,-0.160349 0.078,-0.185547 z m -134.1035,0.445312 c -0.1092,0.01382 -0.2158,0.0649 -0.3145,0.15625 -0.7367,0.68169 0.8528,4.286202 2.8164,6.388672 0.8406,0.89966 1.3743,0.807145 2.25,-0.390625 1.5697,-2.146 -0.3484,-6.636291 -2.1835,-5.113281 -0.8788,0.72936 -1.3803,0.653417 -1.7051,-0.257813 -0.1899,-0.532867 -0.5358,-0.824653 -0.8633,-0.783203 z m 42.1289,0.107422 c 0.8156,0 1.6313,0.05855 2.25,0.177735 1.2375,0.238348 0.225,0.433593 -2.25,0.433593 -2.475,0 -3.4875,-0.195246 -2.25,-0.433593 0.6188,-0.119181 1.4344,-0.177735 2.25,-0.177735 z m -47,0.882813 c 0.55,0 1,1.35 1,3 0,1.65 -0.45,3 -1,3 -0.55,0 -1,-1.35 -1,-3 0,-1.65 0.45,-3 1,-3 z m 17.5606,0 c -0.2808,0 -1.1677,1.275361 -1.9727,2.832031 -1.4937,2.8885 -1.7617,11.167969 -0.3613,11.167969 0.4252,0 0.7734,1.335461 0.7734,2.966796 0,3.197441 2.8518,10.033204 4.1856,10.033204 0.4476,0 0.8144,0.900007 0.8144,2.000007 0,2.52105 0.4902,2.50985 3.0762,-0.0762 1.1425,-1.14252 2.7417,-1.822948 3.5527,-1.511718 0.8287,0.318098 1.2068,0.133835 0.8633,-0.421875 -0.6336,-1.02522 -0.4949,-1.088762 3.2891,-1.482422 2.6609,-0.27681 3.7249,-1.075943 2.4667,-1.853516 -0.4864,-0.300769 -3.2925,0.569734 -6.2363,1.933594 -5.8646,2.717117 -5.5329,2.853637 -9.0254,-3.75 -2.129,-4.02556 -3.2953,-17.09206 -1.7929,-20.08789 0.4826,-0.9625 0.6472,-1.75 0.3672,-1.75 z m 73.2441,1.55664 c -2.0322,-0.15259 -7.4813,2.110386 -8.8047,3.873047 -2.6164,3.4848 -4.846,10.898193 -4.832,16.070313 l 0.014,5 1.4297,-5.259766 c 1.3774,-5.06908 2.5932,-6.667147 10.2832,-13.498047 2.9216,-2.59528 3.819,-4.694754 2.5489,-5.964844 -0.1289,-0.128888 -0.3484,-0.198904 -0.6387,-0.220703 z m -36.1387,2.47461 c 0.1209,-0.0066 0.2418,-0.0026 0.3613,0.01172 0.5736,0.06851 1.1159,0.379633 1.4727,0.957032 0.3399,0.55 0.1781,1 -0.3594,1 -0.5375,0 -1.694,0.275088 -2.5703,0.611328 -1.166,0.44745 -1.4271,0.17937 -0.9746,-1 0.377,-0.982566 1.224,-1.534103 2.0703,-1.580078 z m 11.461,1.335937 c -1.6533,0.002 -4.127,1.701928 -4.127,3.0625 0,0.9026 1.2974,0.612492 4,-0.892578 2.1726,-1.20994 2.2739,-1.478767 0.7754,-2.060547 -0.1931,-0.07496 -0.4123,-0.109655 -0.6484,-0.109375 z m -63.9747,2.132813 -0.4824,2.251953 c -0.2655,1.23826 -0.073,1.99812 0.4297,1.6875 1.5699,-0.97027 2.228,2.592475 0.7129,3.859375 -0.7906,0.66108 -3.1711,3.788672 -5.291,6.951172 -2.1198,3.1625 -3.9747,5.750007 -4.1211,5.750007 -0.1464,0 1.2721,-3.000316 3.1504,-6.667976 2.3762,-4.64005 3.1103,-7.034624 2.416,-7.871094 -0.694,-0.83632 -0.3613,-1.924778 1.0938,-3.580078 l 2.0917,-2.380859 z m 126.625,0.800781 c -0.1924,0.01602 -0.5095,0.353056 -0.8613,0.957031 -0.5627,0.96637 -2.8002,2.662221 -4.9707,3.769531 -3.7195,1.89752 -5.0511,4.534891 -3.2168,6.369141 0.401,0.40104 0.9086,0.192459 1.127,-0.462891 0.2185,-0.65535 2.141,-2.9863 4.2715,-5.18164 2.1305,-2.19534 3.8588,-4.499914 3.8418,-5.121094 -0.01,-0.232943 -0.076,-0.339691 -0.1915,-0.330078 z m -27.0253,0.927734 c -0.5135,-0.0314 -0.6162,0.18441 -0.3282,0.650391 0.4569,0.73927 -0.2702,0.902619 -2.2539,0.505859 -1.9276,-0.3855 -3.8387,0.0081 -5.582,1.150391 -2.912,1.90779 -2.8533,3.191304 0.076,1.68164 2.284,-1.1769 4.3359,-0.515212 4.3359,1.398438 0,0.79643 0.675,1.706853 1.5,2.023438 0.825,0.31659 1.5,1.427585 1.5,2.46875 0,2.074549 2.5787,2.373606 7,0.810546 1.9897,-0.70344 1.6325,-0.805183 -1.75,-0.496093 -2.3375,0.2136 -4.25,-0.01796 -4.25,-0.515625 0,-0.49766 0.9,-0.90625 2,-0.90625 1.1,0 2,-0.45 2,-1 0,-1.47164 3.207,-1.156817 5.4414,0.533203 2.1608,1.63435 4.5586,1.941134 4.5586,0.583984 0,-0.48585 -0.9935,-1.143597 -2.207,-1.460937 -1.2135,-0.31733 -1.8915,-0.889728 -1.5078,-1.273438 1.2595,-1.25951 -1.3112,-3.187037 -3.4903,-2.617187 -1.6046,0.41972 -1.9902,0.18731 -1.5586,-0.9375 0.3154,-0.82174 0.053,-1.498907 -0.582,-1.503907 -0.6351,-0.0052 -2.2229,-0.353057 -3.5293,-0.773437 -0.608,-0.195675 -1.065,-0.303429 -1.373,-0.322266 z m -46.1309,0.585938 c -2.0265,0.0443 -6.6211,1.554059 -6.6211,2.43164 0,1.0305 1.1435,0.950137 4.8496,-0.341797 1.7314,-0.603577 2.9368,-1.442178 2.6777,-1.861328 -0.1059,-0.171512 -0.4385,-0.238738 -0.9062,-0.228515 z m -72.5371,2.695312 0,0 c 0.5327,-0.02211 0.8939,0.263993 0.8789,0.771485 -0.019,0.67024 -0.6768,2.34375 -1.4628,3.71875 l -1.4297,2.5 -0.035,-3.142578 c -0.021,-1.896971 0.5596,-3.371342 1.4649,-3.71875 0.2078,-0.07976 0.4044,-0.121065 0.582,-0.128907 z m 110.5117,2.513672 c -0.6023,0.01223 0.029,0.901023 1.4043,1.976563 3.221,2.51955 3.7801,2.51955 1.5,0 -0.9955,-1.1 -2.302,-1.988763 -2.9043,-1.976563 z m 45.5039,0.476563 -1.5762,3.25 c -1.55,3.19805 -2.5234,4.109518 -2.5234,2.361328 0,-0.48906 0.9216,-1.95156 2.0488,-3.25 l 2.0508,-2.361328 z m 10.7207,2.675781 c 0.1188,-0.0047 0.2185,0.0038 0.2949,0.0293 0.6114,0.2038 -1.5737,2.029117 -4.8554,4.054687 -6.5754,4.05862 -11.5013,8.717119 -5.5098,5.210938 1.7875,-1.04604 3.25,-2.328483 3.25,-2.851563 0,-0.52309 0.272,-0.679253 0.6055,-0.345703 0.3336,0.33354 1.5442,-0.265151 2.6894,-1.332031 2.236,-2.08315 3.7051,-2.493776 3.7051,-1.035156 0,0.49773 -3.5271,2.97273 -7.8379,5.5 -4.3108,2.527264 -8.0873,4.593754 -8.3926,4.593754 -0.5714,0 -1.7809,-2.64129 -1.7539,-3.83008 0.01,-0.36751 0.3984,-0.064 0.8672,0.67578 0.6299,0.99377 1.0227,0.66732 1.5039,-1.250001 0.3582,-1.42726 1.057,-2.595703 1.5528,-2.595703 0.4958,0 1.1976,-1.344592 1.5585,-2.988282 0.7062,-3.21298 2.502,-5.100386 2.502,-2.628906 0,2.61489 1.9263,2.826159 5.5195,0.605469 1.6765,-1.036131 3.4692,-1.779305 4.3008,-1.8125 z m -57.6191,0.384765 c -0.2815,0.07035 -0.2553,0.542942 0.2578,1.373047 0.3625,0.58659 1.0995,1.066407 1.6387,1.066407 0.5393,0 0.4006,-0.628908 -0.3086,-1.398438 -0.7178,-0.77891 -1.3065,-1.111367 -1.5879,-1.041016 z M 1223.625,93.4375 c -0.5099,0 -1.5922,0.294106 -2.9668,0.884766 -1.3188,0.56668 -1.4891,0.879815 -0.5,0.916015 0.825,0.03024 2.175,-0.382855 3,-0.916015 0.914,-0.59066 0.9767,-0.884766 0.4668,-0.884766 z m 92.7676,0.574219 c 0.4326,-0.01347 0.8768,0.281096 1.4277,0.832031 0.8051,0.80545 1.1889,1.911221 0.8516,2.457031 -0.8184,1.32422 -5.5335,0.891207 -4.7852,-0.439453 1.0975,-1.951687 1.7848,-2.827162 2.5059,-2.849609 z m 7.8242,0.310547 c -0.5175,0 -1.2187,0.45 -1.5586,1 -0.3399,0.55 0.084,1 0.9414,1 0.8574,0 1.5586,-0.45 1.5586,-1 0,-0.55 -0.4239,-1 -0.9414,-1 z m -98.5586,3.333984 c -0.7766,0 -1.1798,0.375644 -0.8965,0.833984 0.2833,0.45833 0.6864,0.832032 0.8965,0.832032 0.2101,0 0.6132,-0.373692 0.8965,-0.832032 0.2832,-0.45834 -0.1199,-0.833984 -0.8965,-0.833984 z m -3.9629,0.927734 c -0.764,0.07044 -1.8107,0.460136 -3.4453,1.197266 -2.1859,0.98567 -4.2366,2.47472 -4.5566,3.30859 -0.4549,1.18552 -0.2841,1.26858 0.7832,0.38282 0.7507,-0.62302 1.6615,-0.8365 2.0234,-0.47461 0.3619,0.3619 0.6582,0.20573 0.6582,-0.34766 0,-1.40677 4.8988,-3.493209 6.3242,-2.693359 0.8309,0.466419 0.8197,0.274809 -0.041,-0.654297 -0.5005,-0.54027 -0.9821,-0.789187 -1.7461,-0.71875 z m 85.8047,0.878907 c 0.091,0.0051 0.1561,0.02528 0.1934,0.0625 0.2316,0.23155 -1.5937,1.399109 -4.0567,2.595699 -2.4629,1.19658 -4.4671,1.84481 -4.4531,1.43946 0.029,-0.83699 6.9595,-4.174449 8.3164,-4.097659 z m -59.0723,0.419921 c -0.1484,-0.0097 -0.3148,-0.007 -0.4941,0.0098 -0.2391,0.02241 -0.5004,0.06873 -0.7754,0.140618 -1.1,0.28766 -2,0.87814 -2,1.3125 0,0.43436 0.9,0.55524 2,0.26758 1.1,-0.28766 2,-0.87814 2,-1.3125 0,-0.24432 -0.2852,-0.388959 -0.7305,-0.417964 z m -67.8554,0.199218 c 0.2272,0.0493 0.2442,0.74829 0.1914,2.24414 -0.1227,3.45777 -0.051,3.36981 -1.4004,1.74414 -0.7294,-0.87891 -0.659,-1.77232 0.2344,-2.99414 0.4949,-0.67719 0.7978,-1.03252 0.9746,-0.99414 z m 167.164,0.36524 c 0.3707,-0.008 0.4219,0.2912 0.4219,0.80078 0,0.50879 -1.9125,2.04159 -4.25,3.40625 -8.618,5.03131 -20.1734,10.70873 -17.75,8.7207 4.2908,-3.51999 4.4803,-3.65941 5.2598,-3.8418 0.4183,-0.0979 1.7683,-0.78008 3,-1.51562 1.2316,-0.73554 4.6326,-2.76729 7.5566,-4.51563 3.6381,-2.17523 5.1439,-3.04182 5.7617,-3.05468 z m -172.3301,0.68359 c 0.1654,0.0694 -0.4211,1.23413 -1.5468,3.36133 l -2.4707,4.66992 2.3261,-0.24805 c 1.279,-0.13636 3.1398,-0.87997 4.1348,-1.65234 1.5027,-1.16639 1.4697,-0.984 -0.1914,1.07812 -1.1,1.36552 -2.45,2.81467 -3,3.21875 -2.9777,2.18767 -6.4439,-2.06313 -4.0547,-4.97265 3.138,-3.82148 4.5906,-5.54434 4.8027,-5.45508 z m 202.42,0.19141 c 0.2833,0 -1.1368,3.00578 -3.1563,6.67968 -4.6054,8.3785 -12.3552,18.53616 -13.5703,17.78516 -0.505,-0.3121 -0.6805,0.0541 -0.3887,0.81445 0.5047,1.31534 -15.7523,17.72071 -17.5605,17.72071 -0.4394,0 -2.4228,1.4373 -4.4063,3.19335 -1.9835,1.75606 -4.3441,3.30122 -5.2461,3.4336 -0.9019,0.13238 -1.9101,0.64539 -2.2402,1.13867 -0.3301,0.49328 -3.8631,2.54813 -7.8516,4.56641 -3.9882,2.01829 -7.6287,3.66797 -8.0898,3.66797 -0.4611,0 -1.3345,-1.08976 -1.9414,-2.42188 -1.0014,-2.19769 -0.8288,-2.51732 1.8613,-3.45508 5.9905,-2.08832 16.2529,-11.17841 20.9219,-18.5332 2.475,-3.89872 4.4402,-7.63485 4.3672,-8.30078 -0.073,-0.66594 0.315,-1.11594 0.8613,-1 0.5463,0.11593 2.3324,-3.95156 3.9688,-9.03906 1.6364,-5.0875 3.4121,-9.25 3.9472,-9.25 0.535,0 0.7031,0.43683 0.3731,0.9707 -1.0166,1.64495 3.9796,2.24122 8.5976,1.02539 2.4114,-0.63487 7.6812,-2.918 11.711,-5.07422 4.0297,-2.15622 7.5586,-3.92187 7.8418,-3.92187 z m -210.3047,1.34765 c 0.091,0.0138 0.2006,0.1657 0.3203,0.46485 0.2888,0.72187 0.252,1.58567 -0.08,1.91796 -0.3323,0.33229 -0.5684,-0.25834 -0.5254,-1.3125 0.03,-0.72809 0.1336,-1.09326 0.2852,-1.07031 z m 42.3281,0.66797 c -0.7156,0.009 -0.5927,0.40192 0.3086,0.98438 1.9211,1.24153 2.2673,1.24153 1.5,0 -0.3399,-0.55 -1.1536,-0.99238 -1.8086,-0.98438 z m 20.2109,0.7832 c -0.4448,-0.13334 -2.3664,1.02199 -4.6523,2.83399 -7.2197,5.72283 -10.2537,8.63287 -10.2187,9.80469 0.018,0.5846 0.6146,0.29773 1.3261,-0.63868 0.7116,-0.93641 4.0729,-3.74809 7.4688,-6.24804 3.396,-2.49995 6.1738,-5.02728 6.1738,-5.61524 0,-0.0735 -0.034,-0.11767 -0.098,-0.13672 z m 85.3672,0.10547 -0.6347,3.17383 c -0.349,1.74523 -0.6348,3.79025 -0.6348,4.54492 0,0.75466 -1.5808,3.12221 -3.5137,5.26172 -3.8935,4.30965 -7.0523,5.68839 -7.9101,3.45313 -0.3042,-0.79278 -0.1722,-1.2054 0.2929,-0.91797 1.0706,0.66166 5.98,-8.40749 5.6407,-10.41992 -0.1439,-0.85348 1.2567,-2.27376 3.2519,-3.29688 l 3.5078,-1.79883 z m -78.2695,0.0957 c -0.55,0 -1,1.125 -1,2.5 0,1.375 0.45,2.5 1,2.5 0.55,0 1,-1.125 1,-2.5 0,-1.375 -0.45,-2.5 -1,-2.5 z m 72,0 c 0.55,0 1,0.45 1,1 0,0.55 -0.45,1 -1,1 -0.55,0 -1,-0.45 -1,-1 0,-0.55 0.45,-1 1,-1 z m -46.3379,0.041 c -0.3937,0.0778 -0.6621,0.72441 -0.6621,2.01953 0,1.13246 0.4437,1.78456 0.9863,1.44922 0.6273,-0.38769 0.6823,0.22653 0.1504,1.68945 -1.0406,2.86169 -6.6651,6.80079 -9.7109,6.80079 -2.433,0 -3.5504,2.42732 -2.3008,5 0.4007,0.825 0.9716,2.2875 1.2695,3.25 0.6865,2.21821 5.3387,2.32554 8.3828,0.19335 1.538,-1.07724 2.2227,-2.57889 2.2227,-4.87695 0,-1.82647 0.675,-3.88171 1.5,-4.5664 1.7741,-1.47236 1.8245,-2.291 0.4473,-7.25 -0.6287,-2.26372 -1.4825,-3.58524 -2.1094,-3.70704 -0.061,-0.0118 -0.1195,-0.013 -0.1758,-0.002 z m -55.1621,0.0312 c -0.55,0 -2.125,0.64172 -3.5,1.42774 -1.375,0.78602 -2.05,1.42968 -1.5,1.42968 0.55,0 2.125,-0.64366 3.5,-1.42968 1.375,-0.78602 2.05,-1.42774 1.5,-1.42774 z m 111.1543,1.06641 c 0.8283,-0.0532 1.2665,0.33345 1.1211,1.0332 -0.1519,0.73059 0.2573,1.22542 0.9102,1.09961 0.652,-0.12581 1.1267,0.54919 1.0527,1.5 -0.095,1.22342 -1.1029,1.78277 -3.4512,1.91016 -2.3312,0.12646 -3.0995,-0.17099 -2.5801,-1 0.4066,-0.64901 0.7517,-1.84807 0.7657,-2.66407 0.014,-0.81601 0.8258,-1.63852 1.8027,-1.82812 0.1337,-0.0259 0.2606,-0.0432 0.3789,-0.0508 z m -32.7734,1.75195 c -0.5804,0.0446 -1.5355,0.37564 -3.0371,1.00586 -2.1028,0.88251 -3.824,1.95424 -3.834,2.38086 -0.01,0.42662 1.3533,0.0706 3.0195,-0.79102 1.6661,-0.8616 3.3918,-1.34359 3.834,-1.07031 0.4422,0.27329 0.8027,-0.0936 0.8027,-0.81445 0,-0.51475 -0.2047,-0.75557 -0.7851,-0.71094 z m -85.67,0.18359 c -0.3886,-0.0114 -0.9697,0.29017 -1.4785,0.80274 -0.9802,0.98762 -0.8646,1.10127 0.5606,0.55859 0.9862,-0.37553 1.5403,-0.93424 1.2324,-1.24219 -0.077,-0.077 -0.1849,-0.11532 -0.3145,-0.11914 z m 99,0 c -0.3886,-0.0114 -0.9697,0.29017 -1.4785,0.80274 -0.9802,0.98762 -0.8646,1.10127 0.5606,0.55859 0.9862,-0.37553 1.5403,-0.93424 1.2324,-1.24219 -0.077,-0.077 -0.1849,-0.11532 -0.3145,-0.11914 z m -93.3613,0.21875 c -0.074,-0.0482 -0.6709,0.22774 -1.8496,0.78907 -1.375,0.65484 -2.6868,1.35418 -2.916,1.55468 -1.3723,1.20066 1.8816,0.0849 3.4746,-1.1914 0.9151,-0.73319 1.3649,-1.10418 1.291,-1.15235 z m 3.7012,0.70704 c -0.5759,0 -3.5508,5.54399 -3.5508,6.61718 0,1.04412 0.5422,0.28272 2.3984,-3.36718 0.9091,-1.7875 1.4274,-3.25 1.1524,-3.25 z m -18.625,0.22265 c 0.5386,-0.0322 0.6783,0.57573 0.3789,1.7207 -0.2959,1.13143 -0.9682,2.05665 -1.4941,2.05665 -1.3279,0 -0.577,-3.24379 0.8613,-3.72266 0.093,-0.031 0.1769,-0.0501 0.2539,-0.0547 z m 51.4297,0.96289 c -0.173,-0.002 -0.3441,0.008 -0.5078,0.0352 -2.1525,0.35336 -2.0343,0.54278 1.4023,2.26758 2.0625,1.03517 3.7851,2.36163 3.8281,2.94726 0.044,0.59404 0.2974,0.52741 0.5723,-0.15039 0.763,-1.88159 -2.6999,-5.06354 -5.2949,-5.09961 z m -44.1446,1.88867 c -0.3886,-0.0114 -0.9697,0.29017 -1.4785,0.80274 -0.9802,0.98762 -0.8646,1.10127 0.5606,0.55859 0.9862,-0.37553 1.5403,-0.93425 1.2324,-1.24219 -0.077,-0.077 -0.1849,-0.11532 -0.3145,-0.11914 z m 74.0274,0.0723 c -0.4083,-0.0396 0.2407,1.56263 1.9473,4.75977 1.2016,2.25197 2.8248,4.09375 3.6074,4.09375 1.0404,0 1.2522,0.73917 0.7851,2.75 -0.4739,2.04031 -0.3781,2.3629 0.375,1.25 0.8311,-1.22823 1.0183,-1.09234 1.0313,0.75 0.01,1.2375 0.4431,2.25 0.9668,2.25 0.5433,0 0.3704,-1.93226 -0.4024,-4.5 -1.1316,-3.76083 -1.1319,-4.5 -0.01,-4.5 0.7387,0 1.5617,-0.35223 1.8281,-0.78321 0.2663,-0.43099 -1.0717,-0.73107 -2.9727,-0.66797 -2.1904,0.0727 -3.1078,-0.23399 -2.5039,-0.83789 1.0628,-1.06284 0.3729,-3.71093 -0.9668,-3.71093 -0.4739,0 -0.6078,0.7875 -0.2988,1.75 0.3678,1.14595 -0.1537,0.88707 -1.5098,-0.75 -1.007,-1.21562 -1.6319,-1.82979 -1.8769,-1.85352 z m 24.2441,1.88672 c -0.5402,0.0175 -1.8562,0.6925 -2.9238,1.5 -1.0677,0.80751 -2.686,1.4668 -3.5957,1.4668 -0.9096,0 -2.502,0.93796 -3.5391,2.08398 l -1.8847,2.08398 2.9804,-1.29492 c 3.7458,-1.6268 10.2779,-5.88244 8.9629,-5.83984 z m -112.0019,5.3457 c 0.2505,0.0441 0.3272,0.52497 0.2558,1.47266 -0.1843,2.44655 -0.3509,2.58355 -1.291,1.0625 -0.3695,-0.59793 -0.1935,-1.56632 0.3906,-2.15039 0.281,-0.28098 0.4943,-0.41124 0.6446,-0.38477 z m 61.709,0.75586 c -0.4816,0.0568 -1.2509,0.54746 -1.9629,1.29297 -1.6502,1.72775 -1.6235,1.75445 0.6093,0.60938 1.2846,-0.65883 2.0618,-1.4734 1.7266,-1.8086 -0.084,-0.0838 -0.2125,-0.11273 -0.373,-0.0937 z m -64.5782,2.20899 c 0.1196,0.0201 0.2512,0.0713 0.3887,0.15625 0.55,0.33992 1,0.818 1,1.06054 0,0.24254 -0.45,0.43946 -1,0.43946 -0.55,0 -1,-0.47614 -1,-1.0586 0,-0.43684 0.2527,-0.65794 0.6113,-0.59765 z m 7.752,0.004 c 0.091,0.0138 0.2006,0.1657 0.3203,0.46485 0.2888,0.72187 0.252,1.58567 -0.08,1.91796 -0.3323,0.33229 -0.5684,-0.25834 -0.5254,-1.3125 0.03,-0.72809 0.1336,-1.09326 0.2852,-1.07031 z m -10.4219,0.65235 c 0.5824,0 1.0586,0.45 1.0586,1 0,0.55 -0.1989,1 -0.4414,1 -0.2425,0 -0.7187,-0.45 -1.0586,-1 -0.3399,-0.55 -0.1411,-1 0.4414,-1 z m 108.6172,2 c 0.858,0 1.2813,0.45 0.9414,1 -0.3399,0.55 -1.0411,1 -1.5586,1 -0.5176,0 -0.9414,-0.45 -0.9414,-1 0,-0.55 0.7011,-1 1.5586,-1 z m -133.334,0.0156 c 0.5069,0.0292 0.7754,0.2865 0.7754,0.7832 0,0.43921 1.8,2.67139 4,4.96094 3.8349,3.99105 4.9675,6.24024 3.1445,6.24024 -0.4699,0 -1.5264,2.11205 -2.3496,4.6914 -1.882,5.8967 -0.9661,10.45987 3.4102,16.9961 4.2329,6.32191 5.5404,7.58851 6.9414,6.72265 0.6774,-0.41865 0.8943,-0.28424 0.5195,0.32227 -0.9162,1.48242 19.5538,15.0929 22.8653,15.20312 0.273,0.009 2.5306,1.15255 5.0175,2.54102 2.487,1.38848 5.1809,2.52344 5.9864,2.52344 0.8055,0 1.4648,0.52629 1.4648,1.16796 0,0.64162 0.2631,0.9029 0.5859,0.58008 0.3229,-0.32282 2.8791,0.0921 5.6797,0.92383 2.8005,0.83168 6.023,1.68102 7.1621,1.88672 1.1391,0.2057 3.9606,0.89117 6.2696,1.52344 2.309,0.63227 5.7965,0.96243 7.75,0.73437 2.3243,-0.27136 3.5527,7.1e-4 3.5527,0.78516 0,0.65929 1.5023,3.4317 3.3398,6.16211 1.8374,2.73041 3.6185,5.68611 3.9571,6.56836 0.6692,1.74401 -0.8046,3.2745 -1.7227,1.78906 -0.4746,-0.76798 -5.9239,-1.9735 -21.5742,-4.77539 -5.6164,-1.00552 -14.8544,-3.645 -20.5,-5.85742 -3.3,-1.29321 -6.9,-2.495 -8,-2.66993 -1.1,-0.1749 -2.3007,-0.73487 -2.668,-1.24414 -0.3672,-0.50928 -1.6399,-1.07454 -2.8281,-1.25586 -1.8317,-0.27952 -10.437,-5.47816 -12.0039,-7.25195 -1.0347,-1.17124 -6.9505,-5.06717 -7.709,-5.07617 -0.4348,-0.005 -2.7667,-1.58033 -5.1816,-3.5 -2.4149,-1.91966 -4.7774,-3.49023 -5.25,-3.49023 -0.4726,0 -0.8907,-0.7875 -0.9297,-1.75 -0.06,-1.49644 -0.1948,-1.46022 -0.9297,0.25 -0.8275,1.92566 -0.8617,1.91949 -0.9297,-0.19727 -0.076,-2.39155 -4.7216,-7.97211 -6.2656,-7.52734 -0.5246,0.15112 -0.6795,-0.16973 -0.3438,-0.71289 0.3357,-0.54317 -0.455,-2.69244 -1.7578,-4.77539 -3.3449,-5.34791 -4.3382,-8.97176 -4.1875,-15.28711 0.2234,-9.36724 1.1497,-11.58973 6.2246,-14.95118 3.1007,-2.05377 5.3693,-3.09735 6.4844,-3.0332 z m 34.834,0.98438 c 0.5828,0 0.8025,0.4174 0.4883,0.92578 -0.3142,0.50837 0.2222,1.12998 1.1914,1.38281 1.3411,0.34981 1.2239,0.48787 -0.4883,0.57617 -1.3849,0.0714 -2.25,-0.4615 -2.25,-1.38476 0,-0.825 0.4761,-1.5 1.0586,-1.5 z m 37.4414,0.0371 -3.1699,1.05078 c -1.7434,0.57869 -3.4169,1.69585 -3.7188,2.48242 -0.805,2.09797 0.4962,1.74475 3.8887,-1.05664 l 3,-2.47656 z m 60.416,4.08789 c 0.3474,0.0143 0.6464,0.10533 0.8125,0.27148 0.3322,0.33229 -0.2584,0.56879 -1.3125,0.52539 -1.165,-0.048 -1.4012,-0.28428 -0.6035,-0.60352 0.361,-0.14445 0.7561,-0.20766 1.1035,-0.19335 z m -99.0351,0.875 c 0.55,0 1.2792,0.45 1.6191,1 0.3399,0.55 0.1672,1 -0.3828,1 -0.55,0 -1.2773,-0.45 -1.6172,-1 -0.3399,-0.55 -0.1691,-1 0.3809,-1 z m 118.539,4.0664 c 0.4852,0.0517 0.1744,0.67451 -1.3261,1.82813 -3.1843,2.4481 -2.2306,5.60861 1.416,4.69336 2.6764,-0.67173 3.2269,0.27498 1.289,2.21289 -0.66,0.66 -1.4754,1.19922 -1.8125,1.19922 -0.8878,0 -6.4215,-5.91389 -5.914,-6.32032 0.2349,-0.18812 1.5405,-1.09214 2.9004,-2.00976 1.6811,-1.13439 2.962,-1.65518 3.4472,-1.60352 z m -113.7597,0.0176 c 0.4471,0.0823 1.6965,0.83183 3.6562,2.29883 8.8817,6.64868 38.1964,19.68172 44.9336,19.97656 1.5125,0.0662 2.75,0.40683 2.75,0.75781 0,0.35098 -0.5625,1.09857 -1.25,1.66016 -0.8798,0.71866 -3.1752,0.26137 -7.75,-1.54102 -12.8514,-5.06317 -30.1697,-13.37518 -33.0781,-15.87695 -0.8683,-0.74692 -1.9933,-1.366 -2.5,-1.375 -0.5066,-0.009 -2.4447,-1.35879 -4.3067,-3 -2.2773,-2.00728 -3.03,-3.00618 -2.455,-2.90039 z m 96.2656,0.1582 c 0.3722,0.0492 0.8819,0.40625 1.3711,1.00782 0.7827,0.9625 2.0216,1.75 2.7519,1.75 1.9585,0 7.9334,4.30498 7.9434,5.7207 0,0.73113 -1.4358,0.24181 -3.5938,-1.22266 -5.1621,-3.50313 -11.5314,-4.51548 -20.8984,-3.31836 -4.1212,0.52669 -11.8743,3.99842 -13.002,5.82227 -0.3497,0.56651 -0.9693,0.82617 -1.3769,0.57422 -1.192,-0.7367 -9.7497,9.88979 -12.8223,15.92383 -3.9139,7.68624 -5.3443,11.94601 -6.7265,20.01171 -0.549,3.20394 1.669,13.13002 3.2988,14.75977 0.6319,0.63193 0.5934,1.80906 -0.1094,3.35156 -1.5699,3.44572 -2.5714,2.96569 -4.9511,-2.37304 -4.1047,-9.20738 -3.0262,-20.91274 3.0136,-32.75 1.9644,-3.85 3.4747,-7.35677 3.3574,-7.79493 -0.3413,-1.27569 13.8744,-14.78867 14.8946,-14.1582 0.5084,0.31423 0.9238,0.0198 0.9238,-0.6543 0,-0.67424 0.2498,-0.97486 0.5547,-0.66992 0.305,0.30495 3.3104,-0.78193 6.6797,-2.41406 5.081,-2.46124 7.1189,-2.91019 11.9472,-2.63672 3.2551,0.18436 6.0146,-0.11271 6.2579,-0.67187 0.09,-0.20625 0.263,-0.28733 0.4863,-0.25782 z m -123.3711,2.75782 c 2.1147,0 2.8196,3.92874 1.0547,5.8789 -0.8638,0.95452 -1.9603,4.18613 -2.4356,7.17969 -0.6458,4.06776 -1.049,4.93613 -1.5996,3.44141 -0.4052,-1.1 -1.1617,-3.05998 -1.6816,-4.35547 -1.4748,-3.67512 1.7762,-12.14453 4.6621,-12.14453 z m 94.2246,1.51953 c 0.049,0.002 0.09,0.0179 0.123,0.0508 0.2631,0.26308 -0.333,1.25567 -1.3242,2.20508 -1.7219,1.64929 -1.7434,1.62779 -0.4785,-0.47852 0.6371,-1.06093 1.3383,-1.78833 1.6797,-1.77734 z m 42.543,4.68554 c 0.2061,0.0261 0.5025,0.21935 0.8613,0.57813 0.6507,0.65084 0.9502,1.41701 0.666,1.70117 -0.6674,0.66739 -1.8496,-0.51483 -1.8496,-1.84961 0,-0.3133 0.1161,-0.45582 0.3223,-0.42969 z m -27.3223,1.92578 c 0.4531,0 0.9063,0.0683 1.25,0.20704 0.6875,0.27741 0.125,0.50586 -1.25,0.50586 -1.375,0 -1.9375,-0.22845 -1.25,-0.50586 0.3438,-0.13871 0.7969,-0.20704 1.25,-0.20704 z m -100.9941,0.14063 c 0.4564,0.0319 1.0199,0.20508 1.5468,0.5 0.9369,0.52431 1.2867,1.21057 0.7774,1.52539 -1.1591,0.71633 -4.0069,-0.95404 -3.127,-1.83398 0.089,-0.0888 0.223,-0.147 0.3867,-0.17578 0.1228,-0.0216 0.2639,-0.0263 0.4161,-0.0156 z m 5.9941,3.83008 c 0.3667,0 0.7326,0.23255 1.1992,0.69922 0.9333,0.93333 0.6675,1.19922 -1.1992,1.19922 -1.8667,0 -2.1345,-0.26589 -1.2012,-1.19922 0.4667,-0.46667 0.8345,-0.69922 1.2012,-0.69922 z m 136.6563,1.39844 c 0.2162,0.0239 0.3437,0.12428 0.3437,0.30468 0,1.30521 -4.8358,3.26979 -5.4805,2.22657 -0.3036,-0.49126 -0.094,-1.17408 0.4649,-1.51954 0.5589,-0.34545 1.0156,-0.36201 1.0156,-0.0351 0,0.32681 0.9,0.11214 2,-0.47656 0.6875,-0.36794 1.2959,-0.53991 1.6563,-0.5 z m -133.9063,2.61914 c 1.7875,-0.0651 3.25,0.33086 3.25,0.88086 0,0.55 -0.1125,0.94791 -0.25,0.88281 -0.1375,-0.0651 -1.6,-0.46296 -3.25,-0.88281 l -3,-0.76172 3.25,-0.11914 z m -2.75,2.01171 c 0.4531,0 0.9063,0.0683 1.25,0.20704 0.6875,0.27741 0.125,0.50586 -1.25,0.50586 -1.375,0 -1.9375,-0.22845 -1.25,-0.50586 0.3438,-0.13871 0.7969,-0.20704 1.25,-0.20704 z m 5.5,0.98438 c 1.1,-0.0464 2.675,0.35161 3.5,0.88477 1.7521,1.13232 0.5357,1.13232 -3,0 -2.0596,-0.65958 -2.1477,-0.81527 -0.5,-0.88477 z m 122.9316,0.17773 c 0.2913,-0.0259 0.7398,0.672 1.0684,1.70704 0.3754,1.1829 0.4566,2.37734 0.1816,2.65234 -0.275,0.275 -0.8062,-0.46944 -1.1816,-1.65234 -0.3755,-1.1829 -0.4586,-2.37539 -0.1836,-2.65039 0.034,-0.0344 0.074,-0.0529 0.1152,-0.0566 z m 1.5,7.70704 c 0.5871,0 1.0684,0.45 1.0684,1 0,0.55 0.9,1 2,1 1.1493,0 2,0.66764 2,1.56835 0,1.14339 -0.6087,1.39786 -2.25,0.94336 -1.6869,-0.46712 -1.2652,0.20526 1.6836,2.6836 8.2595,6.94169 19.3714,19.27978 18.8477,20.92773 -0.1201,0.37798 0.4925,0.96152 1.3613,1.29492 1.1034,0.4234 1.4109,0.16457 1.0195,-0.85546 -0.3772,-0.98274 -0.084,-1.27682 0.8965,-0.90039 1.6696,0.64064 2.9198,4.6478 2.1094,6.75976 -0.3007,0.78357 -1.55,1.57179 -2.7774,1.75195 -1.6222,0.2381 -2.34,1.14104 -2.6269,3.3086 -0.5139,3.88181 -0.8871,4.15273 -1.6328,1.18164 -0.3354,-1.33642 -1.9654,-3.87999 -3.6211,-5.65235 -1.6556,-1.77237 -3.0098,-3.53932 -3.0098,-3.92773 0,-0.92414 -5.6362,-5.08398 -6.8887,-5.08398 -0.533,0 -1.6952,-0.72649 -2.584,-1.61524 -2.3795,-2.3795 -7.8315,-2.79605 -11.5351,-0.88086 -3.6758,1.90085 -5.146,1.22023 -2.6836,-1.24219 1.3519,-1.35188 1.6914,-1.40096 1.6914,-0.25195 0,0.89009 0.6143,0.55795 1.6152,-0.87109 2.1673,-3.09429 0.4008,-4.91859 -2.0937,-2.16211 -1.831,2.02316 -4.1508,2.85133 -3.0645,1.09375 0.3164,-0.512 0.068,-1.24544 -0.5527,-1.62891 -1.2261,-0.75774 -3.0767,1.46938 -2.2852,2.75 0.2675,0.43288 -2.9138,0.68045 -7.0683,0.54883 -4.1546,-0.13162 -7.5518,-0.0152 -7.5508,0.25977 0,0.275 -4.6098,0.25883 -10.248,-0.0371 -12.8819,-0.67619 -14.9594,-1.77361 -14.0762,-7.4375 0.3452,-2.21352 1.1225,-4.36574 1.7265,-4.78321 4.3659,-3.01756 24.3436,-6.05546 40.3438,-6.13476 9.3524,-0.0463 10.1986,-0.20559 9.6836,-1.82813 -0.3103,-0.97774 -0.085,-1.77929 0.5019,-1.77929 z m -29.5683,0.34765 c 0.091,0.0138 0.2006,0.1657 0.3203,0.46485 0.2888,0.72187 0.252,1.58567 -0.08,1.91796 -0.3323,0.33229 -0.5684,-0.25834 -0.5254,-1.3125 0.03,-0.72809 0.1336,-1.09326 0.2852,-1.07031 z m -78.8047,0.88477 c 0.2972,-7.4e-4 1.1094,0.11686 2.4102,0.30469 1.9078,0.27547 3.9095,0.94273 4.4492,1.48242 1.1958,1.19578 1.0822,1.17851 -3.918,-0.57813 -2.4999,-0.87826 -3.4367,-1.20775 -2.9414,-1.20898 z m 106.2793,3.76562 c -0.3135,0.041 -1.3961,1.03724 -2.8984,2.75196 -1.3252,1.5125 -1.764,2.1875 -0.9747,1.5 1.6648,-1.45015 3.4172,-1.67585 2.5879,-0.33399 -0.3109,0.50302 4e-4,1.14137 0.6914,1.41992 0.6909,0.27856 -0.2066,0.54254 -1.9941,0.58594 -2.4048,0.0584 -3.2454,0.53327 -3.2344,1.82813 0.012,1.40075 0.1911,1.47263 0.8985,0.35546 0.486,-0.76764 1.5112,-1.15528 2.2773,-0.86132 0.766,0.29396 2.1795,-0.0413 3.1406,-0.74414 1.6035,-1.17244 1.6136,-1.40989 0.1426,-2.88086 -0.8815,-0.88178 -1.323,-2.05711 -0.9805,-2.61133 0.4426,-0.71606 0.5319,-1.03439 0.3438,-1.00977 z m -93.9199,1.00196 c 1.7303,0 4.082,1.21425 4.082,2.10742 0,0.93336 -0.3693,0.95594 -3.25,0.20312 -1.8038,-0.47138 -2.4661,-2.31054 -0.832,-2.31054 z m -28.6621,2.46484 c 0.4951,0.0119 1.6535,0.27488 2.9941,0.69531 9.1035,2.8549 15.6774,4.05788 30.75,5.62696 l 16.5,1.71679 0,4.41602 c 0,3.86978 -1.2026,6.04542 -2.5801,4.66797 -0.2503,-0.25028 -2.2787,-0.67468 -4.5078,-0.94336 -2.229,-0.26867 -9.4211,-2.33006 -15.9824,-4.58008 -6.5613,-2.25002 -12.3797,-4.20877 -12.9297,-4.35156 -1.7637,-0.45789 -14.5,-6.75721 -14.5,-7.17188 0,-0.055 0.091,-0.0801 0.2559,-0.0762 z m 74.0664,6.81641 c -0.2116,0.0292 -0.3223,0.22184 -0.3223,0.57812 0,1.02715 1.6757,1.6393 6.4375,2.35352 2.5483,0.38223 11.6218,0.12319 18.7988,-0.53711 3.1552,-0.29027 5.9576,-0.1716 6.2266,0.26367 0.6657,1.07706 5.5351,0.463 6.8633,-0.86524 0.7657,-0.76567 0.082,-1.11188 -2.377,-1.20898 -5.1513,-0.20348 -20.6251,0.0294 -27.4492,0.41406 -3.3,0.18599 -6.5625,-0.0797 -7.25,-0.59179 -0.4036,-0.30062 -0.7161,-0.43544 -0.9277,-0.40625 z m 49.541,2.91015 c -0.5442,-0.0581 -0.607,0.31274 -0.2676,1.19727 0.6895,1.79669 2.9527,2.15106 3.9043,0.61133 0.3399,-0.55 0.1781,-1 -0.3594,-1 -0.5375,0 -1.694,-0.27509 -2.5703,-0.61133 -0.2915,-0.11187 -0.5256,-0.17791 -0.707,-0.19727 z m 24.8945,4.97852 c 0.053,-0.008 0.1138,-0.008 0.1797,0 0.075,0.009 0.1587,0.0301 0.25,0.0605 0.6535,0.21783 1.3663,0.92891 1.584,1.58204 0.6,1.79986 -1.4685,1.42317 -2.166,-0.39454 -0.2862,-0.74564 -0.2216,-1.19046 0.1523,-1.24804 z m 21.3008,2.83008 c 0.5825,0 0.7813,0.45 0.4414,1 -0.3399,0.55 -0.8161,1 -1.0586,1 -0.2426,0 -0.4414,-0.45 -0.4414,-1 0,-0.55 0.4761,-1 1.0586,-1 z m -14.6953,1.34765 c 0.091,0.0138 0.2006,0.1657 0.3203,0.46485 0.2888,0.72187 0.252,1.58567 -0.08,1.91796 -0.3323,0.33229 -0.5684,-0.25834 -0.5254,-1.3125 0.03,-0.72809 0.1336,-1.09326 0.2852,-1.07031 z m -156.752,0.9961 c 0.1196,0.0201 0.2512,0.0713 0.3887,0.15625 0.55,0.33992 1,0.818 1,1.06054 0,0.24254 -0.45,0.43946 -1,0.43946 -0.55,0 -1,-0.47614 -1,-1.0586 0,-0.43684 0.2527,-0.65794 0.6113,-0.59765 z m 122.209,0.92187 c 0.075,0.021 0.1148,0.0969 0.1153,0.23438 0,0.55 -0.6593,1.87378 -1.4668,2.9414 -0.8075,1.06762 -1.4688,1.49141 -1.4688,0.94141 0,-0.55 0.6613,-1.87379 1.4688,-2.94141 0.6056,-0.80071 1.1278,-1.23865 1.3515,-1.17578 z m 2.2383,0.73438 c 0.5825,0 0.7813,0.45 0.4414,1 -0.3399,0.55 -0.8161,1 -1.0586,1 -0.2426,0 -0.4414,-0.45 -0.4414,-1 0,-0.55 0.4761,-1 1.0586,-1 z m 54.4531,2 c 0.2182,0.007 0.5297,0.0557 0.9375,0.13476 1.0369,0.20094 2.0718,0.92774 2.3008,1.61524 0.5939,1.78389 -1.2595,1.54602 -2.8457,-0.36524 -0.8699,-1.04815 -1.047,-1.4052 -0.3926,-1.38476 z m -14.4062,6.1289 c 0.5686,-0.0558 0.8945,1.07809 0.8945,3.3711 0,3.59306 -0.7894,4.31214 -2.6719,2.42968 -0.7626,-0.76261 -0.7494,-1.77038 0.049,-3.49218 0.6958,-1.50104 1.2862,-2.26517 1.7285,-2.3086 z m -100.6055,1.79102 2.0078,2.02148 c 2.1566,2.17005 7.6555,3.46674 19.334,4.5625 4.0382,0.3789 8.6507,1.06478 10.25,1.52344 1.5992,0.45859 2.9082,0.66401 2.9082,0.45703 0,-0.66925 11.1145,3.42633 16.6504,6.13477 2.9587,1.44757 6.386,3.69138 7.6152,4.98828 2.5196,2.65837 4.2757,3.02957 5.0313,1.06054 0.2814,-0.73334 -0.036,-1.33398 -0.7071,-1.33398 -1.5621,0 -7.5898,-4.4315 -7.5898,-5.58008 0,-0.47902 -0.3961,-0.62579 -0.8809,-0.32617 -0.4848,0.29962 -2.433,-0.5069 -4.3281,-1.79297 -3.2915,-2.23364 -11.4627,-5.18771 -16.791,-6.07031 -1.375,-0.22776 -2.5,-0.49023 -2.5,-0.58203 0,-0.0918 -2.025,-0.30748 -4.5,-0.47852 -14.3589,-0.99231 -20.8314,-1.85688 -23.5,-3.14062 l -3,-1.44336 z m 56.3945,3.1914 c -0.1089,-0.0643 -0.4965,0.41746 -1.2597,1.38868 -0.8644,1.1 -1.5715,2.9 -1.5723,4 0,1.607 0.1659,1.70525 0.8477,0.5 0.4668,-0.825 1.1738,-2.625 1.5722,-4 0.3518,-1.21402 0.5211,-1.82438 0.4121,-1.88868 z m 41.293,2.15235 c 0.1366,0.0384 0.5343,0.53363 1.2598,1.50586 0.931,1.24774 1.5301,3.04774 1.332,4 -0.3124,1.50174 -0.44,1.46519 -0.957,-0.26953 -0.3279,-1.1 -0.927,-2.9 -1.3321,-4 -0.3156,-0.85711 -0.4393,-1.27471 -0.3027,-1.23633 z m -9.1484,5.9707 c -0.09,0.002 -0.1864,0.0209 -0.2891,0.0586 -0.6875,0.25208 -1.1375,0.96329 -1,1.58204 0.1375,0.61875 -0.2262,1.125 -0.8086,1.125 -0.5825,0 -0.7813,0.45 -0.4414,1 0.3399,0.55 0.11,1 -0.5117,1 -1.5364,0 -4.0469,2.60941 -3.2637,3.39257 0.7415,0.7415 4.2407,-0.20891 6.0254,-1.63672 0.6875,-0.55002 1.25,-2.33244 1.25,-3.96093 0,-1.70318 -0.3285,-2.57169 -0.9609,-2.56055 z m 2.5254,6.19922 c -0.071,0.0208 -0.1486,0.12304 -0.2266,0.31641 -0.2774,0.6875 -1.1428,1.25 -1.9219,1.25 -0.7792,0 -1.416,0.45 -1.416,1 0,0.55 0.9,1 2,1 1.4308,0 1.9769,-0.64035 1.9199,-2.25 -0.027,-0.77344 -0.1386,-1.2378 -0.2871,-1.31055 -0.022,-0.0109 -0.045,-0.0127 -0.068,-0.006 z m -270.6289,4.41602 0,1.5332 0.088,0 c -0.029,-0.37954 -0.058,-0.90899 -0.088,-1.5332 z m 253.2812,1.23437 c -0.078,0.0211 -0.1275,0.13769 -0.1602,0.29883 l 0.5762,0 c -0.1702,-0.20342 -0.3158,-0.3258 -0.416,-0.29883 z"
       id="path15811"
       inkscape:connector-curvature="0" />
  </g>
</svg>
