<?xml version="1.0" encoding="UTF-8"?>
<!DOCTYPE svg  PUBLIC '-//W3C//DTD SVG 1.1//EN'  'http://www.w3.org/Graphics/SVG/1.1/DTD/svg11.dtd'>
<svg enable-background="new 0 0 1926.671 1263.095" version="1.1" viewBox="0 0 1926.671 1263.095" xml:space="preserve" xmlns="http://www.w3.org/2000/svg">
<path d="m1857.9 995.96c-1.13-1.82-3.59-1.19-5.35-1.61-3.99-3.47-8.76-5.83-13.13-8.75 1.74-0.4 3.51-0.78 5.3-1.17 3.64-0.1 7.26-2.1 9.13-5.26 0.47-2.64-0.38-6.2-3.37-6.85-8.28-2.27-15.89-6.32-24.02-8.96 1.5-1.51 3.11-2.97 4.37-4.73 2.72-3.45 0.26-9.79-4.35-9.83-8.48-0.19-16.75-2.17-25.13-3.15-5.04-0.8-10.36-1.53-14.66-4.47-2.68-2.78 0.13-8.35-3.49-10.54-9.68-2.6-19.86-1.43-29.72-2.88-11.25-0.52-22.71 1.46-33.79-1.51-8.34-1.87-13.83-8.88-20.53-13.58-5.81-4.11-11.43-8.5-16.31-13.69-6.83-6.61-12.08-14.58-18.34-21.69-4.88-5.77-10.43-10.98-14.87-17.12-6.67-8.97-13.27-18-20.43-26.59-5.91-7.44-12.65-14.26-17.5-22.5-9.58-15.78-24.39-27.4-39.65-37.34-3.65-2.22-5.22-6.36-7.03-10.02-1.18-2.69-2.87-5.65-1.81-8.67 5.8-3.29 12.74-3.11 18.94-5.33 7.45-2.64 15.26-3.97 22.89-5.99 4.93-1.24 9.05-4.42 13.88-5.94 1.49-0.67 3.34-0.89 4.53-2.12 5.37 0.19 10.71-1.51 16.08-0.56 3.82 0.69 7.73 1.34 11.6 0.45 5.07 0.88 10.02 2.68 15.22 2.76 5.49 1.59 11.03 3.08 16.73 3.78 4.21 1.83 8.84 3.08 13.46 2.43 4.24-0.59 8.14-3.35 9.95-7.26 2.55-5.63 1.46-12.08 3.21-17.9 1.82-2.46 5.13-3.31 7.48-5.26 2.77-0.38 4.67-3.15 4.41-5.86-0.34-3.17-1.16-6.25-1.99-9.32 4.57-0.95 9.81-0.89 13.63-3.93 5.04-4.44-2.19-11.96 2.58-16.43 3.33-2.39 7.8-1.75 11.52-3.24 5.03-1.58 9.05-7.24 7.46-12.55-1.15-4-3.29-7.69-3.88-11.85-0.84-5.31-0.77-10.88-3.15-15.83-2.81-6.08-5.26-13.26-2.27-19.76 1.29-3.99 6.66-5.58 6.69-10.08 0.23-5.99 0.28-11.99 0.64-17.98 0.25-2.97-0.64-5.84-1.76-8.54-0.17-4.14-0.01-8.29-0.55-12.41l-0.2-0.86c0.18-2.47 0.34-4.94 0.51-7.42 5.54 0.13 10.02 3.63 15.07 5.42-1.83-4.06-5.77-6.31-9.31-8.67 3.02-0.92 6.24-1.66 8.79-3.65 2.55-2.55 4.04-6.06 4.68-9.58 0.91-5.48-1.98-10.63-2.08-16.06 0.16-3.64 1.45-7.11 2.54-10.57-1.54-0.05-3.06-0.11-4.56-0.17-1.54-5.95-0.71-12.59-4.09-17.96-0.57 5.95-0.45 11.95 0.28 17.89-1.91 5.62-8.4 9.39-14.19 7.54-7.67-2.25-11.15-10.36-17.77-14.29-2.8-3.87-7.43-6.31-8.65-11.24 1.81 0.35 3.64 0.85 5.52 0.9 2.72-0.54 1.77-3.93 2.29-5.96 0.72-0.59 1.45-1.19 2.21-1.8 1.38 0.31 2.78 0.63 4.2 0.93-2.22-1.71-4.28-4-7.27-4.09-1.23-0.58-2.43-1.18-3.61-1.79 1.58-0.97 3.27-1.74 5.08-2.25-1.36-1.17-2.67-2.37-3.98-3.57 1.48-1.36 3.04-2.63 4.67-3.84-5.57-0.68-11.14-0.16-16.61 0.94-2.47-0.1-4.88 0.58-7.22 1.18-2.52-0.96-5.06-1.86-7.6-2.72-0.25-0.6-0.73-1.81-0.97-2.41 0.6-1.6 1.68-2.92 2.91-4.13-3.5-0.08-7.11-0.58-10.44 0.68-3.34 1.16-6.75 2.33-10.33 2.06l-1.48-0.88c-1.01-1.32-2.11-2.69-3.76-3.19-5.31-1.94-10.79-3.34-16.21-4.9-6.38-1.86-13.12-0.9-19.58-2.23-7.64-1.55-15.45-0.51-23.07 0.52-4.18 0.55-8.29 1.8-11.73 4.27l-2 0.84c-6.56 1.24-12.23 4.88-18.02 7.99-6.1 3.31-11.52 7.74-16.57 12.46-6.18 5.73-9.92 13.41-14.8 20.15-5.44 7.43-8.64 16.12-12.71 24.31-1.3 2.65-2.2 5.47-2.83 8.33-0.43 0.95-0.76 1.92-0.98 2.92-4.48 8.51-5.42 18.23-8.76 27.15-1.94 5.37-2.34 11.1-3.93 16.54 0.86 0.27 2.58 0.81 3.45 1.08-0.9 3.47-1.9 6.97-4.08 9.87 2.19 0.22 4.41 0.43 6.63 0.61-1 2.28-1.99 4.81-0.92 7.27l-0.36 0.6c0.21 0.32 0.64 0.96 0.85 1.28-0.8 2.65-2.44 5.5-1.24 8.28 1.4 3.64 3.03 7.32 2.79 11.32-1.45 2.26-2.21 4.83-2.36 7.49-4.93 0.44-10.12 1.81-14.88-0.17-6.99-2.68-13.48-6.5-20.44-9.24-7.38-5.41-16.86-7.34-25.87-7.07-5.67 0.14-11.34 0.18-17 0.03-11.16-0.4-21.91 3.24-32.95 4.19-9.05 0.79-18.15 0.72-27.22 1.13 7.82 1.21 15.72 0.23 23.57 0.88-7.46 0.84-14.95-0.41-22.42 0-11.91 0.44-23.84 0.9-35.63 2.69-10.39 1.47-20.25 5.21-30.44 7.57-15.77 3.76-30.48 10.71-45.52 16.57-8.11 4.21-16.44 8.01-25.13 10.81-6.02 1.95-11.79 4.59-17.11 8.01-7.97 5.02-17.04 7.99-24.93 13.12-12.66 4.7-22.64 14.94-36.02 17.95-3.76 0.71-7.61 0.76-11.31 1.78-5.14 1.19-9.74 4.09-14.97 4.96-5.35 0.92-10.96 1.23-16.19-0.47-4.94-1.57-9.95-2.88-15.01-3.95-6.4-1.32-12.32-4.31-18.78-5.36-3.97-1.9-8.19-3.23-12.2-5.03-4.88-2.8-9.72-6-13.13-10.56-3.97-5.27-8.48-10.19-13.72-14.22-2.05-2.7-4.79-4.72-7.55-6.63-4.78-3.25-6.66-9.24-11.41-12.53-4.35-3.03-9.05-5.52-13.31-8.69-4.46-3.29-9.67-5.3-14.87-7.09-5.66-1.88-10.03-6.23-15.53-8.44-4.15-1.69-8.44-3-12.69-4.4-6.19-2.1-12.83-0.5-19.16-1.76-10.03-1.07-19.49-4.71-29.32-6.72-8.04-1.78-16.18-3.27-23.96-6.03-6.53-2.34-13.4-3.42-20.18-4.76-8.76-1.66-17.51-3.42-26.36-4.55-5.88-0.67-11.61-2.65-17.57-2.32-4.35 0.09-8.66 1.13-13.01 0.76-3.92-0.34-7.43-2.29-10.73-4.3-5.52-3.39-10.96-6.94-15.92-11.11-5.14-4.27-10.24-8.69-16.15-11.87-2.75-1.58-5.79-2.76-8.16-4.91-1.24-4.37-0.13-9.74-3.69-13.19-5.08-5.06-11.41-8.98-18.43-10.63-0.31-0.18-0.92-0.54-1.23-0.72 0.14-4.38 0.64-8.81-0.06-13.17-0.56-3.7-3.57-6.23-5.99-8.81-4.56-4.5-8.16-9.82-12.39-14.61-5.96-7.03-12.84-13.26-18.31-20.71-5.18-5.58-10.8-11.7-18.57-13.33-4.76-1.1-9.32-3.14-14.21-3.55-2.01-0.42-2.98 1.63-4.04 2.9-3.52 5.13-6.48 10.67-10.7 15.3-3.24 3.46-5.77 7.71-9.71 10.43-5.84 1.27-12.17-0.72-17.72 2.13 1.36 7.32 2.78 15.62-1.93 22.1-5.79 7.96-12.49 15.23-19.14 22.48-5.71-2.88-10.32-7.38-15.74-10.7-6.04-3.89-12.03-7.88-17.83-12.13-3.45-2.46-5.26-6.41-6.88-10.19-5.86-13.66-13.2-26.61-20.35-39.61-7.89-16.02-13.89-32.93-22.31-48.7-5.93-11.63-12.71-22.87-20.77-33.16-10.33-13.03-19.58-26.91-30.55-39.43-14.66-17.14-27.98-35.35-42.17-52.87-9.76-12.74-18.39-26.28-27.8-39.27-12.2-17.54-25.05-34.67-36.08-52.98-0.83-1.15-1.73-2.25-2.64-3.36-0.25-0.46-0.74-1.38-0.99-1.84-1.1-5.61-4.43-10.33-6.75-15.46-5.15-11.02-7.8-23-10.19-34.87-2.06-10.9-0.2-22.02-1.72-32.97-0.25-11.3-7.15-23.13-18.39-26.51-13.19-4.76-27.41-2.65-40.86-0.33-4.99 0.83-10.21-0.04-15.04 1.79-4.48 1.61-9.23 0.35-13.84 0.46-4.94-0.17-9.82 1.35-14.76 0.62-8.91-1.4-17.94-1.85-26.84-3.29-7.07-1.08-14.21-1.29-21.35-1.21-12.71-0.51-25.34-2.26-38.06-2.51-2.92-0.31-6.08 0.14-8.8-1.12-3.09-2.55-4.84-6.48-8.36-8.57-6.71-4.21-14.53-6.02-21.7-9.27-4.38-2.01-9.72-1.41-13.61-4.51-5.57-4.3-11.61-8.19-18.34-10.4-10.38-2.61-22.4 0.27-29.69 8.34-3.32 3.58-8.04 6.58-9.16 11.6 1.06 3.99 4.39 7.04 5.79 10.95 2.2 5.95 7.12 10.1 10.97 14.92 4.2 4.75 8.25 9.84 13.81 13.07 1.31 1.09 3.52 1.73 3.61 3.71 0.31 5.23-2.67 10.02-2.67 15.24 0.4 2.73 2.51 4.91 4.69 6.41 6.98 1.95 13.98-2.42 20.99-0.73 4.51 1.16 8.7 3.29 13.26 4.27 2.61 0.79 5.57 0.9 7.81 2.59 9.84 8.48 17.28 19.34 27.25 27.68 10.58 9.43 21.26 18.75 31.97 28.03 7.46 6.18 15.75 11.46 22.17 18.81 7 8.04 13.56 16.45 20.47 24.57 4.99 5.69 10.14 11.27 14.48 17.48 7.76 11.26 15.86 22.29 23.1 33.9 7.53 12 16.17 23.25 23.68 35.26 1.56 2.47 3.39 4.76 5.44 6.84 5.42 9.05 11.58 17.64 17.01 26.69 2.12 6.13 6.23 11.22 9.38 16.8 9.26 15.78 18.73 31.44 27.47 47.52 8.86 15.02 18.07 29.83 27.22 44.68 7.85 11.97 17.25 22.82 25.58 34.44 8.18 12.1 16.12 24.46 22.23 37.76 1.14 2.44 2.59 4.7 4.16 6.88 0.8 2.1 1.77 4.12 2.85 6.07 1.46 6.47 5.44 11.88 8.35 17.72 4.16 7.97 9.59 15.16 14.18 22.86 1.38 2.25 2.89 4.4 4.49 6.49 0.59 1.33 1.2 2.65 1.96 3.89 1.92 6.4 6.67 11.27 10.57 16.5 3.52 4.18 6.54 8.78 10.4 12.65 5.4 4.87 12.17 7.92 19.03 10.15 7.57 2.54 14.58 6.39 21.67 10.01 0.48 3.72-0.25 8.38 3.13 10.95 15.05 12.71 31.4 23.96 48.91 33.02 8.62 3.73 16.63 8.66 24.46 13.81 6.03 4.38 12.74 7.7 18.77 12.07 16.53 10.21 31.97 22.05 48.14 32.8 5.84 3.4 10.91 8.01 16.96 11.07 10.13 5.35 19.25 12.39 29.43 17.66 8.05 5.22 16.95 8.84 25.16 13.77 4.15 2.42 8.87 3.67 13.02 6.11 3.14 1.87 4.75 5.3 6.57 8.32 4.37 7.48 8.01 15.59 14.09 21.9 5.53 4.78 12.15 8.08 18.56 11.52 10.95 6.3 22.04 12.36 32.53 19.43 11.3 6.61 22.89 12.77 34.77 18.29 3.37 1.7 7.17 1.91 10.83 2.53 3.81 0.7 6.91 3.63 10.89 3.74 5.38 0.26 10.79 0.2 16.18-0.05 4.29-0.17 8.11-2.3 12.12-3.61 3.15-1.03 6.33-1.95 9.51-2.92 5.34-1.82 11.14-1.58 16.46-3.53 8.12-0.45 15.42-4.51 22.88-7.37 2.08 0.41 3.86 1.67 5.78 2.55-4.43 5-12.38 6.71-14.53 13.65 1.05 1.73 2.56 3.12 3.95 4.6-9.57 8.39-19.79 16.02-29.26 24.53-6.63 5.7-13.26 11.39-19.83 17.15-4.56 4.1-9.92 7.51-13.12 12.89-2.46 4.13-6.35 7.01-9.84 10.18-1.56 1.21-1.89 3.23-2.39 5 5.17-1.88 8.32-6.61 12.76-9.6 2.54-1.8 5.2-3.44 7.6-5.46 9.93-8.75 20.15-17.17 30.15-25.84 2.3-2.39 5.74-1.83 8.68-2.57 1.57-0.93 2.66-2.47 3.9-3.79 1.42-1.3 2.63-2.82 4-4.19 2.11-0.58 4.22-1.22 6.34-1.84-2.86 6.02-9.39 8.89-12.75 14.53-2.24 3.37-2.95 7.81-1.56 11.64 1.79 3.76 5.99 6.04 10.06 6.23 5.74-0.17 10.38-4.22 13.93-8.37 6.11-7.91 9.25-17.68 11.87-27.21 2.33-9.45 7.29-17.93 11.19-26.76 4.28-1.32 8.9-1.86 13.12-3.64 6.67 0.79 13.05 3.36 19.62 4.82 13.07 2.94 25.85 7.19 39.14 9.13 10.45 1.89 21.06 3.97 31.73 3.08 4.25 1.47 8.91 0.82 13.29 1.81 17.98 3.06 36.22 4.36 54.16 7.75 25.57 6.48 52.31 7.94 78.54 5.41 8.15-0.74 16.5-0.15 24.41-2.61l0.85-0.06c9.58 0.97 18.95-1.7 28.28-3.47 10.77-2.06 20.72-7.63 31.8-8.19 2.72-0.23 5.66-0.42 7.82-2.33 9.45 1.92 19.03-0.53 28.4-1.82 4.59-0.05 8.8-2.13 13.14-3.4 8.25-2.45 15.62-6.99 23.16-11.02 8.04-3.99 14.87-9.97 22.7-14.35 7.7-4.8 16.23-7.96 24.6-11.39 2.9-1.22 6.06-1.66 9.21-1.71 3.21 8.26 6.97 16.28 10.81 24.26 3.93 8.24 6.04 17.17 9.33 25.66 3.48 9 6.67 18.16 11.29 26.67 5.97 9.99 4.68 22.16 4.05 33.27-0.12 8.95 7.88 14.55 11.81 21.8 3.94 7.14 9.55 13.09 15.32 18.77 6.34 6.05 11.26 13.36 17.23 19.75 7.62 8.48 14.02 17.93 21.16 26.8 3.92 5.39 8.65 10.12 12.47 15.59 3.35 4.94 8.58 8.06 12.59 12.41 4.65 5.03 9.93 9.51 13.89 15.15 6.11 8.44 13.98 15.44 20.01 23.93 3.44 6.13 8.38 11.34 11.11 17.87 3.05 7.62 7.07 15.75 14.64 19.74 2.7 7.43 8.92 12.8 14.32 18.3 8.28 8.24 18.7 13.68 28.84 19.24 7.89 3.7 15.03 8.96 23.32 11.81 6.35 2.55 13.76 2.2 19.42 6.41 6.62 4.48 13.01 10.62 21.46 10.99 5.98 0.54 11.95 2.62 18 1.42 4.96-0.79 9.87-3.08 14.99-1.92 7.15 1.45 14.05 3.93 21.18 5.53 5.87 1.09 11.93 1.06 17.86 0.37 2.65-0.31 5.66-1.32 6.9-3.92 1.29-2.3 2.73-4.55 3.61-7.05-0.85-3.5-4.3-5.68-7.41-7-3.8-1.68-8.37-1.62-11.67-4.27-2.61-3.88-2.4-9.67-6.64-12.37-4.64-1.46-9.68-1.64-14.02-4.05-8.9-3.29-17.6-7.21-25.54-12.44-5.44-4.09-11.21-8.62-18.32-8.85-1.57-0.65-3.15-1.22-4.7-1.82-2.93-2.7-6.47-4.55-9.9-6.48-17.03-10.51-33.68-21.89-48.05-35.9-7.62-6.02-14.21-13.14-20.53-20.48-4.71-5.1-7.78-11.52-12.95-16.21-0.25-0.47-0.77-1.41-1.03-1.88-2.63-8.92-6.73-17.33-10.19-25.95-5.17-10.36-8.05-21.63-12.69-32.21-7.67-18.08-13.23-36.94-19.48-55.53-5.08-13.31-12.35-25.72-20.57-37.32-5.52-7.36-11.47-14.54-18.83-20.13-3.85-2.89-6.85-6.74-9.11-10.97-2.92-5.47-6.63-10.86-6.98-17.26 5.16 1.3 9.05 5.06 13.35 7.98 6.43 4.54 12.77 9.21 19.43 13.43 10.53 6.24 21.5 11.75 31.88 18.23 6.73 5.12 14.47 8.67 21.25 13.7 6.12 4.91 13.07 8.78 18.71 14.3 3.75 3.61 6.55 8.12 10.59 11.44 3.83 3.18 8.08 5.88 11.54 9.49 2.75 2.89 5.53 5.77 8.56 8.37 4.32 3.65 7.9 8.3 13.11 10.78 6.21 3.03 11.89 7.05 18.25 9.8 6.39 2.68 12.09 6.67 18.3 9.71 5.34 2.63 11.45 3.35 16.59 6.47 4.99 2.47 8.31 7.28 13.36 9.68 6.67 3.27 13.61 6.07 20.83 7.91 4.49 1.32 9.44 0.37 13.5-1.84 3.07-3.24 3.71-9.32-0.07-12.29-3.52-3.09-7.53-6.16-12.36-6.54-3.05-5.42-8.48-8.95-14.14-11.18-1.61-0.47-2.63-1.76-3.37-3.16 9.95-0.61 19.08 4.3 28.76 5.75 11.05 1.12 21.46 5.27 32.21 7.79 5 0.52 10.84 1.15 15.01-2.29 1.47-2.25 1.27-5.26 0.12-7.61zm-887.55-65.741c-2.94 2.27-6.82 2.32-10.34 2.67-0.78-3.07-2.59-6.63-0.37-9.55 3.84-5.77 10.66-8.6 14.78-14.15 3.08-4.26 6.07-8.64 10.01-12.2-0.74 5.11-1.75 10.18-3.12 15.16-2.31 6.641-5.02 13.83-10.96 18.07z" enable-background="new    "/>
</svg>
