<?xml version="1.0" encoding="utf-8"?>

<!DOCTYPE svg PUBLIC "-//W3C//DTD SVG 1.1//EN" "http://www.w3.org/Graphics/SVG/1.1/DTD/svg11.dtd">
<svg version="1.1" id="Layer_1" xmlns="http://www.w3.org/2000/svg" xmlns:xlink="http://www.w3.org/1999/xlink" x="0px" y="0px"
	 viewBox="0 0 2722.126 1518.656" enable-background="new 0 0 2722.126 1518.656" xml:space="preserve">
<g>
	<path d="M1754.227,821.233c-0.215-3.315-0.729-14.287-1.129-24.402c-1.8-45.217-7.086-84.306-15.801-116.694
		c-8.372-31.116-20.473-56.747-33.616-71.19c-4.229-4.643-4.3-4.786-7.415-15.558c-9.758-33.659-28.23-66.99-48.86-88.12
		c-5.943-6.1-8.543-8.129-16.273-12.758l-9.186-5.5l-0.514-5.986c-1.572-18.387-2.1-22.873-3.386-28.973
		c-5.558-26.33-16.858-50.189-34.674-73.219c-10.258-13.258-25.202-28.288-39.574-39.774c-8.315-6.658-27.759-19.887-34.431-23.43
		l-4.357-2.329l-1.229-5.058c-3.315-13.501-16.601-32.745-34.06-49.317c-3.715-3.529-7.429-8.172-11.658-14.573
		c-23.459-35.402-59.447-65.747-107.679-90.792c-36.674-19.044-85.434-36.017-127.837-44.503c-5.214-1.043-9.758-2.529-14.501-4.743
		c-7.915-3.7-22.373-9.343-31.659-12.358c-38.445-12.458-72.476-17.615-109.864-16.644l-16.501,0.428l-5.772-3.1
		c-16.929-9.1-39.703-17.087-61.39-21.544c-18.53-3.815-27.316-4.6-51.175-4.586c-27.202,0.014-40.917,1.543-64.247,7.129
		l-10.486,2.514l-9.672-1.486c-5.315-0.829-12.687-1.9-16.387-2.386c-9.258-1.214-53.504-1.186-64.704,0.043
		c-28.702,3.143-58.69,10.001-81.191,18.544l-6.229,2.372l-8.629-0.843c-42.389-4.157-78.463-1.786-117.108,7.7
		c-43.589,10.715-86.934,32.031-121.351,59.675c-3.9,3.129-9.243,7.729-11.901,10.229l-4.815,4.543l-6.229-0.829
		c-8.258-1.1-13.929-1.043-21.63,0.214c-27.602,4.515-59.775,23.616-96.549,57.332c-13.172,12.087-23.459,22.63-38.417,39.389
		c-12.887,14.444-54.818,54.432-60.733,57.904c-8.758,5.157-15.658,10.686-25.002,20.03c-15.444,15.458-25.859,30.431-37.402,53.804
		c-7.172,14.487-10.101,21.559-15.072,36.417c-1.757,5.258-4.043,10.815-5.1,12.372c-3.057,4.529-9.486,15.758-12.772,22.287
		c-10.215,20.373-15.73,42.046-14.515,57.147c0.886,11.072,5.015,22.973,10.186,29.402c1.229,1.514,2.229,3.186,2.229,3.715
		c0,0.514-1.586,3.7-3.5,7.058c-7.658,13.344-10.301,24.23-10.286,42.36c0.029,14.244,1.186,21.544,5.615,35.202
		c8.543,26.359,26.659,56.189,47.632,78.462l5.543,5.886l1.6,7.772c4.272,20.83,9.543,34.774,19.544,51.689
		c11.344,19.187,32.345,40.888,54.432,56.247c36.388,25.33,84.949,44.103,140.295,54.275l14.43,2.657l1.2,3.829
		c2.914,9.344,8.443,17.558,19.273,28.673l7.672,7.872l1.043,9.101c0.8,6.815,1.6,10.429,3.214,14.301
		c1.972,4.757,2.086,5.486,1.4,8.701c-1.1,5.072-0.929,14.501,0.329,19.387c4,15.515,17.587,32.088,38.517,47.017
		c3.7,2.629,12.187,7.929,18.873,11.758c7.629,4.372,14.687,9.072,18.973,12.629c22.373,18.516,43.517,32.216,69.305,44.889
		c23.144,11.386,40.788,17.93,63.09,23.387c28.359,6.958,38.231,8.072,71.633,8.115c16.63,0.028,30.816,0.4,36.431,0.957
		c21.373,2.1,66.39-3.186,117.294-13.801c6.543-1.357,12.301-2.329,12.772-2.143c0.486,0.186,1.443,1.872,2.143,3.757
		c0.7,1.886,4.058,8.901,7.472,15.573c16.287,31.859,40.574,60.718,67.29,79.977c3.357,2.429,6.743,5.443,7.5,6.715
		c0.772,1.271,3.3,5.329,5.629,9.029c2.343,3.686,6.629,10.844,9.544,15.901c2.9,5.057,13.201,22.73,22.859,39.26
		s19.473,34.031,21.787,38.902c2.314,4.858,11.315,22.216,19.987,38.574c10.644,20.044,16.701,32.288,18.587,37.574
		c10.587,29.531,26.287,52.203,45.375,65.49c6.429,4.472,18.358,10.286,24.302,11.844c6.286,1.657,16.687,1.772,23.416,0.271
		c2.729-0.6,7.015-1.343,9.543-1.657c5.815-0.714,9.001-2.057,12.63-5.329c4.5-4.072,6.029-8.815,6.029-18.758
		c0-13.358-3.872-27.388-18.158-65.776c-10.058-27.03-15.23-43.417-14.387-45.603c0.286-0.743,2.357-0.429,9.772,1.471
		c5.186,1.329,17.215,4.058,26.759,6.058l17.315,3.643l28.645,0.5c25.945,0.443,29.973,0.686,42.788,2.486
		c29.831,4.186,50.732,2.143,104.807-10.229c43.803-10.029,69.89-20.087,97.792-37.717c35.731-22.573,62.861-56.947,65.533-83.063
		c0.471-4.572,0.514-4.629,5.858-10.086c9.672-9.872,13.101-17.858,16.301-37.817c1.472-9.215,1.5-10.058,0.471-13.772
		c-0.914-3.3-3.029-13.044-4.457-20.587l-0.343-1.786l16.501-0.014c9.072-0.014,20.158-0.429,24.63-0.914
		c46.889-5.1,82.363-21.716,112.093-52.546c14.644-15.158,25.144-30.359,35.374-51.161c20.087-40.903,31.002-89.278,33.502-148.524
		C1755.741,868.179,1755.241,836.377,1754.227,821.233z M1021.959,510.316c-9.84,7.557-15.082,19.661-14.043,32.025l23.9,284.332
		c1.115,13.258-9.346,24.635-22.652,24.635H893.362c-13.337,0-23.808-11.428-22.645-24.714l25.064-286.285
		c1.059-12.092-3.908-23.972-13.366-31.581c-25.744-20.711-42.219-52.475-42.219-88.088c0-49.223,31.473-91.095,75.393-106.591
		c11.764-4.151,24.421-6.409,37.606-6.409c12.39,0,24.314,1.996,35.469,5.681c45.032,14.875,77.531,57.301,77.531,107.319
		C1066.196,457.176,1048.857,489.66,1021.959,510.316z"/>
	<path stroke="#FFFFFF" stroke-width="3.5686" stroke-miterlimit="10" d="M2636.867,389.411c-3.114-17.95-2.293-18.03-10.572-36.016
		c-31.376-68.15-114.979-108.225-187.519-88.134c0.83-37.773-0.063-77.223-17.191-111.838
		c-22.687-45.187-62.628-82.88-111.357-98.09c-54.376-17.245-116.495-8.984-163.984,22.839
		c-32.991,21.465-59.568,53.493-71.978,91.043c-16.406,50.611-15.505,108.957,11.491,155.856
		c8.529,16.308,20.876,30.02,32.688,43.92c-24.846-8.109-46.677-22.928-70.06-34.347c-13.132,11.839-26.702,23.16-40.753,33.937
		c-4.113-16.29-10.973-33.901-26.541-42.457c-31.698-16.897-76.974,10.768-72.522,47.631c-25.069,0.161-50.138,0.303-75.207,0.428
		v0.054c-253.563-0.66-507.136-1.552-760.708-0.161c-1.561,7.69,0.999,15.336,0.723,22.981
		c-14.533,0.562-18.708-16.246-30.056-22.027c-18.048-10.884-40.913-8.556-59.55-0.384c-26.443,14.328-38.398,50.593-25.123,77.696
		c12.936,26.532,46.498,42.136,74.699,31.573c12.124-3.952,20.698-13.721,29.208-22.598c2.766-2.766,7.869-5.763,10.42-1.204
		c0.268,6.718-0.187,13.355-0.294,19.975c43.724,0.473,87.563-2.4,131.242,0.616c-0.491,12.552,0.41,25.14-0.785,37.621
		c-40.191-1.383-80.408,0.446-120.581-1.124c-5.335-0.214-10.849-0.045-16.246,0.705c1.276,13.998,2.355,28.049,1.374,42.118
		c0.553,9.153-2.453,18.574,0.937,27.344c11.553,3.801,22.874,8.163,34.615,11.009c1.508,9.376,2.641,18.985,0.446,28.299
		c-12.338,2.427-23.909,7.61-35.98,11.214c0.045,52.137-1.534,104.3,1.187,156.365c39.495-1.213,79.026,0.419,118.485-1.151
		c3.426-37.086-3.042-74.627,2.774-111.482c16.745,0.517,33.473-0.214,50.156,0.339c2.873,36.872-0.285,73.851,1.883,110.714
		c32.179,1.178,64.394,1.909,96.494-0.687c0.098-36.997-2.56-74.181-0.607-111.107c17.976,1.802,36.042-0.972,53.912,1.436
		c-0.633,37.273-1.499,74.609,0.607,111.847c39.754-2.48,79.579-0.544,119.341-0.865c2.257-52.297-0.562-104.728-0.776-157.07
		c-12.329-2.471-23.838-7.779-36.016-10.982c-1.463-9.046-1.927-18.521,0.66-27.487c11.865-3.453,23.713-7.137,35.07-12.008
		c1.651-22.723,0.848-45.508,0.375-68.275c-44.955-0.428-89.945-0.41-134.918,0.321c-2.534-13.123-1.731-26.496-0.616-39.745
		c152.547-0.482,457.649-3.363,457.649-3.363c25.471-0.08,50.941-0.384,76.376-1.74c-4.282,27.335,19.912,53.109,46.864,53.6
		c17.932,1.927,35.025-9.153,44.027-24.141c3.604-7.833,3.711-16.781,7.039-24.757c12.82,12.32,27.192,22.821,40.592,34.419
		c24.15-9.751,45.258-26.157,70.327-33.714c-14.551,16.603-29.084,33.785-37.854,54.295
		c-26.568,60.014-21.706,134.481,17.432,187.991c30.333,43.492,79.275,74.047,132.42,78.526
		c70.854,8.127,145.972-27.246,181.738-89.553c23.508-37.809,33.018-84.646,24.088-128.414c26.452,4.452,53.903,6.004,80.15-0.437
		c53.555-12.499,98.849-54.849,115.755-107.065c0,0,5.237-14.479,6.513-34.356C2640.623,422.465,2641.185,414.338,2636.867,389.411z
		 M2567.387,425.802c-2.079,50.094-51.592,92.051-101.195,87.01c-28.762-3.096-51.878-23.124-69.426-44.767
		c-21.375,18.735-42.528,37.746-63.93,56.446c19.19,20.43,34.775,45.802,37.497,74.199c4.719,40.485-13.677,82.228-45.508,107.315
		c-23.312,18.048-53.457,27.799-82.996,24.712c-34.642-2.507-66.625-22.259-87.082-49.924
		c-35.302-46.034-27.79-117.771,15.853-155.856c18.494-18.672,44.063-27.424,69.39-31.84c-0.036-10.019-3.31-20.394,0.714-30.127
		c9.323-0.633,13.32,9.466,18.548,15.273c14.301,14.809,39.941,14.667,55.259,1.401c20.127-16.531,25.979-45.142,22.072-69.917
		c-2.792-19.582-12.963-39.968-31.787-48.523c-14.435-7.289-34.187-5.665-44.946,7.333c-5.906,5.736-10.161,15.461-19.681,15.273
		c-3.078-8.457-0.428-17.388-1.08-26.122c0.339-5.29-5.709-4.969-9.207-6.084c-15.532-3.078-30.734-8.618-44.063-17.334
		c-36.212-22.874-58.105-66.946-53.805-109.67c2.721-37.711,25.818-72.486,57.811-92.095c24.926-15.265,55.741-20.778,84.378-14.89
		c56.999,10.607,102.935,68.195,95.673,126.648c-3.176,29.378-17.843,56.437-37.488,78.124
		c22.536,17.709,42.537,38.487,65.742,55.304c9.18-13.016,20.082-25.239,34.178-32.982c25.239-15.149,58.061-15.211,84.129-2.088
		C2547.68,357.285,2569.029,391.133,2567.387,425.802z"/>
</g>
</svg>
