<?xml version="1.0" encoding="utf-8"?>

<!DOCTYPE svg PUBLIC "-//W3C//DTD SVG 1.1//EN" "http://www.w3.org/Graphics/SVG/1.1/DTD/svg11.dtd">
<svg version="1.1" id="Layer_1" xmlns="http://www.w3.org/2000/svg" xmlns:xlink="http://www.w3.org/1999/xlink" x="0px" y="0px"
	 viewBox="0 0 3062.3 3168.6" style="enable-background:new 0 0 3062.3 3168.6;" xml:space="preserve">
<style type="text/css">
	.st0{stroke:#000000;stroke-width:9.375000e-02;}
</style>
<g>
	<path class="st0" d="M1666.3,1819.8c1.6-1.6,3.3-3.1,4.9-4.6c2.8,2.8,67.7,71.4,72,77c-1.2,1.3-2.4,2.6-3.6,3.9
		c1.7,1.6,3.3,3.3,4.9,5c-14.1,6.3-28.1,12.8-42.3,19c-3.7-4.2-8.1-7.8-11.8-12c-15.2-16.7-30.1-33.6-44.1-51.2
		c4.9-13.8,10.9-27.2,16.2-40.8C1663.8,1817.3,1665,1818.5,1666.3,1819.8z"/>
	<g>
		<path d="M2789.6,2547c-58.4-54.2-123.2-101.4-191.4-142.6c-68.9-41.7-141.4-77.3-215.9-107.9c5.3-1,11.5-0.8,15.8-4.6
			c4.7-6.1,4.6-14.4,4.2-21.7c-2.1-20.1-9.3-39.6-20.4-56.5c-4.5-7-10.2-13.2-16.5-18.6c-9.9-8.2-23.4-13.1-36.2-9.9
			c-17.9,4-31.4,17.6-42.7,31.2c-5.5,7.7-12.7,15-14.5,24.6c-1.3,5.3,0.7,10.5,2.6,15.4c-7-2.6-14.2-4.7-21.2-7.2
			c1.3-1.1,2.7-2.2,4.1-3.3c0.1-2.9,0-5.9-1.3-8.6c-5.1-10.7-10.3-21.6-19.1-29.8c-4.7-4.8-11.2-8.2-18-8.1
			c-8.3,0.7-14.8,6.8-19.2,13.4c-3.6,5.4-5.6,11.8-5.4,18.3c-8-2.6-16.1-4.7-24.2-7.1c-17.9-39-32.2-79.6-45.6-120.4
			c-27.2-84.2-50.9-169.5-75.3-254.6c-28-98-56.9-195.8-88.4-292.8c-7.5-23-16-45.6-24.5-68.1c-6.9-18.2-13.5-36.4-19.8-54.9
			c-0.9-2.6-1.8-5.2-3.3-7.5c-4.2-6.3-11.7-8.4-18-11.7c-7.5-3.9-14.6-8.8-21.8-13.1c-16.9-10.2-33.4-21.1-49.3-32.8
			c-11-8.1-21.3-17.7-27.2-30.2c-8.5-16.7-7.4-35.9-10.9-53.8c-2.6-15-10.7-28.2-17.9-41.4c-8.7-15.8-16.9-32.1-22.7-49.3
			c-0.8-1.7-1.4-4.3-3.7-4.2c-8.4-0.7-16.8,0.4-25.1,0.8c-17.4,1.3-35,3.5-51.3,9.9c4.4,11.2,10.3,21.8,16.2,32.3
			c15,24.5,34.5,46.7,58.1,63.2c7.3,4.8,11.2,12.9,15.7,20.1c17.8,30,35.5,60.1,52.3,90.6c24.6,44.6,44.5,91.7,60.3,140
			c16,48.9,26.4,99.3,40.2,148.8c0.1,0.5,0.3,1,0.4,1.5c3.7,13,7.5,25.9,11.5,38.7c3.7,11.6,6.7,23.3,9.8,35.1
			c2.6,8.8,3.9,17.9,6.5,26.8c6.3,23.9,12.1,48,18.1,72c4,13.9,6.9,28.2,10.3,42.3c4,21,9.3,41.8,13.4,62.8
			c5.2,24.6,9.9,49.2,13.9,74c4,23.2,7.3,46.6,9,70.1c1,13.3,1.8,26.7,0.2,39.9c-0.8,7.2-1.9,14.9-6.3,20.9
			c-1.3,1.3-2.7,3.4-4.8,2.9c-25.8-4.8-51.6-9.4-77.6-13.4c4.5-1.4,9.3-2.1,13.5-4.3c6.8-3.5,11.8-9.9,14.2-17.1
			c3.9-11.7,3-24.4,0-36.1c-1.7-6.3-3.8-12.5-5.7-18.8c6.5,5.4,11.6,12.2,15.8,19.5c7,11.1,14.3,22.2,22.6,32.5
			c3.2,3.5,6.3,7.6,11.1,9c3-1.5,1.9-5.4,2.2-8.1c-0.7-10.4-3.3-20.6-5.5-30.9c-14.9-63.6-33.1-126.3-49.4-189.5
			c-9.5-33.5-14.2-68.8-29.8-100.3c-3.7-6.9-8-13.6-14-18.7c-6.7-6.1-15.6-8.9-24.4-10.3c-13.4-2.7-27.9-0.9-39.9,5.8
			c-13.6,7.5-22.9,21.7-25.4,36.9c-1.8,8.1-2,16.4-1.7,24.7c2.3,0.3,4.6,0.7,6.9,1.2c0.9,4.1,2.3,8.9-0.6,12.5
			c-2.7,3.5-4.1,7.8-3.2,12.2c1.9,0.6,3.8,1.2,5.7,1.8c1.9,6.5,4.4,12.9,8.1,18.7c1.7,2.7,4.2,4.8,7.2,5.9
			c6.6,2.6,13.7,3.6,20.7,4.7c0.6,5.8,2.5,11.5,2.3,17.3c-5.4,17-13.8,33.2-16.1,51c-7.7-0.1-15.2,1.4-22.9,1.1
			c-4.9-0.2-9.9,0.5-14.7-0.3c-3.6-1.6-6.6-4.1-9.8-6.2c-10.9-7.3-21.8-14.7-32.1-22.9c-6.7-5.4-11.4-13.1-19.2-17
			c-3.6-1.9-5.7-5.5-8.8-8c-3.6-3.5-8.1-6.2-13.1-7.1c2.5,5.2,7,8.9,10.5,13.3c2.7,3.3,5.4,6.5,7.9,10.1c-6-3.8-9.7-10-15.3-14.2
			c-2.7-2.1-6.1-3.3-8.3-6c-5.1-5.6-11.1-11-18.8-12.2c3.6,5.4,8.2,9.9,12.3,14.8c6.3,7.6,12.1,15.7,18.7,23.2
			c12.3,12.5,24.3,25.2,37.1,37.1c-11.3-0.5-20.5,7-27.8,14.7c-15.6,16.7-27.2,36.7-38.4,56.5c-5.5,9.6-10.5,19.5-15.8,29.3
			c-2.4,5.1-5.5,10-7.5,15.4c1.7,1.2,3.6,2,5.4,3c-2.2,4.5-5,8.7-8.6,12.2c-12.6,2.2-25.3,4.2-37.8,7.3c-5.5,1.6-12.2,3-14.6,8.9
			c-18.8-1.4-37.6-0.9-56.4-1h-42c-9.7,0-19.4-0.1-29.1,0.7c-8.7,0.7-17.4-0.2-26.1,0.8c-8,1-16.1,0-24.1,1.2
			c-33.4,1.6-66.8,4.7-100.2,7.7c1.9-2.8,4-5.8,4.3-9.3c1-7.6-1.9-15-3.9-22.2c-3.2-9.7-7.7-19.6-16.1-25.9
			c-5.5-4.2-12.9-4.8-19.4-3.4c-7,1.8-13.1,5.8-18.7,10.3c-12,10.4-21.8,23.2-28.5,37.5c-2.1,4.9-4.2,10-4,15.4
			c0.2,3.8,4.2,5.4,7,7.3c-45,6.9-89.9,14.1-134.4,23.9c5-8.1,6.9-17.6,7.9-26.9c0.7-7.6-0.5-15.7-4.7-22.2
			c-4.6-7.4-13.2-11.2-21.6-12.4c-15.9-2-31.9,1.7-46.5,7.8c-9.4,3.9-18.3,9.3-25,17c-7.3-9.4-16.7-17.3-28-21.4
			c-7-2.7-14.3-4.3-21.7-5.4c4-2.1,10.1-3.8,10.4-9.2c-1-4.1-4.1-7.1-6.7-10.3c-7.2-7.9-14.9-15.7-24.5-20.4
			c-5.1-2.4-11-3.9-16.6-2.4c-5.6,1.2-9.9,5.6-12.9,10.2c-4.2,7.2-6.4,16-4.6,24.3c0.8,3.9,4.3,5.9,7.6,7.3
			c-11.1,0.4-22.1,1.9-33.2,3.2c-17.4,2.1-34.3,7.6-49.6,16.1c-26.1,14-47.9,34.9-67,57.2c-25.7,30.6-46.4,65.2-63.9,101
			c-2.4,4.4-3.7,9.4-6.7,13.3c-4.7,2.9-10.2,4.5-15.2,6.9c-52.9,22.9-104.9,48.1-155.6,75.4c-13.8,7.8-28.2,14.7-41.3,23.7
			c-42.7,26.2-84.6,53.6-125.4,82.5c-39,27.8-77.1,57.1-112.7,89.2c-31.6,28.7-61.7,59.6-85.6,95.1c-13.5,20.4-25,42.6-30.4,66.6
			c-4.9,21.4-4.3,44.4,3.6,65c5.9,17,17.1,31.5,29.2,44.5c20.5,20.1,45,35.8,70.7,48.3c20.2,10.5,41.4,18.6,62.8,26.1
			c41.9,14.6,85.1,25.2,128.5,34.4c95.3,19.4,192.1,30.8,289,39c43.8,3.6,87.7,6.6,131.5,8.8c6.8,1.1,13.7,0.2,20.5,1.2
			c7.3,0.9,14.7,0,22,1c6.7,0.9,13.5,0.1,20.2,0.9c8.4,1.1,16.9,0.1,25.3,0.9c10,1.3,20.1-0.1,30.1,1.3c9,0.5,18,0.1,26.9,0.4
			c13,1.4,26,0.6,39,1c19.3,2,38.8-0.2,58,1.7c15.6,0,31.3,0.2,46.9,0.2c12,0.2,24.1-0.5,36.1,0.8c40.7,0,81.3,0.1,122,0
			c9.9-1.3,20-0.6,30-0.8c16.3,0,32.7,0,49-0.1c9.7-0.2,19.3,0.4,29-0.8c15.7-0.1,31.4-0.1,47.1-0.3c17.3-1.6,34.6-0.4,51.9-1.1
			c13.3-1.5,26.7-0.3,40.1-1c13.3-1.5,26.6-0.2,39.9-1.1c12.3-1.5,24.7,0.1,37-1.4c11.3-0.7,22.7,0.4,34-1.1
			c8.3-0.5,16.6,0.2,24.9-0.6c7.3-1,14.8-0.4,22.1-0.7c4.4,0,8.7-0.9,13.1-0.9c8-0.2,16,0.3,23.9-0.8c8.2-0.6,16.4,0.2,24.6-0.7
			c7.4-1,15-0.2,22.4-0.8c8.8-1.3,17.7-0.2,26.5-1.1c8.6-1.1,17.3,0,25.8-1.1c7-0.9,14.2,0,21.2-0.9c7.9-1.1,15.9,0,23.8-1.1
			c4.2-0.6,8.4-0.4,12.7-0.5c6.7,0.1,13.3-1.3,20-1c7,0.3,14-1.2,21-1c6,0.2,12-1.1,18-1c4.4,0,8.8,0,13.2-0.6
			c6.7-0.9,13.6-0.1,20.3-0.9c6.9-1,13.8-0.1,20.7-1.1c6-0.8,12.2-0.1,18.2-0.9c6.5-1,13.2-0.1,19.7-1.1c6.1-0.8,12.2-0.1,18.3-0.9
			c6.9-1,13.9-0.1,20.8-1.1c5.5-0.7,11-0.2,16.5-0.8c6.7-1,13.4-0.3,20.1-1.3c6.6-0.4,13.3-0.3,20-1.1c8,0.1,16-1.3,24-1.2
			c5.3-0.1,10.6-1.2,15.9-1c99.2,3.3,199.9-12.1,298.9-18.5c132.3-8.5,398.1,6.5,433.5-169.7c18.2-90.8-55.1-179.2-112.4-240.1
			C2803.2,2559.2,2796,2553.5,2789.6,2547z M1043.6,2199.9c-1.9-10.9-4.7-21.6-8.6-32c13.4,9.9,27.7,18.9,43.7,24
			C1066.9,2194.1,1055.4,2197.4,1043.6,2199.9z M1749.3,2149.2c-12.3-1.3-24.6-1.9-36.9-3c-1.4-5.4-1-11.7,3.3-15.8
			c1.5-2.3,4.4-0.9,6.4-0.2c6.8,2.8,13.7,5.1,20.7,7.4c1.3,0.3,2.7,1,4,0.3c3.7-1.8,6.4-5.1,8.8-8.3c6.2-8.4,11.6-17.3,16.2-26.7
			c17.1,20.9,35.9,41.1,59.8,54.3C1804.2,2154.7,1776.8,2151.2,1749.3,2149.2z M1803.3,2020.7c8.7,1.3,17.3,3.2,26.1,3.6
			c1.3,7.9,2.6,15.9,4.4,23.8C1824,2038.5,1814,2029.3,1803.3,2020.7z"/>
		<path d="M1727.5,187c5.2,6,8.1,13.5,12.7,20c6.9-2.8,13.3-6.8,19.1-11.6c9.8-7.8,16.4-19.4,27.8-25.1c11.9-6.1,25-10.3,38.5-10.6
			c-8.5-4-17.6-6.4-26.5-9.1c-37-9.8-76.3-10.3-113.9-3.2c-3.2,0.6-6.3,1.4-9.4,2.5c5.8,3,11.9,5.1,17.6,8.3
			C1706.7,165.3,1717.9,175.6,1727.5,187z"/>
		<path d="M1566.8,188.4c7.5-7.6,13.1-17,21.2-24.1c5.1-4.2,10.9-7.3,16.8-10.2c4.7-2.4,9.9-3.5,14.5-6.2
			c-6.4-0.9-12.9-0.5-19.4-0.4c-19,0.2-38,1.6-56.7,5.3c-9.7,2-19.5,3.5-28.8,6.9c8.7,1.1,17.9,0.1,25.9,4.3
			C1551.3,169.5,1558.2,180.1,1566.8,188.4z"/>
		<path d="M1592.4,177.6c-5.7,6.3-11,13-16.2,19.8c-1.9,2-1.3,4.7-0.6,7.1c5.1-3.4,9.2-8,14.2-11.4c13.3-9.7,28.9-15.5,44.1-21.5
			c3.2-1.1,6.3-2.8,9.8-2.6c1.5,2.2,2.2,4.7,3.1,7.2c-4.6,2.6-9.5,4.5-14.4,6.5c-12.2,5-24.7,9.9-35.7,17.3
			c-8.6,5.7-14.7,14.1-21.4,21.7c-3.3,3.6-4.6,8.4-6,12.9c-2.5,8.6-5.6,17.1-7.4,25.9c2.9,2.2,5.6,4.8,9.2,5.8
			c3.5-0.9,6.5-3.1,9.6-4.9c7-4.3,13.7-9,20.3-13.9c1.5-0.9,3.5-2.9,5.3-1.3c2.4,1.8,4.5,4.3,5.4,7.2c-0.7,1.4-1.9,2.5-3,3.5
			c-11.6,9.5-24.5,17.4-37.9,24.1c-5.5,3-12,5-15.5,10.6c-8.7,12.8-17.4,25.6-26.9,37.9c-9.1,11.8-21,21-31.9,31.1
			c-2.6,2.3-3.4,5.8-4.5,9c-1.9,5.9-4.1,11.6-5.7,17.6c-1.5,5.7-1.5,11.6-1.6,17.4c-0.1,12.3-0.6,24.5-0.3,36.8
			c0.4,9.9,0,19.9,0.9,29.8c0.4,4.9,0.8,9.9-0.1,14.9c-1.1,5.1,1.5,9.9,1.9,14.9c1.9,18.5-5.6,36.6-3.8,55.1
			c0.3,13.9,9.2,25.3,13.1,38.2c0.7,4.3-0.8,8.6-1.4,12.9c-2.5,13.8-5.8,27.4-8.7,41c-3.9,0-7.8-0.6-11.5-1.9
			c0.2-3.5,0.6-6.9,1.4-10.2c2.6-10.9,4.7-21.8,6.9-32.8c0.6-3,1-6.1-0.2-9c-3.1-8.7-7.9-16.8-10.3-25.7c-2.1-7.4-1.4-15.2-1.5-22.9
			c-0.3-14.8,5.1-29.2,3.6-44c-0.4-5.1-2.8-9.8-5.6-14c-7.1-10.4-16.9-18.6-26.8-26.2c-11.5-8.3-23.4-16.6-37.2-20.4
			c-13-3.1-26.5-3.6-39.8-3.8c-19.9,0-40.6,4.5-56.6,16.8c-8.9,7.6-17.1,16.2-23.4,26c-10.6,16.4-19,34-29.6,50.5
			c-4.2,6.7-9.4,12.8-13.8,19.3c-2.9,4.4-7.9,6.4-11.9,9.7c-8.4,6.6-18.8,10-29.1,12.2c-10.4,2.1-20.9,3.7-31.5,3.9
			c-10.2,0.2-20.3,0.1-30.5,0.1c-9.7-0.3-19.6,0.1-28.9-3c0.4-3.7,0-8,2.5-11.1c4.6-0.3,9.2,1.1,13.8,1.2
			c25.1,1.2,50.6,1.7,75.2-3.9c10.9-2.4,21.2-8,28.9-16.1c3.8-4.1,6-9.3,8.1-14.4c2.9-7.4,5.9-15.1,5.9-23.1c0-8.8-1.2-17.6-4-25.9
			c-3.8-11-11.5-20-19.7-28c-11.2-10.9-24.1-20.5-32.8-33.6c-7.5-11.2-11.4-24.4-13.8-37.5c-0.7-3.9-1-7.8-1.1-11.7
			c3.8-1.4,7.8-1.8,11.7-1.7c1.8,10.6,3.1,21.5,7.2,31.6c2.6,7,6.4,13.6,11.6,19c7.8,8.4,16.2,16.2,24.7,23.9
			c10.5,9.7,19.6,21.3,24.4,34.9c3.1,8.5,3.4,17.7,5.1,26.5c4.6-7.2,8.4-14.9,12.9-22.2c7.6-13.3,17.4-25.6,29.5-35.2
			c12.2-9.8,27.1-15.9,42.5-18.6c-0.9-4.5-3.5-8.4-5.7-12.4c-1.7-2.9-1.8-6.3-1.9-9.6c-0.2-11-0.6-22,0.4-32.9
			c1.1-13.9,2.1-27.8,3.2-41.7c2.9,0,5.9,0,8.9,0c-0.1,7.5-0.5,15-1,22.5c-1,14.6-2.9,29.2-1.9,43.9c0.4,5.1-0.6,10.7,1.9,15.4
			c2.4,4.5,4.9,8.9,7.5,13.3c12.2-1.3,24.6-0.5,36.7,0.8c9.2,1.1,18.6,2.4,27.2,6.2c14.8,6.4,28.1,15.8,40.5,26
			c4.9,3.9,9.2,8.6,14.2,12.4c-0.2-18.4-1-36.8-0.4-55.2c0.1-11.8-0.2-24,3.4-35.4c2.2-7.3,5.5-14.3,6.9-21.9
			c-23.4-15.6-50.2-25.2-73.3-41.2c-13.4-9.2-26.5-19-39.5-28.8c-2.7-2.1-5.6-4-7.7-6.7c0.5-2.6,2.1-5.1,4.5-6.2
			c4.5,1.7,8.1,5.1,12,7.8c15,10.9,29.5,22.4,45.4,32c13,8.1,27.2,14,40.5,21.5c8.5,4.4,16.4,9.7,25,13.8c9.2-8,18.5-16.1,26.8-25
			c11.3-13.8,20.7-29,31.2-43.4c2.7-3.6,6.5-6,10.1-8.6c-6.7-5.2-14.5-8.8-22.1-12.5c-14.2-6.9-30.4-7.7-45.9-8.2
			c-23.9-1.1-47.9-0.6-71.9-0.7c-21.3-0.3-42.8,0.4-63.9-2.5c-7.3-0.8-14.6-2.6-22-1.6c-18.8,2.5-37.2,8.1-54,16.8
			c-6.4,3.3-12.8,6.8-18.1,11.7c-6.5,6.1-12.2,13-18.3,19.5c-2.6,2.7-4.9,5.6-7,8.7c5.1,2.3,10.1,4.9,15.4,6.7
			c3.5,1.2,6.9-1,9.7-2.7c3.6-2.2,5.1-6.4,6.6-10.1c2.7,0.2,5.5,0.6,8.2,1.1c0.5,8.4-5.6,15.7-12.9,19c-4.2,1.8-8.9,4.3-13.5,2.5
			c-8.7-3.3-17.1-7.5-25.6-11.2c-4.1-1.9-8.7-1.3-13.1-1.3c-8.2,0.2-16.5-0.4-24.7,0.5c-7.7,0.8-14.4,4.8-20.9,8.7
			c-13.8,8.6-25.7,19.8-37.3,31c-10.4,10.7-20.6,21.5-29.3,33.6c-7.1,9.8-13.2,20.2-18.6,31c-7.2,14.2-14.1,28.5-19.3,43.6
			c-4.3,12.2-6.2,25.1-10.3,37.3c-3,9.5-8.2,18.3-14.5,26c-1.4,2-4,0.2-5.5-0.8c-1.1-1-3.2-2.3-2.2-4c1.9-4,5-7.2,7.1-11
			c5.4-8.9,7.8-19.2,10.3-29.3c1.6-6.6,3.5-13.2,4.2-19.9c-12.9,1.1-25.6,3.4-38.2,5.6c-10.6,2.2-21.4,4.3-31.1,9.3
			c-7.1,3.7-12.7,9.5-17.7,15.6c-14.6,17.6-26.9,37.1-36.6,57.8c-2.8,6.1-5.1,12.5-5.4,19.2c-0.5,8.9-0.8,18.1,2.7,26.5
			c2.7,6.9,7,13.2,12.3,18.4c9.5,10.1,21.6,17.3,33.9,23.6c2,0.9,4.6,2,6.7,0.4c2.9-1.9,5-4.6,7.4-7.1c3.4-3.8,7-7.6,9.3-12.2
			c1.6-3.1,0.6-6.6,0.1-9.9c-1.3-6.6-2.6-13.2-3.6-19.8c3.6-1.6,7.6-2.2,11.5-2.1c1.9,7.5,3.4,15,4.9,22.5c0.5,2.9,1.6,5.8,0.9,8.8
			c-4.7,13.7-16,23.3-26.4,32.8c-7.1,6.6-15,12.8-20.1,21.3c-5.8,10.8-6.3,23.4-6.4,35.4c0.3,15.4,1.6,31.4,9,45.3
			c8,15,18.5,28.6,29.9,41.1c7.5,7.8,15.1,15.8,24.5,21.4c6.8,4.1,14.5,6.1,22.2,7.5c6.9,1.3,13.8,2.9,20.8,3.5
			c-6.6-10.1-11.8-21.9-10.5-34.2c1.7-16.1,9.6-30.6,14.1-46c4.9-15.2,4.8-31.6,2.6-47.3c-3-20.2-9.3-39.8-18.5-58
			c-0.8-2-2.2-4.3-1.6-6.5c2.5-2.7,6.1-3.7,9.4-5.1c1.8,2.8,3.4,5.8,4.8,8.8c5,11,9.4,22.3,12.8,33.9c6.1,21.2,9.1,43.7,5.2,65.6
			c-2.6,16.6-10.8,31.6-15,47.8c-2.3,7.9-2,16.7,1.7,24.2c6.4,13.4,17.9,23.9,30.7,31.2c15.5,8.1,32.4,12.7,48.7,18.8
			c15.4,5.9,31.4,10.3,47.6,13.5c2.9,0.4,6.2,1.3,8.9-0.3c3.9-2.3,7.1-5.4,10.7-8.2c23.4-18.2,47.8-35.1,72.3-51.8
			c5.8-4.1,12.2-7.7,17.4-12.6c-8.8-5.2-19.2-7.3-27.2-13.8c-9.7-7.6-19.2-15.6-28.4-23.8c-5.5-4.9-11.4-9.6-15.6-15.8
			c-13.3-18.3-30.4-33.7-49.5-45.8c-25.4-16.3-53.4-30.1-73.3-53.4c-0.9-1.4-2.9-2.7-2-4.5c1.7-2.6,4.5-4.3,7-6.2
			c5.8,4.5,10.3,10.2,15.9,14.9c21.3,18.6,47.3,30.2,70,46.8c12.6,9.1,24.1,19.6,34,31.6c5.2,5.7,8.8,12.7,14.7,17.7
			c8.4,7.5,17.1,14.7,25.7,22c5.1,4.2,10.1,8.8,16.3,11.5c7,3,14,5.8,21.1,8.6c2.4,0.8,5.3,2.3,7.6,0.5c14.5-9,28.7-18.6,44.1-26
			c12.5-6.1,26.2-8.9,39.6-12.4c-3.4-7.8-5.5-16-7.7-24.2c-3-10.8-4.5-21.9-6.5-32.9c-3.6-21.3-7.8-42.5-8.9-64.1
			c-1.2-19.7-2-39.5-4.6-59c-1.3-9.9-4.1-19.7-8.1-28.8c-6.4-15.4-14.4-30.2-21-45.6c-0.4-1.7-1.9-4.2-0.1-5.5
			c2.4-1.9,5.6-2.4,8.5-3.2c4.2,6.8,6.8,14.3,10.4,21.4c5.3,11.3,11.1,22.4,15.4,34.1c5.7,15.1,7.5,31.2,8.8,47.1
			c1.4,17.4,1.8,34.8,3.4,52.1c1.1,10.7,2.9,21.3,4.8,32c3.9,21.7,7.3,43.5,13.5,64.7c1.7,3.9-0.9,7.5-3.1,10.5
			c6.3-0.4,12.5-1.7,18.8-2.4c16.8-1.9,33.8-2.4,50.6,0.2c15.8,2,31.5,6.2,47.6,5.4c12.7-0.6,25.5-1.3,38.1-3.1
			c13.6-2,27.9-5.2,38.5-14.5c8-6.9,15.5-14.8,25.3-19.3c-0.2-3.1-0.1-6.2,1-9.2c2.9-8.7,5.3-17.7,6.4-26.8
			c0.5-4.4,0.3-9.1-1.5-13.2c-3.2-7.4-8.6-13.4-13.8-19.4c-9.3-10.2-19.1-19.9-28.7-29.8c-1.3-1.6-3.4-3.2-3.2-5.5
			c1.1-2.2,3.4-3.4,5.3-4.9c6.1,4.8,10.9,11.2,17.3,15.6c-2.8-11.4-9.2-21.5-12.9-32.6c1.7-0.7,3.5-1.4,5.3-2.1
			c5.4,9.4,9.6,19.4,13.3,29.5c2.5,6.5,3,13.9,7.7,19.3c4.5,5.4,9.2,10.7,13.1,16.6c4,6,7.5,12.7,7.9,20c0.6,13.2-4.2,25.8-7.2,38.4
			c6.3-0.8,12.5-2.3,18.8-2.7c9.1-0.8,18.2,0.5,27.3,0.9c9.1,0.7,18.5,1.1,27.2-2.2c12.6-4.8,24.2-11.9,35-19.8
			c14.3-11,28.1-23.7,36.1-40.2c6.8-13.7,7.8-29.3,8.9-44.3c0.5-7.3,4.3-13.9,8.1-19.9c3.5,1.2,6.9,2.8,10,4.8
			c-1.1,3.6-2.6,6.9-4.1,10.3c-1.9,4.3-2.1,9.1-2.4,13.7c-0.6,10.4-1.8,20.9-5.3,30.7c-6.8,19.8-20.7,36.4-37,49.2
			c-5.6,4.7-12,8.5-17.3,13.5c3.2-0.3,6.5-0.7,9.7-1.3c21.2-4.3,42.1-9.9,63.4-13.9c17.8-3.4,36-5.2,54.1-3.8
			c18,0.5,35.8,4.7,52.9,10.4c1.9,0.9,3.6-0.4,5.1-1.4c32.3-24.6,61.4-53.4,86-85.7c11.3-14.6,22.9-29.2,36.5-41.7
			c4.9-4.4,9.6-9,15.2-12.4c1.7,2,3.4,4.1,5,6.2c-5.8,6.7-12.8,12-19,18.3c-10.8,10.6-20,22.6-29.4,34.4c-21,27.5-45,52.8-71.5,75.1
			c-5.3,4.6-11.1,8.5-16.1,13.3c7.5,5.6,15.8,9.9,23.8,14.8c8.2,4.7,16.2,9.8,24.6,14.1c3.9,2.3,6.7-2.1,9-4.6
			c4.2-4.3,6.5-10.1,11.1-14c3.5,0.4,6.8,2.5,9,5.2c-0.3,3-2.2,5.6-3.8,8c-4.6,6.4-9.6,12.7-16.1,17.2c-2.5,1.8-5.7,3.2-8.8,2.2
			c-4.5-1.4-8.5-4-12.6-6.2c-16-9.1-31.5-19-47.6-27.9c-6.3-3.6-13.2-6-20.3-7.6c-18.5-4.5-37.6-6.6-56.6-5.1
			c-40.2,2.8-78.4,17.8-118.5,21.6c-6,0.3-11.8,2.2-17.9,2.1c-4.4,0-8.8,0.1-13.1,1.2c-7.9,1.9-15.7,3.8-23.4,6.2
			c-12.4,3.7-24.1,9.5-34.9,16.4c-16.6,10.9-31,24.7-45.3,38.5c1.3,3,2.7,6,4,9.1c5.5,11.9,6.5,25.8,3.3,38.5
			c-1.9,7.7-3.9,15.3-6,23c-2.9,0.1-5.8,0.2-8.7,0.1c0.8-13.4,7.4-25.9,6.8-39.4c-0.3-12.3-6-23.6-12.4-33.8
			c-1.7-2.9-4.2-5.7-4.4-9.2c1.5-2.1,3.9-3.6,6.5-4c2.5,1.9,4.1,4.7,5.8,7.3c18.8-17.5,37.6-35.9,61.2-47c5.6-3,11.9-4.6,17.2-8.1
			c-5.2-0.7-10.4-0.2-15.5,0.7c-8,1.4-16.2,3-23,7.6c-8.2,5.5-14.6,13.1-22.7,18.7c-9.9,6.8-21.7,10.1-33.4,12.4
			c-14.3,2.6-28.8,3.4-43.3,3.6c-8.1,0.1-16.2,1.1-24.2-0.4c-14.9-2.6-29.9-5.3-45-6c-19.1-0.7-38.3,1.7-56.9,6
			c-13.5,3.2-27.2,6.7-39.3,13.7c-12.2,6.7-24,14.2-35.9,21.7c-28.5,18.3-56.5,37.3-83.8,57.3c-13.4,9.9-26.7,19.8-39,31.1
			c-6.7,5.3-8.9,14-10.3,22.1c-3.3,17.8-4.9,35.9-7.1,53.9c-0.4,3.2-1.5,6.2-2.5,9.3c-1.2,3.6,0,7.3,1.2,10.7
			c4.3,11.2,12.6,20.2,21.2,28.2c2.2,2.2,5.1,4.4,5.5,7.8c1.2,7.3,1,14.8,3.6,21.8c1.2,3.8,4.1,7.6,3,11.8
			c-0.8,4.2-1.8,8.4-1.4,12.8c0.5,9.5,5.7,18,11.6,25.2c6,7.5,13.4,13.6,21,19.4c11.2,8.7,24.3,14.5,36,22.5
			c2.7,1.9,6.1-0.8,8.9,0.8c13.5,6.2,26.6,13.7,41.1,17.5c11.8,3.2,24.3,3.4,36.4,2.4c8.3-1.3,16.7-2.8,24.9-5.1
			c-5.7-4.1-12.1-6.9-17.5-11.4c-13.3-9.9-23.1-24.8-26.3-41.1c-1.1-7.3-0.7-14.7-0.5-22c0.8-18.9,8.1-36.7,15.3-53.9
			c3.3-8.1,7.4-16,10-24.4c-14.1,6.1-22.9,19.6-29.3,33c-6.3,13.5-12.7,27-20.4,39.7c-3.9,6.5-10.7,10.6-17.6,13.1
			c-1.3-2.4-2.8-4.7-3.2-7.4c3.5-4.2,9.8-5.3,12.6-10.3c4.9-8.4,9.3-17.2,13.7-25.9c6.8-14.6,13.4-29.9,25.5-41
			c8.3-7.9,19.1-12.1,29.7-16c-11.2-4.8-22.3-10.3-31.3-18.6c-2.7-2.5-5.3-5.6-9.2-6.3c-4.2-0.9-7.8-3.2-11.3-5.5
			c-19.5-11.8-40.3-21.4-59.9-33.2c0.9-2.6,2.1-5,3.5-7.4c19.1,8.7,37.3,19,56,28.5c-4.5-11-11.4-21.2-13.7-33
			c2.7-1.1,5.4-2,8.1-2.9c3.2,7,5.7,14.4,9.3,21.2c7.3,14.6,17.6,28,31.1,37.3c11.3,8,24.7,12.4,38.3,14.6c11.2,1.5,22.7,3.3,34,1.6
			c15.7-3.3,31.3-7.4,46.9-11.4c6.3-1.8,12.8-3.1,18.9-5.5c8.4-3.5,10.9-13.7,18.7-18.1c3.7-2.1,8-2.7,12.1-3.6
			c-5.9-10.3-10.5-21.3-15.5-32c-3-7.2-7-14.2-8.7-21.9c2.6-1,5.2-2.5,8.1-2.2c0.7,0.9,1.3,1.9,1.9,3c6.5,14.7,12.5,29.6,20.1,43.7
			c2,3.3,4.1,6.6,7,9.2c2.4,2.1,5.8,2.4,8.9,2.9c14.8,1.8,29.5,4,44.3,5.8c10.4,1.2,20.8,2.1,31.2,1.3c5.9-0.4,11.5-2.5,17-4.7
			c11.4-4.7,22.3-10.3,33.1-16.2c13-7.3,26.5-13.8,39.8-20.6c0.1-5.6-0.1-11.4,2-16.7c2.3-6.1,5.6-11.8,8.6-17.6
			c15.7-31,39.8-56.7,56.9-86.9c1.3-1.8,2.3-5.2,5.1-4.5c2.4,0.7,6.4,2.5,4.9,5.7c-1.6,4.4-4.4,8.2-6.8,12.2
			c-16.9,27-38,51.2-52.6,79.5c-3.8,7.7-9.1,15.3-8.4,24.2c4.3-0.8,8.5-2.2,12.8-2.9c8-1.6,15.7,2,23.4,3.5
			c18.4,4.8,37.6,4.9,56.5,3.9c13.3-0.3,26.5-1,39.8-1.7c8.7-0.8,17.9,0.1,26-3.7c13.7-5,27.5-12,36.4-23.9
			c5.5-7,8.2-15.7,13.1-23.1c2.1,0.7,4.4,1.3,6.3,2.7c1.5,0.7,0.9,2.2,0.5,3.4c-1.8,5.4-4.7,10.3-7.3,15.3
			c-3.4,6.4-8.4,11.8-13.7,16.8c-4.3,4.2-9.4,7.2-14.1,10.9c4.7,2,9.7,3.2,14.3,5.3c11.5,5.1,21.5,13,33.1,18
			c10.5,5,22.2,6.8,33.8,6.7c10.5,0.2,21-0.6,31.4-1.9c3.4-0.3,6.7-1.8,9.2-4.2c8.5-8,16.6-16.5,24.3-25.3
			c7.6-8.8,15.2-17.8,24.6-24.8c12.8-9.5,27.6-15.9,41.1-24.5c13.4-8.3,26.7-16.9,39.5-26.1c6.4-4.7,12.1-10.1,17.7-15.6
			c13-12.4,26.1-25.1,36.6-39.8c8.5-11.7,12.1-25.9,17.6-39c6.9-17.5,15.1-34.5,25-50.5c7.6-12.1,15.4-24.2,20.9-37.4
			c3.1-7.6,5-16.1,3-24.2c-1.8-5.7-5.3-10.7-8.2-15.9c-10.8-18-21.8-35.9-32-54.3c-3-5.5-6.4-11-8.2-17.1c3.4-1.8,6.8-4.4,10.8-4.1
			c0.8,0.9,1.4,1.9,2,2.9c13.2,27,30.2,52,44.8,78.2c4.8,8.6,4.5,19.1,2.5,28.5c-3.2,14.2-11,26.7-18.4,39.1
			c-4.5,7.7-9.8,15-13.7,23.1c11.9,10,26.5,15.6,39.9,23.2c8.6,4.1,15.6,10.6,22.8,16.6c4.1,3.8,9,6.8,12,11.5
			c-0.6,2.5-2.3,4.8-4.5,6.1c-4.4-1.9-7.7-5.4-11.3-8.3c-5.9-4.9-11.6-10.2-18-14.4c-9.8-5.6-20.1-10.3-30-15.9
			c-5.5-2.9-10.4-6.7-16-9.3c-8.6,16.7-14.4,34.5-21.6,51.8c-5.2,12.2-13.5,22.7-22.3,32.5c-11.3,12.7-23.7,24.3-35.8,36.1
			c-4.8,4.7-10.7,7.9-16.1,11.7c-10.3,6.8-20.5,13.8-30.9,20.4c-10.3,6.7-21.6,11.9-32.2,18.2c-14.1,8.1-24.8,20.8-35.4,32.9
			c-5.6,6.4-11.6,12.3-17.1,18.8c5.8,8.9,12.2,17.4,17.5,26.6c2.2,4.7,4.8,9.9,4.2,15.2c-2.7,2.9-7.1,2.8-10.8,3.3
			c-1.3-4.1-2.5-8.2-4.4-12c-3.1-6-7.1-11.4-10.8-17c-1.5-2-2.8-4.4-5.1-5.7c-5.8,0-11.5,1.6-17.3,1.9c-20.4,1.6-41.7,2.9-61.3-4.3
			c-14.7-5.3-26.6-16.1-41.3-21.7c-6.7-2.8-14-3.1-21.1-2.2c1.1,10.8,4.7,21.6,10.6,30.8c2.7,4.5,7.5,7.1,10.2,11.4
			c-0.5,2.4-1.9,4.6-3.9,6c-1.8,0.6-3.4-0.9-4.8-1.9c-8.8-6.8-14-17-17.7-27.3c-2.2-6-2.9-12.4-5-18.5c-12-0.5-24,0.9-36.1,1.3
			c-12.8,0.9-25.7,0.8-38.6,1.4c-8.1,0.2-16.2-0.4-24.3-0.8c-11.4-0.7-22.4-4.1-33.4-6.9c-6.5-1.8-12.9,1.2-19,3.1
			c-17.6,7.1-34.2,16.5-50.9,25.4c-13.2,6.4-26.1,14-40.3,18.1c-9.7,2.9-19.9,2.3-29.8,1.7c-24.9-1.9-49.5-6.6-74.4-8.8
			c-3.7-0.1-8.3-0.9-11.1,2.3c-4.9,5.3-9,11.4-14.5,16.2c-2.3,2.3-5.7,4.6-5.2,8.3c0.7,6.5,4.4,12.2,7.3,18
			c4.5,8.3,9.5,16.3,14.1,24.6c1.6,2.8,2.5,5.9,2.6,9c0.3,7.6,0.3,15.3,0.6,22.9c10,4.8,21.1,6.7,31.7,9.9
			c-0.4,3.4-0.2,7.1-1.9,10.1c-1.5,2-4.3,0.6-6.3,0.4c-9.7-2.4-19.7-4.6-28.7-9.1c-3.1-1.7-7-3.8-7.3-7.7
			c-0.7-8.1,0.1-16.2-0.3-24.3c-0.1-3.1-1.6-5.8-3.1-8.4c-5.8-10.2-12.2-20-17-30.7c-3.1-6.3-4.9-13.1-4.4-20.2
			c-17.6,4-34.9,9.1-52.5,12.8c-11.6,2.5-23.6,0.8-35.3-0.2c-4.1-0.5-7.9,1.6-11.8,2.5c-3.1,0.8-6.3,1.1-9.2,2.6
			c-2.4,2.4-3.3,5.8-4.7,8.7c-9.5,22.1-20.5,44.1-24.4,68.1c-2.3,14-1.7,29.1,5.3,41.8c6.9,12.9,18.7,22.3,31.6,28.7
			c16.2,8,33.7,13,50.9,18.3c13.9,4.3,26.3,12.5,36.8,22.5c2.9,3,6.4,5.8,8.2,9.7c-1.5,2.4-4,3.9-6.3,5.6
			c-3.6-3.3-6.7-7.1-10.4-10.3c-9.2-7.8-19.6-14.6-31.2-18.3c-10.7-3.3-21.4-6.5-32-10.2c-2.3-0.8-4.8-1.7-7.1-0.7
			c-10.7,4.3-22.3,5.8-33.6,7.8c-13.8,2.2-28.1,1.3-41.6-2.3c-6.4-1.5-12.5-4.4-18.9-5.9c5.3,5,11.8,8.4,17.9,12.3
			c37,22.7,78.7,38,121.8,43.5c21.2,2.6,42.5,1.7,63.8,1.9c12.6,0,25.2,0.9,37.8,0.1c20.5-1.3,40.7-5,60.9-8.4
			c16.3-3.1,33-5.5,48.5-11.7c24.3-8.6,50.2-10.8,75.8-11.3c34.2,0.3,68.3,3.4,102.5,2.4c15-0.6,29.9-1.8,44.9-2.4
			c10.8-0.2,21.6-0.4,32.4-0.3c9.3,0.1,18.6,0.1,27.8,1.3c21.9,3.2,43.3,8.7,64.9,13.1c7.9,1.6,15.9,2.8,23.9,3.5
			c0.9,0,1.7,0.1,2.6,0.1c2,0.1,4,0.3,6,0.4c5.9,0.2,11.8,0.2,17.7-0.1c20.8-1.1,41.7-2.8,62.4,0.4c9.7,1.5,19.5,3,29.3,4
			c23.3,2.6,46.6,4.7,70,6.1c9.4,0.4,18.8,0.7,28,2.8c11.9,2.3,23.9,3.2,35.9,4.3c12,1.2,23.9-0.8,35.9-1.2c4-0.3,8.3,0.1,11.9-2
			c3.3-1.8,6.3-4.9,6.5-8.8c1-9.1-3.2-17.7-7.9-25.3c-4.1-6.7-10.9-10.8-16.9-15.5c-8.2-6.4-16.6-12.6-24.3-19.7
			c-11-10.9-21-22.8-30.7-35c-3.5-4.1-6.2-8.8-10.1-12.5c-4.4-0.3-8.4,1.9-12.5,3.1c-29.6,10-61.2,13.5-92.3,10.2
			c6.2,6.5,12.4,13.4,15.7,21.9c2.2,4.6,2.4,9.9,2.3,14.9c-0.1,8,0.3,16.1-1.3,24c-2.8-0.1-5.7,0.4-8.2-1.1
			c-1.2-4.3,0.1-8.7,0.2-13.1c0.3-8.6,0.5-17.8-4-25.5c-6.6-11.5-17.7-20-29.9-24.9c-9.6-3.4-19.9-3.6-29.8-5.2
			c-37.4-4.5-74.8-8.7-112.3-12.5c-9.9-0.8-19.7-2.2-29.6-1.9c-23.1,1-46,4.1-69.2,4.5c-10.4,0-20.9,0.5-31.1-1.4
			c-10.7-1.6-20.2-7.1-29.9-11.4c-3.5-1.5-7.4-3.4-11.2-2c-5.9,1.9-11.2,5.4-16.7,8.5c-15.1,8.9-29.3,19.6-45.6,26.2
			c-16,6.5-33.6,5.5-50.6,5.6c-9.4,0.1-18.8-0.3-28-2c-12.9-2.1-25.7-4.9-38.3-8.4c-5.1-1.3-10.3-3-15.5-1.8
			c-10.8,1.8-19.2,9.4-28.2,15c-12.9,9.1-29,12.5-44.6,12c-10.5-0.3-21.1-0.8-31.4-2.7c-1.5-0.6-4.4-0.5-4.3-2.8
			c-0.1-2.5,0.8-4.9,1.4-7.2c10.2,0.9,20.3,3.1,30.7,3c10.9,0.3,22.1-0.3,32.3-4.6c8.7-3.7,16.1-9.6,23.8-14.8
			c5.1-3.5,10.9-5.9,17-7.2c7.2-1.5,14.6,0.1,21.6,1.9c12.5,3.1,25.1,6.1,37.9,8.1c16,2.7,32.4,2.9,48.6,1.8
			c8.1-0.7,16.3-1.6,23.9-4.9c18.2-7.5,33.7-19.8,50.8-29.1c5-2.7,10.1-5.5,15.7-6.8c5.8-1.3,11.1,2.1,16.2,4.2
			c9.2,4,18.3,9.2,28.5,10.3c10.5,1.2,21.1,1.7,31.7,0.9c22.5-0.7,44.9-4.1,67.4-4.4c11.7,0.2,23.3,1.4,34.9,2.6
			c22.6,2.3,45.2,4.8,67.8,7.4c19.8,2.3,39.6,4.3,59.3,7.3c7.8,1,14.8,4.8,21.9,7.9c0.8-1.3,1.6-2.6,2.4-3.9
			c16.4,3.3,33.4,3.3,50.1,2.3c32.3-3.6,63.4-14.3,92.3-28.9c16-8.9,31.6-18.6,47-28.5c5.5-3.5,10.6-7.6,16.3-10.9
			c1.9,2.1,4.4,4.2,4.7,7.2c-4.1,4.9-10.1,7.7-15.2,11.4c-15,9.8-30.3,19.1-45.9,27.8c-8.8,4.9-18.2,8.8-27.3,13.2
			c3.2,5.5,7.5,10.3,11.4,15.3c10.4,12.9,21.5,25.2,33.9,36.1c8.8,7.8,18.7,14.2,27.7,21.8c6,5.1,9.8,12.2,13.1,19.2
			c3.3,7.4,5.4,15.8,3.3,23.8c-1.3,5-5.1,8.7-7.9,12.8c13.8,1.1,27.8,0.5,41.6-0.6c19-1.8,37.7-6.5,55.3-13.9
			c-0.8-7,1.6-13.7,3.2-20.4c2.3-9.2,4.3-18.6,3-28.1c-1.6-11.5-2.9-23.4-0.4-34.9c1.5-6.6,6.3-11.6,10-17
			c5.4-7.9,12.6-14.9,15-24.5c4.2-15.6,3.7-32,1.5-47.8c-3.2-21-8.9-41.6-16.9-61.2c-2.2-5.8-5.3-11.2-7.1-17.2
			c2.6-1.5,5.2-3.1,7.7-4.7c-12.3,1-24.7,1.3-37,0.9c-8.1,0-16-1.5-24-2c6.6,38.6-0.9,77.6-4,116.2c-1,8.7-0.7,17.4-1.7,26.1
			c-2.9,0.1-5.8,0-8.7-0.2c-0.5-6.8-0.1-13.7,0.5-20.5c1.5-22.8,4.8-45.5,6.4-68.3c0.3-12.9,0.5-25.8-0.2-38.6
			c-3.5-32.2-15.2-63.5-33.6-90.2c-3.7-5.5-8-10.6-11.7-16.1c0.5-1.3,1-2.6,1.5-3.8c-5.4,3.3-10.7,6.9-16.1,10.3
			c-5.6,3.5-11.3,7.1-15.6,12.2c-20.3,23-30.6,52.9-50.5,76.3c-18.2,21.8-37.2,43.6-61.1,59.3c-7,5-14.8,8.9-20.8,15.2
			c-5.7,5.5-10.3,12.1-16.7,16.7c-2.7-0.9-4.5-3.3-6.4-5.3c5.1-6.7,10.9-12.7,16.7-18.7c6.9-7.2,16.1-11.5,24-17.4
			c22.9-16.3,41.8-37.4,59.3-59.3c10-12.6,17.6-27,25.7-40.8c7.6-13,15.4-26.1,26.4-36.4c6.1-5.9,13.7-9.8,20.7-14.5
			c13.2-8.7,25.9-18.2,37.6-28.9c10.8-10,21-21,28-34.1c7.2-12.9,9.3-27.8,10.5-42.3c0.2-4-1.5-7.7-2.7-11.4
			c-4.9-13.9-10.3-27.7-13.8-42c-4.3-17.7-6.1-35.8-9.3-53.6c-3.3-18.8-7.4-37.5-12.3-56c-7.1-26.7-16.5-53.3-33-75.8
			c-9.4-12.9-21.4-24-35.2-32.2c-13.9-8.3-29.2-13.8-45-17.1c-18-4.2-36.9-3.5-54.9,0.7c-2.7,0.8-5.8,1-8,2.9
			c-2.9,4.2-4.7,9-7.4,13.2c-5,8.7-11.9,16.2-19.1,23.1c-1.2,0.8-2.5,2.6-4,1.6c-2.1-1.3-4-3.3-4.5-5.8c1.2-2,2.8-3.6,4.4-5.3
			c10.8-10.6,19.6-23.6,23.7-38.3c1.6-6.2,2.1-13.3-1.4-18.9c-7.1-12-17.6-21.3-27.5-30.9c-27.5-24.9-57-47.3-86-70.4
			c-2.5-2.2-5.8-4-7.2-7.2c0.8-2.6,2.9-4.4,4.7-6.4c6.5,4.1,12.3,9.2,18.3,13.9c9.6,7.5,19.3,14.9,28.7,22.6
			c23,18.8,46.7,37.1,66.6,59.2c4.6,5.4,9.1,10.9,12.3,17.3c3.1,6.2,2.2,13.2,2.6,19.9c3.4-0.6,6.9-1.3,10.3-2
			c8.7-1.7,17.6-1.3,26.5-1.3c17.2-0.6,34,4.4,50,10.1c28.2,10.2,51.9,31.2,67.4,56.7c8,12.9,14,27,19,41.2c2.8,8.2,7.3,15.7,12,23
			c7.1,10.5,14.7,20.6,22.5,30.6c21.7,28.2,44.6,55.6,66.2,83.8c9.5,12.5,18.9,25.2,26.6,38.9c2.8,0.6,5.6,1.3,7.7,3.2
			c6.9,5.9,13.6,12.1,20.4,18.2c4.3,3.7,6.6,9,8.3,14.2c3.8,11.8,4.6,24.4,5.2,36.7c0.5,18.6-1,37.2-3.6,55.6c-0.5,4.3-2.3,9,0,13.1
			c4.2,8.8,7.7,17.9,12,26.6c3,5.9,5.6,12.1,9.6,17.4c0.6-11.8-0.7-23.6-1.2-35.4c-1.4-25.5-4.1-50.9-8.8-75.9
			c-5.6-28.9-13.5-58-29.1-83.3c-3.6-6.1-8.9-10.9-13.3-16.4c-3.2-5.4-3.6-11.9-5.8-17.7c-6-19-14.4-37.2-24.9-54.1
			c-6.7-10.6-14.2-21-23.4-29.7c-6.2-5.9-13.8-9.8-21.3-13.8c-5-2.5-4.9-8.7-5.5-13.4c-0.7-11.2-1.6-22.5-4.3-33.4
			c-6.6-29.5-22.7-56.2-43-78.3c-19-20.4-41.5-37.7-66.1-50.8c-5.2-2.3-3.9-8.8-5.6-13.2c-4.1-12.5-12.6-23-21.2-32.7
			c-6.6-7.2-14.2-13.5-19.6-21.8c-11.5-17.4-25.1-33.4-40.8-47.2c-22.2-19.8-47.7-35.7-74.3-48.8c-32-15.4-65.6-27.3-100-35.7
			c-10.3-2.6-20.8-4.1-30.8-7.8c-5.4-2-10.5-4.6-15.8-6.7c-25.5-10.5-52.3-17.3-79.6-21.1c-21.1-3.1-42.6-1.9-63.8-2
			c-16.1-1.1-32.7-4.5-48.5,0.2c-7.6,2.5-15.6,5.2-21.5,11c-7.5,7.1-14.4,15-22.5,21.5c-5.8,4.7-12.6,7.8-18.9,11.7
			c3.7,8.6,7.4,17.3,12.6,25c2,3.2,5.3,5.1,8.7,6.5c10.6-13.1,21.5-26.5,36.3-35.1c12.7-7.6,27.6-10,41.9-13
			c7.3-1.2,14.5-3.5,21.9-3.5c0.1,1.9,0.4,3.8,0.1,5.7c-5.4,2.3-11.3,2.5-17,3.8c-13.8,2.9-28.2,4.6-40.8,11.4
			c-7.7,3.8-14.7,9.1-20.5,15.4c-4.8,5.2-10,10.2-13.1,16.6c22,2.7,44.8,2,66,9.2c14.5,4.7,26.3,14.8,38.4,23.6
			c4.4,3.4,10.3,1.7,15.4,2.1c4.3-0.3,10,1.3,12.9-2.9c3.9-5.6,5.4-12.4,7.1-18.9c2.5-9.3,3.9-19,8.3-27.7
			c3.4-6.8,10-11.1,16.1-15.3c9.1-6.1,18.9-11.2,29.2-14.7c5.8-1.9,11.9-3.4,18.1-2.8c5.6,1.4,10.6,4.5,16,6.6
			c23.7,10.3,47.4,20.7,71.9,28.8c10.6,3.6,21.6,5.5,32.1,9.2c12.7,4.4,24.8,10.1,36.7,16.2c16.3,8.4,32.1,17.7,46.7,28.8
			c9.5,7.5,19.6,15.6,23.9,27.3c3.5,8.8,3.3,18.4,3.7,27.7c11,5.2,21.6,11.1,31.7,17.9c26.7,18,49.2,41.2,70.1,65.5
			c10.1,11.6,19.4,23.8,29.5,35.3c10.5,12.3,21.7,24.1,30.9,37.4c4.4,6.3,8.6,12.9,13.9,18.4c2.4,2.5,5.5,4.3,7.4,7.3
			c-1.1,3.2-2.7,6.4-5.3,8.6c-1.4,1.2-3-0.4-4.2-1.1c-9.6-7.3-16.2-17.6-23.1-27.3c-11.1-15.4-24.1-29.2-36.4-43.5
			c-13.1-16.4-26.8-32.5-41.2-47.8c-10.9-11-21.6-22.2-33.9-31.7c-11.7-9-23.9-17.4-37.2-23.9c-4.5-2.4-9.9-2.7-14.1-5.7
			c-5.9-4.1-13.1-5.7-19.8-8.1c-15.7-5.3-32.9-4.3-48.1-11.1c-23.3-10.2-43.5-26.2-66.6-36.8c-13.7-6.3-28.5-9.8-43.4-11.4
			c-20.2-2-40.6-1.3-60.8,1.2c-20.4,2.8-40.6,7.1-60.6,12.2c-4.8,1.1-9.8,3.4-14.7,1.5c-6,9.6-11.2,19.8-17.4,29.3
			c-9.9,15.9-20.6,31.3-32.2,46c-8.6,11-17.9,21.5-29.1,29.9c5.2,11.2,11,22.7,11.3,35.3c0,9.6-3.6,18.7-5.9,28
			c-2.8,9.9-4.3,20.1-4.7,30.4c-0.1,4.4-1.1,8.8-0.4,13.2c1.4,5,5,9.1,6.4,14.1c1.2,2.7-2.5,3.8-4.4,4.6c-2.5,1.2-3.8-1.7-5-3.3
			c-3.1-5.2-6.5-10.7-6.5-17c0.2-13.9,0.8-28,4.6-41.4c2.3-9.5,5.7-18.9,6.1-28.8c0.3-10.7-5.5-20.2-9.6-29.7
			c-1.3-3-2.5-6.5-5.8-7.8c-14.4-7.1-28.5-15.1-42.4-23.2c-3-1.8-6.2-3.4-8.5-6.1c-0.6-2.6,1.1-5.1,2.9-6.7c2.8-0.3,5.2,1.5,7.6,2.7
			c13.9,8.6,28.3,16.5,42.9,23.8c2.6,1.1,5.8,3.1,8.5,1.2c6.3-3.7,11.2-9.2,15.9-14.7c11.4-13.4,21.7-27.7,31.3-42.4
			c8.6-13.3,17.4-26.5,24.6-40.6c-10.4-8.7-21.4-16.6-32.6-24.1c-6.2-3.7-13.1-6-20-7.9c-3.2-0.8-6.7-2-9.7-0.2
			c-8.4,4.4-16.7,9.1-25,13.6c-21.9,11.9-43,25.3-65.2,36.4c-5.9,2.9-12.2,5.3-16.9,10c-4.2,4.2-8.4,8.4-12.6,12.6
			c-7.2,7.4-15.2,14.2-21.6,22.4c-4.7,6.5-8,13.9-11.2,21.2c-6.2,15.4-11.3,31.5-12,48.2c-0.9,20.5,0.6,41.3,5.4,61.3
			c2.5,10.9,6.4,21.3,9.4,32c0.3,2,1.6,4.8-0.5,6.2c-2.5,1.5-5.7,2.8-8.6,2.1c-1.5-1.8-2.7-3.9-4.5-5.4c-4.1-3.2-5-8.7-8.1-12.6
			c-8.2-11.1-17.9-21.5-23-34.5c-2.1-5.6-5.1-10.9-6-16.8c1.8-2.3,5-2.9,7.6-3.8c6.5,13.3,10.7,28.2,21.4,38.9
			c-0.8-7.9-2.6-15.7-3.4-23.5c-1.2-8.3-1.5-16.6-2.7-24.9c-7.2-4.1-7.5-13.8-13.9-18.7c-3.4-2.5-7.7-3.2-11.7-4.5
			c-13.2-4-24.7-12-35.8-20c-2.6-2-5.5-3.8-7.2-6.6c1.1-2.5,3.1-4.4,4.9-6.3c10.4,6.3,19.7,14.4,30.8,19.7
			c7.4,4.1,15.8,5.6,23.9,8.2c-8.2-15.4-19.1-29-29.9-42.7c-5-6.4-10.6-12.4-14.8-19.4c2-1.7,3.9-4.5,6.9-4.3
			c2.5,1.7,4.3,4.3,6.2,6.5c11.7,14.2,23.3,28.5,33.3,43.9c2.8,4.2,5,9,8.5,12.7c3.8-19,10.1-37.6,19-54.8
			c4.2-8.5,10.8-15.4,17.4-22.1c9.4-8.9,18.5-18.1,27.2-27.6c7.3-8.2,14.9-17.5,15.9-28.8c0.4-4.4-3.3-7.2-6.4-9.6
			c-13.3-10.6-27.4-20.4-40-31.9c-6.8-6.2-15.1-10.6-23.4-14.4c-3.1-1.4-6.3-2.6-9-4.7c-0.6-3.9,2.1-7.3,3.7-10.6
			c9.8,2.8,18.9,7.7,27.5,13c7,4.6,12.8,10.6,19.4,15.7c10.2,8.4,21.1,16,31.2,24.4c3.4,2.9,6.9,6.2,8.3,10.6
			c1.1,3.9,1.3,8.1,1.7,12.1c4.1-4.6,7.9-9.4,11.8-14.2c4.4-5.6,9.1-11,12.4-17.3c-5-3-10.2-6.2-13.2-11.3
			c-7.8-12.8-13.5-26.8-19.9-40.4c-5.5-11.7-14.6-21.3-24.5-29.5c-13-10.7-28.8-18-45.5-20.1c-13.5-1.5-27.6-0.6-40.4,4.5
			C1607.2,166.6,1598.7,170.7,1592.4,177.6z M1286.6,1081.3c2.2,0,4.1,1.4,6,2.5c14.1,9.2,27.9,18.8,41.4,28.8
			c6.4,5.1,13,9.9,18.8,15.7c-1.4,1.3-2.8,4.2-5.1,3c-5.3-2.8-9.6-7.2-14.5-10.8c-13.5-10.4-27.6-19.9-41.6-29.5
			c-2.8-1.9-5.5-4-8.1-6.3C1284.6,1083.6,1285.5,1082.4,1286.6,1081.3z M1581.1,895.2c-3.6-1.6-5.9-4.9-8.6-7.6
			c-2.5-3-5.8-5.6-7-9.4c2-3.1,5-5.2,7.7-7.5c5.5,5.5,11.6,10.8,15.7,17.5C1587.5,891.5,1584.4,894,1581.1,895.2z M1776.8,1013.8
			c-1.7,0.9-3-1-4.1-1.9c-4.9-5.1-9-10.9-13-16.7c-6.2-9-8.7-20.2-8.2-31.1c0.4-6.4,0.9-12.9,2.5-19.2c0.8-4.2,6.1-1.8,8.9-1.4
			c-0.1,10.5-3.6,21-1.1,31.5c1.4,9.3,6.9,17.1,12.8,24.2c2.4,3.2,5.6,6.1,7,10C1780.9,1011.4,1778.8,1012.9,1776.8,1013.8z
			 M1931.1,512.7c3.2-1.2,4.9-4.3,6.6-7c3-5,6.4-9.9,9.4-14.9c6.2-10.3,11-21.3,15-32.5c3-8.6,5.3-17.6,4.9-26.8
			c-0.1-7.5-2.8-14.7-3.3-22.2c-0.6-6.8,1.2-13.6,4.6-19.5c4.9-8.3,11.6-15.2,18.4-22c3.3-3.2,6.4-6.8,10.7-8.7
			c2.4,1.2,3.7,3.6,5.2,5.7c-5.9,7.2-13,13.3-19,20.4c-4.6,5.4-9.3,11.4-10.1,18.7c-0.8,7.9,2.4,15.4,2.9,23.3
			c1.9,17.9-4.8,35.3-11.9,51.3c-2.7,6.5-6.5,12.4-9.2,18.8c7.8-5.3,13.8-12.6,20.4-19.3c8.3-7.8,16.9-15.9,27.7-20
			c9.5-3.8,19.7-6.2,30-6.2c12-0.2,23.9-0.3,35.9,0c15.7,0.5,30.2,8.5,41.8,18.6c21.1,18.4,35.5,43.4,44.4,69.8
			c6.9,19.5,10.8,39.9,13.1,60.5c7.9-4.3,14.4-10.8,21.7-15.9c5.1-3.7,11.4-5.2,17.3-6.9c4.1-1.2,8.4-1.7,12.7-2
			c0.5,2.6,2,5.5,0.7,8.1c-7.5,3.6-16.5,3.4-23.6,8c-6.6,4.3-12.7,9.5-19,14.3c-3,2.5-6.7,4.1-9.2,7.1c-0.9,3.1-1.4,7.4,1.9,9.3
			c6.7,4.5,15,4.5,22.7,5.9c0.2,3.8,0.2,7.7-0.5,11.5c-10.1,0.8-20.6-1.4-29.1-7c-4-2.7-7.7-6.8-7.9-11.8
			c-0.4-6.2,0.4-12.5-0.3-18.7c-3.3-33-11.9-66-29.5-94.4c-6.9-11.5-16-21.7-26.4-30.2c-5.9-4.6-12.2-8.9-19.4-11.2
			c-6.1-1.7-12.4-2.2-18.7-2.6c-13.2-0.5-26.5-0.4-39.5,1.7c-8.1,1.3-16.1,3.9-22.9,8.6c-12.1,8.4-21.5,19.9-32.4,29.6
			c-9.2,8.6-19.5,16.3-31.5,20.6c-12.5,4.4-25.2,8.2-38.1,11.4c-1.9-3.4-3.2-7.1-3.9-10.9C1905.6,519.7,1918.9,517.7,1931.1,512.7z"
			/>
		<path d="M907.6,610.9c2.9-3.1,6.6-5.2,10.3-7.3c-2.7-7.1-7-13.7-7.9-21.4c-0.8-6.2-0.8-12.4-0.6-18.7c0.4-10.1,4-19.8,8.4-28.8
			c6.2-12.8,13.6-25,21.7-36.8c7.4-10.4,15-20.7,24.3-29.6c8.7-8.4,20.7-11.5,32-14.6c15.6-4,31.7-6.4,47.7-8.1
			c2.5-0.4,5.5-0.5,6.9-3c2-3.3,3.1-7,4.7-10.5c6.1-13.6,12.9-27,20.1-40.1c5-9.1,11.2-17.5,17.7-25.5
			c16.3-20.1,34.8-38.6,55.6-54.1c9.2-6.6,19-13,30.1-15.6c14.1-2.4,28.7,0.1,42.8-2.3c4.7-0.7,7.6-4.9,10.7-8.1
			c9.6-9.9,17.9-21.5,30.2-28.2c20.8-12,43.9-20.3,67.7-23.3c9.4-1.3,18.6,1.5,27.9,1.6c0.1-5.5-0.2-11,0.2-16.5
			c0.4-6.3,3-12.4,7-17.3c1.1-1.3,3.1-3.3,4.8-1.6c1.9,1.8,4.7,4.7,2.7,7.3c-1.6,3-3.6,5.8-4.3,9.1c-1.5,6.6-0.8,13.5,0.2,20.1
			c12.7,1,25.5,0.5,38.2,1.1c21,0.1,42,0.2,63,0.4c10.6,0.6,21.2,0,31.8,1.1c9.9,1,20,1.4,29.4,4.9c7.6,2.5,14.6,6.2,21.7,9.7
			c4.1-10,6.4-20.7,10-30.8c1.5-4.3,4.6-7.8,7.6-11.3c-7.5-12.9-16.1-25.4-27.2-35.5c-3.3-3-7.2-5.4-11.7-6.2
			c-8.1-1.4-16.4-1.1-24.6-1.5c-0.4-2.4-0.9-4.8-1.3-7.2c-7.6,1.1-14.4,5-21.7,7c-5.7,1-11.4-0.7-17.1-1
			c-14.5-0.9-29.1-1.5-43.7-1.2c-35.9,1.1-71.5,8.4-104.9,21.7c-31.3,12.6-61,29.8-86.6,51.9c-3.9,3.2-7.3,7.1-11.2,10.3
			c-3.2,2.8-7.6-0.3-11.1,1.6c-2.7,1.3-5.5,2.5-8.3,3.3c-6.1,1.8-11.9,4.6-17.6,7.5c-13.8,6.9-27.1,15-39,24.9
			c-23.8,18.3-43.1,41.4-64.3,62.4c-2.8,3-6.7,4.5-10.5,5.8c-7.9,2.6-15.7,5.3-24,6.7c-2.5,0.3-4.6,1.7-6.4,3.3
			c-7.3,6.5-14.3,13.3-21.4,20c-7.5,6.6-14.1,14.3-22.8,19.5c-12.8,7.7-23.7,18.3-33.1,29.8c-9.5,11.7-17.5,24.5-24,38.1
			c-6.2,13.1-12.2,26.4-16.4,40.3c-2.5,8.2-7.8,14.9-11.8,22.3c-9.2,16.7-17.8,34.6-18.8,54c-0.9,11.1,1.4,22.6,7.6,31.9
			C902,619,904.1,614.3,907.6,610.9z"/>
		<path d="M2020.8,275.6c17.9,1.1,35.6,5.1,52.1,12c15.2,6.5,29.1,15.7,43.3,24.2c11.9,7,23.8,14.6,37.6,17.2
			c10.8,2.1,21.8,3.2,32.3,6.3c6.9,1.8,13.4,5,20.4,6.6c0.6-9-1-18.6-6.3-26.1c-4.5-6.2-10.4-11.2-16.4-16
			c-17.7-13.6-37.5-24.4-57.6-34c-14-6.7-28.7-12.1-43.9-15.5c-25.2-6.8-49-17.5-73-27.6c-8.3-3.4-16.4-7.5-24.9-10.1
			c-5.4-1.8-10.9,0.3-15.9,2.3c-9.3,3.6-18.3,8.3-26.6,13.9c-5.1,3.5-10.4,7.4-12.6,13.4c-3.8,9.9-5.2,20.4-8.1,30.5
			c-1.4,4.6-3.6,9-5.2,13.5c6.8-0.7,13.4-2.7,20.1-4C1963.8,276.3,1992.4,273.7,2020.8,275.6z"/>
		<path d="M1075.4,341.9c7.5-7.5,14.9-15.1,22.1-22.8c19-20.1,39.4-39.3,62.9-53.9c6.5-4.1,13.7-7.2,19.9-11.8
			c-6.6,1.2-12.7,3.8-18.7,6.6c-13.9,6.7-26.8,15.4-39,24.8c-19.2,15-37.1,31.8-53.5,49.8c-4.8,5.2-9.9,10.1-13.9,16.1
			C1062.3,348.9,1070.2,347.5,1075.4,341.9z"/>
		<path d="M1726.6,311.1c2.7-1.1,5.4-2.4,8-3.8c19.2-10.2,37.7-21.7,56.8-32.1c5.5-3.2,11.4-5.7,16.4-9.7c-13.7-2-27.5-2.4-41.2-3.6
			c-8.7,11.7-17.5,23.3-27.1,34.2C1735.3,301.2,1730.4,305.7,1726.6,311.1z"/>
		<path d="M2536.8,902c-3.2-6-5.4-12.4-9.1-18c-0.7,7.7,1,15.3,2.7,22.7c0.8,3.9,2,7.7,1.7,11.7c-2.2,1.8-5.2,1.3-7.8,1.7
			c-3-7.7-4.6-15.9-5.8-24c-1.5-11,0.2-22,2.1-32.8c4.6-28,6.9-56.7,3.4-85c-1.6-8.4-2.9-17.7-9.5-23.8
			c-5.5-5.2-11.1-10.4-17.2-14.9c-0.8,13.4-1,26.8-3.8,39.9c-1.6,8.3-4.2,16.3-7.2,24.2c-2.9,7.4-3.8,15.4-5.7,23.1
			c-2.2,9.1-2.4,18.7-0.8,27.9c-2.7,0.5-5.6,2-8.3,1.1c-2.1-2.5-2.1-6-2.4-9.1c-0.8-11.6,2.7-22.7,4.7-34c1.3-8.3,5.3-15.8,7.5-23.9
			c4.5-15.9,6.6-32.6,5.7-49.2c-0.4-8-5.5-14.5-9.4-21.1c-6.4-9.6-13.5-18.8-20.5-28c-21.5-27.9-43.9-55-65.5-82.8
			c-4.2-5.2-7.8-10.8-12.5-15.6c0.4,5.5,1.7,10.9,2.9,16.3c4.7,20.2,7.4,40.7,10.7,61.2c2.3,16.2,7.4,31.9,13,47.3
			c2.3,7.1,5.5,14,7.3,21.3c0.2,6.7-1.2,13.4-1.8,20.1c-1.2,11.9-5.7,23.1-11.5,33.4c-5,9.3-11.7,17.5-19.1,25
			c-11.2,11.5-23.6,21.6-36.4,31.1c2.1,0.9,4.3,1.9,5.8,3.8c15.2,19,27.3,40.7,35.1,63.7c2.2,6.4,3.9,12.9,6.1,19.2
			c7.2,1.9,14.7,2.4,22.1,2.9c8.1,0.3,16.2,1.1,24.3,0.4c19.9-1.1,39.3-6.1,59.1-8.7c4.7-0.5,9.4-1.7,14.2-1.1
			c1.2,2.4,1.2,5.1,1.6,7.7c-8.2,2.5-16.7,3.4-25.1,4.8c-10.3,1.7-20.6,3.2-30.7,5.4c7.6,13.9,12.8,29,17.5,44.1
			c3.7,12.8,6.9,25.8,8.8,38.9c1.8,13.2,1.4,26.5,1.6,39.8c6.7-6.5,13.3-13.1,18.8-20.7c10.1-13.6,15.7-29.9,25.4-43.9
			c3.8-5.4,7.1-11.3,11.8-16.1c2.7-0.2,5.1,2.4,6.7,4.4c-0.1,2-1.5,3.6-2.4,5.2c-4.5,6.4-9,12.8-12.8,19.5
			c-4.5,7.6-8.2,15.7-12.6,23.5c-6.1,11.4-14.4,21.4-23.4,30.6c7.8,9.1,16.6,17.1,24.2,26.3c3.3,3.7,4,8.7,5.1,13.3
			c3.4-5.6,5.4-11.9,7.7-18c3.3-9.5,6.5-19.1,9-28.8c9.7-38.1,14-77.6,12.8-116.9c-0.3-5-2.7-9.4-4.1-14.1
			C2547.1,922.4,2542,912.2,2536.8,902z"/>
		<path d="M919.1,763.6c7.2,10.3,14.8,20.4,24,29c4.3,4,5.7,10,6.8,15.6c1.4,7.8,3.3,15.4,5.9,22.9c8.5,24.6,24.4,46.1,43.7,63.3
			c22.1,19.7,48.5,34.2,75.8,45.5c30.2,12.5,62.2,20.4,94.4,25.6c2.3-16.3,3.7-32.6,6-48.9c0.2-2.3,0.7-4.7,0.1-6.9
			c-1.2-1.6-3-2.7-4.7-3.7c-4.9-2.7-9.9-5.5-15-7.7c-7.2,9.6-17.2,17-28.1,21.8c-7.1,3-15,1.9-22.3,0.9c-0.1-2.8,0-5.7,0.4-8.5
			c4.4-0.5,8.8-0.3,13.3-0.4c4.7-0.1,8.8-2.8,12.8-5c6-3.4,11.3-7.9,15.3-13.6c-4.4-5.5-9.7-10.3-14.3-15.8
			c-4-4.8-7.9-9.5-11.5-14.6c-1.8-2.6-3.5-5.7-6.7-6.8c-10.4-4-21.1-7.5-30.4-13.6c-3.2-2-6.1-4.4-9.7-5.7c-2.2-0.8-4.5,0.1-6.6,0.8
			c-11.1,4.4-21.7,10.2-32.6,15.1c-9.9,4.3-20.4,8.3-31.5,8.1c-10.7,0-21.5-1.1-31.6-4.8c0.1-2.8,0.7-5.6,1.7-8.2
			c3.8,0.3,7.6,0.9,11.4,1.7c9.8,2,20,2.4,29.8,0.1c7.5-1.7,14.5-5,21.4-8.2c6-2.9,12-5.6,17.6-9.2c-13.2-3.4-27.3-4-39.7-10
			c-12.6-6.1-22.6-16.3-32.1-26.3c-11.9-12.4-21.8-26.6-30.7-41.3c-8.4-14-10.9-30.6-11.6-46.7c0-10.1-0.6-20.3,1.2-30.2
			c1.5-8.6,4.6-17.2,10-24.1c3.8-4.9,8.7-8.8,12.4-13.8c-6-3.9-12.6-6.7-18.5-10.9c-6.5-4.2-12.3-9.2-18.1-14.2
			c-3-2.9-7.7-2-10.6,0.5c-4.7,4-7.8,9.6-10,15.3c-1.8,4.7-5.2,8.6-7.8,12.9c-5.1,8.5-8.4,18.2-9.6,28c-2.1,18,1.6,36.2,8.4,52.8
			C903.7,738.2,910.6,751.4,919.1,763.6z"/>
		<path d="M1160.9,872.3c-7.4-2-14.5-5.1-21.9-7c3.7,5.8,8.6,10.7,13.8,15.1c5.5,4.6,12,7.9,18.2,11.5c2.5,1.5,5.3,2.7,8.1,3.6
			c2.2-5.7,4.5-11.3,7.4-16.6C1178,876.3,1169.3,874.9,1160.9,872.3z"/>
		<path d="M2451.1,1195.5c27.5-14.8,49.4-38.7,64.9-65.5c2.3-3.9,1.1-8.6,0.9-12.8c-0.7-5.4-0.4-11.5-4.4-15.7
			c-7.5-8.3-15.6-16.2-23.1-24.5c-4.4,3.5-8.9,7.1-11.6,12.1c-6,10.2-14,19.2-20.2,29.3c-3,4.7-3.1,10.5-2.9,15.9
			c0.4,11.1,3.1,22.1,1.9,33.2C2455.9,1177,2452.4,1186,2451.1,1195.5z"/>
		<path d="M2323.9,1219.7c-3-0.7-6.1,0.1-9.2,0.8c-30.1,6.4-59.9-5.8-89.7-7.8c-28.2-1.8-56.7-2.7-85-4.1
			c-25.5-1.3-42.3-0.9-69.3-2.7c-27-1.8-56.8-4.8-85.7-8c-28.8-3.2-44.7-8.3-73.7-9.7s-47.1,3-77.3,3c-30.2,0-67-8.6-77.1-1.9
			c-11.7,7.7,26.8,54.2,36.8,81.9c10,27.7,4.9,51.5,19,73c14.1,21.5,29.6,27.5,51.7,40.7c22,13.2,67.5,35.6,98,43
			c31.8,7.7,65.2,4.6,97.6,5.5c21.1,0.6,42.4,1.2,63.4-1.7c20.6-2.8,40.4-9.5,60.1-15.7c17.1-5.4,33.9-11.1,49.8-19.4
			c18.8-9.8,30.5-14.9,45-30.3c16.5-17.5,27.8-42.6,36.1-64.9c1.5-4.1,3-8.3,5.8-11.7c2.6-3.2,6.1-5.4,9.1-8.1
			c6.8-6.2,8.4-18.1,8.1-26.9C2337,1245.4,2335.3,1222.4,2323.9,1219.7z"/>
	</g>
</g>
</svg>
