<?xml version="1.0" encoding="UTF-8"?>
<!DOCTYPE svg  PUBLIC '-//W3C//DTD SVG 1.1//EN'  'http://www.w3.org/Graphics/SVG/1.1/DTD/svg11.dtd'>
<svg enable-background="new 0 0 1898.3439 1897.6279" version="1.1" viewBox="0 0 1898.3439 1897.6279" xml:space="preserve" xmlns="http://www.w3.org/2000/svg">
		<path d="m942.09 74.023c-5.9904 16.128-11.021 29.376-11.136 29.376s-12.365-6.912-27.187-15.398c-14.861-8.448-27.072-15.322-27.149-15.206-0.077 0.0768 4.4928 13.248 10.214 29.299 5.6832 16.013 10.368 29.338 10.368 29.568s-0.4608 0.5376-1.0369 0.6528c-0.6144 0.1152-14.131 2.5728-30.067 5.4528-15.936 2.88-29.299 5.3376-29.683 5.4912-0.5376 0.2304 5.9136 4.1856 26.381 16.205 14.899 8.7552 27.11 16.013 27.11 16.128s-8.9856 10.982-19.93 24.192c-10.982 13.21-19.891 24.038-19.853 24.115 0.077 0.0384 14.016-2.2272 30.95-5.1072 16.973-2.8416 30.95-5.1072 31.066-4.9536 0.1152 0.1152 0.2688 14.208 0.3457 31.296 0.077 17.088 0.2688 31.066 0.3839 31.066 0.1537-0.0384 9.3313-10.714 20.429-23.808 11.098-13.056 20.352-23.693 20.544-23.654 0.2303 0.0384 9.4463 10.79 20.544 23.846l20.16 23.77 0.3071-31.45c0.192-17.318 0.384-31.565 0.4993-31.642 0.077-0.0768 13.939 2.1888 30.758 5.0688 16.819 2.88 30.682 5.184 30.758 5.0688 0.077-0.0768-8.8704-11.059-19.93-24.384-11.904-14.438-19.853-24.384-19.622-24.538 0.2305-0.1152 12.442-7.2192 27.11-15.782 19.046-11.136 26.496-15.629 26.035-15.821-0.384-0.1536-13.939-2.7264-30.221-5.6832-16.243-2.9952-29.914-5.5296-30.374-5.6832-0.7679-0.2688-0.2688-1.728 9.7152-29.606 5.76-16.128 10.445-29.376 10.368-29.453-0.077-0.0768-12.211 6.6816-26.995 15.091-14.746 8.3712-27.11 15.283-27.418 15.36-0.4608 0.1152-2.9952-6.4128-11.328-29.03-5.9136-16.09-10.867-29.222-10.982-29.222s-5.1072 13.21-11.136 29.376zm18.278 30.336c3.9167 10.522 7.1423 19.2 7.2576 19.277 0.077 0.0768 8.2177-4.4544 18.086-10.061 9.9072-5.6064 18.048-10.138 18.086-10.061 0.077 0.0768-2.9952 8.7936-6.7969 19.43-3.8015 10.637-6.8735 19.354-6.7968 19.392 0.077 0.0768 8.9471 1.728 19.699 3.6864 10.79 1.9584 19.968 3.6864 20.429 3.8016 0.6144 0.192-3.2257 2.5728-17.011 10.598-9.792 5.6832-17.779 10.445-17.779 10.56s5.9136 7.3728 13.171 16.128c7.2574 8.7552 13.171 15.974 13.133 16.013-0.0389 0.0384-9.1392-1.4592-20.237-3.3408-11.059-1.92-20.237-3.456-20.39-3.456-0.192 0-0.3073 9.3312-0.3073 20.774 0 11.75-0.1536 20.698-0.3456 20.621s-6.1824-7.0272-13.363-15.475-13.171-15.36-13.363-15.36c-0.192 0-6.2976 6.9888-13.594 15.552l-13.286 15.59-0.2305-6.5664c-0.1536-3.5712-0.2688-12.902-0.3071-20.659-0.038-13.286-0.077-14.131-0.6913-13.939-1.1904 0.3456-40.128 6.7968-40.282 6.6816-0.038-0.0768 5.76-7.1808 12.941-15.859 7.1425-8.64 13.018-15.782 13.018-15.898s-5.76-3.6096-12.787-7.7184c-6.9888-4.1088-15.091-8.832-17.933-10.522l-5.184-3.072 20.352-3.6864c16.704-3.0336 20.352-3.8016 20.237-4.3008-0.038-0.3072-3.1104-9.1008-6.7968-19.507-3.7247-10.406-6.6816-18.97-6.6047-19.046 0.077-0.0768 7.7184 4.1856 17.011 9.4848 9.2544 5.2992 17.318 9.8688 17.856 10.138l0.9984 0.5376 7.2576-19.546c3.9935-10.714 7.296-19.469 7.3728-19.392 0.077 0.0384 3.3027 8.7168 7.1812 19.2h-1e-4z"/>
			<path d="m539.14 278.71c0.7637 0 2.2324-0.2937 3.1722-1.0574l1.0575-3.3485c-0.0588-0.0587-0.1175-0.1175-0.235-0.1762-0.8812 0.4112-1.8799 0.6462-2.8198 0.6462-0.5287 0-1.1749-0.1175-1.7623-0.3525l-1.645 3.231c0.1762 0.6462 1.116 1.0574 2.2324 1.0574z"/>
			<path d="m560.23 230.95l13.218-4.5234s5.5809-17.271 11.808-17.271c0.2349 0 0.4699 0 0.7049 0.0587 0.2938 0.0587 1.4099 0.5875 1.645 0.6462l0.1174-0.7049c-0.6462-0.47-2.2911-1.5274-2.7023-2.4673-2.7023 1.8799-7.4608 9.0469-9.0468 11.69-0.1175 0.235-0.47 0.5875-1.1749 0.5875-0.4112 0-0.8224-0.1175-1.2338-0.2937-0.5875 1.4686-1.1749 5.3459-1.6448 7.0495-3.5247-1.3512-14.158-6.6383-16.39-7.5195-0.1763 1.8799-0.4112 4.1122-0.7637 5.4634-1e-4 1.7622 5.2871 5.1695 5.4633 7.2844z"/>
			<path d="m574.04 217.38c0.2937 0.1175 0.6462 0.1762 0.8812 0.1762s0.4112-0.0587 0.47-0.235c0.3524-0.5875 6.0508-9.6343 9.0468-11.632-0.4112-0.8224-0.705-1.7624-1.1161-2.996-0.0588-0.1762-0.1175-0.2937-0.1175-0.47-0.235 1.1749-1.0574 2.2323-3.1723 2.4673-0.705-0.0587-2.1736-1.3512-3.4659-1.8798-0.1176 0.4112-0.2938 0.8224-0.2938 1.2337 0.1762 0.0587 0.3525 0.1762 0.5287 0.235 0 0.1762 0.0588 0.3525 0.0588 0.5287h-0.5875c-1.5862 6.1683-3.1723 10.163-3.3486 11.338-0.0587 0.4112-0.0587 0.5875 0.0587 0.6462 0.2939 0.2937 0.5289 0.3524 1.0575 0.5874z"/>
			<path d="m575.63 202.05c0.9987 0.0588 2.1149 0.7637 3.1135 1.4099 0.47 0.2937 1.0575 0.705 1.3512 0.7637 1.0574-0.1175 1.7624-0.5287 2.1736-1.1749 0.5875-0.9399 0.47-2.1736 0.2937-2.8785-0.0587-0.235-0.1174-0.4112-0.1174-0.4112 0-0.0588-0.0588-0.1175-0.0588-0.1175-1.2924-1.8211-2.996-2.2911-4.1709-2.6436-0.3525-0.1175-0.705-0.235-0.9987-0.3525v1.2337s0 0.5287-0.3524 1.2924c-0.3525 0.705-1.7037 2.5848-1.8212 2.8198l0.47 0.1175c0-0.0588 0.0587-0.0588 0.1174-0.0588zm2.8199-3.701l0.0588 0.0588 1.8799 1.1161-0.235 0.4112-0.9987-0.705s-0.4699 0.5875-0.7049 0.4112c-0.1177-0.1174-0.7051-0.7636-1e-4 -1.2923z"/>
			<path d="m595.48 304.68c-0.2349 0.0588-0.47 0.0588-0.7049 0.0588h-0.1176c-0.235 0-0.5287-0.0588-0.7637-0.1175l1.8211 6.7558c0.5287 0.4112 1.1162 0.705 1.6448 0.705 0.1176 0 0.235 0 0.3525-0.0588 0.6462-0.1175 1.1749-0.5287 1.5861-1.1161l-2.2324-7.0495c-0.411 0.4111-0.9984 0.7049-1.5859 0.8223z"/>
			<path d="m601.24 310.55c0.2349 0 0.5286-0.0587 0.7637-0.1175 0.4699-0.1762 0.8812-0.5287 1.2336-0.9399l-2.2911-7.3432c-0.4112 0.4112-0.8812 0.7637-1.4099 0.9987h-0.1175c-0.4112 0.1175-0.8224 0.235-1.2336 0.235h-0.0588l2.2324 6.932c0.1764 0.1174 0.5289 0.2349 0.8812 0.2349z"/>
			<path d="m580.38 315.25c0.5286-0.1762 0.9987-0.5287 1.4098-0.9987l-0.5874-7.0495c-0.4112 0.235-0.8224 0.3525-1.2924 0.4112-0.1763 0-0.3525 0.0587-0.47 0.0587h-0.0587c-0.4113 0-0.8226-0.1175-1.2338-0.235v0.0587 1.9386 0.8224 3.5835 0.8811c0.2938 0.2937 0.6463 0.47 0.9987 0.5875 0.4113 2e-4 0.8225 2e-4 1.2338-0.0585z"/>
			<path d="m579.68 305.97c0.6461-0.0588 1.1749-0.47 1.7036-1.1162 0-0.0587 0.0588-0.0587 0.0588-0.1175l-1.4686-17.33c-0.705 0.1175-1.41 0.1175-2.1149 0.1762v3.5247c0 5.4634 0.0588 11.22 0.0588 14.04 0.4112 0.47 0.9399 0.7637 1.5273 0.8224 0.0587 2e-4 0.1174 2e-4 0.235 2e-4z"/>
			<path d="m543.55 256.33h14.04c-1.0575 2.5261-1.7036 5.3459-1.7036 8.2832 0 11.69 9.5168 21.207 21.207 21.207 11.691 0 21.207-9.5168 21.207-21.207 0-2.9373-0.5875-5.7571-1.7036-8.2832h12.924c25.261 0 29.49-13.394 29.49-13.394h-49.347-0.8812-0.1763c-0.2349 0-0.4112 0-0.6462 0.0587 0.4113-5.1696 0.8224-10.28 1.0574-14.804-0.9987 4.2885-2.2911 8.6357-3.0548 12.278-1.8212 8.6944-8.5181 28.668-8.5181 28.668-0.47 1.6449-0.9987 2.5261-1.9387 2.5848-1.1749-0.0588-2.1148-1.5274-3.231-3.701-1.0574-2.2323-2.2324-5.2284-3.4073-8.5769-0.705-1.9386-1.4099-3.9947-2.0561-6.1096-0.0587 0.5287-0.1175 1.0575-0.1762 1.5862-0.705 7.637-1.1749 14.452-1.7037 18.74 2.6436 3.8185 7.1083 6.3446 12.16 6.3446 4.9347 0 9.2818-2.4086 11.984-6.0508-0.0588-0.4112-0.1176-0.8812-0.1763-1.2924 0-0.0588 0-0.1762-0.0587-0.235-0.1176-0.9986-0.2938-1.9386-0.4113-2.8785 0-0.1175 0-0.1762-0.0588-0.2937-0.1175-0.94-0.235-1.8799-0.2937-2.7611v-0.235c-0.1176-0.94-0.1762-1.8211-0.235-2.7023v-0.0587c0-0.1763 0-0.3525-0.0587-0.5287v-0.1175c-0.3525-4.2885-0.4113-8.2244-0.2938-11.925 3.2898 2.5261 5.6396 6.1683 6.4033 10.398 0 0.0587 0 0.1175 0.0587 0.1175 0.0588 0.2937 0.1176 0.6462 0.1176 0.9399v0.0588c0.0587 0.2937 0.0587 0.5287 0.0587 0.8224v0.235c0 0.3525 0.0588 0.7049 0.0588 1.0574v0.8224 0.2937c0 0.1763 0 0.3525-0.0588 0.5287 0 0.1175 0 0.235-0.0587 0.2937 0 0.1762-0.0588 0.3525-0.0588 0.47s-0.0588 0.235-0.0588 0.2937c-0.9399 8.4007-8.1656 14.922-16.86 14.922-8.8705 0-16.214-6.8145-16.919-15.509-0.1176-0.705-0.1762-1.4686-0.1762-2.2323 0-5.2284 2.3498-9.9281 6.1095-13.042-0.9987-3.0548-2.0561-6.0508-2.996-8.5769h-49.053c2e-4 0.1174 4.2299 13.512 29.491 13.512z"/>
			<path d="m549.07 239.11h0.4112 0.235 0.2938 0.2349c0.0588 0 0.1763 0 0.235-0.0588 0.0587 0 0.1762 0 0.235-0.0587 0.0588 0 0.1762-0.0587 0.2349-0.0587 0.0588 0 0.1763-0.0588 0.235-0.0588s0.1761-0.0587 0.235-0.0587c0.0587 0 0.1763-0.0588 0.2349-0.0588 0.0588 0 0.1763-0.0587 0.235-0.0587s0.1175-0.0587 0.2349-0.0587c0.0588-0.0588 0.1175-0.0588 0.235-0.1175 0.0588-0.0587 0.1175-0.0587 0.235-0.1175 0.0587-0.0587 0.1174-0.0587 0.2349-0.1175 0.0588-0.0587 0.1174-0.0587 0.1763-0.1175 0.0587-0.0588 0.1174-0.0588 0.1763-0.1175 0.0587-0.0587 0.1174-0.0587 0.1761-0.1175 0.0588-0.0587 0.1176-0.1175 0.1763-0.1175 0.0588-0.0587 0.1175-0.1175 0.1762-0.1175 0.0588-0.0588 0.1176-0.1175 0.1763-0.1763 0.0588-0.0587 0.1175-0.1175 0.1763-0.1762 0.0587-0.0587 0.1174-0.1175 0.1763-0.1762 0.0587-0.0588 0.1174-0.1175 0.1762-0.1762 0.0587-0.0588 0.1175-0.1175 0.1761-0.1763 0.0588-0.0587 0.1176-0.1175 0.1763-0.1762 0.0588-0.0587 0.1175-0.1175 0.1763-0.1762s0.1175-0.1175 0.1175-0.1762c0.0588-0.0588 0.1174-0.1763 0.1763-0.235 0-0.0587 0.0587-0.0587 0.0587-0.1175 0 0-0.9399-0.1175-1.5862-0.1175-0.6461 0-1.1161 0.1175-1.2336 0.1762-0.0588 0.0587-0.0588 0.0587-0.1176 0.1175-0.0587 0.0587-0.1175 0.1175-0.235 0.1762-0.0587 0.0587-0.1174 0.0587-0.1763 0.1175-0.0587 0.0587-0.1762 0.0587-0.2349 0.1175-0.0588 0.0588-0.1174 0.0588-0.1763 0.1175-0.0587 0.0587-0.1763 0.0587-0.2349 0.1175-0.0588 0-0.1175 0.0587-0.1763 0.0587-0.0588 0.0588-0.1763 0.0588-0.235 0.0588s-0.1174 0.0587-0.1762 0.0587-0.1763 0.0587-0.235 0.0587-0.1176 0.0588-0.235 0.0588c-0.0587 0-0.1763 0-0.2349 0.0587h-0.2351-0.2937-0.1175-0.1763-0.0587c-2.761-0.1175-4.8759-2.4086-4.7585-5.1696 0-0.1762 0-0.3525 0.0588-0.5287v-0.1175c0-0.1175 0.0587-0.235 0.0587-0.3525 0-0.0587 0-0.1175 0.0588-0.1175 0.0588-0.1175 0.0588-0.235 0.1175-0.3525 0-0.0587 0.0588-0.1175 0.0588-0.1175 0.0587-0.1175 0.0587-0.1762 0.1175-0.2937 0-0.0587 0.0587-0.1175 0.0587-0.1762 0.0587-0.1175 0.1176-0.1762 0.1176-0.2937 0-0.0587 0.0587-0.1175 0.1174-0.1175 0.0588-0.0587 0.1175-0.1762 0.1763-0.235 0.0587-0.0588 0.0587-0.1175 0.1175-0.1175 0.0587-0.0588 0.1174-0.1762 0.1763-0.235 0.0587-0.0587 0.0587-0.0587 0.1174-0.1175 0.0588-0.0587 0.1175-0.1175 0.2349-0.235 0.0588-0.0588 0.1176-0.0588 0.1176-0.1175 0.0587-0.0587 0.1762-0.1175 0.235-0.1762 0.0588-0.0588 0.1175-0.0588 0.1175-0.1175 0.0588-0.0587 0.1763-0.1175 0.235-0.1762 0.0587-0.0588 0.1174-0.0588 0.1762-0.1175s0.1763-0.1175 0.235-0.1175 0.1176-0.0587 0.1763-0.0587c0.1174-0.0587 0.1762-0.0587 0.2937-0.1175 0.0588 0 0.1175-0.0587 0.1762-0.0587 0.1176-0.0588 0.1763-0.0588 0.2938-0.1175 0.0588 0 0.1175-0.0587 0.1763-0.0587 0.1174 0 0.1763-0.0588 0.2937-0.0588h0.1763c0.1175 0 0.1763 0 0.2937-0.0587h0.1763 0.1762s0.1176 0 0.1762 0c1.5862 0.0587 2.9373 0.8225 3.8185 1.9974 0.7637 0.0587 1.8212 0.235 2.6436 0.5875-0.9398-2.6436-3.4072-4.5822-6.3445-4.6997h-0.5287-0.2937c-0.1175 0-0.2938 0-0.4112 0.0587-0.1175 0-0.1763 0-0.2938 0.0587-0.1174 0-0.2937 0.0588-0.4112 0.0588-0.1176 0-0.1763 0.0587-0.2937 0.0587-0.1176 0.0587-0.2351 0.0587-0.4113 0.1175-0.0587 0.0587-0.1761 0.0587-0.235 0.1175-0.1174 0.0587-0.2349 0.1175-0.3524 0.1762-0.0588 0.0587-0.1762 0.0587-0.235 0.1175-0.1174 0.0587-0.2349 0.1175-0.3524 0.1762-0.0588 0.0587-0.1762 0.1175-0.235 0.1175-0.1174 0.0587-0.2349 0.1175-0.2937 0.235-0.0587 0.0588-0.1763 0.1175-0.2349 0.1762-0.1176 0.0588-0.1763 0.1763-0.2938 0.235-0.0588 0.0587-0.1175 0.1175-0.235 0.1762-0.1176 0.1175-0.1763 0.1763-0.2937 0.2937-0.0588 0.0588-0.1176 0.1175-0.1763 0.1763-0.0588 0.1175-0.1762 0.1762-0.235 0.2937-0.0588 0.0587-0.1175 0.1175-0.1762 0.235s-0.1176 0.235-0.235 0.3525c-0.0588 0.0587-0.1175 0.1762-0.1763 0.235-0.0588 0.1175-0.1175 0.235-0.1762 0.3525-0.0587 0.0587-0.1176 0.1762-0.1176 0.235-0.0587 0.1175-0.1174 0.235-0.1762 0.3525-0.0587 0.0587-0.0587 0.1762-0.1175 0.235-0.0588 0.1175-0.0588 0.2937-0.1175 0.4112 0 0.0587-0.0587 0.1762-0.0587 0.235-0.0587 0.1762-0.0587 0.2937-0.1176 0.47 0 0.0587 0 0.1175-0.0587 0.235-0.0587 0.235-0.0587 0.47-0.0587 0.705 0 3.9357 2.996 7.2255 6.8732 7.343z"/>
			<path d="m690.42 245.93c0.1174-0.6462-0.2351-1.2924-0.7638-2.996h-48.818l-0.1762 0.5287c-0.0587 0.1175-0.2938 0.8812-0.8812 1.9386l47.29 3.0548c1.5275-0.3525 3.1135-1.1162 3.3486-2.5261z"/>
			<polygon points="590.78 185.24 589.31 186.01 588.61 184.72 587.26 185.36 586.55 184.19 585.2 184.83 584.44 183.42 583.09 184.07 582.38 182.78 580.91 183.48 580.03 182.01 578.5 189.83 591.66 193.59 595.13 186.71 593.78 187.42 593.25 185.95 591.66 186.71"/>
			<path d="m559.41 232.01l-0.1763-0.1762c-0.94-0.1762-2.1736-1.0574-3.0547-1.4687-0.705-0.3525-2.9961-0.8812-3.8773-0.5875-0.5875 0.235-1.2924 0.3525-1.4099 1.7624-0.0588 1.0574 0.1175 1.8799 0.1175 2.5261 0 0.235 0.7637 1.1162 1.1161 1.4687 3.1136-0.9987 6.5209 1.6449 8.2833 1.2924-0.7637-1.1749-1.7624-4.5235-0.9987-4.8172z"/>
			<path d="m583.73 305.44h0.1175c0.5875-0.0587 1.0574-0.4112 1.4686-0.9987l-2.761-17.565c-0.5875 0.1762-1.2336 0.2937-1.8211 0.3525l1.4687 17.448c0.4112 0.4701 0.9398 0.7638 1.5273 0.7638z"/>
			<path d="m712.86 255.09c0.2349-0.47 0.059-1.2337-0.6462-1.8212l-21.384-1.9973c-0.059 0.3525-0.1174 0.7637-0.2937 1.1161-0.2937 0.6462-0.705 1.1749-1.1749 1.5862l20.914 2.8198c1.4098-0.1762 2.3499-0.9399 2.5847-1.7036z"/>
			<path d="m685.19 253.86c1.41-0.1175 3.1136-0.705 3.7599-2.1736 0.5874-1.2924-0.2938-2.1149-1.4686-2.5848l-48.054-3.1135c-0.235 0.3525-0.47 0.7049-0.7637 1.1161l46.527 6.7558z"/>
			<path d="m566.17 248.04c-0.5288-0.8225-0.94-1.6449-1.41-2.4086 2.6436 7.5195 5.5809 17.154 8.0483 22.206 1.0574 2.1736 2.1148 3.466 2.6436 3.3485 0.2937 0.0588 0.7637-0.4112 1.1749-1.6449-0.0587-1.4686-0.3525-3.8773-1.1162-5.9334-2.3499-6.462-3.466-5.6396-9.3406-15.568z"/>
			<path d="m585.02 240.35c0.47-2.1736 1.0574-4.5822 1.7037-7.0495 2.0562-7.9894 4.4059-17.095 1.9386-21.148-0.6462-1.0574-1.6448-1.7036-2.996-1.9973-0.1763-0.0588-0.3525-0.0588-0.5287-0.0588-4.5234 0-9.4581 12.043-10.927 16.684-0.0588 0.2937-0.2938 0.47-0.5875 0.5875l-13.688 4.6997c-0.1174 0.3525-0.47 3.1135 6.8733 15.568 2.5261 4.2884 4.171 6.5795 5.4047 8.2832 1.6448 2.2911 2.6436 3.701 4.0535 7.4608 0.4112 1.0574 0.6462 2.1736 0.8224 3.231 2.2911-6.4623 6.3445-18.74 7.9306-26.26z"/>
			<path d="m576.92 195.41c0.176 0.235 0.2935 0.2937 0.411 0.3525 0 0 3.5248 0.9986 5.6984 3.5835h-0.0588s0.0588 0.235 0.1763 0.6462c0.1763 0.5287 0.4112 1.5274 0.7637 2.5848 0.3525 1.1749 1.2924 3.1723 1.2924 3.1135 0.235 0.7637 0.9399 1.5274 0.9399 1.5274 0.705 0.7049 1.5861 0.9987 2.8785 1.4099h0.0588c0.0587 0 0.1175 0 0.1762 0.0588h0.0587 0.1175 0.1175 0.1176 0.1175s0.0588 0 0.1174-0.0588c0.0588 0 0.0588 0 0.1176-0.0587 0.0587-0.0588 0.0587-0.0588 0.1175-0.0588s0.0588-0.0587 0.1175-0.0587c0.0588 0 0.0588-0.0587 0.1175-0.0587 0.0588 0 0.0588-0.0588 0.1175-0.0588s0.0587-0.0587 0.1176-0.0587c0.0587 0 0.0587-0.0587 0.1174-0.0587 0.0588 0 0.0588-0.0588 0.1175-0.1175 0.0588-0.0588 0.0588-0.0588 0.1176-0.1175l0.1175-0.1175c0.0588-0.0587 0.0588-0.0587 0.1175-0.1175 0.0588-0.0587 0.0588-0.0587 0.1174-0.1175 0.0588-0.0587 0.0588-0.0587 0.1176-0.1175 0.0587-0.0588 0.0587-0.0588 0.1176-0.1175 0.0587-0.0588 0.0587-0.0588 0.1174-0.1175 0.0588-0.0587 0.0588-0.0587 0.1175-0.1175 0.0588-0.0587 0.0588-0.1175 0.1175-0.1175 0.0588-0.0587 0.0588-0.1175 0.1176-0.1175 0.0587-0.0588 0.0587-0.1175 0.1175-0.1763 0.0588-0.0587 0.0588-0.1175 0.1174-0.1175 0.0588-0.1175 0.1176-0.1763 0.1763-0.2937 0.0588-0.0588 0.0588-0.1175 0.1175-0.1763 0.0588-0.0587 0.0588-0.1175 0.1175-0.1762 0-0.0587 0.0588-0.1175 0.0588-0.1762s0.0588-0.1175 0.0588-0.1762c0-0.0588 0.0587-0.1175 0.0587-0.1762 0-0.0588 0.0588-0.1175 0.0588-0.1763 0-0.0587 0.0588-0.1175 0.0588-0.1762s0.0587-0.1175 0.0587-0.1762 0.0588-0.1175 0.0588-0.1762 0.0587-0.1175 0.0587-0.1762c0-0.0588 0.0587-0.1175 0.0587-0.1762 0-0.0588 0.0588-0.1175 0.0588-0.1763 0-0.0587 0.0588-0.1175 0.0588-0.1762s0.0587-0.1175 0.0587-0.1762 0.0588-0.1175 0.0588-0.1762c0-0.0588 0-0.1175 0.0587-0.1762 0-0.0588 0-0.1175 0.0588-0.1763v-0.1762s0-0.1175 0-0.1762 0-0.1175 0-0.1762v-0.1762-0.1763-0.1762s0-0.1175 0-0.1175v-0.1762s0-0.0587 0-0.1175c-0.0588-0.47-0.1763-0.8224-0.47-1.1749-1.7036-2.1736-1.5274-2.9373-2.5261-4.7584-0.0587-0.1175-0.1176-0.1762-0.1762-0.2937l-12.337-3.3485h-0.1763c-0.2938 0.235-1.2338-0.0587-1.4099 2.2911-3e-4 0.2933 0.1758 0.587 0.4696 0.822z"/>
			<polygon points="591.43 194.12 578.45 190.36 578.09 191.47 591.02 195.29"/>
			<path d="m586.96 313.25c0.47 0.5874 1.0575 0.9987 1.8212 0.9987h0.1174c0.705 0 1.2924-0.3525 1.7036-0.7637l-1.4099-6.932-0.0588-0.2937c-0.5286 0.2937-1.0574 0.4112-1.6448 0.4112h-0.1176-0.1175c-0.3525 0-0.8224-0.0587-1.2924-0.2937h-0.1175l0.4113 2.8198 0.705 4.0534z"/>
			<path d="m571.51 315.13c0.5288-0.235 0.94-0.7637 1.2337-1.2924l0.3525-6.5208c-0.3525 0.1762-0.8224 0.2937-1.3511 0.3525h-0.1175c-0.235 0-0.5287-0.0588-0.7637-0.1175-0.2937-0.0588-0.5288-0.1762-0.7637-0.2937l-0.3525 2.8198-0.5286 4.4647c0.1763 0.1175 0.3525 0.2937 0.5286 0.4112 0.5874 0.0588 1.1748 0.1175 1.7623 0.1762z"/>
			<path d="m575.04 287.46l-0.9987 17.741c0.3525 0.4112 0.8224 0.6462 1.2924 0.6462 0.7637 0 1.3512-0.4112 1.7624-0.9399 0.0588-2.8786 0-8.4594 0-13.805v-3.5247c-0.7049-1e-4 -1.4099-0.0589-2.0561-0.1176z"/>
			<path d="m574.27 287.4c-0.705-0.0587-1.3511-0.1762-1.9974-0.3525l-2.0561 17.859c0.2937 0.4112 0.6462 0.7637 1.1749 0.8812 0.1174 0 0.2937 0.0588 0.4112 0.0588 0.7637-0.0588 1.2337-0.5875 1.5862-1.1749l0.8812-17.271z"/>
			<path d="m569.52 304.26l1.9973-17.389c-0.8224-0.1762-1.5861-0.47-2.3499-0.705l-3.1135 17.565c0.2937 0.6462 0.6462 1.2336 1.4099 1.4099 0.1174 0 0.2349 0.0588 0.2937 0.0588 0.7638-0.0588 1.3513-0.3525 1.7625-0.94z"/>
			<path d="m561.76 313.55c0.1174 0 0.2349 0.0588 0.3524 0.0588 0.4113 0 0.8225-0.1175 1.1749-0.3525l1.2925-7.167c-0.1762 0-0.2938 0.0587-0.47 0.0587-0.235 0-0.4113 0-0.6462-0.0587h-0.1175c-0.6462-0.1763-1.1749-0.5287-1.5274-0.94-0.0588 0.0588-0.1763 0.0588-0.2938 0.0588l-0.8812 4.0535-0.5875 2.7023c0.0588 0.0587 0.0588 0.1175 0.1174 0.235 0.4701 0.6462 0.8814 1.1748 1.5864 1.3511z"/>
			<path d="m565.64 314.43c0.2937 0.0588 0.5875 0.1175 0.8225 0.1175 0.7637-0.0587 1.4099-0.47 1.8798-1.1161l0.8224-6.7558c-0.4112 0.1762-0.8224 0.235-1.2336 0.2937h-0.1175c-0.235 0-0.47 0-0.6461-0.0588-0.5875-0.1175-1.1163-0.4112-1.4687-0.705l-1.2337 6.8733c0.2351 0.5875 0.5288 1.1161 1.1749 1.3512z"/>
			<path d="m463.95 252.39c-0.1763-0.3525-0.2351-0.705-0.2938-1.0574l-22.97 1.9974c-0.6462 0.5875-0.8224 1.3512-0.5875 1.8211 0.2938 0.7637 1.2337 1.5862 2.7024 1.7036l22.735-2.5261c-0.7051-0.47-1.2339-1.1162-1.586-1.9386z"/>
			<path d="m447.97 264.26l21.207-4.5822c-0.9399-0.47-1.5274-1.1749-1.9387-1.8212l-21.677 3.5835c-0.7637 0.7049-0.5287 1.5274-0.1763 1.9386 0.3526 0.2939 1.175 0.8226 2.5849 0.8813z"/>
			<path d="m575.45 315.31c0.705-0.1175 1.2924-0.5287 1.7036-1.0574v-3.936-2.5261-0.5287c-0.5287 0.2937-1.1161 0.4112-1.7036 0.4112h-0.0587c-0.4112 0-0.7637-0.1175-1.1749-0.235l-0.3525 6.4033-0.0587 0.9987c0.2349 0.1762 0.5286 0.3525 0.8224 0.4112 0.2349 0.0588 0.5286 0.0588 0.8224 0.0588z"/>
			<path d="m445.27 260.79l21.677-3.5835c0-0.0587-0.0587-0.1175-0.0587-0.1762-0.235-0.6462-0.235-1.2924 0-1.9386-0.1763-0.0587-0.3525-0.1762-0.5288-0.235l-23.44 2.6436c-0.7637 0.705-0.8224 1.7036-0.47 2.1736 0.5875 0.7049 1.4687 1.0574 2.8199 1.1161z"/>
			<path d="m591.19 304.03h0.2351c0.6461-0.1175 1.1161-0.5875 1.4099-1.1162l-4.8171-18.152c-0.6463 0.3525-1.2338 0.6462-1.8799 0.9399l3.5835 17.624c0.4111 0.4112 0.8812 0.6462 1.4685 0.705z"/>
			<path d="m584.61 314.84h0.1174c0.5288-0.0587 0.94-0.2937 1.2925-0.7049l-1.1162-7.167c-0.2349 0.1175-0.5286 0.1762-0.8812 0.235h-0.3525c-0.4699 0-0.9399-0.1175-1.4099-0.3525l0.5875 7.1082c0.4699 0.5875 1.1162 0.8812 1.7624 0.8812z"/>
			<path d="m593.25 313.25h0.2937c0.5875-0.1175 1.0575-0.47 1.41-0.8812l-1.2337-4.5234-0.7049-2.5848c-0.4113 0.235-0.8224 0.4112-1.2925 0.5287-0.1762 0-0.3525 0.0587-0.4699 0.0587h-0.0588c-0.2937 0-0.5874-0.0587-0.9399-0.1762-0.0587 0-0.0587 0-0.1176 0.0587l1.3512 6.6971c0.47 0.4699 1.0576 0.8224 1.7624 0.8224z"/>
			<path d="m710.45 259.68c0.3525-0.47 0.2938-1.4687-0.5286-2.2324l-21.266-2.8785c-0.3524 0.235-0.705 0.4112-1.0574 0.5287 0.1763 0.5287 0.2349 1.0574 0.1174 1.5861l20.15 4.1122c1.2338-0.0587 2.0563-0.4699 2.5848-1.1161z"/>
			<path d="m583.26 286.7l2.7611 17.565c0.3524 0.3525 0.8224 0.6462 1.3511 0.6462h0.1176c0.7637 0 1.2925-0.4112 1.7037-0.94l-3.6422-17.976c-0.8227 0.2938-1.5276 0.5287-2.2913 0.705z"/>
			<path d="m588.73 284.41l4.7585 18.035c0.4112 0.3525 0.8812 0.5287 1.2924 0.5287 0.1174 0 0.2349 0 0.2937-0.0587 0.5875-0.1175 1.1161-0.5287 1.4686-1.1749l-5.9333-18.681c-0.5286 0.5286-1.2335 0.9399-1.8799 1.3511z"/>
			<path d="m563.88 304.32h0.2937c0.4113 0 0.7637-0.1763 1.1749-0.47l3.1724-17.976c-0.705-0.2937-1.41-0.5874-2.0561-0.94l-4.0535 17.859c0.0588 0.0587 0.0588 0.1762 0.1175 0.235 0.3525 0.6463 0.705 1.1161 1.3511 1.2925z"/>
			<path d="m555.36 303.68h-0.0587c-0.7049-0.3525-1.1162-0.8224-1.4099-1.2924l-2.2323 7.167c0 0.0588 0.0587 0.1175 0.0587 0.1762 0.2938 0.5875 0.47 1.0575 1.1162 1.3512 0.3525 0.0587 0.6462 0.1175 0.9987 0.1175 0.3524 0 0.6461-0.0587 0.9398-0.1762l1.7037-7.0495c-0.3525-0.0587-0.705-0.1175-1.0574-0.2937l-0.0588-1e-4z"/>
			<path d="m558.82 302.03c0.2349 0.5287 0.4112 0.8812 0.7049 1.1162 0.3525 0.1175 0.7637 0.2937 1.1749 0.4112 0.3525-0.0587 0.5875-0.1762 0.8224-0.3525l4.2297-18.622c-0.7637-0.4112-1.4686-0.8812-2.1736-1.4099l-4.7583 18.858z"/>
			<path d="m557 312.49c0.3525 0.1175 0.6462 0.1763 0.9987 0.2937 0.3525 0 0.6462-0.1175 0.8812-0.2937l1.5275-7.1082c-0.4112 0-0.7637-0.0588-1.1162-0.235-0.705-0.2937-1.1749-0.7637-1.5273-1.2337-0.0588 0-0.1175 0-0.235 0.0587l-1.7036 6.9321c0.0588 0.1175 0.0588 0.1762 0.1174 0.235 0.3526 0.5285 0.5874 0.9985 1.0573 1.3511z"/>
			<path d="m544.31 215.79c-0.4113-0.0587-0.6462-0.1762-0.8224 0.1762-0.2937 0.5287 0.705 1.2924 1.2337 1.5274-0.4113-0.235-0.8812-0.2937-0.9987 0.1175-0.1761 0.6462 2.2911 2.1149 3.8185 2.9961 0.705 0.6462 2.8198 1.4099 3.936 1.6449 0.2938 0.0587 1.5273 0.0587 2.6436 0.4112 0.1175-0.8225 0.2349-1.5274 0.3524-2.4673 0.0588-0.5875 0.1176-1.1749 0.1763-1.7036-0.5287-0.5875-1.0574-1.1749-1.4099-1.7624 0-0.0587-0.0588-0.0587-0.0588-0.1175l-0.1175-0.1175-0.0588-0.0588c-0.0587-0.0587-0.3524-0.3525-0.3524-0.3525-0.1176-0.1175-0.9987-0.9399-1.8212-1.1162-0.7637-0.1762-1.4687 0-1.4687 0-0.5286-0.1762-1.8798-0.8224-2.761-1.2337 0 0-1.4687-0.6462-1.8212-0.2937-0.2937 0.2937-0.3524 0.6462 0.0588 0.9987-0.47-0.1762-1.0574-0.3525-1.3512 0.1175-0.2937 0.4113 0.1762 0.8813 0.8225 1.2337z"/>
			<path d="m623.5 256.44l17.8 16.038c0.9987 0.5287 2.0561 0.8224 3.1136 0.8224 0.2349 0 0.5286 0 0.7636-0.0587 0.9399-0.1762 1.3511-0.7637 1.2337-1.3512l-21.09-15.979c-0.5874 0.1763-1.1749 0.3526-1.8211 0.5288z"/>
			<path d="m630.02 254.04l30.783 16.801c0.8812 0.235 1.7623 0.4112 2.4673 0.4112 0.235 0 0.4699 0 0.6462-0.0587 1.6449-0.47 1.7037-1.2924 1.0575-2.0561l-33.544-15.861c-0.47 0.2936-0.9399 0.5286-1.4098 0.7636z"/>
			<path d="m617.51 257.62l11.279 14.804c0.8812 0.47 1.9387 0.8812 2.9962 0.8812 1.3511 0 1.8211-0.7049 1.7036-1.3512l-13.394-14.745c-0.8225 0.1763-1.7037 0.2938-2.585 0.4112z"/>
			<path d="m628.2 254.86l26.612 17.095c0.7637 0.2937 1.5274 0.4112 2.2324 0.4112 0.4699 0 0.9399-0.0587 1.3511-0.235 0.705-0.2937 1.0574-0.8225 0.8224-1.4099l-30.019-16.331c-0.2936 0.1762-0.5873 0.3524-0.9985 0.47z"/>
			<path d="m626.09 255.68l21.618 16.39c1.1749 0.5287 2.5261 0.8812 3.936 0.8812h0.3524c1.0575-0.0587 1.3512-0.705 1.1163-1.3512l-25.554-16.449c-0.5289 0.1763-0.999 0.3525-1.4687 0.5288z"/>
			<path d="m620.8 257.09l13.982 15.509c0.9987 0.5875 2.1736 0.9987 3.5247 0.9987h0.1176c0.9987 0 1.7036-0.5875 1.5861-1.2924l-17.271-15.685c-0.6461 0.1763-1.2335 0.2938-1.9386 0.47z"/>
			<path d="m620.68 274.95c-0.1762 0-0.3525 0.0587-0.5287 0.0587-1.1161 0-2.4673-0.2937-3.6422-0.8812-0.4112 0.2937-0.8812 0.4112-1.3512 0.5287l1.5862 3.231c0.9399 0.5287 2.2323 0.8224 2.8786 0.8224 0.9987 0 2.8198-0.5287 2.1148-1.5862l0.0588 0.0588-1.1163-2.2322z"/>
			<path d="m609.93 258.09l6.5795 13.923c1.1161 0.8224 2.5848 1.1749 3.6422 1.1749 0.5287 0 1.2338-0.1763 1.4099-0.5875l-8.2244-14.628c-1.0572 0.0588-2.232 0.1176-3.4072 0.1176z"/>
			<path d="m627.05 271.25l0.0413 0.0544c1e-4 -0.0413-0.0239-0.0507-0.0413-0.0544z"/>
			<path d="m614.1 257.97l7.8132 13.864c1.1749 0.8224 2.7024 1.4099 3.9948 1.4099 0.8812 0 1.7624-0.9987 1.2924-1.7624l-0.1175-0.1175c0-0.0587-0.0588-0.0587-0.0588-0.1175 0 0 0.0101 3e-3 0.0175 4e-3l-10.298-13.575c-0.8812 0.1175-1.7624 0.235-2.6436 0.2937v4e-4z"/>
			<path d="m632.08 252.92l35.306 16.684c0.2937 0.0588 0.6462 0.0588 0.9399 0.0588 0.3525 0 0.705-0.0588 1.0575-0.1175 1.8211-0.3525 3.1722-1.1162 2.761-1.9974l-39.066-15.274c-0.2939 0.235-0.6462 0.47-0.9987 0.6463z"/>
			<path d="m613.75 278.71c1.1161 0 2.0562-0.4112 2.2324-1.0574l-1.4687-2.9373h-0.3525c-0.9987 0-1.9386-0.235-2.8198-0.6462-0.3524 0.2937-0.8812 0.5287-1.5273 0.6462l0.8812 2.9373c0.94 0.7637 2.35 1.0574 3.0547 1.0574z"/>
			<path d="m607.99 283.94l-0.94-3.5248c-0.6461-0.1175-1.2924-0.2937-1.821-0.5875-0.8812 0.6462-2.0561 0.8812-2.9373 0.8812-0.7637 0-2.1149-0.235-3.2898-0.8224-0.1175 0.0588-0.2349 0.1175-0.3525 0.235 2.526 1.1161 5.1696 2.8198 7.5194 4.5235 0.7052 0 1.4688-0.1763 1.8212-0.705z"/>
			<path d="m606.17 284.64c-0.1174-0.0588-0.0587 0 0 0z"/>
			<path d="m690.53 249.34c0.235 0.4112 0.3524 0.8224 0.4113 1.2924l21.09 1.9974c1.9386-0.1763 2.6436-1.2337 2.8787-1.8212 0.2349-0.5875 0.1763-1.5861-0.7638-2.2323l-22.382-1.1162c-0.3524 0.6462-0.8224 1.1162-1.4099 1.5274-1e-4 0.1175 0.059 0.235 0.1761 0.3525h1e-4z"/>
			<path d="m692.18 246.22c-0.059 0.235-0.1176 0.4112-0.1763 0.6462l21.677 1.0574c1.7037-0.5287 1.8799-2.1149 1.9974-2.7611 0-1.2336-0.705-1.8799-1.3512-2.1736h-22.852c0.059 0.1175 0.059 0.235 0.1176 0.2937 0.4113 1.175 0.7051 1.9975 0.5875 2.9374z"/>
			<path d="m602.24 279c0.7637 0 1.8798-0.2937 2.2911-0.9399l-0.8812-3.3485c-1.3511 0-3.701-0.5287-5.2872-1.4099-0.1175 0.2937-0.235 0.5875-0.4113 0.8812l0.94 3.701c0.94 0.7048 2.5261 1.1161 3.3486 1.1161z"/>
			<path d="m685.95 256.44c0.235-0.705-0.2938-1.4099-1.1749-1.9974l-46.586-6.7558c-0.2937 0.3525-0.5874 0.705-0.9398 1.0574l45.587 9.7518c1.3509-0.0586 2.5848-0.5873 3.1136-2.056z"/>
			<path d="m707.51 263.32c0.4113-0.4112 0.5874-1.2924-0.2937-1.9973l-19.68-3.9947c-0.4111 0.8812-1.0574 1.8211-2.291 2.4086l18.799 4.8172c-0.235-0.1762-0.5287-0.3525-0.9401-0.47 0.6464 0.1762 1.2338 0.235 1.7037 0.235 1.41-1e-4 2.3499-0.5876 2.7023-0.9988z"/>
			<path d="m635.43 250.51l42.415 12.572c0.4113 0.0587 0.8226 0.0587 1.1749 0.0587 1.2925 0 2.3499-0.3525 3.1724-1.4099 0.8224-1.1162-0.1176-2.2911-1.2924-2.9373l-44.177-9.4581c-0.4113 0.4112-0.8225 0.8224-1.2924 1.1749z"/>
			<path d="m595.19 278.71c0.47 0.1175 0.8812 0.1763 1.2337 0.1763 0.5875 0 1.5861-0.235 1.8798-0.8225l-0.7637-2.996c-0.7048 1.2924-1.4686 2.5261-2.3498 3.6422z"/>
			<path d="m633.73 251.86l38.537 15.098c2.2324-0.1175 3.701-0.2937 3.936-0.4112 2.6436-1.2337 1.6448-2.4086 0.1175-3.231l-41.533-12.278c-0.2937 0.2936-0.6462 0.5286-1.0574 0.8224z"/>
			<path d="m670.21 278.47h0.47c1.7036-0.1175 2.3499-0.94 1.7036-1.7624l-7.167-4.171c-0.2938 0.1175-0.5875 0.235-0.9399 0.3525h-0.1176c-0.2937 0.0587-0.6461 0.0587-0.9398 0.0587-0.8226 0-1.7624-0.1762-2.6436-0.4112-0.235 0.3525-0.5874 0.6462-0.9399 0.8812l6.6383 4.2885c1.2337 0.4698 2.6435 0.7636 3.9359 0.7637z"/>
			<path d="m662.69 279.06h0.8224c0.9987-0.0588 1.7624-0.6462 1.4099-1.3512l-5.9332-3.8185c-0.5875 0.1763-1.1749 0.2937-1.8799 0.2937-0.8812 0-1.7624-0.1762-2.7611-0.47-0.2349 0.2937-0.5875 0.5287-0.9399 0.7637l5.8746 4.1122c0.9398 0.2351 2.056 0.4701 3.4072 0.4701z"/>
			<path d="m647.47 278.77c0.8224 0 1.6449-0.1763 1.8212-0.5874l-4.5235-3.0548h-0.3524c-1.1162 0-2.2324-0.2937-3.3486-0.7637-0.3525 0.3525-0.7637 0.5875-1.2336 0.7637l3.5247 2.996c1.5276 0.5287 3.29 0.6462 4.1122 0.6462z"/>
			<path d="m657.16 277.83l-4.5822-3.1723c-0.1761 0.0587-0.3524 0.0587-0.5875 0.0587h-0.4112c-1.5273 0-2.8785-0.3525-4.1122-0.8224-0.4112 0.47-1.0574 0.8224-1.8211 1.0574l3.3486 2.2323c2.0561 1.2924 4.0534 1.5861 6.227 1.5861 0.94 2e-4 2.1149-0.2935 1.9386-0.9398z"/>
			<path d="m677.96 277.59c0.5875 0 1.1749-0.0588 1.6449-0.1763 1.4099-0.5287 1.5275-1.2924 0.5288-2.1148l-9.047-4.3472c-0.4112 0.1175-0.8224 0.235-1.2924 0.3525s-0.9399 0.1175-1.4099 0.1175c-0.5288 0-1.0575-0.0588-1.5862-0.1763-0.1762 0.2937-0.4113 0.5875-0.8225 0.8812l8.4008 4.8759c1.1162 0.4111 2.4086 0.5874 3.5835 0.5875z"/>
			<path d="m639.72 278.71c0.9399 0 2.2911-0.2937 2.1149-1.0574l-2.7611-2.4086c-0.1762 0-0.3524 0.0587-0.5287 0.0587h-0.1174c-1.41 0-2.8198-0.3525-4.1122-1.0574-0.235 0.235-0.5288 0.3525-0.8812 0.5287l2.4085 3.0548c1.2926 0.6463 3.055 0.8812 3.8772 0.8812z"/>
			<path d="m703.93 266.9c0.4111-0.2937 0.7637-0.94 0.5874-1.5274l-20.385-5.2284c0.1763 0.8812 0 1.8211-0.5287 2.5848-0.059 0.0588-0.1174 0.1763-0.1763 0.235l14.569 4.6409c0.8225 0.1763 1.5862 0.235 2.2911 0.235 1.7625 0 3.0549-0.5287 3.6425-0.9399h-1e-4z"/>
			<path d="m684.83 276.18c0.705 0 1.2925-0.1175 1.7625-0.2937 0.8224-0.5287 0.5287-1.5862-0.7638-2.3498l-11.22-4.9346c-0.2349 0-0.47 0.0587-0.705 0.0587-0.2349 0.8225-0.9399 1.5274-2.0561 2.0561l11.044 5.2871c0.705 0.0587 1.3512 0.1762 1.9386 0.1762z"/>
			<path d="m698.17 269.9c0.4113-0.4112 0.705-0.8812 0.5287-1.4099l-15.803-4.9934c-0.8225 0.8224-1.9386 1.2924-3.2898 1.4099v0.0588c0 0.2937-0.059 0.5287-0.1176 0.8224l13.747 5.2871c0.3525 0.0588 0.7637 0.0588 1.1162 0.0588 1.5862-0.0587 2.9374-0.4112 3.8185-1.2337z"/>
			<path d="m689.83 274.07c1.2925 0 2.4674-0.235 3.0548-0.7637 0.6462-0.5875 0.5874-1.1749 0-1.7624l-13.57-5.2284c-0.4113 0.705-1.175 1.2924-2.2911 1.8211-0.1763 0.0588-0.3525 0.1763-1.1162 0.2937l12.807 5.6396c0.3525 1e-4 0.7637 1e-4 1.1162 1e-4z"/>
			<path d="m605.88 258.09l5.2285 13.864c0.7637 0.5875 1.8799 0.9987 2.996 0.9987 0.6462 0 1.4686-0.235 1.7037-0.7637l-6.6383-14.158-3.2899 0.0588z"/>
			<path d="m599.12 258.09c0.6463 2.1148 0.94 4.2885 0.94 6.5208 0 1.1749-0.235 2.6436-0.47 3.9948l0.8812 3.701c1.0574 0.3525 2.2911 0.6462 3.1136 0.6462 0.9399 0 1.4686-0.2937 1.6449-0.7637l-3.6423-14.04-2.4674-0.0588z"/>
			<path d="m599.71 272.01l-0.4699-1.8799c-0.1522 0.8116-0.2601 1.4014-0.2869 1.4725 0.2327 0.1176 0.4659 0.291 0.7568 0.4074z"/>
			<path d="m608.76 274.89c-0.94 0-1.9387-0.2937-2.8199-0.8224-0.4112 0.2937-0.9399 0.47-1.6449 0.5875l0.8224 2.996c0.5287 0.47 1.2336 0.8812 2.0561 0.9987l0.235-0.0587 0.0587 0.1175c0.1762 0 0.3525 0.0588 0.5287 0.0588 0.7637 0 1.8211-0.235 2.0561-0.94l-0.8812-2.9373c-0.1761-2e-4 -0.2936-2e-4 -0.411-1e-4z"/>
			<path d="m602.3 258.09l3.5834 13.805c0.705 0.5875 1.8212 1.1749 2.8198 1.1749s1.6449-0.2937 1.8212-0.8812l-5.3459-14.158-2.8785 0.0588z"/>
			<path d="m598.95 271.61c-2e-3 -1e-3 -5e-3 -3e-3 -7e-3 -4e-3 0 0.0161 3e-3 0.0152 7e-3 4e-3z"/>
			<path d="m626.21 284.64c0.7637 0 1.5861-0.3525 1.8211-0.94l-1.8799-3.4073h-0.5875c-1.2924 0-2.291-0.2937-3.1135-0.6462-0.6462 0.4112-1.4686 0.6462-1.9974 0.705l1.4099 2.7611c1.175 0.8224 2.7611 1.5274 4.3473 1.5274z"/>
			<path d="m627.97 277.89l-2.2324-2.9373c-0.9987 0-2.1148-0.2937-3.1722-0.7637-0.3525 0.2937-0.7637 0.47-1.1749 0.5874l1.7036 3.1723c0.705 0.3525 1.5275 0.5875 2.5848 0.5875 0.9987 0 1.9973-0.1762 2.2911-0.6462z"/>
			<path d="m632.61 278.53c0.9987 0 2.0561-0.3525 2.1149-0.9987l-2.0561-2.5848c-0.2937 0.0587-0.5875 0.1175-0.94 0.1175-1.3511 0-2.6436-0.47-3.6422-0.9987-0.4112 0.4112-0.9987 0.705-1.5861 0.8224l2.0561 2.7023c1.1161 0.705 3.2311 0.94 4.0534 0.94z"/>
			<path d="m612.28 284.64c0.6461 0 1.4686-0.235 1.9386-0.705l-1.0574-3.5248c-0.705-0.0588-1.645-0.2937-2.5261-0.705-0.9987 0.705-2.2324 0.7637-2.6436 0.7637h-0.0588l0.705 2.4673c1.0574 1.0576 2.8785 1.7038 3.6423 1.7038z"/>
			<path d="m619.33 284.47c0.8224 0 1.6449-0.3525 1.7036-1.1749l-1.4687-2.9373c-0.7049 0-1.9386-0.235-3.0547-0.7049-0.6462 0.47-1.5275 0.7049-2.5261 0.7637l0.7049 2.2911c0.94 0.9986 2.8786 1.7623 4.641 1.7623z"/>
			<path d="m541.02 258.03l-8.1657 14.334c0.0587 0.5875 0.8224 0.8224 1.4686 0.8224 1.0574 0 2.4086-0.3524 3.4661-1.0574l6.697-14.04h-0.9987c-0.8222 1e-4 -1.6447 1e-4 -2.4673-0.0587z"/>
			<path d="m559.35 314.49c-0.4112 0.1762-0.8812 0.2937-1.3511 0.2937h-0.1175c-0.47 0-0.9399-0.1175-1.4099-0.2937s-0.8225-0.4112-1.1163-0.705l-1.9973 8.1069c0.235 1.7036 1.1161 3.231 1.645 3.4073 1.2924 0.5875 2.6436-1.8799 2.9373-3.9948 0 0.1175-0.0588 0.2937-0.0588 0.4112l1.4686-7.2256z"/>
			<path d="m443.33 262.26c-0.8812-0.2937-1.6449-0.7637-2.2324-1.4099v-0.1175l-0.0587-0.0588c-0.2937-0.4112-0.47-0.8812-0.5288-1.3512l-10.222 1.5274c-0.8224 0.6462-1.2924 1.8798-0.47 2.8198 0.6462 0.705 1.5861 1.2337 2.7023 1.4099l10.809-2.1736c1e-4 -0.2349 1e-4 -0.4699 1e-4 -0.6461z"/>
			<path d="m559.53 283.59c0.1175 0 0.1763 0 0.2938-0.0587l-0.1175 0.3525v0.0588l-4.8759 15.568c0.0587 0.47 0.1763 0.9399 0.3525 1.3512 0.235 0.5287 0.4113 0.94 0.9399 1.1749 0.235 0.1175 0.5287 0.1762 0.7637 0.1762v-0.0587l0.1175 0.0587c0.4112 0 0.7637-0.1762 1.0574-0.3525l4.8759-19.092c-1.1749-0.94-2.2911-1.9974-3.2898-3.1135-0.8812 0.2937-2.0561 0.7637-2.761 0.9399-2.8785 1.3512-5.9921 3.4073-8.5181 5.3459-2.8786 3.1135-5.4634 7.167-7.0496 12.043-1.5861 4.8759-3.7598 14.334-12.16 13.688 4.9346-4.4647-1.645-11.397-6.5209-6.9908-3.8185 3.466-3.0547 9.8694 3.5247 10.927 2.6436 0.47 13.453 2.2323 17.8-12.337 4.0535-13.159 10.692-17.976 15.568-19.68z"/>
			<path d="m526.28 282.94l1.4686-2.6436h-0.4699c-1.3511 0-2.3499-0.235-3.0548-0.705-0.9399 0.3525-1.9386 0.5287-2.7023 0.5874l-2.2911 2.9373c-0.1175 0.7637 0.705 1.4099 2.2324 1.4099 1.6452 1e-4 3.3487-0.5874 4.8171-1.586z"/>
			<path d="m563.46 315.37c-0.47 0.1762-0.8812 0.235-1.3512 0.235-0.2349 0-0.4699 0-0.7637-0.0587h-0.1175c-0.5287-0.1175-0.9399-0.3525-1.2924-0.6462l-1.8211 8.9294c0.4112 1.4099 1.2336 2.5261 1.7624 2.6436 0.5875 0.1175 1.7624-0.3525 2.4086-2.1148l1.4686-8.6944c-0.1172-0.1764-0.1761-0.2352-0.2937-0.2939z"/>
			<path d="m566.46 316.54h-0.1176c-0.235 0-0.5287 0-0.7637-0.0588h-0.1175c-0.4699-0.1175-0.8812-0.2937-1.2336-0.5287l-1.4687 8.6357c0.2938 1.5274 1.0574 2.9373 1.7624 2.996 1.1161 0.235 2.2911-0.9399 2.761-3.2898l0.8224-8.107c-0.5286 0.2351-1.0571 0.3526-1.6447 0.3526z"/>
			<path d="m580.27 317.36c-0.1763 0.0588-0.3525 0.0588-0.5288 0.0588h-0.1175c-0.5875 0-1.1161-0.1762-1.645-0.4112l-0.3524 9.6931c0.6461 1.4099 1.7624 2.0561 2.291 1.9386 0.7637 0 2.1736-1.1162 2.6436-3.2898l-0.6462-8.5182c-0.5873 0.2349-1.116 0.4112-1.6447 0.5287z"/>
			<path d="m574.98 317.31c-0.6463 0-1.2338-0.1762-1.7624-0.47l-0.7637 9.0468c0.3525 1.7037 1.2924 2.6436 2.0561 2.6436 1.4687 0.0588 2.2911-1.5861 2.5848-3.4073l0.3525-8.4594c-0.7637 0.4112-1.5861 0.6462-2.4086 0.6462l-0.0587 1e-4z"/>
			<path d="m570.93 317.25h-0.1175c-0.2938 0-0.5875-0.0588-0.8812-0.1175h-0.0587c-0.4699-0.1175-0.8224-0.2937-1.1749-0.47l-0.9987 9.1056c0.4113 1.5861 1.2337 2.5848 1.8212 2.6436 0.9399 0.2937 1.8211-1.1162 2.3499-2.8786l0.7049-8.8119c-0.4114 0.3525-0.9988 0.5288-1.645 0.5288z"/>
			<path d="m520.35 280.24c-0.5875 0-1.8212-0.0588-2.7611-0.7637-1.2925 0.5875-2.7023 0.8225-3.6423 0.8812l-2.291 2.8198c-0.1175 0.8812 1.5862 1.2336 2.761 1.2336 1.1749 0 2.3498-0.3525 3.466-0.8812l2.5261-3.2897h-0.0587z"/>
			<path d="m470.76 277.53c-0.9987 0.235-1.8798 0.3525-2.7022 0.3525-0.94 0-1.8212-0.1762-2.4673-0.47l-0.1176-0.0588-0.1175-0.0587c-0.0587 0-0.0587-0.0588-0.1174-0.1175l-4.2885 2.1736c-0.2937 0.7637 0.8225 1.4099 1.9974 1.7036 0.9988 0.2937 2.8786 0.3525 4.5235-0.1175l4.2297-2.4086c-0.4703-0.2936-0.7641-0.6461-0.9401-0.9986z"/>
			<path d="m510.36 279.65c-1.2338 0.47-2.585 0.6462-3.5248 0.7637l-3.3486 2.8198c0 0.8224 1.7037 1.1162 3.5835 1.1162 0.94 0 2.1736-0.2937 3.3485-0.8225l2.4673-3.0548c-0.7049-0.0587-1.7623-0.2349-2.5259-0.8224z"/>
			<path d="m457.9 272.78c-1.8212-0.1175-3.2898-0.6462-4.3472-1.6449-0.235-0.235-0.4699-0.47-0.6462-0.705l-7.8132 2.7023c-0.9399 0.9987 0.235 2.1736 1.7037 2.8198 0.6462 0.2937 2.3498 0.6462 4.0535 0.6462l7.167-3.1135c-1e-4 -0.1762-0.1176-0.4112-0.1176-0.7049z"/>
			<path d="m446.62 265.84c-1.3512-0.2937-2.1149-0.94-2.4674-1.2924-0.235-0.235-0.4113-0.5287-0.5874-0.8225l-9.5169 1.8799c-0.5287 0.6462-0.3524 1.5862 0.3525 2.1736 0.6462 0.5874 1.9387 0.9987 3.3484 1.0574l8.9882-2.2323c-0.0588-0.235-0.1174-0.47-0.1174-0.7637z"/>
			<path d="m585.02 316.84h-0.4701c-0.7049-0.0588-1.3511-0.235-1.9385-0.5287-0.0588 0.0588-0.1176 0.0588-0.1762 0.1175l0.7637 9.7519c0.5287 1.1749 1.4099 1.8211 2.1736 1.7624 0.5286-0.0588 1.6448-0.9987 2.0561-2.8198l-1.0575-8.7531c-0.4114 0.2348-0.8225 0.411-1.3511 0.4698z"/>
			<path d="m452.49 269.55c-1.8212 0-3.4661-0.5287-4.5234-1.2924-0.3525-0.235-0.5875-0.5875-0.8225-0.8812l-8.5181 2.1149c-0.3525 0.7049 0 1.6449 0.7637 2.3498s2.291 1.0574 3.701 1.1749l9.3994-3.2898c0.0583-0.0587-3e-4 -0.1175-1e-4 -0.1762z"/>
			<path d="m464.24 275.77c-0.4113 0.0588-0.7637 0.0588-1.1163 0.0588-1.8798 0-3.2897-0.4112-4.1708-1.1749-0.1176-0.1175-0.2351-0.235-0.3525-0.3525l-5.9333 2.5261c-0.9399 0.8224 0.4113 1.8798 1.8799 2.2911 1.2336 0.4112 3.1135 0.4112 4.8171 0.1762l5.2871-2.7023c-0.2349-0.235-0.3526-0.5287-0.4112-0.8225z"/>
			<path d="m495.03 279.83c-1.2924 0.5287-2.8198 0.9399-4.7584 0.9399h-0.4699l-3.4073 2.2911c0.1174 0.6462 1.1749 1.1161 2.4673 1.1161 0.6462 0 2.4086-0.1762 4.0535-0.6462l4.5822-3.0548c-0.5287 0.0589-1.6449-0.0586-2.4674-0.6461z"/>
			<path d="m478.99 278.77c-1.3511 0.3525-2.761 0.5287-3.9947 0.5287-0.7637 0-1.4687-0.0587-2.0562-0.235h-0.1175c-0.0587 0-0.1175-0.0588-0.1762-0.0588l-4.5822 2.5848c-0.0588 0.8812 1.2924 1.5274 3.0547 1.5274 1.7036 0.1175 4.1122-0.2937 6.2271-1.1749l3.2311-2.0561c-0.705-0.2349-1.2337-0.6462-1.5861-1.1161z"/>
			<path d="m502.66 279.71c-1.2924 0.47-2.5261 0.705-3.6422 0.7637l-3.701 2.4673c0.0588 0.705 1.4687 1.3512 2.8786 1.3512 0.6462 0 2.0561-0.1175 3.5247-0.6462l3.701-3.1723c-1.175 0-2.1149-0.2937-2.7611-0.7637z"/>
			<path d="m486.74 279.59c-1.3511 0.4112-2.7611 0.6462-4.0535 0.6462h-0.5875c-0.1763 0-0.2937 0-0.47-0.0588l-4.2297 2.6436c0.2937 0.5875 1.3511 0.94 2.4673 0.9987 0.9987 0.0588 3.2899-0.235 5.2871-0.9399l3.2899-2.2911c-0.7047-0.1175-1.2923-0.4701-1.7036-0.9987z"/>
			<path d="m554.77 313.08c-0.2937 0.0588-0.6461 0.1175-0.9398 0.1175-0.5875 0-1.1749-0.1175-1.7624-0.3525h-0.1176c-0.47-0.235-0.8224-0.47-1.1161-0.7637l-1.9387 6.2271c-0.4699 2.2911 0.47 4.7584 1.1162 4.9934 0.9399 0.4112 1.9974 0.1175 2.7611-1.5274l2.1148-8.5182c1e-4 -0.0587-0.0587-0.1175-0.1175-0.1762z"/>
			<path d="m706.04 266.84c-0.235 0.5874-0.5875 1.0574-1.1161 1.4686-0.8225 0.6462-2.115 1.0574-3.5248 1.2337l9.5168 3.5247c1.5862 0 3.4659-0.3525 4.3472-1.1749 0.8812-0.7637 1.1749-1.7624 0.705-2.5261l-9.9281-2.526z"/>
			<path d="m700.28 269.96c-0.1761 0.4112-0.47 0.8812-0.8812 1.2337-1.0574 0.94-2.4673 1.5274-4.2297 1.6449l8.8119 3.8185c1.6449-0.0587 3.2898-0.3525 3.936-0.6462 1.2925-0.5875 2.4086-1.5862 1.9386-2.5261l-9.5756-3.5248z"/>
			<path d="m701.87 276.59l-7.0496-3.0548c-0.1763 0.4112-0.4113 0.7637-0.7637 1.0574-0.8812 0.8224-2.2911 1.1749-4.171 1.1749-0.235 0-0.47 0-0.705-0.0587l6.9321 3.5835c1.4686 0.1175 3.0547 0.1175 4.1122-0.2937 1.5273-0.4113 2.9373-1.5862 1.645-2.4086z"/>
			<path d="m709.51 263.08c-0.1176 0.5874-0.3525 1.1161-0.7637 1.5274-0.3525 0.3525-1.1162 0.9987-2.4673 1.2924v0.1762l11.044 2.7611c1.2336-0.1175 2.3497-0.5287 2.9373-1.0574 0.705-0.5875 0.8812-1.4687 0.3524-2.1149l-11.103-2.5848z"/>
			<path d="m688.42 276.36c-0.235 0.3525-0.5287 0.705-0.8812 0.94l-0.1174 0.0587-0.1174 0.0588c-0.7051 0.2937-1.5275 0.47-2.4674 0.47-0.8225 0-1.7625-0.1175-2.7023-0.3525 0 0.0587-0.059 0.0587-0.059 0.1175l5.9333 3.466c1.4099 0.235 2.8785 0.235 3.7598-0.0588 1.4099-0.2937 2.7023-1.1749 1.7036-2.1148l-5.0522-2.5849h2e-4z"/>
			<path d="m728.72 249.87h0.1174l-12.278-0.7637c0.2349 0.8224 0.1761 1.7036-0.059 2.2911-0.1763 0.47-0.6462 1.5274-1.9973 2.2911 0.059 0.1175 0.059 0.1762 0.059 0.2937l14.217 1.1162c1.1162-0.47 1.9973-1.2337 2.3499-1.9974 0.5872-1.4099-0.5878-3.0548-2.4088-3.231z"/>
			<path d="m712.39 259.26c-0.059 0.5287-0.235 1.0574-0.5287 1.4099l-0.059 0.0588-0.059 0.0587c-0.5874 0.705-1.3511 1.1749-2.2323 1.4099l12.454 2.8785c1.1749-0.1762 2.1736-0.7637 2.8198-1.4686 0.7637-0.8224 0.47-1.8211-0.1763-2.5261l-12.219-1.8211h5e-4z"/>
			<path d="m681.49 278.3c-0.3524 0.2937-0.7637 0.5287-1.3511 0.7637h-0.118c-0.5875 0.1762-1.2925 0.235-2.0562 0.235-1.2336 0-2.7023-0.235-3.9946-0.5287 0 0 0 0.0587-0.059 0.0587l6.2272 3.9947c1.2924 0.2937 2.526 0.4112 3.5247 0.2937 1.9973 0 3.4072-0.7637 2.9961-1.8211l-5.1698-2.996h7e-4z"/>
			<path d="m732.48 242.93h-15.685c0.3525 0.5875 0.5875 1.2924 0.5875 2.1736v0.2937c-0.1763 1.2337-0.5875 2.1149-1.1749 2.7611l14.804 0.8812c1.0574-0.6462 1.7623-1.7624 1.9386-3.1135 0.2349-2.1738-0.47-2.9962-0.47-2.9961z"/>
			<path d="m727.48 255.8l-12.748-0.9987c0 0.3525-0.1176 0.7049-0.235 1.0574-0.3525 0.8224-1.0575 1.7036-2.1736 2.2323 0.059 0.1175 0.059 0.2937 0.059 0.4112l13.159 1.9973c0.9988-0.1762 1.9974-0.5875 2.8785-1.4687 0.7639-1.1747 0.1763-2.5846-0.9399-3.2308h-3e-4z"/>
			<path d="m603.94 311.61c-0.3524 0.235-0.705 0.47-1.0574 0.5875l-0.0588 0.0588h-0.0588c-0.4699 0.1762-0.9399 0.235-1.4099 0.235h-0.1174-0.235v0.0588l-0.47 0.1762h-0.0588c-0.0587 0.0588-0.1175 0.1175-0.1762 0.1762l2.4086 9.2231c0.5287 0.47 1.1162 0.6462 1.8212 0.4112 1.2336-0.5287 1.9386-1.9386 1.5273-4.4059l-2.1148-6.5209z"/>
			<path d="m635.25 282.53l-1.7624-2.3498c-0.3524 0.0588-0.6461 0.0588-0.8812 0.0588-0.1175 0-2.1148 0-3.8772-0.6462-0.4113 0.2937-0.9399 0.47-1.5862 0.5874l1.5862 2.9373c1.4099 0.94 3.0548 1.4687 4.5822 1.4687 2.0561 0 2.8786-1.1749 1.7037-2.2323 0-1e-4 0.1173 0.1174 0.2349 0.1761z"/>
			<path d="m589.02 316.25h-0.1763-0.1175c-0.47 0-0.9987-0.1175-1.5861-0.3525-0.0588 0.0588-0.1763 0.1175-0.235 0.1763l1.1162 9.4581c0.4699 1.1162 1.2924 1.8212 1.9973 1.7624 1.2924 0 1.9974-1.4099 2.2324-3.1135l-1.1162-8.4594c-0.646 0.2936-1.3509 0.5286-2.1148 0.5286z"/>
			<path d="m631.32 304.68c-4.8759-4.4059-11.397 2.5261-6.5208 6.9908-8.4006 0.5875-10.574-8.8119-12.16-13.688-1.6448-5.0521-4.2885-9.2231-7.3433-12.395-2.7023-1.9974-5.8158-3.936-8.5769-4.9347h-0.2937c-0.3525 0-1.7624-0.0587-2.6436-0.235-0.7636 0.8224-1.5862 1.5274-2.4673 2.2323l5.9334 18.74c0.2937 0.1762 0.5875 0.235 0.9399 0.235 0.235 0 0.47-0.0587 0.6462-0.1175 0.705-0.2937 1.1749-0.8224 1.4686-1.5861l-4.9346-15.979c0.4112 0.1762 0.7637 0.3525 1.1749 0.5287 0.0588 0 0.1175 0.0588 0.1175 0.0588 4.5234 2.3498 9.9281 7.4608 13.277 18.799 4.3472 14.569 15.156 12.807 17.8 12.337 6.6384-1.175 7.4021-7.5195 3.5836-10.986z"/>
			<path d="m595.6 314.43c-0.5287 0.4112-1.1161 0.6462-1.7624 0.7637-0.1762 0-0.4112 0.0587-0.5875 0.0587h-0.0587c-0.3525 0-0.7637-0.0587-1.2338-0.1762-0.1174 0.1175-0.1763 0.1762-0.2937 0.235l1.2337 9.0469c0.5875 1.0574 1.4687 1.7624 2.2323 1.6449 1.1162-0.1762 2.1149-2.3498 1.9386-4.3472l-1.4685-7.2258z"/>
			<path d="m599.77 313.31c-0.47 0.2937-0.9987 0.5287-1.5861 0.6462-0.2938 0.0588-0.5288 0.1175-0.7637 0.1175h-0.1175c-0.235 0-0.47-0.0587-0.7637-0.1175-0.0588 0-0.0588 0-0.1174 0.0588l-0.2938 0.0587 1.8799 9.6344c0.5875 0.6462 1.2924 0.9399 1.7036 0.8224 1.0574-0.235 2.0561-1.4686 1.8799-3.9359l-1.8212-7.2846z"/>
			<path d="m673.26 279.41c-0.6462 0.47-1.4686 0.705-2.4674 0.7637h-0.5874c-1.2924 0-2.7023-0.235-4.0535-0.6462-0.059 0.0587-0.1174 0.1762-0.1763 0.235l5.1697 3.5835c1.4687 0.3525 2.9373 0.47 3.6422 0.47 1.7037-0.1175 3.4073-0.9399 2.1149-2.1148l-3.6422-2.2912z"/>
			<path d="m665.27 280.3c-0.47 0.235-1.0574 0.4112-1.7037 0.47h-0.9399c-1.9387 0-3.5248-0.4112-4.7585-0.9399-0.2349 0.1762-0.4699 0.2937-0.705 0.3525l5.2872 3.5248c1.4099 0.3525 2.8198 0.47 3.4073 0.47 1.8211 0 3.231-0.9987 2.0561-1.9974 0.1762 0.0588 0.2938 0.1762 0.4699 0.235l-3.1134-2.115z"/>
			<path d="m642.71 282.47l-1.7624-2.1736c-0.5287 0.1175-0.9987 0.1175-1.2336 0.1175-0.7049 0-2.6436-0.1762-4.3472-0.94-0.2937 0.235-0.6462 0.3525-0.9987 0.47l2.8199 3.7597c0.9986 0.47 2.0561 0.7637 3.1135 0.7637 1.5274 0 3.936-0.5875 2.1736-2.1736 0.0587 0.0588 0.1762 0.1175 0.2349 0.1763z"/>
			<path d="m656.11 280.47c-0.3524 0.0588-0.6461 0.0588-0.8224 0.0588-1.5275 0-3.231-0.1175-5.0522-0.8225-0.2349 0.235-0.5875 0.3525-0.9399 0.47l4.2297 3.6422c1.2336 0.3525 2.4086 0.47 2.996 0.47 1.6448 0 3.231-0.8225 2.8198-1.6449l-3.231-2.1736z"/>
			<path d="m648.29 280.41c-0.235 0.0587-0.5287 0.0587-0.8224 0.0587-0.5875 0-2.8198-0.0587-4.8759-0.8224-0.235 0.1762-0.47 0.2937-0.7637 0.4112l2.8785 3.5835c1.0575 0.47 2.1149 0.705 2.9961 0.705 2.1148 0 4.0534-0.4112 3.4659-1.4686l-2.8785-2.4674z"/>
			<path d="m546.31 282.76l0.7637-2.7023c-0.6462 0.235-1.3512 0.3525-2.1149 0.3525-0.4112 0-1.7036-0.0588-2.6436-0.7637-0.1174 0.0587-0.2937 0.1175-0.4112 0.1762l-1.2924 4.1122c0.4699 0.4112 1.2336 0.6462 1.821 0.6462 0.8227 0.0588 2.7613-0.6462 3.8774-1.8211z"/>
			<path d="m478.64 263.02c-1.7624 0.8812-3.2899 2.1149-0.3525 3.5248 0.235 0.1175 1.5275 0.235 3.5836 0.3525l37.95-14.745c-0.4112-0.2937-0.7637-0.5287-1.1161-0.8224l-40.065 11.69z"/>
			<path d="m501.49 271.54c-0.2937 0.705 0 1.3512 1.0574 1.4099h0.3525c1.4099 0 2.7611-0.4112 3.936-0.8812l21.384-15.979c-0.5287-0.1762-0.9987-0.2937-1.4687-0.47l-25.261 15.92z"/>
			<path d="m495.26 270.66c-0.2937 0.5875 0.0587 1.2337 0.7637 1.5274 0.4113 0.1762 0.8812 0.235 1.3512 0.235 0.6462 0 1.3511-0.1175 2.0561-0.3525l26.494-16.684c-0.47-0.1762-0.8812-0.3525-1.2924-0.5287l-29.373 15.803z"/>
			<path d="m489.86 268.84c-0.9399 0.8224-1.1749 1.8211 0.705 2.3498 0.1762 0.0588 0.4113 0.0588 0.6462 0.0588 0.5875 0 1.3512-0.1175 2.0561-0.2937l30.607-16.449c-0.5288-0.235-1.0574-0.47-1.5275-0.7637l-32.486 15.098z"/>
			<path d="m473.99 258.62c-1.3511 0.5875-2.4673 1.8799-1.6449 3.1136 0.7637 1.1161 1.8799 1.4099 3.1723 1.4099h0.5287l42.003-12.219c-0.4699-0.3524-0.8812-0.7637-1.2924-1.1162l-42.767 8.8119z"/>
			<path d="m482.45 267.37c-0.705 0.94 0.705 1.8212 2.6436 2.1736 0.3524 0.0587 0.705 0.1175 1.0574 0.1175h0.4113l35.071-16.331c-0.4112-0.235-0.8224-0.47-1.1749-0.7049l-38.009 14.745z"/>
			<path d="m448.97 266.9c0.5875 0.4112 1.821 0.9399 3.6422 0.9399 0.8224 0 1.7036-0.1175 2.7023-0.3525-0.0554 0.0277-0.11 0.0546-0.1592 0.0762l15.727-4.8346c-0.5287-0.7637-0.7637-1.7036-0.5287-2.5848h-0.0587l-21.618 4.6997c-0.6463 0.705-0.2351 1.6449 0.2937 2.0561z"/>
			<path d="m454.73 269.9c0.9399 0.8224 2.2323 1.1749 3.8185 1.1749 0.5875 0 1.1749-0.0587 1.8211-0.1762l14.686-5.1696c-0.1175-0.2937-0.1175-0.5287-0.1175-0.8225v-0.0587c-1.4686-0.1175-2.5848-0.6462-3.466-1.5862l-17.212 5.2871c-0.2352 0.5288 0.0585 0.9988 0.4699 1.3512z"/>
			<path d="m469.88 254.39c-0.9398 0.5875-1.5861 1.3512-1.3511 2.0561 0.5287 1.3512 1.5862 1.8798 2.7611 2.0561l44.882-9.2819c-0.4112-0.4112-0.8224-0.8224-1.1161-1.2336l-45.176 6.4033z"/>
			<path d="m455.15 267.57l-0.1345 0.0413c0.0311 1e-4 0.0793-0.0171 0.1345-0.0413z"/>
			<path d="m554.77 270.02l-0.5286 2.2323c0.3525-0.1175 0.7637-0.2937 1.0574-0.47-0.235-0.5873-0.3525-1.1748-0.5288-1.7623z"/>
			<path d="m543.9 272.19c0.1176 0.5875 0.8225 0.8812 1.8212 0.8812 1.0575 0 2.1736-0.5874 2.8785-1.2337l3.6423-13.805h-2.9373l-5.4047 14.158z"/>
			<path d="m463.07 274.07c0.8812 0 1.821-0.1175 2.7022-0.2937l12.572-5.4046c-0.5288-0.0588-0.6463-0.1762-0.8226-0.235-1.0574-0.5287-1.821-1.1162-2.2323-1.7624l-15.392 5.4046c-0.3524 0.5287-0.3524 1.0574 0.1763 1.5274 0.5874 0.5287 1.7036 0.7637 2.9961 0.7637z"/>
			<path d="m549.25 272.25c0.2349 0.47 0.7637 0.705 1.6449 0.705 0.705 0 1.7036-0.1762 2.6436-0.47l0.9399-3.936c-0.2349-1.2924-0.3524-2.5848-0.3524-3.8772 0-2.2324 0.2938-4.4059 0.9399-6.5208h-2.1147l-3.7012 14.099z"/>
			<path d="m550.66 279c0.8812 0 2.6436-0.4112 3.4661-1.3512l1.0574-3.936c-1.4687 0.5875-3.2311 0.9987-4.2885 0.9987-0.5875 0-1.0574-0.0587-1.4686-0.235l-0.9987 3.5835c0.4113 0.6462 1.5274 0.94 2.2323 0.94z"/>
			<path d="m547.84 277.59l0.9399-3.3485c-0.0588-0.0587-0.1763-0.1175-0.235-0.1175-0.8812 0.47-1.8799 0.8225-2.8198 0.8225-0.7637 0-1.3512-0.1175-1.8212-0.2937l-1.0574 3.3485c0.4113 0.47 1.4099 0.7049 2.0561 0.7049 1.1751-1e-4 2.2913-0.47 2.9374-1.1162z"/>
			<path d="m520.99 271.66c0.1762-0.1762 0.4113-0.2937 0.5874-0.47-0.8224 0.7637-0.6461 2.1149 1.2338 2.1149 0.8812 0 1.7036-0.2937 2.5261-0.6462l11.514-14.921c-0.9399-0.1175-1.821-0.235-2.7022-0.3525l-13.159 14.275z"/>
			<path d="m514.76 271.54c-0.7637 0.9987 0 1.9974 1.2924 1.9974h0.1175c1.0574 0 1.9974-0.235 2.8198-0.6462l14.393-15.626c-0.705-0.1175-1.3512-0.235-2.0562-0.4112l-16.566 14.686z"/>
			<path d="m508.07 271.95c-0.1175 0.5875 0.3525 1.1162 1.2337 1.3512 0.2349 0.0587 0.5287 0.0587 0.7637 0.0587 0.7637 0 1.5273-0.1762 2.291-0.47l-0.0587-0.0588 18.152-16.155c-0.5287-0.1175-0.9987-0.235-1.5275-0.4112l-20.855 15.685z"/>
			<path d="m538.56 272.13c0.1761 0.5875 1.1161 0.8812 1.7623 0.8812 1.1161 0 2.2323-0.4112 2.996-0.9987l5.3459-13.923h-3.4073l-6.6969 14.04z"/>
			<path d="m526.75 271.78c0.2938-0.235 0.5287-0.4112 0.7637-0.5874-0.8224 0.7637 0.1175 1.9974 1.1161 1.9974 1.1749 0 2.5261-0.47 3.701-1.1749l7.9896-13.982c-0.9399-0.0587-1.8799-0.1175-2.7611-0.1762l-10.809 13.923z"/>
			<path d="m438.81 248.57c-0.94 0.6462-0.9987 1.6449-0.7637 2.2323 0.235 0.6462 0.94 1.7036 2.9961 1.8212l22.617-1.9386c0-0.47 0.1762-0.94 0.4112-1.3512 0.0587-0.1175 0.1175-0.235 0.2349-0.3525-0.6461-0.4112-1.1161-0.9399-1.4686-1.6449l-24.027 1.2337z"/>
			<path d="m465.54 251.69c0.6462 1.4099 2.1149 1.9974 3.466 2.1736l45.587-6.4621c-0.2938-0.4112-0.5875-0.8225-0.8224-1.1749l-46.586 2.9373c-1.2925 0.3525-2.2324 1.1749-1.645 2.5261z"/>
			<path d="m556.47 278.89c0.3524 0 1.4686-0.6462 1.9973-0.8224-1.0574-1.4099-1.8798-2.9373-2.5848-4.5822l-1.2337 4.6997c0.4115 0.5286 1.2926 0.7049 1.8212 0.7049z"/>
			<path d="m554.77 280.3c-0.2937-0.1175-0.5875-0.235-0.8224-0.4112-1.1749 0.5874-2.5261 0.8224-3.2898 0.8224-0.8812 0-1.9386-0.235-2.761-0.7637l-1.1161 4.0535c0.3524 0.3525 0.8812 0.5287 1.4099 0.5875 1.9974-1.4687 4.2885-3.0549 6.5794-4.2885z"/>
			<path d="m467.36 248.4l46.057-2.8786c-0.6463-1.1161-0.94-1.9386-0.94-2.0561l-0.1762-0.5287h-47.408c-0.5875 1.6449-0.8812 2.3498-0.7637 2.996 0.1763 1.3513 1.7037 2.115 3.2311 2.4674z"/>
			<path d="m532.74 274.66l-1.7036 3.1723c0.2937 0.5875 1.4686 0.8225 2.1736 0.8225 0.7049 0 1.9386-0.2937 2.8785-0.8225l1.8799-3.7597c-1.1749 0.5875-2.5261 0.8812-3.6423 0.8812-0.5874-1e-4 -1.1161-0.1176-1.5861-0.2938z"/>
			<path d="m440.63 258.03c-1.1162-0.5287-1.8211-1.3512-2.1736-2.2323-0.1762-0.2937-0.2349-0.6462-0.2349-0.9987l-10.692 0.8224c-1.2924 0.5287-2.1149 2.1149-1.2337 3.2898 0.6463 0.705 1.4099 1.1162 2.2324 1.3512l11.984-1.7624c0.0588-0.1762 0.0588-0.2938 0.1175-0.47z"/>
			<path d="m466.3 275.83c0.47 0.235 1.0574 0.2937 1.7624 0.2937 0.8224 0 1.7624-0.1763 2.761-0.4112l10.986-5.5809c-0.5875-0.4112-0.9987-0.94-1.1749-1.5274-0.4112 0-0.705-0.0587-0.9987-0.0587l-13.512 5.8158c-0.4112 0.5875-0.3525 1.1162 0.1763 1.4687z"/>
			<path d="m436.46 248.81c0.0587-0.1763 0.1763-0.3525 0.2349-0.5287-0.5286-0.6462-0.9987-1.5274-1.1749-2.8198v-0.2938c0-0.8812 0.2351-1.5861 0.5875-2.1736h-13.923s-0.705 0.8224-0.4112 3.1135c0.1763 1.5274 0.9987 2.6436 2.2324 3.2898l12.454-0.5874z"/>
			<path d="m438.39 253.68c-1.2925-0.7637-1.8212-1.8211-1.9974-2.2911s-0.2349-1.1161-0.1762-1.7624l-11.162 0.47c-1.2925 0.5287-1.9974 1.8211-1.5274 2.996 0.2938 0.7637 1.1161 1.4686 2.0562 1.9386l12.63-0.9987c0.1172-0.1762 0.1172-0.2937 0.1761-0.3524z"/>
			<path d="m439.22 247.87l23.263-1.1749c-0.0588-0.1762-0.1175-0.3525-0.1175-0.5287-0.1176-0.94 0.1175-1.7624 0.5287-2.9373 0.0587-0.1175 0.0587-0.1763 0.1175-0.2937h-24.438c-0.6462 0.2937-1.3511 0.9399-1.3511 2.1736 0.1174 0.7049 0.2939 2.291 1.9973 2.761z"/>
			<path d="m535.38 284.47c1.8799 0 3.9948-0.8812 4.8173-1.9973l0.705-2.2911c-0.705 0.1763-1.2924 0.235-1.7624 0.235-1.1162 0-2.0561-0.2937-2.761-0.7637-0.2938 0.1175-0.5875 0.235-0.8225 0.2937l-1.8211 3.5835c0.1763 0.6461 0.94 0.9398 1.6447 0.9399z"/>
			<path d="m482.22 278.47h0.47c2.2324 0 4.5822-0.7637 6.1096-1.6449-0.1176 0.0588-0.235 0.1763-0.3525 0.235l5.9921-3.8185c-0.2349-0.1762-0.4112-0.4112-0.5875-0.6462-0.8812 0.235-1.8211 0.4112-2.6436 0.4112-0.3525 0-0.6462 0-0.9399-0.0587h-0.1176c-0.5875-0.1763-0.9987-0.3525-1.3511-0.5875l-8.5182 4.8759c-0.1175 0.6462 0.5875 1.1749 1.9387 1.2337z"/>
			<path d="m489.39 279h0.8224c2.6584 0 4.5496-0.8724 5.9979-1.8287-0.1288 0.1017-0.2149 0.2166-0.2996 0.3013l4.876-3.3485c-0.235-0.1762-0.4112-0.3524-0.5875-0.5287-0.94 0.2937-1.8799 0.47-2.761 0.47-0.705 0-1.41-0.1175-1.9974-0.3525h-0.0587c-0.1176-0.0587-0.1763-0.1175-0.2938-0.1175l-7.1671 4.5234c0.1175 0.5287 0.705 0.8812 1.4688 0.8812z"/>
			<path d="m473.35 277.42c0.4699 0.1175 0.9986 0.1763 1.6448 0.1763 1.5273 0 3.466-0.3525 4.9346-0.94l8.3419-4.7584c-0.2349-0.1763-0.3525-0.4112-0.47-0.5875-0.5287 0.1175-1.0574 0.1762-1.5861 0.1762-0.47 0-0.9399-0.0588-1.4099-0.1175-0.8812-0.1762-1.7037-0.4112-2.2912-0.7637l-9.9868 5.1109c-0.6462 0.6463-0.4112 1.2925 0.8227 1.7037z"/>
			<path d="m502.02 278.12l5.5221-3.701c-0.235-0.1175-0.4112-0.2937-0.5875-0.47-1.1749 0.47-2.5848 0.8224-4.1122 0.8224h-0.4112c-0.4113 0-0.7637-0.0587-1.0574-0.1762l-5.5222 3.8185c0.3525 0.2937 1.1162 0.47 1.7624 0.47 1.5274-0.1175 2.9961-0.235 4.406-0.7637z"/>
			<path d="m505.42 278.77c0.94 0 3.2898-0.1763 4.9934-0.9987l3.5247-2.9961c-0.1761-0.1175-0.3524-0.2937-0.5286-0.4112-1.1162 0.47-2.2911 0.7637-3.3485 0.7637-0.3525 0-0.705 0-1.0574-0.0588h-0.0588c-0.2937-0.0587-0.5286-0.1175-0.7636-0.235l-4.641 3.1135c-0.0588 0.5289 0.94 0.8226 1.8798 0.8226z"/>
			<path d="m528.45 284.64c1.7036 0 3.4072-0.8225 4.6409-1.7624l1.3512-2.6436c-0.5288 0.1175-0.94 0.1175-1.2337 0.1175-0.2349 0-1.7036 0-2.761-0.7637-0.47 0.235-1.0574 0.4112-1.7037 0.5287l-1.9974 3.701c0.294 0.47 0.9989 0.8224 1.7037 0.8225z"/>
			<path d="m520.35 278.53c0.7636 0 2.6436-0.1762 3.7596-0.7637l2.6436-3.4073c-0.1174-0.0588-0.2349-0.1763-0.2937-0.235-0.9987 0.5287-2.291 0.9987-3.6422 0.9987-0.8812 0-1.5861-0.235-2.1736-0.5875l-2.4086 2.996c-0.0587 0.6463 1.0573 0.9988 2.1149 0.9988z"/>
			<path d="m527.28 278.53c1.2925 0 2.2911-0.3525 3.1135-0.8812l1.8212-3.2898c-0.0588-0.0588-0.1763-0.1175-0.235-0.1763-1.1162 0.47-2.2911 0.7637-3.3486 0.7637-0.47 0-0.8812-0.1175-1.2924-0.2937l-2.4086 3.1723c0.1763 0.5288 1.2338 0.705 2.3499 0.705z"/>
			<path d="m513.18 278.71c0.8224 0 2.4673-0.235 3.8185-0.8812l2.7023-3.3485c-1.1749 0.5287-2.3499 0.8224-3.5835 0.8224h-0.1175c-0.47 0-0.9399-0.1175-1.3511-0.235l-3.466 2.9373c0.2349 0.4701 1.2337 0.705 1.9973 0.705z"/>
				<path d="m363.59 612.17c-2.2922-3.66-20.133-4.5007-28.622-4.8237l-1.5336-83.06 3.8257-0.5278c5.3204-1e-3 19.875-2.1609 28.398-4.2137 8.047-1.938 17.884-5.2384 25.166-8.4429 2.9265-1.288 7.52-3.0168 7.4111-4.0537-0.147-1.3998-6.5895-0.1455-8.526 0.0349-15.054 1.4022-41.612 0.749-66.926-1.6463-18.26-1.7277-25.963-2.5011-41.177-2.4755-16.302 0.0274-21.66 0.874-31.516 2.9479-3.7575 0.7906-4.7822 1.1109-4.7822 1.1109s3.4334 1.6925 6.5617 3.0258c21.332 9.0915 47.472 14.221 72.511 14.229 3.1835 1e-3 5.8857 0.1764 6.005 0.3898l-2.4545 82.607c-10.368 0.7408-30.694-0.7125-33.399 5.0869 3.1273 0.2274 66.517-0.0257 69.058-0.189zm-32.857-109.36c-5.5185-12.726-7.8887-22.333-7.9109-32.067-0.0145-6.309 0.6664-10.559 3.3408-20.853 4.1527-15.984 4.4153-21.416 1.7298-35.783l-0.6018-2.0736 1.671 2.5909c2.7276 4.5103 7.5436 14.962 9.5772 21.046 5.0497 15.106 5.4437 30.5 0.355 49.03-2.7396 9.9766-6.7252 20.291-6.7252 20.291s-0.574-0.1955-1.4359-2.1828zm2.5567-12.671c1.1381-6.4286 1.2759-15.324 0.3361-21.685-0.4803-3.2504-1.1761-6.4879-1.5463-7.1946-0.6573-1.2545-0.6901-1.2188-1.3912 1.5135-0.9359 3.6473-0.9635 21.027-0.0415 26.073 1.2119 6.6326 1.6589 6.8513 2.6429 1.293z"/>
				<path d="m309.72 620.76h-0.0229c-64.196 0-116.43-52.227-116.45-116.42-6e-3 -31.149 12.101-60.394 34.09-82.392 21.989-21.998 51.229-34.117 82.332-34.123 64.219 0 116.46 52.227 116.47 116.42 0.0128 64.255-52.214 116.5-116.42 116.52zm-0.0229-230c-30.342 6e-3 -58.844 11.818-80.279 33.261-21.435 21.443-33.236 49.95-33.23 80.27 0.0122 62.622 50.932 113.53 113.51 113.53v1.4688l0.022-1.4688c62.589-0.0128 113.5-50.942 113.49-113.53-0.0127-62.622-50.932-113.53-113.51-113.53z"/>
				<path d="m283.86 620.76h-0.0229c-64.196 0-116.43-52.227-116.45-116.42-6e-3 -31.149 12.101-60.394 34.09-82.392 21.989-21.998 51.229-34.117 82.333-34.123 64.219 0 116.46 52.227 116.47 116.42 0.0122 64.255-52.215 116.5-116.42 116.52zm-0.0225-230c-30.342 6e-3 -58.845 11.818-80.279 33.261-21.435 21.443-33.236 49.95-33.23 80.27 0.0127 62.622 50.932 113.53 113.51 113.53v1.4688l0.022-1.4688c62.589-0.0128 113.5-50.942 113.49-113.53-0.0129-62.622-50.932-113.53-113.51-113.53z"/>
			<path d="m159.66 973.51c-0.2427 0-0.4847-3e-3 -0.7271-5e-3 0.242 3e-3 0.4844 5e-3 0.7271 5e-3z"/>
			<path d="m159.66 746c-63.513 0-115 51.487-115 115s51.487 115 115 115 115-51.487 115-115-51.487-115-115-115zm0 186.19c-8.2484 0-14.935-6.6866-14.935-14.935s6.6866-14.935 14.935-14.935 14.935 6.6866 14.935 14.935c0 8.2484-6.6867 14.935-14.935 14.935zm0-71.19c-31.069 0-56.255 25.186-56.255 56.255 0 30.826 24.794 55.862 55.528 56.251-61.803-0.3914-111.78-50.611-111.78-112.51 0-62.138 50.373-112.51 112.51-112.51 31.069 0 56.255 25.186 56.255 56.255s-25.186 56.255-56.255 56.255z"/>
			<circle cx="159.66" cy="804.74" r="14.935"/>
		<path d="m203.6 1137.5c-4.608 5.9136-9.4464 10.637-17.242 16.781-3.9936 3.1488-6.0672 5.0304-6.0672 5.4912 0 0.3839 0.4224 1.5743 0.96 2.6112 1.0752 2.1119 1.1904 3.1488 0.4992 3.7632-0.2688 0.192-2.1504 1.2672-4.1472 2.3807-11.136 6.1824-20.122 15.514-25.92 26.995-4.3008 8.4865-5.952 15.36-5.952 24.806 0 6.72 0.7296 11.482 2.496 16.781 5.0688 15.245 16.32 28.07 31.219 35.674 1.9968 1.0367 3.5328 2.0352 3.5328 2.3807 0 0.2688-0.9216 2.5729-2.0736 5.1072l-2.0352 4.5313 3.3024 1.4592c3.8784 1.7664 9.8688 5.2607 14.208 8.4095l3.1104 2.2272v7.0272c0 4.4545-0.1536 7.104-0.384 7.2576-0.6912 0.4225-12.941-6.7583-20.928-12.288-15.014-10.368-27.379-22.234-34.637-33.254-4.608-7.0656-8.4864-16.205-10.867-25.651-1.8816-7.6031-2.4576-12.25-2.4576-19.622 0-8.1024 0.6912-11.482 3.6096-17.626 2.304-4.8 4.2624-7.4496 11.443-15.782 7.2192-8.2943 7.9488-9.2159 7.296-9.2159-1.9584 0-11.29 4.7231-15.437 7.8336-4.1088 3.0336-11.251 10.022-14.131 13.824-2.688 3.5712-6.72 11.635-8.3712 16.704-2.8416 8.7936-3.5712 15.59-2.688 25.766 0.7296 8.3711 1.8432 13.632 4.8 22.272 5.4528 15.821 8.448 21.12 24.192 42.24 9.9072 13.325 11.635 16.474 13.286 24.538 0.384 1.9968 0.8448 3.7247 0.9216 3.84 0.1152 0.077 0.6912-0.2688 1.2672-0.7679 3.264-3.0337 16.55-14.477 19.661-16.973 1.9968-1.6512 3.8784-2.9569 4.224-2.9569 0.9216 0 6.6432 2.4576 10.061 4.3392 5.2992 2.9185 5.376 2.496-0.4992 5.0688-2.8416 1.2672-6.336 2.9183-7.7952 3.7247-5.376 2.9568-11.098 8.6017-12.941 12.787-0.8448 1.92-1.4208 7.0272-0.96 8.832 0.4224 1.6128 3.1872 4.3392 4.9152 4.8384 4.1856 1.1136 10.214-2.304 11.482-6.528 0.384-1.344 0.3456-2.0353-0.5376-5.4144l-0.96-3.9169 1.7664-1.1135c4.2624-2.7264 9.0624-4.5696 14.208-5.4912l1.2288-0.2305v8.1792c0 4.4928-0.1536 8.7168-0.384 9.4081-0.192 0.7296-0.96 1.9584-1.6896 2.7648-2.7648 3.072-3.5328 6.3744-2.3424 10.022 1.0368 3.0336 4.3008 6.2207 7.296 7.0656 3.1488 0.9216 7.1424 0.6528 9.9456-0.7296 4.0704-1.9968 7.1808-6.7968 6.5664-10.099-0.3072-1.8048-2.1504-5.376-3.5328-7.0271l-1.0752-1.3057-0.1152-8.2175c-0.1536-9.8689-0.1152-10.138 1.5744-9.7921 4.416 0.8448 15.245 5.7985 15.245 6.9889 0 0.3456-0.3456 1.9199-0.768 3.4944-0.96 3.6479-0.96 5.0304 0 6.8735 1.8432 3.6096 7.2192 6.0673 11.059 5.0304 3.072-0.8064 5.4144-5.2607 4.8768-9.2544-0.4608-3.3407-2.6112-7.0271-6.2976-10.714-4.608-4.5697-9.8304-7.8336-18.202-11.328l-2.6496-1.1136 0.8832-0.6528c1.4976-1.1135 7.68-4.1088 10.982-5.2992l3.1488-1.1135 2.0352 1.4591c1.1136 0.7681 6.6816 5.4529 12.403 10.33 5.6832 4.8768 10.445 8.7168 10.598 8.5632s0.4992-1.728 0.7296-3.4944c0.9984-7.488 3.6864-12.058 18.509-31.45 7.872-10.291 8.64-11.443 11.597-17.357 5.8368-11.75 9.5616-22.464 11.443-33.024 0.7296-3.9935 0.8832-6.2207 0.8832-13.248 0-9.5616-0.6528-13.862-3.1488-21.082-4.6464-13.363-14.63-25.344-27.187-32.602-3.456-2.0352-9.5616-4.6079-10.483-4.416-0.6912 0.1537 1.7664 3.3408 8.7168 11.251 5.8368 6.6433 8.1792 9.8689 10.022 13.824 2.3424 4.9152 2.8032 7.6416 2.9952 17.126 0.192 10.022-0.3456 14.208-2.8032 22.771-4.3392 15.168-10.906 25.958-23.386 38.477-8.5632 8.5248-17.434 15.59-26.842 21.427-7.2192 4.4543-14.976 8.7168-15.475 8.5248-0.4224-0.1536-0.5376-1.6512-0.5376-7.104v-6.912l3.7632-2.688c4.416-3.1488 8.3712-5.5297 13.555-8.1024l3.8016-1.92-2.3424-4.6464c-1.2672-2.5728-2.1888-4.8-1.9968-4.9536 0.1536-0.192 1.4208-0.7679 2.8032-1.3055 8.64-3.4944 19.853-12.826 25.728-21.389 6.8352-9.9457 10.022-20.045 10.022-31.757 0-13.133-3.84-24.115-12.173-34.829-6.0288-7.7952-16.013-15.782-23.347-18.778-1.1904-0.4991-2.2656-0.9984-2.3808-1.1135-0.1152-0.1152 0.4224-1.6512 1.1904-3.4176l1.3824-3.1873-0.8832-0.5759c-7.7184-5.1456-17.894-14.477-22.771-20.89-1.2672-1.6511-2.6496-3.4559-3.1104-3.9935l-0.768-0.9601-3.725 4.7997v-1e-4zm28.224 41.434c1.728 0.8832 4.1088 2.2656 5.2607 3.1105 3.2256 2.3424 11.52 10.867 13.555 13.939 4.3392 6.6049 7.68 18.739 7.0656 25.958-0.3072 3.7632-1.6896 9.2928-3.3024 13.133-2.3424 5.6448-9.5616 15.552-14.246 19.546-2.688 2.304-12.326 9.5232-12.71 9.5232-0.4992 0-4.4544-13.824-6.72-23.424-1.8047-7.7567-1.6128-25.459 0.4224-36.518 1.7664-9.5616 6.3744-26.842 7.1808-26.842 0.1921 0 1.7665 0.6912 3.4945 1.5743zm-43.392 4.1857c9.3312 32.371 9.5232 51.763 0.8448 76.301-0.768 2.1888-1.6128 3.9552-1.8816 3.9552-0.6912 0-8.1024-4.4928-11.251-6.8352-5.4912-4.1088-10.33-10.138-13.747-17.165-3.1104-6.4512-3.648-8.7936-3.8784-16.589-0.3072-9.792 0.768-15.398 4.3392-22.464 3.1488-6.2208 9.1008-13.402 14.362-17.242 3.1104-2.3041 8.5248-5.376 9.1776-5.2609 0.3456 0.077 1.1137 2.0735 2.0352 5.2991v1e-4z"/>
			<path d="m528.08 1514.7c-5.7923-13.694-14.084-25.993-24.644-36.553-10.56-10.56-22.858-18.852-36.553-24.644-14.18-5.9977-29.241-9.0387-44.764-9.0387s-30.584 3.041-44.764 9.0387c-13.694 5.7924-25.993 14.084-36.553 24.644s-18.852 22.858-24.644 36.553c-5.9976 14.18-9.0387 29.241-9.0387 44.764s3.0411 30.584 9.0387 44.764c5.7924 13.695 14.084 25.993 24.644 36.553 10.56 10.56 22.858 18.852 36.553 24.644 14.18 5.9977 29.241 9.0387 44.764 9.0387s30.584-3.041 44.764-9.0387c13.695-5.7924 25.993-14.084 36.553-24.644 10.56-10.56 18.852-22.858 24.644-36.553 5.9976-14.18 9.0387-29.241 9.0387-44.764s-3.0411-30.584-9.0387-44.764zm2.0186 41.507h-104.39v-104.71c56.83 1.8669 102.69 47.839 104.39 104.71zm-111.57-104.71v104.71h-104.39c1.6929-56.873 47.556-102.84 104.39-104.71zm-104.36 111.9h104.36v104.04c-56.606-1.8597-102.33-47.477-104.36-104.04v3e-4zm111.55 104.04v-104.04h104.36c-2.0329 56.562-47.759 102.18-104.36 104.04z"/>
			<circle cx="466.33" cy="1516.6" r="16.602"/>
			<circle cx="381.38" cy="1516.6" r="16.602"/>
			<circle cx="381.38" cy="1599.1" r="16.602"/>
			<circle cx="464.82" cy="1599.1" r="16.602"/>
			<path d="m666.05 1658.1c0-2.766 6.7412-8.7634 6.7412-10.378h-24.224c0 1.9607 7.0563 7.6111 7.0563 10.378h10.427z"/>
			<path d="m672.79 1660h-24.224c0 1.9613 7.0563 7.6112 7.0563 10.378h10.427c-2e-4 -2.7671 6.7412-8.7636 6.7412-10.378z"/>
			<path d="m694.95 1658.1c0-2.766 6.7411-8.7634 6.7411-10.378h-24.224c0 1.9607 7.0564 7.6111 7.0564 10.378h10.427z"/>
			<path d="m694.95 1670.4c0-2.7671 6.7411-8.7634 6.7411-10.378h-24.224c0 1.9613 7.0564 7.6112 7.0564 10.378h10.427z"/>
			<path d="m724.81 1658.1c0-2.766 6.7411-8.7634 6.7411-10.378h-24.225c0 1.9607 7.0568 7.6111 7.0568 10.378h10.427z"/>
			<path d="m724.81 1670.4c0-2.7671 6.7411-8.7634 6.7411-10.378h-24.225c0 1.9613 7.0568 7.6112 7.0568 10.378h10.427z"/>
			<path d="m798.83 1658.1c0-2.766 6.7411-8.7634 6.7411-10.378h-24.226c0 1.9607 7.0575 7.6111 7.0575 10.378h10.427z"/>
			<path d="m798.83 1670.4c0-2.7671 6.7411-8.7634 6.7411-10.378h-24.226c0 1.9613 7.0575 7.6112 7.0575 10.378h10.427z"/>
			<path d="m762.3 1658.1c0-2.766 6.7412-8.7634 6.7412-10.378h-24.226c0 1.9607 7.0574 7.6111 7.0574 10.378h10.427z"/>
			<path d="m762.3 1670.4c0-2.7671 6.7412-8.7634 6.7412-10.378h-24.226c0 1.9613 7.0574 7.6112 7.0574 10.378h10.427z"/>
			<path d="m828.69 1658.1c0-2.766 6.7412-8.7634 6.7412-10.378h-24.226c0 1.9607 7.0575 7.6111 7.0575 10.378h10.427z"/>
			<path d="m828.69 1670.4c0-2.7671 6.7412-8.7634 6.7412-10.378h-24.226c0 1.9613 7.0575 7.6112 7.0575 10.378h10.427z"/>
			<path d="m857.59 1658.1c0-2.766 6.7411-8.7634 6.7411-10.378h-24.226c0 1.9607 7.0575 7.6111 7.0575 10.378h10.427z"/>
			<path d="m847.17 1670.4h10.427c0-2.7671 6.7411-8.7634 6.7411-10.378h-24.226c0 1.9613 7.0575 7.6112 7.0575 10.378z"/>
			<path d="m761.55 1762.9v-19.081c37.386-2.5427 67.026-33.764 67.026-71.783h-9.8616c0 32.579-25.221 59.377-57.164 61.898v-20.1c20.896-2.4503 37.167-20.255 37.167-41.798h-9.8617c0 16.098-11.862 29.477-27.305 31.858v-31.858h-9.8617v31.858c-15.443-2.3804-27.305-15.759-27.305-31.858h-9.8616c0 21.543 16.27 39.348 37.166 41.798v20.1c-31.943-2.5214-57.164-29.319-57.164-61.898h-9.8616c0 38.019 29.64 69.24 67.026 71.783v19.081c-47.894-2.5701-86.07-42.341-86.07-90.864h-9.8617c0 53.961 42.598 98.158 95.932 100.74v36.356l-47.4 10.424v6.5757h104.34v-6.5757l-47.08-10.412v-36.368c53.335-2.5802 95.933-46.777 95.933-100.74h-9.8617c0 48.522-38.177 88.294-86.072 90.864v1e-4z"/>
			<path d="m1141 1621.1c-2.1119 0.6144-5.9904 3.5328-7.8719 5.9137l-1.8431 2.2655v11.789l-1.4209-0.9984c-1.8431-1.2288-5.8368-2.496-7.9487-2.496-3.9937 0-7.8721 2.2272-10.79 6.1824l-1.728 2.3424v19.853l-2.0736-0.9215c-7.7952-3.4561-14.592-0.9984-18.394 6.5664l-0.9984 1.9584-0.077 60.058-0.038 60.058 0.8448 4.9919c2.6495 15.667 9.6768 29.453 19.699 38.784 11.482 10.714 27.571 16.128 45.773 15.437 9.4849-0.384 16.166-1.92 23.539-5.4529 5.8752-2.8031 9.5233-5.4143 14.285-10.176 6.8735-6.8352 11.789-15.206 15.36-26.074 3.4944-10.714 4.224-16.128 3.6096-27.878-2.0353-38.438-1.4592-64.858 1.7279-80.525 0.8448-4.0704 0.6528-4.6848-2.1504-6.1825-4.1088-2.1887-11.021-3.1871-15.437-2.1504-4.416 0.9984-9.1008 4.5697-11.482 8.7937l-1.2289 2.1119v-53.491l-1.9584-2.9568c-2.2656-3.3792-5.376-5.9136-8.1792-6.72-1.0752-0.3073-2.88-0.4224-4.608-0.3073-2.3807 0.1537-3.2639 0.4225-5.76 1.7665l-2.9183 1.5743v-7.6801c0-5.9136-0.1152-7.9104-0.5376-8.7551-0.9216-1.728-5.376-5.6448-7.7952-6.7968-1.728-0.8065-2.88-1.0753-5.2992-1.1521-1.6896-0.077-3.6095 0.0389-4.3008 0.269h-2e-4 -1e-4zm7.7953 5.5296c1.0367 0.4991 2.6112 1.6896 3.4944 2.5728l1.5743 1.6512 0.2688 49.152c0.2688 48.96 0.2688 49.152 1.0752 49.997 0.9984 1.1135 2.3424 1.1135 3.3793 0.077l0.8064-0.8064-0.2688-38.707-0.2688-38.669 2.2272-1.8433c2.9185-2.3807 5.184-3.3792 7.6416-3.3792 2.3424 0 3.7249 0.6912 5.7985 2.88 3.1487 3.3024 2.8416-1.4592 2.8416 45.926v42.355l0.96 0.9215c1.1136 1.1521 1.728 1.1904 2.9568 0.192 0.9601-0.7296 0.9601-0.8064 1.1904-8.3328 0.4608-17.05 4.1472-26.995 11.213-30.451 2.8032-1.3824 8.2177-1.4977 11.712-0.3073 1.3824 0.4993 2.4576 1.0752 2.4192 1.2672-3.264 18.931-3.8784 45.12-1.8431 81.485 0.4224 8.2175 0.4224 10.022-0.0389 13.363-2.1888 15.206-8.1792 28.531-16.781 37.402-7.0657 7.2192-15.322 11.597-26.189 13.747-4.7616 0.96-18.355 0.96-23.501 0-10.291-1.92-18.163-5.376-25.267-11.174-11.827-9.5615-19.661-25.459-21.312-43.238-0.2688-3.0336-0.3073-22.31-0.1152-61.632l0.3073-57.216 1.2288-1.8048c2.7264-3.9167 6.4128-4.6464 11.558-2.2655 1.4977 0.7296 2.9568 1.536 3.1873 1.8431 0.3071 0.3456 0.4608 9.7152 0.4991 33.754 0.038 32.448 0.038 33.254 0.7681 33.792 0.9984 0.7296 2.496 0.6912 3.3792-0.1152 0.6528-0.576 0.6913-2.5344 0.6913-46.118v-45.504l1.344-1.6511c3.5327-4.3009 8.9856-4.224 13.786 0.2688l1.7665 1.6128v41.587c0 41.126 0 41.626 0.7679 42.394 0.4224 0.4225 1.1904 0.7681 1.728 0.7681s1.3055-0.3456 1.728-0.7681c0.7679-0.7679 0.7679-1.2671 0.7679-50.842v-50.074l1.6896-1.728c3.3406-3.4559 7.027-4.2623 10.829-2.3807l4e-4 -2e-4z"/>
			<path d="m1144.3 1747.5c-19.162 2.3807-34.598 17.126-37.939 36.25-0.8832 5.0687-0.4993 13.325 0.8064 18.355 3.1104 12.058 11.904 22.81 23.194 28.454 5.184 2.6112 13.21 4.4543 19.277 4.4543 19.238 0 36.634-13.056 42.01-31.565 2.8417-9.8303 2.1888-20.582-1.8048-29.837-5.6448-12.979-18.048-22.925-31.949-25.574-3.7631-0.7296-10.138-0.9984-13.594-0.5376zm2.6495 2.7648c0 0.7296 0.2688 5.0688 0.576 9.6768 0.3456 4.608 0.5376 8.4097 0.4991 8.448-0.077 0.077-0.7295 0.2305-1.4591 0.384l-1.344 0.2305-1.8433-9.3313c-0.9984-5.1455-1.8431-9.5232-1.8048-9.792 0-0.4991 1.152-0.7295 3.7632-0.8447 1.5746-0.0389 1.6129 0 1.6129 1.2288zm10.675-0.691c0.1151 0.077-0.6528 4.4543-1.6897 9.6768l-1.9199 9.5232-1.3057-0.1152c-0.7296-0.077-1.4208-0.1919-1.4976-0.2688-0.077-0.077 0.1536-4.1855 0.4991-9.1392 0.3457-4.9152 0.6145-9.2927 0.6145-9.6768 0-0.6144 0.2688-0.6528 2.5343-0.4608 1.421 0.1534 2.6498 0.3455 2.765 0.4608zm-18.547 10.637c1.6512 4.9153 2.9952 9.1008 3.0336 9.2928 0 0.192-0.5376 0.576-1.2288 0.8832l-1.2672 0.5376-4.224-8.6016c-2.304-4.7616-4.1855-8.7936-4.1855-8.9856 0-0.4608 3.3024-1.9968 4.3008-2.0352 0.4991 1e-4 1.3055 1.9968 3.571 8.9088h1e-4zm27.034-8.1023c1.0752 0.4607 1.9584 0.96 1.9584 1.1135 0 0.2305-7.9872 16.896-8.2943 17.203-0.2305 0.3071-2.8417-0.8832-2.7264-1.2672 0.077-0.192 1.4976-4.3008 3.1488-9.1392 1.728-5.0688 3.1873-8.7168 3.4561-8.7168s1.3438 0.384 2.4574 0.8065zm-34.522 12.058l5.4912 8.2561-0.9216 0.7679c-0.4991 0.4224-1.1135 0.7296-1.344 0.6528-0.4991-0.077-12.826-14.093-12.826-14.554 0-0.2305 3.7249-3.3793 3.9937-3.3793 0.077 1e-4 2.5728 3.7249 5.6063 8.2561zm45.389-5.2992c0.3073 0.384 0.2305 0.7296-0.3456 1.3824-0.4224 0.4608-3.2256 3.6479-6.2208 7.0656-3.0336 3.4561-5.6448 6.2593-5.7983 6.2593-0.1534 0-0.7296-0.3456-1.2672-0.8064l-1.0367-0.7681 5.4528-8.0255 5.4144-8.0256 1.6896 1.2288c0.9215 0.6527 1.8815 1.4207 2.1118 1.6895zm-45.082 18.509c-0.4993 0.5376-0.9216 1.0367-0.96 1.1135-0.077 0.2305-16.243-10.675-16.243-10.982 0-0.4224 1.0752-1.9967 2.2272-3.2256l0.9216-1.0367 7.4496 6.5664 7.4496 6.5664-0.8447 0.9984zm51.187-12.058c0.9216 1.2288 1.4592 2.2655 1.2672 2.4575s-3.7632 2.6112-7.9487 5.3761l-7.5648 5.0687-0.96-1.0752c-0.8448-0.9984-0.8833-1.1136-0.2688-1.728 0.6912-0.6912 13.632-12.173 13.786-12.173 0.038-0.039 0.8067 0.9215 1.6896 2.0736zm-32.909 7.8719c1.1135 0.4224 2.5343 1.344 3.1871 1.9968 1.152 1.2288 2.1504 3.7247 1.8433 4.6464-0.077 0.2688-0.2305 0.9216-0.3457 1.4977-0.1536 0.7295-0.5376 1.0752-1.344 1.2671-2.496 0.5376-3.9552 3.3408-2.9568 5.7217 0.5376 1.344 2.2656 2.9183 3.1873 2.9183 0.96 0 1.4208 2.0736 1.4208 6.7969 0.038 3.9167-0.077 4.7999-0.6144 5.3375-0.8832 0.9216-1.536 0.3073-3.1873-2.88l-1.3055-2.5343-0.038 6.2975v6.2976l2.496-0.2303c1.4209-0.1536 2.5729-0.077 2.6881 0.1152 0.3839 0.6144-1.728 1.1903-3.9937 1.0752l-2.1504-0.1152-0.1152-8.5632c-0.077-6.7968 0-8.5631 0.384-8.448 0.2688 0.077 1.3824 1.9584 2.4576 4.1472l1.9584 4.032 0.3071-1.8816c0.1537-0.9984 0.192-3.1488 0.0389-4.7999-0.192-2.3809-0.384-3.0337-1.0752-3.4945-2.1504-1.5359-3.7249-3.3792-3.9552-4.7231-0.4224-2.1504 1.0367-4.8384 3.1871-5.8368 1.5745-0.7296 1.6129-0.8064 1.6129-2.5344 0-2.9952-2.4193-4.9536-7.2577-5.8751l-1.3055-0.2305 0.2303 19.008c0.2305 15.667 0.1536 19.008-0.2688 19.008-0.6144 0-0.9984-10.79-0.9984-27.994v-11.29l1.9585 0.2688c1.0753 0.1534 2.8417 0.6143 3.9553 0.9982h-9e-4zm8.1792 1.4208c1.9199 3.264 1.5359 9.1393-0.7296 11.059-0.6145 0.5376-1.4977 0.9601-1.9585 0.9601-0.6912 0-0.5759 0.1536 0.4993 0.6912 0.9216 0.4608 1.6511 1.2672 2.304 2.5728 0.8832 1.8048 0.9601 2.3424 1.0752 9.8688 0.1152 4.416 0.2688 7.9873 0.4225 7.9873 0.1151 0 0.5759-0.2688 0.96-0.576 0.8832-0.6528 1.7664-0.7679 1.7664-0.192 0 0.4608-3.4559 2.7648-3.9552 2.5729-0.1536-0.0389-0.3456-3.9552-0.3839-8.7169-0.1152-10.368-0.4225-11.482-3.2257-12.71-2.1887-0.9216-2.1119-1.8816 0.192-2.6112 2.3809-0.7296 2.9568-1.8433 2.9568-5.6064 0-2.88-0.1151-3.3024-1.2672-5.1455-0.6912-1.1136-1.1135-2.1888-0.9983-2.3809 0.307-0.5378 1.1901 0.2686 2.3422 2.2269zm-29.107 6.4896c0.1152 0.077-0.1151 0.7296-0.4224 1.4208l-0.6144 1.3057-9.1776-3.1105c-10.214-3.4559-9.6768-3.0719-8.2177-6.4895l0.7681-1.7665 8.7551 4.224c4.8002 2.3424 8.8322 4.3392 8.9089 4.416zm59.52-6.0288c0.4608 1.1136 0.7296 2.1888 0.5376 2.3424-0.3456 0.3456-17.472 6.2208-17.587 6.0673-0.038-0.077-0.384-0.6913-0.7296-1.3824l-0.6528-1.2672 8.5632-4.1855c4.7231-2.2656 8.6783-4.0321 8.7936-3.9169 0.1152 0.1534 0.6143 1.1903 1.0752 2.3423zm-48.154-0.6528c0.077 0.2688 0.2303 8.1409 0.3071 17.472 0.1537 13.248 0.077 17.011-0.3071 17.011-0.4993 0-0.96-6.1824-0.96-12.749v-3.3793h-3.456v6.3361c0 3.4944-0.1536 6.3359-0.3456 6.3359-0.96 0-4.2625-4.9152-4.2625-6.3359 0-0.9216 0.7681-0.6913 1.152 0.3839 0.192 0.5376 0.8064 1.6129 1.3441 2.4193l0.96 1.4208v-10.522l-1.4208-0.1152c-1.9968-0.1536-2.1504-1.0752-0.1537-1.0752h1.5745v-5.6064c0-3.3792-0.1536-5.4912-0.3456-5.3375-0.2305 0.1151-0.9216 1.152-1.5745 2.304-1.2288 2.1504-1.9199 2.6497-1.9199 1.4208 0-0.9984 3.7632-6.6047 4.4543-6.6047 0.4608 0 0.5376 1.152 0.5376 6.912v6.912h3.456v-8.832c0-5.7983 0.1536-8.8319 0.3839-8.8319 0.2306-2e-4 0.4611 0.2301 0.5762 0.4604v1e-4zm23.462 3.6096c0.384 1.4592-0.1536 5.8368-0.96 7.6033-0.6528 1.536-0.6528 1.6511 0.077 3.8784 0.5759 1.8047 0.7679 3.4944 0.8064 8.0255 0.038 3.9169-0.1152 5.76-0.384 5.8752-0.3073 0.1152-0.4991-1.6128-0.6528-5.5297-0.1536-4.2623-0.3839-6.2976-0.9984-8.2175-0.7296-2.3424-0.7679-2.6497-0.2303-3.6864 0.8064-1.6128 1.4592-5.376 1.2288-7.104-0.1151-0.7681-0.077-1.4976 0.038-1.6128 0.4606-0.4608 0.8445-0.192 1.075 0.7679h3e-4zm-36.864 10.061c-0.1152 0.7296-0.2303 1.3824-0.3073 1.4209-0.1151 0.077-19.085-1.1904-19.43-1.3057-0.1537-0.038 0.2688-3.7249 0.5376-4.6848 0.1536-0.5376 1.344-0.384 9.792 1.3057l9.6383 1.9199-0.2303 1.344zm64.397-1.9584c0.2688 2.4576 0.9983 2.2272-8.7552 2.8032-3.9937 0.2303-7.9104 0.4224-8.64 0.4991-1.344 0.077-1.344 0.038-1.344-1.4591v-1.536l9.024-1.7665c10.138-1.9966 9.2927-2.1118 9.7152 1.4594v-1e-4zm-64.474 7.8721c0.1152 0.6527 0.1536 1.2671 0.038 1.3823-0.077 0.1152-4.3391 1.0369-9.4847 2.0353-6.4896 1.3055-9.3696 1.7664-9.5616 1.4591-0.3071-0.4991-0.8064-4.6079-0.6144-4.8384 0.192-0.192 13.478-1.152 16.819-1.2288l2.5728-0.0389 0.2303 1.229 4e-4 4e-4zm56.64-0.6528c4.3008 0.3071 7.8719 0.6144 7.9872 0.6912 0.1536 0.192-0.5376 4.8768-0.7681 5.1072-0.077 0.077-4.224-0.6912-9.2159-1.6511-8.5632-1.728-9.1008-1.8816-9.1008-2.6497-1e-4 -2.3809-0.4224-2.3427 11.098-1.4976zm-55.296 6.3741c0.2303 0.6912 0.4224 1.3055 0.4224 1.344 0 0.192-16.781 8.6016-17.088 8.6016-0.3456 0-2.1504-4.2623-1.9968-4.7231 0.077-0.3073 16.819-6.2208 18.01-6.3744 0.1152-0.0389 0.4222 0.4991 0.6528 1.1519zm52.07 1.8816c4.4543 1.4976 8.2943 2.8416 8.5631 3.0336 0.384 0.2305 0.3456 0.7296-0.3071 2.3809-0.4608 1.152-0.9601 2.2272-1.1136 2.3807-0.2303 0.2305-16.013-7.2576-16.819-7.9487-0.2688-0.2305 0.8832-2.5344 1.2289-2.5344 0.1918 0 4.0319 1.2288 8.4479 2.6879zm-49.306 3.1488c0.384 0.4991 0.6912 1.0752 0.7296 1.344 0 0.384-13.44 12.48-14.131 12.672-0.384 0.1152-3.2256-3.6864-3.072-4.1088 0.077-0.3073 15.13-10.637 15.59-10.714 0.077-0.038 0.4607 0.3456 0.8831 0.8064zm45.926 4.7616c3.9937 2.688 7.296 4.9536 7.3728 4.9919 0.2305 0.192-1.3823 2.6112-2.3424 3.4945l-0.8832 0.8447-6.8352-5.952c-3.7247-3.2639-6.7968-6.1439-6.7968-6.3359 0-0.7296 1.344-2.2272 1.8048-2.0736 0.2688 0.077 3.7249 2.3425 7.6801 5.0304h-1e-4zm-40.743 1.1906c-0.1151 0.2688-2.4575 3.8784-5.2607 7.9872l-5.0304 7.5264-1.0369-0.6912c-1.6128-1.0369-3.1104-2.3041-3.1104-2.6112 0-0.1152 2.7648-3.4176 6.1824-7.296l6.1825-7.0656 1.1135 0.8064c0.6144 0.4608 1.0369 1.0752 0.96 1.344zm34.906 5.1839l6.1056 6.9504-1.536 1.3055c-2.8416 2.496-2.2656 2.88-7.9872-5.6832l-5.1456-7.7184 0.9984-0.9215c0.576-0.4993 1.152-0.9216 1.2672-0.9216s2.9565 3.149 6.2976 6.9888zm-30.528-3.3409c0.6527 0.3456 1.152 0.7296 1.152 0.8832 0 0.2305-5.7985 17.395-5.952 17.664-0.192 0.2303-4.4928-1.6512-4.6464-2.0352-0.1536-0.4225 7.7952-17.088 8.1792-17.088 0.077-1e-4 0.653 0.2687 1.2672 0.5759zm23.232 7.9104c2.2656 4.4545 4.032 8.256 3.9552 8.4865-0.1536 0.384-4.5311 2.3807-4.7231 2.1504-0.1536-0.192-5.952-17.242-5.952-17.549 0-0.2303 1.6512-1.0367 2.3809-1.152 0.1918-0.038 2.1119 3.6096 4.339 8.0638v1e-4zm-16.09-3.7248c-0.1151 1.2672-0.3839 5.376-0.6144 9.0624-0.2303 3.6864-0.4991 6.912-0.5759 7.1423-0.077 0.3073-0.8448 0.3073-2.5344 0.077-1.3057-0.1537-2.4961-0.384-2.5729-0.4993-0.1151-0.1152 0.4608-3.4176 1.2289-7.3728 0.7679-3.9935 1.5743-8.1024 1.8048-9.1392l0.3456-1.92 1.5743 0.1152 1.5745 0.1536-0.2305 2.3809v-1e-4zm6.6048-0.6529c1.6128 7.5264 3.2256 16.282 3.072 16.435-0.1537 0.1536-5.0304 0.9216-5.1456 0.8064-0.2305-0.1536-1.2672-18.432-1.0752-18.701 0.1152-0.192 0.7679-0.3456 1.4976-0.3456 1.2288 0 1.3055 0.077 1.6512 1.8048z"/>
				<path d="m1417.4 1612.5c-28.368-45.632-14.357-105.69 31.274-134.06 37.817-23.509 85.541-17.912 116.93 10.668-16.337-21.126-40.061-36.693-68.281-42.357-62.228-12.49-122.87 27.876-135.36 90.105-12.491 62.228 27.877 122.87 90.106 135.36 39.139 7.8563 77.646-5.2026 103.94-31.455-1.4811 1.0385-2.9956 2.0447-4.5503 3.0115-45.632 28.368-105.69 14.358-134.06-31.274z"/>
				<path d="m1417.4 1612.5c-28.368-45.632-14.357-105.69 31.274-134.06 37.817-23.509 85.541-17.912 116.93 10.668-16.337-21.126-40.061-36.693-68.281-42.357-62.228-12.49-122.87 27.876-135.36 90.105-12.491 62.228 27.877 122.87 90.106 135.36 39.139 7.8563 77.646-5.2026 103.94-31.455-1.4811 1.0385-2.9956 2.0447-4.5503 3.0115-45.632 28.368-105.69 14.358-134.06-31.274z"/>
				<path d="m1417.4 1612.5c-28.368-45.632-14.357-105.69 31.274-134.06 37.817-23.509 85.541-17.912 116.93 10.668-16.337-21.126-40.061-36.693-68.281-42.357-62.228-12.49-122.87 27.876-135.36 90.105-12.491 62.228 27.877 122.87 90.106 135.36 39.139 7.8563 77.646-5.2026 103.94-31.455-1.4811 1.0385-2.9956 2.0447-4.5503 3.0115-45.632 28.368-105.69 14.358-134.06-31.274z"/>
				<polygon points="1556.2 1552.8 1566 1522.7 1575.8 1552.8 1607.3 1552.8 1581.8 1571.4 1591.5 1601.5 1566 1582.9 1540.5 1601.5 1550.2 1571.4 1524.7 1552.8"/>
				<polygon points="1556.2 1552.8 1566 1522.7 1575.8 1552.8 1607.3 1552.8 1581.8 1571.4 1591.5 1601.5 1566 1582.9 1540.5 1601.5 1550.2 1571.4 1524.7 1552.8"/>
				<polygon points="1556.2 1552.8 1566 1522.7 1575.8 1552.8 1607.3 1552.8 1581.8 1571.4 1591.5 1601.5 1566 1582.9 1540.5 1601.5 1550.2 1571.4 1524.7 1552.8"/>
		<g transform="translate(-210.63,-364.11)">
			<path d="m1936.7 1499.8l-20.428 21.464 21.471 19.736 20.771-21.121-21.814-20.079z"/>
			<path d="m1894.8 1511.6s22.849 72.014 88.981 12.12c0.3496 0.3428 18.002 23.541 18.351 23.541-25.625 28.737-103.87 44.319-107.33-35.661z"/>
			<path d="m1833.8 1594.3l-15.925-28.737c81.481-54.705 125.57 24.233 66.825 59.901l19.044 7.6161c22.739-0.9323 19.469-27.969 43.627-49.858 9.1177-10.968 73.632-25.392 75.134 66.825-7.8491 86.561-102.26 77.903-85.869 0 9.8101 51.126 67.401 18.811 67.867-0.3496 7.4998-7.959 7.0405-73.399-31.513-49.858-7.4998 7.1569-13.731 19.62-16.274 24.583-2.5364 4.9631-10.557 24.322-45.012 18.351 32.144 66.462-21.087 84.107-26.31 85.176-13.498 6.7936-95.686-0.5553-86.911-106.3 7.0403 55.397 34.893 84.991 79.294 73.749 33.611-8.5073 33.468-69.019-18.351-49.166l-11.77-36.703c-0.5005-1.5562 16.672 4.3668 34.276-0.3428 14.293-3.8252 26.105-31.753-11.428-31.856-16.446-0.041-24.467 11.311-36.703 16.967z"/>
		</g>
		<path d="m1755.3 859.84c10.527 10.587 22.299 19.725 33.001 30.177 8.2407 8.0482 18.126 18.04 25.365 23.55 7.2378 5.5094 11.645 7.6807 18.767 6.7646 6.6167-0.8505 13.02-1.9351 19.311-4.2775 4.5813-1.7057-0.1177-5.3668-2.5945-6.7327-16.17-8.9169-32.627-18.084-47.346-29.329-9.4639-7.2306-18.173-15.421-25.878-24.587-3.9199-4.6633-10.206-9.0109-6.686-12.039 13.58-11.684 37.408-21.047 57.768-32.582 4.97-2.8159 10.031-7.3368 9.9016-14.024-0.0811-4.2267-1.6367-6.9615-3.9485-10.246-2.6248-3.7296-6.9495-5.7113-10.751-5.7487-3.949-0.039-7.1064 0.7905-10.838 6.2437s-9.1431 14.473-16.666 19.297c-10.652 6.8303-20.835 14.991-32.023 20.822-4.4116 2.2992-6.27-1.696-6.1384-5.7925 0.5439-16.954-0.1946-34.114-1.885-51.033-0.7695-7.7006-3.4946-15.388-7.9749-21.217-3.7075-4.8231-11.508-2.9327-17.345-1.4512-3.6543 0.9274-7.0847 2.8187-5.3733 7.1132 4.0007 10.038 7.3608 20.593 9.3989 31.262 1.5176 7.942 3.7976 16.38 2.6465 24.212-0.6814 4.6365-7.1428 4.9751-11.006 6.8313-20.219 9.7136-41.118 18.115-62.057 26.277-7.3528 2.8662-16.595 4.5541-21.211 11.317-2.1772 3.1906-0.4281 7.7715 0.8558 11.052 1.8026 4.606 5.1237 8.3683 9.658 10.901 4.6299 2.5856 9.1162-1.6334 12.838-3.9772 12.696-7.9939 25.275-16.326 38.555-23.268 6.0991-3.1885 12.327-6.1918 18.708-8.7755-5.5681 9.4409-10.884 19.235-17.697 27.795-12.393 15.569-25.831 30.322-39.768 44.583-7.6807 7.8579-21.688 17.056-21.862 24.691-0.088 3.8445 10.334-0.6246 15.002-2.83 8.1871-3.8682 16.108-8.3094 22.984-14.396 8.3629-7.4016 16.293-15.407 23.612-23.813 9.7275-11.172 17.585-24.133 28.431-34.262 4.9673-0.057 1.4106 15.137 1.6262 20.904 0.6506 17.418 3.6516 38.674-1.6819 52.622-1.7617 4.6073-15.633-1.975-17.488 3.5482-1.8828 5.6044 6.6836 10.843 10.652 15.595 5.9795 7.1604 12.388 14.35 19.592 20.102 4.0339 3.2212 5.7791-3.2629 6.3882-6.5531 2.1619-11.68 4.6216-23.488 5.0215-35.34 0.7891-23.377-0.3872-46.814-1.7212-70.193-0.0471-1.0643-0.095-2.1287-0.1418-3.193l-7e-4 -1e-4v-1e-4h-1e-4z"/>
		<g transform="matrix(.19922 0 0 -.19922 1669.1 496.72)">
			<g transform="matrix(1.9297 0 0 1.9297 -2678.4 -1072)">
							<path d="m1235.1 870.83h-69v-165h-167v-68.45h236v233.45z"/>
							<path d="m1235.1 870.83h-69v-165h-167v-68.45h236v233.45zm-5-5v-223.45h-226v58.45h167v165h59z"/>
							<path d="m1304.1 705.83v165h-69v-233.45h236v68.45h-167z"/>
							<path d="m1304.1 870.83h-69v-233.45h236v68.45h-167v165zm-5-5v-165h167v-58.45h-226v223.45h59z"/>
							<path d="m999.07 637.38v-70.55h167v-367h69v437.55h-236z"/>
							<path d="m1235.1 637.38h-236v-70.55h167v-367h69v437.55zm-5-5v-427.55h-59v367h-167v60.55h226z"/>
							<path d="m1235.1 199.83h69v367h167v70.55h-236v-437.55z"/>
							<path d="m1471.1 637.38h-236v-437.55h69v367h167v70.55zm-5-5v-60.55h-167v-367h-59v427.55h226z"/>
							<path d="m1369.4 640.09h-130.75v128.26h-7.0001v-128.26h-130.88v-7h130.88v-330.78h7.0001v330.78h130.75v7z"/>
					<g transform="translate(1862 1135.6)">
						<path d="m-859.01-434.65l101.73-64.404-101.73-64.405v128.81z"/>
					</g>
					<g transform="translate(2158.1 1301.3)">
						<path d="m-859.01-434.65l-63.967-101.04-63.967 101.04h127.93z"/>
					</g>
					<g transform="translate(2157.8 638.93)">
						<path d="m-859.01-434.65l-63.588 100.44-63.589-100.44h127.18z"/>
					</g>
					<g transform="translate(2325.9 1135)">
						<path d="m-859.01-434.65l-101.09-64 101.09-64v128z"/>
					</g>
								<path d="m1003 701l101.73-64.404-101.73-64.404v128.81z"/>
								<path d="m1299.1 866.69l-63.967-101.04-63.967 101.04h127.93z"/>
								<path d="m1298.8 204.28l-63.588 100.45-63.589-100.45h127.18-3e-4z"/>
								<path d="m1466.9 700.35l-101.1-64 101.1-64v128z"/>
			</g>
		</g>
				<path d="m1429.2 239.78v-0.09c-2.51-16.39-8.9601-31.45-18.37-44.25v-21.63h-21.64c-12.8-9.42-27.93-15.87-44.33-18.38l-15.35-15.35-15.35 15.35c-16.41 2.51-31.53 8.96-44.33 18.38h-21.64v21.79c-9.36 12.78-15.79 27.76-18.29 44.09l-15.35 15.35 15.35 15.35c2.5 16.34 8.9301 31.4 18.29 44.17v21.8h21.72c12.79 9.4 27.87 15.87 44.25 18.38l15.35 15.34 15.35-15.34c16.38-2.51 31.46-8.98 44.25-18.38h21.72v-21.63c9.4099-12.8 15.86-27.94 18.37-44.34v-0.08l15.27-15.27-15.27-15.26zm-18.53 24.98c-1.8099 15.33-7.8199 29.29-16.9 40.82v13.72h-13.72c-11.54 9.09-25.57 15.18-40.91 16.98l-9.6301 9.64-9.6399-9.64c-15.32-1.81-29.37-7.89-40.9-16.98h-13.72v-13.72c-9.08-11.52-15.09-25.5-16.9-40.82l-9.71-9.72 9.71-9.71c1.8199-15.29 7.84-29.32 16.9-40.83v-13.71h13.8c11.51-9.05 25.54-15.1 40.82-16.9l9.6399-9.64 9.6301 9.64c15.3 1.8 29.31 7.84 40.83 16.9h13.8v13.71c9.0701 11.51 15.08 25.53 16.9 40.83l9.7101 9.71-9.71 9.72z"/>
			<path d="m1324.3 183.04v41.12c-4.76 0.8-9.1599 2.66-12.93 5.35l-29.08-29.07c11.44-9.8901 26-16.25 42.01-17.4z"/>
			<path d="m1324.3 285.98v41.11c-16.01-1.14-30.57-7.5-42.01-17.4l29.08-29.07c3.78 2.69 8.1698 4.55 12.93 5.36z"/>
			<path d="m1376.8 309.69c-11.43 9.9-25.99 16.26-42.01 17.4v-41.11c4.77-0.8 9.17-2.67 12.94-5.36l29.07 29.07z"/>
			<path d="m1304 273.23l-29.08 29.07c-9.8901-11.43-16.25-25.99-17.4-42.01h41.12c0.7998 4.7599 2.6698 9.1599 5.3597 12.94h1e-4z"/>
			<path d="m1401.5 249.84h-41.11c-0.7999-4.76-2.67-9.16-5.36-12.93l29.07-29.08c9.8999 11.44 16.26 26 17.4 42.01z"/>
			<path d="m1401.5 260.29c-1.14 16.02-7.5 30.58-17.4 42.01l-29.07-29.07c2.6799-3.78 4.5601-8.17 5.36-12.94h41.11z"/>
			<path d="m1376.8 200.44l-29.07 29.08c-3.78-2.69-8.1801-4.56-12.94-5.36v-41.12c16.02 1.15 30.58 7.51 42.01 17.4z"/>
			<path d="m1304 236.91c-2.6899 3.78-4.5599 8.17-5.3599 12.93h-41.12c1.1501-16.01 7.51-30.57 17.4-42.01l29.08 29.08h-1e-4z"/>
			<path d="m1349.8 255.07c0 11.2-9.0901 20.28-20.29 20.28-11.21 0-20.29-9.08-20.29-20.28 0-11.21 9.0801-20.29 20.29-20.29 11.2 1e-4 20.29 9.08 20.29 20.29z"/>
		<path d="m942.09 74.023c-5.9904 16.128-11.021 29.376-11.136 29.376s-12.365-6.912-27.187-15.398c-14.861-8.448-27.072-15.322-27.149-15.206-0.077 0.0768 4.4928 13.248 10.214 29.299 5.6832 16.013 10.368 29.338 10.368 29.568s-0.4608 0.5376-1.0369 0.6528c-0.6144 0.1152-14.131 2.5728-30.067 5.4528-15.936 2.88-29.299 5.3376-29.683 5.4912-0.5376 0.2304 5.9136 4.1856 26.381 16.205 14.899 8.7552 27.11 16.013 27.11 16.128s-8.9856 10.982-19.93 24.192c-10.982 13.21-19.891 24.038-19.853 24.115 0.077 0.0384 14.016-2.2272 30.95-5.1072 16.973-2.8416 30.95-5.1072 31.066-4.9536 0.1152 0.1152 0.2688 14.208 0.3457 31.296 0.077 17.088 0.2688 31.066 0.3839 31.066 0.1537-0.0384 9.3313-10.714 20.429-23.808 11.098-13.056 20.352-23.693 20.544-23.654 0.2303 0.0384 9.4463 10.79 20.544 23.846l20.16 23.77 0.3071-31.45c0.192-17.318 0.384-31.565 0.4993-31.642 0.077-0.0768 13.939 2.1888 30.758 5.0688 16.819 2.88 30.682 5.184 30.758 5.0688 0.077-0.0768-8.8704-11.059-19.93-24.384-11.904-14.438-19.853-24.384-19.622-24.538 0.2305-0.1152 12.442-7.2192 27.11-15.782 19.046-11.136 26.496-15.629 26.035-15.821-0.384-0.1536-13.939-2.7264-30.221-5.6832-16.243-2.9952-29.914-5.5296-30.374-5.6832-0.7679-0.2688-0.2688-1.728 9.7152-29.606 5.76-16.128 10.445-29.376 10.368-29.453-0.077-0.0768-12.211 6.6816-26.995 15.091-14.746 8.3712-27.11 15.283-27.418 15.36-0.4608 0.1152-2.9952-6.4128-11.328-29.03-5.9136-16.09-10.867-29.222-10.982-29.222s-5.1072 13.21-11.136 29.376zm18.278 30.336c3.9167 10.522 7.1423 19.2 7.2576 19.277 0.077 0.0768 8.2177-4.4544 18.086-10.061 9.9072-5.6064 18.048-10.138 18.086-10.061 0.077 0.0768-2.9952 8.7936-6.7969 19.43-3.8015 10.637-6.8735 19.354-6.7968 19.392 0.077 0.0768 8.9471 1.728 19.699 3.6864 10.79 1.9584 19.968 3.6864 20.429 3.8016 0.6144 0.192-3.2257 2.5728-17.011 10.598-9.792 5.6832-17.779 10.445-17.779 10.56s5.9136 7.3728 13.171 16.128c7.2574 8.7552 13.171 15.974 13.133 16.013-0.0389 0.0384-9.1392-1.4592-20.237-3.3408-11.059-1.92-20.237-3.456-20.39-3.456-0.192 0-0.3073 9.3312-0.3073 20.774 0 11.75-0.1536 20.698-0.3456 20.621s-6.1824-7.0272-13.363-15.475-13.171-15.36-13.363-15.36c-0.192 0-6.2976 6.9888-13.594 15.552l-13.286 15.59-0.2305-6.5664c-0.1536-3.5712-0.2688-12.902-0.3071-20.659-0.038-13.286-0.077-14.131-0.6913-13.939-1.1904 0.3456-40.128 6.7968-40.282 6.6816-0.038-0.0768 5.76-7.1808 12.941-15.859 7.1425-8.64 13.018-15.782 13.018-15.898s-5.76-3.6096-12.787-7.7184c-6.9888-4.1088-15.091-8.832-17.933-10.522l-5.184-3.072 20.352-3.6864c16.704-3.0336 20.352-3.8016 20.237-4.3008-0.038-0.3072-3.1104-9.1008-6.7968-19.507-3.7247-10.406-6.6816-18.97-6.6047-19.046 0.077-0.0768 7.7184 4.1856 17.011 9.4848 9.2544 5.2992 17.318 9.8688 17.856 10.138l0.9984 0.5376 7.2576-19.546c3.9935-10.714 7.296-19.469 7.3728-19.392 0.077 0.0384 3.3027 8.7168 7.1812 19.2h-1e-4z"/>
</svg>
