<?xml version="1.0" encoding="UTF-8" standalone="no"?>
<!-- Created with Inkscape (http://www.inkscape.org/) -->

<svg
   xmlns:dc="http://purl.org/dc/elements/1.1/"
   xmlns:cc="http://creativecommons.org/ns#"
   xmlns:rdf="http://www.w3.org/1999/02/22-rdf-syntax-ns#"
   xmlns:svg="http://www.w3.org/2000/svg"
   xmlns="http://www.w3.org/2000/svg"
   xmlns:sodipodi="http://sodipodi.sourceforge.net/DTD/sodipodi-0.dtd"
   xmlns:inkscape="http://www.inkscape.org/namespaces/inkscape"
   id="svg2"
   version="1.1"
   inkscape:version="0.91 r13725"
   xml:space="preserve"
   width="1829.725"
   height="2129.4375"
   viewBox="0 0 1829.725 2129.4375"
   sodipodi:docname="Television Brainwashing.svg"><metadata
     id="metadata8"><rdf:RDF><cc:Work
         rdf:about=""><dc:format>image/svg+xml</dc:format><dc:type
           rdf:resource="http://purl.org/dc/dcmitype/StillImage" /><dc:title></dc:title></cc:Work></rdf:RDF></metadata><defs
     id="defs6"><clipPath
       clipPathUnits="userSpaceOnUse"
       id="clipPath16"><path
         d="m 0,1703.553 1463.785,0 L 1463.785,0 0,0 0,1703.553 Z"
         id="path18"
         inkscape:connector-curvature="0" /></clipPath></defs><sodipodi:namedview
     pagecolor="#ffffff"
     bordercolor="#666666"
     borderopacity="1"
     objecttolerance="10"
     gridtolerance="10"
     guidetolerance="10"
     inkscape:pageopacity="0"
     inkscape:pageshadow="2"
     inkscape:window-width="640"
     inkscape:window-height="480"
     id="namedview4"
     showgrid="false"
     inkscape:zoom="0.40949781"
     inkscape:cx="556.25356"
     inkscape:cy="1071.2308"
     inkscape:current-layer="g10" /><g
     id="g10"
     inkscape:groupmode="layer"
     inkscape:label="Television Brainwashing"
     transform="matrix(1.25,0,0,-1.25,0,2129.4375)"><g
       id="g12"><g
         id="g14"
         clip-path="url(#clipPath16)"><g
           id="g20"
           transform="translate(1257.5546,608.2491)"><path
             d="m 0,0 c -33.153,0 -59.985,32.603 -59.985,72.723 0,40.099 26.832,72.682 59.985,72.682 33.122,0 59.985,-32.593 59.985,-72.682 C 59.985,32.624 33.132,0.021 0.016,0.021 L 0,0 Z m -65.463,283.467 c 0,40.161 26.899,72.687 60.01,72.687 33.091,0 59.949,-32.526 59.949,-72.687 0,-40.119 -26.848,-72.651 -59.949,-72.651 -33.168,0 -60.02,32.501 -60.02,72.651 l 0.01,0 z m -45.644,-529.351 c 0,-24.783 -21.862,-47.097 -48.792,-49.418 -293.736,-24.476 -587.678,-24.476 -881.465,0 -26.996,2.321 -48.838,24.635 -48.838,49.418 -0.056,194.787 0,389.497 0,584.238 0,24.886 21.842,47.092 48.838,49.448 293.746,24.466 587.729,24.466 881.465,0 26.93,-2.356 48.792,-24.567 48.792,-49.448 l 0,-584.238 z m 189.662,738.114 -204.09,0 c -36.926,55.975 -119.112,99.293 -221.167,115.518 l 157.891,409.089 -209.142,-403.395 c -12.518,0.816 -25.23,1.247 -38.128,1.247 -12.846,0 -25.517,-0.426 -37.973,-1.237 l -213.353,411.374 161.034,-417.227 C -627.992,591.261 -709.798,548.04 -746.622,492.235 l -383.268,0 c -37.101,0 -67.106,-28.901 -67.106,-64.482 l 0,-838.952 c 0,-35.622 30.005,-64.519 67.106,-64.519 l 84.388,0 c 5.909,-29.034 35.648,-51.179 71.542,-51.179 35.889,0 65.617,22.14 71.526,51.179 l 767.945,0 c 0,-0.097 -0.016,-0.179 -0.016,-0.282 0,-34.113 32.588,-61.771 72.682,-61.771 40.151,0 72.677,27.669 72.677,61.771 0,0.103 -0.015,0.185 -0.015,0.282 l 67.711,0 c 37.101,0 67.122,28.907 67.122,64.519 l 0,838.901 c 0.051,35.581 -29.985,64.487 -67.055,64.487 l -0.062,0.041 z"
             style="fill:#000000;fill-opacity:1;fill-rule:nonzero;stroke:none"
             id="path22"
             inkscape:connector-curvature="0" /></g><g
           id="g24"
           transform="translate(841.5331,703.7076)"><path
             d="m 0,0 c -16.49,0.369 -25.815,17.755 -42.095,20.336 -7.534,-9.062 -16.28,-17.175 -22.549,-27.185 -7.798,-16.596 -2.476,-35.088 -0.211,-52.316 -4.004,0.474 -12.065,1.317 -16.121,1.791 -5.058,20.126 -7.429,43.465 4.53,61.641 10.327,16.649 30.768,27.396 31.664,48.997 -15.384,3.53 -30.663,-13.171 -44.203,-5.532 0.896,20.021 28.872,18.44 43.465,21.496 -5.005,17.596 -17.596,30.873 -33.718,38.934 -18.492,-0.369 -37.037,-1.528 -55.477,0.79 -12.17,-22.338 -4.215,-49.26 14.278,-65.382 0.421,-3.424 1.159,-10.221 1.58,-13.592 -20.125,1.264 -28.45,20.968 -36.405,36.352 -13.803,-1.37 -25.973,-7.85 -38.565,-12.908 -9.167,21.548 23.655,21.601 36.51,28.397 1.054,11.538 3.741,22.813 8.008,33.561 -7.007,6.058 -13.803,12.275 -20.336,18.755 -13.54,-10.379 -29.293,-18.071 -46.679,-18.176 -4.267,-14.014 -6.006,-29.503 -15.805,-41.147 -13.751,-18.439 -37.617,-22.97 -57.69,-31.136 -11.169,-4.373 -15.278,-18.545 -28.081,-20.021 -0.737,3.003 -2.16,9.062 -2.897,12.065 12.907,17.281 32.401,27.344 53.369,31.19 -6.269,12.907 -24.182,10.642 -33.613,20.441 1.634,2.318 4.9,6.955 6.533,9.273 16.438,-1.159 32.349,-7.376 43.36,-20.02 12.012,10.484 18.44,25.604 16.912,41.621 -8.746,5.057 -29.873,9.009 -21.39,22.97 10.537,1.633 19.23,-6.322 29.082,-8.588 17.07,-3.266 34.192,3.636 47.1,14.489 0,8.377 -2.898,17.965 4.478,24.235 10.906,-1.528 10.748,-13.382 15.015,-21.074 8.166,-16.807 26.079,-26.711 44.308,-28.239 2.792,15.436 6.375,31.031 14.12,44.835 4.056,0.21 12.064,0.526 16.068,0.684 -5.795,-13.645 -11.748,-27.343 -16.016,-41.568 21.443,-4.057 44.255,-9.746 58.849,-27.238 14.646,6.27 22.128,24.499 39.356,24.604 C -2.95,104.21 -21.495,96.097 -35.141,87.299 -28.977,70.439 -28.45,52.263 -32.085,34.772 -18.545,26.869 4.426,20.178 0,0 m -97.956,-65.4 c 21.374,-11.511 47.159,-7.833 69.317,2.394 5.616,2.808 12.71,5.409 15,11.405 0.369,0.967 0,2.524 0,3.384 -0.038,-0.014 -0.074,-0.029 -0.112,-0.042 10.274,22.549 38.144,33.138 41.621,59.481 1.739,17.965 8.746,34.561 13.751,51.736 0.421,18.861 -8.64,36.511 -20.494,50.683 -1.528,20.863 -7.271,43.728 -25.5,56.267 -11.696,10.853 -30.294,10.063 -40.198,23.182 -17.86,19.967 -46.784,23.023 -71.335,15.489 -25.447,13.751 -55.688,9.957 -78.659,-6.744 -32.032,6.375 -64.591,-7.428 -80.607,-36.089 -30.768,-5.848 -55.688,-30.82 -58.164,-62.589 -10.695,-8.799 -20.284,-19.388 -25.131,-32.612 -15.647,-36.616 13.962,-82.979 53.159,-86.35 15.437,-1.844 31.295,1.001 43.781,10.642 8.693,8.219 20.073,2.055 30.188,1.317 19.388,-4.267 36.037,8.219 52.264,16.543 14.751,-7.903 30.873,-12.539 45.888,-19.915 15.331,-8.851 23.813,-25.236 29.398,-41.41"
             style="fill:#000001;fill-opacity:1;fill-rule:nonzero;stroke:none"
             id="path26"
             inkscape:connector-curvature="0" /></g><g
           id="g28"
           transform="translate(1099.7412,633.35)"><path
             d="m 0,0 c -42.377,0 -77.569,30.659 -84.669,71 l -2.662,0 C -94.431,30.659 -129.623,0 -172,0 c -42.377,0 -77.569,30.659 -84.669,71 l -2.662,0 C -266.431,30.659 -301.623,0 -344,0 c -42.377,0 -77.569,30.659 -84.669,71 l -2.662,0 C -438.431,30.659 -473.623,0 -516,0 c -42.377,0 -77.569,30.659 -84.669,71 l -2.662,0 C -610.431,30.659 -645.623,0 -688,0 c -42.377,0 -77.569,30.659 -84.669,71 l -1.995,0 c -7.1,-40.341 -42.293,-71 -84.669,-71 -21.586,0 -41.297,7.971 -56.398,21.105 l 0,-265.604 c 0,-40.7 33.3,-74 74,-74 272.831,-13.916 539.376,-15.129 797.834,0 40.699,0 73.999,33.3 73.999,74 l 0,249.928 C 20.732,1.926 10.592,0 0,0"
             style="fill:#000001;fill-opacity:1;fill-rule:nonzero;stroke:none"
             id="path30"
             inkscape:connector-curvature="0" /></g></g></g></g></svg>