<?xml version="1.0" encoding="UTF-8"?>
<svg viewBox="0 0 263.75 281.42999" xmlns="http://www.w3.org/2000/svg">
 <defs>
  <linearGradient id="a" x2="0" y1="390.94" y2="425.94" gradientUnits="userSpaceOnUse">
   <stop stop-color="#3256d1" offset="0"/>
   <stop stop-color="#3256d1" stop-opacity="0" offset="1"/>
  </linearGradient>
 </defs>
 <g transform="translate(-174.92 -154.47)">
  <g transform="translate(2,2)">
   <path d="m304.54 334.14v-153.02s3.8713-14.671 12.425-19.598c19.971-11.502 43.456-6.1101 63.154 2.7102s38.175 38.709 43.429 56.28c9.6716 32.347 14.807 75.555 1.9359 99.091-13.145 24.037-39.433 52.882-70.641 37.03-23.649-12.013-48.506-22.042-50.303-22.491z" fill="#d4ca76" fill-rule="evenodd" stroke="#000"/>
   <path d="m304.06 334.14v-153.02s-3.8713-14.671-12.425-19.598c-19.971-11.502-43.456-6.1101-63.154 2.7102s-38.175 38.709-43.429 56.28c-9.6716 32.347-14.807 75.555-1.9359 99.091 13.145 24.037 39.433 52.882 70.641 37.03 23.649-12.013 48.506-22.042 50.303-22.491z" fill="#d4ca76" fill-rule="evenodd" stroke="#000"/>
   <path d="m301.69 317.09c-1.1654-0.06839-3.3582 0.42422-9 1.4062-12.436 2.1647-50.673 20.369-56.344 40.281-2.4252 8.5154 8.9568 25.26 17.438 30.25 7.7096 4.536 34.929 3.4076 42.688 0.4375 7.3099-2.7985 7.75-17.127 7.75-22.062 0-4.5573 0.04574-11.024 0.09375-17.719 0.04801 6.6946 0.0625 13.161 0.0625 17.719 0 4.9356 0.44008 19.264 7.75 22.062 7.7581 2.9701 34.978 4.0985 42.688-0.4375 8.4807-4.9896 19.863-21.735 17.438-30.25-5.6711-19.913-43.907-38.117-56.344-40.281-10.879-1.8936-8.9228-1.9261-11.594 0.3125-1.3036-1.0887-1.5376-1.6549-2.625-1.7188z" fill="#aac492" fill-rule="evenodd" stroke="#000"/>
   <path d="m302.69 261.91c-2.4518 0.08293-6.4062 1.5-6.4062 1.5s-14.635 3.5798-18.031 8.5c-4.2906 6.2163-4.2282 17.896-1.9375 25.094 1.736 5.4546 10.242 9.2729 12.188 14.656 1.8745 5.1871 0 18.406 0 18.406l15.875-0.1875h0.21875l15.844 0.1875c1e-5 -1e-5 -1.8745-13.219 0-18.406 1.9454-5.3834 10.483-9.2017 12.219-14.656 2.2907-7.1975 2.3531-18.877-1.9375-25.094-3.396-4.9202-18.031-8.5-18.031-8.5s-7.2755-2.6119-8.2188-0.96875c-0.24608-0.42868-0.91582-0.56052-1.7812-0.53125z" fill="#f8fc0f" fill-rule="evenodd" stroke="#000"/>
   <path d="m296.44 315.91c-4.6874-0.06608-10.187 0.20445-13.438 1.4688-1.1379 0.44261-4.1522 2.783-4.25 4-0.79677 9.9097-1.3536 19.039 0 29.25 0.12622 0.95214 1.5937 3.6821 2.5 4 6.2224 2.1827 20.589 0.41474 23.062 0.09375 2.5176 0.32626 16.821 2.0846 23.031-0.09375 0.90633-0.31792 2.3738-3.0479 2.5-4 1.3536-10.211 0.79677-19.34 0-29.25-0.09785-1.217-3.1121-3.5574-4.25-4-6.039-2.3491-19.352-1.238-21.281-1.0625-0.86096-0.07859-3.8244-0.34915-7.875-0.40625z" fill="#66c5db" fill-rule="evenodd" stroke="#000"/>
   <path d="m286.48451,283.80576c-.4314-1.48395-1.21022-4.43844-1.21022-4.591 0-.11709.25512-.16209.9191-.16209h.9191l.54807,2.21568c.30143,1.21863.52707,2.23072.50142,2.24909l-.6949.49911c-.35655.25613-.67924.46569-.71709.46569s-.15732-.30442-.26548-.67648z" fill="#9ced45"/>
   <path d="m289.98444,293.15804c-.67018-1.12046-1.41507-2.92591-2.38124-5.77161l-.92171-2.71479 .27764-.25253c.1527-.1389.22246-.20993.15502-.15784-.38011.29359-.38017.29345-1.50781-3.91048l-.31226-1.16412 .40603-.07618c.22332-.04189.62983-.05783.90334-.03543l.4973.04074 .47155,1.95718c.25935,1.07644.47343,2.06867.47573,2.20496s-.15208.38435-.34307.55126c-.3446.30115-.3439.30109.09112-.00868l.43835-.31213 .46985,1.48071c.5177,1.63154 1.11758,3.16378 2.1716,5.54682 .68172,1.54129.69138,1.57966.50895,2.02031-.10227.24704-.3693.63383-.59338.85952l-.40743.41035-.39958-.66806z" fill="#9ced45"/>
   <path d="m299.68 240.27c-1.6667 0.00587-3.4889 1.2124-4.25 2.5312-4.6179 8.0016-13.594 27.625-13.594 27.625s-11.284 34.573-17.281 40.25c-5.2915 5.0093-16.934 3.956-22.844 8.2188-1.5471 1.116-3.1933 3.2435-3.9375 5-0.92805 2.1905-2.3461 5.872-1.0625 7.875 1.3898 2.1688 5.6508 2.7024 8.2188 2.5 8.7898-0.69291 14.122-4.5562 17.875-6.9375s10.669-13.013 10.969-14.5c2.3352-11.575 11.656-42.344 11.656-42.344s5.069-12.584 7.5-17.688c1.1868-2.4915 3.0386-6.1544 5.5-8.0938 1.4277-1.125 2.0802-0.93779 2.1562 5.7812 0.13206 11.677-6.5864 38.735-7.25 41.375-1.7071 0.11607-3.0625 1.5136-3.0625 3.25 0 1.8122 1.469 3.2812 3.2812 3.2812s3.3125-1.469 3.3125-3.2812c0-0.97646-0.44764-1.836-1.125-2.4375 1.3865-4.7985 2.922-15.057 5.125-24.094 2.2891-9.39 2.9206-24.069 1.375-26.781-0.62885-1.1034-1.5625-1.5348-2.5625-1.5312z" fill="#277527" fill-rule="evenodd" stroke="#000"/>
   <path d="m261.43 288.08c-0.24854 0.70151-2.1429 1.25-2.1429 1.25s-8.4127-5.344-9.8214-9.1072c-1.5866-4.2385-0.42531-10.956 1.6071-15 2.1622-4.3018 7.5909-8.5299 11.786-10.893 3.8853-2.1886 9.8598-4.6517 14.286-4.1072 1.1673 0.14363 1.9712 2.0216 1.2678 2.9643-2.7336 3.6639-7.4391 4.6521-10.375 8.2857-4.1434 5.128-8.891 13.411-9.1071 20-0.06947 2.1182 3.2078 4.6095 2.5 6.6072z" fill="#f72631" fill-rule="evenodd" stroke="#000"/>
   <path d="m294.29 245.04c0.3291-2.7584-5.521-5.5477-7.9107-6.9643-2.2053-1.3072-6.83-1.5432-9.3929-1.4822-9.5864 0.22844-17.512 3.7592-27.161 7.5536-6.0448 2.3771-14.006 8.1204-18.036 13.214-2.8162 3.5594-5.1854 10.34-4.4643 14.821 1.0599 6.5866 2.0856 12.83 7.3214 16.964 4.6031 3.6346 12.981 6.5912 18.75 5.5357 1.9182-0.35095 4.9106-1.997 5.1786-3.9286 0.56238-4.054-7.2672-6.9111-8.2143-10.893-1.4613-6.1439 1.4508-14.112 5.5357-18.929 5.313-6.2642 16.628-10.038 23.571-9.6429 2.5612 0.14566 7.6202-1.5447 7.5-4.1071-0.13944-2.9722-7.2032-1.4553-10.179-1.4286-6.2334 0.05595-18.036 6.6071-18.036 6.6071s-4.9628 3.1805-8.0469 7.3154c-3.0561 4.0974-6.5217 8.4934-5.1673 6.256 4.7246-7.8052 10.452-13.745 16.071-17.679 4.6124-3.2286 9.2593-5.3781 14.821-6.25 2.0884-0.32738 5.4037-0.64111 7.3036 0.28572 2.248 1.0967 5.9133 2.0748 6.0893 4.3572 0.10294 1.3353 4.3056-0.27729 4.4643-1.6072z" fill="#7e2126" fill-rule="evenodd" stroke="#000"/>
   <path d="m275.44 285.41c-1.0994 0.11736-2.3125 0.59375-2.3125 0.59375s-1.4127 7.0401-2.625 9.875c-1.7347 4.0564-3.9505 10.311-7.125 13.375-2.4041 2.3201-9.2504 5.1706-10.438 4.5-1.5358-1.766-3.7901-2.875-6.3125-2.875-4.623 0-8.375 3.752-8.375 8.375s3.752 8.375 8.375 8.375 8.375-3.752 8.375-8.375c-0.56994-2.4216 4.6814-3.2293 7.625-4.625 1.6389-1.0021 4.7126-3.5956 5.875-5.125 2.5415-3.344 4.6134-8.9103 6-12.875 1.1173-3.1946 2.636-7.8749 2.5-10.875-0.01979-0.4364-0.90289-0.41417-1.5625-0.34375z" fill="#7e2126" fill-rule="evenodd" stroke="#000"/>
   <path d="m287.66 278.97c0.41146 1.7184 0.73838 3.0292 1.0625 4.1875 0.71695-0.61429 1.4167-1.3069 2.125-2.0938 6.7215-7.4673 11.469-21.541 8.183-34.504-1.4022-5.5315-30.114 8.6317-35.83 18.804-7.5968 13.518-7.2405 22.183 0.47768 22.643 9.5971 0.5714 17.988-0.37753 22.545-3.067-0.96013-3.2273-1.5938-5.9688-1.5938-5.9688m1.5938 5.9688c1.0246 3.444 2.3982 7.4455 3.8125 9.3125 0.56817 0.75004 2.3842-1.534 2.0312-2.4062-1.2309-3.0417-1.9769-3.803-3.3438-8.6875" fill="#9ced45" fill-rule="evenodd" stroke="#000"/>
   <path d="m289.97932,293.16497c-1.00636-1.66721-3.43981-8.31835-3.16472-8.64983 .07885-.09501.08303-.15917.01036-.15917-.1412,0-.2534-.35186-.98641-3.09359-.38935-1.45632-.49945-2.0462-.39437-2.11307 .08018-.05103.47391-.09364.87495-.09471 .64111-.0017.74213.03238.83647.28218 .24433.64692.91517,3.92439.8524,4.16444-.04909.18772-.0297.22155.0699.12195s.32224.41201.80259,1.84428c.36563,1.09016 1.12023,3.03072 1.67691,4.31235 1.00248,2.308 1.01037,2.33452.82681,2.77792-.10194.24622-.36947.63313-.59452.85979l-.40918.41211-.40119-.66465z" fill="#9ced45"/>
   <path d="m322.11437,283.80576c.4314-1.48395 1.21022-4.43844 1.21022-4.591 0-.11709-.25512-.16209-.9191-.16209h-.9191l-.54807,2.21568c-.30143,1.21863-.52707,2.23072-.50142,2.24909l.6949.49911c.35655.25613.67924.46569.71709.46569s.15732-.30442.26548-.67648z" fill="#9ced45"/>
   <path d="m318.61444,293.15804c.67018-1.12046 1.41507-2.92591 2.38124-5.77161l.92171-2.71479-.27764-.25253c-.1527-.1389-.22246-.20993-.15502-.15784 .38011.29359.38017.29345 1.50781-3.91048l.31226-1.16412-.40603-.07618c-.22332-.04189-.62983-.05783-.90334-.03543l-.4973.04074-.47155,1.95718c-.25935,1.07644-.47343,2.06867-.47573,2.20496s.15208.38435.34307.55126c.3446.30115.3439.30109-.09112-.00868l-.43835-.31213-.46985,1.48071c-.5177,1.63154-1.11758,3.16378-2.1716,5.54682-.68172,1.54129-.69138,1.57966-.50895,2.02031 .10227.24704.3693.63383.59338.85952l.40743.41035 .39958-.66806z" fill="#9ced45"/>
   <path d="m308.91 240.27c1.6667 0.00587 3.4889 1.2124 4.25 2.5312 4.6179 8.0016 13.594 27.625 13.594 27.625s11.284 34.573 17.281 40.25c5.2915 5.0093 16.934 3.956 22.844 8.2188 1.5471 1.116 3.1933 3.2435 3.9375 5 0.92805 2.1905 2.3461 5.872 1.0625 7.875-1.3898 2.1688-5.6508 2.7024-8.2188 2.5-8.7898-0.69291-14.122-4.5562-17.875-6.9375s-10.669-13.013-10.969-14.5c-2.3352-11.575-11.656-42.344-11.656-42.344s-5.069-12.584-7.5-17.688c-1.1868-2.4915-3.0386-6.1544-5.5-8.0938-1.4277-1.125-2.0802-0.93779-2.1562 5.7812-0.13206 11.677 6.5864 38.735 7.25 41.375 1.7071 0.11607 3.0625 1.5136 3.0625 3.25 0 1.8122-1.469 3.2812-3.2812 3.2812s-3.3125-1.469-3.3125-3.2812c0-0.97646 0.44764-1.836 1.125-2.4375-1.3865-4.7985-2.922-15.057-5.125-24.094-2.2891-9.39-2.9206-24.069-1.375-26.781 0.62885-1.1034 1.5625-1.5348 2.5625-1.5312z" fill="#277527" fill-rule="evenodd" stroke="#000"/>
   <path d="m347.17 288.08c0.24854 0.70151 2.1429 1.25 2.1429 1.25s8.4127-5.344 9.8214-9.1072c1.5866-4.2385 0.42531-10.956-1.6071-15-2.1622-4.3018-7.5909-8.5299-11.786-10.893-3.8853-2.1886-9.8598-4.6517-14.286-4.1072-1.1673 0.14363-1.9712 2.0216-1.2678 2.9643 2.7336 3.6639 7.4391 4.6521 10.375 8.2857 4.1434 5.128 8.891 13.411 9.1071 20 0.06947 2.1182-3.2078 4.6095-2.5 6.6072z" fill="#f72631" fill-rule="evenodd" stroke="#000"/>
   <path d="m314.31 245.04c-0.3291-2.7584 5.521-5.5477 7.9107-6.9643 2.2053-1.3072 6.83-1.5432 9.3929-1.4822 9.5864 0.22844 17.512 3.7592 27.161 7.5536 6.0448 2.3771 14.006 8.1204 18.036 13.214 2.8162 3.5594 5.1854 10.34 4.4643 14.821-1.0599 6.5866-2.0856 12.83-7.3214 16.964-4.6031 3.6346-12.981 6.5912-18.75 5.5357-1.9182-0.35095-4.9106-1.997-5.1786-3.9286-0.56238-4.054 7.2672-6.9111 8.2143-10.893 1.4613-6.1439-1.4508-14.112-5.5357-18.929-5.313-6.2642-16.628-10.038-23.571-9.6429-2.5612 0.14566-7.6202-1.5447-7.5-4.1071 0.13944-2.9722 7.2032-1.4553 10.179-1.4286 6.2334 0.05595 18.036 6.6071 18.036 6.6071s4.9628 3.1805 8.0469 7.3154c3.0561 4.0974 6.5217 8.4934 5.1673 6.256-4.7246-7.8052-10.452-13.745-16.071-17.679-4.6124-3.2286-9.2593-5.3781-14.821-6.25-2.0884-0.32738-5.4037-0.64111-7.3036 0.28572-2.248 1.0967-5.9133 2.0748-6.0893 4.3572-0.10294 1.3353-4.3056-0.27729-4.4643-1.6072z" fill="#7e2126" fill-rule="evenodd" stroke="#000"/>
   <path d="m333.16 285.41c1.0994 0.11736 2.3125 0.59375 2.3125 0.59375s1.4127 7.0401 2.625 9.875c1.7347 4.0564 3.9505 10.311 7.125 13.375 2.4041 2.3201 9.2504 5.1706 10.438 4.5 1.5358-1.766 3.7901-2.875 6.3125-2.875 4.623 0 8.375 3.752 8.375 8.375s-3.752 8.375-8.375 8.375-8.375-3.752-8.375-8.375c0.56994-2.4216-4.6814-3.2293-7.625-4.625-1.6389-1.0021-4.7126-3.5956-5.875-5.125-2.5415-3.344-4.6134-8.9103-6-12.875-1.1173-3.1946-2.636-7.8749-2.5-10.875 0.01979-0.4364 0.90289-0.41417 1.5625-0.34375z" fill="#7e2126" fill-rule="evenodd" stroke="#000"/>
   <path d="m320.94 278.97c-0.41146 1.7184-0.73838 3.0292-1.0625 4.1875-0.71695-0.61429-1.4167-1.3069-2.125-2.0938-6.7215-7.4673-11.469-21.541-8.183-34.504 1.4022-5.5315 30.114 8.6317 35.83 18.804 7.5968 13.518 7.2405 22.183-0.47768 22.643-9.5971 0.5714-17.988-0.37753-22.545-3.067 0.96013-3.2273 1.5938-5.9688 1.5938-5.9688m-1.5938 5.9688c-1.0246 3.444-2.3982 7.4455-3.8125 9.3125-0.56817 0.75004-2.3842-1.534-2.0312-2.4062 1.2309-3.0417 1.9769-3.803 3.3438-8.6875" fill="#9ced45" fill-rule="evenodd" stroke="#000"/>
   <path d="m318.61956,293.16497c1.00636-1.66721 3.43981-8.31835 3.16472-8.64983-.07885-.09501-.08303-.15917-.01036-.15917 .1412,0 .2534-.35186.98641-3.09359 .38935-1.45632.49945-2.0462.39437-2.11307-.08018-.05103-.47391-.09364-.87495-.09471-.64111-.0017-.74213.03238-.83647.28218-.24433.64692-.91517,3.92439-.8524,4.16444 .04909.18772.0297.22155-.0699.12195s-.32224.41201-.80259,1.84428c-.36563,1.09016-1.12023,3.03072-1.67691,4.31235-1.00248,2.308-1.01037,2.33452-.82681,2.77792 .10194.24622.36947.63313.59452.85979l.40918.41211 .40119-.66465z" fill="#9ced45"/>
   <path d="m315.27 430.31v-66.468l1.8356-2.2561c3.1025-3.6294 3.8019-2.4162 7.0623-4.1651 1.4967-0.80284-0.52045-6.2403-1.7734-7.636-2.7132-3.0224-4.9438-4.7153-8.1823-4.6423-2.8087 0.06614-9.2401 0.72314-9.2401 4.8159 0-4.0928-6.4314-4.7498-9.2401-4.8159-3.2385-0.07298-5.438 1.6199-8.1512 4.6423-1.2529 1.3957-3.3011 6.8332-1.8045 7.636 3.2604 1.7489 3.9598 0.53567 7.0623 4.1651 0.16343 0.1912 1.8356 2.2561 1.8356 2.2561v66.468" fill="url(#a)" fill-rule="evenodd" stroke="#000" stroke-width="1.1757"/>
  </g>
  <path d="m193.47222,422.49792c0,1.68-.032,1.904-.96,2l-.48.048c-.096.096-.064.352.032.4 .896-.032 1.40801-.048 2.08-.048h1.472c1.648,0 3.16801.016 3.984.048 .224-.432.672-2.064.672-2.24 0-.112-.304-.176-.4-.096-.31999.816-.736,1.392-1.056,1.584-.25599.144-.592.208-1.952.208-1.26399,0-1.568-.192-1.744-.368-.28799-.304-.336-.72-.336-1.728v-5.568c0-1.68.03201-1.936.976-2.016l.384-.032c.096-.064.064-.352-.032-.4-.79999.032-1.344.048-1.968.048-.63999,0-1.184-.016-2.08-.048-.096.048-.128.336-.032.4l.4.032c1.008.08 1.04.336 1.04,2.016v5.76m8.84375,0c0,1.68-.08,1.92-.992,2l-.528.048c-.096.096-.064.352.032.4 .944-.032 1.48801-.048 2.176-.048h1.44c1.424,0 2.84801.016 4.288.048 .208-.432.608-1.664.72-2.224-.064-.144-.288-.192-.4-.112-.41599.832-.848,1.392-1.136,1.552-.35199.176-.816.24-2.048.24-1.40799,0-1.744-.176-1.936-.368-.25599-.272-.304-.816-.304-1.664v-2.256c0-.416.04801-.432.528-.432h.928c.624,0 1.00801.016 1.232.08 .32.08.432.32.496.608l.144.624c.08.096.352.096.416-.016 0-.352-.064-.96-.064-1.536 0-.608.064-1.232.064-1.616-.064-.112-.336-.112-.416-.016l-.128.656c-.08.4-.192.496-.384.56s-.688.096-1.36.096h-.928c-.47999,0-.528,0-.528-.448v-3.2c0-.608 1e-005-.64.48-.64h1.152c.704,0 1.21601.016 1.552.096 .832.208.97601.768 1.216,1.52 .08.096.336.064.4-.032-.064-.704-.16-1.856-.256-2.128-.19199.048-1.136.048-2.16.048h-3.008c-.65599,0-1.2-.016-1.888-.048-.096.048-.128.336-.032.4l.256.032c.944.112.976.352.976,2.016v5.76m10.65575-7.024c0-.608 1e-005-.64.48-.64h.976c.672,0 1.20001,0 1.552.096 .8.208.992.8 1.12,1.52 .112.096.336.048.384-.048-.032-.608-.048-1.376-.048-2.112-.20799.048-1.136.048-2.16.048h-2.944c-.63999,0-1.184-.016-1.856-.048-.096.048-.128.336-.032.4l.256.032c.928.112.96.336.96,2.016v5.76c0,1.68-.032,1.888-.96,2l-.4.048c-.096.096-.064.352.032.4 .752-.032 1.29601-.048 2-.048 .64,0 1.18401.016 2.128.048 .096-.048.128-.336.032-.4l-.544-.048c-.94399-.08-.976-.32-.976-2v-2.224c0-.416.04801-.432.528-.432h1.088c.608,0 1.00801.016 1.232.08 .304.096.432.32.512.608l.16.624c.112.096.352.096.416,0 0-.368-.064-.976-.064-1.552 0-.592.064-1.232.064-1.616-.064-.096-.336-.096-.416,0l-.144.64c-.096.416-.224.496-.4.56-.19199.064-.704.096-1.36.096h-1.088c-.47999,0-.528,0-.528-.432v-3.376m11.12175-.096c0-.528-.01599-.544.464-.544h1.136c.88,0 1.48801.128 1.856.4 .24.176.352.768.4,1.168 .08.096.352.096.416-.032-.048-.48.06401-1.776.24-2.432-.032-.064-.208-.08-.288-.048-.23999.416-.384.448-1.248.448h-6.48c-.73599,0-1.264.016-1.36-.496-.048-.048-.256-.032-.304,0-.112.64-.352,1.664-.608,2.384 .064.128.288.208.416.112 .176-.4.33601-.752.72-1.104 .4-.368 1.28001-.4 1.968-.4h.88c.48,0 .48.016.48.512v7.152c0,1.68-.08,1.92-.992,2l-.576.048c-.128.08-.096.352 0,.4 1.024-.032 1.58401-.048 2.224-.048s1.18401.016 2.096.048c.096-.048.128-.336.032-.4l-.512-.048c-.92799-.08-.96-.32-.96-2v-7.12"/>
  <path d="m375.47222,422.09792c0,1.68-.032,1.888-.96,2l-.4.048c-.096.112-.064.352.032.4 .752-.032 1.32801-.048 2-.048 .64,0 1.18401.016 1.904.048 .096-.048.128-.32.032-.4l-.336-.048c-.92799-.128-.96-.32-.96-2v-2.016c0-.33599.03201-.352.752-.352 .64,0 .89601.16001 1.136.512 .496.72 1.15201,1.82401 1.568,2.416 1.136,1.616 1.95201,2.016 3.312,2.016 .304,0 .56-.032.704-.08 .08-.064.064-.192-.016-.224-.43199-.032-.832-.208-1.104-.448-1.08799-.91199-1.936-2.192-3.216-4.256-.08-.128-.16-.288-.08-.384 .8-.31999 2-1.152 2-2.672 0-1.11999-.56-1.84-1.328-2.24-.73599-.39999-1.68-.48-2.672-.48-1.56799,0-2.672.048-3.568.128-.128.064-.128.32-.016.4l.512.064c.656.08.704.35201.704,1.872v5.744m1.312-7.2c0-.44799.04801-.512 1.04-.512 1.776,0 2.56,1.20001 2.56,2.464 0,1.088-.368,1.64801-.8,1.984-.46399.352-1.072.416-1.648.416-.81599,0-1.056-.032-1.104-.08-.048-.064-.048-.24-.048-.528v-3.744m9.0005,7.168c0,1.696-.032,1.92-.976,2.032l-.4.048c-.096.096-.064.352.032.4 .8-.032 1.34401-.048 2.016-.048 .64,0 1.18401.016 1.984.048 .096-.048.128-.336.032-.4l-.4-.048c-.94399-.112-.976-.336-.976-2.032v-5.696c0-1.69599.03201-1.968.976-2.048l.4-.032c.096-.064.064-.352-.032-.4-.79999.032-1.344.048-1.984.048-.67199,0-1.216-.016-2.016-.048-.096.048-.128.336-.032.4l.4.032c.944.08.976.35201.976,2.048v5.696m13.72625-.096c0-.81599.01601-1.264.688-1.344l.256-.032c.112-.096.096-.336-.016-.4-.52799.032-1.072.048-1.696.048-.94399,0-1.824-.016-2.288-.048-.112.048-.128.336 0,.4l.704.08c.992.112 1.04.20801 1.04,1.552v.64c0,.512-.08.8-.16.912-.17599.272-.768.48-1.76.48-3.21599,0-4.8-2.416-4.8-5.488 0-2.39999 1.36001-4.608 4.464-4.608 1.632,0 2.83201.54401 3.28,2.272 .096.096.384.08.432-.048-.144-.95999-.24-1.792-.24-2.32-.19199.032-.688-.08-.992-.144-.27199-.064-1.12-.24-2.032-.24-2.41599,0-4,.75201-5.072,1.872-.99199,1.056-1.44,2.43201-1.44,3.792 0,1.408.51201,2.67201 1.472,3.632 1.232,1.248 2.97601,1.776 4.88,1.776 .864,0 2.01601-.192 2.864-.416 .304-.08.59201-.144.784-.144 .064-.048.064-.144.016-.192-.28799-.112-.384-.496-.384-1.136v-.896m10.3055-2.64c.768,0 .8.03201.8.512v2.256c0,1.68 0,1.84-.976,2l-.304.048c-.096.096-.064.352.032.4 .704-.032 1.28001-.048 1.936-.048 .624,0 1.16801.016 1.936.048 .096-.048.128-.336.032-.4l-.384-.048c-.92799-.112-.96-.32-.96-2v-5.76c0-1.67999.03201-1.92.96-2.016l.336-.032c.096-.064.064-.352-.032-.4-.71999.032-1.264.048-1.888.048-.65599,0-1.2-.016-1.936-.048-.096.048-.128.336-.032.4l.304.032c.944.096.976.33601.976,2.016v1.84c0,.496-.032.512-.8.512h-4.576c-.76799,0-.8-.016-.8-.512v-1.84c0-1.67999.03201-1.92.96-2.016l.304-.032c.096-.064.064-.352-.032-.4-.68799.032-1.232.048-1.856.048-.68799,0-1.232-.032-2.016-.048-.096.048-.128.336-.032.4l.416.032c.832.064.944.33601.944,2.016v5.76c0,1.68-.032,1.84-.928,2l-.272.048c-.096.096-.064.352.032.4 .624-.016 1.16801-.048 1.856-.048 .624,0 1.16801.016 2.032.048 .096-.048.128-.336.032-.4l-.464-.048c-.89599-.096-.976-.32-.976-2v-2.256c0-.47999.03201-.512.8-.512h4.576m10.05825-4.352c0-.52799-.01599-.544.464-.544h1.136c.88,0 1.48801.12801 1.856.4 .24.176.352.76801.4,1.168 .08.096.352.096.416-.032-.048-.47999.06401-1.776.24-2.432-.032-.064-.208-.08-.288-.048-.23999.416-.384.448-1.248.448h-6.48c-.73599,0-1.264.016-1.36-.496-.048-.048-.256-.032-.304,0-.112.64-.352,1.66401-.608,2.384 .064.128.288.208.416.112 .176-.39999.33601-.752.72-1.104 .4-.36799 1.28001-.4 1.968-.4h.88c.48,0 .48.01601.48.512v7.152c0,1.68-.08,1.92-.992,2l-.576.048c-.128.08-.096.352 0,.4 1.024-.032 1.58401-.048 2.224-.048s1.18401.016 2.096.048c.096-.048.128-.336.032-.4l-.512-.048c-.92799-.08-.96-.32-.96-2v-7.12"/>
  <path transform="translate(174.92 154.47)" d="m63.528,21.01799c0,1.548.744,2.64 1.704,3.3 .876.588 1.908.804 2.988.804 .768,0 1.632-.18 1.896-.276 .132-.048.276-.096.42-.12 .18-.228.492-1.02.576-1.644-.048-.084-.228-.108-.312-.048-.276.708-.96,1.716-2.508,1.716-1.968,0-3.564-1.392-3.564-3.912 0-2.484 1.56-3.648 3.396-3.648 1.74,0 2.28.936 2.46,1.752 .084.072.264.06.324-.024-.096-.732-.156-1.488-.168-1.764-.108.012-.192-.012-.336-.048-.564-.156-1.476-.288-2.124-.288-1.248,0-2.364.336-3.24,1.02-.912.708-1.512,1.848-1.512,3.18m11.59575.84c.504,0 .672-.012.708-.084 .024-.048.048-.144.048-.312 0-.72-.672-1.428-1.704-1.428-1.44,0-2.412,1.236-2.412,2.712 0,.528.144,1.092.504,1.56 .348.456.96.792 1.74.792 .624,0 1.488-.3 1.884-1.116-.012-.108-.096-.18-.216-.144-.372.468-.708.588-1.104.588-1.284,0-1.992-1.032-1.992-2.244 0-.3.012-.324.324-.324h2.22m-2.328-.36c-.084,0-.084-.036-.084-.06 .012-.396.624-1.044 1.332-1.044 .696,0 .924.42.924.756 0,.156-.036.204-.072.228-.096.072-.36.12-1.248.12h-.852m4.48181,2.088c0,.864-.012.972-.456,1.044l-.228.036c-.084.06-.06.264.024.3 .312-.024.672-.036 1.104-.036 .42,0 .768.012 1.332.036 .084-.036.108-.24.024-.3l-.432-.036c-.456-.036-.48-.18-.48-1.044v-1.632c0-.408.036-.756.156-.924 .096-.132.24-.24.432-.24 .168,0 .348.072.528.192 .084.048.144.084.264.084 .192,0 .516-.156.516-.552 0-.288-.24-.48-.54-.48-.444,0-.9.372-1.32.72-.024-.012-.036-.048-.036-.108v-.696c0-.048-.036-.072-.096-.084-.3.18-.936.492-1.212.588-.06.036-.06.168-.012.216l.108.072c.324.216.324.276.324.744v2.1m6.58837-1.728c.504,0 .672-.012.708-.084 .024-.048.048-.144.048-.312 0-.72-.672-1.428-1.704-1.428-1.44,0-2.412,1.236-2.412,2.712 0,.528.144,1.092.504,1.56 .348.456.96.792 1.74.792 .624,0 1.488-.3 1.884-1.116-.012-.108-.096-.18-.216-.144-.372.468-.708.588-1.104.588-1.284,0-1.992-1.032-1.992-2.244 0-.3.012-.324.324-.324h2.22m-2.328-.36c-.084,0-.084-.036-.084-.06 .012-.396.624-1.044 1.332-1.044 .696,0 .924.42.924.756 0,.156-.036.204-.072.228-.096.072-.36.12-1.248.12h-.852m4.20581,2.388c0,.624-.012.852-.024,1.02 .024.048.072.072.12.072 .024,0 .036,0 .048-.012 .06-.084.156-.18.252-.18s.252.072.504.156c.24.072.576.156 1.02.156 1.608,0 2.76-1.116 2.76-2.712 0-1.32-.924-2.352-2.292-2.352-.588,0-1.068.216-1.38.396-.072,0-.12-.048-.12-.252v-2.268c0-.528.024-1.068.048-1.488-.024-.048-.072-.072-.12-.072-.456.24-1.032.396-1.308.504-.06.036-.06.204 0,.24l.12.072c.36.216.372.288.372.996v5.724m.888-2.46c0-.468.024-.6.144-.684 .168-.108.456-.192.816-.192 1.188,0 1.824.96 1.824,2.196 0,1.032-.444,1.992-1.572,1.992-.384,0-.708-.144-.912-.396s-.3-.624-.3-1.044v-1.872m5.388,2.16c0,.864-.012.972-.456,1.044l-.228.036c-.084.06-.06.264.024.3 .312-.024.672-.036 1.104-.036 .42,0 .768.012 1.332.036 .084-.036.108-.24.024-.3l-.432-.036c-.456-.036-.48-.18-.48-1.044v-1.632c0-.408.036-.756.156-.924 .096-.132.24-.24.432-.24 .168,0 .348.072.528.192 .084.048.144.084.264.084 .192,0 .516-.156.516-.552 0-.288-.24-.48-.54-.48-.444,0-.9.372-1.32.72-.024-.012-.036-.048-.036-.108v-.696c0-.048-.036-.072-.096-.084-.3.18-.936.492-1.212.588-.06.036-.06.168-.012.216l.108.072c.324.216.324.276.324.744v2.1m4.22437-.624c-.768.276-.996.552-.996,1.02 0,.336.144.636.372.84 .204.18.492.276.84.276 .336,0 .6-.156.864-.3 .24-.132.384-.24.468-.24 .072,0 .144.096.192.168 .204.264.492.372.78.372 .588,0 1.008-.468 1.008-.528 0-.084-.036-.156-.084-.156-.036,0-.096.048-.156.084-.072.036-.18.072-.3.072-.468,0-.576-.492-.552-1.044l.072-2.088c.036-.9-.384-1.404-1.248-1.404-.876,0-2.232.852-2.232,1.476 0,.108.06.168.168.168 .18,0 .504-.084.684-.228 .096-.072.108-.216.12-.408 .024-.372.432-.54.768-.54 .744,0 .888.6.876,1.044l-.012.552c0,.18-.024.288-.204.348l-1.428.516m-.072.876c0-.468.348-.648 1.056-.888 .216-.072.42-.12.492-.12s.12.024.12.156l-.024.708c-.012.252-.012.42-.156.564-.12.12-.492.3-.732.3-.612,0-.756-.516-.756-.72m5.45157-5.928c0-.528.024-1.128.036-1.488-.024-.048-.072-.072-.12-.072-.432.228-.996.408-1.296.504-.06.036-.06.204 0,.24l.12.072c.36.216.372.288.372.996v5.424c0,.864-.012.984-.456,1.044l-.276.036c-.084.06-.06.264.024.3 .36-.024.72-.036 1.152-.036 .42,0 .768.012 1.164.036 .084-.036.108-.24.024-.3l-.288-.036c-.432-.06-.456-.18-.456-1.044v-5.676m-35.28769,17.124c-1.992,0-2.904,1.38-2.904,2.676 0,.78.276,1.368.696,1.776s1.008.612 1.644.612c.696,0 1.596-.336 2.004-1.224-.012-.108-.12-.192-.216-.168-.276.408-.636.72-1.332.72-1.284,0-1.932-1.116-1.932-2.052 0-1.272.816-1.932 1.656-1.932 .492,0 .936.312 1.2.636 .048.06.108.084.168.084 .144,0 .264-.228.264-.444 0-.204-.084-.396-.18-.48-.324-.144-.792-.204-1.068-.204m4.44469,0c-1.416,0-2.556,1.08-2.556,2.592 0,1.5 1.08,2.472 2.46,2.472 1.5,0 2.532-1.08 2.532-2.58 0-1.476-1.092-2.484-2.436-2.484m1.404,2.676c0,.924-.324,2.028-1.38,2.028s-1.548-1.176-1.548-2.268c0-1.32.588-2.076 1.38-2.076 1.14,0 1.548,1.296 1.548,2.316m2.63194.876c0,.864-.012.972-.456,1.044l-.228.036c-.084.06-.06.264.024.3 .312-.024.672-.036 1.104-.036 .42,0 .768.012 1.332.036 .084-.036.108-.24.024-.3l-.432-.036c-.456-.036-.48-.18-.48-1.044v-1.632c0-.408.036-.756.156-.924 .096-.132.24-.24.432-.24 .168,0 .348.072.528.192 .084.048.144.084.264.084 .192,0 .516-.156.516-.552 0-.288-.24-.48-.54-.48-.444,0-.9.372-1.32.72-.024-.012-.036-.048-.036-.108v-.696c0-.048-.036-.072-.096-.084-.3.18-.936.492-1.212.588-.06.036-.06.168-.012.216l.108.072c.324.216.324.276.324.744v2.1m6.32438-2.88c.108-.072.132-.396-.012-.504h-1.332c-.204,0-.216-.012-.216-.228v-.54c-.048-.084-.192-.084-.252-.06-.12.24-.348.564-.504.708-.12.108-.42.264-.768.372-.048.072-.036.204.036.252h.336c.24,0 .252.024.252.348v2.748c0,.72.216,1.296 1.248,1.296 .612,0 1.044-.3 1.26-.552 .024-.072-.024-.204-.12-.204-.036,0-.192.132-.3.168-.096.036-.204.06-.324.06-.792,0-.876-.636-.876-1.332v-2.244c0-.252.012-.288.216-.288h1.356m3.94369,1.152c.504,0 .672-.012.708-.084 .024-.048.048-.144.048-.312 0-.72-.672-1.428-1.704-1.428-1.44,0-2.412,1.236-2.412,2.712 0,.528.144,1.092.504,1.56 .348.456.96.792 1.74.792 .624,0 1.488-.3 1.884-1.116-.012-.108-.096-.18-.216-.144-.372.468-.708.588-1.104.588-1.284,0-1.992-1.032-1.992-2.244 0-.3.012-.324.324-.324h2.22m-2.328-.36c-.084,0-.084-.036-.084-.06 .012-.396.624-1.044 1.332-1.044 .696,0 .924.42.924.756 0,.156-.036.204-.072.228-.096.072-.36.12-1.248.12h-.852m5.42981,1.044c.096.132.072.18-.036.312-.276.336-.816,1.14-1.068,1.404-.216.228-.384.324-.6.36l-.276.048c-.084.048-.072.252.024.3 .312-.024.576-.036.876-.036 .288,0 .588.012.888.036 .084-.036.096-.24.024-.3l-.204-.036c-.3-.048-.276-.144-.036-.528l.504-.792c.084-.132.18-.252.216-.288 .048.036.12.132.264.348l.624.9c.156.216.144.324-.204.36l-.348.036c-.084.06-.06.264.036.3 .384-.024.696-.036 1.14-.036 .348,0 .744.012 1.188.036 .084-.036.096-.228.024-.3l-.192-.012c-.324-.024-.516-.18-.792-.564l-1.116-1.572c-.156-.216-.156-.252-.012-.444 .48-.648.924-1.2 1.128-1.368 .132-.108.312-.144.6-.204l.18-.036c.072-.06.072-.252-.024-.3-.228.024-.6.036-.876.036-.288,0-.6-.012-.876-.036-.096.036-.12.228-.048.3l.144.036c.264.072.3.132.096.444-.252.384-.648.984-.696,1.02-.036-.036-.108-.132-.156-.204l-.576-.84c-.204-.288-.216-.36.108-.42l.18-.036c.072-.06.072-.252-.012-.3-.468.024-.732.036-1.02.036-.3,0-.576-.012-1.044-.036-.084.036-.096.24-.024.3l.192.036c.336.06.54.252.72.516l1.08,1.524"/>
  <path d="m280.02422,222.00793c0-.38 1e-005-.4.3-.4h.61c.42,0 .75001,0 .97.06 .5.13.62.5.7.95 .07.06.21.03.24-.03-.02-.38-.03-.86-.03-1.32-.13.03-.71.03-1.35.03h-1.84c-.39999,0-.74-.01-1.16-.03-.06.03-.08.21-.02.25l.16.02c.58.07.6.21001.6,1.26v3.6c0,1.05-.02,1.18-.6,1.25l-.25.03c-.06.06-.04.22.02.25 .47-.02.81001-.03 1.25-.03 .4,0 .74001.01 1.33.03 .06-.03.08-.21.02-.25l-.34-.03c-.58999-.05-.61-.2-.61-1.25v-1.39c0-.26.03001-.27.33-.27h.68c.38,0 .63.01.77.05 .19.06.27.2.32.38l.1.39c.07.06.22.06.26,0 0-.23-.04-.61-.04-.97 0-.37.04-.77.04-1.01-.04-.06-.21-.06-.26,0l-.09.4c-.06.26-.14.31-.25.35-.12.04-.44.06-.85.06h-.68c-.29999,0-.33,0-.33-.27v-2.11m5.7511,1.81c-1.18,0-2.13.90001-2.13,2.16 0,1.25.9,2.06 2.05,2.06 1.25,0 2.11-.9 2.11-2.15 0-1.22999-.91-2.07-2.03-2.07m1.17,2.23c0,.77-.27,1.69-1.15,1.69s-1.29-.98-1.29-1.89c0-1.09999.49-1.73 1.15-1.73 .95,0 1.29,1.08 1.29,1.93m2.19328.73c0,.72-.01.81-.38.87l-.19.03c-.07.05-.05.22.02.25 .26-.02.56-.03.92-.03 .35,0 .64.01 1.11.03 .07-.03.09-.2.02-.25l-.36-.03c-.38-.03-.4-.15-.4-.87v-1.36c0-.34.03-.63.13-.77 .08-.11.2-.2.36-.2 .14,0 .29.06.44.16 .07.04.12.07.22.07 .16,0 .43-.13.43-.46 0-.24-.2-.4-.45-.4-.37,0-.75.31-1.1.6-.02-.01-.03-.04-.03-.09v-.58c0-.04-.03-.06-.08-.07-.25.15-.78.41-1.01.49-.05.03-.05.14-.01.18l.09.06c.27.18.27.23.27.62v1.75m3.32031,0c0,.72-.01.82-.38.87l-.21.03c-.07.05-.05.22.02.25 .28-.02.58-.03.94-.03 .35,0 .64.01.91.03 .07-.03.09-.2.02-.25l-.18-.03c-.36-.06-.38-.15-.38-.87v-1.53c0-.29.02-.43.15-.6 .14-.19.47-.35.85-.35 .68,0 .94.42.94.99v1.49c0,.72-.01.81-.38.87l-.19.03c-.07.05-.05.22.02.25 .27-.02.57-.03.93-.03 .35,0 .64.01.94.03 .07-.03.09-.2.02-.25l-.22-.03c-.36-.05-.38-.15-.38-.87v-1.72c0-.67-.34-1.24-1.17-1.24-.51,0-.98.25-1.4.51-.07,0-.11-.05-.11-.11 0-.09 0-.24.02-.47-.02-.05-.07-.07-.11-.07-.2.15-.77.41-1,.49-.05.03-.05.14-.01.18l.09.06c.27.18.27.23.27.62v1.75m5.25391,0c0,.72-.01.82-.38.87l-.21.03c-.07.05-.05.22.02.25 .28-.02.58-.03.94-.03 .35,0 .64.01.94.03 .07-.03.09-.2.02-.25l-.21-.03c-.36-.05-.38-.15-.38-.87v-1.8c0-.41.02-.89.04-1.24-.01-.04-.05-.06-.1-.06-.23.15-.8.41-1.03.49-.05.03-.05.14-.01.18l.09.06c.27.18.27.23.27.62v1.75m.33-5.12c-.3,0-.54.21-.54.54 0,.27.2.5.51.5 .28,0 .53-.16.53-.52 0-.28-.2-.52-.5-.52m3.03812,4.25c.08.11.06.15-.03.26-.23.28-.68.95-.89,1.17-.18.19-.32.27-.5.3l-.23.04c-.07.04-.06.21.02.25 .26-.02.48-.03.73-.03 .24,0 .49.01.74.03 .07-.03.08-.2.02-.25l-.17-.03c-.25-.04-.23-.12-.03-.44l.42-.66c.07-.11.15-.21.18-.24 .04.03.1.11.22.29l.52.75c.13.18.12.27-.17.3l-.29.03c-.07.05-.05.22.03.25 .32-.02.58-.03.95-.03 .29,0 .62.01.99.03 .07-.03.08-.19.02-.25l-.16-.01c-.27-.02-.43-.15-.66-.47l-.93-1.31c-.13-.18-.13-.21-.01-.37 .4-.54.77-1 .94-1.14 .11-.09.26-.12.5-.17l.15-.03c.06-.05.06-.21-.02-.25-.19.02-.5.03-.73.03-.24,0-.5-.01-.73-.03-.08.03-.1.19-.04.25l.12.03c.22.06.25.11.08.37-.21.32-.54.82-.58.85-.03-.03-.09-.11-.13-.17l-.48-.7c-.17-.24-.18-.3.09-.35l.15-.03c.06-.05.06-.21-.01-.25-.39.02-.61.03-.85.03-.25,0-.48-.01-.87-.03-.07.03-.08.2-.02.25l.16.03c.28.05.45.21.6.43l.9,1.27"/>
  <path d="m203.60422,235.94793c0-.33-.00999-.34.29-.34h.71c.55,0 .93001.08 1.16.25 .15.11.22.48.25.73 .05.06.22.06.26-.02-.03-.3.04-1.11.15-1.52-.02-.04-.13-.05-.18-.03-.14999.26-.24.28-.78.28h-4.05c-.45999,0-.79.01-.85-.31-.03-.03-.16-.02-.19,0-.07.4-.22,1.04-.38,1.49 .04.08.18.13.26.07 .11-.25.21001-.47.45-.69 .25-.23.80001-.25 1.23-.25h.55c.3,0 .3.01.3.32v4.47c0,1.05-.05,1.2-.62,1.25l-.36.03c-.08.05-.06.22 0,.25 .64-.02.99001-.03 1.39-.03s.74001.01 1.31.03c.06-.03.08-.21.02-.25l-.32-.03c-.57999-.05-.6-.2-.6-1.25v-4.45m3.80157,4.83c0,.72-.01.83-.38.87l-.25.03c-.07.05-.05.22.02.25 .32-.02.62-.03.98-.03 .35,0 .64.01.94.03 .07-.03.09-.21.02-.25l-.21-.03c-.36-.05-.38-.15-.38-.87v-1.68c0-.35.03-.4.21-.55s.44-.27.78-.27c.64,0 .95.43.95,1.07v1.43c0,.72-.01.81-.38.87l-.2.03c-.07.05-.05.22.02.25 .27-.02.57-.03.93-.03 .35,0 .64.01 1,.03 .07-.03.09-.2.02-.25l-.27-.03c-.36-.04-.38-.15-.38-.87v-1.67c0-.7-.34-1.29-1.29-1.29-.51,0-.99.24-1.35.52-.03-.02-.04-.1-.04-.19v-2.1c0-.44.02-.94.03-1.24-.02-.04-.06-.06-.1-.06-.36.19-.83.34-1.08.42-.05.03-.05.17 0,.2l.1.06c.3.18.31.24.31.83v4.52m5.45625-.52c-.64.23-.83.46-.83.85 0,.28.12.53.31.7 .17.15.41.23.7.23 .28,0 .5-.13.72-.25 .2-.11.32-.2.39-.2 .06,0 .12.08.16.14 .17.22.41.31.65.31 .49,0 .84-.39.84-.44 0-.07-.03-.13-.07-.13-.03,0-.08.04-.13.07-.06.03-.15.06-.25.06-.39,0-.48-.41-.46-.87l.06-1.74c.03-.75-.32-1.17-1.04-1.17-.73,0-1.86.71-1.86,1.23 0,.09.05.14.14.14 .15,0 .42-.07.57-.19 .08-.06.09-.18.1-.34 .02-.31.36-.45.64-.45 .62,0 .74.5.73.87l-.01.46c0,.15-.02.24-.17.29l-1.19.43m-.06.73c0-.39.29-.54.88-.74 .18-.06.35-.1.41-.1s.1.02.1.13l-.02.59c-.01.21-.01.35-.13.47-.1.1-.41.25-.61.25-.51,0-.63-.43-.63-.6m4.54297-4.94c0-.44.02-.94.03-1.24-.02-.04-.06-.06-.1-.06-.36.19-.83.34-1.08.42-.05.03-.05.17 0,.2l.1.06c.3.18.31.24.31.83v4.52c0,.72-.01.82-.38.87l-.23.03c-.07.05-.05.22.02.25 .3-.02.6-.03.96-.03 .35,0 .64.01.97.03 .07-.03.09-.2.02-.25l-.24-.03c-.36-.05-.38-.15-.38-.87v-4.73m2.02093,4.21c-.64.23-.83.46-.83.85 0,.28.12.53.31.7 .17.15.41.23.7.23 .28,0 .5-.13.72-.25 .2-.11.32-.2.39-.2 .06,0 .12.08.16.14 .17.22.41.31.65.31 .49,0 .84-.39.84-.44 0-.07-.03-.13-.07-.13-.03,0-.08.04-.13.07-.06.03-.15.06-.25.06-.39,0-.48-.41-.46-.87l.06-1.74c.03-.75-.32-1.17-1.04-1.17-.73,0-1.86.71-1.86,1.23 0,.09.05.14.14.14 .15,0 .42-.07.57-.19 .08-.06.09-.18.1-.34 .02-.31.36-.45.64-.45 .62,0 .74.5.73.87l-.01.46c0,.15-.02.24-.17.29l-1.19.43m-.06.73c0-.39.29-.54.88-.74 .18-.06.35-.1.41-.1s.1.02.1.13l-.02.59c-.01.21-.01.35-.13.47-.1.1-.41.25-.61.25-.51,0-.63-.43-.63-.6m9.20297-.21c0,.72-.01.81-.38.87l-.18.03c-.07.05-.05.22.02.25 .28-.02.55-.03.91-.03 .35,0 .64.01.97.03 .07-.03.09-.2.02-.25l-.24-.03c-.36-.05-.38-.15-.38-.87v-1.72c0-.69-.39-1.24-1.19-1.24-.47,0-.96.23-1.36.51-.09.06-.16.1-.25.08-.28-.41-.56-.59-1.06-.59-.48,0-.95.24-1.33.51-.07,0-.11-.05-.11-.11 0-.09 0-.24.02-.47-.02-.05-.07-.07-.11-.07-.2.15-.77.41-1,.49-.05.03-.05.14-.01.18l.09.06c.27.18.27.23.27.62v1.75c0,.72-.01.82-.38.87l-.24.03c-.07.05-.05.22.02.25 .31-.02.61-.03.97-.03 .35,0 .64.01.91.03 .07-.03.09-.2.02-.25l-.18-.03c-.36-.06-.38-.15-.38-.87v-1.55c0-.32.05-.45.15-.57 .15-.18.43-.36.84-.36 .62,0 .92.36.92,1.03v1.45c0,.72-.01.81-.38.87l-.18.03c-.07.05-.05.22.02.25 .28-.02.55-.03.91-.03 .35,0 .64.01.94.03 .07-.03.09-.2.02-.25l-.21-.03c-.36-.05-.38-.15-.38-.87v-1.53c0-.35.03-.45.15-.6 .14-.18.45-.35.83-.35 .63,0 .93.35.93,1.03v1.45m3.1811-2.02c0-.49.01-.7.03-.87-.01-.04-.04-.06-.1-.07-.22.08-.61.17-1.07.18-.07.03-.08.17-.02.22l.12.05c.3.13.3.22.3.85v1.67c0,.81.33,1.25 1.21,1.25 .59,0 1.08-.33 1.38-.52 .06,0 .09.05.09.14v.41c.02.04.07.07.12.07 .34-.19.92-.29 1.31-.37 .08-.04.07-.24.01-.29-.14.03-.27.05-.39.05-.28,0-.31-.3-.31-1.09v-1.68c0-.37.01-.68.03-.87-.01-.04-.04-.06-.09-.07-.22.1-.77.17-1.17.18-.08.04-.08.18-.01.22l.13.05c.3.12.37.14.37.79v1.64c0,.31-.07.46-.2.58-.22.19-.54.3-.81.3-.76,0-.93-.46-.93-1.15v-1.67m5.38718-.94c-.76,0-1.36.41-1.36,1.14 0,.55.41.9.99,1.23 .37.21.77.46.77.92 0,.43-.31.64-.67.64-.57,0-.89-.48-1.06-1.03-.05-.06-.18-.05-.23.01-.02.33.04.82.12,1.01 .25.2.6.3 1.07.3 .74,0 1.44-.38 1.44-1.14 0-.71-.49-1.05-1.02-1.35-.35-.2-.77-.42-.77-.83 0-.36.25-.61.64-.61 .41,0 .71.29.88.73 .05.06.2.04.24-.03 0-.27-.07-.59-.16-.81-.09-.08-.46-.18-.88-.18"/>
  <path d="m196.84172,297.31792c0-.51.01001-.79.43-.84l.16-.02c.07-.06.06-.21-.01-.25-.32999.02-.67.03-1.06.03-.58999,0-1.14-.01-1.43-.03-.07.03-.08.21 0,.25l.44.05c.62.07.65.13.65.97v.4c0,.32-.05.5-.1.57-.11.17-.48.3-1.1.3-2.00999,0-3-1.51-3-3.43 0-1.5.85001-2.88 2.79-2.88 1.02,0 1.77001.34 2.05,1.42 .06.06.24.05.27-.03-.09-.6-.15-1.12-.15-1.45-.12.02-.43-.05-.62-.09-.16999-.04-.7-.15-1.27-.15-1.50999,0-2.5.47-3.17,1.17-.61999.66-.9,1.52-.9,2.37 0,.88.32001,1.67.92,2.27 .77.78 1.86001,1.11 3.05,1.11 .54,0 1.26001-.12 1.79-.26 .19-.05.37-.09.49-.09 .04-.03.04-.09.01-.12-.17999-.07-.24-.31-.24-.71v-.56m2.60094-4.27c0-.44.02-.94.03-1.24-.02-.04-.06-.06-.1-.06-.36.19-.83.34-1.08.42-.05.03-.05.17 0,.2l.1.06c.3.18.31.24.31.83v4.52c0,.72-.01.82-.38.87l-.23.03c-.07.05-.05.22.02.25 .3-.02.6-.03.96-.03 .35,0 .64.01.97.03 .07-.03.09-.2.02-.25l-.24-.03c-.36-.05-.38-.15-.38-.87v-4.73m3.32094,1.77c-1.18,0-2.13.9-2.13,2.16 0,1.25.9,2.06 2.05,2.06 1.25,0 2.11-.9 2.11-2.15 0-1.23-.91-2.07-2.03-2.07m1.17,2.23c0,.77-.27,1.69-1.15,1.69s-1.29-.98-1.29-1.89c0-1.1.49-1.73 1.15-1.73 .95,0 1.29,1.08 1.29,1.93m1.96328.98c0,.52-.01.71-.02.85 .02.04.06.06.1.06 .02,0 .03,0 .04-.01 .05-.07.13-.15.21-.15s.21.06.42.13c.2.06.48.13.85.13 1.34,0 2.3-.93 2.3-2.26 0-1.1-.77-1.96-1.91-1.96-.49,0-.89.18-1.15.33-.06,0-.1-.04-.1-.21v-1.89c0-.44.02-.89.04-1.24-.02-.04-.06-.06-.1-.06-.38.2-.86.33-1.09.42-.05.03-.05.17 0,.2l.1.06c.3.18.31.24.31.83v4.77m.74-2.05c0-.39.02-.5.12-.57 .14-.09.38-.16.68-.16 .99,0 1.52.8 1.52,1.83 0,.86-.37,1.66-1.31,1.66-.32,0-.59-.12-.76-.33s-.25-.52-.25-.87v-1.56m5.1-.22c0-.49.01-.7.03-.87-.01-.04-.04-.06-.1-.07-.22.08-.61.17-1.07.18-.07.03-.08.17-.02.22l.12.05c.3.13.3.22.3.85v1.67c0,.81.33,1.25 1.21,1.25 .59,0 1.08-.33 1.38-.52 .06,0 .09.05.09.14v.41c.02.04.07.07.12.07 .34-.19.92-.29 1.31-.37 .08-.04.07-.24.01-.29-.14.03-.27.05-.39.05-.28,0-.31-.3-.31-1.09v-1.68c0-.37.01-.68.03-.87-.01-.04-.04-.06-.09-.07-.22.1-.77.17-1.17.18-.08.04-.08.18-.01.22l.13.05c.3.12.37.14.37.79v1.64c0,.31-.07.46-.2.58-.22.19-.54.3-.81.3-.76,0-.93-.46-.93-1.15v-1.67m5.38719-.94c-.76,0-1.36.41-1.36,1.14 0,.55.41.9.99,1.23 .37.21.77.46.77.92 0,.43-.31.64-.67.64-.57,0-.89-.48-1.06-1.03-.05-.06-.18-.05-.23.01-.02.33.04.82.12,1.01 .25.2.6.3 1.07.3 .74,0 1.44-.38 1.44-1.14 0-.71-.49-1.05-1.02-1.35-.35-.2-.77-.42-.77-.83 0-.36.25-.61.64-.61 .41,0 .71.29.88.73 .05.06.2.04.24-.03 0-.27-.07-.59-.16-.81-.09-.08-.46-.18-.88-.18m-26.87914,18.01c0,.72-.01.82-.38.87l-.21.03c-.07.05-.05.22.02.25 .28-.02.58-.03.94-.03 .35,0 .64.01 1.12.03 .07-.03.09-.2.02-.25l-.39-.05c-.36-.05-.38-.14-.38-.85v-1.05c0-.21.05-.26.14-.28 .09.02.37.04.55.04 1.42,0 2.44-1 2.44-2.39 0-1.01-.65-1.83-1.66-1.83-.64,0-1.27.41-1.4.47-.07,0-.09-.06-.09-.13 0-.13.02-.28.04-.46-.02-.05-.06-.07-.12-.07-.26.19-.73.43-.99.54-.05.03-.05.14-.01.18l.09.06c.27.18.27.23.27.62v4.3m.74-4.16c0-.33.03-.48.12-.59 .11-.12.42-.28.85-.28 .9,0 1.35.81 1.35,1.61 0,1.04-.48,1.8-1.3,1.8-.21,0-.52-.07-.72-.22-.2-.16-.3-.28-.3-.6v-1.72m4.66812,1.09c-.64.23-.83.46-.83.85 0,.28.12.53.31.7 .17.15.41.23.7.23 .28,0 .5-.13.72-.25 .2-.11.32-.2.39-.2 .06,0 .12.08.16.14 .17.22.41.31.65.31 .49,0 .84-.39.84-.44 0-.07-.03-.13-.07-.13-.03,0-.08.04-.13.07-.06.03-.15.06-.25.06-.39,0-.48-.41-.46-.87l.06-1.74c.03-.75-.32-1.17-1.04-1.17-.73,0-1.86.71-1.86,1.23 0,.09.05.14.14.14 .15,0 .42-.07.57-.19 .08-.06.09-.18.1-.34 .02-.31.36-.45.64-.45 .62,0 .74.5.73.87l-.01.46c0,.15-.02.24-.17.29l-1.19.43m-.06.73c0-.39.29-.54.88-.74 .18-.06.35-.1.41-.1s.1.02.1.13l-.02.59c-.01.21-.01.35-.13.47-.1.1-.41.25-.61.25-.51,0-.63-.43-.63-.6m4.54297-4.94c0-.44.02-.94.03-1.24-.02-.04-.06-.06-.1-.06-.36.19-.83.34-1.08.42-.05.03-.05.17 0,.2l.1.06c.3.18.31.24.31.83v4.52c0,.72-.01.82-.38.87l-.23.03c-.07.05-.05.22.02.25 .3-.02.6-.03.96-.03 .35,0 .64.01.97.03 .07-.03.09-.2.02-.25l-.24-.03c-.36-.05-.38-.15-.38-.87v-4.73m2.46094,0c0-.44.02-.94.03-1.24-.02-.04-.06-.06-.1-.06-.36.19-.83.34-1.08.42-.05.03-.05.17 0,.2l.1.06c.3.18.31.24.31.83v4.52c0,.72-.01.82-.38.87l-.23.03c-.07.05-.05.22.02.25 .3-.02.6-.03.96-.03 .35,0 .64.01.97.03 .07-.03.09-.2.02-.25l-.24-.03c-.36-.05-.38-.15-.38-.87v-4.73m1.82094,4.73c0,.72-.01.82-.38.87l-.21.03c-.07.05-.05.22.02.25 .28-.02.58-.03.94-.03 .35,0 .64.01.94.03 .07-.03.09-.2.02-.25l-.21-.03c-.36-.05-.38-.15-.38-.87v-1.8c0-.41.02-.89.04-1.24-.01-.04-.05-.06-.1-.06-.23.15-.8.41-1.03.49-.05.03-.05.14-.01.18l.09.06c.27.18.27.23.27.62v1.75m.33-5.12c-.3,0-.54.21-.54.54 0,.27.2.5.51.5 .28,0 .53-.16.53-.52 0-.28-.2-.52-.5-.52m5.50812.39c0-.44.02-.94.03-1.24-.02-.04-.06-.06-.1-.06-.36.19-.83.34-1.08.42-.05.03-.05.17 0,.2l.1.06c.3.18.31.24.31.83v1.51c0,.08-.01.14-.06.14-.11-.04-.33-.09-.67-.09-1.36,0-2.42.9-2.42,2.3 0,1.05.74,1.92 1.85,1.92 .48,0 .82-.16 1.26-.46h.04c.02.04.02.16.02.31v.17c0,.05.05.08.11.08 .28-.11.9-.26 1.32-.32 .09-.05.08-.3.01-.32-.15.05-.32.1-.43.1-.28,0-.29-.37-.29-1.16v-4.39m-.74,4.86c0,.16-.01.31-.07.37-.16.16-.5.28-.77.28-.98,0-1.49-.86-1.49-1.77 0-.87.47-1.66 1.38-1.66 .39,0 .69.21.84.42 .07.1.11.19.11.39v1.97m3.18766-2.15c0-.49.01-.7.03-.87-.01-.04-.04-.06-.1-.07-.22.08-.61.17-1.07.18-.07.03-.08.17-.02.22l.12.05c.3.13.3.22.3.85v1.67c0,.81.33,1.25 1.21,1.25 .59,0 1.08-.33 1.38-.52 .06,0 .09.05.09.14v.41c.02.04.07.07.12.07 .34-.19.92-.29 1.31-.37 .08-.04.07-.24.01-.29-.14.03-.27.05-.39.05-.28,0-.31-.3-.31-1.09v-1.68c0-.37.01-.68.03-.87-.01-.04-.04-.06-.09-.07-.22.1-.77.17-1.17.18-.08.04-.08.18-.01.22l.13.05c.3.12.37.14.37.79v1.64c0,.31-.07.46-.2.58-.22.19-.54.3-.81.3-.76,0-.93-.46-.93-1.15v-1.67m5.38719-.94c-.76,0-1.36.41-1.36,1.14 0,.55.41.9.99,1.23 .37.21.77.46.77.92 0,.43-.31.64-.67.64-.57,0-.89-.48-1.06-1.03-.05-.06-.18-.05-.23.01-.02.33.04.82.12,1.01 .25.2.6.3 1.07.3 .73999,0 1.44-.38 1.44-1.14 0-.71-.49001-1.05-1.02-1.35-.35-.2-.77-.42-.77-.83 0-.36.25-.61.64-.61 .41,0 .71.29.88.73 .05.06.2.04.24-.03 0-.27-.07-.59-.16-.81-.09-.08-.46-.18-.88-.18"/>
  <path d="m224.10196,351.41792c-.31-.64-.56-1.26-.52-1.65-.33.03-.6.03-.83.03-.25,0-.49-.01-.79-.03-.08.04-.09.19-.04.25l.16.02c.61.08.69.23.67.86-.02.55-.06,1.4-.11,2.23-.06.99-.11,1.54-.17,2.2-.06.7-.2.76-.62.82l-.22.03c-.06.05-.04.2.02.25 .34-.02.7-.03 1.02-.03 .38,0 .77.01 1.11.03 .07-.03.08-.19.01-.25l-.38-.03c-.39-.03-.45-.19-.45-.93 0-.85.04-1.74.07-2.35 .03-.58.06-1.16.1-1.78h.02c.22.46.43.98.64,1.44l.9,1.93c.23.49.71,1.47.88,2 .02.03.07.04.09.04 .04,0 .08-.01.1-.04 .18-.46.63-1.4 1.08-2.28l.89-1.75c.2-.39.58-1.19.65-1.3h.02l.03,4.17c0,.64 0,.8-.49.85l-.29.03c-.06.06-.05.2.02.25 .41-.02.86-.03 1.21-.03 .36,0 .77.01 1.18.03 .07-.04.08-.19.02-.25l-.32-.03c-.47-.04-.46-.31-.49-.81-.08-1.44-.09-3.29-.11-4.35-.01-.7.07-.89.7-.95l.21-.02c.05-.04.05-.21-.01-.25-.31.02-.64.03-.89.03-.2,0-.41,0-.75-.03-.02.46-.31,1.01-.76,1.92l-.94,1.91c-.25.51-.5,1.03-.77,1.5h-.02c-.24-.44-.46-.9-.69-1.37l-1.14-2.31m7.55109,3.34c-.64.23-.83.46-.83.85 0,.28.12.53.31.7 .17.15.41.23.7.23 .28,0 .5-.13.72-.25 .2-.11.32-.2.39-.2 .06,0 .12.08.16.14 .17.22.41.31.65.31 .49,0 .84-.39.84-.44 0-.07-.03-.13-.07-.13-.03,0-.08.04-.13.07-.06.03-.15.06-.25.06-.39,0-.48-.41-.46-.87l.06-1.74c.03-.75-.32-1.17-1.04-1.17-.73,0-1.86.71-1.86,1.23 0,.09.05.14.14.14 .15,0 .42-.07.57-.19 .08-.06.09-.18.1-.34 .02-.31.36-.45.64-.45 .62,0 .74.5.73.87l-.01.46c0,.15-.02.24-.17.29l-1.19.43m-.06.73c0-.39.29-.54.88-.74 .18-.06.35-.1.41-.1s.1.02.1.13l-.02.59c-.01.21-.01.35-.13.47-.1.1-.41.25-.61.25-.51,0-.63-.43-.63-.6m9.20297-.21c0,.72-.01.81-.38.87l-.18.03c-.07.05-.05.22.02.25 .28-.02.55-.03.91-.03 .35,0 .64.01.97.03 .07-.03.09-.2.02-.25l-.24-.03c-.36-.05-.38-.15-.38-.87v-1.72c0-.69-.39-1.24-1.19-1.24-.47,0-.96.23-1.36.51-.09.06-.16.1-.25.08-.28-.41-.56-.59-1.06-.59-.48,0-.95.24-1.33.51-.07,0-.11-.05-.11-.11 0-.09 0-.24.02-.47-.02-.05-.07-.07-.11-.07-.2.15-.77.41-1,.49-.05.03-.05.14-.01.18l.09.06c.27.18.27.23.27.62v1.75c0,.72-.01.82-.38.87l-.24.03c-.07.05-.05.22.02.25 .31-.02.61-.03.97-.03 .35,0 .64.01.91.03 .07-.03.09-.2.02-.25l-.18-.03c-.36-.06-.38-.15-.38-.87v-1.55c0-.32.05-.45.15-.57 .15-.18.43-.36.84-.36 .62,0 .92.36.92,1.03v1.45c0,.72-.01.81-.38.87l-.18.03c-.07.05-.05.22.02.25 .28-.02.55-.03.91-.03 .35,0 .64.01.94.03 .07-.03.09-.2.02-.25l-.21-.03c-.36-.05-.38-.15-.38-.87v-1.53c0-.35.03-.45.15-.6 .14-.18.45-.35.83-.35 .63,0 .93.35.93,1.03v1.45m7.8711,0c0,.72-.01.81-.38.87l-.18.03c-.07.05-.05.22.02.25 .28-.02.55-.03.91-.03 .35,0 .64.01.97.03 .07-.03.09-.2.02-.25l-.24-.03c-.36-.05-.38-.15-.38-.87v-1.72c0-.69-.39001-1.24-1.19-1.24-.47,0-.96.23-1.36.51-.09.06-.16.1-.25.08-.28-.41-.56001-.59-1.06-.59-.48,0-.95.24-1.33.51-.07,0-.11-.05-.11-.11 0-.09 0-.24.02-.47-.02-.05-.07-.07-.11-.07-.2.15-.77.41-1,.49-.05.03-.05.14-.01.18l.09.06c.27.18.27.23.27.62v1.75c0,.72-.01.82-.38.87l-.24.03c-.07.05-.05.22.02.25 .31-.02.61-.03.97-.03 .35,0 .64.01.91.03 .07-.03.09-.2.02-.25l-.18-.03c-.36-.06-.38-.15-.38-.87v-1.55c0-.32.05-.45.15-.57 .15-.18.43-.36.84-.36 .61999,0 .92.36.92,1.03v1.45c0,.72-.01.81-.38.87l-.18.03c-.07.05-.05.22.02.25 .28-.02.55-.03.91-.03 .35,0 .64.01.94.03 .07-.03.09-.2.02-.25l-.21-.03c-.36-.05-.38-.15-.38-.87v-1.53c0-.35.03-.45.15-.6 .14-.18.45-.35.83-.35 .62999,0 .93.35.93,1.03v1.45m2.57109,0c0,.72-.01.82-.38.87l-.21.03c-.07.05-.05.22.02.25 .28-.02.58-.03.94-.03 .35,0 .64.01.94.03 .07-.03.09-.2.02-.25l-.21-.03c-.36-.05-.38-.15-.38-.87v-1.8c0-.41.02-.89.04-1.24-.01-.04-.05-.06-.1-.06-.23.15-.8.41-1.03.49-.05.03-.05.14-.01.18l.09.06c.27.18.27.23.27.62v1.75m.33-5.12c-.3,0-.54.21-.54.54 0,.27.2.5.51.5 .28,0 .53-.16.53-.52 0-.28-.2-.52-.5-.52m2.88812.39c0-.44.02-.94.03-1.24-.02-.04-.06-.06-.1-.06-.36.19-.83.34-1.08.42-.05.03-.05.17 0,.2l.1.06c.3.18.31.24.31.83v4.52c0,.72-.01.82-.38.87l-.23.03c-.07.05-.05.22.02.25 .3-.02.6-.03.96-.03 .35,0 .64.01.97.03 .07-.03.09-.2.02-.25l-.24-.03c-.36-.05-.38-.15-.38-.87v-4.73m2.46094,0c0-.44.02-.94.03-1.24-.02-.04-.06-.06-.1-.06-.36.19-.83.34-1.08.42-.05.03-.05.17 0,.2l.1.06c.3.18.31.24.31.83v4.52c0,.72-.01.82-.38.87l-.23.03c-.07.05-.05.22.02.25 .3-.02.6-.03.96-.03 .35,0 .64.01.97.03 .07-.03.09-.2.02-.25l-.24-.03c-.36-.05-.38-.15-.38-.87v-4.73m2.02094,4.21c-.64.23-.83.46-.83.85 0,.28.12.53.31.7 .17.15.41.23.7.23 .28,0 .5-.13.72-.25 .2-.11.32-.2.39-.2 .06,0 .12.08.16.14 .17.22.41.31.65.31 .49,0 .84-.39.84-.44 0-.07-.03-.13-.07-.13-.03,0-.08.04-.13.07-.06.03-.15.06-.25.06-.39,0-.48-.41-.46-.87l.06-1.74c.03-.75-.32-1.17-1.04-1.17-.73,0-1.86.71-1.86,1.23 0,.09.05.14.14.14 .15,0 .42-.07.57-.19 .08-.06.09-.18.1-.34 .02-.31.36-.45.64-.45 .62,0 .74.5.73.87l-.01.46c0,.15-.02.24-.17.29l-1.19.43m-.06.73c0-.39.29-.54.88-.74 .18-.06.35-.1.41-.1s.1.02.1.13l-.02.59c-.01.21-.01.35-.13.47-.1.1-.41.25-.61.25-.51,0-.63-.43-.63-.6m3.90297-.21c0,.72-.01.81-.38.87l-.19.03c-.07.05-.05.22.02.25 .26-.02.56-.03.92-.03 .35,0 .64.01 1.11.03 .07-.03.09-.2.02-.25l-.36-.03c-.38-.03-.4-.15-.4-.87v-1.36c0-.34.03-.63.13-.77 .08-.11.2-.2.36-.2 .14,0 .29.06.44.16 .07.04.12.07.22.07 .16,0 .43-.13.43-.46 0-.24-.2-.4-.45-.4-.37,0-.75.31-1.1.6-.02-.01-.03-.04-.03-.09v-.58c0-.04-.03-.06-.08-.07-.25.15-.78.41-1.01.49-.05.03-.05.14-.01.18l.09.06c.27.18.27.23.27.62v1.75m3.02031,3.61c.23,0 .47-.09.64-.47 .49-1.09 1.31-2.83 1.64-3.5l.56-1.15c.34-.71.52-1 .85-1.06l.17-.03c.07-.06.06-.21-.02-.25-.28.02-.51.03-.76.03-.26,0-.56-.01-.88-.03-.08.03-.09.2-.02.25l.31.05c.18.03.24.1.24.17 0,.11-.13.48-.35,1l-.34.79c-.18.41-.34.72-.37.74-.04-.02-.23-.55-.29-.71l-.32-.92c-.06-.17-.29-.82-.29-.94 0-.07.08-.1.22-.13l.25-.05c.07-.05.06-.22-.02-.25-.32.02-.6.03-.87.03-.33,0-.63-.01-.95-.03-.08.03-.09.2-.03.25l.25.05c.35.07.42.31.59.78l.78,2.14c.13.37.17.49.17.69 0,.14-.07.35-.1.43-.09.24-.29.66-.58,1.11-.07.11-.17.18-.33.18h-.19c-.22,0-.4.13-.4.4 0,.25.15.43.44.43m-29.29523,9.14c0,.52-.01.71-.02.85 .02.04.06.06.1.06 .02,0 .03,0 .04-.01 .05-.07.13-.15.21-.15s.21.06.42.13c.2.06.48.13.85.13 1.33999,0 2.3-.93 2.3-2.26 0-1.1-.77001-1.96-1.91-1.96-.49,0-.89.18-1.15.33-.06,0-.1-.04-.1-.21v-1.89c0-.44.02-.89.04-1.24-.02-.04-.06-.06-.1-.06-.38.2-.86.33-1.09.42-.05.03-.05.17 0,.2l.1.06c.3.18.31.24.31.83v4.77m.74-2.05c0-.39.02-.5.12-.57 .14-.09.38-.16.68-.16 .99,0 1.52.8 1.52,1.83 0,.86-.37,1.66-1.31,1.66-.32,0-.59-.12-.76-.33s-.25-.52-.25-.87v-1.56m5.99-1.16c-1.18,0-2.13.9-2.13,2.16 0,1.25.9,2.06 2.05,2.06 1.24999,0 2.11-.9 2.11-2.15 0-1.23-.91001-2.07-2.03-2.07m1.17,2.23c0,.77-.27,1.69-1.15,1.69s-1.29-.98-1.29-1.89c0-1.1.49-1.73 1.15-1.73 .95,0 1.29,1.08 1.29,1.93m5.45328-4c0-.44.02-.94.03-1.24-.02-.04-.06-.06-.1-.06-.36.19-.83.34-1.08.42-.05.03-.05.17 0,.2l.1.06c.3.18.31.24.31.83v1.51c0,.08-.01.14-.06.14-.11-.04-.33-.09-.67-.09-1.36,0-2.42.9-2.42,2.3 0,1.05.74,1.92 1.85,1.92 .48,0 .82-.16 1.26-.46h.04c.02.04.02.16.02.31v.17c0,.05.05.08.11.08 .28-.11.9-.26 1.32-.32 .09-.05.08-.3.01-.32-.15.05-.32.1-.43.1-.28,0-.29-.37-.29-1.16v-4.39m-.74,4.86c0,.16-.01.31-.07.37-.16.16-.5.28-.77.28-.98,0-1.49-.86-1.49-1.77 0-.87.47-1.66 1.38-1.66 .39,0 .69.21.84.42 .07.1.11.19.11.39v1.97m2.27765,3.48c.23,0 .47-.09.64-.47 .49-1.09 1.31-2.83 1.64-3.5l.56-1.15c.34-.71.52-1 .85-1.06l.17-.03c.07-.06.06-.21-.02-.25-.28.02-.51.03-.76.03-.26,0-.56-.01-.88-.03-.08.03-.09.2-.02.25l.31.05c.18.03.24.1.24.17 0,.11-.13.48-.35,1l-.34.79c-.18.41-.34.72-.37.74-.04-.02-.23-.55-.29-.71l-.32-.92c-.06-.17-.29-.82-.29-.94 0-.07.08-.1.22-.13l.25-.05c.07-.05.06-.22-.02-.25-.32.02-.6.03-.87.03-.33,0-.63-.01-.95-.03-.08.03-.09.2-.03.25l.25.05c.35.07.42.31.59.78l.78,2.14c.13.37.17.49.17.69 0,.14-.07.35-.1.43-.09.24-.29.66-.58,1.11-.07.11-.17.18-.33.18h-.19c-.22,0-.4.13-.4.4 0,.25.15.43.44.43"/>
  <path d="m298.52422,329.43792c0-.32.01001-.36.54-.36 1.04,0 1.61.63 1.61,1.6 0,.87-.39,1.48-1.47,1.68-.06.02-.06.17.01.2 .41,0 .94001-.09 1.38-.3 .43-.21 1-.67 1-1.59 0-.69-.34-1.21-.8-1.5-.46999-.29-1.09-.4-1.92-.4s-1.45.01-1.98.08c-.08.04-.09.19-.02.25l.36.04c.45.05.47.22.47,1.07v3.69c0,1.05-.02,1.17-.6,1.25l-.21.03c-.06.06-.04.22.02.25 .44-.02.80001-.03 1.22-.03 .4,0 .73001.01 1.3.03 .06-.03.08-.2.02-.25l-.27-.03c-.63999-.07-.66-.2-.66-1.25v-4.46m5.86829,1.88c-1.18,0-2.13.9-2.13,2.16 0,1.25.9,2.06 2.05,2.06 1.24999,0 2.11-.9 2.11-2.15 0-1.23-.91001-2.07-2.03-2.07m1.17,2.23c0,.77-.27,1.69-1.15,1.69s-1.29-.98-1.29-1.89c0-1.1.49-1.73 1.15-1.73 .95,0 1.29,1.08 1.29,1.93m2.19328.73c0,.72-.01.82-.38.87l-.21.03c-.07.05-.05.22.02.25 .28-.02.58-.03.94-.03 .35,0 .64.01.91.03 .07-.03.09-.2.02-.25l-.18-.03c-.36-.06-.38-.15-.38-.87v-1.53c0-.29.02-.43.15-.6 .14-.19.47-.35.85-.35 .68,0 .94.42.94.99v1.49c0,.72-.01.81-.38.87l-.19.03c-.07.05-.05.22.02.25 .27-.02.57-.03.93-.03 .35,0 .64.01.94.03 .07-.03.09-.2.02-.25l-.22-.03c-.36-.05-.38-.15-.38-.87v-1.72c0-.67-.34-1.24-1.17-1.24-.51,0-.98.25-1.4.51-.07,0-.11-.05-.11-.11 0-.09 0-.24.02-.47-.02-.05-.07-.07-.11-.07-.2.15-.77.41-1,.49-.05.03-.05.14-.01.18l.09.06c.27.18.27.23.27.62v1.75m6.1339-2.96c-.76,0-1.36.41-1.36,1.14 0,.55.41.9.99,1.23 .37.21.77.46.77.92 0,.43-.31.64-.67.64-.57,0-.89-.48-1.06-1.03-.05-.06-.18-.05-.23.01-.02.33.04.82.12,1.01 .25.2.6.3 1.07.3 .74,0 1.44-.38 1.44-1.14 0-.71-.49-1.05-1.02-1.35-.35-.2-.77-.42-.77-.83 0-.36.25-.61.64-.61 .41,0 .71.29.88.73 .05.06.2.04.24-.03 0-.27-.07-.59-.16-.81-.09-.08-.46-.18-.88-.18"/>
  <path d="m292.67422,355.41792c-.30999-.64-.56-1.26-.52-1.65-.32999.03-.6.03-.83.03-.24999,0-.49-.01-.79-.03-.08.04-.09.19-.04.25l.16.02c.61.08.69.23.67.86-.02.55-.06,1.4-.11,2.23-.06.99-.11,1.54-.17,2.2-.06.7-.2.76-.62.82l-.22.03c-.06.05-.04.2.02.25 .34-.02.70001-.03 1.02-.03 .38,0 .77001.01 1.11.03 .07-.03.08-.19.01-.25l-.38-.03c-.38999-.03-.45-.19-.45-.93 0-.85.04-1.74.07-2.35 .03-.58.06-1.16.1-1.78h.02c.22.46.43001.98.64,1.44l.9,1.93c.23.49.71001,1.47.88,2 .02.03.07.04.09.04 .04,0 .08-.01.1-.04 .18-.46.63001-1.4 1.08-2.28l.89-1.75c.2-.39.58-1.19.65-1.3h.02l.03,4.17c0,.64 0,.8-.49.85l-.29.03c-.06.06-.05.2.02.25 .41-.02.86001-.03 1.21-.03 .36,0 .77001.01 1.18.03 .07-.04.08-.19.02-.25l-.32-.03c-.46999-.04-.46-.31-.49-.81-.08-1.44-.09-3.29-.11-4.35-.01-.7.07001-.89.7-.95l.21-.02c.05-.04.05-.21-.01-.25-.30999.02-.64.03-.89.03-.19999,0-.41,0-.75-.03-.02.46-.31,1.01-.76,1.92l-.94,1.91c-.24999.51-.5,1.03-.77,1.5h-.02c-.23999-.44-.46-.9-.69-1.37l-1.14-2.31m9.5211,2.42c.42,0 .56-.01.59-.07 .02-.04.04-.12.04-.26 0-.6-.56-1.19-1.42-1.19-1.2,0-2.01,1.03-2.01,2.26 0,.44.12.91.42,1.3 .29.38.8.66 1.45.66 .52,0 1.24-.25 1.57-.93-.01-.09-.08-.15-.18-.12-.31.39-.59.49-.92.49-1.07,0-1.66-.86-1.66-1.87 0-.25.01-.27.27-.27h1.85m-1.94-.3c-.07,0-.07-.03-.07-.05 .01-.33.52-.87 1.11-.87 .58,0 .77.35.77.63 0,.13-.03.17-.06.19-.08.06-.3.1-1.04.1h-.71m6.99484-2.99c0-.44.02-.94.03-1.24-.02-.04-.06-.06-.1-.06-.36.19-.83.34-1.08.42-.05.03-.05.17 0,.2l.1.06c.3.18.31.24.31.83v1.51c0,.08-.01.14-.06.14-.11-.04-.33-.09-.67-.09-1.36,0-2.42.9-2.42,2.3 0,1.05.74,1.92 1.85,1.92 .48,0 .82-.16 1.26-.46h.04c.02.04.02.16.02.31v.17c0,.05.05.08.11.08 .28-.11.9-.26 1.32-.32 .09-.05.08-.3.01-.32-.15.05-.32.1-.43.1-.28,0-.29-.37-.29-1.16v-4.39m-.74,4.86c0,.16-.01.31-.07.37-.16.16-.5.28-.77.28-.98,0-1.49-.86-1.49-1.77 0-.87.47-1.66 1.38-1.66 .39,0 .69.21.84.42 .07.1.11.19.11.39v1.97m3.18766-2.15c0-.49.01-.7.03-.87-.01-.04-.04-.06-.1-.07-.22.08-.61.17-1.07.18-.07.03-.08.17-.02.22l.12.05c.3.13.3.22.3.85v1.67c0,.81.33,1.25 1.21,1.25 .59,0 1.08-.33 1.38-.52 .06,0 .09.05.09.14v.41c.02.04.07.07.12.07 .34-.19.92-.29 1.31-.37 .08-.04.07-.24.01-.29-.14.03-.27.05-.39.05-.28,0-.31-.3-.31-1.09v-1.68c0-.37.01-.68.03-.87-.01-.04-.04-.06-.09-.07-.22.1-.77.17-1.17.18-.08.04-.08.18-.01.22l.13.05c.3.12.37.14.37.79v1.64c0,.31-.07.46-.2.58-.22.19-.54.3-.81.3-.76,0-.93-.46-.93-1.15v-1.67m5.14719-2.71c0-.44.02-.94.03-1.24-.02-.04-.06-.06-.1-.06-.36.19-.83.34-1.08.42-.05.03-.05.17 0,.2l.1.06c.3.18.31.24.31.83v4.52c0,.72-.01.82-.38.87l-.23.03c-.07.05-.05.22.02.25 .3-.02.6-.03.96-.03 .35,0 .64.01.97.03 .07-.03.09-.2.02-.25l-.24-.03c-.36-.05-.38-.15-.38-.87v-4.73m2.46093,0c0-.44.02-.94.03-1.24-.02-.04-.06-.06-.1-.06-.36.19-.83.34-1.08.42-.05.03-.05.17 0,.2l.1.06c.3.18.31.24.31.83v4.52c0,.72-.01.82-.38.87l-.23.03c-.07.05-.05.22.02.25 .3-.02.6-.03.96-.03 .35,0 .64.01.97.03 .07-.03.09-.2.02-.25l-.24-.03c-.36-.05-.38-.15-.38-.87v-4.73m2.02094,4.21c-.64.23-.83.46-.83.85 0,.28.12.53.31.7 .17.15.41.23.7.23 .28,0 .5-.13.72-.25 .2-.11.32-.2.39-.2 .06,0 .12.08.16.14 .17.22.41.31.65.31 .49,0 .84-.39.84-.44 0-.07-.03-.13-.07-.13-.03,0-.08.04-.13.07-.06.03-.15.06-.25.06-.39,0-.48-.41-.46-.87l.06-1.74c.03-.75-.32-1.17-1.04-1.17-.73,0-1.86.71-1.86,1.23 0,.09.05.14.14.14 .15,0 .42-.07.57-.19 .08-.06.09-.18.1-.34 .02-.31.36-.45.64-.45 .62,0 .74.5.73.87l-.01.46c0,.15-.02.24-.17.29l-1.19.43m-.06.73c0-.39.29-.54.88-.74 .18-.06.35-.1.41-.1s.1.02.1.13l-.02.59c-.01.21-.01.35-.13.47-.1.1-.41.25-.61.25-.51,0-.63-.43-.63-.6" fill="#fff"/>
  <path d="m322.86422,373.13792c0,1.29.62001,2.2 1.42,2.75 .73.49 1.59001.67 2.49.67 .64,0 1.36001-.15 1.58-.23 .11-.04.23-.08.35-.1 .15-.19.41-.85.48-1.37-.04-.07-.19-.09-.26-.04-.22999.59-.8,1.43-2.09,1.43-1.63999,0-2.97-1.16-2.97-3.26 0-2.07 1.30001-3.04 2.83-3.04 1.45,0 1.90001.78 2.05,1.46 .07.06.22.05.27-.02-.08-.61-.13-1.24-.14-1.47-.09.01-.16-.01-.28-.04-.46999-.13-1.23-.24-1.77-.24-1.03999,0-1.97.28-2.7.85-.75999.59-1.26,1.54-1.26,2.65m9.66313.7c.42,0 .56-.01.59-.07 .02-.04.04-.12.04-.26 0-.6-.56-1.19-1.42-1.19-1.2,0-2.01,1.03-2.01,2.26 0,.44.12.91.42,1.3 .29.38.8.66 1.45.66 .52,0 1.24-.25 1.57-.93-.01-.09-.08-.15-.18-.12-.31.39-.59.49-.92.49-1.07,0-1.66-.86-1.66-1.87 0-.25.01-.27.27-.27h1.85m-1.94-.3c-.07,0-.07-.03-.07-.05 .01-.33.52-.87 1.11-.87 .58,0 .77.35.77.63 0,.13-.03.17-.06.19-.08.06-.3.1-1.04.1h-.71m3.73484,1.74c0,.72-.01.81-.38.87l-.19.03c-.07.05-.05.22.02.25 .26-.02.56-.03.92-.03 .35,0 .64.01 1.11.03 .07-.03.09-.2.02-.25l-.36-.03c-.38-.03-.4-.15-.4-.87v-1.36c0-.34.03-.63.13-.77 .08-.11.2-.2.36-.2 .14,0 .29.06.44.16 .07.04.12.07.22.07 .16,0 .43-.13.43-.46 0-.24-.2-.4-.45-.4-.37,0-.75.31-1.1.6-.02-.01-.03-.04-.03-.09v-.58c0-.04-.03-.06-.08-.07-.25.15-.78.41-1.01.49-.05.03-.05.14-.01.18l.09.06c.27.18.27.23.27.62v1.75m5.49032-1.44c.42,0 .56-.01.59-.07 .02-.04.04-.12.04-.26 0-.6-.56-1.19-1.42-1.19-1.2,0-2.01,1.03-2.01,2.26 0,.44.12.91.42,1.3 .29.38.8.66 1.45.66 .52,0 1.24-.25 1.57-.93-.01-.09-.08-.15-.18-.12-.31.39-.59.49-.92.49-1.07,0-1.66-.86-1.66-1.87 0-.25.01-.27.27-.27h1.85m-1.94-.3c-.07,0-.07-.03-.07-.05 .01-.33.52-.87 1.11-.87 .58,0 .77.35.77.63 0,.13-.03.17-.06.19-.08.06-.3.1-1.04.1h-.71m3.50484,1.99c0,.52-.01.71-.02.85 .02.04.06.06.1.06 .02,0 .03,0 .04-.01 .05-.07.13-.15.21-.15s.21.06.42.13c.2.06.48.13.85.13 1.34,0 2.3-.93 2.3-2.26 0-1.1-.77-1.96-1.91-1.96-.49,0-.89.18-1.15.33-.06,0-.1-.04-.1-.21v-1.89c0-.44.02-.89.04-1.24-.02-.04-.06-.06-.1-.06-.38.2-.86.33-1.09.42-.05.03-.05.17 0,.2l.1.06c.3.18.31.24.31.83v4.77m.74-2.05c0-.39.02-.5.12-.57 .14-.09.38-.16.68-.16 .99,0 1.52.8 1.52,1.83 0,.86-.37,1.66-1.31,1.66-.32,0-.59-.12-.76-.33s-.25-.52-.25-.87v-1.56m6.66.36c.42,0 .56-.01.59-.07 .02-.04.04-.12.04-.26 0-.6-.56-1.19-1.42-1.19-1.2,0-2.01,1.03-2.01,2.26 0,.44.12.91.42,1.3 .29.38.8.66 1.45.66 .52,0 1.24-.25 1.57-.93-.01-.09-.08-.15-.18-.12-.31.39-.59.49-.92.49-1.07,0-1.66-.86-1.66-1.87 0-.25.01-.27.27-.27h1.85m-1.94-.3c-.07,0-.07-.03-.07-.05 .01-.33.52-.87 1.11-.87 .58,0 .77.35.77.63 0,.13-.03.17-.06.19-.08.06-.3.1-1.04.1h-.71m4.37484-2.99c0-.44.02-.94.03-1.24-.02-.04-.06-.06-.1-.06-.36.19-.83.34-1.08.42-.05.03-.05.17 0,.2l.1.06c.3.18.31.24.31.83v4.52c0,.72-.01.82-.38.87l-.23.03c-.07.05-.05.22.02.25 .3-.02.6-.03.96-.03 .35,0 .64.01.97.03 .07-.03.09-.2.02-.25l-.24-.03c-.36-.05-.38-.15-.38-.87v-4.73m2.46094,0c0-.44.02-.94.03-1.24-.02-.04-.06-.06-.1-.06-.36.19-.83.34-1.08.42-.05.03-.05.17 0,.2l.1.06c.3.18.31.24.31.83v4.52c0,.72-.01.82-.38.87l-.23.03c-.07.05-.05.22.02.25 .3-.02.6-.03.96-.03 .35,0 .64.01.97.03 .07-.03.09-.2.02-.25l-.24-.03c-.36-.05-.38-.15-.38-.87v-4.73m2.43094,2.71c0-.49.01-.7.03-.87-.01-.04-.04-.06-.1-.07-.22.08-.61.17-1.07.18-.07.03-.08.17-.02.22l.12.05c.3.13.3.22.3.85v1.67c0,.81.33,1.25 1.21,1.25 .59,0 1.08-.33 1.38-.52 .06,0 .09.05.09.14v.41c.02.04.07.07.12.07 .34-.19.92-.29 1.31-.37 .08-.04.07-.24.01-.29-.14.03-.27.05-.39.05-.28,0-.31-.3-.31-1.09v-1.68c0-.37.01-.68.03-.87-.01-.04-.04-.06-.09-.07-.22.1-.77.17-1.17.18-.08.04-.08.18-.01.22l.13.05c.3.12.37.14.37.79v1.64c0,.31-.07.46-.2.58-.22.19-.54.3-.81.3-.76,0-.93-.46-.93-1.15v-1.67m9.80719,2.02c0,.72-.01.81-.38.87l-.18.03c-.07.05-.05.22.02.25 .28-.02.55-.03.91-.03 .35,0 .64.01.97.03 .07-.03.09-.2.02-.25l-.24-.03c-.36-.05-.38-.15-.38-.87v-1.72c0-.69-.39-1.24-1.19-1.24-.47,0-.96.23-1.36.51-.09.06-.16.1-.25.08-.28-.41-.56-.59-1.06-.59-.48,0-.95.24-1.33.51-.07,0-.11-.05-.11-.11 0-.09 0-.24.02-.47-.02-.05-.07-.07-.11-.07-.2.15-.77.41-1,.49-.05.03-.05.14-.01.18l.09.06c.27.18.27.23.27.62v1.75c0,.72-.01.82-.38.87l-.24.03c-.07.05-.05.22.02.25 .31-.02.61-.03.97-.03 .35,0 .64.01.91.03 .07-.03.09-.2.02-.25l-.18-.03c-.36-.06-.38-.15-.38-.87v-1.55c0-.32.05-.45.15-.57 .15-.18.43-.36.84-.36 .62,0 .92.36.92,1.03v1.45c0,.72-.01.81-.38.87l-.18.03c-.07.05-.05.22.02.25 .28-.02.55-.03.91-.03 .35,0 .64.01.94.03 .07-.03.09-.2.02-.25l-.21-.03c-.36-.05-.38-.15-.38-.87v-1.53c0-.35.03-.45.15-.6 .14-.18.45-.35.83-.35 .63,0 .93.35.93,1.03v1.45"/>
  <path d="m300.20147,414.54592c0-.76-.496-1.224-1-1.536l-.64-.4c-.29599-.184-.68-.52-.68-.984 0-.368.16801-.888.952-.888 .768,0 .984.52 1.088.904 .04.048.168.024.2-.024 0-.336-.072-.784-.144-.976-.064,0-.176-.016-.28-.048-.20799-.056-.496-.104-.744-.104-1.03999,0-1.632.616-1.632,1.376 0,.656.46401,1.112.864,1.376l.76.496c.584.376.656.768.656,1.12 0,.48-.328.92-1,.92-.92799,0-1.256-.784-1.376-1.192-.032-.048-.152-.032-.192.024 .016.376.12.944.216,1.12 .152.088.57601.296 1.248.296 1.04,0 1.704-.6 1.704-1.48m1.09025,2.496c0,.576-.008.656-.304.696l-.168.024c-.056.04-.04.176.016.2 .224-.016.46401-.024.752-.024 .28,0 .51201.008.896.024 .056-.024.072-.16.016-.2l-.312-.04c-.28799-.04-.304-.112-.304-.68v-.84c0-.168.04-.208.112-.224 .072.016.296.032.44.032 1.136,0 1.952-.8 1.952-1.912 0-.808-.52-1.464-1.328-1.464-.51199,0-1.016.328-1.12.376-.056,0-.072-.048-.072-.104 0-.104.016-.224.032-.368-.016-.04-.048-.056-.096-.056-.20799.152-.584.344-.792.432-.04.024-.04.112-.008.144l.072.048c.216.144.216.184.216.496v3.44m.592-3.328c0-.264.024-.384.096-.472 .088-.096.33601-.224.68-.224 .72,0 1.08.648 1.08,1.288 0,.832-.384,1.44-1.04,1.44-.16799,0-.416-.056-.576-.176-.15999-.128-.24-.224-.24-.48v-1.376m3.5745,1.288c0,.576-.008.656-.304.696l-.168.024c-.056.04-.04.176.016.2 .224-.016.46401-.024.752-.024 .28,0 .51201.008.752.024 .056-.024.072-.16.016-.2l-.168-.024c-.28799-.04-.304-.12-.304-.696v-1.44c0-.328.016-.712.032-.992-.008-.032-.04-.048-.08-.048-.18399.12-.64.328-.824.392-.04.024-.04.112-.008.144l.072.048c.216.144.216.184.216.496v1.4m.264-4.096c-.23999,0-.432.168-.432.432 0,.216.16001.4.408.4 .224,0 .424-.128.424-.416 0-.224-.16-.416-.4-.416m1.7985,4.096c0,.576-.008.656-.304.696l-.168.024c-.056.04-.04.176.016.2 .224-.016.46401-.024.752-.024 .28,0 .51201.008.728.024 .056-.024.072-.16.016-.2l-.144-.024c-.28799-.048-.304-.12-.304-.696v-1.224c0-.232.016-.344.12-.48 .112-.152.37601-.28.68-.28 .544,0 .752.336.752.792v1.192c0,.576-.008.648-.304.696l-.152.024c-.056.04-.04.176.016.2 .216-.016.45601-.024.744-.024 .28,0 .51201.008.752.024 .056-.024.072-.16.016-.2l-.176-.024c-.28799-.04-.304-.12-.304-.696v-1.376c0-.536-.272-.992-.936-.992-.40799,0-.784.2-1.12.408-.056,0-.088-.04-.088-.088 0-.072 0-.192.016-.376-.016-.04-.056-.056-.088-.056-.15999.12-.616.328-.8.392-.04.024-.04.112-.008.144l.072.048c.216.144.216.184.216.496v1.4m4.36313-.416c-.512.184-.664.368-.664.68 0,.224.096.424.248.56 .136.12.328.184.56.184 .224,0 .4-.104.576-.2 .16-.088.256-.16.312-.16 .048,0 .096.064.128.112 .136.176.328.248.52.248 .392,0 .672-.312.672-.352 0-.056-.024-.104-.056-.104-.024,0-.064.032-.104.056-.048.024-.12.048-.2.048-.312,0-.384-.328-.368-.696l.048-1.392c.024-.6-.256-.936-.832-.936s-1.488.568-1.488.984c0,.072.04.112.112.112 .12,0 .336-.056.456-.152 .064-.048.072-.144.08-.272 .016-.248.288-.36.512-.36 .496,0 .592.4.584.696l-.008.368c0,.12-.016.192-.136.232l-.952.344m-.048.584c0-.312.232-.432.704-.592 .144-.048.28-.08.328-.08s.08.016.08.104l-.016.472c-.008.168-.008.28-.104.376-.08.08-.328.2-.488.2-.408,0-.504-.344-.504-.48m3.63437-3.952c0-.352.016-.752.024-.992-.016-.032-.048-.048-.08-.048-.28799.152-.664.272-.864.336-.04.024-.04.136 0,.16l.08.048c.24.144.248.192.248.664v3.616c0,.576-.008.656-.304.696l-.184.024c-.056.04-.04.176.016.2 .24-.016.48001-.024.768-.024 .28,0 .51201.008.776.024 .056-.024.072-.16.016-.2l-.192-.024c-.28799-.04-.304-.12-.304-.696v-3.784m-13.73606,11.416c-1.328,0-1.936.92-1.936,1.784 0,.52.184.912.464,1.184s.672.408 1.096.408c.464,0 1.064-.224 1.336-.816-.008-.072-.08-.128-.144-.112-.184.272-.424.48-.888.48-.856,0-1.288-.744-1.288-1.368 0-.848.544-1.288 1.104-1.288 .328,0 .624.208.8.424 .032.04.072.056.112.056 .096,0 .176-.152.176-.296s-.056-.264-.12-.32c-.216-.096-.528-.136-.712-.136m2.96313,0c-.944,0-1.704.72-1.704,1.728 0,1 .72,1.648 1.64,1.648 1,0 1.688-.72 1.688-1.72 0-.984-.728-1.656-1.624-1.656m.936,1.784c0,.616-.216,1.352-.92,1.352s-1.032-.784-1.032-1.512c0-.88.392-1.384.92-1.384 .76,0 1.032.864 1.032,1.544m1.75462.584c0,.576-.008.648-.304.696l-.152.024c-.056.04-.04.176.016.2 .208-.016.448-.024.736-.024 .28,0 .512.008.888.024 .056-.024.072-.16.016-.2l-.288-.024c-.304-.024-.32-.12-.32-.696v-1.088c0-.272.024-.504.104-.616 .064-.088.16-.16.288-.16 .112,0 .232.048.352.128 .056.032.096.056.176.056 .128,0 .344-.104.344-.368 0-.192-.16-.32-.36-.32-.296,0-.6.248-.88.48-.016-.008-.024-.032-.024-.072v-.464c0-.032-.024-.048-.064-.056-.2.12-.624.328-.808.392-.04.024-.04.112-.008.144l.072.048c.216.144.216.184.216.496v1.4m5.26425-3.784c0-.352.016-.752.024-.992-.016-.032-.048-.048-.08-.048-.288.152-.664.272-.864.336-.04.024-.04.136 0,.16l.08.048c.24.144.248.192.248.664v1.208c0,.064-.008.112-.048.112-.088-.032-.264-.072-.536-.072-1.088,0-1.936.72-1.936,1.84 0,.84.592,1.536 1.48,1.536 .384,0 .656-.128 1.008-.368h.032c.016.032.016.128.016.248v.136c0,.04.04.064.088.064 .224-.088.72-.208 1.056-.256 .072-.04.064-.24.008-.256-.12.04-.256.08-.344.08-.224,0-.232-.296-.232-.928v-3.512m-.592,3.888c0,.128-.008.248-.056.296-.128.128-.4.224-.616.224-.784,0-1.192-.688-1.192-1.416 0-.696.376-1.328 1.104-1.328 .312,0 .552.168.672.336 .056.08.088.152.088.312v1.576"/>
  <text x="347.42422" y="231.39793" font-family="Adobe Garamond Pro" font-size="16">
   <tspan x="347.42422" y="231.39793" font-size="10">Caudate nucleas</tspan>
  </text>
  <path d="m396.52422,278.43792c0-.32.01001-.36.54-.36 1.04,0 1.61.63 1.61,1.6 0,.87-.39,1.48-1.47,1.68-.06.02-.06.17.01.2 .41,0 .94001-.09 1.38-.3 .43-.21 1-.67 1-1.59 0-.69-.34-1.21-.8-1.5-.46999-.29-1.09-.4-1.92-.4s-1.45.01-1.98.08c-.08.04-.09.19-.02.25l.36.04c.45.05.47.22.47,1.07v3.69c0,1.05-.02,1.17-.6,1.25l-.21.03c-.06.06-.04.22.02.25 .44-.02.80001-.03 1.22-.03 .4,0 .73001.01 1.3.03 .06-.03.08-.2.02-.25l-.27-.03c-.63999-.07-.66-.2-.66-1.25v-4.46m4.97829,2.82c0-.49.01-.7.03-.87-.01-.04-.04-.06-.1-.07-.22.08-.61.17-1.07.18-.07.03-.08.17-.02.22l.12.05c.3.13.3.22.3.85v1.67c0,.81.33,1.25 1.21,1.25 .59,0 1.08-.33 1.38-.52 .06,0 .09.05.09.14v.41c.02.04.07.07.12.07 .34-.19.92-.29 1.31-.37 .08-.04.07-.24.01-.29-.14.03-.27.05-.39.05-.28,0-.31-.3-.31-1.09v-1.68c0-.37.01-.68.03-.87-.01-.04-.04-.06-.09-.07-.22.1-.77.17-1.17.18-.08.04-.08.18-.01.22l.13.05c.3.12.37.14.37.79v1.64c0,.31-.07.46-.2.58-.22.19-.54.3-.81.3-.76,0-.93-.46-.93-1.15v-1.67m6.45718-.38c.09-.06.11-.33-.01-.42h-1.11c-.17,0-.18-.01-.18-.19v-.45c-.04-.07-.16-.07-.21-.05-.1.2-.29.47-.42.59-.1.09-.35.22-.64.31-.04.06-.03.17.03.21h.28c.2,0 .21.02.21.29v2.29c0,.6.18,1.08 1.04,1.08 .51,0 .87-.25 1.05-.46 .02-.06-.02-.17-.1-.17-.03,0-.16.11-.25.14-.08.03-.17.05-.27.05-.66,0-.73-.53-.73-1.11v-1.87c0-.21.01-.24.18-.24h1.13m1.31641,1.88c-.64.23-.83.46-.83.85 0,.28.12.53.31.7 .17.15.41.23.7.23 .28,0 .5-.13.72-.25 .2-.11.32-.2.39-.2 .06,0 .12.08.16.14 .17.22.41.31.65.31 .49,0 .84-.39.84-.44 0-.07-.03-.13-.07-.13-.03,0-.08.04-.13.07-.06.03-.15.06-.25.06-.39,0-.48-.41-.46-.87l.06-1.74c.03-.75-.32-1.17-1.04-1.17-.73,0-1.86.71-1.86,1.23 0,.09.05.14.14.14 .15,0 .42-.07.57-.19 .08-.06.09-.18.1-.34 .02-.31.36-.45.64-.45 .62,0 .74.5.73.87l-.01.46c0,.15-.02.24-.17.29l-1.19.43m-.06.73c0-.39.29-.54.88-.74 .18-.06.35-.1.41-.1s.1.02.1.13l-.02.59c-.01.21-.01.35-.13.47-.1.1-.41.25-.61.25-.51,0-.63-.43-.63-.6m9.20297-.21c0,.72-.01.81-.38.87l-.18.03c-.07.05-.05.22.02.25 .28-.02.55-.03.91-.03 .35,0 .64.01.97.03 .07-.03.09-.2.02-.25l-.24-.03c-.36-.05-.38-.15-.38-.87v-1.72c0-.69-.39-1.24-1.19-1.24-.47,0-.96.23-1.36.51-.09.06-.16.1-.25.08-.28-.41-.56-.59-1.06-.59-.48,0-.95.24-1.33.51-.07,0-.11-.05-.11-.11 0-.09 0-.24.02-.47-.02-.05-.07-.07-.11-.07-.2.15-.77.41-1,.49-.05.03-.05.14-.01.18l.09.06c.27.18.27.23.27.62v1.75c0,.72-.01.82-.38.87l-.24.03c-.07.05-.05.22.02.25 .31-.02.61-.03.97-.03 .35,0 .64.01.91.03 .07-.03.09-.2.02-.25l-.18-.03c-.36-.06-.38-.15-.38-.87v-1.55c0-.32.05-.45.15-.57 .15-.18.43-.36.84-.36 .62,0 .92.36.92,1.03v1.45c0,.72-.01.81-.38.87l-.18.03c-.07.05-.05.22.02.25 .28-.02.55-.03.91-.03 .35,0 .64.01.94.03 .07-.03.09-.2.02-.25l-.21-.03c-.36-.05-.38-.15-.38-.87v-1.53c0-.35.03-.45.15-.6 .14-.18.45-.35.83-.35 .63,0 .93.35.93,1.03v1.45m4.74109-1.44c.42,0 .56-.01.59-.07 .02-.04.04-.12.04-.26 0-.6-.56-1.19-1.42-1.19-1.2,0-2.01,1.03-2.01,2.26 0,.44.12.91.42,1.3 .29.38.8.66 1.45.66 .52,0 1.24-.25 1.57-.93-.01-.09-.08-.15-.18-.12-.31.39-.59.49-.92.49-1.07,0-1.66-.86-1.66-1.87 0-.25.01-.27.27-.27h1.85m-1.94-.3c-.07,0-.07-.03-.07-.05 .01-.33.52-.87 1.11-.87 .58,0 .77.35.77.63 0,.13-.03.17-.06.19-.08.06-.3.1-1.04.1h-.71m3.73485,1.74c0,.72-.01.82-.38.87l-.21.03c-.07.05-.05.22.02.25 .28-.02.58-.03.94-.03 .35,0 .64.01.91.03 .07-.03.09-.2.02-.25l-.18-.03c-.36-.06-.38-.15-.38-.87v-1.53c0-.29.02-.43.15-.6 .14-.19.47-.35.85-.35 .68,0 .94.42.94.99v1.49c0,.72-.01.81-.38.87l-.19.03c-.07.05-.05.22.02.25 .27-.02.57-.03.93-.03 .35,0 .64.01.94.03 .07-.03.09-.2.02-.25l-.22-.03c-.36-.05-.38-.15-.38-.87v-1.72c0-.67-.34-1.24-1.17-1.24-.51,0-.98.25-1.4.51-.07,0-.11-.05-.11-.11 0-.09 0-.24.02-.47-.02-.05-.07-.07-.11-.07-.2.15-.77.41-1,.49-.05.03-.05.14-.01.18l.09.06c.27.18.27.23.27.62v1.75"/>
  <path d="m380.93422,310.43792c.08.24.13.42.13.53 0,.1-.14.16-.35.18l-.29.03c-.07.05-.06.21.02.25 .29-.01.67001-.03 1.15-.03 .45,0 .80001.01 1.21.03 .05-.04.07-.2 0-.25l-.27-.03c-.42999-.05-.56-.2-.85-1.06l-1.37-4.02c-.14999-.44-.31-.9-.44-1.34-.02-.07-.09-.09-.15-.09-.11.13-.28.31-.52.38 .03.16-.03.35-.17.71l-1.02,2.7c-.41999,1.12-.7,1.77-.88,2.23-.14.36-.36.47-.6.49l-.33.03c-.06.05-.04.21.02.25 .27-.01.63001-.03.96-.03 .47.01.78001.01 1.04.03 .09-.04.09-.2.02-.25l-.33-.03c-.23999-.02-.29-.08-.29-.2 0-.11.07001-.38.22-.83l.35-1.05c.07-.21.13001-.24.38-.24h1.51c.3,0 .34.03.41.25l.44,1.36m-1.79-3.99c.11-.3.21-.54.24-.59h.02c.06.12.15.39.23.63l.54,1.63c.09.27.07.31-.22.31h-1.23c-.27999,0-.29-.01-.21-.24l.63-1.74m9.79047,3.83c0,.72-.01.81-.38.87l-.18.03c-.07.05-.05.22.02.25 .28-.02.55-.03.91-.03 .35,0 .64.01.97.03 .07-.03.09-.2.02-.25l-.24-.03c-.36-.05-.38-.15-.38-.87v-1.72c0-.69-.39-1.24-1.19-1.24-.47,0-.96.23-1.36.51-.09.06-.16.1-.25.08-.28-.41-.56-.59-1.06-.59-.48,0-.95.24-1.33.51-.07,0-.11-.05-.11-.11 0-.09 0-.24.02-.47-.02-.05-.07-.07-.11-.07-.2.15-.77.41-1,.49-.05.03-.05.14-.01.18l.09.06c.27.18.27.23.27.62v1.75c0,.72-.01.82-.38.87l-.24.03c-.07.05-.05.22.02.25 .31-.02.61-.03.97-.03 .35,0 .64.01.91.03 .07-.03.09-.2.02-.25l-.18-.03c-.36-.06-.38-.15-.38-.87v-1.55c0-.32.05-.45.15-.57 .15-.18.43-.36.84-.36 .62,0 .92.36.92,1.03v1.45c0,.72-.01.81-.38.87l-.18.03c-.07.05-.05.22.02.25 .28-.02.55-.03.91-.03 .35,0 .64.01.94.03 .07-.03.09-.2.02-.25l-.21-.03c-.36-.05-.38-.15-.38-.87v-1.53c0-.35.03-.45.15-.6 .14-.18.45-.35.83-.35 .63,0 .93.35.93,1.03v1.45m2.2711,3.61c.23,0 .47-.09.64-.47 .49-1.09 1.31-2.83 1.64-3.5l.56-1.15c.34-.71.52-1 .85-1.06l.17-.03c.07-.06.06-.21-.02-.25-.28.02-.51.03-.76.03-.26,0-.56-.01-.88-.03-.08.03-.09.2-.02.25l.31.05c.18.03.24.1.24.17 0,.11-.13.48-.35,1l-.34.79c-.18.41-.34.72-.37.74-.04-.02-.23-.55-.29-.71l-.32-.92c-.06-.17-.29-.82-.29-.94 0-.07.08-.1.22-.13l.25-.05c.07-.05.06-.22-.02-.25-.32.02-.6.03-.87.03-.33,0-.63-.01-.95-.03-.08.03-.09.2-.03.25l.25.05c.35.07.42.31.59.78l.78,2.14c.13.37.17.49.17.69 0,.14-.07.35-.1.43-.09.24-.29.66-.58,1.11-.07.11-.17.18-.33.18h-.19c-.22,0-.4.13-.4.4 0,.25.15.43.44.43m7.345-6.21c-.22,0-.29-.02-.61-.16-.23-.1-.58-.2-.96-.2-.89,0-1.63.65-1.63,1.51 0,.64.41,1.03.75,1.21 0,.05-.05.13-.1.19-.17.18-.36.35-.53.46-.11.08-.15.12-.15.17 0,.35.34.69.73.79 .09.06.01.15-.08.24-.23.23-.51.49-.68.67-.07.08-.11.21-.11.37 0,.5.43,1.16 1.66,1.16 1.3,0 2.49-.8 2.49-1.89 0-1-.84-1.1-1.4-1.1-.44,0-.85.03-1.19.03-.47,0-.7-.19-.7-.42 0-.29.32-.48.44-.55 .12.01.26.03.44.03 1.27,0 1.68-.9 1.68-1.59 0-.17 0-.34-.02-.51h.72c.15-.02.17-.36.06-.41h-.81m-.94,4.04c.72,0 1.14.26 1.14.87 0,.57-.59,1.07-1.48,1.07-.91,0-1.34-.45-1.34-.99 0-.38.24-.69.48-.84 .14-.09.54-.11.86-.11h.34m-.54-1.82c-.48,0-.91-.46-.91-1.17 0-.68.36-1.12.84-1.12 .61,0 .89.57.89,1.25 0,.61-.28,1.04-.82,1.04m6.52312-4.35c0-.44.02-.94.03-1.24-.02-.04-.06-.06-.1-.06-.36.19-.83.34-1.08.42-.05.03-.05.17 0,.2l.1.06c.3.18.31.24.31.83v1.51c0,.08-.01.14-.06.14-.11-.04-.33-.09-.67-.09-1.36,0-2.42.9-2.42,2.3 0,1.05.74,1.92 1.85,1.92 .48,0 .82-.16 1.26-.46h.04c.02.04.02.16.02.31v.17c0,.05.05.08.11.08 .28-.11.9-.26 1.32-.32 .09-.05.08-.3.01-.32-.15.05-.32.1-.43.1-.28,0-.29-.37-.29-1.16v-4.39m-.74,4.86c0,.16-.01.31-.07.37-.16.16-.5.28-.77.28-.98,0-1.49-.86-1.49-1.77 0-.87.47-1.66 1.38-1.66 .39,0 .69.21.84.42 .07.1.11.19.11.39v1.97m2.77766-.65c-.64.23-.83.46-.83.85 0,.28.12.53.31.7 .17.15.41.23.7.23 .28,0 .5-.13.72-.25 .2-.11.32-.2.39-.2 .06,0 .12.08.16.14 .17.22.41.31.65.31 .49,0 .84-.39.84-.44 0-.07-.03-.13-.07-.13-.03,0-.08.04-.13.07-.06.03-.15.06-.25.06-.39,0-.48-.41-.46-.87l.06-1.74c.03-.75-.32-1.17-1.04-1.17-.73,0-1.86.71-1.86,1.23 0,.09.05.14.14.14 .15,0 .42-.07.57-.19 .08-.06.09-.18.1-.34 .02-.31.36-.45.64-.45 .62,0 .74.5.73.87l-.01.46c0,.15-.02.24-.17.29l-1.19.43m-.06.73c0-.39.29-.54.88-.74 .18-.06.35-.1.41-.1s.1.02.1.13l-.02.59c-.01.21-.01.35-.13.47-.1.1-.41.25-.61.25-.51,0-.63-.43-.63-.6m4.54297-4.94c0-.44.02-.94.03-1.24-.02-.04-.06-.06-.1-.06-.36.19-.83.34-1.08.42-.05.03-.05.17 0,.2l.1.06c.3.18.31.24.31.83v4.52c0,.72-.01.82-.38.87l-.23.03c-.07.05-.05.22.02.25 .3-.02.6-.03.96-.03 .35,0 .64.01.97.03 .07-.03.09-.2.02-.25l-.24-.03c-.36-.05-.38-.15-.38-.87v-4.73m2.02093,4.21c-.63999.23-.83.46-.83.85 0,.28.12001.53.31.7 .17.15.41001.23.7.23 .28,0 .50001-.13.72-.25 .2-.11.32-.2.39-.2 .06,0 .12.08.16.14 .17.22.41001.31.65.31 .49,0 .84-.39.84-.44 0-.07-.03-.13-.07-.13-.03,0-.08.04-.13.07-.06.03-.15.06-.25.06-.38999,0-.48-.41-.46-.87l.06-1.74c.03-.75-.32-1.17-1.04-1.17-.72999,0-1.86.71-1.86,1.23 0,.09.05.14.14.14 .15,0 .42001-.07.57-.19 .08-.06.09-.18.1-.34 .02-.31.36001-.45.64-.45 .62,0 .74.5.73.87l-.01.46c0,.15-.02.24-.17.29l-1.19.43m-.06.73c0-.39.29001-.54.88-.74 .18-.06.35-.1.41-.1s.1.02.1.13l-.02.59c-.01.21-.01.35-.13.47-.1.1-.41.25-.61.25-.50999,0-.63-.43-.63-.6"/>
  <path d="m355.38422,343.66792c.48,0 .5.02.5.32v1.41c0,1.05 0,1.15-.61,1.25l-.19.03c-.06.06-.04.22.02.25 .44-.02.80001-.03 1.21-.03 .39,0 .73001.01 1.21.03 .06-.03.08-.21.02-.25l-.24-.03c-.57999-.07-.6-.2-.6-1.25v-3.6c0-1.05.02001-1.2.6-1.26l.21-.02c.06-.04.04-.22-.02-.25-.44999.02-.79.03-1.18.03-.40999,0-.75-.01-1.21-.03-.06.03-.08.21-.02.25l.19.02c.59.06.61.21.61,1.26v1.15c0,.31-.02.32-.5.32h-2.86c-.47999,0-.5-.01-.5-.32v-1.15c0-1.05.02001-1.2.6-1.26l.19-.02c.06-.04.04-.22-.02-.25-.42999.02-.77.03-1.16.03-.42999,0-.77-.02-1.26-.03-.06.03-.08.21-.02.25l.26.02c.52.04.59.21.59,1.26v3.6c0,1.05-.02,1.15-.58,1.25l-.17.03c-.06.06-.04.22.02.25 .39-.01.73001-.03 1.16-.03 .39,0 .73001.01 1.27.03 .06-.03.08-.21.02-.25l-.29-.03c-.55999-.06-.61-.2-.61-1.25v-1.41c0-.3.02001-.32.5-.32h2.86m3.58641,2.11c0,.72-.01.82-.38.87l-.21.03c-.07.05-.05.22.02.25 .28-.02.58-.03.94-.03 .35,0 .64.01.94.03 .07-.03.09-.2.02-.25l-.21-.03c-.36-.05-.38-.15-.38-.87v-1.8c0-.41.02-.89.04-1.24-.01-.04-.05-.06-.1-.06-.23.15-.8.41-1.03.49-.05.03-.05.14-.01.18l.09.06c.27.18.27.23.27.62v1.75m.33-5.12c-.3,0-.54.21-.54.54 0,.27.2.5.51.5 .28,0 .53-.16.53-.52 0-.28-.2-.52-.5-.52m2.11813,7.67c0,.72-.01.82-.38.87l-.21.03c-.07.05-.05.22.02.25 .28-.02.58-.03.94-.03 .35,0 .64.01 1.12.03 .07-.03.09-.2.02-.25l-.39-.05c-.36-.05-.38-.14-.38-.85v-1.05c0-.21.05-.26.14-.28 .09.02.37.04.55.04 1.41999,0 2.44-1 2.44-2.39 0-1.01-.65-1.83-1.66-1.83-.64,0-1.27.41-1.4.47-.07,0-.09-.06-.09-.13 0-.13.02-.28.04-.46-.02-.05-.06-.07-.12-.07-.26.19-.73.43-.99.54-.05.03-.05.14-.01.18l.09.06c.27.18.27.23.27.62v4.3m.74-4.16c0-.33.03-.48.12-.59 .11-.12.42-.28.85-.28 .9,0 1.35.81 1.35,1.61 0,1.04-.48,1.8-1.3,1.8-.21,0-.52-.07-.72-.22-.2-.16-.3-.28-.3-.6v-1.72m4.33812,4.16c0,.72-.01.82-.38.87l-.21.03c-.07.05-.05.22.02.25 .28-.02.58-.03.94-.03 .35,0 .64.01 1.12.03 .07-.03.09-.2.02-.25l-.39-.05c-.36-.05-.38-.14-.38-.85v-1.05c0-.21.05-.26.14-.28 .09.02.37.04.55.04 1.42,0 2.44-1 2.44-2.39 0-1.01-.65-1.83-1.66-1.83-.64,0-1.27.41-1.4.47-.07,0-.09-.06-.09-.13 0-.13.02-.28.04-.46-.02-.05-.06-.07-.12-.07-.26.19-.73.43-.99.54-.05.03-.05.14-.01.18l.09.06c.27.18.27.23.27.62v4.3m.74-4.16c0-.33.03-.48.12-.59 .11-.12.42-.28.85-.28 .9,0 1.35.81 1.35,1.61 0,1.04-.48,1.8-1.3,1.8-.21,0-.52-.07-.72-.22-.2-.16-.3-.28-.3-.6v-1.72m5.96813-1.35c-1.18,0-2.13.9-2.13,2.16 0,1.25.9,2.06 2.05,2.06 1.24999,0 2.11-.9 2.11-2.15 0-1.23-.91001-2.07-2.03-2.07m1.17,2.23c0,.77-.27,1.69-1.15,1.69s-1.29-.98-1.29-1.89c0-1.1.49-1.73 1.15-1.73 .95,0 1.29,1.08 1.29,1.93m3.99328-2.23c-1.66,0-2.42,1.15-2.42,2.23 0,.65.23,1.14.58,1.48s.84.51 1.37.51c.58,0 1.33-.28 1.67-1.02-.01-.09-.1-.16-.18-.14-.23.34-.53.6-1.11.6-1.07,0-1.61-.93-1.61-1.71 0-1.06.68-1.61 1.38-1.61 .41,0 .78.26 1,.53 .04.05.09.07.14.07 .12,0 .22-.19.22-.37 0-.17-.07-.33-.15-.4-.27-.12-.66-.17-.89-.17m2.4039,2.44c-.64.23-.83.46-.83.85 0,.28.12.53.31.7 .17.15.41.23.7.23 .28,0 .5-.13.72-.25 .2-.11.32-.2.39-.2 .06,0 .12.08.16.14 .17.22.41.31.65.31 .49,0 .84-.39.84-.44 0-.07-.03-.13-.07-.13-.03,0-.08.04-.13.07-.06.03-.15.06-.25.06-.39,0-.48-.41-.46-.87l.06-1.74c.03-.75-.32-1.17-1.04-1.17-.73,0-1.86.71-1.86,1.23 0,.09.05.14.14.14 .15,0 .42-.07.57-.19 .08-.06.09-.18.1-.34 .02-.31.36-.45.64-.45 .62,0 .74.5.73.87l-.01.46c0,.15-.02.24-.17.29l-1.19.43m-.06.73c0-.39.29-.54.88-.74 .18-.06.35-.1.41-.1s.1.02.1.13l-.02.59c-.01.21-.01.35-.13.47-.1.1-.41.25-.61.25-.51,0-.63-.43-.63-.6m9.20297-.21c0,.72-.01.81-.38.87l-.18.03c-.07.05-.05.22.02.25 .28-.02.55-.03.91-.03 .35,0 .64.01.97.03 .07-.03.09-.2.02-.25l-.24-.03c-.36-.05-.38-.15-.38-.87v-1.72c0-.69-.39-1.24-1.19-1.24-.47,0-.96.23-1.36.51-.09.06-.16.1-.25.08-.28-.41-.56-.59-1.06-.59-.48,0-.95.24-1.33.51-.07,0-.11-.05-.11-.11 0-.09 0-.24.02-.47-.02-.05-.07-.07-.11-.07-.2.15-.77.41-1,.49-.05.03-.05.14-.01.18l.09.06c.27.18.27.23.27.62v1.75c0,.72-.01.82-.38.87l-.24.03c-.07.05-.05.22.02.25 .31-.02.61-.03.97-.03 .35,0 .64.01.91.03 .07-.03.09-.2.02-.25l-.18-.03c-.36-.06-.38-.15-.38-.87v-1.55c0-.32.05-.45.15-.57 .15-.18.43-.36.84-.36 .62,0 .92.36.92,1.03v1.45c0,.72-.01.81-.38.87l-.18.03c-.07.05-.05.22.02.25 .28-.02.55-.03.91-.03 .35,0 .64.01.94.03 .07-.03.09-.2.02-.25l-.21-.03c-.36-.05-.38-.15-.38-.87v-1.53c0-.35.03-.45.15-.6 .14-.18.45-.35.83-.35 .63,0 .93.35.93,1.03v1.45m2.4411,2.55c0,.72-.01.82-.38.87l-.21.03c-.07.05-.05.22.02.25 .28-.02.58-.03.94-.03 .35,0 .64.01 1.12.03 .07-.03.09-.2.02-.25l-.39-.05c-.36-.05-.38-.14-.38-.85v-1.05c0-.21.05-.26.14-.28 .09.02.37.04.55.04 1.41999,0 2.44-1 2.44-2.39 0-1.01-.65-1.83-1.66-1.83-.64,0-1.27.41-1.4.47-.07,0-.09-.06-.09-.13 0-.13.02-.28.04-.46-.02-.05-.06-.07-.12-.07-.26.19-.73.43-.99.54-.05.03-.05.14-.01.18l.09.06c.27.18.27.23.27.62v4.3m.74-4.16c0-.33.03-.48.12-.59 .11-.12.42-.28.85-.28 .9,0 1.35.81 1.35,1.61 0,1.04-.48,1.8-1.3,1.8-.21,0-.52-.07-.72-.22-.2-.16-.3-.28-.3-.6v-1.72m5.07812-.41c0-.49.01-.7.03-.87-.01-.04-.04-.06-.1-.07-.22.08-.61.17-1.07.18-.07.03-.08.17-.02.22l.12.05c.3.13.3.22.3.85v1.67c0,.81.33,1.25 1.21,1.25 .59,0 1.08-.33 1.38-.52 .06,0 .09.05.09.14v.41c.02.04.07.07.12.07 .34-.19.92-.29 1.31-.37 .08-.04.07-.24.01-.29-.14.03-.27.05-.39.05-.28,0-.31-.3-.31-1.09v-1.68c0-.37.01-.68.03-.87-.01-.04-.04-.06-.09-.07-.22.1-.77.17-1.17.18-.08.04-.08.18-.01.22l.13.05c.3.12.37.14.37.79v1.64c0,.31-.07.46-.2.58-.22.19-.54.3-.81.3-.76,0-.93-.46-.93-1.15v-1.67m5.38719-.94c-.76,0-1.36.41-1.36,1.14 0,.55.41.9.99,1.23 .37.21.77.46.77.92 0,.43-.31.64-.67.64-.57,0-.89-.48-1.06-1.03-.05-.06-.18-.05-.23.01-.02.33.04.82.12,1.01 .25.2.6.3 1.07.3 .74,0 1.44-.38 1.44-1.14 0-.71-.49-1.05-1.02-1.35-.35-.2-.77-.42-.77-.83 0-.36.25-.61.64-.61 .41,0 .71.29.88.73 .05.06.2.04.24-.03 0-.27-.07-.59-.16-.81-.09-.08-.46-.18-.88-.18"/>
  <path transform="translate(174.92 154.47)" d="m199.5 127.93h18.5" fill="none" stroke="#000"/>
  <path transform="translate(174.92 154.47)" d="m176.5 92.43 19.5-14.5" fill="none" stroke="#000"/>
  <path transform="translate(174.92 154.47)" d="m125.5 85.93-4.5-11.5" fill="none" stroke="#000"/>
  <path transform="translate(174.92 154.47)" d="m193 178.43 6.5 8.5" fill="none" stroke="#000"/>
  <path transform="translate(174.92 154.47)" d="m190.5 163.43 16-5.5" fill="none" stroke="#000"/>
  <path transform="translate(174.92 154.47)" d="m102.5 112.43-48-23" fill="none" stroke="#000"/>
  <path transform="translate(174.92 154.47)" d="m81.5 124.43-36.5 17.5" fill="none" stroke="#000"/>
  <path transform="translate(174.92 154.47)" d="m120.5 142.93-38.5 50" fill="none" stroke="#000"/>
 </g>
</svg>
