<?xml version="1.0" encoding="utf-8"?>
<!-- Generator: Adobe Illustrator 14.0.0, SVG Export Plug-In . SVG Version: 6.00 Build 43363)  -->
<!DOCTYPE svg PUBLIC "-//W3C//DTD SVG 1.1//EN" "http://www.w3.org/Graphics/SVG/1.1/DTD/svg11.dtd">
<svg version="1.1" id="Layer_1" xmlns="http://www.w3.org/2000/svg" xmlns:xlink="http://www.w3.org/1999/xlink" x="0px" y="0px"
	 width="745.433px" height="648.249px" viewBox="-75.75 -12.528 745.433 648.249"
	 enable-background="new -75.75 -12.528 745.433 648.249" xml:space="preserve">
<rect x="10.881" y="226.617" fill="#EFE6DE" width="285.701" height="362.704"/>
<path fill="#EDA6A6" stroke="#F26B6B" stroke-width="2" stroke-linecap="round" stroke-linejoin="round" d="M10.881,249.872
	c12.571-0.055,25.314,3.15,36.841,9.317c10.396,5.562,10.156,11.652,9.421,21.584c-0.851,11.441-1.995,22.89-3.481,34.268
	c-5.546,42.438-11.598,85.08-11.555,127.967c0.011,11.36,1.102,22.634,3.354,33.772c1.835,9.078,2.829,21.873,12.3,26.561
	c33.486,16.57,43.504-31.281,49.438-52.163c10.063-35.406,13.699-72.938,23.734-108.306c1.572-5.543,3.393-11.556,6.404-16.527
	c4.514-7.445,10.008-18.453,20.426-14.299c14.203,5.665,20.552,23.019,22.507,36.643c1.994,13.897,6.071,28.561,7.821,42.499
	c2.507,19.942,2.146,42.323,10.781,89.754c1.525,8.369,2.426,15.36,11.825,21.312c13.244,8.388,38.205,8.229,45.28-4.874
	c7.801-14.446,9.397-34.089,9.737-52.02c1-52.927-0.006-104.376-7.701-156.729c-0.967-6.569,2.362-18.414,8.729-24.494
	c10.461-9.989,29.837-9.881,29.837-9.881v-30.141l-285.701-0.641v26.397L10.881,249.872L10.881,249.872z"/>
<path fill="#F26B6B" d="M10.881,236.97c0,0,7.821-0.438,10.744-2.623c1.982,0.844,3.582,3.418,5.729,3.565
	c3.183,0.22,3.897-3.048,6.31-4.062c5.83-2.453,9.82,2.598,15.344,2.188c2.257-0.167,4.797-2.956,7.58-2.2
	c1.781,0.483,2.588,3.198,4.386,4.188c5.372,2.956,10.943-0.961,15.637-3.162c2.747-1.289,4.728-3.542,7.618-4.479
	c10.545-3.409,24.262-1.938,35.405-2.264c16.055-0.469,32.097-0.474,48.16-0.557c13.881-0.071,27.981,2.875,41.755,4.563
	c5.045,0.619,11.753,0.847,16.468,2.41c4.273,1.418,6.82,6.11,11.02,7.365c5.667,1.693,8.96-2.315,12.885-4.765
	c1.595-0.994,4.677-2.719,6.564-2.72c4.19-0.001,4.74,4.347,7.953,5.204c4.811,1.286,5.993-3.843,10.269-4.059
	c1.776-0.09,2.572,0.38,4.077,0.896c1.741,0.601,1.716,2.927,4.057,3.168c2.133,0.22,1.448-2.228,2.796-2.375
	c4.924-0.54,10.947,0.097,10.947,0.097v-11.349c0,0-12.69,1.936-18.775-0.3c-7.079-2.599-14.257-4.595-22.327-3.432
	c-22.25,3.205-45.208-0.434-67.832-0.434c-21.188,0-42.804-0.809-63.921,0.561c-17.415,1.129-35.832,3.274-53.405,1.615
	c-7.009-0.66-12.456-2.44-19.587-1.463c-3.935,0.54-7.28,0.931-11.275,1.008c-9.833,0.188-28.576,2.212-28.576,2.212v11.201h-0.006
	V236.97L10.881,236.97z"/>
<path fill="#E28785" d="M296.582,223.064c0,0-10.426,1.332-15.124,0s-15.254-6.875-21.622-6.167
	c-6.884,0.765-29.36,20.858-21.148,22.014c5.902,0.83,5.318-8.041,12.48-12.061c7.29-4.092,11.851-1.285,18.791,0.899
	c6.941,2.186,26.623,2.815,26.623,1.203C296.582,227.34,296.582,223.064,296.582,223.064z"/>
<path fill="#E28785" d="M10.881,230.442c0,0,9.667,1.654,19.855-1.22s20.116-6.097,25.081-4.528
	c4.964,1.566,17.417,12.279,18.375,11.757c0.958-0.521-8.447-18.637-18.984-19.595c-10.538-0.957-15.676,5.835-26.734,6.443
	c-11.062,0.61-17.593,0.176-17.593,0.176V230.442z"/>
<path fill="#F5F4ED" stroke="#5C5643" stroke-width="2" d="M124.138,93.76c0,0,7.693-2.67,13.977-1.257
	c6.281,1.413,16.803,6.028,16.803,6.028s4.555-2.417,8.794-2.26c4.24,0.156,9.108,2.26,9.108,2.26s4.396-3.553,9.894-3.221
	c5.496,0.333,14.447,3.221,14.447,3.221s9.422-1.352,15.547,0c6.124,1.353,12.248,3.237,12.248,3.237s10.522,0.471,17.589,3.769
	s14.701,9.237,17.087,16.662c1.192,3.712-48.235,17.267-97.078,14.536c-48.845-2.729-97.102-21.743-97.102-21.743
	s12.203-14.009,21.626-17.621c9.422-3.611,10.836-3.769,12.406-3.611C101.054,93.916,117.856,92.503,124.138,93.76z"/>
<path fill="#DDDAC5" stroke="#716A54" stroke-width="2" d="M76.321,249.872c0,0-20.368-34.947-23.37-65.605
	c-2.094-21.387-0.991-46.915,10.265-65.871c2.748-4.63,6.34-8.902,11.009-11.684c6.2-3.692,14.524-3.654,20.223,0.882
	c9.13,7.271,7.334,5.176,18.339,2.916c10.671-2.19,20.767-0.177,31.233,1.433c3.459,0.532,8.137,1.396,10.883,3.766
	c3.071,2.651,5.757,6.41,6.44,10.428c0.19,1.125,0.13,7.97,1.915,7.94c2.132-0.032,1.368-4.048,1.434-5.53
	c0.138-3.149,1.447-6.609,2.983-9.285c2.45-4.266,5.382-6.136,9.899-7.859c6.321-2.414,14.575-0.22,20.915,1.153
	c5.482,1.187,11.294,4.113,17.009,3.091c6.387-1.145,9.732-7.136,16.601-6.786c6.944,0.354,14.461,0.636,20.208,4.811
	c4.953,3.6,8.235,8.826,9.474,14.814c5.142,24.871,7.719,31.77,2.145,59.428c-5.574,27.657-18.278,41.231-21.28,49.164
	C241.771,239.378,82.109,231.647,76.321,249.872z"/>
<path fill="#DCD8CC" stroke="#A58153" d="M242.721,238.071c1.669,10.351,5.265,54.847,7.668,62.605
	c2.878,9.295,3.937,69.303,4.63,83.93c0.694,14.625,6.899,116.128-24.244,118.312c-18.209,1.278-26.753-29.5-30.645-87.407
	c-1.118-16.653-3.625-30.948-6.027-43.2c-14.198-72.39-34.687-70.386-38.223-70.51c-3.669-0.129-17.149-4.112-29.093,34.339
	c-16.344,52.625-17.627,68.85-18.587,77.36c-0.958,8.514-10.047,89.377-36.671,86.228c-26.625-3.146-15.614-87.225-15.614-87.225
	s6.546-91.715,8.819-105.472c2.271-13.756,10.646-54.857,11.424-57.906C78.13,241.392,241.068,227.83,242.721,238.071z"/>
<path fill="#EFD48F" stroke="#A58153" stroke-width="2" d="M158.48,152.609c0,0,35.101-4.051,45.899-5.4
	c10.802-1.351,29.251-0.226,40.052,18.45c10.801,18.676,0,54.901-2.024,67.276c-2.025,12.375,3.289,61.991,5.625,69.752
	c2.797,9.293,3.825,69.301,4.501,83.926c0.675,14.626,5.987,110.856-20.82,114.012c-17.626,2.072-24.225-26.178-28.006-84.086
	c-1.088-16.654-3.928-30.324-6.263-42.576c-13.799-72.388-32.424-74.344-39.837-74.962c-8.145-0.678-22.848,0.105-34.452,38.559
	c-15.885,52.625-17.068,69.114-18.001,77.625c-0.932,8.515-7.425,85.729-33.301,82.576c-25.875-3.147-12.825-83.251-12.825-83.251
	s6.362-91.715,8.571-105.472s10.329-55.185,9.204-58.108c-1.125-2.927-20.7-58.952-10.575-79.429
	c10.125-20.476,28.575-27.226,42.301-29.024C122.255,140.682,137.555,142.489,158.48,152.609z"/>
<path fill="#EDA6A6" d="M296.582,550.27c0,0-28.438,2.677-39.708,0.22c-20.413-4.455-21.127-15.229-21.73-35.046
	c-0.641-20.973,0.165-41.85,2.188-62.747c5.67-58.556-22.326-188.28-25.859-204.437c-3.533-16.152,11.104-53.001,0-61.032
	s-16.152,10.556-56.229,5.509c-8.557-1.078-17.149-3.548-25.283-6.384c-5.966-2.08-13.542-6.994-20-4.228
	c-8.886,3.809-4.479,15.503-1.955,22.25c6.314,16.882,0.328,36.545-4.607,52.983c-8.382,27.913-16.613,56.018-21.595,84.771
	c-5.053,29.172-5.691,58.826-7.386,88.316c-1.646,28.688-6.688,57.194-7.309,85.927c-0.082,3.819-0.357,7.628-0.295,11.449
	c0.065,4.107,0.355,8.219,0.159,12.331c-0.231,4.836-2.33,7.385-7.081,8.364c-4.676,0.972-9.553,1.229-14.275,1.986
	c-5.056,0.812-10.121,1.592-15.223,2.061c-1.537,0.144-3.146,0.423-4.694,0.361c-4.106-0.155-14.394,0.11-14.394,0.11v11.052
	c0,0,15.312-2.681,20.293-2.871c28.37-1.09,57.242,1.508,85.715,1.508c29.73,0,59.409-0.75,89.055-0.754
	c29.768-0.004,90.213-1.119,90.213-1.119V550.27L296.582,550.27z M223.179,540.175c-1.412,2.433-3.387,4.67-6.098,6.647
	c-14.26,10.408-36.765,4.715-53.014,4.604c-14.745-0.103-29.466-1.056-44.207-1.324c-11.628-0.211-25.89,2.367-36.879-2.207
	c-10.59-4.405-9.258-17.221-9.816-27.076c-0.247-4.356-0.002-8.802-0.002-13.157c0-8.425,0.253-16.825,1.012-25.188
	c0.865-9.538,3.574-19.226,4.556-28.73c3.875-37.596,10.782-74.816,19.251-111.629c5.327-23.154,10.631-51.074,25.786-70.165
	c7.658-9.648,21.042-17.121,33.692-17.121c23.309,0,25.238,4.543,43.915,55.524c5.197,14.188,7.661,29.478,9.978,44.346
	c5.125,32.91,7.742,66.136,9.855,99.354c1.068,16.771,2.023,33.547,3.084,50.316C225.032,516.058,229.185,529.836,223.179,540.175z"
	/>
<path fill="none" stroke="#5C5643" d="M104.351,99.971c7.456-0.266,14.86,1.054,22.267,1.545c6.415,0.426,12.688,3.11,17.753,7.061"
	/>
<path fill="none" stroke="#5C5643" d="M171.272,108.576c-0.505-5.592,30.785-5.934,36.035-2.885"/>
<path fill="none" stroke="#EEEAC9" stroke-width="4" d="M0,559.716c19.254,0,36.242-3.769,55.812-3.769
	c22.858,0,45.81-0.233,68.529,0.754c54.433,2.363,109.31-5.586,163.668-0.754c3.939,0.351,7.758,0.74,11.876,0.754"/>
<path fill="none" stroke="#EEEAC9" stroke-width="4" d="M136.38,240.238c-10.708,10.383-27.344,17.681-30.149,33.466
	c-1.397,7.854-1.229,16.335-2.455,24.363c-1.898,12.425-5.11,20.27-9.589,31.796C86.469,349.721,86.855,368,83.618,388.48
	c-2.345,14.838-7.515,28.166-7.515,43.143c0,13.65-2.535,25.042-3.769,37.672c-1.452,14.895-1.118,30.053-3.181,45.064
	c-1.863,13.562-4.03,34.15,9.963,41.588"/>
<path fill="none" stroke="#EEEAC9" stroke-width="4" d="M177.068,227.43c4.253,14.82,14.016,28.405,19.684,42.904
	c3.788,9.693,8.532,19.258,11.813,29.143c7.721,23.251,9.989,48.965,13.015,73.06c4.184,33.303,3.593,66.051,6.726,99.044
	c1.634,17.203,6.024,33.841,6.027,51.253c0.002,10.082-1.251,23.924,4.521,32.361"/>
<path fill="none" stroke="#C02026" stroke-width="2" d="M165.597,198.94c-1.465,5.185-8.397,5.352-12.734,5.84
	c-5.944,0.669-11.315,1.229-14.214,7.108c-3.087,6.262-4.41,13.808-4.488,20.75c-0.105,9.506-1.15,16.049-5.993,23.836
	c-3.373,5.423-8.042,6.685-11.909,11.346c-2.552,3.077-1.946,8.499-3.41,11.576"/>
<path fill="none" stroke="#3368B2" stroke-width="3" d="M73.54,557.675c0.299-4.466,1.146-7.707,0.109-12.063
	c-3.44-14.472-5.814-32.406-3.652-47.254c0.411-2.819,2.039-5.644,2.438-8.511c1.221-8.773,0.612-17.588,1.812-26.383
	c1.44-10.562,1.562-21.245,2.308-31.864c0.364-5.193,1.635-9.26,2.387-14.671c1.382-9.944,0.624-21.612,3.979-30.971
	c1.031-2.877,2.317-5.208,3.028-8.604c1.167-5.578,2.656-11.105,3.805-16.713c1.908-9.312,5.389-16.604,7.786-25.457
	c3.368-12.431,3.747-25.592,7.119-38.077c2.405-8.906,2.938-17.66,5.038-26.412c2.318-9.666,10.825-14.587,14.077-22.969"/>
<path fill="none" stroke="#C02026" stroke-width="2" d="M116.577,194.145c6.037-0.602,8.495,5.421,9.523,10.312
	c1.476,7.015,2.551,16.972,8.442,22.161"/>
<path fill="none" stroke="#C02026" stroke-width="2" d="M133.627,239.435c8.48-1.246,9.928-5.938,15.934-11.045
	c6.263-5.324,13.765-9.949,21.896-9.735"/>
<path fill="none" stroke="#C02026" stroke-width="2" d="M174.654,208.531c5.655,0.083,11.197,11.462,13.067,15.935
	c3.332,7.97,2.845,17.742,3.449,26.158"/>
<path fill="none" stroke="#C02026" stroke-width="4" d="M5.749,558.062c6.433,1.443,10.914,3.072,17.6,2.132
	c7.327-1.031,15.086-2.146,22.932-2.132c7.184,0.017,13.423-1.312,20.43-1.075c18.4,0.608,36.816,2.144,55.185,2.144
	c15.828,0,30.594-1.063,46.369-1.063c12.801,0,25.501,0.53,38.291,0.53c9.608,0,18.359-1.813,27.793-2.131
	c9.925-0.332,19.821-1.021,30.21,0.014c5.234,0.521,10.493,0.49,15.807,0.521c7.239,0.038,14.795-5.054,21.637-1.601"/>
<path fill="none" stroke="#C02026" stroke-width="3" d="M191.172,250.624c-0.456,6.682,5.177,13.807,7.318,19.894
	c2.244,6.375,6.347,11.814,9.877,17.503c1.468,2.363,3.026,4.74,4.051,7.34c0.984,2.5,1.367,5.263,2.171,7.828
	c0.918,2.927,2.006,5.796,3.118,8.652c2.216,5.694,4.555,11.377,5.89,17.359c2.341,10.506,4.93,22.038,1.14,32.539
	c-2.677,7.418-0.658,16.178-0.219,23.842c0.397,6.955,0.666,13.916,1.024,20.873c0.39,7.521,0.876,15.043,1.743,22.526
	c2.505,21.612,1.06,43.886,2.131,65.582c0.544,11.012,0.329,22.141,0.651,33.131c0.197,6.697,3.454,23.551,9.059,27.706"/>
<path fill="none" stroke="#C02026" stroke-width="3" d="M112.847,278.864c-2.714,5.016-6.864,9.149-9.287,14.34
	c-3.183,6.814-3.55,14.591-5.375,21.812c-2.004,7.922-4.907,15.632-6.032,23.759c-2.598,18.757-8.228,36.646-11.733,55.182
	c-1.619,8.559-1.131,17.295-1.593,25.943c-0.456,8.532-2.009,16.971-2.914,25.461c-1.906,17.868-4.433,35.624-6.639,53.453
	c-2.42,19.555,0.215,39.408,2.013,58.184"/>
<path fill="none" stroke="#C02026" stroke-width="2" d="M201.641,198.328c7.496,12.291,6.54,30.828-1.923,42.36
	c-2.312,3.152-7.258,6.45-8.75,9.931"/>
<path fill="none" stroke="#C02026" stroke-width="2" d="M144.014,247.151c1.959-9.312,20.129-5.55,25.243-2.136
	c3.071,2.049,5.6,5.359,9.176,6.574c2.331,0.791,4.239-0.235,6.482-0.709c2.733-0.575,4.187,0.11,6.854,0.538"/>
<path fill="none" stroke="#C02026" stroke-width="2" d="M110.664,239.681c2.698,5.155,7.079,10.931,5.993,17.11
	c-1.001,5.699-8.129,11.389-6.132,17.486c0.521,1.588,2.185,2.562,2.007,4.354"/>
<path fill="none" stroke="#C02026" d="M180.03,201.797c0.732,2.583,3.31,2.962,4.845,4.786c0.971,1.152,1.189,2.479,1.604,3.841
	c0.612,2.019,1.152,3.906,1.289,6.047c0.15,2.39-0.553,4.588-0.534,6.937"/>
<path fill="none" stroke="#C02026" d="M207.243,190.591c-1.243,3.274-4.581,5.154-5.603,8.538"/>
<path fill="none" stroke="#C02026" d="M165.624,206.332c2.241,2.511,7.189-0.312,8.804,2.134"/>
<path fill="none" stroke="#C02026" d="M171.227,218.604c2.92,1.592,2.217,6.236,4.535,8.483c1.247,1.21,4.979,2.287,5.603-0.214"/>
<path fill="none" stroke="#C02026" d="M144.013,246.885c-1.705,3.688-6.867,3.725-10.404,2.475
	c-2.722-0.962-3.896-5.109-7.471-3.541"/>
<path fill="none" stroke="#C02026" d="M139.211,194.326c-5.309-2.308-12.346,2.615-14.14,7.471"/>
<path fill="none" stroke="#C02026" d="M114.132,230.344c2.424,2.718,4.977,6.314,3.764,10.387c-0.584,1.963-3.355,3.283-4.029,5.088
	"/>
<path fill="none" stroke="#C02026" d="M108.529,199.129c1.587-1.396,1.378-5.044,3.987-5.883c1.819-0.585,2.939,1.053,4.551,1.08"/>
<path fill="none" stroke="#C02026" d="M123.47,186.322c-2.66-1.622-8.16-3.493-10.83-0.979c-4.467,4.21,2.82,6.667,4.961,8.979"/>
<path fill="none" stroke="#C02026" d="M196.838,195.127c-5.692-4.215-14.573,3.995-14.14,9.604"/>
<path fill="none" stroke="#C02026" d="M197.105,191.392c3.528,0.495,2.784,4.392,4.002,6.937"/>
<path fill="none" stroke="#C02026" d="M142.946,193.526c3.611-0.256,11.205,0.912,10.411,5.876c-0.438,2.733-2.95,3.357-4.009,5.596
	"/>
<path fill="none" stroke="#C02026" d="M128.272,216.737c-1.945-3.377-7.725-10.569-12.267-7.402
	c-1.455,1.016-3.18,4.431-3.209,6.335"/>
<path fill="none" stroke="#C02026" d="M155.219,224.207c0.262-1.396,1.254-2.565,1.614-4.023c0.51-2.059,0.229-4.321-0.073-6.461
	c-0.271-1.934-2.085-6.168,1.128-6.057"/>
<path fill="none" stroke="#C02026" d="M171.76,196.728c0.542,3.563-3.138,3.865-5.253,2.657c-1.115-0.638-1.876-1.729-3.104-2.254
	c-1.282-0.547-3.653-0.171-4.184-1.737"/>
<path fill="none" stroke="#C02026" d="M174.694,208.466c-0.815-2.844,0.979-5.455,0.493-8.229c-0.336-0.06-0.68-0.062-1.026-0.041"
	/>
<path fill="none" stroke="#C02026" d="M157.62,241.015c-3.455-1.415-4.811-2.163-5.069-5.616c-0.227-3.017-0.556-5.54-2.335-8.115
	c-2.902-4.199-9.989-5.179-15.007-5.21"/>
<path fill="none" stroke="#C02026" d="M206.176,223.406c-5.031-5.448-17.85-8.965-10.138-17.074"/>
<path fill="none" stroke="#C02026" d="M206.977,212.201c1.099-2.07,3.293-3.087,4.073-5.322c0.572-1.638,0.194-3.882,0.194-5.615"/>
<path fill="none" stroke="#C02026" stroke-width="0.5" d="M107.195,187.123c0.627-0.994,1.796-0.877,2.955-1.042
	c0.171,0.422,0.727,1.298,0.78,1.575"/>
<path fill="none" stroke="#C02026" stroke-width="0.5" d="M134.142,194.06c1.575-0.848,2.563-2.159,0.801-3.47"/>
<path fill="none" stroke="#C02026" stroke-width="0.5" d="M125.871,190.591c2.81,1.709,4.931,3.41,2.401,6.138"/>
<path fill="none" stroke="#C02026" stroke-width="0.5" d="M153.084,198.595c0.476-1.493,0.812-3.028,2.401-3.469"/>
<path fill="none" stroke="#C02026" stroke-width="0.5" d="M182.432,194.326c2.251-0.417,3.141,0.684,3.2,2.668"/>
<path fill="none" stroke="#C02026" stroke-width="0.5" d="M199.773,193.259c0.612-2.025,2.181-4.322,3.733-5.336"/>
<path fill="none" stroke="#C02026" stroke-width="0.5" d="M206.71,192.191c2.502,0.309,4.55-1.827,3.469-4.001"/>
<path fill="none" stroke="#C02026" stroke-width="0.5" d="M213.646,198.062c0.131,1.771-0.355,4.467-2.401,5.067"/>
<path fill="none" stroke="#C02026" stroke-width="0.5" d="M194.438,208.199c0.632-2.187,0.957-3.824-0.478-5.402
	c-1.487-1.64-4.444-1.688-2.992-4.734"/>
<path fill="none" stroke="#C02026" stroke-width="0.5" d="M140.812,208.199c2.928-2.659,3.24-5.885,1.327-9.03
	c-0.777-1.276-1.765-1.75-1.595-3.509"/>
<path fill="none" stroke="#C02026" stroke-width="0.5" d="M110.664,195.127c0.269,3.234,2.009,5.432-0.534,8.003"/>
<path fill="none" stroke="#C02026" stroke-width="0.5" d="M113.599,185.255c0.134,2.654,4.333,2.71,6.402,2.668"/>
<path fill="none" stroke="#C02026" stroke-width="0.5" d="M132.808,194.593c0.279-3.835-4.562-3.865-3.734-6.937"/>
<path fill="none" stroke="#C02026" stroke-width="0.5" d="M138.41,211.401c0.134-5.757-7.636-7.277-7.203-12.272"/>
<path fill="none" stroke="#3368B2" stroke-width="4" d="M8.234,556.167c13.648,0,27.409,0.513,41.043,0
	c6.785-0.254,11.47-3.021,18.185-3.014c10.429,0.012,20.365,0.825,30.718,1.909c8.122,0.849,16.473,0.669,24.64,0.99
	c12.409,0.492,24.249,1.806,36.617,2.513c15.569,0.891,31.042-0.775,46.367-1.396c16.928-0.685,33.181,0.604,49.868,2.024
	c17.371,1.479,34.965-5.131,52.464-4.537"/>
<path fill="none" stroke="#3368B2" stroke-width="3" d="M243.333,557.173c-1.86-5.026-5.539-7.646-6.641-13.062
	c-0.914-4.49-3.278-7.91-3.961-12.535c-0.918-6.216,0.473-12.854-0.312-19.125c-1.312-10.48-2.014-20.873-2.146-31.521
	c-0.253-20.216,0.955-40.403,1.674-60.602c0.341-9.568,1.346-19.653,0.139-29.153c-1.099-8.647-5.029-15.726-8.667-23.489
	c-9.361-19.991-11.651-43.314-14.319-64.811c-1.447-11.659-1.691-24.118-4.008-35.576c-1.426-7.058-3.562-14.816-6.367-21.451
	c-1.059-2.503-3.691-9.428-5.797-10.972c-3.073-2.255-7.684-2.375-11.237-1.539c-3.014,0.709-7.84,1.709-10.19,3.842"/>
<path fill="none" stroke="#3368B2" stroke-width="2" d="M123.272,248.229c3.865-5.812-2.532-12.283-3.794-18.036
	c-1.626-7.414,1.534-20.386,9.285-23.585c5.164-2.132,12.72-0.503,17.6,1.56c8.575,3.623,15.848,5.749,25.636,5.399"/>
<path fill="none" stroke="#3368B2" stroke-width="3" d="M193.601,235.671c-0.748-2.807-0.376-5.657-0.972-8.478
	c-0.85-4.028-3.69-7.159-4.468-11.152c-1.153-5.933,2.056-8.808,4.435-13.022"/>
<path fill="none" stroke="#3368B2" stroke-width="2" d="M206.245,275.492c4.683-6.393-0.231-21.646-0.514-28.746
	c-0.297-7.504,1.306-15.334,1.017-22.493"/>
<path fill="none" stroke="#3368B2" stroke-width="2" d="M208.168,300.976c0.087-5.715-6.092-10.555-8.438-15.461
	c-1.704-3.563-1.229-7.965-2.726-11.565c-1.839-4.424-8.428-14.668-13.449-15.673"/>
<path fill="none" stroke="#3368B2" stroke-width="2" d="M123.272,248.731c1.89-3.966,3.153-7.901,8.035-8.062
	c4.879-0.161,10.008,0.02,14.252,2.713c4.598,2.919,8.604,11.033,14.005,8.608c5.589-2.51,1.157-12.153,7.914-11.296"/>
<path fill="none" stroke="#3368B2" stroke-width="2" d="M165.781,200.081c6.28,4.913,20.433,1.527,22.604,11.052"/>
<path fill="none" stroke="#3368B2" stroke-width="2" d="M124.52,192.715c4.315,1.038,15.603,7.363,10.047,13.062"/>
<path fill="none" stroke="#3368B2" d="M109.812,193.042c-0.209,7.213,15.492,6.42,17.062,0.976"/>
<path fill="none" stroke="#3368B2" d="M116.149,187.68c5.315-2.784,7.779,1.771,9.506,5.605"/>
<path fill="none" stroke="#3368B2" d="M164.932,203.16c-2.135,4.767-9.831,6.453-14.624,6.337"/>
<path fill="none" stroke="#3368B2" d="M149.046,245.812c4.335-2.667,8.491-5.763,8.043-11.455"/>
<path fill="none" stroke="#3368B2" d="M182.69,233.99c4.686-7.876,1.105-18.085-5.606-23.887"/>
<path fill="none" stroke="#3368B2" d="M141.939,241.827c4.36-2.211,5.75-7.868,6.167-12.316c0.513-5.471-1.567-7.771-6.911-8.153
	c-5.404-0.39-10.624,0.16-10.955,6.334"/>
<path fill="none" stroke="#3368B2" d="M122.36,213.605c1.074-2.208,2.148-8.229-0.237-10.026c-2.021-1.522-7.226-0.543-9.269,0.521"
	/>
<path fill="none" stroke="#3368B2" d="M207.305,224.862c0.6-8.25-6.366-15.362-12.432-19.986"/>
<path fill="none" stroke="#3368B2" d="M209.815,192.466c-0.026,5.79,0.044,9.564-4.342,11.757c-1.9,0.949-5.875,4.758-2.728,7.415"
	/>
<path fill="none" stroke="#3368B2" d="M196.339,238.865c2.495-3.605,1.998-9.719,1.956-13.985c-0.035-3.47-1.027-4.479-2.402-7.46
	c-0.308-0.664-0.47-0.773-0.527-1.466"/>
<path fill="none" stroke="#3368B2" d="M175.621,234.965c-0.002,1.442-0.723,2.68-0.777,4.14c-0.058,1.5,1.233,3.347,1.033,4.624
	c-0.376,2.393-3.996,4.293-6.104,3.181"/>
<path fill="none" stroke="#3368B2" d="M167.091,240.664c1.281-1.218,2.563-3.213,2.193-8.389"/>
<path fill="none" stroke="#3368B2" d="M188.052,261.289c0.076-2.228-0.621-4.404-1.104-6.554c-0.648-2.902-0.146-6.168-0.845-8.92
	c-0.56-2.206-2.313-3.478-4.632-3.294"/>
<path fill="none" stroke="#3368B2" d="M184.396,258.608c-1.771-0.997-3.805-0.783-5.511-1.674c-1.442-0.755-2.646-2.476-3.998-3.454
	c-2.698-1.955-5.782-4.418-9.184-4.853c-0.301,0.354-0.462,0.765-0.563,1.204"/>
<path fill="none" stroke="#3368B2" d="M198.289,282.981c-6.112-2.288-3.747-12.112-9.749-13.405"/>
<path fill="none" stroke="#3368B2" d="M120.049,255.195c0,0.062,0.339,0.814,0.28,1.188c3.646,0.04,5.848,2.992,9.296,1.501
	c2.348-1.015,4.781-3.716,7.485-3.662"/>
<path fill="none" stroke="#3368B2" d="M130.042,240.084c-0.079-2.208,0.754-4.545-0.231-6.57c-0.944-1.939-3.223-3.113-4.775-4.588
	c-1.729-1.64-3.092-3.442-4.467-5.385c-1.131-1.599-2.984-3.218-3.924-4.828c-1.111-1.903-0.438-3.669-0.494-5.934
	c-0.036-1.438-1.617-3.648-0.731-4.382"/>
<path fill="none" stroke="#3368B2" d="M184.03,222.078c-3.467-4.62-8.758-5.6-13.893-5.454"/>
<path fill="none" stroke="#EEEAC9" stroke-width="3" d="M119.997,200.183c0.408,11.06,5.759,22.033,6.871,33.167
	c0.422,4.23,2.932,13.896-0.656,16.917"/>
<path fill="none" stroke="#EEEAC9" stroke-width="3" d="M202.618,206.397c-0.956,1.438-0.787,2.607-1.162,4.266
	c-1.181,5.219-2.112,10.831-2.904,16.135c-1.304,8.724-0.036,18.462-1.828,26.968c-0.72,3.41-3.549,6.51-2.879,10.028"/>
<path fill="none" stroke="#EEEAC9" stroke-width="3" d="M147.416,211.881c7.927,10.062,19.699,16.938,28.826,26.013
	c1.753,1.742,3.572,4.181,6.271,3.966"/>
<path fill="none" stroke="#EEEAC9" stroke-width="2" d="M125.481,223.945c1.026-9.174,10.748-17.02,12.43-26.322"/>
<path fill="none" stroke="#EEEAC9" stroke-width="2" d="M164.964,203.838c-1.785,4.434,0,12.927,0,18.298
	c0,2.068-0.225,4.336,0.365,6.196"/>
<path fill="none" stroke="#EEEAC9" stroke-width="2" d="M187.995,204.569c4.397,5.435,9.258,10.101,10.968,16.815"/>
<path fill="none" stroke="#EEEAC9" stroke-width="2" d="M152.899,218.462c-4.082-6.221,0.687-13.616,4.753-18.646"/>
<path fill="none" stroke="#EEEAC9" stroke-width="2" d="M122.19,190.677c5.035,3.03,8.048,12.841,9.14,18.279"/>
<path fill="none" stroke="#EEEAC9" stroke-width="2" d="M161.308,226.139c-8.136-0.002-20.873-2.349-28.517,1.462"/>
<path fill="none" stroke="#EEEAC9" stroke-width="2" d="M199.694,222.849c5.065-2.867,16.393-16.322,12.063-22.666"/>
<path fill="none" stroke="#EEEAC9" d="M171.544,197.989c3.864,5.089,11.46,12.517,18.646,9.87"/>
<path fill="none" stroke="#EEEAC9" d="M193.114,195.064c-0.397,5.131,0.307,9.656-0.732,14.623"/>
<path fill="none" stroke="#EEEAC9" d="M145.953,197.623c-1.346,2.707-7.104,5.195-9.87,6.946"/>
<path fill="none" stroke="#EEEAC9" d="M110.127,191.043c0.105,3.019,6.831,15.633,10.603,15.354"/>
<path fill="none" stroke="#EEEAC9" d="M137.18,214.074c2.191,4.381,5.562,9.216,9.505,11.699"/>
<path fill="none" stroke="#EEEAC9" d="M200.425,193.602c-0.001,4.981-0.09,9.861,1.099,14.624"/>
<rect x="42.57" y="-12.528" fill="none" width="118.855" height="23.825"/>
<text transform="matrix(1 0 0 1 55.9678 4.6396)" font-family="'ArialMT'" font-size="24.1126">Фиссура</text>
<line fill="none" stroke="#000000" stroke-dasharray="12,3" x1="148.175" y1="5.427" x2="163.157" y2="127.84"/>
<circle cx="163.157" cy="127.84" r="0.974"/>
<line fill="none" stroke="#000000" stroke-dasharray="12,3" x1="236.685" y1="18.766" x2="203.552" y2="127.84"/>
<circle cx="203.552" cy="127.84" r="0.974"/>
<text transform="matrix(1 0 0 1 236.6846 17.709)" font-family="'ArialMT'" font-size="24.1126">Эмаль</text>
<line fill="none" stroke="#000000" stroke-dasharray="12,3" x1="296.484" y1="67.691" x2="226.218" y2="175.791"/>
<circle cx="226.218" cy="175.791" r="0.974"/>
<text transform="matrix(1 0 0 1 301.9092 63.3662)" font-family="'ArialMT'" font-size="24.1126">Дентин</text>
<line fill="none" stroke="#000000" stroke-dasharray="12,3" x1="329.738" y1="127.64" x2="171.227" y2="226.918"/>
<circle cx="171.226" cy="226.918" r="0.974"/>
<text transform="matrix(1 0 0 1 331.4331 127.6396)" font-family="'ArialMT'" font-size="24.1126">Пульпа</text>
<line fill="none" stroke="#000000" stroke-dasharray="12,3" x1="390.257" y1="179.938" x2="246.55" y2="230.552"/>
<circle cx="246.55" cy="230.552" r="0.975"/>
<rect x="390.257" y="163.71" fill="none" width="247.188" height="54.829"/>
<text transform="matrix(1 0 0 1 390.2578 180.8779)" font-family="'ArialMT'" font-size="24.1126">Зубодесневой желобок</text>
<line fill="none" stroke="#000000" stroke-dasharray="12,3" x1="403.63" y1="231.957" x2="270.984" y2="247.727"/>
<circle cx="271.958" cy="247.727" r="0.974"/>
<rect x="409.212" y="211.552" fill="none" width="171.041" height="54.827"/>
<text transform="matrix(1 0 0 1 409.2129 228.7197)" font-family="'ArialMT'" font-size="24.1126">Десна</text>
<line fill="none" stroke="#000000" stroke-dasharray="12,3" x1="409.212" y1="275.492" x2="255.978" y2="295.158"/>
<circle cx="256.952" cy="295.158" r="0.974"/>
<rect x="409.212" y="261.289" fill="none" width="171.041" height="54.828"/>
<text transform="matrix(1 0 0 1 409.2129 278.458)" font-family="'ArialMT'" font-size="24.1126">Периодонт</text>
<line fill="none" stroke="#000000" stroke-dasharray="12,3" x1="394.748" y1="321.298" x2="215.135" y2="332.157"/>
<circle cx="216.11" cy="332.157" r="0.974"/>
<rect x="403.63" y="305.77" fill="none" width="270.576" height="31.057"/>
<text transform="matrix(1 0 0 1 403.6309 322.9375)" font-family="'ArialMT'" font-size="24.1126">Нервные волокна</text>
<line fill="none" stroke="#000000" stroke-dasharray="12,3" x1="390.257" y1="357.469" x2="226.218" y2="356.495"/>
<circle cx="227.192" cy="356.495" r="0.975"/>
<rect x="399.109" y="345.488" fill="none" width="270.573" height="31.057"/>
<text transform="matrix(1 0 0 1 399.1094 362.6572)" font-family="'ArialMT'" font-size="24.1126">Артериальные сосуды</text>
<line fill="none" stroke="#000000" stroke-dasharray="12,3" x1="390.257" y1="403.012" x2="230.519" y2="388.126"/>
<circle cx="231.493" cy="388.126" r="0.976"/>
<rect x="394.748" y="387.482" fill="none" width="270.576" height="31.058"/>
<text transform="matrix(1 0 0 1 394.748 404.6514)" font-family="'ArialMT'" font-size="24.1126">Венозные сосуды</text>
<line fill="none" stroke="#000000" stroke-dasharray="12,3" x1="381.259" y1="442.946" x2="253.402" y2="428.061"/>
<circle cx="254.377" cy="428.061" r="0.975"/>
<rect x="387.494" y="429.035" fill="none" width="270.576" height="31.058"/>
<text transform="matrix(1 0 0 1 387.4941 446.2031)" font-family="'ArialMT'" font-size="24.1126">Цемент корня</text>
<line fill="none" stroke="#000000" stroke-dasharray="12,3" x1="366.945" y1="477.226" x2="232.467" y2="454.254"/>
<circle cx="233.441" cy="454.254" r="0.974"/>
<rect x="372.085" y="465.74" fill="none" width="270.577" height="31.058"/>
<text transform="matrix(1 0 0 1 372.0859 482.9082)" font-family="'ArialMT'" font-size="24.1126">Корневой канал</text>
<line fill="none" stroke="#000000" stroke-dasharray="12,3" x1="350.369" y1="518.484" x2="225.686" y2="501.706"/>
<circle cx="226.66" cy="501.706" r="0.974"/>
<rect x="361.76" y="502.957" fill="none" width="270.576" height="31.058"/>
<text transform="matrix(1 0 0 1 361.7617 520.125)" font-family="'ArialMT'" font-size="24.1126">Апикальное отверстие</text>
<line fill="none" stroke="#000000" stroke-dasharray="12,3" x1="353.928" y1="553.153" x2="255.352" y2="531.786"/>
<circle cx="256.326" cy="531.786" r="0.974"/>
<rect x="359.445" y="537.625" fill="none" width="270.576" height="31.058"/>
<text transform="matrix(1 0 0 1 359.4453 554.7939)" font-family="'ArialMT'" font-size="24.1126">Кость челюсти</text>
<line fill="none" stroke="#000000" stroke-dasharray="12,3" x1="341.328" y1="581.786" x2="261.352" y2="557.973"/>
<circle cx="262.326" cy="557.973" r="0.974"/>
<rect x="345.421" y="581.788" fill="none" width="298.624" height="79.433"/>
<text transform="matrix(1 0 0 1 345.4214 598.9561)" font-family="'ArialMT'" font-size="24.1126">Магистральный </text>
<text transform="matrix(1 0 0 1 345.4214 627.8916)" font-family="'ArialMT'" font-size="24.1126">сосудисто-нервный пучок</text>
<polyline fill="none" stroke="#000000" stroke-width="2" points="-18.75,79.11 -36.75,79.11 -36.75,230.707 -18.75,230.707 "/>
<polyline fill="none" stroke="#000000" stroke-width="2" points="-19.29,240.319 -36.75,240.319 -36.75,500.732 -19.29,500.732 "/>
<rect x="-75.75" y="241.124" fill="none" width="30" height="258.615"/>
<text transform="matrix(-4.371139e-08 -1 1 -4.371139e-08 -45.75 403.0117)" font-family="'MyriadPro-Regular'" font-size="21">Корень</text>
<text transform="matrix(-4.371139e-08 -1 1 -4.371139e-08 -45.75 190.0542)" font-family="'MyriadPro-Regular'" font-size="21">Коронка</text>
</svg>
