<?xml version="1.0" encoding="utf-8"?>
<!-- Generator: Adobe Illustrator 19.2.1, SVG Export Plug-In . SVG Version: 6.00 Build 0)  -->
<svg version="1.1" id="Слой_1" xmlns="http://www.w3.org/2000/svg" xmlns:xlink="http://www.w3.org/1999/xlink" x="0px" y="0px"
	 viewBox="0 0 454.2 331.5" style="enable-background:new 0 0 454.2 331.5;" xml:space="preserve">
<g>
	<rect x="85.1" y="181.8" transform="matrix(0.866 -0.5001 0.5001 0.866 -77.0865 78.4856)" width="45.6" height="2.4"/>
	<polygon points="325.5,162.2 325.1,164.6 329.2,164.6 328.8,162.2 	"/>
	<polygon points="323.4,174.2 330.9,174.2 330.5,171.8 323.8,171.8 	"/>
	<polygon points="321.7,183.8 332.6,183.8 332.2,181.4 322.1,181.4 	"/>
	<polygon points="320,193.4 334.3,193.4 333.9,191 320.4,191 	"/>
	<polygon points="234.1,191 220.7,191 220.3,193.4 234.5,193.4 	"/>
	<polygon points="230.7,171.8 224.1,171.8 223.6,174.2 231.2,174.2 	"/>
	<polygon points="232.4,181.4 222.4,181.4 221.9,183.8 232.9,183.8 	"/>
	<polygon points="229.1,162.2 225.7,162.2 225.3,164.6 229.5,164.6 	"/>
	<polygon points="173.7,260.6 181.3,260.6 180.9,258.2 174.2,258.2 	"/>
	<polygon points="175.9,248.6 175.5,251 179.6,251 179.2,248.6 	"/>
	<polygon points="170.4,279.8 184.7,279.8 184.3,277.4 170.8,277.4 	"/>
	<polygon points="172.1,270.2 183,270.2 182.5,267.8 172.5,267.8 	"/>
	<path d="M27.9,259.6c-9.1,0-13.7,7.2-13.7,15c0,7.8,4.6,15,13.7,15s13.7-7.2,13.7-15C41.5,266.7,36.9,259.6,27.9,259.6z
		 M27.9,286.3c-7,0-9.9-6-9.9-11.8c0-5.8,2.9-11.8,9.9-11.8s9.9,6,9.9,11.8C37.7,280.3,34.8,286.3,27.9,286.3z"/>
	<polygon points="185,301 170,301 170,288.7 166.2,288.7 166.2,317.3 170,317.3 170,304.2 185,304.2 185,317.3 188.8,317.3 
		188.8,288.7 185,288.7 	"/>
	<polygon points="234.9,214.6 219.9,214.6 219.9,202.3 216.1,202.3 216.1,230.9 219.9,230.9 219.9,217.8 234.9,217.8 234.9,230.9 
		238.7,230.9 238.7,202.3 234.9,202.3 	"/>
	<polygon points="269.8,131.4 284.8,131.4 284.8,144.4 288.6,144.4 288.6,115.9 284.8,115.9 284.8,128.2 269.8,128.2 269.8,115.9 
		266,115.9 266,144.4 269.8,144.4 	"/>
	<polygon points="334.7,214.6 319.7,214.6 319.7,202.3 315.9,202.3 315.9,230.9 319.7,230.9 319.7,217.8 334.7,217.8 334.7,230.9 
		338.5,230.9 338.5,202.3 334.7,202.3 	"/>
	<path d="M416.8,130.1L416.8,130.1l-33.4-46L401.1,50l-14.5-4.7l-5.7,38.1l-52.3,17l6.2-55.9h-15.2l6.2,55.4l-47.8-27.6l0,0
		l-0.6-0.3l-0.6,0.3l0,0l-0.1,0.1l-1.6,0.9l0,0L228.5,100l0,0l-1.6,0.9l-0.1,0.1l0,0l-0.6,0.3v0.7v2V159l-47.3,27.3l6.2-55.4h-15.2
		l6.2,55.4L130,159.6l0,0l-1.7-1l0,0l0,0l-0.6-0.3l-0.6,0.3l0,0l-49.9,28.8l-0.6,0.3v0.7v2v48.9l-32.7,18.9l1.2,2.1l31.5-18.2v1.9v2
		v0.7l0.6,0.3l3.4,2L49,267.2l1.2,2.1l32.7-18.9l44.1,25.5l0,0l0.6,0.3l0.6-0.3l0,0l0,0l1.7-1l0,0l47.5-27.4l47.6,27.5l0,0l1.7,1
		l0,0l0,0l0.6,0.3l0.6-0.3l0,0l49.9-28.8l0,0l0.6-0.3V246v-2v-54.9l48.8-28.2l52.4,17l0,0l1.8,0.6l0.1,0l0,0l0.8,0.3l0.5-0.7l0,0
		l0,0l1.2-1.6l0,0l32.7-45l0,0l0.5-0.7L416.8,130.1z M328.4,102.9l53.1-17.2l32.2,44.3l0,0l0.7,0.9l-0.7,0.9l0,0L381.5,176
		l-53.1-17.3V102.9z M381.9,84.3L381.9,84.3L381.9,84.3L381.9,84.3z M228.6,102.7l48.7-28.1l1.1,0.7l0,0l47.6,27.4V159l-47.1,27.2
		l6-35.3h-15.2l6,35.3L228.6,159V104V102.7z M78.9,190.4v-1.3l1.2-0.7l0,0l46.4-26.8l0,0l1.1-0.7l48.7,28.1v56.2l-48.7,28.1
		l-1.1-0.7l0,0L80.1,246l0,0l-1.2-0.7V244V190.4z M276.1,245.3l-1.2,0.7l0,0l-46.4,26.8l0,0l-1.1,0.7l-48.7-28.1v-56.2l48.7-28.1
		l48.7,28.1V244V245.3z"/>
	<path d="M399.7,44.1c9.1,0,13.7-7.2,13.7-15s-4.6-15-13.7-15c-9.1,0-13.7,7.2-13.7,15S390.7,44.1,399.7,44.1z M399.7,17.4
		c7,0,9.9,6,9.9,11.8s-2.9,11.8-9.9,11.8c-7,0-9.9-6-9.9-11.8S392.8,17.4,399.7,17.4z"/>
	<polygon points="436.3,14.8 436.3,27.1 421.2,27.1 421.2,14.8 417.4,14.8 417.4,43.4 421.2,43.4 421.2,30.3 436.3,30.3 436.3,43.4 
		440.1,43.4 440.1,14.8 	"/>
</g>
</svg>
