<?xml version="1.0" encoding="UTF-8"?><svg xmlns="http://www.w3.org/2000/svg" xmlns:xlink="http://www.w3.org/1999/xlink" width="166pt" height="67pt" viewBox="0 0 166 67"><g transform="translate(2.7002, 39.3496)" style="fill:#161413; fill-rule:nonzero; stroke:none; stroke-width:1.3; stroke-linecap:butt; stroke-linejoin:miter; stroke-dasharray:none;"><path d="M26.9502 0C26.9502 0 26.9502 1.5 26.9502 1.5C26.9502 1.5 0.5996 16.7002 0.5996 16.7002C0.5996 16.7002 0 15.6006 0 15.6006C0 15.6006 26.9502 0 26.9502 0Z"/></g><g transform="translate(48.8125, 48.165)" style="fill:#161413; fill-rule:evenodd; stroke:none; stroke-width:1.3; stroke-linecap:butt; stroke-linejoin:miter; stroke-dasharray:none;"><path d="M7.5 0C3.0342 0 0 3.2911 0 8.1631C0 13.0352 3.0342 16.3262 7.5215 16.3262C9.4023 16.3262 11.0908 15.7491 12.3516 14.6807C14.04 13.2491 15.0439 10.834 15.0439 8.2911C15.0439 3.2696 12.0732 0 7.5 0ZM7.5 1.752C10.877 1.752 13.0566 4.3164 13.0566 8.2491C13.0566 12.0098 10.8125 14.5743 7.5215 14.5743C4.209 14.5743 1.9873 12.0098 1.9873 8.1631C1.9873 4.3164 4.209 1.752 7.5 1.752Z"/></g><g transform="translate(29.6504, 39.3496)" style="fill:#161413; fill-rule:nonzero; stroke:none; stroke-width:1.3; stroke-linecap:butt; stroke-linejoin:miter; stroke-dasharray:none;"><path d="M17.6992 10.25C17.6992 10.25 17.0498 11.3506 17.0498 11.3506C17.0498 11.3506 0 1.5 0 1.5C0 1.5 0 0 0 0C0 0 17.6992 10.25 17.6992 10.25Z"/></g><g transform="translate(65.25, 39.3496)" style="fill:#161413; fill-rule:nonzero; stroke:none; stroke-width:1.3; stroke-linecap:butt; stroke-linejoin:miter; stroke-dasharray:none;"><path d="M17.6504 0C17.6504 0 17.6504 1.5 17.6504 1.5C17.6504 1.5 0.6504 11.3008 0.6504 11.3008C0.6504 11.3008 0 10.2002 0 10.2002C0 10.2002 17.6504 0 17.6504 0Z"/></g><g transform="translate(82.9004, 39.3496)" style="fill:#161413; fill-rule:nonzero; stroke:none; stroke-width:1.3; stroke-linecap:butt; stroke-linejoin:miter; stroke-dasharray:none;"><path d="M26.6496 15.4004C26.6496 15.4004 26.6496 16.9004 26.6496 16.9004C26.6496 16.9004 0 1.5 0 1.5C0 1.5 0 0 0 0C0 0 26.6496 15.4004 26.6496 15.4004Z"/></g><g transform="translate(130.124, 32.9209)" style="fill:#161413; fill-rule:evenodd; stroke:none; stroke-width:1.3; stroke-linecap:butt; stroke-linejoin:miter; stroke-dasharray:none;"><path d="M12.181 0C12.181 0 10.301 0 10.301 0C10.301 0 10.301 12.7373 10.301 12.7373C10.301 12.7373 2.158 0 2.158 0C2.158 0 0 0 0 0C0 0 0 15.5791 0 15.5791C0 15.5791 1.881 15.5791 1.881 15.5791C1.881 15.5791 1.881 2.9492 1.881 2.9492C1.881 2.9492 9.938 15.5791 9.938 15.5791C9.938 15.5791 12.181 15.5791 12.181 15.5791C12.181 15.5791 12.181 0 12.181 0Z"/></g><g transform="translate(144.802, 32.9033)" style="fill:#161413; fill-rule:evenodd; stroke:none; stroke-width:1.3; stroke-linecap:butt; stroke-linejoin:miter; stroke-dasharray:none;"><path d="M7.757 3.3174C7.757 3.3174 4.439 3.3174 4.439 3.3174C4.439 3.3174 4.439 0 4.439 0C4.439 0 3.317 0 3.317 0C3.317 0 3.317 3.3174 3.317 3.3174C3.317 3.3174 0 3.3174 0 3.3174C0 3.3174 0 4.4395 0 4.4395C0 4.4395 3.317 4.4395 3.317 4.4395C3.317 4.4395 3.317 7.7569 3.317 7.7569C3.317 7.7569 4.439 7.7569 4.439 7.7569C4.439 7.7569 4.439 4.4395 4.439 4.4395C4.439 4.4395 7.757 4.4395 7.757 4.4395C7.757 4.4395 7.757 3.3174 7.757 3.3174Z"/></g><g transform="translate(109.55, 45.9502)" style="fill:#161413; fill-rule:nonzero; stroke:none; stroke-width:1.3; stroke-linecap:butt; stroke-linejoin:miter; stroke-dasharray:none;"><path d="M15.25 0C15.25 0 15.9 1.0996 15.9 1.0996C15.9 1.0996 0 10.2998 0 10.2998C0 10.2998 0 8.7998 0 8.7998C0 8.7998 15.25 0 15.25 0Z"/></g><g transform="translate(146.8, 45.9004)" style="fill:#161413; fill-rule:nonzero; stroke:none; stroke-width:1.3; stroke-linecap:butt; stroke-linejoin:miter; stroke-dasharray:none;"><path d="M16.3 9.0498C16.3 9.0498 15.7 10.1494 15.7 10.1494C15.7 10.1494 0 1.0996 0 1.0996C0 1.0996 0.65 0 0.65 0C0.65 0 16.3 9.0498 16.3 9.0498Z"/></g><g transform="translate(22.0625, 1.91504)" style="fill:#161413; fill-rule:evenodd; stroke:none; stroke-width:1.3; stroke-linecap:butt; stroke-linejoin:miter; stroke-dasharray:none;"><path d="M7.5 0C3.0342 0 0 3.29101 0 8.16306C0 13.0352 3.0342 16.3262 7.5215 16.3262C9.4023 16.3262 11.0908 15.7491 12.3516 14.6807C14.04 13.2491 15.0439 10.834 15.0439 8.29106C15.0439 3.26953 12.0732 0 7.5 0ZM7.5 1.75195C10.877 1.75195 13.0566 4.31641 13.0566 8.24906C13.0566 12.0098 10.8125 14.5743 7.5215 14.5743C4.209 14.5743 1.9873 12.0098 1.9873 8.16306C1.9873 4.31641 4.209 1.75195 7.5 1.75195Z"/></g><g transform="translate(26.25, 21.4502)" style="fill:#161413; fill-rule:nonzero; stroke:none; stroke-width:1.3; stroke-linecap:butt; stroke-linejoin:miter; stroke-dasharray:none;"><path d="M0 0C0 0 1.25 0 1.25 0C1.25 0 1.25 20.25 1.25 20.25C1.25 20.25 0 20.25 0 20.25C0 20.25 0 0 0 0Z"/></g><g transform="translate(31.7998, 21.4502)" style="fill:#161413; fill-rule:nonzero; stroke:none; stroke-width:1.3; stroke-linecap:butt; stroke-linejoin:miter; stroke-dasharray:none;"><path d="M0 0C0 0 1.25 0 1.25 0C1.25 0 1.25 20.25 1.25 20.25C1.25 20.25 0 20.25 0 20.25C0 20.25 0 0 0 0Z"/></g><g transform="translate(120.25, 13.1504)" style="fill:#161413; fill-rule:nonzero; stroke:none; stroke-width:1.3; stroke-linecap:butt; stroke-linejoin:miter; stroke-dasharray:none;"><path d="M0 0.6494C0 0.6494 1.1 0 1.1 0C1.1 0 10.25 15.8994 10.25 15.8994C10.25 15.8994 9.15 16.5498 9.15 16.5498C9.15 16.5498 0 0.6494 0 0.6494Z"/></g><g transform="translate(141.8, 13.1504)" style="fill:#161413; fill-rule:nonzero; stroke:none; stroke-width:1.3; stroke-linecap:butt; stroke-linejoin:miter; stroke-dasharray:none;"><path d="M9.2 0C9.2 0 10.3 0.6494 10.3 0.6494C10.3 0.6494 1.1 16.5498 1.1 16.5498C1.1 16.5498 0 15.9492 0 15.9492C0 15.9492 9.2 0 9.2 0Z"/></g></svg>