<?xml version="1.0" encoding="UTF-8" standalone="no"?>
<!-- Created with Inkscape (http://www.inkscape.org/) -->
<svg xmlns:svg="http://www.w3.org/2000/svg" xmlns="http://www.w3.org/2000/svg" version="1.0" width="1220.4" height="838.71997" id="svg2">
  <defs id="defs4"/>
  <g transform="translate(263.14371,-159.16771)" id="layer1">
    <path d="M 225.25999,391.58749 L 290.05947,354.38749 L 394.45863,414.68749 L 498.85779,354.38749 L 603.55695,414.68749 L 707.95611,354.38749 L 812.35527,414.68749 L 812.35527,535.28749 L 916.75447,595.58749 L 916.75447,716.18749 L 812.35527,776.48749 L 812.35527,897.0875 L 707.95611,957.3875 L 603.55695,897.0875 L 498.85779,957.2375 L 394.45863,897.0875 L 394.45863,776.48749 L 290.05947,716.18749 L 185.66031,776.48749 L 81.26115,715.88749 L -23.13801,776.18749" style="fill:none;stroke:#000000;stroke-width:5.99995184px;stroke-linejoin:miter;stroke-opacity:1" id="path3453"/>
    <path d="M 413.65848,882.3875 L 502.15777,933.3875" style="fill:none;stroke:#000000;stroke-width:5.99995184px;stroke-linejoin:miter;stroke-opacity:1" id="path3451"/>
    <path d="M 704.95614,933.3875 L 793.15547,882.3875" style="fill:none;stroke:#000000;stroke-width:5.99995184px;stroke-linejoin:miter;stroke-opacity:1" id="path3449"/>
    <path d="M 894.55457,706.88749 L 894.55457,604.88749" style="fill:none;stroke:#000000;stroke-width:5.99995184px;stroke-linejoin:miter;stroke-opacity:1" id="path3447"/>
    <path d="M 793.15547,429.08749 L 704.95614,378.08749" style="fill:none;stroke:#000000;stroke-width:5.99995184px;stroke-linejoin:miter;stroke-opacity:1" id="path3445"/>
    <path d="M 146.36062,391.88749 L 81.26115,354.38749 L -23.13801,414.38749 L -85.537507,378.68749" style="fill:none;stroke:#000000;stroke-width:5.99995184px;stroke-linejoin:miter;stroke-opacity:1" id="path3443"/>
    <path d="M 301.15938,360.28035 L 301.15938,276.38749" style="fill:none;stroke:#000000;stroke-width:5.99995184px;stroke-linejoin:miter;stroke-opacity:1" id="path3472"/>
    <path d="M 278.95956,360.28035 L 278.95956,276.38749" style="fill:none;stroke:#000000;stroke-width:5.99995184px;stroke-linejoin:miter;stroke-opacity:1" id="path3441"/>
    <text x="-233.56958" y="389.50528" style="font-size:99px;font-style:normal;font-weight:normal;fill:#000000;fill-opacity:1;stroke:none;stroke-width:1px;stroke-linecap:butt;stroke-linejoin:miter;stroke-opacity:1;font-family:Arial" id="text3417" xml:space="preserve"><tspan x="-233.56958" y="389.50528" id="tspan3419">HO</tspan></text>
    <text x="251.3876" y="268.79095" style="font-size:99px;font-style:normal;font-weight:normal;fill:#000000;fill-opacity:1;stroke:none;stroke-width:1px;stroke-linecap:butt;stroke-linejoin:miter;stroke-opacity:1;font-family:Arial" id="text3421" xml:space="preserve"><tspan x="251.3876" y="268.79095" id="tspan3423">O</tspan></text>
    <text x="151.43044" y="447.71951" style="font-size:99px;font-style:normal;font-variant:normal;font-weight:normal;font-stretch:normal;text-align:start;line-height:100%;writing-mode:lr-tb;text-anchor:start;fill:#000000;fill-opacity:1;stroke:none;stroke-width:1px;stroke-linecap:butt;stroke-linejoin:miter;stroke-opacity:1;font-family:Arial" id="text3425" xml:space="preserve"><tspan x="151.43044" y="447.71951" id="tspan3435">N</tspan><tspan x="151.43044" y="546.71948" id="tspan3437">H</tspan></text>
  </g>
</svg>