<?xml version="1.0" encoding="UTF-8" standalone="no"?>
<!-- Generator: Adobe Illustrator 12.0.1, SVG Export Plug-In . SVG Version: 6.00 Build 51448)  -->
<svg xmlns:dc="http://purl.org/dc/elements/1.1/" xmlns:cc="http://web.resource.org/cc/" xmlns:rdf="http://www.w3.org/1999/02/22-rdf-syntax-ns#" xmlns:svg="http://www.w3.org/2000/svg" xmlns="http://www.w3.org/2000/svg" xmlns:sodipodi="http://sodipodi.sourceforge.net/DTD/sodipodi-0.dtd" xmlns:inkscape="http://www.inkscape.org/namespaces/inkscape" version="1.1" id="Layer_1" width="344.123" height="207.334" viewBox="0 0 344.123 207.334" style="overflow:visible;enable-background:new 0 0 344.123 207.334;" xml:space="preserve" sodipodi:version="0.32" inkscape:version="0.45.1" sodipodi:docname="Arachidonsäure2.svg" inkscape:output_extension="org.inkscape.output.svg.inkscape" sodipodi:docbase="C:\"><metadata id="metadata72"><rdf:RDF><cc:Work rdf:about=""><dc:format>image/svg+xml</dc:format><dc:type rdf:resource="http://purl.org/dc/dcmitype/StillImage"/></cc:Work></rdf:RDF></metadata><defs id="defs70"/><sodipodi:namedview inkscape:window-height="579" inkscape:window-width="801" inkscape:pageshadow="2" inkscape:pageopacity="0.0" guidetolerance="10.0" gridtolerance="10.0" objecttolerance="10.0" borderopacity="1.0" bordercolor="#666666" pagecolor="#ffffff" id="base" inkscape:zoom="1.8231453" inkscape:cx="172.06149" inkscape:cy="103.667" inkscape:window-x="176" inkscape:window-y="176" inkscape:current-layer="Layer_1"/>
<g id="g3" transform="matrix(0.95,0,0,0.95,8.60315,5.18335)">
	<path d="M 212.394,11.457 L 214.675,12.031 C 214.199,13.901 213.342,15.327 212.106,16.308 C 210.869,17.289 209.356,17.781 207.569,17.781 C 205.719,17.781 204.215,17.404 203.056,16.649 C 201.897,15.895 201.015,14.801 200.41,13.371 C 199.805,11.94 199.503,10.403 199.503,8.762 C 199.503,6.972 199.844,5.409 200.527,4.076 C 201.21,2.743 202.181,1.729 203.442,1.038 C 204.702,0.347 206.088,-2.8865799e-015 207.602,-2.8865799e-015 C 209.319,-2.8865799e-015 210.762,0.438 211.932,1.314 C 213.103,2.191 213.918,3.422 214.378,5.011 L 212.144,5.538 C 211.746,4.288 211.169,3.378 210.413,2.808 C 209.656,2.238 208.704,1.953 207.558,1.953 C 206.24,1.953 205.138,2.269 204.252,2.902 C 203.367,3.535 202.745,4.384 202.386,5.451 C 202.027,6.518 201.848,7.617 201.848,8.75 C 201.848,10.211 202.06,11.486 202.485,12.576 C 202.91,13.666 203.57,14.48 204.467,15.019 C 205.364,15.558 206.334,15.828 207.379,15.828 C 208.65,15.828 209.725,15.461 210.606,14.726 C 211.487,13.991 212.082,12.902 212.394,11.457 z " id="path5"/>
	<path d="M 216.789,9.119 C 216.789,6.266 217.555,4.034 219.087,2.421 C 220.619,0.807 222.596,0 225.019,0 C 226.606,0 228.036,0.379 229.31,1.137 C 230.584,1.896 231.555,2.952 232.224,4.308 C 232.893,5.664 233.226,7.202 233.226,8.92 C 233.226,10.663 232.874,12.222 232.171,13.597 C 231.468,14.972 230.471,16.014 229.181,16.721 C 227.891,17.428 226.5,17.782 225.007,17.782 C 223.389,17.782 221.943,17.391 220.669,16.61 C 219.395,15.829 218.43,14.761 217.773,13.41 C 217.116,12.059 216.789,10.628 216.789,9.119 z M 219.132,9.148 C 219.132,11.218 219.689,12.849 220.803,14.041 C 221.917,15.233 223.315,15.828 224.995,15.828 C 226.707,15.828 228.116,15.226 229.223,14.023 C 230.329,12.82 230.882,11.113 230.882,8.902 C 230.882,7.504 230.646,6.283 230.173,5.24 C 229.7,4.197 229.008,3.388 228.097,2.814 C 227.186,2.24 226.164,1.953 225.031,1.953 C 223.421,1.953 222.035,2.506 220.874,3.611 C 219.713,4.716 219.132,6.563 219.132,9.148 z " id="path7"/>
	<path d="M 235.457,9.119 C 235.457,6.266 236.223,4.034 237.755,2.421 C 239.287,0.807 241.264,0 243.687,0 C 245.274,0 246.704,0.379 247.978,1.137 C 249.252,1.896 250.223,2.952 250.892,4.308 C 251.561,5.664 251.894,7.202 251.894,8.92 C 251.894,10.663 251.542,12.222 250.839,13.597 C 250.136,14.972 249.139,16.014 247.849,16.721 C 246.559,17.428 245.168,17.782 243.675,17.782 C 242.057,17.782 240.611,17.391 239.337,16.61 C 238.063,15.829 237.098,14.761 236.441,13.41 C 235.784,12.059 235.457,10.628 235.457,9.119 z M 237.8,9.148 C 237.8,11.218 238.357,12.849 239.471,14.041 C 240.585,15.233 241.983,15.828 243.663,15.828 C 245.375,15.828 246.784,15.226 247.891,14.023 C 248.997,12.82 249.55,11.113 249.55,8.902 C 249.55,7.504 249.314,6.283 248.841,5.24 C 248.368,4.197 247.676,3.388 246.765,2.814 C 245.854,2.24 244.832,1.953 243.699,1.953 C 242.089,1.953 240.703,2.506 239.542,3.611 C 238.381,4.716 237.8,6.563 237.8,9.148 z " id="path9"/>
	<path d="M 254.906,17.484 L 254.906,0.297 L 257.187,0.297 L 257.187,7.36 L 266.078,7.36 L 266.078,0.297 L 268.359,0.297 L 268.359,17.485 L 266.078,17.485 L 266.078,9.391 L 257.187,9.391 L 257.187,17.485 L 254.906,17.485 L 254.906,17.484 z " id="path11"/>
</g>
<path d="M 195.99065,17.18565 L 196.79815,18.56315 L 172.52565,32.57565 L 172.52565,30.72315 L 195.99065,17.18565 z " id="polygon13"/>
<path d="M 139.89315,13.76565 L 139.89315,11.91315 L 172.52565,30.72315 L 172.52565,32.57565 L 139.89315,13.76565 z " id="polygon15"/>
<path d="M 107.26065,32.57565 L 107.26065,30.72315 L 139.89315,11.91315 L 139.89315,13.76565 L 107.26065,32.57565 z " id="polygon17"/>
<path d="M 74.62815,13.76565 L 74.62815,11.91315 L 107.26065,30.72315 L 107.26065,32.57565 L 74.62815,13.76565 z " id="polygon19"/>
<path d="M 42.85065,32.14815 L 41.23565,31.19815 L 74.62815,11.91315 L 74.62815,13.76565 L 42.85065,32.14815 z " id="polygon21"/>
<path d="M 48.07565,35.61565 L 47.26815,34.23815 L 74.24815,18.65815 L 75.05565,20.03565 L 48.07565,35.61565 z " id="polygon23"/>
<path d="M 42.85065,69.81565 L 41.23565,68.91315 L 41.23565,31.19815 L 42.85065,32.14815 L 42.85065,69.81565 z " id="polygon25"/>
<path d="M 10.21815,88.67315 L 8.60315,87.72315 L 41.23565,68.91315 L 42.85065,69.81565 L 10.21815,88.67315 z " id="polygon27"/>
<path d="M 10.21815,125.39065 L 8.60315,126.34065 L 8.60315,87.72315 L 10.21815,88.67315 L 10.21815,125.39065 z " id="polygon29"/>
<path d="M 14.25565,91.47565 L 15.87065,91.47565 L 15.87065,122.58815 L 14.25565,122.58815 L 14.25565,91.47565 z " id="rect31"/>
<path d="M 42.85065,144.24815 L 41.23565,145.19815 L 8.60315,126.34065 L 10.21815,125.39065 L 42.85065,144.24815 z " id="polygon33"/>
<path d="M 42.85065,181.91565 L 41.23565,182.86565 L 41.23565,145.19815 L 42.85065,144.24815 L 42.85065,181.91565 z " id="polygon35"/>
<path d="M 74.67565,200.29815 L 74.67565,202.15065 L 41.23565,182.86565 L 42.85065,181.91565 L 74.67565,200.29815 z " id="polygon37"/>
<path d="M 75.10315,193.98065 L 74.29565,195.40565 L 47.31565,179.82565 L 48.12315,178.40065 L 75.10315,193.98065 z " id="polygon39"/>
<path d="M 107.30815,181.44065 L 107.30815,183.29315 L 74.67565,202.15065 L 74.67565,200.29815 L 107.30815,181.44065 z " id="polygon41"/>
<path d="M 139.94065,200.25065 L 139.94065,202.15065 L 107.30815,183.29315 L 107.30815,181.44065 L 139.94065,200.25065 z " id="polygon43"/>
<path d="M 171.76565,181.91565 L 173.38065,182.81815 L 139.94065,202.15065 L 139.94065,200.25065 L 171.76565,181.91565 z " id="polygon45"/>
<path d="M 166.54065,178.40065 L 167.34815,179.82565 L 140.36815,195.35815 L 139.56065,193.98065 L 166.54065,178.40065 z " id="polygon47"/>
<path d="M 171.76565,144.20065 L 173.38065,145.15065 L 173.38065,182.81815 L 171.76565,181.91565 L 171.76565,144.20065 z " id="polygon49"/>
<path d="M 205.20565,124.91565 L 205.20565,126.76815 L 173.38065,145.15065 L 171.76565,144.20065 L 205.20565,124.91565 z " id="polygon51"/>
<path d="M 237.83815,143.72565 L 237.83815,145.62565 L 205.20565,126.76815 L 205.20565,124.91565 L 237.83815,143.72565 z " id="polygon53"/>
<path d="M 270.47065,124.91565 L 270.47065,126.76815 L 237.83815,145.62565 L 237.83815,143.72565 L 270.47065,124.91565 z " id="polygon55"/>
<g id="g57" transform="matrix(0.95,0,0,0.95,8.60315,5.18335)">
	<path d="M 315.444,150.257 L 317.725,150.831 C 317.249,152.701 316.392,154.127 315.156,155.108 C 313.919,156.089 312.406,156.581 310.619,156.581 C 308.769,156.581 307.265,156.204 306.106,155.449 C 304.947,154.695 304.065,153.601 303.46,152.171 C 302.855,150.74 302.553,149.203 302.553,147.562 C 302.553,145.772 302.894,144.209 303.577,142.876 C 304.26,141.543 305.231,140.529 306.492,139.838 C 307.752,139.147 309.138,138.8 310.652,138.8 C 312.369,138.8 313.812,139.238 314.982,140.114 C 316.153,140.991 316.968,142.222 317.428,143.811 L 315.194,144.338 C 314.796,143.088 314.219,142.178 313.463,141.608 C 312.706,141.038 311.754,140.753 310.608,140.753 C 309.29,140.753 308.188,141.069 307.302,141.702 C 306.417,142.335 305.795,143.184 305.436,144.251 C 305.077,145.318 304.898,146.417 304.898,147.55 C 304.898,149.011 305.11,150.286 305.535,151.376 C 305.96,152.466 306.62,153.28 307.517,153.819 C 308.414,154.358 309.384,154.628 310.429,154.628 C 311.7,154.628 312.775,154.261 313.656,153.526 C 314.537,152.791 315.132,151.702 315.444,150.257 z " id="path59"/>
	<path d="M 320.62,156.284 L 320.62,139.096 L 322.901,139.096 L 322.901,146.159 L 331.792,146.159 L 331.792,139.096 L 334.073,139.096 L 334.073,156.284 L 331.792,156.284 L 331.792,148.19 L 322.901,148.19 L 322.901,156.284 L 320.62,156.284 z " id="path61"/>
</g>
<g id="g63" transform="matrix(0.95,0,0,0.95,8.60315,5.18335)">
	<path d="M 335.67,157.378 L 337.248,157.159 C 337.431,158.055 337.74,158.701 338.176,159.097 C 338.613,159.492 339.148,159.69 339.783,159.69 C 340.536,159.69 341.169,159.432 341.682,158.918 C 342.195,158.402 342.451,157.764 342.451,157.002 C 342.451,156.276 342.213,155.678 341.735,155.206 C 341.258,154.734 340.652,154.499 339.916,154.499 C 339.615,154.499 339.241,154.558 338.794,154.675 L 338.971,153.284 C 339.077,153.296 339.162,153.302 339.227,153.302 C 339.901,153.302 340.508,153.127 341.048,152.776 C 341.588,152.425 341.858,151.884 341.858,151.153 C 341.858,150.574 341.661,150.094 341.267,149.715 C 340.873,149.335 340.365,149.145 339.742,149.145 C 339.125,149.145 338.61,149.339 338.199,149.727 C 337.788,150.115 337.523,150.697 337.406,151.473 L 335.828,151.192 C 336.021,150.13 336.462,149.307 337.148,148.724 C 337.834,148.14 338.688,147.848 339.709,147.848 C 340.413,147.848 341.062,147.998 341.654,148.3 C 342.246,148.601 342.699,149.012 343.014,149.532 C 343.327,150.053 343.485,150.605 343.485,151.19 C 343.485,151.746 343.336,152.252 343.037,152.708 C 342.738,153.164 342.296,153.526 341.71,153.796 C 342.472,153.972 343.064,154.337 343.489,154.89 C 343.913,155.445 344.126,156.137 344.126,156.969 C 344.126,158.095 343.715,159.048 342.893,159.83 C 342.071,160.612 341.032,161.004 339.776,161.004 C 338.643,161.004 337.702,160.667 336.954,159.995 C 336.202,159.32 335.775,158.449 335.67,157.378 z " id="path65"/>
</g>
<path d="M 295.40815,139.30815 L 294.60065,140.73315 L 270.47065,126.76815 L 270.47065,124.91565 L 295.40815,139.30815 z " id="polygon67"/>
</svg>