<?xml version="1.0" encoding="UTF-8" standalone="no"?>
<svg
   xmlns:dc="http://purl.org/dc/elements/1.1/"
   xmlns:cc="http://creativecommons.org/ns#"
   xmlns:rdf="http://www.w3.org/1999/02/22-rdf-syntax-ns#"
   xmlns:svg="http://www.w3.org/2000/svg"
   xmlns="http://www.w3.org/2000/svg"
   xmlns:sodipodi="http://sodipodi.sourceforge.net/DTD/sodipodi-0.dtd"
   xmlns:inkscape="http://www.inkscape.org/namespaces/inkscape"
   height="71.43750mm"
   version="1.0"
   viewBox="0 0 327 270"
   width="86.51875mm"
   id="svg2"
   inkscape:version="0.91 r13725"
   sodipodi:docname="Aspirin.svg">
  <metadata
     id="metadata84">
    <rdf:RDF>
      <cc:Work
         rdf:about="">
        <dc:format>image/svg+xml</dc:format>
        <dc:type
           rdf:resource="http://purl.org/dc/dcmitype/StillImage" />
        <dc:title></dc:title>
      </cc:Work>
    </rdf:RDF>
  </metadata>
  <defs
     id="defs82" />
  <sodipodi:namedview
     pagecolor="#ffffff"
     bordercolor="#666666"
     borderopacity="1"
     objecttolerance="10"
     gridtolerance="10"
     guidetolerance="10"
     inkscape:pageopacity="0"
     inkscape:pageshadow="2"
     inkscape:window-width="1920"
     inkscape:window-height="1018"
     id="namedview80"
     showgrid="false"
     inkscape:zoom="2.2379057"
     inkscape:cx="114.94914"
     inkscape:cy="123.97716"
     inkscape:window-x="-8"
     inkscape:window-y="-8"
     inkscape:window-maximized="1"
     inkscape:current-layer="svg2" />
  <g
     font-size="12pt"
     transform="translate(-90,-24)"
     id="g4"
     font-family="Helvetica"
     stroke-linecap="round">
    <g
       id="g6"
       stroke-width="2.26771653543"
       stroke="#000000">
      <path
         style=""
         d="M 191.36,101.16 159,119.85"
         id="line8" />
    </g>
    <g
       id="g10"
       stroke-width="2.26771653543"
       stroke="#000000">
      <path
         style=""
         d="m 325.82001,180.53999 0,-39.53999"
         id="line12" />
      <path
         style=""
         d="m 331.82001,180.53999 0,-39.53999"
         id="line14" />
    </g>
    <g
       id="g16"
       stroke-width="2.26771653543"
       stroke="#000000">
      <path
         style=""
         d="m 188.36,101.16 0,-40.16"
         id="line18" />
      <path
         style=""
         d="m 194.36,101.16 0,-40.16"
         id="line20" />
    </g>
    <g
       id="g22"
       stroke-width="2.26771653543"
       stroke="#000000">
      <path
         style=""
         d="M 328.82001,180.53999 360,198.55"
         id="line24" />
    </g>
    <g
       id="g26"
       stroke-width="2.26771653543"
       stroke="#000000">
      <path
         style=""
         d="m 191.37,207 0,52.84"
         id="line28" />
      <path
         style=""
         d="m 199.3,210.96001 0,44.90999"
         id="line30" />
    </g>
    <g
       id="g32"
       stroke-width="2.26771653543"
       stroke="#000000">
      <path
         style=""
         d="m 191.37,259.84 45.80999,26.47"
         id="line34" />
    </g>
    <g
       id="g36"
       stroke-width="2.26771653543"
       stroke="#000000">
      <path
         style=""
         d="m 191.37,207 45.80999,-26.47"
         id="line38" />
    </g>
    <g
       id="g40"
       stroke-width="2.26771653543"
       stroke="#000000">
      <path
         style=""
         d="m 283,259.84 -45.82001,26.47"
         id="line42" />
      <path
         style=""
         d="m 275.59,254.95 -38.94001,22.50001"
         id="line44" />
    </g>
    <g
       id="g46"
       stroke-width="2.26771653543"
       stroke="#000000">
      <path
         style=""
         d="M 223,119.43 191.36,101.16"
         id="line48" />
    </g>
    <g
       id="g50"
       stroke-width="2.26771653543"
       stroke="#000000">
      <path
         style=""
         d="m 283,207 0,52.84"
         id="line52" />
    </g>
    <g
       id="g54"
       stroke-width="2.26771653543"
       stroke="#000000">
      <path
         style=""
         d="m 283,207 45.82001,-26.46001"
         id="line56" />
    </g>
    <g
       id="g58"
       stroke-width="2.26771653543"
       stroke="#000000">
      <path
         style=""
         d="m 237.17999,180.53 0,-39.53"
         id="line60" />
    </g>
    <g
       id="g62"
       stroke-width="2.26771653543"
       stroke="#000000">
      <path
         style=""
         d="M 237.17999,180.53 283,207"
         id="line64" />
      <path
         style=""
         d="M 236.64999,189.39 275.59,211.89"
         id="line66" />
    </g>
    <g
       style="font-size:30px;font-family:helvetica;fill:#000000"
       id="text68">
      <path
         d="m 98.702347,134.62 0,-21.47461 2.841793,0 0,8.81836 11.16211,0 0,-8.81836 2.8418,0 0,21.47461 -2.8418,0 0,-10.12208 -11.16211,0 0,10.12208 -2.841793,0 z"
         style="font-size:30px;font-family:helvetica;fill:#000000"
         id="path4231" />
      <path
         d="m 118.92451,136.36829 1.97754,-0.26368 q 0.34058,1.68091 1.15357,2.42798 0.82397,0.73609 1.99951,0.73609 1.39526,0 2.35107,-0.9668 0.9668,-0.9668 0.9668,-2.39502 0,-1.3623 -0.88989,-2.24121 -0.88989,-0.88989 -2.26319,-0.88989 -0.5603,0 -1.39526,0.21972 l 0.21973,-1.73584 q 0.19775,0.022 0.3186,0.022 1.26343,0 2.27417,-0.65918 1.01074,-0.65918 1.01074,-2.03247 0,-1.08765 -0.73608,-1.80176 -0.73608,-0.71411 -1.90064,-0.71411 -1.15356,0 -1.9226,0.72509 -0.76905,0.7251 -0.98877,2.1753 l -1.97754,-0.35157 q 0.36255,-1.98852 1.64795,-3.07617 1.2854,-1.09863 3.19702,-1.09863 1.31836,0 2.42798,0.57129 1.10962,0.5603 1.69189,1.53809 0.59326,0.97778 0.59326,2.07641 0,1.0437 -0.5603,1.90064 -0.5603,0.85693 -1.65893,1.3623 1.42822,0.32959 2.21923,1.37329 0.79102,1.03272 0.79102,2.59278 0,2.10937 -1.53809,3.58154 -1.53808,1.46118 -3.88916,1.46118 -2.12036,0 -3.52661,-1.26343 -1.39526,-1.26343 -1.59302,-3.27392 z"
         style="font-size:75%;baseline-shift:sub"
         id="path4233" />
      <path
         d="m 148.14082,127.0907 2.8418,0.71777 q -0.89355,3.50098 -3.22266,5.34668 -2.31445,1.83106 -5.66894,1.83106 -3.47168,0 -5.6543,-1.40625 -2.16797,-1.4209 -3.31055,-4.10157 -1.12792,-2.68066 -1.12792,-5.75683 0,-3.35449 1.27441,-5.84473 1.28906,-2.50488 3.64746,-3.79394 2.37305,-1.30372 5.21484,-1.30372 3.22266,0 5.41993,1.64063 2.19726,1.64062 3.06152,4.61426 l -2.79785,0.65918 q -0.74707,-2.34375 -2.16797,-3.41309 -1.4209,-1.06933 -3.57422,-1.06933 -2.47559,0 -4.14551,1.18652 -1.65527,1.18652 -2.3291,3.19336 -0.67383,1.99219 -0.67383,4.11621 0,2.73926 0.79102,4.79004 0.80566,2.03613 2.49023,3.04687 1.68457,1.01075 3.64746,1.01075 2.3877,0 4.04297,-1.37696 1.65528,-1.37695 2.24121,-4.08691 z"
         style="font-size:30px;font-family:helvetica;fill:#000000"
         id="path4235" />
    </g>
    <g
       style="font-size:30px;font-family:helvetica;fill:#000000"
       id="text72">
      <path
         d="m 179.7502,44.791016 q 0,-5.34668 2.87109,-8.364258 2.8711,-3.032227 7.41211,-3.032227 2.97363,0 5.36133,1.420899 2.38769,1.420898 3.63281,3.969726 1.25977,2.53418 1.25977,5.756836 0,3.266602 -1.31836,5.844727 -1.31836,2.578125 -3.73535,3.911133 -2.417,1.318359 -5.21485,1.318359 -3.03222,0 -5.41992,-1.464844 -2.38769,-1.464844 -3.61816,-3.999023 -1.23047,-2.53418 -1.23047,-5.361328 z m 2.92969,0.04395 q 0,3.881836 2.08007,6.123047 2.09473,2.226562 5.24414,2.226562 3.20801,0 5.27344,-2.255859 2.08008,-2.255859 2.08008,-6.401367 0,-2.622071 -0.89355,-4.570313 -0.87891,-1.96289 -2.59278,-3.032226 -1.69922,-1.083985 -3.82324,-1.083985 -3.01758,0 -5.2002,2.080078 -2.16796,2.06543 -2.16796,6.914063 z"
         style="font-size:30px;font-family:helvetica;fill:#000000"
         id="path4238" />
    </g>
    <g
       style="font-size:30px;font-family:helvetica;fill:#000000"
       id="text74">
      <path
         d="m 316.75018,124.17102 q 0,-5.34668 2.8711,-8.36426 2.87109,-3.03222 7.41211,-3.03222 2.97363,0 5.36132,1.42089 2.3877,1.4209 3.63282,3.96973 1.25976,2.53418 1.25976,5.75684 0,3.2666 -1.31836,5.84472 -1.31836,2.57813 -3.73535,3.91114 -2.41699,1.31836 -5.21484,1.31836 -3.03223,0 -5.41992,-1.46485 -2.3877,-1.46484 -3.61817,-3.99902 -1.23047,-2.53418 -1.23047,-5.36133 z m 2.92969,0.0439 q 0,3.88183 2.08008,6.12304 2.09473,2.22657 5.24414,2.22657 3.20801,0 5.27344,-2.25586 2.08007,-2.25586 2.08007,-6.40137 0,-2.62207 -0.89355,-4.57031 -0.87891,-1.96289 -2.59277,-3.03223 -1.69922,-1.08398 -3.82325,-1.08398 -3.01757,0 -5.20019,2.08007 -2.16797,2.06543 -2.16797,6.91407 z"
         style="font-size:30px;font-family:helvetica;fill:#000000"
         id="path4241" />
    </g>
    <g
       style="font-size:30px;font-family:helvetica;fill:#000000"
       id="text76">
      <path
         d="m 362.75018,203.54102 q 0,-5.34668 2.8711,-8.36426 2.87109,-3.03223 7.41211,-3.03223 2.97363,0 5.36132,1.4209 2.3877,1.4209 3.63282,3.96973 1.25976,2.53418 1.25976,5.75683 0,3.2666 -1.31836,5.84473 -1.31836,2.57812 -3.73535,3.91113 -2.41699,1.31836 -5.21484,1.31836 -3.03223,0 -5.41992,-1.46484 -2.3877,-1.46485 -3.61817,-3.99903 -1.23047,-2.53418 -1.23047,-5.36132 z m 2.92969,0.0439 q 0,3.88184 2.08008,6.12305 2.09473,2.22656 5.24414,2.22656 3.20801,0 5.27344,-2.25586 2.08007,-2.25586 2.08007,-6.40137 0,-2.62207 -0.89355,-4.57031 -0.87891,-1.96289 -2.59277,-3.03223 -1.69922,-1.08398 -3.82325,-1.08398 -3.01757,0 -5.20019,2.08008 -2.16797,2.06543 -2.16797,6.91406 z"
         style="font-size:30px;font-family:helvetica;fill:#000000"
         id="path4244" />
      <path
         d="m 387.02264,214 0,-21.47461 2.8418,0 0,8.81836 11.16211,0 0,-8.81836 2.8418,0 0,21.47461 -2.8418,0 0,-10.12207 -11.16211,0 0,10.12207 -2.8418,0 z"
         style="font-size:30px;font-family:helvetica;fill:#000000"
         id="path4246" />
    </g>
    <g
       style="font-size:30px;font-family:helvetica;fill:#000000"
       id="text78">
      <path
         d="m 225.7502,124.16101 q 0,-5.34668 2.87109,-8.36426 2.8711,-3.03222 7.41211,-3.03222 2.97363,0 5.36133,1.42089 2.38769,1.4209 3.63281,3.96973 1.25977,2.53418 1.25977,5.75684 0,3.2666 -1.31836,5.84472 -1.31836,2.57813 -3.73535,3.91114 -2.417,1.31836 -5.21485,1.31836 -3.03222,0 -5.41992,-1.46485 -2.38769,-1.46484 -3.61816,-3.99902 -1.23047,-2.53418 -1.23047,-5.36133 z m 2.92969,0.0439 q 0,3.88183 2.08007,6.12304 2.09473,2.22657 5.24414,2.22657 3.20801,0 5.27344,-2.25586 2.08008,-2.25586 2.08008,-6.40137 0,-2.62207 -0.89355,-4.57031 -0.87891,-1.96289 -2.59278,-3.03223 -1.69922,-1.08398 -3.82324,-1.08398 -3.01758,0 -5.2002,2.08007 -2.16796,2.06543 -2.16796,6.91407 z"
         style="font-size:30px;font-family:helvetica;fill:#000000"
         id="path4249" />
    </g>
  </g>
</svg>
