<?xml version="1.0" encoding="UTF-8"?>
<svg preserveAspectRatio="xMidYMid" viewBox="93.03 125.93 312.96 121.19" xmlns="http://www.w3.org/2000/svg" xmlns:cc="http://creativecommons.org/ns#" xmlns:dc="http://purl.org/dc/elements/1.1/" xmlns:rdf="http://www.w3.org/1999/02/22-rdf-syntax-ns#"><clipPath id="a"><rect x=".3" y=".3" width="539.4" height="719.15"/></clipPath><g clip-path="url(#a)" transform="translate(3.1792,3)"><path d="m179.79 155.22q0-1.783 0.957-2.788 0.957-1.011 2.471-1.011 0.991 0 1.787 0.473 0.796 0.474 1.211 1.324 0.42 0.844 0.42 1.919 0 1.089-0.439 1.948-0.44 0.859-1.245 1.304-0.806 0.439-1.739 0.439-1.01 0-1.806-0.488t-1.206-1.333q-0.411-0.845-0.411-1.787zm0.977 0.014q0 1.294 0.693 2.041 0.699 0.743 1.748 0.743 1.07 0 1.758-0.752 0.694-0.752 0.694-2.134 0-0.874-0.298-1.524-0.293-0.654-0.865-1.01-0.566-0.362-1.274-0.362-1.006 0-1.733 0.694-0.723 0.688-0.723 2.304z"/><path d="m145.92 188.14 0.34-0.07 0.23 0.26-4.43 13.65-0.46-0.52z" fill-rule="evenodd" shape-rendering="geometricPrecision" stroke-width="0"/><path d="m127.68 205.03 0.22-0.66 13.7-2.91 0.46 0.52z" fill-rule="evenodd" shape-rendering="geometricPrecision" stroke-width="0"/><path d="m128.71 201.86 11.12-2.36" stroke="#000" stroke-width=".6"/><path d="m118.08 194.37 0.11-0.33 0.34-0.07 9.37 10.4-0.22 0.66z" fill-rule="evenodd" shape-rendering="geometricPrecision" stroke-width="0"/><path d="m117.96 193.78 0.23 0.26-0.11 0.33-8.85 1.88-0.06-0.29-0.07-0.3z" fill-rule="evenodd" shape-rendering="geometricPrecision" stroke-width="0"/><path d="m122.4 180.13 0.46 0.52-4.33 13.32-0.34 0.07-0.23-0.26z" fill-rule="evenodd" shape-rendering="geometricPrecision" stroke-width="0"/><path d="m124.63 182.61-3.52 10.81" stroke="#000" stroke-width=".6"/><path d="m136.77 177.08-0.22 0.66-13.69 2.91-0.46-0.52z" fill-rule="evenodd" shape-rendering="geometricPrecision" stroke-width="0"/><path d="m146.37 187.74-0.11 0.33-0.34 0.07-9.37-10.4 0.22-0.66z" fill-rule="evenodd" shape-rendering="geometricPrecision" stroke-width="0"/><path d="m143.34 188.69-7.6-8.44" stroke="#000" stroke-width=".6"/><path d="m160.07 184.83 0.46 0.52-14.04 2.98-0.23-0.26 0.11-0.33z" fill-rule="evenodd" shape-rendering="geometricPrecision" stroke-width="0"/><path d="m164.5 171.18 0.46 0.52-4.43 13.65-0.46-0.52z" fill-rule="evenodd" shape-rendering="geometricPrecision" stroke-width="0"/><path d="M164.95 171.24l-.44.4-.47-.39.57-.51zM163.48 169.04l-1 .9-.47-.39 1.13-1.01zM162 166.85l-1.55 1.4-.47-.39 1.68-1.51zM160.52 164.65l-2.1 1.9-.46-.39 2.23-2.01z" fill-rule="evenodd" shape-rendering="geometricPrecision" stroke-width="0"/><path d="M199.22 153.18q0-1.783.957-2.788.957-1.011 2.471-1.011.991 0 1.787.473.796.474 1.211 1.324.42.844.42 1.919 0 1.089-.439 1.948-.44.859-1.245 1.304-.806.439-1.739.439-1.01 0-1.806-.488t-1.206-1.333q-.411-.845-.411-1.787zm.977.014q0 1.294.693 2.041.699.743 1.748.743 1.07 0 1.758-.752.694-.752.694-2.134 0-.874-.298-1.524-.293-.654-.865-1.01-.566-.362-1.274-.362-1.006 0-1.733.694-.723.688-.723 2.304zM185.53 183.02v-7.158h.971l3.76 5.62v-5.62h.908v7.158h-.971l-3.76-5.625v5.625zM268.89 188.42q0-1.783.957-2.788.957-1.011 2.471-1.011.991 0 1.787.473.796.474 1.211 1.324.42.844.42 1.919 0 1.089-.439 1.948-.44.859-1.245 1.304-.806.439-1.739.439-1.01 0-1.806-.488t-1.206-1.333q-.411-.845-.411-1.787zm.977.014q0 1.294.693 2.041.699.743 1.748.743 1.07 0 1.758-.752.694-.752.694-2.134 0-.874-.298-1.524-.293-.654-.865-1.01-.566-.362-1.274-.362-1.006 0-1.733.694-.723.688-.723 2.304zM250.03 169.1v-7.158h.971l3.76 5.62v-5.62h.908v7.158h-.971l-3.76-5.625v5.625zM315.43 165.82q0-1.783.957-2.788.957-1.011 2.471-1.011.991 0 1.787.473.796.474 1.211 1.324.42.844.42 1.919 0 1.089-.439 1.948-.44.859-1.245 1.304-.806.439-1.739.439-1.01 0-1.806-.488t-1.206-1.333q-.411-.845-.411-1.787zm.977.014q0 1.294.693 2.041.699.743 1.748.743 1.07 0 1.758-.752.694-.752.694-2.134 0-.874-.298-1.524-.293-.654-.865-1.01-.566-.362-1.274-.362-1.006 0-1.733.694-.723.688-.723 2.304zM287.38 166.93v-7.158h.947v2.939h3.721v-2.939h.947v7.158h-.947v-3.374h-3.721v3.374zM287.34 175.2v-7.158h.971l3.76 5.62v-5.62h.908v7.158h-.971l-3.76-5.625v5.625z"/><path d="m345.47 176.09v-0.6h9.93v0.6z" fill-rule="evenodd" shape-rendering="geometricPrecision" stroke-width="0"/><path d="m321.18 193.62v-7.158h0.971l3.76 5.62v-5.62h0.908v7.158h-0.971l-3.76-5.625v5.625z"/><path d="M209.82 165.5v-.6h9.98v.6zM363.76 171.96l-2.6-1.5.37-.48 2.46 1.42zM364.85 169.34l-1.95-1.13.36-.48 1.82 1.05zM365.93 166.71l-1.3-.76.37-.48 1.16.68zM367.02 164.08l-.66-.38.37-.48.52.3z" fill-rule="evenodd" shape-rendering="geometricPrecision" stroke-width="0"/><path d="m344.35 176.44-4.05-7.01" stroke="#000" stroke-width=".6"/><path d="M346.44 175.49h.69l-4.33-7.5-.52.3zM344.3 176.95l.38-.55-4.12-7.12-.52.3z" fill-rule="evenodd" shape-rendering="geometricPrecision" stroke-width="0"/><path d="m277.97 174.76-2.86 8.82" stroke="#000" stroke-width=".6"/><path d="M275.84 173.92l-.48-.45-3 9.22.57.18zM278.43 174.31l-.68.14-2.93 9.03.57.19zM257.32 165.03l-.03-.29-.03-.3 9.63-1.02.25.28-.14.32z" fill-rule="evenodd" shape-rendering="geometricPrecision" stroke-width="0"/><path d="m177.54 168.06 2.62-8.04" stroke="#000" stroke-width=".6"/><path d="M179.64 168.98l.47.52 2.79-8.59-.57-.18zM177.08 168.51l.68-.14 2.68-8.26-.57-.18z" fill-rule="evenodd" shape-rendering="geometricPrecision" stroke-width="0"/><path d="m178.88 168.13-0.22 0.66-13.7 2.91-0.46-0.52z" fill-rule="evenodd" shape-rendering="geometricPrecision" stroke-width="0"/><path d="M93.851 200.92v-7.158h.9472v2.939h3.7208v-2.939h.9472v7.158h-.9472v-3.374h-3.7208v3.374zM100.76 197.43q0-1.783.957-2.788.957-1.011 2.471-1.011.991 0 1.787.473.796.474 1.211 1.324.42.844.42 1.919 0 1.089-.44 1.948-.439.859-1.245 1.304-.806.439-1.738.439-1.011 0-1.807-.488t-1.206-1.333-.41-1.787zm.977.014q0 1.294.693 2.041.698.743 1.748.743 1.069 0 1.758-.752.693-.752.693-2.134 0-.874-.298-1.524-.293-.654-.864-1.01-.566-.362-1.274-.362-1.006 0-1.734.694-.722.688-.722 2.304zM140.9 164.68v-7.158h.947v2.939h3.721v-2.939h.947v7.158h-.947v-3.374h-3.721v3.374zM151.1 166.31v.634h-3.548q-.008-.238.077-.458.135-.362.432-.714.3-.351.864-.813.875-.718 1.183-1.135.307-.421.307-.795 0-.392-.282-.659-.278-.271-.728-.271-.476 0-.762.286-.286.285-.289.791l-.678-.07q.07-.758.524-1.153.454-.4 1.219-.4.773 0 1.223.429.451.428.451 1.062 0 .322-.132.633-.132.312-.439.656-.304.344-1.015.945-.593.498-.761.677-.169.176-.279.355zM152.26 164.68v-7.158h.972l3.76 5.62v-5.62h.908v7.158h-.972l-3.76-5.625v5.625z"/><path d="m208.7 165.85-4.05-7.02" stroke="#000" stroke-width=".6"/><path d="M210.79 164.9h.7l-4.34-7.51-.52.3zM208.65 166.36l.38-.55-4.12-7.13-.52.3zM192.82 178.95l-.03-.29-.03-.3 10.07-1.06-.38.64z" fill-rule="evenodd" shape-rendering="geometricPrecision" stroke-width="0"/><path d="M202.9 177.77l-.52-.3.26-.54.6.35zM204.47 175.51l-.91-.54.25-.54 1.01.58zM206.05 173.24l-1.32-.76.26-.55 1.4.82zM207.62 170.98l-1.71-1 .26-.54 1.8 1.04zM209.2 168.71l-2.11-1.22.25-.55 2.2 1.28zM210.77 166.45l-2.51-1.46.26-.54 2.6 1.5z" fill-rule="evenodd" shape-rendering="geometricPrecision" stroke-width="0"/><path d="m202.45 177.94 0.38-0.64 6.01 13.51-0.72-0.16z" fill-rule="evenodd" shape-rendering="geometricPrecision" stroke-width="0"/><path d="M208.12 190.65l.72.16-10.98 9.89-.08-.74zM197.78 199.96l.08.74-12.81-7.39.68-.3zM186.9 184.6l.29.07.3.06-1.76 8.28-.68.3zM178.66 168.79l.22-.66 5.87 6.52-.22.21-.22.2z" fill-rule="evenodd" shape-rendering="geometricPrecision" stroke-width="0"/><path d="m246.81 176.97 4.44 7.7" stroke="#000" stroke-width=".6"/><path d="M244.72 177.92h-.7l4.74 8.19.52-.3zM246.78 176.33l-.34.6 4.55 7.89.52-.3zM231.6 177.47l-.52.3-.38-.48.68-.38zM230.65 175.08l-1.16.67-.38-.48 1.31-.75zM229.7 172.69l-1.81 1.04-.37-.47 1.95-1.13zM228.74 170.3l-2.44 1.41-.38-.47 2.6-1.5z" fill-rule="evenodd" shape-rendering="geometricPrecision" stroke-width="0"/><path d="M245.52 177.32l.34.6h-14.35l-.34-.6zM267 164.02l.14-.32.33-.1 10.78 10.13-1.51.63-1.42.61zM267.47 163.6l-.33.1-.25-.28 2.89-13.61.68-.3zM270.46 149.51l-.68.3-12.04-6.96-.08-.74z" fill-rule="evenodd" shape-rendering="geometricPrecision" stroke-width="0"/><path d="m257.66 142.11 0.08 0.74-10.35 9.32-0.72-0.16z" fill-rule="evenodd" shape-rendering="geometricPrecision" stroke-width="0"/><path d="M251.25 160.82l-.28.12-.27.12-4.03-9.05.72.16zM245.86 177.92l-.34-.6 4.03-6.98.52.3z" fill-rule="evenodd" shape-rendering="geometricPrecision" stroke-width="0"/><path d="m313.19 178.66 2.61-8.04" stroke="#000" stroke-width=".6"/><path d="M315.29 179.58l.47.52 2.78-8.59-.57-.18zM312.73 179.11l.68-.14 2.68-8.25-.58-.19zM293.23 174.55l.23-.2.22-.2 6.81 7.56-.22.66z" fill-rule="evenodd" shape-rendering="geometricPrecision" stroke-width="0"/><path d="M314.53 178.73l-.22.66-14.04 2.98.22-.66zM275.32 174.97l1.42-.61 1.51-.63 8.55-1.81.07.29.06.29zM366.82 163.67l.34-.6h14.35l-.34.6zM328.52 189.55l-.06-.6 10.02-1.05-.38.64z" fill-rule="evenodd" shape-rendering="geometricPrecision" stroke-width="0"/><path d="M338.55 188.37l-.52-.3.26-.54.6.35zM340.12 186.1l-.91-.53.25-.54 1.01.58zM341.7 183.84l-1.32-.76.26-.55 1.4.81zM343.28 181.57l-1.72-.99.26-.55 1.8 1.04zM344.85 179.3l-2.11-1.22.25-.54 2.2 1.27zM346.43 177.03l-2.52-1.45.26-.54 2.6 1.5z" fill-rule="evenodd" shape-rendering="geometricPrecision" stroke-width="0"/><path d="m338.1 188.54 0.38-0.64 6.01 13.51-0.72-0.16z" fill-rule="evenodd" shape-rendering="geometricPrecision" stroke-width="0"/><path d="m343.77 201.25 0.72 0.16-10.99 9.89-0.08-0.74z" fill-rule="evenodd" shape-rendering="geometricPrecision" stroke-width="0"/><path d="M333.42 210.56l.08.74-12.8-7.39.68-.3zM322.55 195.2l.29.07.3.06-1.76 8.28-.68.3zM314.31 179.39l.22-.66 5.82 6.47-.44.4zM367.16 163.07l-.34.6-7.17-12.42.17-.31h.35zM360.17 150.94h-.35l-.17-.31 6.99-12.12h.7zM367.34 138.51h-.7l-7.08-12.28.52-.3z" fill-rule="evenodd" shape-rendering="geometricPrecision" stroke-width="0"/><path d="M356.98 179.69v-7.158h.971l3.76 5.62v-5.62h.908v7.158h-.971l-3.76-5.625v5.625zM364.25 179.69v-7.158h.948v2.939h3.72v-2.939h.948v7.158h-.948v-3.374h-3.72v3.374z"/><path d="m359.65 150.63 0.17 0.31-0.17 0.31-14.18 1.19v-3z" fill-rule="evenodd" shape-rendering="geometricPrecision" stroke-width="0"/><path d="M334.87 163.78q0-1.783.957-2.788.957-1.011 2.471-1.011.991 0 1.787.473.796.474 1.211 1.324.42.844.42 1.919 0 1.089-.439 1.948-.44.859-1.245 1.304-.806.439-1.739.439-1.01 0-1.806-.488t-1.206-1.333q-.411-.845-.411-1.787zm.977.014q0 1.294.693 2.041.699.743 1.748.743 1.07 0 1.758-.752.694-.752.694-2.134 0-.874-.298-1.524-.293-.654-.865-1.01-.566-.362-1.274-.362-1.006 0-1.733.694-.723.688-.723 2.304zM221.33 169.1v-7.158h.971l3.76 5.62v-5.62h.908v7.158h-.971l-3.76-5.625v5.625zM228.6 169.1v-7.158h.948v2.939h3.72v-2.939h.948v7.158h-.948v-3.374h-3.72v3.374zM249.45 190.46q0-1.783.957-2.788.957-1.011 2.471-1.011.991 0 1.787.473.796.474 1.211 1.324.42.844.42 1.919 0 1.089-.439 1.948-.44.859-1.245 1.304-.806.439-1.739.439-1.01 0-1.806-.488t-1.206-1.333q-.411-.845-.411-1.787zm.977.014q0 1.294.693 2.041.699.743 1.748.743 1.07 0 1.758-.752.694-.752.694-2.134 0-.874-.298-1.524-.293-.654-.865-1.01-.566-.362-1.274-.362-1.006 0-1.733.694-.723.688-.723 2.304z"/><path d="M231.17 177.32l.34.6-6.99 12.13h-.7zM223.82 190.05h.7l6.99 12.13-.17.3h-.35z" fill-rule="evenodd" shape-rendering="geometricPrecision" stroke-width="0"/><path d="m230.99 202.48h0.35l0.17 0.3-6.99 12.13h-0.7z" fill-rule="evenodd" shape-rendering="geometricPrecision" stroke-width="0"/><path d="m232.83 205.06-5.68 9.85" stroke="#000" stroke-width=".6"/><path d="m223.82 214.91h0.7l6.99 12.12-0.34 0.6z" fill-rule="evenodd" shape-rendering="geometricPrecision" stroke-width="0"/><path d="m231.17 227.63 0.34-0.6h14.01l0.34 0.6z" fill-rule="evenodd" shape-rendering="geometricPrecision" stroke-width="0"/><path d="m232.83 224.75h11.37" stroke="#000" stroke-width=".6"/><path d="M245.86 227.63l-.34-.6 7-12.12h.7zM253.22 214.91h-.7l-7-12.13.34-.6z" fill-rule="evenodd" shape-rendering="geometricPrecision" stroke-width="0"/><path d="m249.89 214.91-5.69-9.85" stroke="#000" stroke-width=".6"/><path d="m245.86 202.18-0.34 0.6h-14.01l-0.17-0.3 0.17-0.3z" fill-rule="evenodd" shape-rendering="geometricPrecision" stroke-width="0"/><path d="m385.1 151.35q0-1.783 0.957-2.788 0.957-1.011 2.471-1.011 0.991 0 1.787 0.473 0.796 0.474 1.211 1.324 0.42 0.844 0.42 1.919 0 1.089-0.439 1.948-0.44 0.859-1.245 1.304-0.806 0.439-1.739 0.439-1.01 0-1.806-0.488t-1.206-1.333q-0.411-0.845-0.411-1.787zm0.977 0.014q0 1.294 0.693 2.041 0.699 0.743 1.748 0.743 1.07 0 1.758-0.752 0.694-0.752 0.694-2.134 0-0.874-0.298-1.524-0.293-0.654-0.865-1.01-0.566-0.362-1.274-0.362-1.006 0-1.733 0.694-0.723 0.688-0.723 2.304z"/><path d="m380.22 162.72 4.04-6.98" stroke="#000" stroke-width=".6"/><path d="M382.09 164.06l.34.6 4.32-7.48-.52-.3zM379.67 163.07h.7l4.15-7.18-.52-.3z" fill-rule="evenodd" shape-rendering="geometricPrecision" stroke-width="0"/><path d="M385.1 176.2q0-1.783.957-2.788.957-1.011 2.471-1.011.991 0 1.787.473.796.474 1.211 1.324.42.844.42 1.919 0 1.089-.439 1.948-.44.859-1.245 1.304-.806.439-1.739.439-1.01 0-1.806-.488t-1.206-1.333q-.411-.845-.411-1.787zm.977.014q0 1.294.693 2.041.699.743 1.748.743 1.07 0 1.758-.752.694-.752.694-2.134 0-.874-.298-1.524-.293-.654-.865-1.01-.566-.362-1.274-.362-1.006 0-1.733.694-.723.688-.723 2.304zM393.19 179.69v-7.158h.947v2.939h3.721v-2.939h.947v7.158h-.947v-3.374h-3.721v3.374z"/><path d="m381.17 163.67 0.34-0.6 4.74 8.19-0.52 0.3z" fill-rule="evenodd" shape-rendering="geometricPrecision" stroke-width="0"/><path d="m154.84 201v-5.947h-2.124v-1.211h5.688v1.211h-2.119v5.947z"/><path d="M157.94 195.81h1.46l1.241 3.682 1.211-3.682h1.42l-1.831 4.991-.327.903q-.18.454-.346.693-.162.24-.376.386-.21.151-.523.234-.307.083-.698.083-.396 0-.776-.083l-.123-1.074q.323.064.582.064.478 0 .708-.283.229-.279.351-.713zM165.47 201h-1.372v-5.186h1.274v.738q.327-.523.586-.689.264-.166.596-.166.468 0 .903.259l-.425 1.196q-.346-.224-.644-.224-.288 0-.489.161-.2.156-.317.571-.112.415-.112 1.738zM187.95 214v-7.158h2.319q1.318 0 1.719.107.615.161 1.03.703.415.537.415 1.392 0 .659-.239 1.108-.24.45-.611.708-.366.254-.747.337-.517.103-1.499.103h-.942v2.7zm1.445-5.947v2.031h.791q.854 0 1.142-.112.289-.113.45-.352.166-.239.166-.557 0-.39-.23-.644-.229-.254-.581-.317-.259-.049-1.04-.049zM195.93 214h-1.372v-5.186h1.274v.738q.327-.523.586-.689.264-.166.596-.166.469 0 .903.259l-.425 1.196q-.346-.224-.644-.224-.288 0-.488.161-.201.156-.318.571-.112.415-.112 1.738zM198.19 211.33q0-.684.337-1.323.337-.64.952-.977.62-.337 1.382-.337 1.176 0 1.928.767.752.762.752 1.929 0 1.176-.761 1.953-.757.771-1.91.771-.712 0-1.362-.322-.644-.322-.981-.942-.337-.625-.337-1.519zm1.406.073q0 .772.366 1.182t.904.41q.537 0 .898-.41.366-.41.366-1.192 0-.761-.366-1.171-.361-.411-.898-.411-.538 0-.904.411-.366.41-.366 1.181zM229.95 241v-7.158h2.319q1.318 0 1.719.107.615.161 1.03.703.415.537.415 1.392 0 .659-.239 1.108-.24.45-.611.708-.366.254-.747.337-.517.103-1.499.103h-.942v2.7zm1.445-5.947v2.031h.791q.854 0 1.142-.112.289-.113.45-.352.166-.239.166-.557 0-.39-.23-.644-.229-.254-.581-.317-.259-.049-1.04-.049zM237.98 233.84v2.632q.664-.777 1.587-.777.473 0 .854.176t.571.449q.196.274.264.606.073.332.073 1.03v3.042h-1.372v-2.739q0-.816-.078-1.035-.078-.22-.278-.347-.196-.132-.493-.132-.342 0-.611.166-.268.166-.395.503-.122.332-.122.986v2.598h-1.372v-7.158zM245.73 239.35l1.367.229q-.264.752-.835 1.148-.567.39-1.421.39-1.353 0-2.002-.884-.513-.708-.513-1.787 0-1.289.674-2.016.674-.733 1.704-.733 1.158 0 1.826.767.669.762.64 2.339h-3.437q.014.61.332.952.317.337.791.337.322 0 .542-.176.219-.176.332-.566zm.078-1.387q-.015-.596-.308-.903-.293-.313-.713-.313-.449 0-.742.327t-.288.889zM250.95 137v-7.158h2.319q1.318 0 1.719.107.615.161 1.03.703.415.537.415 1.392 0 .659-.239 1.108-.24.45-.611.708-.366.254-.747.337-.517.103-1.499.103h-.942v2.7zm1.445-5.947v2.031h.791q.854 0 1.142-.112.289-.113.45-.352.166-.239.166-.557 0-.39-.23-.644-.229-.254-.581-.317-.259-.049-1.04-.049zM258.93 137h-1.372v-5.186h1.274v.738q.327-.523.586-.689.264-.166.596-.166.469 0 .903.259l-.425 1.196q-.346-.224-.644-.224-.288 0-.488.161-.201.156-.318.571-.112.415-.112 1.738zM261.19 134.33q0-.684.337-1.323.337-.64.952-.977.62-.337 1.382-.337 1.176 0 1.928.767.752.762.752 1.929 0 1.176-.761 1.953-.757.771-1.91.771-.712 0-1.362-.322-.644-.322-.981-.942-.337-.625-.337-1.519zm1.406.073q0 .772.366 1.182t.904.41q.537 0 .898-.41.366-.41.366-1.192 0-.761-.366-1.171-.361-.411-.898-.411-.538 0-.904.411-.366.41-.366 1.181zM374.83 139v-7.158h1.445v7.158zM377.64 139v-7.158h1.372v7.158zM383.42 137.35l1.367.229q-.264.752-.835 1.148-.567.39-1.421.39-1.353 0-2.002-.884-.513-.708-.513-1.787 0-1.289.674-2.016.674-.733 1.704-.733 1.157 0 1.826.767.669.762.64 2.339h-3.437q.014.61.332.952.317.337.791.337.322 0 .542-.176.219-.176.332-.566zm.078-1.387q-.015-.596-.308-.903-.293-.313-.713-.313-.449 0-.742.327t-.288.889zM335.95 220v-7.158h2.319q1.318 0 1.719.107.615.161 1.03.703.415.537.415 1.392 0 .659-.239 1.108-.24.45-.611.708-.366.254-.747.337-.517.103-1.499.103h-.942v2.7zm1.445-5.947v2.031h.791q.854 0 1.142-.112.289-.113.45-.352.166-.239.166-.557 0-.39-.23-.644-.229-.254-.581-.317-.259-.049-1.04-.049zM343.93 220h-1.372v-5.186h1.274v.738q.327-.523.586-.689.264-.166.596-.166.469 0 .903.259l-.425 1.196q-.346-.224-.644-.224-.288 0-.488.161-.201.156-.318.571-.112.415-.112 1.738zM346.19 217.33q0-.684.337-1.323.337-.64.952-.977.62-.337 1.382-.337 1.176 0 1.928.767.752.762.752 1.929 0 1.176-.761 1.953-.757.771-1.91.771-.712 0-1.362-.322-.644-.322-.981-.942-.337-.625-.337-1.519zm1.406.073q0 .772.366 1.182t.904.41q.537 0 .898-.41.366-.41.366-1.192 0-.761-.366-1.171-.361-.411-.898-.411-.538 0-.904.411-.366.41-.366 1.181zM295.71 193.37v-1.206h3.115v2.852q-.454.439-1.319.776-.859.332-1.743.332-1.123 0-1.958-.469-.835-.473-1.255-1.347-.419-.879-.419-1.91 0-1.118.468-1.987.469-.869 1.372-1.333.689-.356 1.714-.356 1.333 0 2.08.561.752.557.967 1.543l-1.435.269q-.152-.528-.572-.83-.415-.308-1.04-.308-.947 0-1.509.601-.556.6-.556 1.782 0 1.274.566 1.914.567.635 1.485.635.454 0 .908-.176.459-.181.786-.435v-.908zM300.14 196v-7.158h1.372v7.158zM302.26 190.81h1.46l1.24 3.682 1.211-3.682h1.421l-1.831 4.991-.327.903q-.181.454-.347.693-.161.24-.376.386-.21.151-.522.234-.308.083-.698.083-.396 0-.777-.083l-.122-1.074q.323.064.581.064.479 0 .708-.283.23-.279.352-.713z"/></g></svg>