<?xml version="1.0" encoding="UTF-8" standalone="no"?>
<svg
   xmlns:dc="http://purl.org/dc/elements/1.1/"
   xmlns:cc="http://creativecommons.org/ns#"
   xmlns:rdf="http://www.w3.org/1999/02/22-rdf-syntax-ns#"
   xmlns:svg="http://www.w3.org/2000/svg"
   xmlns="http://www.w3.org/2000/svg"
   xml:space="preserve"
   style="overflow:visible;enable-background:new 0 0 501.33 750.731;"
   viewBox="0 0 501.33 750.731"
   height="750.731"
   width="501.33"
   id="Layer_1"
   version="1.1"><metadata
   id="metadata754"><rdf:RDF><cc:Work
       rdf:about=""><dc:format>image/svg+xml</dc:format><dc:type
         rdf:resource="http://purl.org/dc/dcmitype/StillImage" /><dc:title></dc:title></cc:Work></rdf:RDF></metadata><defs
   id="defs752" />




































































































































































































































































































<g
   id="g1928"><path
     d="M 236.8995,253.30905 L 238.5145,253.40405 L 238.277,256.63405 L 236.662,256.49155 L 236.8995,253.30905 z "
     id="polygon3" /><path
     d="M 236.472,259.72155 L 238.087,259.81655 L 237.8495,263.04655 L 236.2345,262.95155 L 236.472,259.72155 z "
     id="polygon5" /><path
     d="M 236.0445,266.18155 L 237.6595,266.27655 L 237.422,269.50655 L 235.807,269.41155 L 236.0445,266.18155 z "
     id="polygon7" /><path
     d="M 236.99534,275.90493 L 235.38024,275.8098 L 235.5705,272.5796 L 237.1856,272.67473 L 236.99534,275.90493 z "
     id="rect9" /><path
     d="M 236.56771,282.3653 L 234.95261,282.27018 L 235.14287,279.03998 L 236.75797,279.13511 L 236.56771,282.3653 z "
     id="rect11" /><path
     d="M 234.7145,285.46655 L 236.3295,285.60905 L 236.092,288.79155 L 234.477,288.69655 L 234.7145,285.46655 z "
     id="polygon13" /><path
     d="M 234.287,291.92655 L 235.902,292.02155 L 235.6645,295.25155 L 234.0495,295.15655 L 234.287,291.92655 z "
     id="polygon15" /><path
     d="M 233.8595,298.33905 L 235.4745,298.48155 L 235.237,301.66405 L 233.622,301.56905 L 233.8595,298.33905 z "
     id="polygon17" /><path
     d="M 234.80576,308.12097 L 233.19066,308.02632 L 233.37995,304.79612 L 234.99505,304.89077 L 234.80576,308.12097 z "
     id="rect19" /><path
     d="M 232.957,311.21155 L 234.572,311.35405 L 234.3345,314.58405 L 232.767,314.44155 L 232.957,311.21155 z "
     id="polygon21" /><path
     d="M 232.5295,317.67155 L 234.1445,317.76655 L 233.907,320.99655 L 232.292,320.90155 L 232.5295,317.67155 z "
     id="polygon23" /><path
     d="M 232.102,324.08405 L 233.717,324.22655 L 233.6695,324.93905 L 232.102,324.13155 L 232.102,324.08405 z "
     id="polygon25" /><path
     d="M 231.1995,336.95655 L 232.8145,337.09905 L 232.6245,340.32905 L 231.0095,340.18655 L 231.1995,336.95655 z "
     id="polygon27" /><path
     d="M 230.772,343.41655 L 232.387,343.51155 L 232.1495,346.74155 L 230.5345,346.64655 L 230.772,343.41655 z "
     id="polygon29" /><path
     d="M 230.3445,349.87655 L 231.9595,349.97155 L 231.722,353.20155 L 230.107,353.05905 L 230.3445,349.87655 z "
     id="polygon31" /><path
     d="M 229.917,356.28905 L 231.532,356.38405 L 231.2945,359.61405 L 229.6795,359.51905 L 229.917,356.28905 z "
     id="polygon33" /><path
     d="M 229.442,362.74905 L 231.057,362.84405 L 230.867,366.07405 L 229.252,365.93155 L 229.442,362.74905 z "
     id="polygon35" /><path
     d="M 230.43543,372.48259 L 228.82033,372.38794 L 229.00962,369.15775 L 230.62472,369.25239 L 230.43543,372.48259 z "
     id="rect37" /><path
     d="M 228.587,375.62155 L 230.202,375.71655 L 229.9645,378.94655 L 228.3495,378.85155 L 228.587,375.62155 z "
     id="polygon39" /><path
     d="M 228.1595,382.03405 L 229.7745,382.1281 L 229.537,385.35905 L 227.922,385.26405 L 228.1595,382.03405 z "
     id="polygon41" /><path
     d="M 227.732,388.49405 L 229.2995,388.58905 L 229.1095,391.81905 L 227.4945,391.72405 L 227.732,388.49405 z "
     id="polygon43" /><path
     d="M 227.257,394.90655 L 228.872,395.04905 L 228.682,398.23155 L 227.067,398.13655 L 227.257,394.90655 z "
     id="polygon45" /><path
     d="M 226.8295,401.3656 L 228.4445,401.46155 L 228.207,404.6906 L 226.6395,404.59655 L 226.8295,401.3656 z "
     id="polygon47" /><path
     d="M 226.402,407.7781 L 228.017,407.92155 L 227.7795,411.1031 L 226.1645,411.00905 L 226.402,407.7781 z "
     id="polygon49" /><path
     d="M 225.9745,414.23905 L 227.5895,414.33405 L 227.352,417.56405 L 225.737,417.46905 L 225.9745,414.23905 z "
     id="polygon51" /><path
     d="M 225.4995,420.65155 L 227.1145,420.79405 L 226.9245,424.02405 L 225.3095,423.88155 L 225.4995,420.65155 z "
     id="polygon53" /><path
     d="M 226.49298,430.4319 L 224.87788,430.33726 L 225.06717,427.10706 L 226.68227,427.2017 L 226.49298,430.4319 z "
     id="rect55" /><path
     d="M 224.6445,433.52405 L 226.2595,433.6656 L 226.022,436.89655 L 224.407,436.7531 L 224.6445,433.52405 z "
     id="polygon57" /><path
     d="M 224.217,439.98405 L 225.832,440.0781 L 225.5945,443.30905 L 223.9795,443.21405 L 224.217,439.98405 z "
     id="polygon59" /><path
     d="M 223.7895,446.39655 L 225.4045,446.53905 L 225.167,449.76905 L 223.552,449.62655 L 223.7895,446.39655 z "
     id="polygon61" /><path
     d="M 224.73955,456.15555 L 223.12445,456.05994 L 223.31562,452.83069 L 224.93072,452.9263 L 224.73955,456.15555 z "
     id="rect63" /><path
     d="M 222.887,459.3156 L 224.502,459.41155 L 224.312,462.6406 L 222.697,462.49905 L 222.887,459.3156 z "
     id="polygon65" /><path
     d="M 222.4595,465.7281 L 224.0745,465.82405 L 223.837,469.0531 L 222.222,468.95905 L 222.4595,465.7281 z "
     id="polygon67" /><g
     id="g69"
     transform="matrix(0.95,0,0,0.95,12.53325,18.7683)">
	<path
   d="M 188.803,202.935 L 188.803,185.747 L 191.143,185.747 L 200.147,199.235 L 200.147,185.747 L 202.335,185.747 L 202.335,202.935 L 199.995,202.935 L 190.991,189.446 L 190.991,202.935 L 188.803,202.935 z "
   id="path71" />
</g><path
     d="M 144.987,175.02905 L 144.037,174.88655 L 144.0845,173.69905 L 170.542,147.24155 L 170.827,149.18905 L 144.987,175.02905 z "
     id="polygon73" /><path
     d="M 161.5645,207.56655 L 161.137,208.46905 L 160.3295,208.65905 L 143.372,175.36155 L 144.037,174.88655 L 144.987,175.02905 L 161.5645,207.56655 z "
     id="polygon75" /><path
     d="M 189.827,201.77155 L 190.112,203.38655 L 161.9445,209.13405 L 161.137,208.46905 L 161.5645,207.56655 L 189.827,201.77155 z "
     id="polygon77" /><path
     d="M 203.3645,165.76655 L 204.267,165.33905 L 204.9795,165.86155 L 199.1845,193.41155 L 197.5695,193.07905 L 203.3645,165.76655 z "
     id="polygon79" /><path
     d="M 193.60804,192.2638 L 192.04017,191.93157 L 197.01121,168.47204 L 198.57908,168.80426 L 193.60804,192.2638 z "
     id="rect81" /><path
     d="M 170.827,149.18905 L 170.542,147.24155 L 204.267,164.43655 L 204.267,165.33905 L 203.3645,165.76655 L 170.827,149.18905 z "
     id="polygon83" /><g
     id="g85"
     transform="matrix(0.95,0,0,0.95,12.53325,18.7683)">
	<path
   d="M 271.902,202.935 L 271.902,185.747 L 274.242,185.747 L 283.246,199.235 L 283.246,185.747 L 285.434,185.747 L 285.434,202.935 L 283.094,202.935 L 274.09,189.446 L 274.09,202.935 L 271.902,202.935 z "
   id="path87" />
</g><path
     d="M 272.3345,165.76655 L 271.3845,165.33905 L 271.3845,164.43655 L 304.6345,147.52655 L 304.96605,148.23905 L 304.82545,149.18905 L 272.3345,165.76655 z "
     id="polygon89" /><path
     d="M 278.082,193.07905 L 276.5145,193.41155 L 270.672,165.86155 L 271.3845,165.33905 L 272.3345,165.76655 L 278.082,193.07905 z "
     id="polygon91" /><path
     d="M 314.08795,207.56655 L 314.5145,208.46905 L 313.99105,209.18155 L 285.49105,203.38655 L 285.82545,201.77155 L 314.08795,207.56655 z "
     id="polygon93" /><path
     d="M 311.427,201.24905 L 311.0945,202.81655 L 286.632,197.82905 L 286.9645,196.26155 L 311.427,201.24905 z "
     id="polygon95" /><path
     d="M 330.6645,175.02905 L 332.61295,174.74405 L 315.41605,208.46905 L 314.5145,208.46905 L 314.08795,207.56655 L 330.6645,175.02905 z "
     id="polygon97" /><path
     d="M 304.82545,149.18905 L 304.96605,148.23905 L 306.3445,148.47655 L 332.61295,174.74405 L 330.6645,175.02905 L 304.82545,149.18905 z "
     id="polygon99" /><path
     d="M 237.042,147.76405 L 237.8495,148.23905 L 237.8495,149.14155 L 204.9795,165.86155 L 204.267,165.33905 L 204.267,164.43655 L 237.042,147.76405 z "
     id="polygon101" /><path
     d="M 237.8495,149.14155 L 237.8495,148.23905 L 238.657,147.76405 L 271.3845,164.43655 L 271.3845,165.33905 L 270.672,165.86155 L 237.8495,149.14155 z "
     id="polygon103" /><path
     d="M 237.4695,155.31655 L 238.182,153.84405 L 266.6345,168.33155 L 265.922,169.80405 L 237.4695,155.31655 z "
     id="polygon105" /><path
     d="M 332.51605,242.05155 L 330.71295,242.05155 L 313.99105,209.18155 L 314.5145,208.46905 L 315.41605,208.46905 L 332.51605,242.05155 z "
     id="polygon107" /><g
     id="g109"
     transform="matrix(0.95,0,0,0.95,12.53325,18.7683)">
	<path
   d="M 271.902,285.984 L 271.902,268.796 L 274.242,268.796 L 283.246,282.284 L 283.246,268.796 L 285.434,268.796 L 285.434,285.984 L 283.094,285.984 L 274.09,272.495 L 274.09,285.984 L 271.902,285.984 z "
   id="path111" />
</g><path
     d="M 305.157,336.81405 L 304.82545,334.86655 L 330.6645,309.02655 L 331.66295,309.16905 L 332.04105,309.92905 L 305.157,336.81405 z "
     id="polygon113" /><path
     d="M 271.3845,319.61905 L 271.3845,318.71655 L 272.3345,318.28905 L 304.82545,334.86655 L 305.157,336.81405 L 271.3845,319.61905 z "
     id="polygon115" /><path
     d="M 276.5145,292.16405 L 278.082,292.49655 L 272.3345,318.28905 L 271.3845,318.71655 L 270.672,318.19405 L 276.5145,292.16405 z "
     id="polygon117" /><path
     d="M 282.02545,293.39905 L 283.59105,293.73155 L 278.747,315.58155 L 277.132,315.20155 L 282.02545,293.39905 z "
     id="polygon119" /><path
     d="M 313.99105,274.87405 L 314.5145,275.58655 L 314.08795,276.48905 L 285.82545,282.28405 L 285.49105,280.71655 L 313.99105,274.87405 z "
     id="polygon121" /><path
     d="M 332.04105,308.17155 L 331.66295,309.16905 L 330.6645,309.02655 L 314.08795,276.48905 L 314.5145,275.58655 L 315.41605,275.58655 L 332.04105,308.17155 z "
     id="polygon123" /><path
     d="M 330.71295,242.05155 L 332.51605,242.05155 L 315.41605,275.58655 L 314.5145,275.58655 L 313.99105,274.87405 L 330.71295,242.05155 z "
     id="polygon125" /><path
     d="M 324.5845,241.67155 L 326.0095,242.38405 L 311.522,270.83655 L 310.097,270.12405 L 324.5845,241.67155 z "
     id="polygon127" /><path
     d="M 238.657,336.33905 L 237.8495,335.81655 L 237.8495,334.91405 L 270.672,318.19405 L 271.3845,318.71655 L 271.3845,319.61905 L 238.657,336.33905 z "
     id="polygon129" /><g
     id="g131"
     transform="matrix(0.95,0,0,0.95,12.53325,18.7683)">
	<path
   d="M 188.803,285.984 L 188.803,268.796 L 191.143,268.796 L 200.147,282.284 L 200.147,268.796 L 202.335,268.796 L 202.335,285.984 L 199.995,285.984 L 190.991,272.495 L 190.991,285.984 L 188.803,285.984 z "
   id="path133" />
</g><path
     d="M 203.3645,318.28905 L 204.267,318.71655 L 204.267,319.61905 L 171.682,336.24405 L 170.6845,335.86405 L 170.827,334.86655 L 203.3645,318.28905 z "
     id="polygon135" /><path
     d="M 197.5695,292.49655 L 199.1845,292.16405 L 204.9795,318.19405 L 204.267,318.71655 L 203.3645,318.28905 L 197.5695,292.49655 z "
     id="polygon137" /><path
     d="M 161.5645,276.48905 L 161.137,275.58655 L 161.9445,274.92155 L 190.112,280.71655 L 189.827,282.28405 L 161.5645,276.48905 z "
     id="polygon139" /><path
     d="M 144.987,309.02655 L 144.037,309.16905 L 143.5145,308.40905 L 159.902,276.25155 L 161.137,275.58655 L 161.5645,276.48905 L 144.987,309.02655 z "
     id="polygon141" /><path
     d="M 170.827,334.86655 L 170.6845,335.86405 L 169.9245,336.24405 L 143.752,310.07155 L 144.037,309.16905 L 144.987,309.02655 L 170.827,334.86655 z "
     id="polygon143" /><path
     d="M 237.8495,334.91405 L 237.8495,335.81655 L 237.042,336.33905 L 204.267,319.61905 L 204.267,318.71655 L 204.9795,318.19405 L 237.8495,334.91405 z "
     id="polygon145" /><path
     d="M 238.182,328.78655 L 237.4695,330.21155 L 209.017,315.72405 L 209.777,314.29905 L 238.182,328.78655 z "
     id="polygon147" /><g
     id="g149"
     transform="matrix(0.95,0,0,0.95,12.53325,18.7683)">
	<path
   d="M 242.519,238.357 L 244.8,238.931 C 244.324,240.801 243.467,242.227 242.231,243.208 C 240.994,244.19 239.481,244.681 237.694,244.681 C 235.844,244.681 234.34,244.304 233.181,243.549 C 232.022,242.794 231.14,241.702 230.535,240.271 C 229.93,238.84 229.628,237.304 229.628,235.662 C 229.628,233.871 229.969,232.309 230.652,230.976 C 231.335,229.642 232.306,228.63 233.567,227.938 C 234.827,227.246 236.213,226.9 237.727,226.9 C 239.444,226.9 240.887,227.338 242.057,228.214 C 243.228,229.091 244.043,230.323 244.503,231.911 L 242.269,232.438 C 241.871,231.188 241.294,230.278 240.538,229.708 C 239.781,229.138 238.829,228.853 237.683,228.853 C 236.365,228.853 235.263,229.169 234.377,229.802 C 233.492,230.435 232.87,231.284 232.511,232.351 C 232.152,233.418 231.973,234.517 231.973,235.65 C 231.973,237.111 232.185,238.386 232.61,239.476 C 233.035,240.566 233.695,241.38 234.592,241.919 C 235.489,242.458 236.459,242.728 237.504,242.728 C 238.775,242.728 239.85,242.361 240.731,241.626 C 241.612,240.891 242.207,239.803 242.519,238.357 z "
   id="path151" />
	<path
   d="M 246.554,238.158 C 246.554,235.851 247.195,234.144 248.475,233.034 C 249.545,232.111 250.85,231.65 252.388,231.65 C 254.098,231.65 255.496,232.211 256.582,233.333 C 257.667,234.455 258.21,236.005 258.21,237.982 C 258.21,239.585 257.97,240.845 257.489,241.763 C 257.009,242.682 256.31,243.395 255.392,243.904 C 254.474,244.412 253.472,244.666 252.387,244.666 C 250.646,244.666 249.238,244.107 248.164,242.989 C 247.09,241.871 246.554,240.262 246.554,238.158 z M 248.726,238.16 C 248.726,239.755 249.073,240.948 249.767,241.742 C 250.461,242.535 251.334,242.931 252.388,242.931 C 253.433,242.931 254.303,242.533 254.997,241.736 C 255.691,240.938 256.038,239.723 256.038,238.09 C 256.038,236.551 255.689,235.384 254.991,234.59 C 254.293,233.797 253.425,233.401 252.387,233.401 C 251.333,233.401 250.46,233.796 249.766,234.585 C 249.072,235.374 248.726,236.566 248.726,238.16 z "
   id="path153" />
</g><g
     id="g155"
     transform="matrix(0.95,0,0,0.95,12.53325,18.7683)">
	<path
   d="M 260.007,233.307 L 260.007,229.776 L 256.507,229.776 L 256.507,228.292 L 260.007,228.292 L 260.007,224.792 L 261.507,224.792 L 261.507,228.292 L 265.007,228.292 L 265.007,229.776 L 261.507,229.776 L 261.507,233.307 L 260.007,233.307 z "
   id="path157" />
</g><g
     id="g159"
     transform="matrix(0.95,0,0,0.95,12.53325,18.7683)">
	<path
   d="M 242.619,100.058 L 244.9,100.632 C 244.424,102.502 243.567,103.928 242.331,104.909 C 241.094,105.891 239.581,106.382 237.794,106.382 C 235.944,106.382 234.44,106.005 233.281,105.25 C 232.122,104.495 231.24,103.403 230.635,101.972 C 230.03,100.541 229.728,99.005 229.728,97.363 C 229.728,95.572 230.069,94.01 230.752,92.677 C 231.435,91.343 232.406,90.331 233.667,89.639 C 234.927,88.947 236.313,88.601 237.827,88.601 C 239.544,88.601 240.987,89.039 242.157,89.915 C 243.328,90.792 244.143,92.024 244.603,93.612 L 242.369,94.139 C 241.971,92.889 241.394,91.979 240.638,91.409 C 239.881,90.839 238.929,90.554 237.783,90.554 C 236.465,90.554 235.363,90.87 234.477,91.503 C 233.592,92.136 232.97,92.985 232.611,94.052 C 232.252,95.119 232.073,96.218 232.073,97.351 C 232.073,98.812 232.285,100.087 232.71,101.177 C 233.135,102.267 233.795,103.081 234.692,103.62 C 235.589,104.159 236.559,104.429 237.604,104.429 C 238.875,104.429 239.95,104.062 240.831,103.327 C 241.712,102.592 242.307,101.503 242.619,100.058 z "
   id="path161" />
	<path
   d="M 247.794,106.085 L 247.794,88.897 L 250.076,88.897 L 250.076,95.96 L 258.967,95.96 L 258.967,88.897 L 261.248,88.897 L 261.248,106.085 L 258.967,106.085 L 258.967,97.991 L 250.076,97.991 L 250.076,106.085 L 247.794,106.085 L 247.794,106.085 z "
   id="path163" />
</g><g
     id="g165"
     transform="matrix(0.95,0,0,0.95,12.53325,18.7683)">
	<path
   d="M 262.845,107.179 L 264.423,106.96 C 264.606,107.856 264.915,108.503 265.351,108.898 C 265.788,109.294 266.323,109.492 266.958,109.492 C 267.711,109.492 268.344,109.234 268.857,108.719 C 269.369,108.204 269.626,107.566 269.626,106.805 C 269.626,106.078 269.388,105.48 268.91,105.008 C 268.433,104.537 267.826,104.301 267.091,104.301 C 266.79,104.301 266.416,104.36 265.969,104.477 L 266.146,103.086 C 266.252,103.098 266.337,103.104 266.402,103.104 C 267.077,103.104 267.683,102.928 268.223,102.578 C 268.762,102.227 269.033,101.686 269.033,100.955 C 269.033,100.376 268.836,99.896 268.442,99.517 C 268.047,99.137 267.54,98.947 266.917,98.947 C 266.3,98.947 265.785,99.141 265.374,99.529 C 264.962,99.918 264.697,100.5 264.58,101.275 L 263.002,100.994 C 263.195,99.932 263.636,99.109 264.322,98.525 C 265.009,97.942 265.862,97.65 266.883,97.65 C 267.587,97.65 268.236,97.8 268.827,98.102 C 269.42,98.403 269.873,98.814 270.187,99.334 C 270.5,99.855 270.658,100.407 270.658,100.992 C 270.658,101.548 270.509,102.054 270.21,102.51 C 269.911,102.966 269.469,103.328 268.883,103.598 C 269.645,103.774 270.237,104.138 270.662,104.693 C 271.087,105.246 271.299,105.939 271.299,106.771 C 271.299,107.896 270.888,108.85 270.066,109.632 C 269.245,110.415 268.206,110.806 266.95,110.806 C 265.816,110.806 264.876,110.47 264.128,109.796 C 263.377,109.122 262.95,108.249 262.845,107.179 z "
   id="path167" />
</g><path
     d="M 237.042,121.92405 L 238.657,121.92405 L 238.657,147.76405 L 237.8495,148.23905 L 237.042,147.76405 L 237.042,121.92405 z "
     id="polygon169" /><g
     id="g171"
     transform="matrix(0.95,0,0,0.95,12.53325,18.7683)">
	<path
   d="M 242.619,376.808 L 244.9,377.382 C 244.424,379.252 243.567,380.678 242.331,381.659 C 241.094,382.641 239.581,383.132 237.794,383.132 C 235.944,383.132 234.44,382.755 233.281,382 C 232.122,381.245 231.24,380.153 230.635,378.722 C 230.03,377.291 229.728,375.755 229.728,374.113 C 229.728,372.322 230.069,370.76 230.752,369.427 C 231.435,368.093 232.406,367.081 233.667,366.389 C 234.927,365.697 236.313,365.351 237.827,365.351 C 239.544,365.351 240.987,365.789 242.157,366.665 C 243.328,367.542 244.143,368.774 244.603,370.362 L 242.369,370.889 C 241.971,369.639 241.394,368.729 240.638,368.159 C 239.881,367.589 238.929,367.304 237.783,367.304 C 236.465,367.304 235.363,367.62 234.477,368.253 C 233.592,368.886 232.97,369.735 232.611,370.802 C 232.252,371.869 232.073,372.968 232.073,374.101 C 232.073,375.562 232.285,376.837 232.71,377.927 C 233.135,379.017 233.795,379.831 234.692,380.37 C 235.589,380.909 236.559,381.179 237.604,381.179 C 238.875,381.179 239.95,380.812 240.831,380.077 C 241.712,379.342 242.307,378.253 242.619,376.808 z "
   id="path173" />
	<path
   d="M 247.794,382.835 L 247.794,365.647 L 250.076,365.647 L 250.076,372.71 L 258.967,372.71 L 258.967,365.647 L 261.248,365.647 L 261.248,382.835 L 258.967,382.835 L 258.967,374.741 L 250.076,374.741 L 250.076,382.835 L 247.794,382.835 z "
   id="path175" />
</g><g
     id="g177"
     transform="matrix(0.95,0,0,0.95,12.53325,18.7683)">
	<path
   d="M 262.845,383.929 L 264.423,383.71 C 264.606,384.606 264.915,385.253 265.351,385.648 C 265.788,386.044 266.323,386.242 266.958,386.242 C 267.711,386.242 268.344,385.984 268.857,385.469 C 269.369,384.954 269.626,384.316 269.626,383.555 C 269.626,382.828 269.388,382.23 268.91,381.758 C 268.433,381.287 267.826,381.051 267.091,381.051 C 266.79,381.051 266.416,381.11 265.969,381.227 L 266.146,379.836 C 266.252,379.848 266.337,379.854 266.402,379.854 C 267.077,379.854 267.683,379.678 268.223,379.328 C 268.762,378.977 269.033,378.436 269.033,377.705 C 269.033,377.126 268.836,376.646 268.442,376.267 C 268.047,375.887 267.54,375.697 266.917,375.697 C 266.3,375.697 265.785,375.891 265.374,376.279 C 264.962,376.668 264.697,377.25 264.58,378.025 L 263.002,377.744 C 263.195,376.682 263.636,375.859 264.322,375.275 C 265.009,374.692 265.862,374.4 266.883,374.4 C 267.587,374.4 268.236,374.55 268.827,374.852 C 269.42,375.153 269.873,375.564 270.187,376.084 C 270.5,376.605 270.658,377.157 270.658,377.742 C 270.658,378.298 270.509,378.804 270.21,379.26 C 269.911,379.716 269.469,380.078 268.883,380.348 C 269.645,380.524 270.237,380.888 270.662,381.443 C 271.087,381.996 271.299,382.689 271.299,383.521 C 271.299,384.646 270.888,385.6 270.066,386.382 C 269.245,387.165 268.206,387.556 266.95,387.556 C 265.816,387.556 264.876,387.22 264.128,386.546 C 263.377,385.872 262.95,384.999 262.845,383.929 z "
   id="path179" />
</g><path
     d="M 238.657,363.74655 L 237.042,363.74655 L 237.042,336.33905 L 237.8495,335.81655 L 238.657,336.33905 L 238.657,363.74655 z "
     id="polygon181" /><path
     d="M 365.102,165.90905 L 366.24105,173.08155 L 364.627,173.17655 L 363.5345,166.28905 L 365.102,165.90905 z "
     id="polygon183" /><path
     d="M 361.872,166.71655 L 362.91605,173.31905 L 361.302,173.41405 L 360.30355,167.09655 L 361.872,166.71655 z "
     id="polygon185" /><path
     d="M 358.6895,167.52405 L 359.6395,173.50905 L 358.02545,173.65155 L 357.122,167.90405 L 358.6895,167.52405 z "
     id="polygon187" /><path
     d="M 355.507,168.33155 L 356.36295,173.74655 L 354.747,173.84155 L 353.9395,168.71155 L 355.507,168.33155 z "
     id="polygon189" /><path
     d="M 352.277,169.13905 L 353.03795,173.98405 L 351.422,174.07905 L 350.7095,169.51905 L 352.277,169.13905 z "
     id="polygon191" /><path
     d="M 349.0945,169.94655 L 349.7595,174.17405 L 348.1445,174.31655 L 347.527,170.32655 L 349.0945,169.94655 z "
     id="polygon193" /><path
     d="M 345.8645,170.75405 L 346.482,174.41155 L 344.86605,174.50655 L 344.297,171.13405 L 345.8645,170.75405 z "
     id="polygon195" /><path
     d="M 342.682,171.56155 L 343.157,174.64905 L 341.54105,174.74405 L 341.1145,171.94155 L 342.682,171.56155 z "
     id="polygon197" /><path
     d="M 339.50045,172.36905 L 339.87855,174.83905 L 338.2645,174.93405 L 337.932,172.74905 L 339.50045,172.36905 z "
     id="polygon199" /><path
     d="M 336.2695,173.17655 L 336.602,175.07655 L 334.98795,175.17155 L 334.702,173.55655 L 336.2695,173.17655 z "
     id="polygon201" /><path
     d="M 161.707,114.79905 L 168.8795,113.65905 L 168.9745,115.27405 L 162.087,116.36655 L 161.707,114.79905 z "
     id="polygon203" /><path
     d="M 162.5145,117.98155 L 169.117,116.93655 L 169.212,118.55155 L 162.8945,119.54905 L 162.5145,117.98155 z "
     id="polygon205" /><path
     d="M 163.322,121.16405 L 169.307,120.21405 L 169.4495,121.82905 L 163.702,122.77905 L 163.322,121.16405 z "
     id="polygon207" /><path
     d="M 164.1295,124.39405 L 169.5445,123.53905 L 169.6395,125.15405 L 164.5095,125.96155 L 164.1295,124.39405 z "
     id="polygon209" /><path
     d="M 164.937,127.57655 L 169.782,126.81655 L 169.877,128.43155 L 165.317,129.14405 L 164.937,127.57655 z "
     id="polygon211" /><path
     d="M 165.7445,130.75905 L 169.972,130.09405 L 170.1145,131.70905 L 166.1245,132.37405 L 165.7445,130.75905 z "
     id="polygon213" /><path
     d="M 166.552,133.98905 L 170.2095,133.41905 L 170.3045,135.03405 L 166.932,135.55655 L 166.552,133.98905 z "
     id="polygon215" /><path
     d="M 167.3595,137.17155 L 170.447,136.69655 L 170.542,138.31155 L 167.7395,138.73905 L 167.3595,137.17155 z "
     id="polygon217" /><path
     d="M 168.167,140.40155 L 170.637,139.97405 L 170.732,141.58905 L 168.547,141.96905 L 168.167,140.40155 z "
     id="polygon219" /><path
     d="M 168.9745,143.58405 L 170.8745,143.29905 L 170.9695,144.91405 L 169.402,145.15155 L 168.9745,143.58405 z "
     id="polygon221" /><g
     id="g223"
     transform="matrix(0.95,0,0,0.95,12.53325,18.7683)">
	<path
   d="M 81.65,209.135 L 81.65,191.947 L 83.931,191.947 L 83.931,199.01 L 92.822,199.01 L 92.822,191.947 L 95.103,191.947 L 95.103,209.135 L 92.822,209.135 L 92.822,201.041 L 83.931,201.041 L 83.931,209.135 L 81.65,209.135 z "
   id="path225" />
</g><g
     id="g227"
     transform="matrix(0.95,0,0,0.95,12.53325,18.7683)">
	<path
   d="M 97.111,210.229 L 98.689,210.01 C 98.872,210.906 99.181,211.553 99.617,211.948 C 100.054,212.344 100.589,212.542 101.224,212.542 C 101.977,212.542 102.61,212.284 103.123,211.769 C 103.636,211.254 103.892,210.616 103.892,209.855 C 103.892,209.128 103.654,208.53 103.176,208.058 C 102.699,207.587 102.093,207.351 101.357,207.351 C 101.056,207.351 100.682,207.41 100.235,207.527 L 100.412,206.136 C 100.518,206.148 100.603,206.154 100.668,206.154 C 101.342,206.154 101.949,205.978 102.489,205.628 C 103.029,205.277 103.299,204.736 103.299,204.005 C 103.299,203.426 103.102,202.946 102.708,202.567 C 102.314,202.187 101.806,201.997 101.183,201.997 C 100.566,201.997 100.051,202.191 99.64,202.579 C 99.228,202.968 98.964,203.55 98.847,204.325 L 97.269,204.044 C 97.462,202.982 97.903,202.159 98.589,201.575 C 99.275,200.992 100.129,200.7 101.15,200.7 C 101.854,200.7 102.503,200.85 103.095,201.152 C 103.687,201.453 104.14,201.864 104.455,202.384 C 104.768,202.905 104.926,203.457 104.926,204.042 C 104.926,204.598 104.777,205.104 104.478,205.56 C 104.179,206.016 103.737,206.378 103.151,206.648 C 103.913,206.824 104.505,207.188 104.93,207.743 C 105.354,208.296 105.567,208.989 105.567,209.821 C 105.567,210.946 105.156,211.9 104.334,212.682 C 103.512,213.465 102.473,213.856 101.217,213.856 C 100.084,213.856 99.143,213.52 98.395,212.846 C 97.644,212.172 97.217,211.299 97.111,210.229 z "
   id="path229" />
</g><g
     id="g231"
     transform="matrix(0.95,0,0,0.95,12.53325,18.7683)">
	<path
   d="M 119.689,203.107 L 121.97,203.681 C 121.494,205.551 120.637,206.977 119.401,207.958 C 118.164,208.94 116.651,209.431 114.864,209.431 C 113.014,209.431 111.51,209.054 110.351,208.299 C 109.192,207.544 108.31,206.452 107.705,205.021 C 107.1,203.59 106.798,202.054 106.798,200.412 C 106.798,198.621 107.139,197.059 107.822,195.726 C 108.505,194.392 109.476,193.38 110.737,192.688 C 111.997,191.996 113.383,191.65 114.897,191.65 C 116.614,191.65 118.057,192.088 119.227,192.964 C 120.398,193.841 121.213,195.073 121.673,196.661 L 119.439,197.188 C 119.041,195.938 118.464,195.028 117.708,194.458 C 116.951,193.888 115.999,193.603 114.853,193.603 C 113.535,193.603 112.433,193.919 111.547,194.552 C 110.662,195.185 110.04,196.034 109.681,197.101 C 109.322,198.168 109.143,199.267 109.143,200.4 C 109.143,201.861 109.355,203.136 109.78,204.226 C 110.205,205.316 110.865,206.13 111.762,206.669 C 112.659,207.208 113.629,207.478 114.674,207.478 C 115.945,207.478 117.02,207.111 117.901,206.376 C 118.782,205.641 119.377,204.553 119.689,203.107 z "
   id="path233" />
</g><path
     d="M 132.8745,212.12655 L 132.8745,204.85905 L 134.4895,205.00155 L 134.4895,211.93655 L 132.8745,212.12655 z "
     id="polygon235" /><path
     d="M 136.1995,211.74655 L 136.1995,205.23905 L 137.8145,205.38155 L 137.8145,211.55655 L 136.1995,211.74655 z "
     id="polygon237" /><path
     d="M 139.572,211.36655 L 139.572,205.57155 L 141.187,205.76155 L 141.187,211.17655 L 139.572,211.36655 z "
     id="polygon239" /><path
     d="M 142.897,210.98655 L 142.897,205.95155 L 144.512,206.14155 L 144.512,210.79655 L 142.897,210.98655 z "
     id="polygon241" /><path
     d="M 146.2695,210.60655 L 146.2695,206.33155 L 147.8845,206.52155 L 147.8845,210.41655 L 146.2695,210.60655 z "
     id="polygon243" /><path
     d="M 149.5945,210.22655 L 149.5945,206.71155 L 151.2095,206.90155 L 151.2095,210.03655 L 149.5945,210.22655 z "
     id="polygon245" /><path
     d="M 152.9195,209.84655 L 152.9195,207.09155 L 154.582,207.28155 L 154.582,209.65655 L 152.9195,209.84655 z "
     id="polygon247" /><path
     d="M 156.292,209.46655 L 156.292,207.47155 L 157.907,207.66155 L 157.907,209.27655 L 156.292,209.46655 z "
     id="polygon249" /><path
     d="M 229.5845,248.98655 L 230.772,250.12655 L 207.307,273.63905 L 206.167,272.49905 L 229.5845,248.98655 z "
     id="polygon251" /><path
     d="M 244.832,234.87905 L 253.382,220.58155 L 254.85355,224.90405 L 259.177,226.37655 L 244.832,234.87905 z "
     id="polygon253" /><path
     d="M 255.42545,225.47405 L 254.2845,224.33405 L 267.4895,211.17655 L 268.62855,212.31655 L 255.42545,225.47405 z "
     id="polygon255" /><path
     d="M 250.4845,254.68655 L 264.782,263.23655 L 260.4595,264.70905 L 258.98795,269.03155 L 250.4845,254.68655 z "
     id="polygon257" /><path
     d="M 259.8895,265.27905 L 261.02855,264.13905 L 269.43795,272.49905 L 268.297,273.63905 L 259.8895,265.27905 z "
     id="polygon259" /><path
     d="M 231.057,235.30655 L 216.712,226.75655 L 221.082,225.28405 L 222.5545,220.96155 L 231.057,235.30655 z "
     id="polygon261" /><path
     d="M 221.652,224.71405 L 220.4645,225.85405 L 206.9745,212.31655 L 208.1145,211.17655 L 221.652,224.71405 z "
     id="polygon263" /><g
     id="g265"
     transform="matrix(0.95,0,0,0.95,12.53325,18.7683)">
	<path
   d="M 64.95,184.035 L 64.95,166.847 L 67.231,166.847 L 67.231,173.91 L 76.122,173.91 L 76.122,166.847 L 78.403,166.847 L 78.403,184.035 L 76.122,184.035 L 76.122,175.941 L 67.231,175.941 L 67.231,184.035 L 64.95,184.035 z "
   id="path267" />
</g><g
     id="g269"
     transform="matrix(0.95,0,0,0.95,12.53325,18.7683)">
	<path
   d="M 80.411,185.129 L 81.989,184.91 C 82.172,185.806 82.481,186.453 82.917,186.848 C 83.354,187.244 83.889,187.442 84.524,187.442 C 85.277,187.442 85.91,187.184 86.423,186.669 C 86.936,186.154 87.192,185.516 87.192,184.755 C 87.192,184.028 86.954,183.43 86.476,182.958 C 85.999,182.487 85.393,182.251 84.657,182.251 C 84.356,182.251 83.982,182.31 83.535,182.427 L 83.712,181.036 C 83.818,181.048 83.903,181.054 83.968,181.054 C 84.642,181.054 85.249,180.878 85.789,180.528 C 86.329,180.177 86.599,179.636 86.599,178.905 C 86.599,178.326 86.402,177.846 86.008,177.467 C 85.614,177.087 85.106,176.897 84.483,176.897 C 83.866,176.897 83.351,177.091 82.94,177.479 C 82.528,177.868 82.264,178.45 82.147,179.225 L 80.569,178.944 C 80.762,177.882 81.203,177.059 81.889,176.475 C 82.575,175.892 83.429,175.6 84.45,175.6 C 85.154,175.6 85.803,175.75 86.395,176.052 C 86.987,176.353 87.44,176.764 87.755,177.284 C 88.068,177.805 88.226,178.357 88.226,178.942 C 88.226,179.498 88.077,180.004 87.778,180.46 C 87.479,180.916 87.037,181.278 86.451,181.548 C 87.213,181.724 87.805,182.088 88.23,182.643 C 88.654,183.196 88.867,183.889 88.867,184.721 C 88.867,185.846 88.456,186.8 87.634,187.582 C 86.812,188.365 85.773,188.756 84.517,188.756 C 83.384,188.756 82.443,188.42 81.695,187.746 C 80.943,187.072 80.517,186.199 80.411,185.129 z "
   id="path271" />
</g><g
     id="g273"
     transform="matrix(0.95,0,0,0.95,12.53325,18.7683)">
	<path
   d="M 102.989,178.008 L 105.27,178.582 C 104.794,180.452 103.937,181.878 102.701,182.859 C 101.464,183.841 99.951,184.332 98.164,184.332 C 96.314,184.332 94.81,183.955 93.651,183.2 C 92.492,182.445 91.61,181.353 91.005,179.922 C 90.4,178.491 90.098,176.955 90.098,175.313 C 90.098,173.522 90.439,171.96 91.122,170.627 C 91.805,169.293 92.776,168.281 94.037,167.589 C 95.297,166.897 96.683,166.551 98.197,166.551 C 99.914,166.551 101.357,166.989 102.527,167.865 C 103.698,168.742 104.513,169.974 104.973,171.562 L 102.739,172.089 C 102.341,170.839 101.764,169.929 101.008,169.359 C 100.251,168.789 99.299,168.504 98.153,168.504 C 96.835,168.504 95.733,168.82 94.847,169.453 C 93.962,170.086 93.34,170.935 92.981,172.002 C 92.622,173.069 92.443,174.168 92.443,175.301 C 92.443,176.762 92.655,178.037 93.08,179.127 C 93.505,180.217 94.165,181.031 95.062,181.57 C 95.959,182.109 96.929,182.379 97.974,182.379 C 99.245,182.379 100.32,182.012 101.201,181.277 C 102.082,180.542 102.677,179.453 102.989,178.008 z "
   id="path275" />
</g><path
     d="M 117.8645,185.66905 L 115.9645,178.63905 L 117.5795,178.40155 L 119.3845,185.05155 L 117.8645,185.66905 z "
     id="polygon277" /><path
     d="M 120.952,184.43405 L 119.2895,178.11655 L 120.9045,177.87905 L 122.472,183.81655 L 120.952,184.43405 z "
     id="polygon279" /><path
     d="M 124.087,183.19905 L 122.567,177.64155 L 124.182,177.40405 L 125.5595,182.62905 L 124.087,183.19905 z "
     id="polygon281" /><path
     d="M 127.1745,181.96405 L 125.892,177.16655 L 127.507,176.92905 L 128.6945,181.39405 L 127.1745,181.96405 z "
     id="polygon283" /><path
     d="M 130.262,180.77655 L 129.1695,176.64405 L 130.7845,176.40655 L 131.782,180.15905 L 130.262,180.77655 z "
     id="polygon285" /><path
     d="M 133.397,179.54155 L 132.4945,176.16905 L 134.1095,175.93155 L 134.917,178.92405 L 133.397,179.54155 z "
     id="polygon287" /><path
     d="M 136.4845,178.30655 L 135.772,175.69405 L 137.387,175.40905 L 138.0045,177.73655 L 136.4845,178.30655 z "
     id="polygon289" /><path
     d="M 139.572,177.11905 L 139.097,175.17155 L 140.712,174.93405 L 141.092,176.50155 L 139.572,177.11905 z "
     id="polygon291" /><path
     d="M 117.057,152.70405 L 117.627,142.96655 L 144.0845,173.69905 L 144.037,174.88655 L 143.372,175.36155 L 117.057,152.70405 z "
     id="polygon293" /><path
     d="M 193.1995,86.96405 L 194.957,87.62905 L 165.317,111.66405 L 164.272,110.38155 L 193.1995,86.96405 z "
     id="polygon295" /><path
     d="M 187.452,50.72155 L 188.877,49.53405 L 194.957,87.62905 L 193.1995,86.96405 L 187.452,50.72155 z "
     id="polygon297" /><path
     d="M 112.5445,111.09405 L 114.017,109.95405 L 117.627,142.96655 L 117.057,152.70405 L 112.5445,111.09405 z "
     id="polygon299" /><path
     d="M 336.8395,125.53405 L 338.45355,132.99155 L 306.3445,148.47655 L 304.96605,148.23905 L 304.58795,147.52655 L 336.8395,125.53405 z "
     id="polygon301" /><g
     id="g303"
     transform="matrix(0.95,0,0,0.95,12.53325,18.7683)">
	<path
   d="M 34.6,90.035 L 34.6,72.848 L 36.881,72.848 L 36.881,79.911 L 45.772,79.911 L 45.772,72.848 L 48.053,72.848 L 48.053,90.036 L 45.772,90.036 L 45.772,81.942 L 36.881,81.942 L 36.881,90.036 L 34.6,90.036 L 34.6,90.035 z "
   id="path305" />
</g><g
     id="g307"
     transform="matrix(0.95,0,0,0.95,12.53325,18.7683)">
	<path
   d="M 58.374,93.02 L 58.374,94.536 L 49.843,94.536 C 49.831,94.155 49.893,93.789 50.029,93.436 C 50.247,92.856 50.596,92.286 51.077,91.724 C 51.557,91.162 52.247,90.513 53.147,89.776 C 54.543,88.624 55.489,87.713 55.987,87.043 C 56.485,86.373 56.734,85.739 56.734,85.14 C 56.734,84.514 56.509,83.986 56.059,83.556 C 55.609,83.126 55.022,82.911 54.299,82.911 C 53.533,82.911 52.922,83.14 52.463,83.599 C 52.004,84.057 51.772,84.693 51.766,85.504 L 50.141,85.332 C 50.252,84.117 50.672,83.19 51.401,82.553 C 52.129,81.916 53.107,81.598 54.335,81.598 C 55.574,81.598 56.555,81.941 57.277,82.627 C 57.999,83.313 58.36,84.162 58.36,85.177 C 58.36,85.694 58.254,86.2 58.043,86.698 C 57.832,87.196 57.48,87.72 56.99,88.272 C 56.499,88.823 55.686,89.58 54.55,90.541 C 53.599,91.338 52.988,91.879 52.717,92.162 C 52.446,92.447 52.221,92.732 52.044,93.019 L 58.374,93.019 L 58.374,93.02 z "
   id="path309" />
</g><g
     id="g311"
     transform="matrix(0.95,0,0,0.95,12.53325,18.7683)">
	<path
   d="M 60.373,90.035 L 60.373,72.848 L 62.713,72.848 L 71.717,86.336 L 71.717,72.848 L 73.905,72.848 L 73.905,90.036 L 71.565,90.036 L 62.561,76.547 L 62.561,90.036 L 60.373,90.036 L 60.373,90.035 z "
   id="path313" />
</g><path
     d="M 87.9395,100.21655 L 88.557,98.74405 L 114.017,109.95405 L 112.5445,111.09405 L 87.9395,100.21655 z "
     id="polygon315" /><g
     id="g317"
     transform="matrix(0.95,0,0,0.95,12.53325,18.7683)">
	<path
   d="M 129.831,74.27 C 129.831,71.418 130.597,69.185 132.129,67.571 C 133.661,65.958 135.639,65.151 138.062,65.151 C 139.649,65.151 141.079,65.53 142.353,66.288 C 143.627,67.046 144.598,68.103 145.267,69.459 C 145.935,70.815 146.269,72.353 146.269,74.071 C 146.269,75.813 145.917,77.373 145.214,78.748 C 144.51,80.124 143.514,81.165 142.224,81.872 C 140.934,82.579 139.543,82.933 138.05,82.933 C 136.432,82.933 134.986,82.542 133.712,81.761 C 132.438,80.98 131.473,79.913 130.816,78.561 C 130.159,77.208 129.831,75.777 129.831,74.27 z M 132.175,74.299 C 132.175,76.369 132.732,78 133.846,79.192 C 134.96,80.384 136.358,80.979 138.038,80.979 C 139.75,80.979 141.159,80.377 142.266,79.174 C 143.372,77.971 143.925,76.264 143.925,74.053 C 143.925,72.655 143.689,71.434 143.216,70.391 C 142.743,69.348 142.051,68.539 141.14,67.965 C 140.229,67.391 139.207,67.104 138.074,67.104 C 136.464,67.104 135.078,67.657 133.917,68.762 C 132.756,69.867 132.175,71.713 132.175,74.299 z "
   id="path319" />
</g><path
     d="M 132.732,91.76155 L 133.7295,93.09155 L 110.787,109.85905 L 109.837,108.52905 L 132.732,91.76155 z "
     id="polygon321" /><path
     d="M 136.1045,96.32155 L 137.0545,97.65155 L 114.112,114.41905 L 113.162,113.08905 L 136.1045,96.32155 z "
     id="polygon323" /><g
     id="g325"
     transform="matrix(0.95,0,0,0.95,12.53325,18.7683)">
	<path
   d="M 207.481,9.119 C 207.481,6.267 208.247,4.034 209.779,2.42 C 211.311,0.807 213.289,0 215.712,0 C 217.299,0 218.729,0.379 220.003,1.137 C 221.277,1.895 222.248,2.952 222.917,4.308 C 223.585,5.664 223.919,7.202 223.919,8.92 C 223.919,10.662 223.567,12.222 222.864,13.597 C 222.16,14.973 221.164,16.014 219.874,16.721 C 218.584,17.428 217.193,17.782 215.7,17.782 C 214.082,17.782 212.636,17.391 211.362,16.61 C 210.088,15.829 209.123,14.762 208.466,13.41 C 207.809,12.058 207.481,10.627 207.481,9.119 z M 209.825,9.148 C 209.825,11.218 210.382,12.849 211.496,14.041 C 212.61,15.233 214.008,15.828 215.688,15.828 C 217.4,15.828 218.809,15.226 219.916,14.023 C 221.022,12.82 221.575,11.113 221.575,8.902 C 221.575,7.504 221.339,6.283 220.866,5.24 C 220.393,4.197 219.701,3.388 218.79,2.814 C 217.879,2.24 216.857,1.953 215.724,1.953 C 214.114,1.953 212.728,2.506 211.567,3.611 C 210.406,4.716 209.825,6.563 209.825,9.148 z "
   id="path327" />
</g><path
     d="M 206.642,30.48655 L 207.687,31.72155 L 185.647,49.58155 L 184.602,48.29905 L 206.642,30.48655 z "
     id="polygon329" /><path
     d="M 210.2045,34.85655 L 211.2495,36.09155 L 189.2095,53.95155 L 188.1645,52.71655 L 210.2045,34.85655 z "
     id="polygon331" /><g
     id="g333"
     transform="matrix(0.95,0,0,0.95,12.53325,18.7683)">
	<path
   d="M 112.7,28.234 L 112.7,11.047 L 114.981,11.047 L 114.981,18.11 L 123.872,18.11 L 123.872,11.047 L 126.153,11.047 L 126.153,28.235 L 123.872,28.235 L 123.872,20.141 L 114.981,20.141 L 114.981,28.235 L 112.7,28.235 L 112.7,28.234 z "
   id="path335" />
</g><g
     id="g337"
     transform="matrix(0.95,0,0,0.95,12.53325,18.7683)">
	<path
   d="M 136.474,31.219 L 136.474,32.735 L 127.943,32.735 C 127.931,32.354 127.993,31.988 128.129,31.635 C 128.347,31.055 128.696,30.485 129.177,29.923 C 129.657,29.361 130.347,28.712 131.247,27.975 C 132.643,26.823 133.589,25.912 134.087,25.242 C 134.585,24.572 134.834,23.938 134.834,23.339 C 134.834,22.713 134.609,22.185 134.159,21.755 C 133.709,21.325 133.122,21.11 132.399,21.11 C 131.633,21.11 131.022,21.339 130.563,21.798 C 130.104,22.256 129.872,22.892 129.866,23.703 L 128.241,23.531 C 128.352,22.316 128.772,21.389 129.501,20.752 C 130.229,20.115 131.207,19.797 132.435,19.797 C 133.674,19.797 134.655,20.14 135.377,20.826 C 136.099,21.512 136.46,22.361 136.46,23.376 C 136.46,23.893 136.354,24.399 136.143,24.897 C 135.932,25.395 135.58,25.919 135.09,26.471 C 134.599,27.022 133.786,27.779 132.65,28.74 C 131.699,29.537 131.088,30.078 130.817,30.361 C 130.546,30.646 130.321,30.931 130.144,31.218 L 136.474,31.218 L 136.474,31.219 z "
   id="path339" />
</g><g
     id="g341"
     transform="matrix(0.95,0,0,0.95,12.53325,18.7683)">
	<path
   d="M 138.473,28.234 L 138.473,11.047 L 140.813,11.047 L 149.817,24.535 L 149.817,11.047 L 152.005,11.047 L 152.005,28.235 L 149.665,28.235 L 140.661,14.746 L 140.661,28.235 L 138.473,28.235 L 138.473,28.234 z "
   id="path343" />
</g><path
     d="M 162.0395,40.93655 L 162.657,39.46405 L 188.877,49.53405 L 187.452,50.72155 L 162.0395,40.93655 z "
     id="polygon345" /><g
     id="g347"
     transform="matrix(0.95,0,0,0.95,12.53325,18.7683)">
	<path
   d="M 303.068,101.357 L 305.349,101.931 C 304.873,103.801 304.017,105.227 302.781,106.208 C 301.543,107.19 300.031,107.681 298.244,107.681 C 296.394,107.681 294.89,107.304 293.73,106.549 C 292.572,105.794 291.689,104.702 291.085,103.271 C 290.48,101.84 290.177,100.304 290.177,98.662 C 290.177,96.871 290.519,95.309 291.201,93.976 C 291.884,92.642 292.854,91.63 294.116,90.938 C 295.376,90.246 296.762,89.9 298.276,89.9 C 299.993,89.9 301.436,90.338 302.606,91.214 C 303.776,92.091 304.591,93.323 305.051,94.911 L 302.817,95.438 C 302.42,94.188 301.842,93.278 301.087,92.708 C 300.329,92.138 299.378,91.853 298.232,91.853 C 296.914,91.853 295.812,92.169 294.925,92.802 C 294.04,93.435 293.418,94.284 293.06,95.351 C 292.701,96.417 292.521,97.517 292.521,98.65 C 292.521,100.111 292.734,101.386 293.159,102.476 C 293.584,103.566 294.244,104.38 295.14,104.919 C 296.036,105.458 297.007,105.728 298.052,105.728 C 299.323,105.728 300.398,105.361 301.279,104.626 C 302.16,103.891 302.757,102.803 303.068,101.357 z "
   id="path349" />
	<path
   d="M 308.244,107.385 L 308.244,90.197 L 310.525,90.197 L 310.525,97.26 L 319.416,97.26 L 319.416,90.197 L 321.697,90.197 L 321.697,107.385 L 319.416,107.385 L 319.416,99.291 L 310.525,99.291 L 310.525,107.385 L 308.244,107.385 z "
   id="path351" />
</g><g
     id="g353"
     transform="matrix(0.95,0,0,0.95,12.53325,18.7683)">
	<path
   d="M 323.295,108.479 L 324.873,108.26 C 325.056,109.156 325.365,109.803 325.801,110.198 C 326.238,110.594 326.774,110.792 327.408,110.792 C 328.161,110.792 328.795,110.534 329.306,110.019 C 329.82,109.504 330.076,108.866 330.076,108.105 C 330.076,107.378 329.838,106.78 329.36,106.308 C 328.883,105.837 328.277,105.601 327.541,105.601 C 327.24,105.601 326.866,105.66 326.419,105.777 L 326.596,104.386 C 326.701,104.398 326.787,104.404 326.852,104.404 C 327.526,104.404 328.133,104.228 328.673,103.878 C 329.213,103.528 329.483,102.986 329.483,102.255 C 329.483,101.676 329.286,101.196 328.892,100.817 C 328.498,100.438 327.99,100.247 327.367,100.247 C 326.75,100.247 326.235,100.441 325.823,100.829 C 325.412,101.218 325.147,101.8 325.03,102.575 L 323.452,102.294 C 323.645,101.232 324.086,100.409 324.772,99.825 C 325.458,99.242 326.311,98.95 327.333,98.95 C 328.037,98.95 328.686,99.1 329.278,99.402 C 329.87,99.703 330.323,100.114 330.637,100.634 C 330.95,101.155 331.108,101.707 331.108,102.292 C 331.108,102.848 330.959,103.354 330.66,103.81 C 330.361,104.266 329.919,104.628 329.333,104.898 C 330.095,105.074 330.687,105.438 331.112,105.993 C 331.536,106.546 331.749,107.239 331.749,108.071 C 331.749,109.196 331.338,110.15 330.517,110.932 C 329.695,111.715 328.656,112.106 327.4,112.106 C 326.267,112.106 325.326,111.77 324.578,111.096 C 323.827,110.422 323.4,109.549 323.295,108.479 z "
   id="path355" />
</g><path
     d="M 294.707,123.87155 L 301.73795,122.01905 L 301.97545,123.58655 L 295.32545,125.39155 L 294.707,123.87155 z "
     id="polygon357" /><path
     d="M 296.03795,127.19655 L 302.21295,125.53405 L 302.45045,127.14905 L 296.65355,128.71655 L 296.03795,127.19655 z "
     id="polygon359" /><path
     d="M 297.36605,130.52155 L 302.7345,129.09655 L 302.92545,130.71155 L 297.9845,132.04155 L 297.36605,130.52155 z "
     id="polygon361" /><path
     d="M 298.7445,133.84655 L 303.2095,132.65905 L 303.447,134.27405 L 299.36295,135.36655 L 298.7445,133.84655 z "
     id="polygon363" /><path
     d="M 300.07545,137.17155 L 303.732,136.17405 L 303.922,137.78905 L 300.69105,138.69155 L 300.07545,137.17155 z "
     id="polygon365" /><path
     d="M 301.40355,140.49655 L 304.207,139.73655 L 304.4445,141.35155 L 302.022,141.96905 L 301.40355,140.49655 z "
     id="polygon367" /><path
     d="M 302.782,143.82155 L 304.72855,143.29905 L 304.9195,144.91405 L 303.352,145.29405 L 302.782,143.82155 z "
     id="polygon369" /><path
     d="M 336.8395,91.19155 L 338.45355,92.14155 L 338.45355,132.99155 L 336.8395,125.53405 L 336.8395,91.19155 z "
     id="polygon371" /><g
     id="g373"
     transform="matrix(0.95,0,0,0.95,12.53325,18.7683)">
	<path
   d="M 369.753,66.385 L 369.753,49.197 L 372.093,49.197 L 381.097,62.685 L 381.097,49.197 L 383.285,49.197 L 383.285,66.385 L 380.945,66.385 L 371.941,52.896 L 371.941,66.385 L 369.753,66.385 z "
   id="path375" />
	<path
   d="M 387.194,66.385 L 387.194,49.197 L 389.475,49.197 L 389.475,56.26 L 398.366,56.26 L 398.366,49.197 L 400.647,49.197 L 400.647,66.385 L 398.366,66.385 L 398.366,58.291 L 389.475,58.291 L 389.475,66.385 L 387.194,66.385 z "
   id="path377" />
</g><g
     id="g379"
     transform="matrix(0.95,0,0,0.95,12.53325,18.7683)">
	<path
   d="M 411.43,69.369 L 411.43,70.885 L 402.899,70.885 C 402.887,70.504 402.948,70.138 403.085,69.785 C 403.303,69.205 403.651,68.635 404.133,68.073 C 404.613,67.511 405.304,66.862 406.202,66.125 C 407.598,64.973 408.545,64.062 409.042,63.392 C 409.54,62.722 409.79,62.088 409.79,61.489 C 409.79,60.863 409.564,60.335 409.114,59.905 C 408.664,59.475 408.077,59.26 407.354,59.26 C 406.588,59.26 405.977,59.489 405.518,59.948 C 405.059,60.406 404.827,61.042 404.821,61.853 L 403.196,61.681 C 403.307,60.466 403.727,59.539 404.456,58.902 C 405.184,58.265 406.161,57.947 407.39,57.947 C 408.628,57.947 409.609,58.29 410.331,58.976 C 411.054,59.662 411.415,60.511 411.415,61.526 C 411.415,62.043 411.309,62.549 411.097,63.047 C 410.886,63.545 410.534,64.069 410.044,64.621 C 409.554,65.172 408.74,65.929 407.605,66.89 C 406.654,67.687 406.042,68.228 405.771,68.511 C 405.5,68.796 405.275,69.081 405.099,69.368 L 411.43,69.368 L 411.43,69.369 z "
   id="path381" />
</g><path
     d="M 360.06605,77.79655 L 360.87545,79.17405 L 338.45355,92.14155 L 336.8395,91.19155 L 360.06605,77.79655 z "
     id="polygon383" /><g
     id="g385"
     transform="matrix(0.95,0,0,0.95,12.53325,18.7683)">
	<path
   d="M 299.682,58.02 C 299.682,55.168 300.448,52.935 301.979,51.321 C 303.512,49.708 305.489,48.901 307.913,48.901 C 309.499,48.901 310.93,49.28 312.204,50.038 C 313.477,50.796 314.448,51.853 315.117,53.209 C 315.786,54.565 316.12,56.103 316.12,57.821 C 316.12,59.563 315.768,61.123 315.064,62.498 C 314.36,63.874 313.364,64.915 312.075,65.622 C 310.784,66.329 309.393,66.683 307.901,66.683 C 306.282,66.683 304.837,66.292 303.563,65.511 C 302.288,64.73 301.323,63.663 300.667,62.311 C 300.01,60.958 299.682,59.527 299.682,58.02 z M 302.025,58.049 C 302.025,60.119 302.582,61.75 303.695,62.942 C 304.81,64.133 306.207,64.729 307.888,64.729 C 309.599,64.729 311.009,64.127 312.115,62.924 C 313.221,61.721 313.775,60.014 313.775,57.803 C 313.775,56.405 313.539,55.184 313.065,54.141 C 312.591,53.098 311.9,52.289 310.99,51.715 C 310.079,51.141 309.056,50.854 307.924,50.854 C 306.313,50.854 304.928,51.407 303.766,52.512 C 302.605,53.617 302.025,55.463 302.025,58.049 z "
   id="path387" />
</g><path
     d="M 312.42545,81.31155 L 313.232,79.93405 L 338.027,94.23155 L 337.2195,95.65655 L 312.42545,81.31155 z "
     id="polygon389" /><path
     d="M 315.27545,76.41905 L 316.082,75.04155 L 340.877,89.33905 L 340.0695,90.76405 L 315.27545,76.41905 z "
     id="polygon391" /><path
     d="M 394.077,196.30905 L 393.507,198.11405 L 368.23795,169.51905 L 369.472,168.47405 L 394.077,196.30905 z "
     id="polygon393" /><path
     d="M 431.032,188.80405 L 430.4145,190.60905 L 393.507,198.11405 L 394.077,196.30905 L 431.032,188.80405 z "
     id="polygon395" /><g
     id="g397"
     transform="matrix(0.95,0,0,0.95,12.53325,18.7683)">
	<path
   d="M 459.652,219.085 L 459.652,201.897 L 461.992,201.897 L 470.996,215.385 L 470.996,201.897 L 473.184,201.897 L 473.184,219.085 L 470.844,219.085 L 461.84,205.596 L 461.84,219.085 L 459.652,219.085 z "
   id="path399" />
	<path
   d="M 477.094,219.085 L 477.094,201.897 L 479.375,201.897 L 479.375,208.96 L 488.266,208.96 L 488.266,201.897 L 490.547,201.897 L 490.547,219.085 L 488.266,219.085 L 488.266,210.991 L 479.375,210.991 L 479.375,219.085 L 477.094,219.085 z "
   id="path401" />
</g><g
     id="g403"
     transform="matrix(0.95,0,0,0.95,12.53325,18.7683)">
	<path
   d="M 501.33,222.069 L 501.33,223.585 L 492.799,223.585 C 492.787,223.204 492.848,222.838 492.985,222.485 C 493.203,221.905 493.551,221.335 494.033,220.773 C 494.513,220.211 495.204,219.562 496.102,218.825 C 497.498,217.673 498.445,216.762 498.942,216.092 C 499.44,215.422 499.69,214.788 499.69,214.189 C 499.69,213.563 499.464,213.035 499.014,212.605 C 498.564,212.175 497.977,211.96 497.254,211.96 C 496.488,211.96 495.877,212.189 495.418,212.648 C 494.959,213.106 494.727,213.742 494.721,214.553 L 493.096,214.381 C 493.207,213.166 493.627,212.239 494.356,211.602 C 495.084,210.965 496.061,210.647 497.29,210.647 C 498.528,210.647 499.509,210.99 500.231,211.676 C 500.954,212.362 501.315,213.211 501.315,214.226 C 501.315,214.743 501.209,215.249 500.997,215.747 C 500.786,216.245 500.434,216.769 499.944,217.321 C 499.454,217.872 498.64,218.629 497.505,219.59 C 496.554,220.387 495.942,220.928 495.671,221.211 C 495.4,221.496 495.175,221.781 494.999,222.068 L 501.33,222.068 L 501.33,222.069 z "
   id="path405" />
</g><path
     d="M 448.3695,208.46905 L 447.1345,209.51405 L 430.4145,190.60905 L 431.032,188.80405 L 448.3695,208.46905 z "
     id="polygon407" /><g
     id="g409"
     transform="matrix(0.95,0,0,0.95,12.53325,18.7683)">
	<path
   d="M 444.581,143.42 C 444.581,140.568 445.347,138.335 446.879,136.721 C 448.411,135.108 450.389,134.301 452.812,134.301 C 454.399,134.301 455.829,134.68 457.103,135.438 C 458.377,136.196 459.348,137.253 460.016,138.609 C 460.685,139.965 461.019,141.503 461.019,143.221 C 461.019,144.963 460.667,146.523 459.963,147.898 C 459.26,149.274 458.264,150.315 456.974,151.022 C 455.684,151.729 454.293,152.083 452.8,152.083 C 451.182,152.083 449.736,151.692 448.462,150.911 C 447.188,150.13 446.223,149.063 445.566,147.711 C 444.909,146.358 444.581,144.928 444.581,143.42 z M 446.925,143.449 C 446.925,145.519 447.482,147.15 448.596,148.342 C 449.71,149.534 451.108,150.129 452.788,150.129 C 454.5,150.129 455.909,149.527 457.016,148.324 C 458.121,147.121 458.675,145.414 458.675,143.203 C 458.675,141.805 458.439,140.584 457.965,139.541 C 457.492,138.498 456.801,137.689 455.89,137.115 C 454.979,136.541 453.957,136.254 452.824,136.254 C 451.214,136.254 449.828,136.807 448.667,137.912 C 447.506,139.017 446.925,140.863 446.925,143.449 z "
   id="path411" />
</g><path
     d="M 435.6395,163.62905 L 437.1595,164.15155 L 428.277,190.60905 L 426.757,190.08655 L 435.6395,163.62905 z "
     id="polygon413" /><path
     d="M 440.9595,165.43405 L 442.527,165.95655 L 433.6445,192.41405 L 432.12545,191.89155 L 440.9595,165.43405 z "
     id="polygon415" /><g
     id="g417"
     transform="matrix(0.95,0,0,0.95,12.53325,18.7683)">
	<path
   d="M 369.418,337.207 L 371.699,337.781 C 371.223,339.651 370.367,341.077 369.131,342.058 C 367.893,343.04 366.381,343.531 364.594,343.531 C 362.744,343.531 361.24,343.154 360.08,342.399 C 358.922,341.644 358.039,340.552 357.435,339.121 C 356.83,337.69 356.527,336.154 356.527,334.512 C 356.527,332.721 356.869,331.159 357.551,329.826 C 358.234,328.492 359.204,327.48 360.466,326.788 C 361.726,326.096 363.112,325.75 364.626,325.75 C 366.343,325.75 367.786,326.188 368.956,327.064 C 370.126,327.941 370.941,329.173 371.401,330.761 L 369.167,331.288 C 368.77,330.038 368.192,329.128 367.437,328.558 C 366.679,327.988 365.728,327.703 364.582,327.703 C 363.264,327.703 362.162,328.019 361.275,328.652 C 360.39,329.285 359.768,330.134 359.41,331.201 C 359.051,332.267 358.871,333.367 358.871,334.5 C 358.871,335.961 359.084,337.236 359.509,338.326 C 359.934,339.416 360.594,340.23 361.49,340.769 C 362.386,341.308 363.357,341.578 364.402,341.578 C 365.673,341.578 366.748,341.211 367.629,340.476 C 368.51,339.741 369.106,338.652 369.418,337.207 z "
   id="path419" />
	<path
   d="M 374.594,343.234 L 374.594,326.046 L 376.875,326.046 L 376.875,333.109 L 385.766,333.109 L 385.766,326.046 L 388.047,326.046 L 388.047,343.234 L 385.766,343.234 L 385.766,335.14 L 376.875,335.14 L 376.875,343.234 L 374.594,343.234 z "
   id="path421" />
</g><g
     id="g423"
     transform="matrix(0.95,0,0,0.95,12.53325,18.7683)">
	<path
   d="M 389.645,344.328 L 391.223,344.109 C 391.407,345.005 391.715,345.652 392.151,346.047 C 392.589,346.443 393.124,346.641 393.758,346.641 C 394.512,346.641 395.145,346.383 395.657,345.868 C 396.17,345.353 396.426,344.715 396.426,343.954 C 396.426,343.227 396.188,342.629 395.711,342.157 C 395.234,341.686 394.627,341.45 393.891,341.45 C 393.59,341.45 393.217,341.509 392.77,341.626 L 392.946,340.235 C 393.052,340.247 393.137,340.253 393.202,340.253 C 393.877,340.253 394.483,340.077 395.024,339.727 C 395.563,339.376 395.833,338.835 395.833,338.104 C 395.833,337.525 395.636,337.045 395.243,336.666 C 394.848,336.286 394.341,336.096 393.718,336.096 C 393.101,336.096 392.585,336.29 392.174,336.678 C 391.763,337.067 391.497,337.649 391.38,338.424 L 389.802,338.143 C 389.995,337.081 390.437,336.258 391.122,335.674 C 391.809,335.091 392.662,334.799 393.683,334.799 C 394.388,334.799 395.037,334.949 395.628,335.251 C 396.22,335.552 396.673,335.963 396.987,336.483 C 397.301,337.003 397.458,337.556 397.458,338.141 C 397.458,338.697 397.31,339.203 397.011,339.659 C 396.712,340.115 396.269,340.477 395.683,340.747 C 396.445,340.923 397.038,341.287 397.462,341.842 C 397.887,342.395 398.099,343.088 398.099,343.92 C 398.099,345.045 397.689,345.999 396.867,346.781 C 396.045,347.564 395.006,347.955 393.75,347.955 C 392.617,347.955 391.676,347.619 390.928,346.945 C 390.178,346.271 389.75,345.398 389.645,344.328 z "
   id="path425" />
</g><path
     d="M 354.177,326.60155 L 349.047,331.73155 L 348.05045,330.44905 L 352.8945,325.55655 L 354.177,326.60155 z "
     id="polygon427" /><path
     d="M 351.5645,324.51155 L 346.957,329.11905 L 345.9595,327.83655 L 350.282,323.46655 L 351.5645,324.51155 z "
     id="polygon429" /><path
     d="M 348.90355,322.37405 L 344.86605,326.45905 L 343.822,325.17655 L 347.6695,321.37655 L 348.90355,322.37405 z "
     id="polygon431" /><path
     d="M 346.29105,320.28405 L 342.777,323.84655 L 341.732,322.56405 L 345.0095,319.28655 L 346.29105,320.28405 z "
     id="polygon433" /><path
     d="M 343.67855,318.19405 L 340.68795,321.18655 L 339.64105,319.95155 L 342.397,317.19655 L 343.67855,318.19405 z "
     id="polygon435" /><path
     d="M 341.0195,316.10405 L 338.55045,318.57405 L 337.552,317.29155 L 339.7845,315.10655 L 341.0195,316.10405 z "
     id="polygon437" /><path
     d="M 338.407,314.01405 L 336.4595,315.96155 L 335.46295,314.67905 L 337.12545,313.01655 L 338.407,314.01405 z "
     id="polygon439" /><path
     d="M 335.7945,311.92405 L 334.3695,313.30155 L 333.372,312.06655 L 334.51295,310.92655 L 335.7945,311.92405 z "
     id="polygon441" /><g
     id="g443"
     transform="matrix(0.95,0,0,0.95,12.53325,18.7683)">
	<path
   d="M 379.719,298.857 L 382,299.431 C 381.523,301.301 380.667,302.727 379.431,303.708 C 378.194,304.69 376.682,305.181 374.895,305.181 C 373.045,305.181 371.541,304.804 370.381,304.049 C 369.221,303.294 368.34,302.202 367.735,300.771 C 367.131,299.34 366.828,297.804 366.828,296.162 C 366.828,294.371 367.17,292.809 367.851,291.476 C 368.535,290.142 369.505,289.13 370.766,288.438 C 372.026,287.746 373.412,287.4 374.926,287.4 C 376.643,287.4 378.086,287.838 379.256,288.714 C 380.427,289.591 381.241,290.823 381.702,292.411 L 379.468,292.938 C 379.07,291.688 378.493,290.778 377.737,290.208 C 376.981,289.638 376.028,289.353 374.882,289.353 C 373.564,289.353 372.462,289.669 371.576,290.302 C 370.691,290.935 370.068,291.784 369.71,292.851 C 369.352,293.918 369.172,295.017 369.172,296.15 C 369.172,297.611 369.385,298.886 369.809,299.976 C 370.235,301.066 370.895,301.88 371.791,302.419 C 372.687,302.958 373.658,303.228 374.703,303.228 C 375.973,303.228 377.049,302.861 377.93,302.126 C 378.811,301.391 379.406,300.303 379.719,298.857 z "
   id="path445" />
	<path
   d="M 384.895,304.885 L 384.895,287.697 L 387.176,287.697 L 387.176,294.76 L 396.067,294.76 L 396.067,287.697 L 398.348,287.697 L 398.348,304.885 L 396.067,304.885 L 396.067,296.791 L 387.176,296.791 L 387.176,304.885 L 384.895,304.885 z "
   id="path447" />
</g><g
     id="g449"
     transform="matrix(0.95,0,0,0.95,12.53325,18.7683)">
	<path
   d="M 399.945,305.979 L 401.523,305.76 C 401.705,306.656 402.015,307.303 402.451,307.698 C 402.887,308.094 403.423,308.292 404.058,308.292 C 404.81,308.292 405.444,308.034 405.956,307.519 C 406.469,307.004 406.726,306.366 406.726,305.605 C 406.726,304.878 406.488,304.28 406.009,303.808 C 405.532,303.337 404.926,303.101 404.191,303.101 C 403.89,303.101 403.515,303.16 403.068,303.277 L 403.246,301.886 C 403.351,301.898 403.437,301.904 403.502,301.904 C 404.176,301.904 404.783,301.728 405.322,301.378 C 405.862,301.027 406.133,300.486 406.133,299.755 C 406.133,299.176 405.936,298.696 405.541,298.317 C 405.147,297.937 404.639,297.747 404.016,297.747 C 403.399,297.747 402.885,297.941 402.473,298.329 C 402.061,298.718 401.797,299.3 401.68,300.075 L 400.102,299.794 C 400.295,298.732 400.735,297.909 401.422,297.325 C 402.108,296.742 402.961,296.45 403.983,296.45 C 404.686,296.45 405.335,296.6 405.927,296.902 C 406.52,297.203 406.973,297.614 407.287,298.134 C 407.6,298.655 407.758,299.207 407.758,299.792 C 407.758,300.348 407.608,300.854 407.309,301.31 C 407.01,301.766 406.569,302.128 405.983,302.398 C 406.745,302.574 407.337,302.938 407.762,303.493 C 408.186,304.046 408.399,304.739 408.399,305.571 C 408.399,306.696 407.987,307.65 407.166,308.432 C 406.345,309.215 405.306,309.606 404.05,309.606 C 402.916,309.606 401.976,309.27 401.228,308.596 C 400.477,307.922 400.051,307.049 399.945,305.979 z "
   id="path451" />
</g><path
     d="M 357.92855,298.38655 L 359.782,305.41655 L 332.04105,309.92905 L 331.66295,309.16905 L 332.04105,308.17155 L 357.92855,298.38655 z "
     id="polygon453" /><path
     d="M 325.39105,363.88905 L 319.07545,367.49905 L 318.4095,366.02655 L 324.44105,362.55905 L 325.39105,363.88905 z "
     id="polygon455" /><path
     d="M 323.4445,361.18155 L 317.697,364.50655 L 316.9845,363.03405 L 322.54105,359.85155 L 323.4445,361.18155 z "
     id="polygon457" /><path
     d="M 321.5445,358.47405 L 316.3195,361.51405 L 315.607,360.04155 L 320.64105,357.14405 L 321.5445,358.47405 z "
     id="polygon459" /><path
     d="M 319.6445,355.76655 L 314.8945,358.52155 L 314.22855,357.04905 L 318.74105,354.43655 L 319.6445,355.76655 z "
     id="polygon461" /><path
     d="M 317.7445,353.05905 L 313.51605,355.52905 L 312.852,354.05655 L 316.84105,351.72905 L 317.7445,353.05905 z "
     id="polygon463" /><path
     d="M 315.8445,350.35155 L 312.1395,352.53655 L 311.47545,351.06405 L 314.94105,349.06905 L 315.8445,350.35155 z "
     id="polygon465" /><path
     d="M 313.9445,347.69155 L 310.76295,349.54405 L 310.05045,348.07155 L 312.9945,346.36155 L 313.9445,347.69155 z "
     id="polygon467" /><path
     d="M 312.0445,344.98405 L 309.3845,346.50405 L 308.672,345.03155 L 311.0945,343.65405 L 312.0445,344.98405 z "
     id="polygon469" /><path
     d="M 310.1445,342.27655 L 307.9595,343.51155 L 307.2945,342.03905 L 309.1945,340.94655 L 310.1445,342.27655 z "
     id="polygon471" /><path
     d="M 308.2445,339.56905 L 306.582,340.51905 L 305.91605,339.04655 L 307.2945,338.23905 L 308.2445,339.56905 z "
     id="polygon473" /><path
     d="M 362.0145,367.68905 L 361.0645,369.30405 L 323.82545,369.30405 L 323.82545,367.68905 L 362.0145,367.68905 z "
     id="polygon475" /><path
     d="M 380.82545,400.32155 L 379.922,401.93655 L 361.0645,369.30405 L 362.0145,367.68905 L 380.82545,400.32155 z "
     id="polygon477" /><g
     id="g479"
     transform="matrix(0.95,0,0,0.95,12.53325,18.7683)">
	<path
   d="M 420.053,411.935 L 420.053,394.747 L 422.393,394.747 L 431.397,408.235 L 431.397,394.747 L 433.585,394.747 L 433.585,411.935 L 431.245,411.935 L 422.241,398.446 L 422.241,411.935 L 420.053,411.935 z "
   id="path481" />
	<path
   d="M 437.494,411.935 L 437.494,394.747 L 439.775,394.747 L 439.775,401.81 L 448.666,401.81 L 448.666,394.747 L 450.947,394.747 L 450.947,411.935 L 448.666,411.935 L 448.666,403.841 L 439.775,403.841 L 439.775,411.935 L 437.494,411.935 z "
   id="path483" />
</g><g
     id="g485"
     transform="matrix(0.95,0,0,0.95,12.53325,18.7683)">
	<path
   d="M 461.729,414.919 L 461.729,416.435 L 453.198,416.435 C 453.186,416.054 453.248,415.688 453.384,415.335 C 453.602,414.755 453.951,414.185 454.432,413.623 C 454.913,413.061 455.603,412.412 456.502,411.675 C 457.898,410.523 458.844,409.612 459.342,408.942 C 459.84,408.272 460.089,407.638 460.089,407.039 C 460.089,406.413 459.863,405.885 459.414,405.455 C 458.963,405.025 458.377,404.81 457.653,404.81 C 456.887,404.81 456.276,405.039 455.817,405.498 C 455.358,405.956 455.126,406.592 455.12,407.403 L 453.495,407.231 C 453.606,406.016 454.026,405.089 454.755,404.452 C 455.483,403.815 456.461,403.497 457.689,403.497 C 458.928,403.497 459.909,403.84 460.631,404.526 C 461.353,405.212 461.714,406.061 461.714,407.076 C 461.714,407.593 461.608,408.099 461.397,408.597 C 461.186,409.095 460.834,409.619 460.344,410.171 C 459.853,410.722 459.039,411.479 457.904,412.44 C 456.954,413.237 456.342,413.778 456.071,414.061 C 455.8,414.346 455.575,414.631 455.398,414.918 L 461.729,414.918 L 461.729,414.919 z "
   id="path487" />
</g><path
     d="M 409.46605,400.32155 L 409.46605,401.93655 L 379.922,401.93655 L 380.82545,400.32155 L 409.46605,400.32155 z "
     id="polygon489" /><g
     id="g491"
     transform="matrix(0.95,0,0,0.95,12.53325,18.7683)">
	<path
   d="M 359.182,437.92 C 359.182,435.068 359.948,432.835 361.479,431.221 C 363.012,429.608 364.989,428.801 367.413,428.801 C 368.999,428.801 370.43,429.18 371.704,429.938 C 372.977,430.696 373.948,431.753 374.617,433.109 C 375.286,434.465 375.62,436.003 375.62,437.721 C 375.62,439.463 375.268,441.023 374.564,442.398 C 373.86,443.774 372.864,444.815 371.575,445.522 C 370.284,446.229 368.893,446.583 367.401,446.583 C 365.782,446.583 364.337,446.192 363.063,445.411 C 361.788,444.63 360.823,443.563 360.167,442.211 C 359.51,440.858 359.182,439.428 359.182,437.92 z M 361.525,437.949 C 361.525,440.019 362.082,441.65 363.195,442.842 C 364.31,444.033 365.707,444.629 367.388,444.629 C 369.099,444.629 370.509,444.027 371.615,442.824 C 372.721,441.621 373.275,439.914 373.275,437.703 C 373.275,436.305 373.039,435.084 372.565,434.041 C 372.091,432.998 371.4,432.189 370.49,431.615 C 369.579,431.041 368.556,430.754 367.424,430.754 C 365.813,430.754 364.428,431.307 363.266,432.412 C 362.105,433.518 361.525,435.363 361.525,437.949 z "
   id="path493" />
</g><path
     d="M 369.6145,427.0156 L 368.23795,426.20905 L 382.9145,400.70155 L 384.3395,401.50905 L 369.6145,427.0156 z "
     id="polygon495" /><path
     d="M 364.722,424.21405 L 363.3445,423.40655 L 378.022,397.89905 L 379.447,398.70655 L 364.722,424.21405 z "
     id="polygon497" /><path
     d="M 160.3295,208.65905 L 161.137,208.46905 L 161.9445,209.13405 L 161.9445,274.92155 L 161.137,275.58655 L 160.3295,274.44655 L 160.3295,208.65905 z "
     id="polygon499" /><path
     d="M 108.4595,318.43155 L 105.0395,311.59155 L 143.5145,308.40905 L 144.037,309.16905 L 143.752,310.07155 L 108.4595,318.43155 z "
     id="polygon501" /><path
     d="M 82.8095,286.70155 L 83.427,284.89655 L 105.0395,311.59155 L 108.4595,318.43155 L 82.8095,286.70155 z "
     id="polygon503" /><g
     id="g505"
     transform="matrix(0.95,0,0,0.95,12.53325,18.7683)">
	<path
   d="M 0,296.734 L 0,279.546 L 2.281,279.546 L 2.281,286.609 L 11.172,286.609 L 11.172,279.546 L 13.453,279.546 L 13.453,296.734 L 11.172,296.734 L 11.172,288.64 L 2.281,288.64 L 2.281,296.734 L 0,296.734 z "
   id="path507" />
</g><g
     id="g509"
     transform="matrix(0.95,0,0,0.95,12.53325,18.7683)">
	<path
   d="M 23.774,299.719 L 23.774,301.235 L 15.243,301.235 C 15.231,300.854 15.293,300.488 15.429,300.135 C 15.647,299.555 15.996,298.985 16.477,298.423 C 16.957,297.861 17.647,297.212 18.547,296.475 C 19.943,295.323 20.889,294.412 21.387,293.742 C 21.885,293.072 22.134,292.438 22.134,291.839 C 22.134,291.213 21.909,290.685 21.459,290.255 C 21.009,289.825 20.422,289.61 19.699,289.61 C 18.933,289.61 18.322,289.839 17.863,290.298 C 17.404,290.756 17.172,291.392 17.166,292.203 L 15.541,292.031 C 15.652,290.816 16.072,289.889 16.801,289.252 C 17.529,288.615 18.507,288.297 19.735,288.297 C 20.974,288.297 21.955,288.64 22.677,289.326 C 23.399,290.012 23.76,290.861 23.76,291.876 C 23.76,292.393 23.654,292.899 23.443,293.397 C 23.232,293.895 22.88,294.419 22.39,294.971 C 21.899,295.522 21.086,296.279 19.95,297.24 C 18.999,298.037 18.388,298.578 18.117,298.861 C 17.846,299.146 17.621,299.431 17.444,299.718 L 23.774,299.718 L 23.774,299.719 z "
   id="path511" />
</g><g
     id="g513"
     transform="matrix(0.95,0,0,0.95,12.53325,18.7683)">
	<path
   d="M 25.773,296.734 L 25.773,279.546 L 28.113,279.546 L 37.117,293.034 L 37.117,279.546 L 39.305,279.546 L 39.305,296.734 L 36.965,296.734 L 27.961,283.245 L 27.961,296.734 L 25.773,296.734 z "
   id="path515" />
</g><path
     d="M 54.3095,292.49655 L 54.0245,290.92905 L 83.427,284.89655 L 82.8095,286.70155 L 54.3095,292.49655 z "
     id="polygon517" /><g
     id="g519"
     transform="matrix(0.95,0,0,0.95,12.53325,18.7683)">
	<path
   d="M 80.281,245.17 C 80.281,242.318 81.047,240.085 82.579,238.471 C 84.111,236.858 86.089,236.051 88.512,236.051 C 90.099,236.051 91.529,236.43 92.803,237.188 C 94.077,237.946 95.048,239.003 95.717,240.359 C 96.385,241.715 96.719,243.253 96.719,244.971 C 96.719,246.713 96.367,248.273 95.664,249.648 C 94.96,251.024 93.964,252.065 92.674,252.772 C 91.384,253.479 89.993,253.833 88.5,253.833 C 86.882,253.833 85.436,253.442 84.162,252.661 C 82.888,251.88 81.923,250.813 81.266,249.461 C 80.609,248.108 80.281,246.678 80.281,245.17 z M 82.625,245.199 C 82.625,247.269 83.182,248.9 84.296,250.092 C 85.41,251.284 86.808,251.879 88.488,251.879 C 90.2,251.879 91.609,251.277 92.716,250.074 C 93.822,248.871 94.375,247.164 94.375,244.953 C 94.375,243.555 94.139,242.334 93.666,241.291 C 93.193,240.248 92.501,239.439 91.59,238.865 C 90.679,238.291 89.657,238.004 88.524,238.004 C 86.914,238.004 85.528,238.557 84.367,239.662 C 83.206,240.767 82.625,242.613 82.625,245.199 z "
   id="path521" />
</g><path
     d="M 89.127,259.95905 L 90.647,260.52905 L 80.6245,286.60655 L 79.152,286.03655 L 89.127,259.95905 z "
     id="polygon523" /><path
     d="M 94.3995,262.00155 L 95.9195,262.57155 L 85.9445,288.64905 L 84.4245,288.03155 L 94.3995,262.00155 z "
     id="polygon525" /><path
     d="M 148.882,362.79655 L 143.752,357.66655 L 144.987,356.62155 L 149.927,361.56155 L 148.882,362.79655 z "
     id="polygon527" /><path
     d="M 151.0195,360.23155 L 146.2695,355.52905 L 147.5045,354.48405 L 152.017,358.99655 L 151.0195,360.23155 z "
     id="polygon529" /><path
     d="M 153.1095,357.71405 L 148.8345,353.43905 L 150.0695,352.39405 L 154.1545,356.47905 L 153.1095,357.71405 z "
     id="polygon531" /><path
     d="M 155.247,355.19655 L 151.352,351.30155 L 152.587,350.25655 L 156.292,353.91405 L 155.247,355.19655 z "
     id="polygon533" /><path
     d="M 157.337,352.63155 L 153.8695,349.16405 L 155.152,348.16655 L 158.382,351.39655 L 157.337,352.63155 z "
     id="polygon535" /><path
     d="M 159.4745,350.11405 L 156.4345,347.07405 L 157.6695,346.02905 L 160.5195,348.87905 L 159.4745,350.11405 z "
     id="polygon537" /><path
     d="M 161.5645,347.54905 L 158.952,344.93655 L 160.2345,343.89155 L 162.6095,346.31405 L 161.5645,347.54905 z "
     id="polygon539" /><path
     d="M 163.702,345.03155 L 161.517,342.84655 L 162.752,341.80155 L 164.747,343.79655 L 163.702,345.03155 z "
     id="polygon541" /><path
     d="M 165.792,342.46655 L 164.0345,340.70905 L 165.2695,339.66405 L 166.837,341.23155 L 165.792,342.46655 z "
     id="polygon543" /><path
     d="M 167.9295,339.94905 L 166.5995,338.61905 L 167.8345,337.57405 L 168.9745,338.71405 L 167.9295,339.94905 z "
     id="polygon545" /><g
     id="g547"
     transform="matrix(0.95,0,0,0.95,12.53325,18.7683)">
	<path
   d="M 182.219,375.508 L 184.5,376.082 C 184.024,377.952 183.167,379.378 181.931,380.359 C 180.694,381.341 179.181,381.832 177.394,381.832 C 175.544,381.832 174.04,381.455 172.881,380.7 C 171.722,379.945 170.84,378.853 170.235,377.422 C 169.63,375.991 169.328,374.455 169.328,372.813 C 169.328,371.022 169.669,369.46 170.352,368.127 C 171.035,366.793 172.006,365.781 173.267,365.089 C 174.527,364.397 175.913,364.051 177.427,364.051 C 179.144,364.051 180.587,364.489 181.757,365.365 C 182.928,366.242 183.743,367.474 184.203,369.062 L 181.969,369.589 C 181.571,368.339 180.994,367.429 180.238,366.859 C 179.481,366.289 178.529,366.004 177.383,366.004 C 176.065,366.004 174.963,366.32 174.077,366.953 C 173.192,367.586 172.57,368.435 172.211,369.502 C 171.852,370.569 171.673,371.668 171.673,372.801 C 171.673,374.262 171.885,375.537 172.31,376.627 C 172.735,377.717 173.395,378.531 174.292,379.07 C 175.189,379.609 176.159,379.879 177.204,379.879 C 178.475,379.879 179.55,379.512 180.431,378.777 C 181.312,378.042 181.907,376.953 182.219,375.508 z "
   id="path549" />
	<path
   d="M 187.395,381.535 L 187.395,364.347 L 189.676,364.347 L 189.676,371.41 L 198.567,371.41 L 198.567,364.347 L 200.848,364.347 L 200.848,381.535 L 198.567,381.535 L 198.567,373.441 L 189.676,373.441 L 189.676,381.535 L 187.395,381.535 z "
   id="path551" />
</g><g
     id="g553"
     transform="matrix(0.95,0,0,0.95,12.53325,18.7683)">
	<path
   d="M 202.445,382.629 L 204.023,382.41 C 204.206,383.306 204.515,383.953 204.951,384.348 C 205.388,384.744 205.923,384.942 206.558,384.942 C 207.311,384.942 207.944,384.684 208.457,384.169 C 208.97,383.654 209.226,383.016 209.226,382.255 C 209.226,381.528 208.988,380.93 208.51,380.458 C 208.033,379.987 207.427,379.751 206.691,379.751 C 206.39,379.751 206.016,379.81 205.569,379.927 L 205.746,378.536 C 205.852,378.548 205.937,378.554 206.002,378.554 C 206.676,378.554 207.283,378.378 207.823,378.028 C 208.363,377.677 208.633,377.136 208.633,376.405 C 208.633,375.826 208.436,375.346 208.042,374.967 C 207.648,374.587 207.14,374.397 206.517,374.397 C 205.9,374.397 205.385,374.591 204.974,374.979 C 204.562,375.368 204.298,375.95 204.181,376.725 L 202.603,376.444 C 202.796,375.382 203.237,374.559 203.923,373.975 C 204.609,373.392 205.463,373.1 206.484,373.1 C 207.188,373.1 207.837,373.25 208.429,373.552 C 209.021,373.853 209.474,374.264 209.789,374.784 C 210.102,375.305 210.26,375.857 210.26,376.442 C 210.26,376.998 210.111,377.504 209.812,377.96 C 209.513,378.416 209.071,378.778 208.485,379.048 C 209.247,379.224 209.839,379.588 210.264,380.143 C 210.688,380.696 210.901,381.389 210.901,382.221 C 210.901,383.346 210.49,384.3 209.668,385.082 C 208.846,385.865 207.807,386.256 206.551,386.256 C 205.418,386.256 204.477,385.92 203.729,385.246 C 202.977,384.572 202.55,383.699 202.445,382.629 z "
   id="path555" />
</g><path
     d="M 181.467,361.98905 L 174.437,363.88905 L 169.9245,336.24405 L 170.6845,335.86405 L 171.682,336.24405 L 181.467,361.98905 z "
     id="polygon557" /><path
     d="M 154.677,399.13405 L 152.872,398.65905 L 143.2295,362.70155 L 144.797,362.27405 L 154.677,399.13405 z "
     id="polygon559" /><path
     d="M 128.0295,425.78155 L 126.2245,425.30655 L 152.872,398.65905 L 154.677,399.13405 L 128.0295,425.78155 z "
     id="polygon561" /><g
     id="g563"
     transform="matrix(0.95,0,0,0.95,12.53325,18.7683)">
	<path
   d="M 124.103,475.935 L 124.103,458.747 L 126.443,458.747 L 135.447,472.235 L 135.447,458.747 L 137.635,458.747 L 137.635,475.935 L 135.295,475.935 L 126.291,462.446 L 126.291,475.935 L 124.103,475.935 z "
   id="path565" />
	<path
   d="M 141.544,475.935 L 141.544,458.747 L 143.825,458.747 L 143.825,465.81 L 152.716,465.81 L 152.716,458.747 L 154.997,458.747 L 154.997,475.935 L 152.716,475.935 L 152.716,467.841 L 143.825,467.841 L 143.825,475.935 L 141.544,475.935 z "
   id="path567" />
</g><path
     d="M 134.917,451.4781 L 133.3495,451.90655 L 126.2245,425.30655 L 128.0295,425.78155 L 134.917,451.4781 z "
     id="polygon569" /><g
     id="g571"
     transform="matrix(0.95,0,0,0.95,12.53325,18.7683)">
	<path
   d="M 74.131,418.97 C 74.131,416.118 74.897,413.885 76.429,412.271 C 77.961,410.658 79.939,409.851 82.362,409.851 C 83.949,409.851 85.379,410.23 86.653,410.988 C 87.927,411.746 88.898,412.803 89.567,414.159 C 90.235,415.515 90.569,417.053 90.569,418.771 C 90.569,420.513 90.217,422.073 89.514,423.448 C 88.81,424.824 87.814,425.865 86.524,426.572 C 85.234,427.279 83.843,427.633 82.35,427.633 C 80.732,427.633 79.286,427.242 78.012,426.461 C 76.738,425.68 75.773,424.613 75.116,423.261 C 74.459,421.908 74.131,420.478 74.131,418.97 z M 76.475,418.999 C 76.475,421.069 77.032,422.7 78.146,423.892 C 79.26,425.084 80.658,425.679 82.338,425.679 C 84.05,425.679 85.459,425.077 86.566,423.874 C 87.672,422.671 88.225,420.964 88.225,418.753 C 88.225,417.355 87.989,416.134 87.516,415.091 C 87.043,414.048 86.351,413.239 85.44,412.665 C 84.529,412.091 83.507,411.804 82.374,411.804 C 80.764,411.804 79.378,412.357 78.217,413.462 C 77.056,414.567 76.475,416.413 76.475,418.999 z "
   id="path573" />
</g><path
     d="M 99.7195,421.93405 L 100.0995,420.3656 L 128.172,427.91905 L 127.792,429.43905 L 99.7195,421.93405 z "
     id="polygon575" /><path
     d="M 101.1445,416.47155 L 101.572,414.9031 L 129.6445,422.45655 L 129.217,423.97655 L 101.1445,416.47155 z "
     id="polygon577" /><path
     d="M 111.167,488.7656 L 109.362,488.2906 L 127.127,470.52655 L 128.267,471.6656 L 111.167,488.7656 z "
     id="polygon579" /><g
     id="g581"
     transform="matrix(0.95,0,0,0.95,12.53325,18.7683)">
	<path
   d="M 174.731,691.52 C 174.731,688.668 175.497,686.435 177.029,684.821 C 178.561,683.208 180.539,682.401 182.962,682.401 C 184.549,682.401 185.979,682.78 187.253,683.538 C 188.527,684.296 189.498,685.353 190.167,686.709 C 190.835,688.065 191.169,689.603 191.169,691.321 C 191.169,693.063 190.817,694.623 190.114,695.998 C 189.41,697.374 188.414,698.415 187.124,699.122 C 185.834,699.829 184.443,700.183 182.95,700.183 C 181.332,700.183 179.886,699.792 178.612,699.011 C 177.338,698.23 176.373,697.163 175.716,695.811 C 175.059,694.458 174.731,693.027 174.731,691.52 z M 177.075,691.549 C 177.075,693.619 177.632,695.25 178.746,696.442 C 179.86,697.634 181.258,698.229 182.938,698.229 C 184.65,698.229 186.059,697.627 187.166,696.424 C 188.272,695.221 188.825,693.514 188.825,691.303 C 188.825,689.905 188.589,688.684 188.116,687.641 C 187.643,686.598 186.951,685.789 186.04,685.215 C 185.129,684.641 184.107,684.354 182.974,684.354 C 181.364,684.354 179.978,684.907 178.817,686.012 C 177.656,687.117 177.075,688.963 177.075,691.549 z "
   id="path583" />
</g><path
     d="M 163.892,653.16405 L 163.5595,652.35655 L 164.367,651.54905 L 208.162,651.54905 L 208.9695,652.35655 L 208.637,653.16405 L 163.892,653.16405 z "
     id="polygon585" /><path
     d="M 151.3045,665.56155 L 149.547,666.1781 L 148.7395,665.84655 L 162.752,652.02405 L 163.5595,652.35655 L 163.892,653.16405 L 151.3045,665.56155 z "
     id="polygon587" /><path
     d="M 177.477,668.88655 L 175.862,675.96405 L 150.3545,667.27155 L 149.547,666.1781 L 151.3045,665.56155 L 177.477,668.88655 z "
     id="polygon589" /><path
     d="M 221.272,665.56155 L 223.0295,666.1781 L 223.837,666.74905 L 196.7145,676.01155 L 195.052,668.93405 L 221.272,665.56155 z "
     id="polygon591" /><path
     d="M 222.222,664.23155 L 223.0295,666.1781 L 221.272,665.56155 L 208.637,653.16405 L 208.9695,652.35655 L 209.777,652.02405 L 222.222,664.23155 z "
     id="polygon593" /><g
     id="g595"
     transform="matrix(0.95,0,0,0.95,12.53325,18.7683)">
	<path
   d="M 182.063,636.685 L 182.063,619.497 L 184.344,619.497 L 184.344,626.56 L 193.235,626.56 L 193.235,619.497 L 195.516,619.497 L 195.516,636.685 L 193.235,636.685 L 193.235,628.591 L 184.344,628.591 L 184.344,636.685 L 182.063,636.685 z "
   id="path597" />
	<path
   d="M 198.613,628.319 C 198.613,625.467 199.379,623.234 200.911,621.62 C 202.443,620.007 204.421,619.2 206.844,619.2 C 208.431,619.2 209.861,619.579 211.135,620.337 C 212.409,621.095 213.38,622.152 214.049,623.508 C 214.717,624.864 215.051,626.402 215.051,628.12 C 215.051,629.862 214.699,631.422 213.996,632.797 C 213.292,634.173 212.296,635.214 211.006,635.921 C 209.716,636.628 208.325,636.982 206.832,636.982 C 205.214,636.982 203.768,636.591 202.494,635.81 C 201.22,635.029 200.255,633.962 199.598,632.61 C 198.941,631.258 198.613,629.827 198.613,628.319 z M 200.957,628.349 C 200.957,630.419 201.514,632.05 202.628,633.242 C 203.742,634.434 205.14,635.029 206.82,635.029 C 208.532,635.029 209.941,634.427 211.048,633.224 C 212.154,632.021 212.707,630.314 212.707,628.103 C 212.707,626.705 212.471,625.484 211.998,624.441 C 211.525,623.398 210.833,622.589 209.922,622.015 C 209.011,621.441 207.989,621.154 206.856,621.154 C 205.246,621.154 203.86,621.707 202.699,622.812 C 201.538,623.917 200.957,625.763 200.957,628.349 z "
   id="path599" />
</g><path
     d="M 208.162,626.0406 L 209.777,626.0406 L 209.777,652.02405 L 208.9695,652.35655 L 208.162,651.54905 L 208.162,626.0406 z "
     id="polygon601" /><path
     d="M 222.222,550.56405 L 223.837,550.56405 L 223.837,666.74905 L 223.0295,666.1781 L 222.222,664.23155 L 222.222,550.56405 z "
     id="polygon603" /><path
     d="M 150.3545,704.32155 L 148.7395,703.41905 L 148.7395,665.84655 L 149.547,666.1781 L 150.3545,667.27155 L 150.3545,704.32155 z "
     id="polygon605" /><g
     id="g607"
     transform="matrix(0.95,0,0,0.95,12.53325,18.7683)">
	<path
   d="M 85.163,750.435 L 85.163,733.247 L 87.444,733.247 L 87.444,740.31 L 96.335,740.31 L 96.335,733.247 L 98.616,733.247 L 98.616,750.435 L 96.335,750.435 L 96.335,742.341 L 87.444,742.341 L 87.444,750.435 L 85.163,750.435 z "
   id="path609" />
	<path
   d="M 101.713,742.069 C 101.713,739.217 102.479,736.984 104.011,735.37 C 105.543,733.757 107.521,732.95 109.944,732.95 C 111.531,732.95 112.961,733.329 114.235,734.087 C 115.509,734.845 116.48,735.902 117.149,737.258 C 117.817,738.614 118.151,740.152 118.151,741.87 C 118.151,743.612 117.799,745.172 117.096,746.547 C 116.392,747.923 115.396,748.964 114.106,749.671 C 112.816,750.378 111.425,750.732 109.932,750.732 C 108.314,750.732 106.868,750.341 105.594,749.56 C 104.32,748.779 103.355,747.712 102.698,746.36 C 102.042,745.008 101.713,743.577 101.713,742.069 z M 104.057,742.099 C 104.057,744.169 104.614,745.8 105.728,746.992 C 106.842,748.184 108.24,748.779 109.92,748.779 C 111.632,748.779 113.041,748.177 114.148,746.974 C 115.254,745.771 115.807,744.064 115.807,741.853 C 115.807,740.455 115.571,739.234 115.098,738.191 C 114.625,737.148 113.933,736.339 113.022,735.765 C 112.111,735.191 111.089,734.904 109.956,734.904 C 108.346,734.904 106.96,735.457 105.799,736.562 C 104.638,737.667 104.057,739.513 104.057,742.099 z "
   id="path611" />
</g><path
     d="M 125.892,718.4281 L 125.0845,717.05155 L 148.7395,703.41905 L 150.3545,704.32155 L 125.892,718.4281 z "
     id="polygon613" /><g
     id="g615"
     transform="matrix(0.95,0,0,0.95,12.53325,18.7683)">
	<path
   d="M 214.803,493.385 L 214.803,476.197 L 217.143,476.197 L 226.147,489.685 L 226.147,476.197 L 228.335,476.197 L 228.335,493.385 L 225.995,493.385 L 216.991,479.896 L 216.991,493.385 L 214.803,493.385 z "
   id="path617" />
</g><g
     id="g619"
     transform="matrix(0.95,0,0,0.95,12.53325,18.7683)">
	<path
   d="M 214.803,557.585 L 214.803,540.397 L 217.143,540.397 L 226.147,553.885 L 226.147,540.397 L 228.335,540.397 L 228.335,557.585 L 225.995,557.585 L 216.991,544.096 L 216.991,557.585 L 214.803,557.585 L 214.803,557.585 z "
   id="path621" />
</g><path
     d="M 201.892,509.00155 L 199.897,509.00155 L 214.6695,488.67155 L 215.952,489.62155 L 201.892,509.00155 z "
     id="polygon623" /><path
     d="M 208.542,509.47655 L 207.212,508.52655 L 219.2295,491.99655 L 220.5595,492.94655 L 208.542,509.47655 z "
     id="polygon625" /><path
     d="M 216.712,529.3781 L 215.382,530.3281 L 199.897,509.00155 L 201.892,509.00155 L 216.712,529.3781 z "
     id="polygon627" /><path
     d="M 258.0845,527.2406 L 258.89105,527.85905 L 258.797,528.71405 L 232.6245,537.2156 L 232.1495,535.69655 L 258.0845,527.2406 z "
     id="polygon629" /><path
     d="M 258.0845,490.71405 L 258.89105,490.14405 L 259.70045,490.61905 L 259.70045,527.38405 L 258.89105,527.85905 L 258.0845,527.2406 L 258.0845,490.71405 z "
     id="polygon631" /><path
     d="M 232.1495,482.30655 L 232.6245,480.78655 L 258.797,489.2406 L 258.89105,490.14405 L 258.0845,490.71405 L 232.1495,482.30655 z "
     id="polygon633" /><path
     d="M 291.572,545.7656 L 291.572,547.61905 L 258.797,528.71405 L 258.89105,527.85905 L 259.70045,527.38405 L 291.572,545.7656 z "
     id="polygon635" /><path
     d="M 291.952,539.44905 L 291.1445,540.87405 L 264.1645,525.29405 L 264.972,523.86905 L 291.952,539.44905 z "
     id="polygon637" /><path
     d="M 323.397,527.38405 L 324.20355,527.85905 L 324.20355,528.76155 L 291.572,547.61905 L 291.572,545.7656 L 323.397,527.38405 z "
     id="polygon639" /><path
     d="M 323.397,490.61905 L 324.20355,490.14405 L 325.01295,490.61905 L 325.01295,527.38405 L 324.20355,527.85905 L 323.397,527.38405 L 323.397,490.61905 z "
     id="polygon641" /><path
     d="M 317.74449,493.42156 L 319.35854,493.42156 L 319.35854,524.58156 L 317.74449,524.58156 L 317.74449,493.42156 z "
     id="rect643" /><path
     d="M 291.572,472.23655 L 291.572,470.38405 L 324.20355,489.19405 L 324.20355,490.14405 L 323.397,490.61905 L 291.572,472.23655 z "
     id="polygon645" /><path
     d="M 259.70045,490.61905 L 258.89105,490.14405 L 258.797,489.2406 L 291.572,470.38405 L 291.572,472.23655 L 259.70045,490.61905 z "
     id="polygon647" /><path
     d="M 264.972,494.08655 L 264.1645,492.70905 L 291.1445,477.1281 L 291.952,478.50655 L 264.972,494.08655 z "
     id="polygon649" /><g
     id="g651"
     transform="matrix(0.95,0,0,0.95,12.53325,18.7683)">
	<path
   d="M 367.869,479.808 L 370.15,480.382 C 369.673,482.252 368.816,483.678 367.58,484.659 C 366.344,485.641 364.831,486.132 363.044,486.132 C 361.194,486.132 359.69,485.755 358.531,485 C 357.371,484.245 356.49,483.153 355.885,481.722 C 355.281,480.291 354.979,478.755 354.979,477.113 C 354.979,475.322 355.32,473.76 356.002,472.427 C 356.685,471.093 357.656,470.081 358.916,469.389 C 360.176,468.697 361.562,468.351 363.076,468.351 C 364.793,468.351 366.236,468.789 367.406,469.665 C 368.578,470.542 369.392,471.774 369.853,473.362 L 367.619,473.889 C 367.221,472.639 366.643,471.729 365.887,471.159 C 365.131,470.589 364.178,470.304 363.032,470.304 C 361.714,470.304 360.612,470.62 359.727,471.253 C 358.841,471.886 358.219,472.735 357.86,473.802 C 357.502,474.868 357.323,475.968 357.323,477.101 C 357.323,478.562 357.535,479.837 357.96,480.927 C 358.385,482.017 359.046,482.831 359.942,483.37 C 360.838,483.909 361.809,484.179 362.853,484.179 C 364.124,484.179 365.2,483.812 366.081,483.077 C 366.962,482.342 367.557,481.253 367.869,479.808 z "
   id="path653" />
	<path
   d="M 373.045,485.835 L 373.045,468.647 L 375.326,468.647 L 375.326,475.71 L 384.217,475.71 L 384.217,468.647 L 386.498,468.647 L 386.498,485.835 L 384.217,485.835 L 384.217,477.741 L 375.326,477.741 L 375.326,485.835 L 373.045,485.835 z "
   id="path655" />
</g><g
     id="g657"
     transform="matrix(0.95,0,0,0.95,12.53325,18.7683)">
	<path
   d="M 388.095,486.929 L 389.673,486.71 C 389.856,487.606 390.165,488.253 390.601,488.648 C 391.038,489.044 391.573,489.242 392.208,489.242 C 392.961,489.242 393.594,488.984 394.107,488.469 C 394.619,487.954 394.876,487.316 394.876,486.555 C 394.876,485.828 394.638,485.23 394.16,484.758 C 393.683,484.287 393.076,484.051 392.341,484.051 C 392.04,484.051 391.666,484.11 391.219,484.227 L 391.396,482.836 C 391.502,482.848 391.587,482.854 391.652,482.854 C 392.327,482.854 392.933,482.678 393.473,482.328 C 394.012,481.977 394.283,481.436 394.283,480.705 C 394.283,480.126 394.086,479.646 393.692,479.267 C 393.297,478.887 392.79,478.697 392.167,478.697 C 391.55,478.697 391.035,478.891 390.624,479.279 C 390.212,479.668 389.947,480.25 389.83,481.025 L 388.252,480.744 C 388.445,479.682 388.886,478.859 389.572,478.275 C 390.259,477.692 391.112,477.4 392.133,477.4 C 392.837,477.4 393.486,477.55 394.077,477.852 C 394.67,478.153 395.123,478.564 395.437,479.084 C 395.75,479.605 395.908,480.157 395.908,480.742 C 395.908,481.298 395.759,481.804 395.46,482.26 C 395.161,482.716 394.719,483.078 394.133,483.348 C 394.895,483.524 395.487,483.888 395.912,484.443 C 396.337,484.996 396.549,485.689 396.549,486.521 C 396.549,487.646 396.138,488.6 395.316,489.382 C 394.495,490.165 393.456,490.556 392.2,490.556 C 391.066,490.556 390.126,490.22 389.378,489.546 C 388.627,488.872 388.2,487.999 388.095,486.929 z "
   id="path659" />
</g><path
     d="M 347.6695,475.65655 L 348.477,477.08155 L 325.01295,490.61905 L 324.20355,490.14405 L 324.20355,489.19405 L 347.6695,475.65655 z "
     id="polygon661" /><g
     id="g663"
     transform="matrix(0.95,0,0,0.95,12.53325,18.7683)">
	<path
   d="M 367.869,559.107 L 370.15,559.681 C 369.673,561.551 368.816,562.977 367.58,563.958 C 366.344,564.94 364.831,565.431 363.044,565.431 C 361.194,565.431 359.69,565.054 358.531,564.299 C 357.371,563.544 356.49,562.452 355.885,561.021 C 355.281,559.59 354.979,558.054 354.979,556.412 C 354.979,554.621 355.32,553.059 356.002,551.726 C 356.685,550.392 357.656,549.38 358.916,548.688 C 360.176,547.996 361.562,547.65 363.076,547.65 C 364.793,547.65 366.236,548.088 367.406,548.964 C 368.578,549.841 369.392,551.073 369.853,552.661 L 367.619,553.188 C 367.221,551.938 366.643,551.028 365.887,550.458 C 365.131,549.888 364.178,549.603 363.032,549.603 C 361.714,549.603 360.612,549.919 359.727,550.552 C 358.841,551.185 358.219,552.034 357.86,553.101 C 357.502,554.167 357.323,555.267 357.323,556.4 C 357.323,557.861 357.535,559.136 357.96,560.226 C 358.385,561.316 359.046,562.13 359.942,562.669 C 360.838,563.208 361.809,563.478 362.853,563.478 C 364.124,563.478 365.2,563.111 366.081,562.376 C 366.962,561.641 367.557,560.553 367.869,559.107 z "
   id="path665" />
	<path
   d="M 373.045,565.135 L 373.045,547.947 L 375.326,547.947 L 375.326,555.01 L 384.217,555.01 L 384.217,547.947 L 386.498,547.947 L 386.498,565.135 L 384.217,565.135 L 384.217,557.041 L 375.326,557.041 L 375.326,565.135 L 373.045,565.135 z "
   id="path667" />
</g><g
     id="g669"
     transform="matrix(0.95,0,0,0.95,12.53325,18.7683)">
	<path
   d="M 388.095,566.229 L 389.673,566.01 C 389.856,566.906 390.165,567.553 390.601,567.948 C 391.038,568.344 391.573,568.542 392.208,568.542 C 392.961,568.542 393.594,568.284 394.107,567.769 C 394.619,567.254 394.876,566.616 394.876,565.855 C 394.876,565.128 394.638,564.53 394.16,564.058 C 393.683,563.587 393.076,563.351 392.341,563.351 C 392.04,563.351 391.666,563.41 391.219,563.527 L 391.396,562.136 C 391.502,562.148 391.587,562.154 391.652,562.154 C 392.327,562.154 392.933,561.978 393.473,561.628 C 394.012,561.277 394.283,560.736 394.283,560.005 C 394.283,559.426 394.086,558.946 393.692,558.567 C 393.297,558.187 392.79,557.997 392.167,557.997 C 391.55,557.997 391.035,558.191 390.624,558.579 C 390.212,558.968 389.947,559.55 389.83,560.325 L 388.252,560.044 C 388.445,558.982 388.886,558.159 389.572,557.575 C 390.259,556.992 391.112,556.7 392.133,556.7 C 392.837,556.7 393.486,556.85 394.077,557.152 C 394.67,557.453 395.123,557.864 395.437,558.384 C 395.75,558.905 395.908,559.457 395.908,560.042 C 395.908,560.598 395.759,561.104 395.46,561.56 C 395.161,562.016 394.719,562.378 394.133,562.648 C 394.895,562.824 395.487,563.188 395.912,563.743 C 396.337,564.296 396.549,564.989 396.549,565.821 C 396.549,566.946 396.138,567.9 395.316,568.682 C 394.495,569.465 393.456,569.856 392.2,569.856 C 391.066,569.856 390.126,569.52 389.378,568.846 C 388.627,568.172 388.2,567.299 388.095,566.229 z "
   id="path671" />
</g><path
     d="M 349.1895,541.34905 L 348.382,542.72655 L 324.20355,528.76155 L 324.20355,527.85905 L 325.01295,527.38405 L 349.1895,541.34905 z "
     id="polygon673" /><path
     d="M 120.857,524.91405 L 119.147,524.91405 L 109.362,488.2906 L 111.167,488.7656 L 120.857,524.91405 z "
     id="polygon675" /><g
     id="g677"
     transform="matrix(0.95,0,0,0.95,12.53325,18.7683)">
	<path
   d="M 94.631,572.22 C 94.631,569.368 95.397,567.135 96.929,565.521 C 98.461,563.908 100.439,563.101 102.862,563.101 C 104.449,563.101 105.879,563.48 107.153,564.238 C 108.427,564.996 109.398,566.053 110.067,567.409 C 110.735,568.765 111.069,570.303 111.069,572.021 C 111.069,573.763 110.717,575.323 110.014,576.698 C 109.31,578.074 108.314,579.115 107.024,579.822 C 105.734,580.529 104.343,580.883 102.85,580.883 C 101.232,580.883 99.786,580.492 98.512,579.711 C 97.238,578.93 96.273,577.863 95.616,576.511 C 94.959,575.158 94.631,573.728 94.631,572.22 z M 96.975,572.249 C 96.975,574.319 97.532,575.95 98.646,577.142 C 99.76,578.334 101.158,578.929 102.838,578.929 C 104.55,578.929 105.959,578.327 107.066,577.124 C 108.172,575.921 108.725,574.214 108.725,572.003 C 108.725,570.605 108.489,569.384 108.016,568.341 C 107.543,567.298 106.851,566.489 105.94,565.915 C 105.029,565.341 104.007,565.054 102.874,565.054 C 101.264,565.054 99.878,565.607 98.717,566.712 C 97.556,567.817 96.975,569.663 96.975,572.249 z "
   id="path679" />
</g><path
     d="M 113.542,552.08405 L 112.022,551.65655 L 119.147,524.91405 L 120.857,524.91405 L 113.542,552.08405 z "
     id="polygon681" /><g
     id="g683"
     transform="matrix(0.95,0,0,0.95,12.53325,18.7683)">
	<path
   d="M 156.918,525.957 L 159.199,526.531 C 158.723,528.401 157.866,529.827 156.63,530.808 C 155.393,531.79 153.88,532.281 152.093,532.281 C 150.243,532.281 148.739,531.904 147.58,531.149 C 146.421,530.394 145.539,529.302 144.934,527.871 C 144.329,526.44 144.027,524.904 144.027,523.262 C 144.027,521.471 144.368,519.909 145.051,518.576 C 145.734,517.242 146.705,516.23 147.966,515.538 C 149.226,514.846 150.612,514.5 152.126,514.5 C 153.843,514.5 155.286,514.938 156.456,515.814 C 157.627,516.691 158.442,517.923 158.902,519.511 L 156.668,520.038 C 156.27,518.788 155.693,517.878 154.937,517.308 C 154.18,516.738 153.228,516.453 152.082,516.453 C 150.764,516.453 149.662,516.769 148.776,517.402 C 147.891,518.035 147.269,518.884 146.91,519.951 C 146.551,521.018 146.372,522.117 146.372,523.25 C 146.372,524.711 146.584,525.986 147.009,527.076 C 147.434,528.166 148.094,528.98 148.991,529.519 C 149.888,530.058 150.858,530.328 151.903,530.328 C 153.174,530.328 154.249,529.961 155.13,529.226 C 156.011,528.491 156.606,527.402 156.918,525.957 z "
   id="path685" />
	<path
   d="M 162.094,531.984 L 162.094,514.796 L 164.375,514.796 L 164.375,521.859 L 173.266,521.859 L 173.266,514.796 L 175.547,514.796 L 175.547,531.984 L 173.266,531.984 L 173.266,523.89 L 164.375,523.89 L 164.375,531.984 L 162.094,531.984 z "
   id="path687" />
</g><g
     id="g689"
     transform="matrix(0.95,0,0,0.95,12.53325,18.7683)">
	<path
   d="M 177.145,533.078 L 178.723,532.859 C 178.906,533.755 179.215,534.402 179.651,534.797 C 180.088,535.193 180.623,535.391 181.258,535.391 C 182.011,535.391 182.644,535.133 183.157,534.618 C 183.67,534.103 183.926,533.465 183.926,532.704 C 183.926,531.977 183.688,531.379 183.21,530.907 C 182.733,530.436 182.127,530.2 181.391,530.2 C 181.09,530.2 180.716,530.259 180.269,530.376 L 180.446,528.985 C 180.552,528.997 180.637,529.003 180.702,529.003 C 181.376,529.003 181.983,528.827 182.523,528.477 C 183.063,528.126 183.333,527.585 183.333,526.854 C 183.333,526.275 183.136,525.795 182.742,525.416 C 182.348,525.036 181.84,524.846 181.217,524.846 C 180.6,524.846 180.085,525.04 179.674,525.428 C 179.262,525.817 178.998,526.399 178.881,527.174 L 177.303,526.893 C 177.496,525.831 177.937,525.008 178.623,524.424 C 179.309,523.841 180.163,523.549 181.184,523.549 C 181.888,523.549 182.537,523.699 183.129,524.001 C 183.721,524.302 184.174,524.713 184.489,525.233 C 184.802,525.754 184.96,526.306 184.96,526.891 C 184.96,527.447 184.811,527.953 184.512,528.409 C 184.213,528.865 183.771,529.227 183.185,529.497 C 183.947,529.673 184.539,530.037 184.964,530.592 C 185.388,531.145 185.601,531.838 185.601,532.67 C 185.601,533.795 185.19,534.749 184.368,535.531 C 183.546,536.314 182.507,536.705 181.251,536.705 C 180.118,536.705 179.177,536.369 178.429,535.695 C 177.677,535.021 177.25,534.148 177.145,533.078 z "
   id="path691" />
</g><g
     id="g709"
     transform="matrix(0.95,0,0,0.95,12.53325,18.7683)">
	<path
   d="M 124.334,608.635 L 124.334,591.447 L 130.813,591.447 C 131.953,591.447 132.824,591.502 133.425,591.611 C 134.269,591.752 134.975,592.019 135.546,592.415 C 136.116,592.81 136.575,593.363 136.922,594.074 C 137.27,594.786 137.443,595.568 137.443,596.42 C 137.443,597.882 136.979,599.119 136.05,600.132 C 135.121,601.145 133.443,601.651 131.016,601.651 L 126.615,601.651 L 126.615,608.635 L 124.334,608.635 z M 126.616,599.619 L 131.052,599.619 C 132.518,599.619 133.56,599.346 134.176,598.799 C 134.792,598.252 135.101,597.483 135.101,596.49 C 135.101,595.771 134.919,595.156 134.557,594.644 C 134.194,594.132 133.716,593.794 133.123,593.63 C 132.74,593.528 132.034,593.478 131.005,593.478 L 126.616,593.478 L 126.616,599.619 z "
   id="path711" />
</g><path
     d="M 117.43227,569.70371 L 118.57222,568.56376 L 129.11727,579.10881 L 127.97732,580.24876 L 117.43227,569.70371 z "
     id="rect713" /><g
     id="g715"
     transform="matrix(0.95,0,0,0.95,12.53325,18.7683)">
	<path
   d="M 78.163,636.685 L 78.163,619.497 L 80.444,619.497 L 80.444,626.56 L 89.335,626.56 L 89.335,619.497 L 91.616,619.497 L 91.616,636.685 L 89.335,636.685 L 89.335,628.591 L 80.444,628.591 L 80.444,636.685 L 78.163,636.685 z "
   id="path717" />
	<path
   d="M 94.713,628.319 C 94.713,625.467 95.479,623.234 97.011,621.62 C 98.543,620.007 100.521,619.2 102.944,619.2 C 104.531,619.2 105.961,619.579 107.235,620.337 C 108.509,621.095 109.48,622.152 110.149,623.508 C 110.817,624.864 111.151,626.402 111.151,628.12 C 111.151,629.862 110.799,631.422 110.096,632.797 C 109.392,634.173 108.396,635.214 107.106,635.921 C 105.816,636.628 104.425,636.982 102.932,636.982 C 101.314,636.982 99.868,636.591 98.594,635.81 C 97.32,635.029 96.355,633.962 95.698,632.61 C 95.042,631.258 94.713,629.827 94.713,628.319 z M 97.057,628.349 C 97.057,630.419 97.614,632.05 98.728,633.242 C 99.842,634.434 101.24,635.029 102.92,635.029 C 104.632,635.029 106.041,634.427 107.148,633.224 C 108.254,632.021 108.807,630.314 108.807,628.103 C 108.807,626.705 108.571,625.484 108.098,624.441 C 107.625,623.398 106.933,622.589 106.022,622.015 C 105.111,621.441 104.089,621.154 102.956,621.154 C 101.346,621.154 99.96,621.707 98.799,622.812 C 97.638,623.917 97.057,625.763 97.057,628.349 z "
   id="path719" />
</g><path
     d="M 127.20555,596.57504 L 128.34515,597.71416 L 117.80159,608.2622 L 116.66198,607.12308 L 127.20555,596.57504 z "
     id="rect721" /><g
     id="g723"
     transform="matrix(0.95,0,0,0.95,12.53325,18.7683)">
	<path
   d="M 150.781,572.22 C 150.781,569.368 151.547,567.135 153.079,565.521 C 154.611,563.908 156.589,563.101 159.012,563.101 C 160.599,563.101 162.029,563.48 163.303,564.238 C 164.577,564.996 165.548,566.053 166.217,567.409 C 166.885,568.765 167.219,570.303 167.219,572.021 C 167.219,573.763 166.867,575.323 166.164,576.698 C 165.46,578.074 164.464,579.115 163.174,579.822 C 161.884,580.529 160.493,580.883 159,580.883 C 157.382,580.883 155.936,580.492 154.662,579.711 C 153.388,578.93 152.423,577.863 151.766,576.511 C 151.109,575.158 150.781,573.728 150.781,572.22 z M 153.125,572.249 C 153.125,574.319 153.682,575.95 154.796,577.142 C 155.91,578.334 157.308,578.929 158.988,578.929 C 160.7,578.929 162.109,578.327 163.216,577.124 C 164.322,575.921 164.875,574.214 164.875,572.003 C 164.875,570.605 164.639,569.384 164.166,568.341 C 163.693,567.298 163.001,566.489 162.09,565.915 C 161.179,565.341 160.157,565.054 159.024,565.054 C 157.414,565.054 156.028,565.607 154.867,566.712 C 153.706,567.817 153.125,569.663 153.125,572.249 z "
   id="path725" />
</g><path
     d="M 153.2045,566.57155 L 154.3445,567.71155 L 141.8995,580.10905 L 140.7595,578.96905 L 153.2045,566.57155 z "
     id="polygon727" /><path
     d="M 157.1945,570.56155 L 158.3345,571.70155 L 145.937,584.14655 L 144.797,583.00655 L 157.1945,570.56155 z "
     id="polygon729" /><g
     id="g731"
     transform="matrix(0.95,0,0,0.95,12.53325,18.7683)">
	<path
   d="M 150.781,628.319 C 150.781,625.467 151.547,623.234 153.079,621.62 C 154.611,620.007 156.589,619.2 159.012,619.2 C 160.599,619.2 162.029,619.579 163.303,620.337 C 164.577,621.095 165.548,622.152 166.217,623.508 C 166.885,624.864 167.219,626.402 167.219,628.12 C 167.219,629.862 166.867,631.422 166.164,632.797 C 165.46,634.173 164.464,635.214 163.174,635.921 C 161.884,636.628 160.493,636.982 159,636.982 C 157.382,636.982 155.936,636.591 154.662,635.81 C 153.388,635.029 152.423,633.962 151.766,632.61 C 151.109,631.258 150.781,629.827 150.781,628.319 z M 153.125,628.349 C 153.125,630.419 153.682,632.05 154.796,633.242 C 155.91,634.434 157.308,635.029 158.988,635.029 C 160.7,635.029 162.109,634.427 163.216,633.224 C 164.322,632.021 164.875,630.314 164.875,628.103 C 164.875,626.705 164.639,625.484 164.166,624.441 C 163.693,623.398 163.001,622.589 162.09,622.015 C 161.179,621.441 160.157,621.154 159.024,621.154 C 157.414,621.154 156.028,621.707 154.867,622.812 C 153.706,623.917 153.125,625.763 153.125,628.349 z "
   id="path733" />
</g><path
     d="M 157.0995,607.08905 L 155.9595,608.2281 L 140.712,592.98155 L 141.8995,591.8406 L 157.0995,607.08905 z "
     id="polygon735" /><path
     d="M 164.367,651.54905 L 163.5595,652.35655 L 162.752,652.02405 L 162.752,626.0406 L 164.367,626.0406 L 164.367,651.54905 z "
     id="polygon737" /><g
     id="g739"
     transform="matrix(0.95,0,0,0.95,12.53325,18.7683)">
	<path
   d="M 229.565,204.734 L 229.565,187.546 L 237.179,187.546 C 238.707,187.546 239.868,187.7 240.664,188.01 C 241.459,188.319 242.095,188.864 242.57,189.647 C 243.045,190.43 243.283,191.293 243.283,192.24 C 243.283,193.461 242.889,194.489 242.102,195.326 C 241.315,196.163 240.099,196.695 238.453,196.922 C 239.055,197.211 239.511,197.495 239.824,197.776 C 240.488,198.385 241.115,199.147 241.704,200.061 L 244.673,204.735 L 241.833,204.735 L 239.564,201.163 C 238.901,200.132 238.355,199.344 237.926,198.797 C 237.497,198.251 237.113,197.868 236.774,197.65 C 236.435,197.432 236.09,197.279 235.739,197.193 C 235.481,197.138 235.06,197.111 234.476,197.111 L 231.845,197.111 L 231.845,204.736 L 229.565,204.736 L 229.565,204.734 z M 231.847,195.141 L 236.724,195.141 C 237.761,195.141 238.571,195.034 239.155,194.819 C 239.738,194.604 240.182,194.26 240.486,193.787 C 240.789,193.314 240.941,192.8 240.941,192.245 C 240.941,191.432 240.647,190.764 240.059,190.239 C 239.471,189.716 238.542,189.454 237.273,189.454 L 231.847,189.454 L 231.847,195.141 L 231.847,195.141 z "
   id="path741" />
</g><path
     d="M 236.8995,215.35655 L 238.5145,215.35655 L 238.5145,232.26655 L 236.8995,232.26655 L 236.8995,215.35655 z "
     id="rect743" /><g
     id="g745"
     transform="matrix(0.95,0,0,0.95,12.53325,18.7683)">
	<path
   d="M 111.163,270.535 L 111.163,253.347 L 113.444,253.347 L 113.444,260.41 L 122.335,260.41 L 122.335,253.347 L 124.616,253.347 L 124.616,270.535 L 122.335,270.535 L 122.335,262.441 L 113.444,262.441 L 113.444,270.535 L 111.163,270.535 z "
   id="path747" />
</g><path
     d="M 133.492,272.68905 L 135.202,265.61155 L 160.3295,274.44655 L 161.137,275.58655 L 159.902,276.25155 L 133.492,272.68905 z "
     id="polygon749" /><path
     d="m 146.36902,514.18416 1.81377,7.05273 -27.69818,4.17368 -0.37065,-0.7646 0.39218,-0.99277 z"
     id="polygon557-3"
     style="overflow:visible" /></g></svg>