<?xml version="1.0" ?>
<svg height="67.22070mm" version="1.0" viewBox="0 0 307 254" width="81.24707mm" xmlns="http://www.w3.org/2000/svg">
  <g font-family="Helvetica" font-size="12pt" stroke-linecap="round" transform="translate(-35,-21)">
    <g stroke="#000" stroke-width="1.0">
      <line x1="211.467997028" x2="211.467997028" y1="240.787146979" y2="203.0"/>
      <line x1="302.319278737" x2="280.106230243" y1="165.182230819" y2="195.744903895"/>
      <line x1="178.733998514" x2="178.733998514" y1="146.340195486" y2="184.125004262"/>
      <line x1="244.169808719" x2="244.169808719" y1="184.071627477" y2="146.2868187"/>
      <line x1="211.467997028" x2="244.169808719" y1="203.0" y2="184.071627477"/>
      <line x1="291.355096764" x2="320.583892517" y1="96.7079377449" y2="90.4907287043"/>
      <line x1="292.18731173" x2="321.416107483" y1="100.620407329" y2="94.4031982888"/>
      <line x1="211.467997028" x2="178.733998514" y1="203.0" y2="184.125004262"/>
      <polygon fill="#000" points="292.246754939 98.8186119735 282.477667468 135.374665546 277.72216055 133.830271184 291.295653555 98.509733101" stroke="#000"/>
      <polygon fill="#000" points="243.672526899 146.234753443 245.618072939 108.445932696 250.590891143 108.96658527 244.66709054 146.338883958" stroke="#000"/>
      <polygon fill="#000" points="145.5 203.0 143.5 165.21402214 148.5 165.21402214 146.5 203.0" stroke="#000"/>
      <line x1="291.771204247" x2="266.48337221" y1="98.6641725372" y2="70.5873907822"/>
      <polygon fill="#000" points="178.484236607 146.773345564 152.751190468 134.243889979 155.248809532 129.912389199 178.98376042 145.907045408" stroke="#000"/>
      <line x1="81.5324790457" x2="57.0004760737" y1="242.518922838" y2="256.691474029"/>
      <line x1="79.5315268983" x2="54.9995239263" y1="239.05537112" y2="253.227922311"/>
      <line x1="244.169808719" x2="211.435810205" y1="146.2868187" y2="127.411822963"/>
      <line x1="266.48337221" x2="275.767388809" y1="70.5873907822" y2="42.0"/>
      <line x1="178.733998514" x2="211.467997028" y1="259.662142717" y2="240.787146979"/>
      <line x1="146.0" x2="178.733998514" y1="240.787146979" y2="259.662142717"/>
      <line x1="146.0" x2="113.266001486" y1="203.0" y2="184.125004262"/>
      <line x1="283.837182934" x2="284.619812509" y1="131.478988451" y2="136.417357711"/>
      <line x1="287.965766647" x2="288.748396222" y1="130.824693167" y2="135.763062427"/>
      <line x1="292.09435036" x2="292.876979936" y1="130.170397883" y2="135.108767143"/>
      <line x1="296.222934073" x2="297.005563649" y1="129.516102599" y2="134.454471859"/>
      <line x1="300.351517786" x2="301.134147362" y1="128.861807315" y2="133.800176575"/>
      <line x1="304.480101499" x2="305.262731075" y1="128.207512031" y2="133.145881291"/>
      <line x1="308.608685212" x2="309.391314788" y1="127.553216747" y2="132.491586007"/>
      <line x1="178.733998514" x2="146.0" y1="184.125004262" y2="203.0"/>
      <line x1="244.169808719" x2="280.099914009" y1="146.2868187" y2="134.602468365"/>
      <line x1="280.106230243" x2="244.169808719" y1="195.744903895" y2="184.071627477"/>
      <line x1="280.099914009" x2="302.319278737" y1="134.602468365" y2="165.182230819"/>
      <line x1="146.0" x2="146.0" y1="240.787146979" y2="203.0"/>
      <line x1="113.266001486" x2="80.532002972" y1="184.125004262" y2="203.0"/>
      <line x1="80.532002972" x2="80.532002972" y1="203.0" y2="240.787146979"/>
      <line x1="113.266001486" x2="146.0" y1="259.662142717" y2="240.787146979"/>
      <line x1="114.360608422" x2="138.911107308" y1="252.104967314" y2="237.948720511"/>
      <line x1="80.532002972" x2="113.266001486" y1="240.787146979" y2="259.662142717"/>
      <line x1="211.435810205" x2="178.733998514" y1="127.411822963" y2="146.340195486"/>
    </g>
    <text fill="#000" font-family="Arial" font-size="11pt" x="271.3" y="37.6490949546">OH</text>
    <text fill="#000" font-family="Arial" font-size="11pt" x="310.3" y="131.687983605">OH</text>
    <text fill="#000" font-family="Arial" font-size="11pt" x="129.3" y="130.465199748">HO</text>
    <text fill="#000" font-family="Arial" font-size="11pt" x="322.3" y="93.8026584645">O</text>
    <text fill="#000" font-family="Arial" font-size="11pt" x="41.3" y="262.689130364">O</text>
  </g>
</svg>