<?xml version="1.0" encoding="windows-1252"?>
<!-- Generator: Adobe Illustrator 19.1.0, SVG Export Plug-In . SVG Version: 6.00 Build 0)  -->
<svg version="1.1" id="&#1057;&#1083;&#1086;&#1081;_1" xmlns="http://www.w3.org/2000/svg" xmlns:xlink="http://www.w3.org/1999/xlink" x="0px" y="0px" viewBox="0 0 417.628 230.258" style="enable-background:new 0 0 417.628 230.258;" xml:space="preserve">
<g>
	<rect x="112.719" y="121.35" width="2.4" height="45.628"/>
	
		<rect x="171.991" y="155.571" transform="matrix(-0.4996 -0.8663 0.8663 -0.4996 105.1917 417.5337)" width="2.4" height="45.628"/>
	<rect x="150.377" y="108.742" transform="matrix(-0.866 -0.5 0.5 -0.866 268.2087 291.7509)" width="45.628" height="2.4"/>
	<path d="M303.083,113.978l-48.585-28.05l5.902-38.121H246l5.901,38.121l-48.585,28.05l-49.284-28.454l-0.599-0.346l-0.6,0.346   l-49.283,28.454L69.639,94.399l-1.199,2.079l33.911,19.578v56.214l-31.157,17.988l1.199,2.079l31.158-17.989l47.551,27.454l1.732,1   l0.6,0.346l0.599-0.346l1.732-1l46.419-26.8l0,0l1.732-1l0.601-0.345v-0.694v-2v-54.907L253.2,87.949l47.552,27.454l1.732,1   l0.599,0.346l0.6-0.346l33.09-19.105l-1.199-2.079L303.083,113.978z M202.117,170.964v1.307l-1.132,0.653l0,0l-46.419,26.8   l-1.133,0.654l-48.683-28.107v-56.214l47.55-27.453v0l1.133-0.654l1.133,0.654l0,0l47.551,27.453V170.964z"/>
	<rect x="385.104" y="86.706" transform="matrix(0.4996 -0.8663 0.8663 0.4996 101.6516 387.5907)" width="2.4" height="38.21"/>
	<path d="M53.668,186.969c-7.988,0-12.988,5.625-12.988,14.57s5,14.551,12.988,14.551c7.988,0,12.988-5.605,12.988-14.551   S61.656,186.969,53.668,186.969z M53.668,212.847c-5.762,0-9.375-4.375-9.375-11.309c0-6.953,3.613-11.328,9.375-11.328   c5.762,0,9.375,4.375,9.375,11.328C63.043,208.472,59.43,212.847,53.668,212.847z"/>
	<polygon points="33.164,199.625 17.695,199.625 17.695,187.437 14.18,187.437 14.18,215.621 17.695,215.621 17.695,202.789    33.164,202.789 33.164,215.621 36.68,215.621 36.68,187.437 33.164,187.437  "/>
	<path d="M53.668,71.768c-7.988,0-12.988,5.625-12.988,14.57c0,8.945,5,14.551,12.988,14.551c7.988,0,12.988-5.605,12.988-14.551   C66.656,77.393,61.656,71.768,53.668,71.768z M53.668,97.648c-5.762,0-9.375-4.375-9.375-11.309c0-6.953,3.613-11.328,9.375-11.328   c5.762,0,9.375,4.375,9.375,11.328C63.043,93.272,59.43,97.648,53.668,97.648z"/>
	<polygon points="33.164,84.425 17.695,84.425 17.695,72.237 14.18,72.237 14.18,100.421 17.695,100.421 17.695,87.589    33.164,87.589 33.164,100.421 36.68,100.421 36.68,72.237 33.164,72.237  "/>
	<path d="M253.2,43.29c7.988,0,12.988-5.606,12.988-14.551c0-8.945-5-14.57-12.988-14.57c-7.988,0-12.988,5.625-12.988,14.57   C240.212,37.684,245.212,43.29,253.2,43.29z M253.2,17.411c5.762,0,9.375,4.375,9.375,11.328c0,6.934-3.613,11.309-9.375,11.309   c-5.762,0-9.375-4.375-9.375-11.309C243.825,21.786,247.438,17.411,253.2,17.411z"/>
	<polygon points="273.704,29.989 289.173,29.989 289.173,42.821 292.688,42.821 292.688,14.637 289.173,14.637 289.173,26.825    273.704,26.825 273.704,14.637 270.188,14.637 270.188,42.821 273.704,42.821  "/>
	<polygon points="360.74,94.132 360.564,94.132 345.134,72.003 341.716,72.003 341.716,100.186 345.193,100.186 345.193,78.136    345.369,78.136 360.798,100.186 364.216,100.186 364.216,72.003 360.74,72.003  "/>
	<polygon points="360.701,52.007 345.232,52.007 345.232,39.819 341.716,39.819 341.716,68.003 345.232,68.003 345.232,55.171    360.701,55.171 360.701,68.003 364.216,68.003 364.216,39.819 360.701,39.819  "/>
</g>
</svg>