<?xml version="1.0" encoding="UTF-8" standalone="no"?>
<!-- Created with Inkscape (http://www.inkscape.org/) -->
<svg
   xmlns:svg="http://www.w3.org/2000/svg"
   xmlns="http://www.w3.org/2000/svg"
   version="1.0"
   width="171.23399"
   height="73.583"
   viewBox="0 0 171.234 73.583"
   id="svg2"
   xml:space="preserve"><defs
   id="defs58" />
	
	<g
   id="Layer_1">
		<path
   d="M 171.234,73.583 L 0,73.583 L 0,0 L 171.234,0 L 171.234,73.583 z "
   style="fill:#ffffff"
   id="path7" />
		<g
   id="g9">
			<path
   d="M 131.817,36.496 C 131.378,36.213 130.875,35.951 130.048,35.951 C 128.594,35.951 127.569,37.44 127.569,39.15 C 127.569,40.754 128.5,42.349 130.08,42.349 C 130.802,42.349 131.273,42.244 132.026,41.709 L 132.089,42.433 C 131.347,42.884 130.939,43.02 130.069,43.02 C 128.029,43.02 126.637,41.174 126.637,39.15 C 126.637,37.093 128.049,35.279 130.059,35.279 C 130.749,35.279 131.314,35.394 131.973,35.646 L 131.817,36.496 z "
   id="path11" />
			<path
   d="M 103.415,52.23 C 102.976,51.947 102.473,51.685 101.646,51.685 C 100.192,51.685 99.167,53.174 99.167,54.884 C 99.167,56.488 100.098,58.083 101.678,58.083 C 102.4,58.083 102.871,57.978 103.624,57.443 L 103.687,58.167 C 102.945,58.618 102.537,58.754 101.667,58.754 C 99.627,58.754 98.235,56.908 98.235,54.884 C 98.235,52.827 99.647,51.013 101.657,51.013 C 102.347,51.013 102.912,51.128 103.571,51.38 L 103.415,52.23 z "
   id="path13" />
			<path
   d="M 103.948,68.265 L 103.017,68.265 L 103.017,64.803 L 99.449,64.803 L 99.449,68.265 L 98.517,68.265 L 98.517,60.985 L 99.449,60.985 L 99.449,64.164 L 103.017,64.164 L 103.017,60.985 L 103.948,60.985 L 103.948,68.265 z "
   id="path15" />
			<path
   d="M 107.819,69.127 C 108.304,68.633 108.773,68.163 108.773,67.462 C 108.773,66.819 108.353,66.201 107.581,66.201 C 106.833,66.201 106.602,66.844 106.438,67.478 C 106.356,67.363 106.273,67.255 106.257,67.239 C 106.24,67.215 106.199,67.165 106.101,67.025 C 106.298,66.316 106.758,65.673 107.696,65.673 C 108.781,65.673 109.447,66.497 109.447,67.444 C 109.447,68.145 109.003,68.582 108.634,68.953 C 108.478,69.101 108.058,69.447 107.902,69.596 C 107.647,69.835 107.023,70.453 106.759,70.684 L 107.655,70.684 C 107.754,70.684 107.852,70.676 107.951,70.676 L 109.447,70.676 L 109.447,71.261 L 106.167,71.261 L 106.167,70.734 C 106.397,70.511 106.956,69.943 107.187,69.712 L 107.819,69.127 z "
   id="path17" />
			<path
   d="M 76.294,31.551 L 75.363,31.551 L 75.363,28.09 L 71.795,28.09 L 71.795,31.551 L 70.863,31.551 L 70.863,24.271 L 71.795,24.271 L 71.795,27.449 L 75.363,27.449 L 75.363,24.271 L 76.294,24.271 L 76.294,31.551 z "
   id="path19" />
			<path
   d="M 79.417,32.414 C 79.902,31.919 80.371,31.45 80.371,30.749 C 80.371,30.106 79.952,29.488 79.179,29.488 C 78.431,29.488 78.2,30.131 78.036,30.765 C 77.953,30.65 77.871,30.543 77.855,30.526 C 77.838,30.501 77.797,30.452 77.699,30.312 C 77.896,29.603 78.357,28.96 79.294,28.96 C 80.379,28.96 81.045,29.784 81.045,30.732 C 81.045,31.433 80.601,31.869 80.231,32.24 C 80.075,32.388 79.656,32.735 79.5,32.883 C 79.245,33.122 78.62,33.74 78.357,33.971 L 79.253,33.971 C 79.352,33.971 79.45,33.963 79.549,33.963 L 81.045,33.963 L 81.045,34.548 L 77.765,34.548 L 77.765,34.021 C 77.995,33.798 78.554,33.229 78.785,32.999 L 79.417,32.414 z "
   id="path21" />
			<path
   d="M 75.76,36.496 C 75.321,36.213 74.819,35.951 73.992,35.951 C 72.537,35.951 71.512,37.44 71.512,39.15 C 71.512,40.754 72.443,42.349 74.023,42.349 C 74.745,42.349 75.216,42.244 75.969,41.709 L 76.032,42.433 C 75.289,42.884 74.881,43.02 74.012,43.02 C 71.971,43.02 70.58,41.174 70.58,39.15 C 70.58,37.093 71.993,35.279 74.001,35.279 C 74.692,35.279 75.257,35.394 75.916,35.646 L 75.76,36.496 z "
   id="path23" />
			<path
   d="M 48.106,52.23 C 47.667,51.947 47.165,51.685 46.338,51.685 C 44.883,51.685 43.858,53.174 43.858,54.884 C 43.858,56.488 44.789,58.083 46.369,58.083 C 47.091,58.083 47.562,57.978 48.315,57.443 L 48.378,58.167 C 47.635,58.618 47.227,58.754 46.358,58.754 C 44.317,58.754 42.926,56.908 42.926,54.884 C 42.926,52.827 44.339,51.013 46.347,51.013 C 47.038,51.013 47.603,51.128 48.262,51.38 L 48.106,52.23 z "
   id="path25" />
			<path
   d="M 48.64,68.265 L 47.709,68.265 L 47.709,64.803 L 44.141,64.803 L 44.141,68.265 L 43.209,68.265 L 43.209,60.985 L 44.141,60.985 L 44.141,64.164 L 47.709,64.164 L 47.709,60.985 L 48.64,60.985 L 48.64,68.265 z "
   id="path27" />
			<path
   d="M 51.763,69.127 C 52.248,68.633 52.717,68.163 52.717,67.462 C 52.717,66.819 52.298,66.201 51.525,66.201 C 50.777,66.201 50.546,66.844 50.382,67.478 C 50.299,67.363 50.217,67.255 50.201,67.239 C 50.184,67.215 50.143,67.165 50.045,67.025 C 50.242,66.316 50.703,65.673 51.64,65.673 C 52.725,65.673 53.391,66.497 53.391,67.444 C 53.391,68.145 52.947,68.582 52.577,68.953 C 52.421,69.101 52.002,69.447 51.846,69.596 C 51.591,69.835 50.966,70.453 50.703,70.684 L 51.599,70.684 C 51.698,70.684 51.796,70.676 51.895,70.676 L 53.391,70.676 L 53.391,71.261 L 50.111,71.261 L 50.111,70.734 C 50.341,70.511 50.9,69.943 51.131,69.712 L 51.763,69.127 z "
   id="path29" />
			<path
   d="M 129.029,10.803 C 127.324,10.803 125.775,9.177 125.775,6.953 C 125.775,4.771 127.261,3.061 129.04,3.061 C 130.777,3.061 132.294,4.75 132.294,6.953 C 132.293,9.156 130.777,10.803 129.029,10.803 z M 131.363,6.795 C 131.363,4.918 130.243,3.732 129.029,3.732 C 127.857,3.732 126.707,4.876 126.707,6.795 C 126.707,8.809 127.806,10.12 129.04,10.12 C 130.233,10.121 131.363,8.841 131.363,6.795 z "
   id="path31" />
			<path
   d="M 157.43,58.755 C 155.725,58.755 154.176,57.129 154.176,54.905 C 154.176,52.723 155.662,51.013 157.441,51.013 C 159.178,51.013 160.695,52.701 160.695,54.905 C 160.695,57.109 159.178,58.755 157.43,58.755 z M 159.764,54.748 C 159.764,52.87 158.644,51.685 157.43,51.685 C 156.258,51.685 155.108,52.828 155.108,54.748 C 155.108,56.762 156.207,58.073 157.441,58.073 C 158.634,58.073 159.764,56.794 159.764,54.748 z "
   id="path33" />
			<path
   d="M 168.226,58.524 L 167.295,58.524 L 167.295,55.062 L 163.727,55.062 L 163.727,58.524 L 162.795,58.524 L 162.795,51.244 L 163.727,51.244 L 163.727,54.423 L 167.295,54.423 L 167.295,51.244 L 168.226,51.244 L 168.226,58.524 z "
   id="path35" />
			<path
   d="M 8.279,42.79 L 7.348,42.79 L 7.348,39.328 L 3.78,39.328 L 3.78,42.79 L 2.848,42.79 L 2.848,35.51 L 3.78,35.51 L 3.78,38.689 L 7.348,38.689 L 7.348,35.51 L 8.279,35.51 L 8.279,42.79 z "
   id="path37" />
			<path
   d="M 11.402,43.652 C 11.887,43.158 12.356,42.688 12.356,41.987 C 12.356,41.344 11.937,40.726 11.164,40.726 C 10.416,40.726 10.185,41.369 10.021,42.003 C 9.938,41.888 9.856,41.78 9.84,41.764 C 9.823,41.74 9.782,41.69 9.684,41.55 C 9.881,40.841 10.342,40.198 11.279,40.198 C 12.364,40.198 13.03,41.022 13.03,41.969 C 13.03,42.67 12.586,43.107 12.216,43.478 C 12.06,43.626 11.641,43.972 11.485,44.121 C 11.23,44.36 10.605,44.978 10.342,45.209 L 11.238,45.209 C 11.337,45.209 11.435,45.201 11.534,45.201 L 13.03,45.201 L 13.03,45.786 L 9.75,45.786 L 9.75,45.26 C 9.98,45.037 10.539,44.469 10.77,44.238 L 11.402,43.652 z "
   id="path39" />
			<path
   d="M 18.689,40.608 C 18.752,40.723 19.191,41.615 19.39,42.045 L 19.4,42.045 L 19.4,35.51 L 20.216,35.51 L 20.216,42.79 L 18.918,42.79 L 16.355,37.692 C 16.292,37.576 15.853,36.684 15.654,36.254 L 15.644,36.254 L 15.644,42.789 L 14.828,42.789 L 14.828,35.509 L 16.126,35.509 L 18.689,40.608 z "
   id="path41" />
			<path
   d="M 124.441,41.432 L 106.69,51.688"
   style="fill:none;stroke:#000000;stroke-width:1.07710004;stroke-linecap:round;stroke-miterlimit:1"
   id="path43" />
			<path
   d="M 96.927,51.875 L 79.316,41.666"
   style="fill:none;stroke:#000000;stroke-width:1.07710004;stroke-linecap:round;stroke-miterlimit:1"
   id="path45" />
			<path
   d="M 68.479,41.525 L 50.821,51.688"
   style="fill:none;stroke:#000000;stroke-width:1.07710004;stroke-linecap:round;stroke-miterlimit:1"
   id="path47" />
			<path
   d="M 127.665,32.815 L 127.665,12.585"
   style="fill:none;stroke:#000000;stroke-width:1.07710004;stroke-linecap:round;stroke-miterlimit:1"
   id="path49" />
			<path
   d="M 131.542,32.815 L 131.542,12.585"
   style="fill:none;stroke:#000000;stroke-width:1.07710004;stroke-linecap:round;stroke-miterlimit:1"
   id="path51" />
			<path
   d="M 135.045,41.619 L 152.563,51.734"
   style="fill:none;stroke:#000000;stroke-width:1.07710004;stroke-linecap:round;stroke-miterlimit:1"
   id="path53" />
			<path
   d="M 41.058,51.875 L 23.82,41.9"
   style="fill:none;stroke:#000000;stroke-width:1.07710004;stroke-linecap:round;stroke-miterlimit:1"
   id="path55" />
		</g>
	</g>
</svg>