<?xml version="1.0" encoding="UTF-8" standalone="no"?>
<svg
   xmlns:dc="http://purl.org/dc/elements/1.1/"
   xmlns:cc="http://creativecommons.org/ns#"
   xmlns:rdf="http://www.w3.org/1999/02/22-rdf-syntax-ns#"
   xmlns:svg="http://www.w3.org/2000/svg"
   xmlns="http://www.w3.org/2000/svg"
   xmlns:sodipodi="http://sodipodi.sourceforge.net/DTD/sodipodi-0.dtd"
   xmlns:inkscape="http://www.inkscape.org/namespaces/inkscape"
   width="700"
   height="300"
   version="1.1"
   id="svg2"
   inkscape:version="0.48.4 r9939"
   sodipodi:docname="H2O_-_2d.svg">
  <metadata
     id="metadata22">
    <rdf:RDF>
      <cc:Work
         rdf:about="">
        <dc:format>image/svg+xml</dc:format>
        <dc:type
           rdf:resource="http://purl.org/dc/dcmitype/StillImage" />
      </cc:Work>
    </rdf:RDF>
  </metadata>
  <defs
     id="defs20" />
  <sodipodi:namedview
     pagecolor="#ffffff"
     bordercolor="#666666"
     borderopacity="1"
     objecttolerance="10"
     gridtolerance="10"
     guidetolerance="10"
     inkscape:pageopacity="0"
     inkscape:pageshadow="2"
     inkscape:window-width="1600"
     inkscape:window-height="1124"
     id="namedview18"
     showgrid="false"
     inkscape:zoom="1.2142857"
     inkscape:cx="260.65149"
     inkscape:cy="248.82353"
     inkscape:window-x="0"
     inkscape:window-y="25"
     inkscape:window-maximized="1"
     inkscape:current-layer="svg2" />
  <title
     id="title4">Water Molecule : 2-dimensional</title>
  <style
     type="text/css"
     id="style6">
text {
	font-family: sans-serif;
	font-size: 102pt;
	text-anchor: middle;
}

line {
	stroke: #000;
	stroke-width: 9px;
}
</style>
  <g
     id="g3756"
     transform="translate(0,1.6168425)">
    <line
       style="fill:#000000;fill-opacity:1;stroke:#000000;stroke-width:9px"
       id="line10"
       y2="210"
       x2="139.21719"
       y1="90"
       x1="279.21719" />
    <line
       style="fill:#000000;fill-opacity:1;stroke:#000000;stroke-width:9px"
       id="line14"
       y2="210"
       x2="560.78278"
       y1="90"
       x1="420.78284" />
    <path
       id="path9"
       d="m 304.44151,66.498056 c 0,-15.810815 4.24967,-28.191173 12.73877,-37.135959 8.49421,-8.94478 19.45631,-13.414612 32.88628,-13.414612 8.7963,0 16.72731,2.099234 23.7879,6.297702 7.0606,4.203583 12.44692,10.060963 16.14874,17.57724 3.70182,7.516278 5.55529,16.041219 5.55529,25.564567 0,9.661594 -1.95075,18.304297 -5.85226,25.922981 -3.9015,7.623801 -9.42095,13.394135 -16.56858,17.316115 -7.14764,3.92199 -14.8636,5.87786 -23.14277,5.87786 -8.97038,0 -16.98331,-2.16579 -24.0439,-6.49739 -7.06572,-4.3367 -12.4162,-10.245284 -16.05658,-17.741088 -3.63526,-7.485559 -5.45289,-15.406326 -5.45289,-23.767416 z m 13.04085,0.19995 c 0,11.468987 3.0874,20.50593 9.25199,27.11084 6.1697,6.599794 13.90614,9.902244 23.20421,9.902244 9.48239,0 17.28028,-3.32806 23.39877,-9.999534 6.12362,-6.666343 9.18543,-16.123132 9.18543,-28.375492 0,-7.746682 -1.31074,-14.510312 -3.9271,-20.290884 -2.62149,-5.780572 -6.4513,-10.260646 -11.48946,-13.445338 -5.03817,-3.17957 -10.70098,-4.771916 -16.97308,-4.771916 -8.91406,0 -16.58394,3.06693 -23.00964,9.190553 -6.42571,6.123616 -9.64112,16.348416 -9.64112,30.679527 z"
       style="fill:#000000;fill-opacity:1;overflow:visible"
       inkscape:connector-curvature="0" />
    <path
       id="path15"
       d="m 594.20438,280.658 0,-95.27959 12.64148,0 0,39.12254 49.43951,0 0,-39.12254 12.64148,0 0,95.27959 -12.64148,0 0,-44.87752 -49.43951,0 0,44.88265 -12.64148,0 0,-0.005 z"
       style="fill:#000000;fill-opacity:1;overflow:visible"
       inkscape:connector-curvature="0" />
    <path
       id="path15-8"
       d="m 31.07315,280.8137 0,-95.27959 12.64148,0 0,39.12254 49.43951,0 0,-39.12254 12.64148,0 0,95.27959 -12.64148,0 0,-44.87752 -49.43951,0 0,44.88265 -12.64148,0 0,-0.005 z"
       style="fill:#000000;fill-opacity:1;overflow:visible"
       inkscape:connector-curvature="0" />
  </g>
</svg>
