<?xml version="1.0" standalone="yes"?>

<svg version="1.1" viewBox="0.0 0.0 986.7716535433071 737.2099737532808" fill="none" stroke="none" stroke-linecap="square" stroke-miterlimit="10" xmlns="http://www.w3.org/2000/svg" xmlns:xlink="http://www.w3.org/1999/xlink"><clipPath id="p.0"><path d="m0 0l986.77167 0l0 737.20996l-986.77167 0l0 -737.20996z" clip-rule="nonzero"></path></clipPath><g clip-path="url(#p.0)"><path fill="#000000" fill-opacity="0.0" d="m0 0l986.77167 0l0 737.20996l-986.77167 0z" fill-rule="nonzero"></path><path fill="#000000" fill-opacity="0.0" d="m185.03937 209.8727l37.291336 -34.425186" fill-rule="nonzero"></path><path stroke="#000000" stroke-width="1.0" stroke-linejoin="round" stroke-linecap="butt" d="m185.03937 209.8727l37.291336 -34.425186" fill-rule="nonzero"></path><path fill="#000000" fill-opacity="0.0" d="m222.3307 175.45013l38.740158 32.97638" fill-rule="nonzero"></path><path stroke="#000000" stroke-width="1.0" stroke-linejoin="round" stroke-linecap="butt" d="m222.3307 175.45013l38.740158 32.97638" fill-rule="nonzero"></path><path fill="#000000" fill-opacity="0.0" d="m258.18634 209.8727l38.740173 0" fill-rule="nonzero"></path><path stroke="#000000" stroke-width="1.0" stroke-linejoin="round" stroke-linecap="butt" d="m258.18634 209.8727l38.740173 0" fill-rule="nonzero"></path><path fill="#000000" fill-opacity="0.0" d="m296.9134 209.8727l34.4252 31.559067" fill-rule="nonzero"></path><path stroke="#000000" stroke-width="1.0" stroke-linejoin="round" stroke-linecap="butt" d="m296.9134 209.8727l34.4252 31.559067" fill-rule="nonzero"></path><path fill="#000000" fill-opacity="0.0" d="m331.33334 241.42651l0 40.15747" fill-rule="nonzero"></path><path stroke="#000000" stroke-width="1.0" stroke-linejoin="round" stroke-linecap="butt" d="m331.33334 241.42651l0 40.15747" fill-rule="nonzero"></path><path fill="#000000" fill-opacity="0.0" d="m331.33334 281.5866l37.29132 35.84253" fill-rule="nonzero"></path><path stroke="#000000" stroke-width="1.0" stroke-linejoin="round" stroke-linecap="butt" d="m331.33334 281.5866l37.29132 35.84253" fill-rule="nonzero"></path><path fill="#000000" fill-opacity="0.0" d="m368.62466 317.44226l-37.29132 34.4252" fill-rule="nonzero"></path><path stroke="#000000" stroke-width="1.0" stroke-linejoin="round" stroke-linecap="butt" d="m368.62466 317.44226l-37.29132 34.4252" fill-rule="nonzero"></path><path fill="#000000" fill-opacity="0.0" d="m331.33334 351.86484l0 40.15747" fill-rule="nonzero"></path><path stroke="#000000" stroke-width="1.0" stroke-linejoin="round" stroke-linecap="butt" d="m331.33334 351.86484l0 40.15747" fill-rule="nonzero"></path><path fill="#000000" fill-opacity="0.0" d="m331.33334 392.02493l-37.29135 31.559052" fill-rule="nonzero"></path><path stroke="#000000" stroke-width="1.0" stroke-linejoin="round" stroke-linecap="butt" d="m331.33334 392.02493l-37.29135 31.559052" fill-rule="nonzero"></path><path fill="#000000" fill-opacity="0.0" d="m294.04462 423.57874l-31.559052 -1.448822" fill-rule="nonzero"></path><path stroke="#000000" stroke-width="1.0" stroke-linejoin="round" stroke-linecap="butt" d="m294.04462 423.57874l-31.559052 -1.448822" fill-rule="nonzero"></path><path fill="#000000" fill-opacity="0.0" d="m258.18634 422.14304l-37.29132 35.874023" fill-rule="nonzero"></path><path stroke="#000000" stroke-width="1.0" stroke-linejoin="round" stroke-linecap="butt" d="m258.18634 422.14304l-37.29132 35.874023" fill-rule="nonzero"></path><path fill="#000000" fill-opacity="0.0" d="m220.89502 458.0013l-34.4252 -34.4252" fill-rule="nonzero"></path><path stroke="#000000" stroke-width="1.0" stroke-linejoin="round" stroke-linecap="butt" d="m220.89502 458.0013l-34.4252 -34.4252" fill-rule="nonzero"></path><path fill="#000000" fill-opacity="0.0" d="m186.47507 423.57874l-37.291336 0" fill-rule="nonzero"></path><path stroke="#000000" stroke-width="1.0" stroke-linejoin="round" stroke-linecap="butt" d="m186.47507 423.57874l-37.291336 0" fill-rule="nonzero"></path><path fill="#000000" fill-opacity="0.0" d="m149.18373 423.57874l-37.291344 -31.559052" fill-rule="nonzero"></path><path stroke="#000000" stroke-width="1.0" stroke-linejoin="round" stroke-linecap="butt" d="m149.18373 423.57874l-37.291344 -31.559052" fill-rule="nonzero"></path><path fill="#000000" fill-opacity="0.0" d="m111.89239 392.02493l1.448822 -38.740143" fill-rule="nonzero"></path><path stroke="#000000" stroke-width="1.0" stroke-linejoin="round" stroke-linecap="butt" d="m111.89239 392.02493l1.448822 -38.740143" fill-rule="nonzero"></path><path fill="#000000" fill-opacity="0.0" d="m113.32546 353.2979l-34.4252 -37.29135" fill-rule="nonzero"></path><path stroke="#000000" stroke-width="1.0" stroke-linejoin="round" stroke-linecap="butt" d="m113.32546 353.2979l-34.4252 -37.29135" fill-rule="nonzero"></path><path fill="#000000" fill-opacity="0.0" d="m78.90551 316.0092l34.4252 -34.4252" fill-rule="nonzero"></path><path stroke="#000000" stroke-width="1.0" stroke-linejoin="round" stroke-linecap="butt" d="m78.90551 316.0092l34.4252 -34.4252" fill-rule="nonzero"></path><path fill="#000000" fill-opacity="0.0" d="m113.32546 281.5866l0 -35.87401" fill-rule="nonzero"></path><path stroke="#000000" stroke-width="1.0" stroke-linejoin="round" stroke-linecap="butt" d="m113.32546 281.5866l0 -35.87401" fill-rule="nonzero"></path><path fill="#000000" fill-opacity="0.0" d="m113.32546 245.72835l34.425194 -35.842514" fill-rule="nonzero"></path><path stroke="#000000" stroke-width="1.0" stroke-linejoin="round" stroke-linecap="butt" d="m113.32546 245.72835l34.425194 -35.842514" fill-rule="nonzero"></path><path fill="#000000" fill-opacity="0.0" d="m144.87927 209.8727l38.740143 0" fill-rule="nonzero"></path><path stroke="#000000" stroke-width="1.0" stroke-linejoin="round" stroke-linecap="butt" d="m144.87927 209.8727l38.740143 0" fill-rule="nonzero"></path><path fill="#000000" fill-opacity="0.0" d="m113.32546 353.2979l57.385826 0" fill-rule="nonzero"></path><path stroke="#000000" stroke-width="1.0" stroke-linejoin="round" stroke-linecap="butt" d="m113.32546 353.2979l57.385826 0" fill-rule="nonzero"></path><path fill="#000000" fill-opacity="0.0" d="m186.47507 371.94095l-0.03149414 51.653534" fill-rule="nonzero"></path><path stroke="#000000" stroke-width="1.0" stroke-linejoin="round" stroke-linecap="butt" d="m186.47507 371.94095l-0.03149414 51.653534" fill-rule="nonzero"></path><path fill="#000000" fill-opacity="0.0" d="m150.61679 211.30315l-20.094482 -21.51181" fill-rule="nonzero"></path><path stroke="#000000" stroke-width="1.0" stroke-linejoin="round" stroke-linecap="butt" d="m150.61679 211.30315l-20.094482 -21.51181" fill-rule="nonzero"></path><path fill="#000000" fill-opacity="0.0" d="m130.53806 189.78871l0 -43.02362" fill-rule="nonzero"></path><path stroke="#000000" stroke-width="1.0" stroke-linejoin="round" stroke-linecap="butt" d="m130.53806 189.78871l0 -43.02362" fill-rule="nonzero"></path><path fill="#000000" fill-opacity="0.0" d="m298.34647 209.86745l17.228333 -14.330704" fill-rule="nonzero"></path><path stroke="#000000" stroke-width="1.0" stroke-linejoin="round" stroke-linecap="butt" d="m298.34647 209.86745l17.228333 -14.330704" fill-rule="nonzero"></path><path fill="#000000" fill-opacity="0.0" d="m331.33334 243.54593l14.803131 -11.401566" fill-rule="nonzero"></path><path stroke="#000000" stroke-width="1.0" stroke-linejoin="round" stroke-linecap="butt" d="m331.33334 243.54593l14.803131 -11.401566" fill-rule="nonzero"></path><path fill="#000000" fill-opacity="0.0" d="m331.33597 389.1509l32.97638 22.929138" fill-rule="nonzero"></path><path stroke="#000000" stroke-width="1.0" stroke-linejoin="round" stroke-linecap="butt" d="m331.33597 389.1509l32.97638 22.929138" fill-rule="nonzero"></path><path fill="#000000" fill-opacity="0.0" d="m296.9134 426.44226l27.24408 32.97638" fill-rule="nonzero"></path><path stroke="#000000" stroke-width="1.0" stroke-linejoin="round" stroke-linecap="butt" d="m296.9134 426.44226l27.24408 32.97638" fill-rule="nonzero"></path><path fill="#000000" fill-opacity="0.0" d="m152.05249 426.44226l0 55.93701" fill-rule="nonzero"></path><path stroke="#000000" stroke-width="1.0" stroke-linejoin="round" stroke-linecap="butt" d="m152.05249 426.44226l0 55.93701" fill-rule="nonzero"></path><path fill="#000000" fill-opacity="0.0" d="m152.03412 488.83072l-48.755905 0" fill-rule="nonzero"></path><path stroke="#000000" stroke-width="1.0" stroke-linejoin="round" stroke-linecap="butt" d="m152.03412 488.83072l-48.755905 0" fill-rule="nonzero"></path><path fill="#000000" fill-opacity="0.0" d="m111.89239 390.5866l-25.826767 27.24411" fill-rule="nonzero"></path><path stroke="#000000" stroke-width="1.0" stroke-linejoin="round" stroke-linecap="butt" d="m111.89239 390.5866l-25.826767 27.24411" fill-rule="nonzero"></path><path fill="#000000" fill-opacity="0.0" d="m116.19685 247.1588l-22.960632 -24.37796" fill-rule="nonzero"></path><path stroke="#000000" stroke-width="1.0" stroke-linejoin="round" stroke-linecap="butt" d="m116.19685 247.1588l-22.960632 -24.37796" fill-rule="nonzero"></path><path fill="#000000" fill-opacity="0.0" d="m152.05249 498.16666l-48.755905 0" fill-rule="nonzero"></path><path stroke="#000000" stroke-width="1.0" stroke-linejoin="round" stroke-linecap="butt" d="m152.05249 498.16666l-48.755905 0" fill-rule="nonzero"></path><path fill="#000000" fill-opacity="0.0" d="m140.56955 189.78871l0 -43.02362" fill-rule="nonzero"></path><path stroke="#000000" stroke-width="1.0" stroke-linejoin="round" stroke-linecap="butt" d="m140.56955 189.78871l0 -43.02362" fill-rule="nonzero"></path><path fill="#000000" fill-opacity="0.0" d="m121.19948 116.67585l38.740158 0l0 32.976387l-38.740158 0z" fill-rule="nonzero"></path><path fill="#000000" d="m141.37135 138.83023l1.796875 0.453125q-0.5625 2.21875 -2.03125 3.390625q-1.46875 1.15625 -3.59375 1.15625q-2.203125 0 -3.578125 -0.890625q-1.375 -0.90625 -2.09375 -2.59375q-0.71875 -1.703125 -0.71875 -3.65625q0 -2.125 0.796875 -3.703125q0.8125 -1.578125 2.3125 -2.390625q1.5 -0.828125 3.296875 -0.828125q2.046875 0 3.4375 1.046875q1.390625 1.03125 1.9375 2.90625l-1.765625 0.421875q-0.46875 -1.484375 -1.375 -2.15625q-0.90625 -0.6875 -2.265625 -0.6875q-1.5625 0 -2.625 0.75q-1.046875 0.75 -1.484375 2.03125q-0.421875 1.265625 -0.421875 2.609375q0 1.734375 0.5 3.03125q0.515625 1.28125 1.578125 1.921875q1.078125 0.640625 2.3125 0.640625q1.515625 0 2.5625 -0.859375q1.046875 -0.875 1.421875 -2.59375z" fill-rule="nonzero"></path><path fill="#000000" fill-opacity="0.0" d="m312.6824 166.85957l25.826782 0l0 27.244095l-25.826782 0z" fill-rule="nonzero"></path><path fill="#000000" d="m332.85428 189.01395l1.796875 0.453125q-0.5625 2.21875 -2.03125 3.390625q-1.46875 1.15625 -3.59375 1.15625q-2.203125 0 -3.578125 -0.890625q-1.375 -0.90625 -2.09375 -2.59375q-0.71875 -1.703125 -0.71875 -3.65625q0 -2.125 0.796875 -3.703125q0.8125 -1.578125 2.3125 -2.390625q1.5 -0.828125 3.296875 -0.828125q2.046875 0 3.4375 1.046875q1.390625 1.03125 1.9375 2.90625l-1.765625 0.421875q-0.46875 -1.484375 -1.375 -2.15625q-0.90625 -0.6875 -2.265625 -0.6875q-1.5625 0 -2.625 0.75q-1.046875 0.75 -1.484375 2.03125q-0.421875 1.265625 -0.421875 2.609375q0 1.734375 0.5 3.03125q0.515625 1.28125 1.578125 1.921875q1.078125 0.640625 2.3125 0.640625q1.515625 0 2.5625 -0.859375q1.046875 -0.875 1.421875 -2.59375z" fill-rule="nonzero"></path><path fill="#000000" fill-opacity="0.0" d="m114.74278 172.59448l25.826767 0l0 27.244095l-25.826767 0z" fill-rule="nonzero"></path><path fill="#000000" d="m134.91466 194.74886l1.796875 0.453125q-0.5625 2.21875 -2.03125 3.390625q-1.46875 1.15625 -3.59375 1.15625q-2.203125 0 -3.578125 -0.890625q-1.375 -0.90625 -2.09375 -2.59375q-0.71875 -1.703125 -0.71875 -3.65625q0 -2.125 0.796875 -3.703125q0.8125 -1.578125 2.3125 -2.390625q1.5 -0.828125 3.296875 -0.828125q2.046875 0 3.4375 1.046875q1.390625 1.03125 1.9375 2.90625l-1.765625 0.421875q-0.46875 -1.484375 -1.375 -2.15625q-0.90625 -0.6875 -2.265625 -0.6875q-1.5625 0 -2.625 0.75q-1.046875 0.75 -1.484375 2.03125q-0.421875 1.265625 -0.421875 2.609375q0 1.734375 0.5 3.03125q0.515625 1.28125 1.578125 1.921875q1.078125 0.640625 2.3125 0.640625q1.515625 0 2.5625 -0.859375q1.046875 -0.875 1.421875 -2.59375z" fill-rule="nonzero"></path><path fill="#000000" fill-opacity="0.0" d="m69.74803 199.83858l25.826775 0l0 27.244095l-25.826775 0z" fill-rule="nonzero"></path><path fill="#000000" d="m89.91991 221.99295l1.796875 0.453125q-0.5625 2.21875 -2.03125 3.390625q-1.46875 1.15625 -3.59375 1.15625q-2.203125 0 -3.578125 -0.890625q-1.375 -0.90625 -2.09375 -2.59375q-0.71875 -1.703125 -0.71875 -3.65625q0 -2.125 0.796875 -3.703125q0.8125 -1.578125 2.3125 -2.390625q1.5 -0.828125 3.296875 -0.828125q2.046875 0 3.4375 1.046875q1.390625 1.03125 1.9375 2.90625l-1.765625 0.421875q-0.46875 -1.484375 -1.375 -2.15625q-0.90625 -0.6875 -2.265625 -0.6875q-1.5625 0 -2.625 0.75q-1.046875 0.75 -1.484375 2.03125q-0.421875 1.265625 -0.421875 2.609375q0 1.734375 0.5 3.03125q0.515625 1.28125 1.578125 1.921875q1.078125 0.640625 2.3125 0.640625q1.515625 0 2.5625 -0.859375q1.046875 -0.875 1.421875 -2.59375z" fill-rule="nonzero"></path><path fill="#000000" fill-opacity="0.0" d="m340.9029 211.05643l25.826752 0l0 27.244095l-25.826752 0z" fill-rule="nonzero"></path><path fill="#000000" d="m361.07477 233.2108l1.796875 0.453125q-0.5625 2.21875 -2.03125 3.390625q-1.46875 1.15625 -3.59375 1.15625q-2.203125 0 -3.578125 -0.890625q-1.375 -0.90625 -2.09375 -2.59375q-0.71875 -1.703125 -0.71875 -3.65625q0 -2.125 0.796875 -3.703125q0.8125 -1.578125 2.3125 -2.390625q1.5 -0.828125 3.296875 -0.828125q2.046875 0 3.4375 1.046875q1.390625 1.03125 1.9375 2.90625l-1.765625 0.421875q-0.46875 -1.484375 -1.375 -2.15625q-0.90625 -0.6875 -2.265625 -0.6875q-1.5625 0 -2.625 0.75q-1.046875 0.75 -1.484375 2.03125q-0.421875 1.265625 -0.421875 2.609375q0 1.734375 0.5 3.03125q0.515625 1.28125 1.578125 1.921875q1.078125 0.640625 2.3125 0.640625q1.515625 0 2.5625 -0.859375q1.046875 -0.875 1.421875 -2.59375z" fill-rule="nonzero"></path><path fill="#000000" fill-opacity="0.0" d="m60.238846 399.19815l25.826775 0l0 27.24411l-25.826775 0z" fill-rule="nonzero"></path><path fill="#000000" d="m80.41072 421.35254l1.796875 0.453125q-0.5625 2.21875 -2.03125 3.390625q-1.46875 1.15625 -3.59375 1.15625q-2.203125 0 -3.578125 -0.890625q-1.375 -0.90625 -2.09375 -2.59375q-0.71875 -1.703125 -0.71875 -3.65625q0 -2.125 0.796875 -3.703125q0.8125 -1.578125 2.3125 -2.390625q1.5 -0.828125 3.296875 -0.828125q2.046875 0 3.4375 1.046875q1.390625 1.03125 1.9375 2.90625l-1.765625 0.421875q-0.46875 -1.484375 -1.375 -2.15625q-0.90625 -0.6875 -2.265625 -0.6875q-1.5625 0 -2.625 0.75q-1.046875 0.75 -1.484375 2.03125q-0.421875 1.265625 -0.421875 2.609375q0 1.734375 0.5 3.03125q0.515625 1.28125 1.578125 1.921875q1.078125 0.640625 2.3125 0.640625q1.515625 0 2.5625 -0.859375q1.046875 -0.875 1.421875 -2.59375z" fill-rule="nonzero"></path><path fill="#000000" fill-opacity="0.0" d="m352.86353 163.97507l25.826752 0l0 27.244095l-25.826752 0z" fill-rule="nonzero"></path><path fill="#000000" d="m373.0354 186.12944l1.796875 0.453125q-0.5625 2.21875 -2.03125 3.390625q-1.46875 1.15625 -3.59375 1.15625q-2.203125 0 -3.578125 -0.890625q-1.375 -0.90625 -2.09375 -2.59375q-0.71875 -1.703125 -0.71875 -3.65625q0 -2.125 0.796875 -3.703125q0.8125 -1.578125 2.3125 -2.390625q1.5 -0.828125 3.296875 -0.828125q2.046875 0 3.4375 1.046875q1.390625 1.03125 1.9375 2.90625l-1.765625 0.421875q-0.46875 -1.484375 -1.375 -2.15625q-0.90625 -0.6875 -2.265625 -0.6875q-1.5625 0 -2.625 0.75q-1.046875 0.75 -1.484375 2.03125q-0.421875 1.265625 -0.421875 2.609375q0 1.734375 0.5 3.03125q0.515625 1.28125 1.578125 1.921875q1.078125 0.640625 2.3125 0.640625q1.515625 0 2.5625 -0.859375q1.046875 -0.875 1.421875 -2.59375z" fill-rule="nonzero"></path><path fill="#000000" fill-opacity="0.0" d="m139.1378 475.20865l25.826767 0l0 27.24411l-25.826767 0z" fill-rule="nonzero"></path><path fill="#000000" d="m159.30968 497.36304l1.796875 0.453125q-0.5625 2.21875 -2.03125 3.390625q-1.46875 1.15625 -3.59375 1.15625q-2.203125 0 -3.578125 -0.890625q-1.375 -0.90625 -2.09375 -2.59375q-0.71875 -1.703125 -0.71875 -3.65625q0 -2.125 0.796875 -3.703125q0.8125 -1.578125 2.3125 -2.390625q1.5 -0.828125 3.296875 -0.828125q2.046875 0 3.4375 1.046875q1.390625 1.03125 1.9375 2.90625l-1.765625 0.421875q-0.46875 -1.484375 -1.375 -2.15625q-0.90625 -0.6875 -2.265625 -0.6875q-1.5625 0 -2.625 0.75q-1.046875 0.75 -1.484375 2.03125q-0.421875 1.265625 -0.421875 2.609375q0 1.734375 0.5 3.03125q0.515625 1.28125 1.578125 1.921875q1.078125 0.640625 2.3125 0.640625q1.515625 0 2.5625 -0.859375q1.046875 -0.875 1.421875 -2.59375z" fill-rule="nonzero"></path><path fill="#000000" fill-opacity="0.0" d="m312.6824 447.95013l25.826782 0l0 27.24408l-25.826782 0z" fill-rule="nonzero"></path><path fill="#000000" d="m332.85428 470.1045l1.796875 0.453125q-0.5625 2.21875 -2.03125 3.390625q-1.46875 1.15625 -3.59375 1.15625q-2.203125 0 -3.578125 -0.890625q-1.375 -0.90625 -2.09375 -2.59375q-0.71875 -1.703125 -0.71875 -3.65625q0 -2.125 0.796875 -3.703125q0.8125 -1.578125 2.3125 -2.390625q1.5 -0.828125 3.296875 -0.828125q2.046875 0 3.4375 1.046875q1.390625 1.03125 1.9375 2.90625l-1.765625 0.421875q-0.46875 -1.484375 -1.375 -2.15625q-0.90625 -0.6875 -2.265625 -0.6875q-1.5625 0 -2.625 0.75q-1.046875 0.75 -1.484375 2.03125q-0.421875 1.265625 -0.421875 2.609375q0 1.734375 0.5 3.03125q0.515625 1.28125 1.578125 1.921875q1.078125 0.640625 2.3125 0.640625q1.515625 0 2.5625 -0.859375q1.046875 -0.875 1.421875 -2.59375z" fill-rule="nonzero"></path><path fill="#000000" fill-opacity="0.0" d="m354.28348 399.19815l25.826752 0l0 27.24411l-25.826752 0z" fill-rule="nonzero"></path><path fill="#000000" d="m374.45535 421.35254l1.796875 0.453125q-0.5625 2.21875 -2.03125 3.390625q-1.46875 1.15625 -3.59375 1.15625q-2.203125 0 -3.578125 -0.890625q-1.375 -0.90625 -2.09375 -2.59375q-0.71875 -1.703125 -0.71875 -3.65625q0 -2.125 0.796875 -3.703125q0.8125 -1.578125 2.3125 -2.390625q1.5 -0.828125 3.296875 -0.828125q2.046875 0 3.4375 1.046875q1.390625 1.03125 1.9375 2.90625l-1.765625 0.421875q-0.46875 -1.484375 -1.375 -2.15625q-0.90625 -0.6875 -2.265625 -0.6875q-1.5625 0 -2.625 0.75q-1.046875 0.75 -1.484375 2.03125q-0.421875 1.265625 -0.421875 2.609375q0 1.734375 0.5 3.03125q0.515625 1.28125 1.578125 1.921875q1.078125 0.640625 2.3125 0.640625q1.515625 0 2.5625 -0.859375q1.046875 -0.875 1.421875 -2.59375z" fill-rule="nonzero"></path><path fill="#000000" fill-opacity="0.0" d="m152.05249 435.7651l-12.913376 0l0 14.330688l12.913376 0z" fill-rule="nonzero"></path><path fill="#000000" d="m154.22437 454.25018l1.796875 0.453125q-0.5625 2.21875 -2.03125 3.390625q-1.46875 1.15625 -3.59375 1.15625q-2.203125 0 -3.578125 -0.890625q-1.375 -0.90625 -2.09375 -2.59375q-0.71875 -1.703125 -0.71875 -3.65625q0 -2.125 0.796875 -3.703125q0.8125 -1.578125 2.3125 -2.390625q1.5 -0.828125 3.296875 -0.828125q2.046875 0 3.4375 1.046875q1.390625 1.03125 1.9375 2.90625l-1.765625 0.421875q-0.46875 -1.484375 -1.375 -2.15625q-0.90625 -0.6875 -2.265625 -0.6875q-1.5625 0 -2.625 0.75q-1.046875 0.75 -1.484375 2.03125q-0.421875 1.265625 -0.421875 2.609375q0 1.734375 0.5 3.03125q0.515625 1.28125 1.578125 1.921875q1.078125 0.640625 2.3125 0.640625q1.515625 0 2.5625 -0.859375q1.046875 -0.875 1.421875 -2.59375z" fill-rule="nonzero"></path><path fill="#000000" d="m149.09937 473.00018l0 1.015625l-5.6875 0q0 -0.375 0.125 -0.734375q0.21875 -0.578125 0.6875 -1.140625q0.484375 -0.5625 1.390625 -1.296875q1.40625 -1.15625 1.890625 -1.828125q0.5 -0.671875 0.5 -1.265625q0 -0.625 -0.453125 -1.046875q-0.453125 -0.4375 -1.171875 -0.4375q-0.765625 0 -1.21875 0.453125q-0.453125 0.453125 -0.46875 1.265625l-1.078125 -0.109375q0.109375 -1.21875 0.828125 -1.84375q0.734375 -0.640625 1.96875 -0.640625q1.234375 0 1.953125 0.6875q0.71875 0.6875 0.71875 1.703125q0 0.515625 -0.21875 1.015625q-0.203125 0.484375 -0.703125 1.046875q-0.484375 0.546875 -1.609375 1.5q-0.953125 0.796875 -1.234375 1.09375q-0.265625 0.28125 -0.4375 0.5625l4.21875 0z" fill-rule="nonzero"></path><path fill="#000000" fill-opacity="0.0" d="m127.67454 539.7651l48.755913 0l0 22.929138l-48.755913 0z" fill-rule="nonzero"></path><path fill="#000000" d="m137.59642 560.0601q0 -3.390625 1.8125 -5.296875q1.828125 -1.921875 4.703125 -1.921875q1.875 0 3.390625 0.90625q1.515625 0.890625 2.296875 2.5q0.796875 1.609375 0.796875 3.65625q0 2.0625 -0.84375 3.703125q-0.828125 1.625 -2.359375 2.46875q-1.53125 0.84375 -3.296875 0.84375q-1.921875 0 -3.4375 -0.921875q-1.5 -0.9375 -2.28125 -2.53125q-0.78125 -1.609375 -0.78125 -3.40625zm1.859375 0.03125q0 2.453125 1.3125 3.875q1.328125 1.40625 3.3125 1.40625q2.03125 0 3.34375 -1.421875q1.3125 -1.4375 1.3125 -4.0625q0 -1.65625 -0.5625 -2.890625q-0.546875 -1.234375 -1.640625 -1.921875q-1.078125 -0.6875 -2.421875 -0.6875q-1.90625 0 -3.28125 1.3125q-1.375 1.3125 -1.375 4.390625zm13.245804 6.59375l0 -13.59375l1.8125 0l0 5.578125l7.0625 0l0 -5.578125l1.796875 0l0 13.59375l-1.796875 0l0 -6.40625l-7.0625 0l0 6.40625l-1.8125 0z" fill-rule="nonzero"></path><path fill="#000000" fill-opacity="0.0" d="m73.338585 475.20865l18.645668 0l0 14.330719l-18.645668 0z" fill-rule="nonzero"></path><path fill="#000000" d="m83.26046 491.83438q0 -3.390625 1.8125 -5.296875q1.828125 -1.921875 4.703125 -1.921875q1.875 0 3.390625 0.90625q1.515625 0.890625 2.296875 2.5q0.796875 1.609375 0.796875 3.65625q0 2.0625 -0.84375 3.703125q-0.828125 1.625 -2.359375 2.46875q-1.53125 0.84375 -3.296875 0.84375q-1.921875 0 -3.4375 -0.921875q-1.5 -0.9375 -2.28125 -2.53125q-0.78125 -1.609375 -0.78125 -3.40625zm1.859375 0.03125q0 2.453125 1.3125 3.875q1.328125 1.40625 3.3125 1.40625q2.03125 0 3.34375 -1.421875q1.3125 -1.4375 1.3125 -4.0625q0 -1.65625 -0.5625 -2.890625q-0.546875 -1.234375 -1.640625 -1.921875q-1.078125 -0.6875 -2.421875 -0.6875q-1.90625 0 -3.28125 1.3125q-1.375 1.3125 -1.375 4.390625z" fill-rule="nonzero"></path><path fill="#000000" fill-opacity="0.0" d="m152.05118 502.45276l0 37.322815" fill-rule="nonzero"></path><path stroke="#000000" stroke-width="1.0" stroke-linejoin="round" stroke-linecap="butt" d="m152.05118 502.45276l0 37.322815" fill-rule="nonzero"></path><path fill="#000000" fill-opacity="0.0" d="m334.19553 515.83856l0 13.637817" fill-rule="nonzero"></path><path stroke="#000000" stroke-width="1.0" stroke-linejoin="round" stroke-linecap="butt" d="m334.19553 515.83856l0 13.637817" fill-rule="nonzero"></path><path fill="#000000" fill-opacity="0.0" d="m334.2126 529.46063l48.75592 0" fill-rule="nonzero"></path><path stroke="#000000" stroke-width="1.0" stroke-linejoin="round" stroke-linecap="butt" d="m334.2126 529.46063l48.75592 0" fill-rule="nonzero"></path><path fill="#000000" fill-opacity="0.0" d="m334.1942 538.7966l48.75592 0" fill-rule="nonzero"></path><path stroke="#000000" stroke-width="1.0" stroke-linejoin="round" stroke-linecap="butt" d="m334.1942 538.7966l48.75592 0" fill-rule="nonzero"></path><path fill="#000000" fill-opacity="0.0" d="m347.10892 515.83856l-25.826752 0l0 27.24414l25.826752 0z" fill-rule="nonzero"></path><path fill="#000000" d="m341.45404 537.993l1.796875 0.453125q-0.5625 2.21875 -2.03125 3.390625q-1.46875 1.15625 -3.59375 1.15625q-2.203125 0 -3.578125 -0.890625q-1.375 -0.90625 -2.09375 -2.59375q-0.71875 -1.703125 -0.71875 -3.65625q0 -2.125 0.796875 -3.703125q0.8125 -1.578125 2.3125 -2.390625q1.5 -0.828125 3.296875 -0.828125q2.046875 0 3.4375 1.046875q1.390625 1.03125 1.9375 2.90625l-1.765625 0.421875q-0.46875 -1.484375 -1.375 -2.15625q-0.90625 -0.6875 -2.265625 -0.6875q-1.5625 0 -2.625 0.75q-1.046875 0.75 -1.484375 2.03125q-0.421875 1.265625 -0.421875 2.609375q0 1.734375 0.5 3.03125q0.515625 1.28125 1.578125 1.921875q1.078125 0.640625 2.3125 0.640625q1.515625 0 2.5625 -0.859375q1.046875 -0.875 1.421875 -2.59375z" fill-rule="nonzero"></path><path fill="#000000" fill-opacity="0.0" d="m358.57217 580.395l-48.75589 0l0 22.929138l48.75589 0z" fill-rule="nonzero"></path><path fill="#000000" d="m319.73816 600.69q0 -3.390625 1.8125 -5.296875q1.828125 -1.921875 4.703125 -1.921875q1.875 0 3.390625 0.90625q1.515625 0.890625 2.296875 2.5q0.796875 1.609375 0.796875 3.65625q0 2.0625 -0.84375 3.703125q-0.828125 1.625 -2.359375 2.46875q-1.53125 0.84375 -3.296875 0.84375q-1.921875 0 -3.4375 -0.921875q-1.5 -0.9375 -2.28125 -2.53125q-0.78125 -1.609375 -0.78125 -3.40625zm1.859375 0.03125q0 2.453125 1.3125 3.875q1.328125 1.40625 3.3125 1.40625q2.03125 0 3.34375 -1.421875q1.3125 -1.4375 1.3125 -4.0625q0 -1.65625 -0.5625 -2.890625q-0.546875 -1.234375 -1.640625 -1.921875q-1.078125 -0.6875 -2.421875 -0.6875q-1.90625 0 -3.28125 1.3125q-1.375 1.3125 -1.375 4.390625zm13.245789 6.59375l0 -13.59375l1.8125 0l0 5.578125l7.0625 0l0 -5.578125l1.796875 0l0 13.59375l-1.796875 0l0 -6.40625l-7.0625 0l0 6.40625l-1.8125 0z" fill-rule="nonzero"></path><path fill="#000000" fill-opacity="0.0" d="m401.6299 515.4921l-18.64566 0l0 14.330688l18.64566 0z" fill-rule="nonzero"></path><path fill="#000000" d="m392.90613 532.11786q0 -3.390625 1.8125 -5.296875q1.828125 -1.921875 4.703125 -1.921875q1.875 0 3.390625 0.90625q1.515625 0.890625 2.296875 2.5q0.796875 1.609375 0.796875 3.65625q0 2.0625 -0.84375 3.703125q-0.828125 1.625 -2.359375 2.46875q-1.53125 0.84375 -3.296875 0.84375q-1.921875 0 -3.4375 -0.921875q-1.5 -0.9375 -2.28125 -2.53125q-0.78125 -1.609375 -0.78125 -3.40625zm1.859375 0.03125q0 2.453125 1.3125 3.875q1.328125 1.40625 3.3125 1.40625q2.03125 0 3.34375 -1.421875q1.3125 -1.4375 1.3125 -4.0625q0 -1.65625 -0.5625 -2.890625q-0.546875 -1.234375 -1.640625 -1.921875q-1.078125 -0.6875 -2.421875 -0.6875q-1.90625 0 -3.28125 1.3125q-1.375 1.3125 -1.375 4.390625z" fill-rule="nonzero"></path><path fill="#000000" fill-opacity="0.0" d="m334.19553 543.0827l0 37.322815" fill-rule="nonzero"></path><path stroke="#000000" stroke-width="1.0" stroke-linejoin="round" stroke-linecap="butt" d="m334.19553 543.0827l0 37.322815" fill-rule="nonzero"></path><path fill="#000000" fill-opacity="0.0" d="m334.19553 515.83856l0.62994385 -40.629913" fill-rule="nonzero"></path><path stroke="#000000" stroke-width="1.0" stroke-linejoin="round" stroke-linecap="butt" d="m334.19553 515.83856l0.62994385 -40.629913" fill-rule="nonzero"></path><path fill="#000000" fill-opacity="0.0" d="m295.47244 424.2861l37.29135 -31.559082" fill-rule="nonzero"></path><path stroke="#000000" stroke-width="1.0" stroke-linejoin="round" stroke-linecap="butt" d="m295.47244 424.2861l37.29135 -31.559082" fill-rule="nonzero"></path><path fill="#000000" fill-opacity="0.0" d="m331.33072 354.00525l-57.385834 0" fill-rule="nonzero"></path><path stroke="#000000" stroke-width="1.0" stroke-linejoin="round" stroke-linecap="butt" d="m331.33072 354.00525l-57.385834 0" fill-rule="nonzero"></path><path fill="#000000" fill-opacity="0.0" d="m258.1811 372.6483l0.03149414 51.653564" fill-rule="nonzero"></path><path stroke="#000000" stroke-width="1.0" stroke-linejoin="round" stroke-linecap="butt" d="m258.1811 372.6483l0.03149414 51.653564" fill-rule="nonzero"></path><path fill="#000000" fill-opacity="0.0" d="m294.02887 208.89896l37.29135 31.559052" fill-rule="nonzero"></path><path stroke="#000000" stroke-width="1.0" stroke-linejoin="round" stroke-linecap="butt" d="m294.02887 208.89896l37.29135 31.559052" fill-rule="nonzero"></path><path fill="#000000" fill-opacity="0.0" d="m329.88715 279.17978l-57.385834 0" fill-rule="nonzero"></path><path stroke="#000000" stroke-width="1.0" stroke-linejoin="round" stroke-linecap="butt" d="m329.88715 279.17978l-57.385834 0" fill-rule="nonzero"></path><path fill="#000000" fill-opacity="0.0" d="m256.73752 260.53674l0.03152466 -51.653534" fill-rule="nonzero"></path><path stroke="#000000" stroke-width="1.0" stroke-linejoin="round" stroke-linecap="butt" d="m256.73752 260.53674l0.03152466 -51.653534" fill-rule="nonzero"></path><path fill="#000000" fill-opacity="0.0" d="m113.73753 279.19553l57.38582 0" fill-rule="nonzero"></path><path stroke="#000000" stroke-width="1.0" stroke-linejoin="round" stroke-linecap="butt" d="m113.73753 279.19553l57.38582 0" fill-rule="nonzero"></path><path fill="#000000" fill-opacity="0.0" d="m186.88715 260.5525l-0.0315094 -51.653534" fill-rule="nonzero"></path><path stroke="#000000" stroke-width="1.0" stroke-linejoin="round" stroke-linecap="butt" d="m186.88715 260.5525l-0.0315094 -51.653534" fill-rule="nonzero"></path><path fill="#000000" fill-opacity="0.0" d="m171.12335 253.58923l27.244095 0l0 31.559052l-27.244095 0z" fill-rule="nonzero"></path><path fill="#000000" d="m181.57648 280.50925l0 -13.59375l1.84375 0l7.140625 10.671875l0 -10.671875l1.71875 0l0 13.59375l-1.84375 0l-7.140625 -10.6875l0 10.6875l-1.71875 0z" fill-rule="nonzero"></path><path fill="#000000" fill-opacity="0.0" d="m243.13124 253.58923l27.244095 0l0 31.559052l-27.244095 0z" fill-rule="nonzero"></path><path fill="#000000" d="m253.58437 280.50925l0 -13.59375l1.84375 0l7.1406097 10.671875l0 -10.671875l1.71875 0l0 13.59375l-1.84375 0l-7.1406097 -10.6875l0 10.6875l-1.71875 0z" fill-rule="nonzero"></path><path fill="#000000" fill-opacity="0.0" d="m243.13124 332.74277l27.244095 0l0 31.559082l-27.244095 0z" fill-rule="nonzero"></path><path fill="#000000" d="m253.58437 359.66278l0 -13.59375l1.84375 0l7.1406097 10.671875l0 -10.671875l1.71875 0l0 13.59375l-1.84375 0l-7.1406097 -10.6875l0 10.6875l-1.71875 0z" fill-rule="nonzero"></path><path fill="#000000" fill-opacity="0.0" d="m173.24934 332.74408l27.244095 0l0 31.559082l-27.244095 0z" fill-rule="nonzero"></path><path fill="#000000" d="m183.70247 359.6641l0 -13.59375l1.84375 0l7.140625 10.671875l0 -10.671875l1.71875 0l0 13.59375l-1.84375 0l-7.140625 -10.6875l0 10.6875l-1.71875 0z" fill-rule="nonzero"></path><path fill="#000000" fill-opacity="0.0" d="m200.49344 294.00394l45.88977 0l0 38.740143l-45.88977 0z" fill-rule="nonzero"></path><path fill="#000000" d="m211.05594 320.92395l0 -13.59375l9.171875 0l0 1.59375l-7.375 0l0 4.21875l6.375 0l0 1.609375l-6.375 0l0 6.171875l-1.796875 0zm17.83348 -3.171875l1.71875 0.21875q-0.40625 1.5 -1.515625 2.34375q-1.09375 0.828125 -2.8125 0.828125q-2.15625 0 -3.421875 -1.328125q-1.265625 -1.328125 -1.265625 -3.734375q0 -2.484375 1.265625 -3.859375q1.28125 -1.375 3.328125 -1.375q1.984375 0 3.234375 1.34375q1.25 1.34375 1.25 3.796875q0 0.140625 -0.015625 0.4375l-7.34375 0q0.09375 1.625 0.921875 2.484375q0.828125 0.859375 2.0625 0.859375q0.90625 0 1.546875 -0.46875q0.65625 -0.484375 1.046875 -1.546875zm-5.484375 -2.703125l5.5 0q-0.109375 -1.234375 -0.625 -1.859375q-0.796875 -0.96875 -2.078125 -0.96875q-1.140625 0 -1.9375 0.78125q-0.78125 0.765625 -0.859375 2.046875z" fill-rule="nonzero"></path><path fill="#000000" fill-opacity="0.0" d="m367.5761 197.32152l-3.1495972 25.102371" fill-rule="nonzero"></path><path stroke="#000000" stroke-width="1.0" stroke-linejoin="round" stroke-linecap="butt" d="m367.5761 197.32152l-3.1495972 25.102371" fill-rule="nonzero"></path><path fill="#000000" fill-opacity="0.0" d="m189.32545 283.1063l17.196854 24.251984" fill-rule="nonzero"></path><path stroke="#000000" stroke-width="1.0" stroke-linejoin="round" stroke-linecap="butt" d="m189.32545 283.1063l17.196854 24.251984" fill-rule="nonzero"></path><path fill="#000000" fill-opacity="0.0" d="m229.92914 323.9908l17.196854 24.251953" fill-rule="nonzero"></path><path stroke="#000000" stroke-width="1.0" stroke-linejoin="round" stroke-linecap="butt" d="m229.92914 323.9908l17.196854 24.251953" fill-rule="nonzero"></path><path fill="#000000" fill-opacity="0.0" d="m249.89764 280.88583l-22.740158 28.692902" fill-rule="nonzero"></path><path stroke="#000000" stroke-width="1.0" stroke-linejoin="round" stroke-linecap="butt" d="m249.89764 280.88583l-22.740158 28.692902" fill-rule="nonzero"></path><path fill="#000000" fill-opacity="0.0" d="m212.06561 321.77036l-22.740158 28.692902" fill-rule="nonzero"></path><path stroke="#000000" stroke-width="1.0" stroke-linejoin="round" stroke-linecap="butt" d="m212.06561 321.77036l-22.740158 28.692902" fill-rule="nonzero"></path><path fill="#000000" fill-opacity="0.0" d="m107.56956 27.251968l273.95276 0l0 63.11811l-273.95276 0z" fill-rule="nonzero"></path><path fill="#000000" d="m119.77268 74.65197l0 -28.640629l3.796875 0l0 11.765625l14.874992 0l0 -11.765625l3.796875 0l0 28.640629l-3.796875 0l0 -13.500004l-14.874992 0l0 13.500004l-3.796875 0zm42.527336 -6.6875l3.625 0.453125q-0.859375 3.1875 -3.1875 4.953125q-2.3125 1.75 -5.9375 1.75q-4.546875 0 -7.21875 -2.796875q-2.65625 -2.8125 -2.65625 -7.875q0 -5.234379 2.6875 -8.125004q2.703125 -2.890625 7.0 -2.890625q4.15625 0 6.796875 2.84375q2.640625 2.828125 2.640625 7.968754q0 0.3125 -0.03125 0.9375l-15.46875 0q0.203125 3.40625 1.9375 5.234375q1.734375 1.8125 4.34375 1.8125q1.921875 0 3.28125 -1.015625q1.375 -1.015625 2.1875 -3.25zm-11.546875 -5.671879l11.578125 0q-0.234375 -2.625 -1.328125 -3.9375q-1.671875 -2.03125 -4.359375 -2.03125q-2.421875 0 -4.078125 1.625q-1.640625 1.625 -1.8125 4.34375zm19.589844 12.359379l0 -20.750004l3.140625 0l0 2.921875q0.984375 -1.53125 2.59375 -2.453125q1.625 -0.9375 3.703125 -0.9375q2.296875 0 3.765625 0.96875q1.484375 0.953125 2.09375 2.671875q2.453125 -3.640625 6.40625 -3.640625q3.078125 0 4.734375 1.71875q1.671875 1.703125 1.671875 5.265625l0 14.234379l-3.5 0l0 -13.062504q0 -2.109375 -0.34375 -3.03125q-0.34375 -0.9375 -1.25 -1.5q-0.890625 -0.578125 -2.09375 -0.578125q-2.1875 0 -3.640625 1.46875q-1.4375 1.453125 -1.4375 4.65625l0 12.046879l-3.515625 0l0 -13.484379q0 -2.34375 -0.859375 -3.515625q-0.859375 -1.171875 -2.8125 -1.171875q-1.484375 0 -2.75 0.78125q-1.265625 0.78125 -1.828125 2.296875q-0.5625 1.5 -0.5625 4.328125l0 10.765629l-3.515625 0zm32.007812 -10.375q0 -5.765629 3.203125 -8.531254q2.671875 -2.3125 6.53125 -2.3125q4.265625 0 6.984375 2.8125q2.71875 2.796875 2.71875 7.734375q0 4.015629 -1.203125 6.312504q-1.203125 2.28125 -3.5 3.5625q-2.296875 1.265625 -5.0 1.265625q-4.359375 0 -7.046875 -2.796875q-2.6875 -2.796875 -2.6875 -8.046875zm3.609375 0q0 3.984375 1.734375 5.96875q1.75 1.984375 4.390625 1.984375q2.609375 0 4.34375 -1.984375q1.75 -2.0 1.75 -6.078125q0 -3.8593788 -1.75 -5.828129q-1.75 -1.984375 -4.34375 -1.984375q-2.640625 0 -4.390625 1.96875q-1.734375 1.96875 -1.734375 5.953129zm19.308594 12.09375l3.40625 0.515625q0.21875 1.578125 1.203125 2.296875q1.296875 0.984375 3.5625 0.984375q2.453125 0 3.78125 -0.984375q1.328125 -0.96875 1.796875 -2.734375q0.265625 -1.078125 0.25 -4.515625q-2.3125 2.71875 -5.75 2.71875q-4.265625 0 -6.609375 -3.078125q-2.34375 -3.09375 -2.34375 -7.40625q0 -2.9687538 1.0625 -5.484379q1.078125 -2.515625 3.109375 -3.875q2.046875 -1.375 4.8125 -1.375q3.671875 0 6.046875 2.96875l0 -2.5l3.25 0l0 17.937504q0 4.84375 -1.0 6.859375q-0.984375 2.03125 -3.125 3.203125q-2.125 1.171875 -5.25 1.171875q-3.71875 0 -6.0 -1.671875q-2.28125 -1.671875 -2.203125 -5.03125zm2.90625 -12.468754q0 4.093754 1.609375 5.968754q1.625 1.875 4.078125 1.875q2.421875 0 4.0625 -1.859375q1.640625 -1.875 1.640625 -5.859375q0 -3.8125038 -1.703125 -5.734379q-1.6875 -1.9375 -4.0625 -1.9375q-2.34375 0 -3.984375 1.90625q-1.640625 1.890625 -1.640625 5.640625zm19.902344 10.750004l0 -28.640629l3.515625 0l0 28.640629l-3.515625 0zm7.6523438 -10.375q0 -5.765629 3.203125 -8.531254q2.671875 -2.3125 6.53125 -2.3125q4.265625 0 6.984375 2.8125q2.71875 2.796875 2.71875 7.734375q0 4.015629 -1.203125 6.312504q-1.203125 2.28125 -3.5 3.5625q-2.296875 1.265625 -5.0 1.265625q-4.359375 0 -7.046875 -2.796875q-2.6875 -2.796875 -2.6875 -8.046875zm3.609375 0q0 3.984375 1.734375 5.96875q1.75 1.984375 4.390625 1.984375q2.609375 0 4.34375 -1.984375q1.75 -2.0 1.75 -6.078125q0 -3.8593788 -1.75 -5.828129q-1.75 -1.984375 -4.34375 -1.984375q-2.640625 0 -4.390625 1.96875q-1.734375 1.96875 -1.734375 5.953129zm23.183594 10.375l-3.25 0l0 -28.640629l3.515625 0l0 10.21875q2.21875 -2.796875 5.671875 -2.796875q1.921875 0 3.625 0.78125q1.71875 0.765625 2.8125 2.171875q1.109375 1.390625 1.734375 3.359375q0.625 1.96875 0.625 4.21875q0 5.328129 -2.640625 8.250004q-2.640625 2.90625 -6.328125 2.90625q-3.671875 0 -5.765625 -3.0625l0 2.59375zm-0.03125 -10.53125q0 3.734375 1.015625 5.390625q1.65625 2.71875 4.484375 2.71875q2.3125 0 3.984375 -2.0q1.6875 -2.0 1.6875 -5.96875q0 -4.062504 -1.609375 -6.000004q-1.609375 -1.9375 -3.90625 -1.9375q-2.296875 0 -3.984375 2.015625q-1.671875 2.0 -1.671875 5.781254zm19.058594 -14.062504l0 -4.046875l3.515625 0l0 4.046875l-3.515625 0zm0 24.593754l0 -20.750004l3.515625 0l0 20.750004l-3.515625 0zm8.871094 0l0 -20.750004l3.15625 0l0 2.953125q2.296875 -3.421875 6.609375 -3.421875q1.875 0 3.4375 0.6875q1.578125 0.671875 2.359375 1.765625q0.78125 1.09375 1.09375 2.59375q0.203125 0.96875 0.203125 3.421875l0 12.750004l-3.515625 0l0 -12.625004q0 -2.140625 -0.421875 -3.203125q-0.40625 -1.0625 -1.453125 -1.703125q-1.046875 -0.640625 -2.453125 -0.640625q-2.234375 0 -3.875 1.4375q-1.625 1.421875 -1.625 5.40625l0 11.328129l-3.515625 0z" fill-rule="nonzero"></path><path fill="#000000" fill-opacity="0.0" d="m568.3307 27.251968l228.18903 0l0 63.11811l-228.18903 0z" fill-rule="nonzero"></path><path fill="#000000" d="m600.8463 64.605095l3.796875 0.96875q-1.203125 4.65625 -4.296875 7.109375q-3.09375 2.453125 -7.5625 2.453125q-4.625 0 -7.53125 -1.875q-2.90625 -1.890625 -4.421875 -5.46875q-1.5 -3.578125 -1.5 -7.671879q0 -4.46875 1.703125 -7.796875q1.703125 -3.34375 4.859375 -5.0625q3.15625 -1.734375 6.953125 -1.734375q4.296875 0 7.21875 2.1875q2.9375 2.1875 4.078125 6.15625l-3.71875 0.875q-1.0 -3.125 -2.90625 -4.546875q-1.890625 -1.421875 -4.75 -1.421875q-3.3125 0 -5.53125 1.578125q-2.203125 1.578125 -3.109375 4.25q-0.890625 2.65625 -0.890625 5.5q0 3.640625 1.0625 6.375004q1.0625 2.71875 3.296875 4.078125q2.25 1.34375 4.875 1.34375q3.1875 0 5.390625 -1.828125q2.203125 -1.84375 2.984375 -5.46875zm8.011719 10.046875l0 -28.640629l3.515625 0l0 10.28125q2.453125 -2.859375 6.203125 -2.859375q2.3125 0 4.0 0.921875q1.703125 0.90625 2.4375 2.515625q0.734375 1.59375 0.734375 4.640625l0 13.140629l-3.515625 0l0 -13.140629q0 -2.640625 -1.140625 -3.84375q-1.140625 -1.203125 -3.234375 -1.203125q-1.5625 0 -2.9375 0.8125q-1.375 0.8125 -1.96875 2.203125q-0.578125 1.375 -0.578125 3.828125l0 11.343754l-3.515625 0zm22.167969 0l0 -28.640629l3.515625 0l0 28.640629l-3.515625 0zm7.6523438 -10.375q0 -5.765629 3.203125 -8.531254q2.671875 -2.3125 6.53125 -2.3125q4.265625 0 6.984375 2.8125q2.71875 2.796875 2.71875 7.734375q0 4.015629 -1.203125 6.312504q-1.203125 2.28125 -3.5 3.5625q-2.296875 1.265625 -5.0 1.265625q-4.359375 0 -7.046875 -2.796875q-2.6875 -2.796875 -2.6875 -8.046875zm3.609375 0q0 3.984375 1.734375 5.96875q1.75 1.984375 4.390625 1.984375q2.609375 0 4.34375 -1.984375q1.75 -2.0 1.75 -6.078125q0 -3.8593788 -1.75 -5.828129q-1.75 -1.984375 -4.34375 -1.984375q-2.640625 0 -4.390625 1.96875q-1.734375 1.96875 -1.734375 5.953129zm19.902344 10.375l0 -20.750004l3.171875 0l0 3.15625q1.203125 -2.21875 2.234375 -2.921875q1.03125 -0.703125 2.25 -0.703125q1.78125 0 3.625 1.140625l-1.21875 3.265625q-1.28125 -0.765625 -2.578125 -0.765625q-1.15625 0 -2.078125 0.703125q-0.90625 0.6875 -1.296875 1.90625q-0.59375 1.875 -0.59375 4.109375l0 10.859379l-3.515625 0zm12.0546875 -10.375q0 -5.765629 3.203125 -8.531254q2.671875 -2.3125 6.53125 -2.3125q4.265625 0 6.984375 2.8125q2.71875 2.796875 2.71875 7.734375q0 4.015629 -1.203125 6.312504q-1.203125 2.28125 -3.5 3.5625q-2.296875 1.265625 -5.0 1.265625q-4.359375 0 -7.046875 -2.796875q-2.6875 -2.796875 -2.6875 -8.046875zm3.609375 0q0 3.984375 1.734375 5.96875q1.75 1.984375 4.390625 1.984375q2.609375 0 4.34375 -1.984375q1.75 -2.0 1.75 -6.078125q0 -3.8593788 -1.75 -5.828129q-1.75 -1.984375 -4.34375 -1.984375q-2.640625 0 -4.390625 1.96875q-1.734375 1.96875 -1.734375 5.953129zm19.949219 18.328125l0 -28.703129l3.203125 0l0 2.703125q1.125 -1.578125 2.546875 -2.375q1.4375 -0.796875 3.46875 -0.796875q2.65625 0 4.6875 1.375q2.03125 1.359375 3.0625 3.859375q1.03125 2.484375 1.03125 5.453129q0 3.1875 -1.140625 5.734375q-1.140625 2.546875 -3.328125 3.90625q-2.171875 1.359375 -4.5625 1.359375q-1.765625 0 -3.171875 -0.734375q-1.390625 -0.75 -2.28125 -1.890625l0 10.109375l-3.515625 0zm3.1875 -18.203125q0 4.0 1.609375 5.921875q1.625 1.90625 3.9375 1.90625q2.34375 0 4.0 -1.984375q1.671875 -1.984375 1.671875 -6.140625q0 -3.9687538 -1.625 -5.937504q-1.625 -1.96875 -3.890625 -1.96875q-2.25 0 -3.984375 2.09375q-1.71875 2.09375 -1.71875 6.109379zm19.058594 10.25l0 -28.640629l3.515625 0l0 10.28125q2.453125 -2.859375 6.203125 -2.859375q2.3125 0 4.0 0.921875q1.703125 0.90625 2.4375 2.515625q0.734375 1.59375 0.734375 4.640625l0 13.140629l-3.515625 0l0 -13.140629q0 -2.640625 -1.140625 -3.84375q-1.140625 -1.203125 -3.234375 -1.203125q-1.5625 0 -2.9375 0.8125q-1.375 0.8125 -1.96875 2.203125q-0.578125 1.375 -0.578125 3.828125l0 11.343754l-3.515625 0zm22.089844 7.984375l-0.390625 -3.296875q1.15625 0.3125 2.015625 0.3125q1.171875 0 1.875 -0.390625q0.703125 -0.390625 1.140625 -1.09375q0.34375 -0.53125 1.078125 -2.609375q0.09375 -0.296875 0.3125 -0.859375l-7.875 -20.796879l3.796875 0l4.3125 12.015629q0.84375 2.28125 1.5 4.8125q0.609375 -2.421875 1.453125 -4.734375l4.4375 -12.093754l3.515625 0l-7.890625 21.109379q-1.28125 3.40625 -1.984375 4.703125q-0.9375 1.734375 -2.15625 2.546875q-1.203125 0.8125 -2.875 0.8125q-1.015625 0 -2.265625 -0.4375zm20.078125 -7.984375l0 -28.640629l3.515625 0l0 28.640629l-3.515625 0zm8.886719 0l0 -28.640629l3.515625 0l0 28.640629l-3.515625 0z" fill-rule="nonzero"></path><path fill="#000000" fill-opacity="0.0" d="m598.08923 222.23885l-35.874023 31.559052" fill-rule="nonzero"></path><path stroke="#000000" stroke-width="1.0" stroke-linejoin="round" stroke-linecap="butt" d="m598.08923 222.23885l-35.874023 31.559052" fill-rule="nonzero"></path><path fill="#000000" fill-opacity="0.0" d="m560.7979 255.22835l1.4487915 37.291336" fill-rule="nonzero"></path><path stroke="#000000" stroke-width="1.0" stroke-linejoin="round" stroke-linecap="butt" d="m560.7979 255.22835l1.4487915 37.291336" fill-rule="nonzero"></path><path fill="#000000" fill-opacity="0.0" d="m562.23096 292.51968l-38.740173 37.29135" fill-rule="nonzero"></path><path stroke="#000000" stroke-width="1.0" stroke-linejoin="round" stroke-linecap="butt" d="m562.23096 292.51968l-38.740173 37.29135" fill-rule="nonzero"></path><path fill="#000000" fill-opacity="0.0" d="m524.93964 329.81104l35.874023 32.97638" fill-rule="nonzero"></path><path stroke="#000000" stroke-width="1.0" stroke-linejoin="round" stroke-linecap="butt" d="m524.93964 329.81104l35.874023 32.97638" fill-rule="nonzero"></path><path fill="#000000" fill-opacity="0.0" d="m560.7979 362.7979l1.4487915 34.42517" fill-rule="nonzero"></path><path stroke="#000000" stroke-width="1.0" stroke-linejoin="round" stroke-linecap="butt" d="m560.7979 362.7979l1.4487915 34.42517" fill-rule="nonzero"></path><path fill="#000000" fill-opacity="0.0" d="m562.23096 400.08923l32.97638 35.84253" fill-rule="nonzero"></path><path stroke="#000000" stroke-width="1.0" stroke-linejoin="round" stroke-linecap="butt" d="m562.23096 400.08923l32.97638 35.84253" fill-rule="nonzero"></path><path fill="#000000" fill-opacity="0.0" d="m598.08923 435.9449l37.29132 0" fill-rule="nonzero"></path><path stroke="#000000" stroke-width="1.0" stroke-linejoin="round" stroke-linecap="butt" d="m598.08923 435.9449l37.29132 0" fill-rule="nonzero"></path><path fill="#000000" fill-opacity="0.0" d="m635.3779 435.9449l73.165405 68.8504" fill-rule="nonzero"></path><path stroke="#000000" stroke-width="1.0" stroke-linejoin="round" stroke-linecap="butt" d="m635.3779 435.9449l73.165405 68.8504" fill-rule="nonzero"></path><path fill="#000000" fill-opacity="0.0" d="m708.5276 504.79004l37.29132 -37.29135" fill-rule="nonzero"></path><path stroke="#000000" stroke-width="1.0" stroke-linejoin="round" stroke-linecap="butt" d="m708.5276 504.79004l37.29132 -37.29135" fill-rule="nonzero"></path><path fill="#000000" fill-opacity="0.0" d="m745.8163 468.9344l-1.4488525 -31.559052" fill-rule="nonzero"></path><path stroke="#000000" stroke-width="1.0" stroke-linejoin="round" stroke-linecap="butt" d="m745.8163 468.9344l-1.4488525 -31.559052" fill-rule="nonzero"></path><path fill="#000000" fill-opacity="0.0" d="m745.8163 435.9449l35.874023 -37.29135" fill-rule="nonzero"></path><path stroke="#000000" stroke-width="1.0" stroke-linejoin="round" stroke-linecap="butt" d="m745.8163 435.9449l35.874023 -37.29135" fill-rule="nonzero"></path><path fill="#000000" fill-opacity="0.0" d="m781.67456 398.65353l-2.86615 -37.29132" fill-rule="nonzero"></path><path stroke="#000000" stroke-width="1.0" stroke-linejoin="round" stroke-linecap="butt" d="m781.67456 398.65353l-2.86615 -37.29132" fill-rule="nonzero"></path><path fill="#000000" fill-opacity="0.0" d="m781.67456 365.66666l37.29132 -38.740143" fill-rule="nonzero"></path><path stroke="#000000" stroke-width="1.0" stroke-linejoin="round" stroke-linecap="butt" d="m781.67456 365.66666l37.29132 -38.740143" fill-rule="nonzero"></path><path fill="#000000" fill-opacity="0.0" d="m818.9659 326.94226l-38.740173 -32.97638" fill-rule="nonzero"></path><path stroke="#000000" stroke-width="1.0" stroke-linejoin="round" stroke-linecap="butt" d="m818.9659 326.94226l-38.740173 -32.97638" fill-rule="nonzero"></path><path fill="#000000" fill-opacity="0.0" d="m783.1076 292.51968l0 -37.291336" fill-rule="nonzero"></path><path stroke="#000000" stroke-width="1.0" stroke-linejoin="round" stroke-linecap="butt" d="m783.1076 292.51968l0 -37.291336" fill-rule="nonzero"></path><path fill="#000000" fill-opacity="0.0" d="m781.67456 255.22835l-37.29138 -35.842514" fill-rule="nonzero"></path><path stroke="#000000" stroke-width="1.0" stroke-linejoin="round" stroke-linecap="butt" d="m781.67456 255.22835l-37.29138 -35.842514" fill-rule="nonzero"></path><path fill="#000000" fill-opacity="0.0" d="m744.3832 219.3727l-35.84247 0" fill-rule="nonzero"></path><path stroke="#000000" stroke-width="1.0" stroke-linejoin="round" stroke-linecap="butt" d="m744.3832 219.3727l-35.84247 0" fill-rule="nonzero"></path><path fill="#000000" fill-opacity="0.0" d="m708.5276 219.3727l-37.29138 -31.559052" fill-rule="nonzero"></path><path stroke="#000000" stroke-width="1.0" stroke-linejoin="round" stroke-linecap="butt" d="m708.5276 219.3727l-37.29138 -31.559052" fill-rule="nonzero"></path><path fill="#000000" fill-opacity="0.0" d="m671.2362 186.38321l-35.874023 32.976364" fill-rule="nonzero"></path><path stroke="#000000" stroke-width="1.0" stroke-linejoin="round" stroke-linecap="butt" d="m671.2362 186.38321l-35.874023 32.976364" fill-rule="nonzero"></path><path fill="#000000" fill-opacity="0.0" d="m635.3779 222.23885l-35.84247 0" fill-rule="nonzero"></path><path stroke="#000000" stroke-width="1.0" stroke-linejoin="round" stroke-linecap="butt" d="m635.3779 222.23885l-35.84247 0" fill-rule="nonzero"></path><path fill="#000000" fill-opacity="0.0" d="m635.3779 435.9449l0 -50.204742" fill-rule="nonzero"></path><path stroke="#000000" stroke-width="1.0" stroke-linejoin="round" stroke-linecap="butt" d="m635.3779 435.9449l0 -50.204742" fill-rule="nonzero"></path><path fill="#000000" fill-opacity="0.0" d="m560.7979 362.7979l53.07086 0" fill-rule="nonzero"></path><path stroke="#000000" stroke-width="1.0" stroke-linejoin="round" stroke-linecap="butt" d="m560.7979 362.7979l53.07086 0" fill-rule="nonzero"></path><path fill="#000000" fill-opacity="0.0" d="m562.23096 293.95276l53.07086 -1.448822" fill-rule="nonzero"></path><path stroke="#000000" stroke-width="1.0" stroke-linejoin="round" stroke-linecap="butt" d="m562.23096 293.95276l53.07086 -1.448822" fill-rule="nonzero"></path><path fill="#000000" fill-opacity="0.0" d="m635.3779 220.80577l-1.4487915 53.070877" fill-rule="nonzero"></path><path stroke="#000000" stroke-width="1.0" stroke-linejoin="round" stroke-linecap="butt" d="m635.3779 220.80577l-1.4487915 53.070877" fill-rule="nonzero"></path><path fill="#000000" fill-opacity="0.0" d="m708.5276 220.80577l1.4487915 57.38582" fill-rule="nonzero"></path><path stroke="#000000" stroke-width="1.0" stroke-linejoin="round" stroke-linecap="butt" d="m708.5276 220.80577l1.4487915 57.38582" fill-rule="nonzero"></path><path fill="#000000" fill-opacity="0.0" d="m780.23883 291.08398l-53.07086 0" fill-rule="nonzero"></path><path stroke="#000000" stroke-width="1.0" stroke-linejoin="round" stroke-linecap="butt" d="m780.23883 291.08398l-53.07086 0" fill-rule="nonzero"></path><path fill="#000000" fill-opacity="0.0" d="m781.67456 362.7979l-51.62207 -1.448822" fill-rule="nonzero"></path><path stroke="#000000" stroke-width="1.0" stroke-linejoin="round" stroke-linecap="butt" d="m781.67456 362.7979l-51.62207 -1.448822" fill-rule="nonzero"></path><path fill="#000000" fill-opacity="0.0" d="m744.3832 433.0761l-37.29132 -1.448822" fill-rule="nonzero"></path><path stroke="#000000" stroke-width="1.0" stroke-linejoin="round" stroke-linecap="butt" d="m744.3832 433.0761l-37.29132 -1.448822" fill-rule="nonzero"></path><path fill="#000000" fill-opacity="0.0" d="m707.09186 431.64304l1.4488525 -47.338562" fill-rule="nonzero"></path><path stroke="#000000" stroke-width="1.0" stroke-linejoin="round" stroke-linecap="butt" d="m707.09186 431.64304l1.4488525 -47.338562" fill-rule="nonzero"></path><path fill="#000000" fill-opacity="0.0" d="m672.6693 470.36746l35.874023 -37.29135" fill-rule="nonzero"></path><path stroke="#000000" stroke-width="1.0" stroke-linejoin="round" stroke-linecap="butt" d="m672.6693 470.36746l35.874023 -37.29135" fill-rule="nonzero"></path><path fill="#000000" fill-opacity="0.0" d="m747.25195 467.4987l20.094482 12.913391" fill-rule="nonzero"></path><path stroke="#000000" stroke-width="1.0" stroke-linejoin="round" stroke-linecap="butt" d="m747.25195 467.4987l20.094482 12.913391" fill-rule="nonzero"></path><path fill="#000000" fill-opacity="0.0" d="m742.95013 471.80316l18.64569 11.464569" fill-rule="nonzero"></path><path stroke="#000000" stroke-width="1.0" stroke-linejoin="round" stroke-linecap="butt" d="m742.95013 471.80316l18.64569 11.464569" fill-rule="nonzero"></path><path fill="#000000" fill-opacity="0.0" d="m708.5276 503.35696l1.4487915 20.094452" fill-rule="nonzero"></path><path stroke="#000000" stroke-width="1.0" stroke-linejoin="round" stroke-linecap="butt" d="m708.5276 503.35696l1.4487915 20.094452" fill-rule="nonzero"></path><path fill="#000000" fill-opacity="0.0" d="m721.43567 536.3438l31.559082 0" fill-rule="nonzero"></path><path stroke="#000000" stroke-width="1.0" stroke-linejoin="round" stroke-linecap="butt" d="m721.43567 536.3438l31.559082 0" fill-rule="nonzero"></path><path fill="#000000" fill-opacity="0.0" d="m721.43567 547.8163l31.559082 0" fill-rule="nonzero"></path><path stroke="#000000" stroke-width="1.0" stroke-linejoin="round" stroke-linecap="butt" d="m721.43567 547.8163l31.559082 0" fill-rule="nonzero"></path><path fill="#000000" fill-opacity="0.0" d="m598.08923 434.5118l0 17.196838" fill-rule="nonzero"></path><path stroke="#000000" stroke-width="1.0" stroke-linejoin="round" stroke-linecap="butt" d="m598.08923 434.5118l0 17.196838" fill-rule="nonzero"></path><path fill="#000000" fill-opacity="0.0" d="m598.08923 473.2362l1.4488525 17.196869" fill-rule="nonzero"></path><path stroke="#000000" stroke-width="1.0" stroke-linejoin="round" stroke-linecap="butt" d="m598.08923 473.2362l1.4488525 17.196869" fill-rule="nonzero"></path><path fill="#000000" fill-opacity="0.0" d="m600.958 519.13385l0 10.047241" fill-rule="nonzero"></path><path stroke="#000000" stroke-width="1.0" stroke-linejoin="round" stroke-linecap="butt" d="m600.958 519.13385l0 10.047241" fill-rule="nonzero"></path><path fill="#000000" fill-opacity="0.0" d="m562.23096 402.958l-17.196838 14.330719" fill-rule="nonzero"></path><path stroke="#000000" stroke-width="1.0" stroke-linejoin="round" stroke-linecap="butt" d="m562.23096 402.958l-17.196838 14.330719" fill-rule="nonzero"></path><path fill="#000000" fill-opacity="0.0" d="m560.7979 255.22835l-20.094482 -18.645676" fill-rule="nonzero"></path><path stroke="#000000" stroke-width="1.0" stroke-linejoin="round" stroke-linecap="butt" d="m560.7979 255.22835l-20.094482 -18.645676" fill-rule="nonzero"></path><path fill="#000000" fill-opacity="0.0" d="m598.08923 222.23885l-20.094482 -20.094482" fill-rule="nonzero"></path><path stroke="#000000" stroke-width="1.0" stroke-linejoin="round" stroke-linecap="butt" d="m598.08923 222.23885l-20.094482 -20.094482" fill-rule="nonzero"></path><path fill="#000000" fill-opacity="0.0" d="m575.1391 176.34383l-1.4487915 -15.779526" fill-rule="nonzero"></path><path stroke="#000000" stroke-width="1.0" stroke-linejoin="round" stroke-linecap="butt" d="m575.1391 176.34383l-1.4487915 -15.779526" fill-rule="nonzero"></path><path fill="#000000" fill-opacity="0.0" d="m563.6798 176.34383l-1.4488525 -15.779526" fill-rule="nonzero"></path><path stroke="#000000" stroke-width="1.0" stroke-linejoin="round" stroke-linecap="butt" d="m563.6798 176.34383l-1.4488525 -15.779526" fill-rule="nonzero"></path><path fill="#000000" fill-opacity="0.0" d="m744.3832 220.80577l10.047241 -18.64566" fill-rule="nonzero"></path><path stroke="#000000" stroke-width="1.0" stroke-linejoin="round" stroke-linecap="butt" d="m744.3832 220.80577l10.047241 -18.64566" fill-rule="nonzero"></path><path fill="#000000" fill-opacity="0.0" d="m781.67456 398.65353l17.196838 18.64569" fill-rule="nonzero"></path><path stroke="#000000" stroke-width="1.0" stroke-linejoin="round" stroke-linecap="butt" d="m781.67456 398.65353l17.196838 18.64569" fill-rule="nonzero"></path><path fill="#000000" fill-opacity="0.0" d="m709.96063 553.55383l1.4487915 17.228333" fill-rule="nonzero"></path><path stroke="#000000" stroke-width="1.0" stroke-linejoin="round" stroke-linecap="butt" d="m709.96063 553.55383l1.4487915 17.228333" fill-rule="nonzero"></path><path fill="#000000" fill-opacity="0.0" d="m780.23883 256.6614l18.64569 -15.7795105" fill-rule="nonzero"></path><path stroke="#000000" stroke-width="1.0" stroke-linejoin="round" stroke-linecap="butt" d="m780.23883 256.6614l18.64569 -15.7795105" fill-rule="nonzero"></path><path fill="#000000" fill-opacity="0.0" d="m816.0971 219.3727l4.3149414 -11.464554" fill-rule="nonzero"></path><path stroke="#000000" stroke-width="1.0" stroke-linejoin="round" stroke-linecap="butt" d="m816.0971 219.3727l4.3149414 -11.464554" fill-rule="nonzero"></path><path fill="#000000" fill-opacity="0.0" d="m811.78217 217.21523l4.3149414 -11.464569" fill-rule="nonzero"></path><path stroke="#000000" stroke-width="1.0" stroke-linejoin="round" stroke-linecap="butt" d="m811.78217 217.21523l4.3149414 -11.464569" fill-rule="nonzero"></path><path fill="#000000" fill-opacity="0.0" d="m580.87665 483.26773l20.094482 0l0 20.094482l-20.094482 0z" fill-rule="nonzero"></path><path fill="#000000" d="m601.0485 505.4221l1.796875 0.453125q-0.5625 2.21875 -2.03125 3.390625q-1.46875 1.15625 -3.59375 1.15625q-2.203125 0 -3.578125 -0.890625q-1.375 -0.90625 -2.09375 -2.59375q-0.71875 -1.703125 -0.71875 -3.65625q0 -2.125 0.796875 -3.703125q0.8125 -1.578125 2.3125 -2.390625q1.5 -0.828125 3.296875 -0.828125q2.046875 0 3.4375 1.046875q1.390625 1.03125 1.9375 2.90625l-1.765625 0.421875q-0.46875 -1.484375 -1.375 -2.15625q-0.90625 -0.6875 -2.265625 -0.6875q-1.5625 0 -2.625 0.75q-1.046875 0.75 -1.484375 2.03125q-0.421875 1.265625 -0.421875 2.609375q0 1.734375 0.5 3.03125q0.515625 1.28125 1.578125 1.921875q1.078125 0.640625 2.3125 0.640625q1.515625 0 2.5625 -0.859375q1.046875 -0.875 1.421875 -2.59375z" fill-rule="nonzero"></path><path fill="#000000" fill-opacity="0.0" d="m790.27295 407.96326l20.094482 0l0 20.094482l-20.094482 0z" fill-rule="nonzero"></path><path fill="#000000" d="m810.4448 430.1176l1.796875 0.453125q-0.5625 2.21875 -2.03125 3.390625q-1.46875 1.15625 -3.59375 1.15625q-2.203125 0 -3.578125 -0.890625q-1.375 -0.90625 -2.09375 -2.59375q-0.71875 -1.703125 -0.71875 -3.65625q0 -2.125 0.796875 -3.703125q0.8125 -1.578125 2.3125 -2.390625q1.5 -0.828125 3.296875 -0.828125q2.046875 0 3.4375 1.046875q1.390625 1.03125 1.9375 2.90625l-1.765625 0.421875q-0.46875 -1.484375 -1.375 -2.15625q-0.90625 -0.6875 -2.265625 -0.6875q-1.5625 0 -2.625 0.75q-1.046875 0.75 -1.484375 2.03125q-0.421875 1.265625 -0.421875 2.609375q0 1.734375 0.5 3.03125q0.515625 1.28125 1.578125 1.921875q1.078125 0.640625 2.3125 0.640625q1.515625 0 2.5625 -0.859375q1.046875 -0.875 1.421875 -2.59375z" fill-rule="nonzero"></path><path fill="#000000" fill-opacity="0.0" d="m748.3202 176.34383l20.094482 0l0 20.094498l-20.094482 0z" fill-rule="nonzero"></path><path fill="#000000" d="m768.49207 198.4982l1.796875 0.453125q-0.5625 2.21875 -2.03125 3.390625q-1.46875 1.15625 -3.59375 1.15625q-2.203125 0 -3.578125 -0.890625q-1.375 -0.90625 -2.09375 -2.59375q-0.71875 -1.703125 -0.71875 -3.65625q0 -2.125 0.796875 -3.703125q0.8125 -1.578125 2.3125 -2.390625q1.5 -0.828125 3.296875 -0.828125q2.046875 0 3.4375 1.046875q1.390625 1.03125 1.9375 2.90625l-1.765625 0.421875q-0.46875 -1.484375 -1.375 -2.15625q-0.90625 -0.6875 -2.265625 -0.6875q-1.5625 0 -2.625 0.75q-1.046875 0.75 -1.484375 2.03125q-0.421875 1.265625 -0.421875 2.609375q0 1.734375 0.5 3.03125q0.515625 1.28125 1.578125 1.921875q1.078125 0.640625 2.3125 0.640625q1.515625 0 2.5625 -0.859375q1.046875 -0.875 1.421875 -2.59375z" fill-rule="nonzero"></path><path fill="#000000" fill-opacity="0.0" d="m808.20734 176.34383l20.094482 0l0 20.094498l-20.094482 0z" fill-rule="nonzero"></path><path fill="#000000" d="m828.3792 198.4982l1.796875 0.453125q-0.5625 2.21875 -2.03125 3.390625q-1.46875 1.15625 -3.59375 1.15625q-2.203125 0 -3.578125 -0.890625q-1.375 -0.90625 -2.09375 -2.59375q-0.71875 -1.703125 -0.71875 -3.65625q0 -2.125 0.796875 -3.703125q0.8125 -1.578125 2.3125 -2.390625q1.5 -0.828125 3.296875 -0.828125q2.046875 0 3.4375 1.046875q1.390625 1.03125 1.9375 2.90625l-1.765625 0.421875q-0.46875 -1.484375 -1.375 -2.15625q-0.90625 -0.6875 -2.265625 -0.6875q-1.5625 0 -2.625 0.75q-1.046875 0.75 -1.484375 2.03125q-0.421875 1.265625 -0.421875 2.609375q0 1.734375 0.5 3.03125q0.515625 1.28125 1.578125 1.921875q1.078125 0.640625 2.3125 0.640625q1.515625 0 2.5625 -0.859375q1.046875 -0.875 1.421875 -2.59375z" fill-rule="nonzero"></path><path fill="#000000" fill-opacity="0.0" d="m786.6811 212.1916l20.094482 0l0 20.094482l-20.094482 0z" fill-rule="nonzero"></path><path fill="#000000" d="m806.85297 234.34598l1.796875 0.453125q-0.5625 2.21875 -2.03125 3.390625q-1.46875 1.15625 -3.59375 1.15625q-2.203125 0 -3.578125 -0.890625q-1.375 -0.90625 -2.09375 -2.59375q-0.71875 -1.703125 -0.71875 -3.65625q0 -2.125 0.796875 -3.703125q0.8125 -1.578125 2.3125 -2.390625q1.5 -0.828125 3.296875 -0.828125q2.046875 0 3.4375 1.046875q1.390625 1.03125 1.9375 2.90625l-1.765625 0.421875q-0.46875 -1.484375 -1.375 -2.15625q-0.90625 -0.6875 -2.265625 -0.6875q-1.5625 0 -2.625 0.75q-1.046875 0.75 -1.484375 2.03125q-0.421875 1.265625 -0.421875 2.609375q0 1.734375 0.5 3.03125q0.515625 1.28125 1.578125 1.921875q1.078125 0.640625 2.3125 0.640625q1.515625 0 2.5625 -0.859375q1.046875 -0.875 1.421875 -2.59375z" fill-rule="nonzero"></path><path fill="#000000" fill-opacity="0.0" d="m697.76904 519.1247l20.094482 0l0 20.094482l-20.094482 0z" fill-rule="nonzero"></path><path fill="#000000" d="m717.9409 541.27905l1.796875 0.453125q-0.5625 2.21875 -2.03125 3.390625q-1.46875 1.15625 -3.59375 1.15625q-2.203125 0 -3.578125 -0.890625q-1.375 -0.90625 -2.09375 -2.59375q-0.71875 -1.703125 -0.71875 -3.65625q0 -2.125 0.796875 -3.703125q0.8125 -1.578125 2.3125 -2.390625q1.5 -0.828125 3.296875 -0.828125q2.046875 0 3.4375 1.046875q1.390625 1.03125 1.9375 2.90625l-1.765625 0.421875q-0.46875 -1.484375 -1.375 -2.15625q-0.90625 -0.6875 -2.265625 -0.6875q-1.5625 0 -2.625 0.75q-1.046875 0.75 -1.484375 2.03125q-0.421875 1.265625 -0.421875 2.609375q0 1.734375 0.5 3.03125q0.515625 1.28125 1.578125 1.921875q1.078125 0.640625 2.3125 0.640625q1.515625 0 2.5625 -0.859375q1.046875 -0.875 1.421875 -2.59375z" fill-rule="nonzero"></path><path fill="#000000" fill-opacity="0.0" d="m697.76904 600.8845l20.094482 0l0 20.094482l-20.094482 0z" fill-rule="nonzero"></path><path fill="#000000" d="m717.9409 623.0389l1.796875 0.453125q-0.5625 2.21875 -2.03125 3.390625q-1.46875 1.15625 -3.59375 1.15625q-2.203125 0 -3.578125 -0.890625q-1.375 -0.90625 -2.09375 -2.59375q-0.71875 -1.703125 -0.71875 -3.65625q0 -2.125 0.796875 -3.703125q0.8125 -1.578125 2.3125 -2.390625q1.5 -0.828125 3.296875 -0.828125q2.046875 0 3.4375 1.046875q1.390625 1.03125 1.9375 2.90625l-1.765625 0.421875q-0.46875 -1.484375 -1.375 -2.15625q-0.90625 -0.6875 -2.265625 -0.6875q-1.5625 0 -2.625 0.75q-1.046875 0.75 -1.484375 2.03125q-0.421875 1.265625 -0.421875 2.609375q0 1.734375 0.5 3.03125q0.515625 1.28125 1.578125 1.921875q1.078125 0.640625 2.3125 0.640625q1.515625 0 2.5625 -0.859375q1.046875 -0.875 1.421875 -2.59375z" fill-rule="nonzero"></path><path fill="#000000" fill-opacity="0.0" d="m549.4514 130.5748l20.094543 0l0 20.094498l-20.094543 0z" fill-rule="nonzero"></path><path fill="#000000" d="m569.6233 152.72917l1.796875 0.453125q-0.5625 2.21875 -2.03125 3.390625q-1.46875 1.15625 -3.59375 1.15625q-2.203125 0 -3.578125 -0.890625q-1.375 -0.90625 -2.09375 -2.59375q-0.71875 -1.703125 -0.71875 -3.65625q0 -2.125 0.796875 -3.703125q0.8125 -1.578125 2.3125 -2.390625q1.5 -0.828125 3.296875 -0.828125q2.046875 0 3.4375 1.046875q1.390625 1.03125 1.9375 2.90625l-1.765625 0.421875q-0.46875 -1.484375 -1.375 -2.15625q-0.90625 -0.6875 -2.265625 -0.6875q-1.5625 0 -2.625 0.75q-1.046875 0.75 -1.484375 2.03125q-0.421875 1.265625 -0.421875 2.609375q0 1.734375 0.5 3.03125q0.515625 1.28125 1.578125 1.921875q1.078125 0.640625 2.3125 0.640625q1.515625 0 2.5625 -0.859375q1.046875 -0.875 1.421875 -2.59375z" fill-rule="nonzero"></path><path fill="#000000" fill-opacity="0.0" d="m522.06036 209.32545l20.094482 0l0 20.094498l-20.094482 0z" fill-rule="nonzero"></path><path fill="#000000" d="m542.23224 231.47983l1.796875 0.453125q-0.5625 2.21875 -2.03125 3.390625q-1.46875 1.15625 -3.59375 1.15625q-2.203125 0 -3.578125 -0.890625q-1.375 -0.90625 -2.09375 -2.59375q-0.71875 -1.703125 -0.71875 -3.65625q0 -2.125 0.796875 -3.703125q0.8125 -1.578125 2.3125 -2.390625q1.5 -0.828125 3.296875 -0.828125q2.046875 0 3.4375 1.046875q1.390625 1.03125 1.9375 2.90625l-1.765625 0.421875q-0.46875 -1.484375 -1.375 -2.15625q-0.90625 -0.6875 -2.265625 -0.6875q-1.5625 0 -2.625 0.75q-1.046875 0.75 -1.484375 2.03125q-0.421875 1.265625 -0.421875 2.609375q0 1.734375 0.5 3.03125q0.515625 1.28125 1.578125 1.921875q1.078125 0.640625 2.3125 0.640625q1.515625 0 2.5625 -0.859375q1.046875 -0.875 1.421875 -2.59375z" fill-rule="nonzero"></path><path fill="#000000" fill-opacity="0.0" d="m559.5407 171.30708l20.094482 0l0 20.094498l-20.094482 0z" fill-rule="nonzero"></path><path fill="#000000" d="m579.7126 193.46146l1.796875 0.453125q-0.5625 2.21875 -2.03125 3.390625q-1.46875 1.15625 -3.59375 1.15625q-2.203125 0 -3.578125 -0.890625q-1.375 -0.90625 -2.09375 -2.59375q-0.71875 -1.703125 -0.71875 -3.65625q0 -2.125 0.796875 -3.703125q0.8125 -1.578125 2.3125 -2.390625q1.5 -0.828125 3.296875 -0.828125q2.046875 0 3.4375 1.046875q1.390625 1.03125 1.9375 2.90625l-1.765625 0.421875q-0.46875 -1.484375 -1.375 -2.15625q-0.90625 -0.6875 -2.265625 -0.6875q-1.5625 0 -2.625 0.75q-1.046875 0.75 -1.484375 2.03125q-0.421875 1.265625 -0.421875 2.609375q0 1.734375 0.5 3.03125q0.515625 1.28125 1.578125 1.921875q1.078125 0.640625 2.3125 0.640625q1.515625 0 2.5625 -0.859375q1.046875 -0.875 1.421875 -2.59375z" fill-rule="nonzero"></path><path fill="#000000" fill-opacity="0.0" d="m522.06036 400.7953l20.094482 0l0 20.094482l-20.094482 0z" fill-rule="nonzero"></path><path fill="#000000" d="m542.23224 422.94965l1.796875 0.453125q-0.5625 2.21875 -2.03125 3.390625q-1.46875 1.15625 -3.59375 1.15625q-2.203125 0 -3.578125 -0.890625q-1.375 -0.90625 -2.09375 -2.59375q-0.71875 -1.703125 -0.71875 -3.65625q0 -2.125 0.796875 -3.703125q0.8125 -1.578125 2.3125 -2.390625q1.5 -0.828125 3.296875 -0.828125q2.046875 0 3.4375 1.046875q1.390625 1.03125 1.9375 2.90625l-1.765625 0.421875q-0.46875 -1.484375 -1.375 -2.15625q-0.90625 -0.6875 -2.265625 -0.6875q-1.5625 0 -2.625 0.75q-1.046875 0.75 -1.484375 2.03125q-0.421875 1.265625 -0.421875 2.609375q0 1.734375 0.5 3.03125q0.515625 1.28125 1.578125 1.921875q1.078125 0.640625 2.3125 0.640625q1.515625 0 2.5625 -0.859375q1.046875 -0.875 1.421875 -2.59375z" fill-rule="nonzero"></path><path fill="#000000" fill-opacity="0.0" d="m579.4593 444.5433l20.094543 0l0 20.094482l-20.094543 0z" fill-rule="nonzero"></path><path fill="#000000" d="m599.63116 466.6977l1.796875 0.453125q-0.5625 2.21875 -2.03125 3.390625q-1.46875 1.15625 -3.59375 1.15625q-2.203125 0 -3.578125 -0.890625q-1.375 -0.90625 -2.09375 -2.59375q-0.71875 -1.703125 -0.71875 -3.65625q0 -2.125 0.796875 -3.703125q0.8125 -1.578125 2.3125 -2.390625q1.5 -0.828125 3.296875 -0.828125q2.046875 0 3.4375 1.046875q1.390625 1.03125 1.9375 2.90625l-1.765625 0.421875q-0.46875 -1.484375 -1.375 -2.15625q-0.90625 -0.6875 -2.265625 -0.6875q-1.5625 0 -2.625 0.75q-1.046875 0.75 -1.484375 2.03125q-0.421875 1.265625 -0.421875 2.609375q0 1.734375 0.5 3.03125q0.515625 1.28125 1.578125 1.921875q1.078125 0.640625 2.3125 0.640625q1.515625 0 2.5625 -0.859375q1.046875 -0.875 1.421875 -2.59375z" fill-rule="nonzero"></path><path fill="#000000" d="m594.50616 499.4477l0 1.015625l-5.6875 0q0 -0.375 0.125 -0.734375q0.21875 -0.578125 0.6875 -1.140625q0.484375 -0.5625 1.390625 -1.296875q1.40625 -1.15625 1.890625 -1.828125q0.5 -0.671875 0.5 -1.265625q0 -0.625 -0.453125 -1.046875q-0.453125 -0.4375 -1.171875 -0.4375q-0.765625 0 -1.21875 0.453125q-0.453125 0.453125 -0.46875 1.265625l-1.078125 -0.109375q0.109375 -1.21875 0.828125 -1.84375q0.734375 -0.640625 1.96875 -0.640625q1.234375 0 1.953125 0.6875q0.71875 0.6875 0.71875 1.703125q0 0.515625 -0.21875 1.015625q-0.203125 0.484375 -0.703125 1.046875q-0.484375 0.546875 -1.609375 1.5q-0.953125 0.796875 -1.234375 1.09375q-0.265625 0.28125 -0.4375 0.5625l4.21875 0z" fill-rule="nonzero"></path><path fill="#000000" fill-opacity="0.0" d="m700.6378 570.77167l20.094482 0l0 34.42517l-20.094482 0z" fill-rule="nonzero"></path><path fill="#000000" d="m710.5597 591.06665q0 -3.390625 1.8125 -5.296875q1.828125 -1.921875 4.703125 -1.921875q1.875 0 3.390625 0.90625q1.515625 0.890625 2.296875 2.5q0.796875 1.609375 0.796875 3.65625q0 2.0625 -0.84375 3.703125q-0.828125 1.625 -2.359375 2.46875q-1.53125 0.84375 -3.296875 0.84375q-1.921875 0 -3.4375 -0.921875q-1.5 -0.9375 -2.28125 -2.53125q-0.78125 -1.609375 -0.78125 -3.40625zm1.859375 0.03125q0 2.453125 1.3125 3.875q1.328125 1.40625 3.3125 1.40625q2.03125 0 3.34375 -1.421875q1.3125 -1.4375 1.3125 -4.0625q0 -1.65625 -0.5625 -2.890625q-0.546875 -1.234375 -1.640625 -1.921875q-1.078125 -0.6875 -2.421875 -0.6875q-1.90625 0 -3.28125 1.3125q-1.375 1.3125 -1.375 4.390625z" fill-rule="nonzero"></path><path fill="#000000" fill-opacity="0.0" d="m761.5958 468.93176l20.094482 0l0 34.4252l-20.094482 0z" fill-rule="nonzero"></path><path fill="#000000" d="m771.5177 489.22675q0 -3.390625 1.8125 -5.296875q1.828125 -1.921875 4.703125 -1.921875q1.875 0 3.390625 0.90625q1.515625 0.890625 2.296875 2.5q0.796875 1.609375 0.796875 3.65625q0 2.0625 -0.84375 3.703125q-0.828125 1.625 -2.359375 2.46875q-1.53125 0.84375 -3.296875 0.84375q-1.921875 0 -3.4375 -0.921875q-1.5 -0.9375 -2.28125 -2.53125q-0.78125 -1.609375 -0.78125 -3.40625zm1.859375 0.03125q0 2.453125 1.3125 3.875q1.328125 1.40625 3.3125 1.40625q2.03125 0 3.34375 -1.421875q1.3125 -1.4375 1.3125 -4.0625q0 -1.65625 -0.5625 -2.890625q-0.546875 -1.234375 -1.640625 -1.921875q-1.078125 -0.6875 -2.421875 -0.6875q-1.90625 0 -3.28125 1.3125q-1.375 1.3125 -1.375 4.390625z" fill-rule="nonzero"></path><path fill="#000000" fill-opacity="0.0" d="m745.8163 519.126l20.094482 0l0 34.425232l-20.094482 0z" fill-rule="nonzero"></path><path fill="#000000" d="m755.73816 539.42096q0 -3.390625 1.8125 -5.296875q1.828125 -1.921875 4.703125 -1.921875q1.875 0 3.390625 0.90625q1.515625 0.890625 2.296875 2.5q0.796875 1.609375 0.796875 3.65625q0 2.0625 -0.84375 3.703125q-0.828125 1.625 -2.359375 2.46875q-1.53125 0.84375 -3.296875 0.84375q-1.921875 0 -3.4375 -0.921875q-1.5 -0.9375 -2.28125 -2.53125q-0.78125 -1.609375 -0.78125 -3.40625zm1.859375 0.03125q0 2.453125 1.3125 3.875q1.328125 1.40625 3.3125 1.40625q2.03125 0 3.34375 -1.421875q1.3125 -1.4375 1.3125 -4.0625q0 -1.65625 -0.5625 -2.890625q-0.546875 -1.234375 -1.640625 -1.921875q-1.078125 -0.6875 -2.421875 -0.6875q-1.90625 0 -3.28125 1.3125q-1.375 1.3125 -1.375 4.390625z" fill-rule="nonzero"></path><path fill="#000000" fill-opacity="0.0" d="m532.0971 476.10236l20.094482 0l0 34.4252l-20.094482 0z" fill-rule="nonzero"></path><path fill="#000000" d="m542.019 496.39737q0 -3.390625 1.8125 -5.296875q1.828125 -1.921875 4.703125 -1.921875q1.875 0 3.390625 0.90625q1.515625 0.890625 2.296875 2.5q0.796875 1.609375 0.796875 3.65625q0 2.0625 -0.84375 3.703125q-0.828125 1.625 -2.359375 2.46875q-1.53125 0.84375 -3.296875 0.84375q-1.921875 0 -3.4375 -0.921875q-1.5 -0.9375 -2.28125 -2.53125q-0.78125 -1.609375 -0.78125 -3.40625zm1.859375 0.03125q0 2.453125 1.3125 3.875q1.328125 1.40625 3.3125 1.40625q2.03125 0 3.34375 -1.421875q1.3125 -1.4375 1.3125 -4.0625q0 -1.65625 -0.5625 -2.890625q-0.546875 -1.234375 -1.640625 -1.921875q-1.078125 -0.6875 -2.421875 -0.6875q-1.90625 0 -3.28125 1.3125q-1.375 1.3125 -1.375 4.390625z" fill-rule="nonzero"></path><path fill="#000000" fill-opacity="0.0" d="m580.8635 523.437l20.094482 0l0 34.42517l-20.094482 0z" fill-rule="nonzero"></path><path fill="#000000" d="m590.7854 543.732q0 -3.390625 1.8125 -5.296875q1.828125 -1.921875 4.703125 -1.921875q1.875 0 3.390625 0.90625q1.515625 0.890625 2.296875 2.5q0.796875 1.609375 0.796875 3.65625q0 2.0625 -0.84375 3.703125q-0.828125 1.625 -2.359375 2.46875q-1.53125 0.84375 -3.296875 0.84375q-1.921875 0 -3.4375 -0.921875q-1.5 -0.9375 -2.28125 -2.53125q-0.78125 -1.609375 -0.78125 -3.40625zm1.859375 0.03125q0 2.453125 1.3125 3.875q1.328125 1.40625 3.3125 1.40625q2.03125 0 3.34375 -1.421875q1.3125 -1.4375 1.3125 -4.0625q0 -1.65625 -0.5625 -2.890625q-0.546875 -1.234375 -1.640625 -1.921875q-1.078125 -0.6875 -2.421875 -0.6875q-1.90625 0 -3.28125 1.3125q-1.375 1.3125 -1.375 4.390625z" fill-rule="nonzero"></path><path fill="#000000" fill-opacity="0.0" d="m555.7664 493.31497l25.826782 0" fill-rule="nonzero"></path><path stroke="#000000" stroke-width="1.0" stroke-linejoin="round" stroke-linecap="butt" d="m555.7664 493.31497l25.826782 0" fill-rule="nonzero"></path><path fill="#000000" fill-opacity="0.0" d="m555.7664 503.35696l25.826782 0" fill-rule="nonzero"></path><path stroke="#000000" stroke-width="1.0" stroke-linejoin="round" stroke-linecap="butt" d="m555.7664 503.35696l25.826782 0" fill-rule="nonzero"></path><path fill="#000000" fill-opacity="0.0" d="m651.16534 311.87665l53.07086 0l0 38.740143l-53.07086 0z" fill-rule="nonzero"></path><path fill="#000000" d="m661.5716 338.79663l0 -13.59375l2.71875 0l3.21875 9.625q0.4375 1.34375 0.640625 2.015625q0.234375 -0.75 0.734375 -2.1875l3.25 -9.453125l2.421875 0l0 13.59375l-1.734375 0l0 -11.390625l-3.953125 11.390625l-1.625 0l-3.9375 -11.578125l0 11.578125l-1.734375 0zm21.962708 -5.328125l0 -1.609375l5.765625 0l0 5.046875q-1.328125 1.0625 -2.75 1.59375q-1.40625 0.53125 -2.890625 0.53125q-2.0 0 -3.640625 -0.859375q-1.625 -0.859375 -2.46875 -2.484375q-0.828125 -1.625 -0.828125 -3.625q0 -1.984375 0.828125 -3.703125q0.828125 -1.71875 2.390625 -2.546875q1.5625 -0.84375 3.59375 -0.84375q1.46875 0 2.65625 0.484375q1.203125 0.46875 1.875 1.328125q0.671875 0.84375 1.03125 2.21875l-1.625 0.4375q-0.3125 -1.03125 -0.765625 -1.625q-0.453125 -0.59375 -1.296875 -0.953125q-0.84375 -0.359375 -1.875 -0.359375q-1.234375 0 -2.140625 0.375q-0.890625 0.375 -1.453125 1.0q-0.546875 0.609375 -0.84375 1.34375q-0.53125 1.25 -0.53125 2.734375q0 1.8125 0.625 3.046875q0.640625 1.21875 1.828125 1.8125q1.203125 0.59375 2.546875 0.59375q1.171875 0 2.28125 -0.453125q1.109375 -0.453125 1.6875 -0.953125l0 -2.53125l-4.0 0z" fill-rule="nonzero"></path><path fill="#000000" fill-opacity="0.0" d="m618.1732 352.75067l31.559082 0l0 31.559052l-31.559082 0z" fill-rule="nonzero"></path><path fill="#000000" d="m628.62634 379.67065l0 -13.59375l1.84375 0l7.140625 10.671875l0 -10.671875l1.71875 0l0 13.59375l-1.84375 0l-7.140625 -10.6875l0 10.6875l-1.71875 0z" fill-rule="nonzero"></path><path fill="#000000" fill-opacity="0.0" d="m698.4908 355.62598l31.559082 0l0 31.559052l-31.559082 0z" fill-rule="nonzero"></path><path fill="#000000" d="m708.9439 382.546l0 -13.59375l1.84375 0l7.140625 10.671875l0 -10.671875l1.71875 0l0 13.59375l-1.84375 0l-7.140625 -10.6875l0 10.6875l-1.71875 0z" fill-rule="nonzero"></path><path fill="#000000" fill-opacity="0.0" d="m699.916 271.72046l31.559021 0l0 31.559082l-31.559021 0z" fill-rule="nonzero"></path><path fill="#000000" d="m710.36914 298.64047l0 -13.59375l1.84375 0l7.140625 10.671875l0 -10.671875l1.71875 0l0 13.59375l-1.84375 0l-7.140625 -10.6875l0 10.6875l-1.71875 0z" fill-rule="nonzero"></path><path fill="#000000" fill-opacity="0.0" d="m619.6063 269.55643l31.559021 0l0 31.559052l-31.559021 0z" fill-rule="nonzero"></path><path fill="#000000" d="m630.05945 296.47644l0 -13.59375l1.84375 0l7.140625 10.671875l0 -10.671875l1.71875 0l0 13.59375l-1.84375 0l-7.140625 -10.6875l0 10.6875l-1.71875 0z" fill-rule="nonzero"></path><path fill="#000000" fill-opacity="0.0" d="m686.4803 340.958l22.582703 32.22046" fill-rule="nonzero"></path><path stroke="#000000" stroke-width="1.0" stroke-linejoin="round" stroke-linecap="butt" d="m686.4803 340.958l22.582703 32.22046" fill-rule="nonzero"></path><path fill="#000000" fill-opacity="0.0" d="m642.0079 295.0538l22.582703 32.22049" fill-rule="nonzero"></path><path stroke="#000000" stroke-width="1.0" stroke-linejoin="round" stroke-linecap="butt" d="m642.0079 295.0538l22.582703 32.22049" fill-rule="nonzero"></path><path fill="#000000" fill-opacity="0.0" d="m663.08795 342.01312l-25.826782 30.11023" fill-rule="nonzero"></path><path stroke="#000000" stroke-width="1.0" stroke-linejoin="round" stroke-linecap="butt" d="m663.08795 342.01312l-25.826782 30.11023" fill-rule="nonzero"></path><path fill="#000000" fill-opacity="0.0" d="m710.6837 301.85303l-25.826782 30.11023" fill-rule="nonzero"></path><path stroke="#000000" stroke-width="1.0" stroke-linejoin="round" stroke-linecap="butt" d="m710.6837 301.85303l-25.826782 30.11023" fill-rule="nonzero"></path><path fill="#000000" fill-opacity="0.0" d="m823.2677 539.28345l-88.91339 -50.204712" fill-rule="nonzero"></path><path stroke="#000000" stroke-width="3.0" stroke-linejoin="round" stroke-linecap="butt" d="m823.2677 539.28345l-73.23938 -41.35443" fill-rule="evenodd"></path><path fill="#000000" stroke="#000000" stroke-width="3.0" stroke-linecap="butt" d="m752.46466 493.61414l-14.291382 -2.3790283l9.41864 11.008759z" fill-rule="evenodd"></path><path fill="#000000" fill-opacity="0.0" d="m823.2677 519.2021l25.826782 0l0 41.606323l-25.826782 0z" fill-rule="nonzero"></path><path fill="#000000" d="m832.23645 546.1221l5.234375 -13.59375l1.9375 0l5.5625 13.59375l-2.046875 0l-1.59375 -4.125l-5.6875 0l-1.484375 4.125l-1.921875 0zm3.921875 -5.578125l4.609375 0l-1.40625 -3.78125q-0.65625 -1.703125 -0.96875 -2.8125q-0.265625 1.3125 -0.734375 2.59375l-1.5 4.0z" fill-rule="nonzero"></path><path fill="#000000" fill-opacity="0.0" d="m483.3281 671.1811l90.36221 -47.338562" fill-rule="nonzero"></path><path stroke="#000000" stroke-width="3.0" stroke-linejoin="round" stroke-linecap="butt" d="m483.3281 671.1811l74.417694 -38.985657" fill-rule="evenodd"></path><path fill="#000000" stroke="#000000" stroke-width="3.0" stroke-linecap="butt" d="m560.0452 636.58484l9.760193 -10.707092l-14.359131 1.9284058z" fill-rule="evenodd"></path><path fill="#000000" fill-opacity="0.0" d="m457.5118 649.6116l43.02362 0l0 41.606262l-43.02362 0z" fill-rule="nonzero"></path><path fill="#000000" d="m467.90244 676.53156l0 -13.59375l5.109375 0q1.546875 0 2.484375 0.40625q0.953125 0.40625 1.484375 1.265625q0.53125 0.859375 0.53125 1.796875q0 0.875 -0.46875 1.65625q-0.46875 0.765625 -1.4375 1.234375q1.234375 0.359375 1.890625 1.234375q0.671875 0.875 0.671875 2.0625q0 0.953125 -0.40625 1.78125q-0.390625 0.8125 -0.984375 1.265625q-0.59375 0.4375 -1.5 0.671875q-0.890625 0.21875 -2.1875 0.21875l-5.1875 0zm1.796875 -7.890625l2.9375 0q1.203125 0 1.71875 -0.15625q0.6875 -0.203125 1.03125 -0.671875q0.359375 -0.46875 0.359375 -1.1875q0 -0.671875 -0.328125 -1.1875q-0.328125 -0.515625 -0.9375 -0.703125q-0.59375 -0.203125 -2.0625 -0.203125l-2.71875 0l0 4.109375zm0 6.28125l3.390625 0q0.875 0 1.21875 -0.0625q0.625 -0.109375 1.046875 -0.359375q0.421875 -0.265625 0.6875 -0.765625q0.265625 -0.5 0.265625 -1.140625q0 -0.765625 -0.390625 -1.328125q-0.390625 -0.5625 -1.078125 -0.78125q-0.6875 -0.234375 -1.984375 -0.234375l-3.15625 0l0 4.671875z" fill-rule="nonzero"></path><path fill="#000000" fill-opacity="0.0" d="m598.10236 552.1207l-10.047241 20.094482" fill-rule="nonzero"></path><path stroke="#000000" stroke-width="1.0" stroke-linejoin="round" stroke-linecap="butt" d="m598.10236 552.1207l-10.047241 20.094482" fill-rule="nonzero"></path><path fill="#000000" fill-opacity="0.0" d="m553.6168 565.0184l53.07086 0l0 30.11023l-53.07086 0z" fill-rule="nonzero"></path><path fill="#000000" d="m564.13245 591.93835l0 -13.59375l1.8125 0l0 5.578125l7.0625 0l0 -5.578125l1.796875 0l0 13.59375l-1.796875 0l0 -6.40625l-7.0625 0l0 6.40625l-1.8125 0z" fill-rule="nonzero"></path><path fill="#000000" d="m582.1366 597.9227l0 1.015625l-5.6875 0q0 -0.375 0.125 -0.734375q0.21875 -0.578125 0.6875 -1.140625q0.484375 -0.5625 1.390625 -1.296875q1.40625 -1.15625 1.890625 -1.828125q0.5 -0.671875 0.5 -1.265625q0 -0.625 -0.453125 -1.046875q-0.453125 -0.4375 -1.171875 -0.4375q-0.765625 0 -1.21875 0.453125q-0.453125 0.453125 -0.46875 1.265625l-1.078125 -0.109375q0.109375 -1.21875 0.828125 -1.84375q0.734375 -0.640625 1.96875 -0.640625q1.234375 0 1.953125 0.6875q0.71875 0.6875 0.71875 1.703125q0 0.515625 -0.21875 1.015625q-0.203125 0.484375 -0.703125 1.046875q-0.484375 0.546875 -1.609375 1.5q-0.953125 0.796875 -1.234375 1.09375q-0.265625 0.28125 -0.4375 0.5625l4.21875 0z" fill-rule="nonzero"></path><path fill="#000000" d="m594.17865 587.1727l1.796875 0.453125q-0.5625 2.21875 -2.03125 3.390625q-1.46875 1.15625 -3.59375 1.15625q-2.203125 0 -3.578125 -0.890625q-1.375 -0.90625 -2.09375 -2.59375q-0.71875 -1.703125 -0.71875 -3.65625q0 -2.125 0.796875 -3.703125q0.8125 -1.578125 2.3125 -2.390625q1.5 -0.828125 3.296875 -0.828125q2.046875 0 3.4375 1.046875q1.390625 1.03125 1.9375 2.90625l-1.765625 0.421875q-0.46875 -1.484375 -1.375 -2.15625q-0.90625 -0.6875 -2.265625 -0.6875q-1.5625 0 -2.625 0.75q-1.046875 0.75 -1.484375 2.03125q-0.421875 1.265625 -0.421875 2.609375q0 1.734375 0.5 3.03125q0.515625 1.28125 1.578125 1.921875q1.078125 0.640625 2.3125 0.640625q1.515625 0 2.5625 -0.859375q1.046875 -0.875 1.421875 -2.59375z" fill-rule="nonzero"></path><path fill="#000000" fill-opacity="0.0" d="m585.88715 602.28345l10.047241 20.094482" fill-rule="nonzero"></path><path stroke="#000000" stroke-width="1.0" stroke-linejoin="round" stroke-linecap="butt" d="m585.88715 602.28345l10.047241 20.094482" fill-rule="nonzero"></path><path fill="#000000" fill-opacity="0.0" d="m585.88715 612.37006l51.62207 0l0 37.29138l-51.62207 0z" fill-rule="nonzero"></path><path fill="#000000" d="m606.059 634.5245l1.796875 0.453125q-0.5625 2.21875 -2.03125 3.390625q-1.46875 1.15625 -3.59375 1.15625q-2.203125 0 -3.578125 -0.890625q-1.375 -0.90625 -2.09375 -2.59375q-0.71875 -1.703125 -0.71875 -3.65625q0 -2.125 0.796875 -3.703125q0.8125 -1.578125 2.3125 -2.390625q1.5 -0.828125 3.296875 -0.828125q2.046875 0 3.4375 1.046875q1.390625 1.03125 1.9375 2.90625l-1.765625 0.421875q-0.46875 -1.484375 -1.375 -2.15625q-0.90625 -0.6875 -2.265625 -0.6875q-1.5625 0 -2.625 0.75q-1.046875 0.75 -1.484375 2.03125q-0.421875 1.265625 -0.421875 2.609375q0 1.734375 0.5 3.03125q0.515625 1.28125 1.578125 1.921875q1.078125 0.640625 2.3125 0.640625q1.515625 0 2.5625 -0.859375q1.046875 -0.875 1.421875 -2.59375zm3.8167114 4.765625l0 -13.59375l1.8125 0l0 5.578125l7.0625 0l0 -5.578125l1.796875 0l0 13.59375l-1.796875 0l0 -6.40625l-7.0625 0l0 6.40625l-1.8125 0z" fill-rule="nonzero"></path><path fill="#000000" fill-opacity="0.0" d="m606.6903 645.35693l-11.4646 25.826782" fill-rule="nonzero"></path><path stroke="#000000" stroke-width="1.0" stroke-linejoin="round" stroke-linecap="butt" d="m606.6903 645.35693l-11.4646 25.826782" fill-rule="nonzero"></path><path fill="#000000" fill-opacity="0.0" d="m585.1627 666.9029l53.07086 0l0 30.11023l-53.07086 0z" fill-rule="nonzero"></path><path fill="#000000" d="m605.3346 689.05725l1.796875 0.453125q-0.5625 2.21875 -2.03125 3.390625q-1.46875 1.15625 -3.59375 1.15625q-2.203125 0 -3.578125 -0.890625q-1.375 -0.90625 -2.09375 -2.59375q-0.71875 -1.703125 -0.71875 -3.65625q0 -2.125 0.796875 -3.703125q0.8125 -1.578125 2.3125 -2.390625q1.5 -0.828125 3.296875 -0.828125q2.046875 0 3.4375 1.046875q1.390625 1.03125 1.9375 2.90625l-1.765625 0.421875q-0.46875 -1.484375 -1.375 -2.15625q-0.90625 -0.6875 -2.265625 -0.6875q-1.5625 0 -2.625 0.75q-1.046875 0.75 -1.484375 2.03125q-0.421875 1.265625 -0.421875 2.609375q0 1.734375 0.5 3.03125q0.515625 1.28125 1.578125 1.921875q1.078125 0.640625 2.3125 0.640625q1.515625 0 2.5625 -0.859375q1.046875 -0.875 1.421875 -2.59375z" fill-rule="nonzero"></path><path fill="#000000" d="m612.10443 700.8229l-1.046875 0l0 -6.71875q-0.390625 0.359375 -1.015625 0.734375q-0.609375 0.359375 -1.09375 0.53125l0 -1.015625q0.875 -0.421875 1.53125 -1.0q0.671875 -0.59375 0.953125 -1.15625l0.671875 0l0 8.625zm4.573303 -4.65625q-0.65625 -0.25 -0.984375 -0.6875q-0.3125 -0.453125 -0.3125 -1.0625q0 -0.9375 0.671875 -1.578125q0.6875 -0.640625 1.796875 -0.640625q1.125 0 1.8125 0.65625q0.6875 0.65625 0.6875 1.59375q0 0.59375 -0.3125 1.03125q-0.3125 0.4375 -0.953125 0.6875q0.796875 0.25 1.203125 0.828125q0.40625 0.578125 0.40625 1.375q0 1.09375 -0.78125 1.84375q-0.765625 0.75 -2.046875 0.75q-1.265625 0 -2.046875 -0.75q-0.78125 -0.75 -0.78125 -1.875q0 -0.84375 0.421875 -1.40625q0.4375 -0.5625 1.21875 -0.765625zm-0.21875 -1.796875q0 0.609375 0.390625 1.0q0.40625 0.390625 1.03125 0.390625q0.609375 0 1.0 -0.375q0.390625 -0.390625 0.390625 -0.953125q0 -0.578125 -0.40625 -0.96875q-0.40625 -0.40625 -1.0 -0.40625q-0.609375 0 -1.015625 0.390625q-0.390625 0.390625 -0.390625 0.921875zm-0.328125 3.96875q0 0.453125 0.203125 0.875q0.21875 0.421875 0.640625 0.65625q0.421875 0.234375 0.90625 0.234375q0.75 0 1.234375 -0.484375q0.5 -0.484375 0.5 -1.234375q0 -0.765625 -0.5 -1.265625q-0.5 -0.5 -1.265625 -0.5q-0.75 0 -1.234375 0.5q-0.484375 0.484375 -0.484375 1.21875z" fill-rule="nonzero"></path></g></svg>

