<?xml version="1.0" encoding="windows-1252"?>
<!-- Generator: Adobe Illustrator 19.1.0, SVG Export Plug-In . SVG Version: 6.00 Build 0)  -->
<svg version="1.1" id="&#1057;&#1083;&#1086;&#1081;_1" xmlns="http://www.w3.org/2000/svg" xmlns:xlink="http://www.w3.org/1999/xlink" x="0px" y="0px" viewBox="0 0 327.26 177.364" style="enable-background:new 0 0 327.26 177.364;" xml:space="preserve">
<g>
	<polygon points="25.489,97.039 27.391,96.421 16.919,64.189 16.919,64.189 16.525,62.979 46.109,41.484 44.933,39.867    14.761,61.788 14.174,62.214 14.399,62.906 15.017,64.808 15.017,64.808  "/>
	<rect x="23.297" y="57.265" transform="matrix(-0.809 0.5878 -0.5878 -0.809 104.7103 82.507)" width="31.308" height="2"/>
	<rect x="66.974" y="85.783" transform="matrix(0.309 -0.9511 0.9511 0.309 -20.4939 145.3589)" width="45.628" height="2"/>
	<polygon points="240.905,42.626 209.547,60.73 209.547,60.73 208.314,61.442 207.082,60.73 207.082,60.73 160.663,33.93    160.663,33.93 158.931,32.93 158.431,32.642 157.932,32.93 108.611,61.406 78.965,39.867 77.789,41.484 107.373,62.979    106.979,64.189 106.979,64.189 90.022,116.378 88.749,116.378 50.799,116.378 50.799,118.378 88.749,118.378 90.749,118.378    91.475,118.379 91.7,117.687 92.318,115.785 92.318,115.785 108.881,64.808 108.881,64.808 109.381,63.271 157.199,35.663    157.199,35.663 158.431,34.951 159.664,35.663 159.664,35.663 206.083,62.463 206.083,62.463 207.815,63.463 208.314,63.751    208.814,63.463 210.546,62.463 210.546,62.463 241.904,44.358  "/>
	<polygon points="40.923,124.946 40.747,124.946 25.317,102.817 21.899,102.817 21.899,131.001 25.376,131.001 25.376,108.95    25.551,108.95 40.981,131.001 44.399,131.001 44.399,102.817 40.923,102.817  "/>
	<polygon points="40.883,147.188 25.415,147.188 25.415,135.001 21.899,135.001 21.899,163.184 25.415,163.184 25.415,150.352    40.883,150.352 40.883,163.184 44.399,163.184 44.399,135.001 40.883,135.001  "/>
	<polygon points="54.176,20.313 54.351,20.313 69.781,42.363 73.199,42.363 73.199,14.18 69.722,14.18 69.722,36.309 69.547,36.309    54.117,14.18 50.699,14.18 50.699,42.363 54.176,42.363  "/>
	<polygon points="265.971,41.365 265.795,41.365 250.366,19.236 246.948,19.236 246.948,47.42 250.424,47.42 250.424,25.369    250.6,25.369 266.03,47.42 269.448,47.42 269.448,19.236 265.971,19.236  "/>
	<polygon points="292.432,31.424 276.963,31.424 276.963,19.236 273.448,19.236 273.448,47.42 276.963,47.42 276.963,34.588    292.432,34.588 292.432,47.42 295.948,47.42 295.948,19.236 292.432,19.236  "/>
	<path d="M303.475,51.488v-0.055l4.99-5.154c3.295-3.404,4.293-5.045,4.293-7.246c0-3.021-2.775-5.414-6.303-5.414   c-3.719,0-6.508,2.57-6.508,6.016v0.014h2.379v-0.014c0-2.201,1.75-3.869,4.061-3.869c2.174,0,3.91,1.518,3.91,3.418   c0,1.641-0.629,2.693-3.281,5.482l-6.945,7.314v1.695h13.016v-2.188H303.475z"/>
</g>
</svg>