<?xml version="1.0" encoding="utf-8"?>
<!-- Generator: Adobe Illustrator 15.1.0, SVG Export Plug-In . SVG Version: 6.00 Build 0)  -->
<!DOCTYPE svg PUBLIC "-//W3C//DTD SVG 1.1//EN" "http://www.w3.org/Graphics/SVG/1.1/DTD/svg11.dtd">
<svg version="1.1" id="Layer_1" xmlns="http://www.w3.org/2000/svg" xmlns:xlink="http://www.w3.org/1999/xlink" x="0px" y="0px"
	 width="629px" height="415.5px" viewBox="69.209 0 629 415.5" enable-background="new 69.209 0 629 415.5" xml:space="preserve">
<path fill="none" stroke="#F2C99F" stroke-width="5" d="M69.209,218.25c45-23,339-112,629,6"/>
<polygon fill="none" stroke="#000000" stroke-width="2" points="191.459,82.25 183.959,89.75 187.959,96.25 198.209,96.25 
	206.209,88.25 201.709,81 "/>
<polygon fill="none" stroke="#000000" stroke-width="2" points="185.959,44.5 178.459,52 182.459,58.5 192.709,58.5 200.709,50.5 
	196.209,43.25 "/>
<polygon fill="none" stroke="#000000" stroke-width="2" points="218.943,31.13 211.443,38.63 215.443,45.13 225.693,45.13 
	233.693,37.13 229.193,29.88 "/>
<polygon fill="none" stroke="#000000" stroke-width="2" points="270.814,14.271 263.314,21.771 267.314,28.271 277.564,28.271 
	285.564,20.271 281.064,13.021 "/>
<polygon fill="none" stroke="#000000" stroke-width="2" points="240.659,40.117 233.159,47.617 237.159,54.117 247.409,54.117 
	255.409,46.117 250.909,38.867 "/>
<polygon fill="none" stroke="#000000" stroke-width="2" points="222.828,61.993 215.328,69.493 219.328,75.993 229.578,75.993 
	237.578,67.993 233.078,60.743 "/>
<polygon fill="none" stroke="#000000" stroke-width="2" points="257.177,63.951 249.677,71.451 253.677,77.951 263.927,77.951 
	271.927,69.951 267.427,62.701 "/>
<polygon fill="none" stroke="#000000" stroke-width="2" points="214.719,96.52 207.219,104.02 211.219,110.52 221.469,110.52 
	229.469,102.52 224.969,95.27 "/>
<polygon fill="none" stroke="#000000" stroke-width="2" points="283.329,39.641 275.829,47.141 279.829,53.641 290.079,53.641 
	298.079,45.641 293.579,38.391 "/>
<polygon fill="none" stroke="#000000" stroke-width="2" points="261.687,265.2 251.775,261.422 247.48,267.73 251.672,277.084 
	262.244,281.112 267.02,274.042 "/>
<polygon fill="none" stroke="#000000" stroke-width="2" points="244.209,282.677 234.298,278.9 230.003,285.208 234.195,294.562 
	244.767,298.59 249.542,291.519 "/>
<polygon fill="none" stroke="#000000" stroke-width="2" points="267.439,297.913 257.528,294.137 253.233,300.444 257.425,309.797 
	267.997,313.827 272.772,306.754 "/>
<polygon fill="none" stroke="#000000" stroke-width="2" points="292.494,278.612 282.583,274.836 278.287,281.144 282.479,290.497 
	293.051,294.525 297.827,287.454 "/>
<polygon fill="none" stroke="#000000" stroke-width="2" points="325.226,275.269 315.314,271.493 311.019,277.799 315.212,287.153 
	325.783,291.182 330.559,284.11 "/>
<polygon fill="none" stroke="#000000" stroke-width="2" points="300.831,316.583 290.92,312.807 286.625,319.114 290.816,328.467 
	301.389,332.497 306.164,325.424 "/>
<g>
	<polygon fill="none" stroke="#000000" stroke-width="2" points="168.46,265.381 160.284,272.136 163.648,278.985 173.852,279.958 
		182.575,272.752 178.783,265.108 	"/>
	<polygon fill="none" stroke="#000000" stroke-width="2" points="157.833,285.292 147.083,285.292 139.521,292.854 142.958,299.792 
		153.083,299.792 160.583,292.292 	"/>
	<line fill="none" stroke="#000000" stroke-width="2" x1="163.648" y1="278.985" x2="157.833" y2="285.292"/>
	<polygon fill="none" stroke="#000000" stroke-width="2" points="138.333,306.667 128.458,304.792 123.958,311.542 130.333,320.042 
		141.083,321.542 144.833,315.042 	"/>
	<polygon fill="none" stroke="#000000" stroke-width="2" points="117.458,311.042 111.333,302.167 100.833,300.417 96.208,306.792 
		103.083,315.292 113.083,316.667 	"/>
	<line fill="none" stroke="#000000" stroke-width="2" x1="123.958" y1="311.542" x2="117.458" y2="311.042"/>
	<line fill="none" stroke="#000000" stroke-width="2" x1="138.333" y1="306.667" x2="142.958" y2="299.792"/>
	<polygon fill="none" stroke="#000000" stroke-width="2" points="156.083,309.417 150.958,315.917 157.583,324.667 167.833,325.917 
		172.583,319.917 165.833,311.042 	"/>
	<polygon fill="none" stroke="#000000" stroke-width="2" points="178.208,320.792 182.333,315.042 192.583,316.292 199.333,324.417 
		194.958,331.292 184.583,330.042 	"/>
	<line fill="none" stroke="#000000" stroke-width="2" x1="178.208" y1="320.792" x2="172.583" y2="319.917"/>
	<line fill="none" stroke="#000000" stroke-width="2" x1="150.958" y1="315.917" x2="144.833" y2="315.042"/>
</g>
<polyline fill="none" stroke="#000000" stroke-width="2" points="427.085,334.167 432.168,329.084 441.75,332.5 446.585,341 "/>
<polyline fill="none" stroke="#000000" stroke-width="2" points="414.75,338.667 419.75,347.167 429.418,350.5 434.168,345.75 "/>
<polyline fill="none" stroke="#000000" stroke-width="2" points="452.085,320.5 457.252,329.5 466.418,333.333 471.668,328.083 "/>
<polyline fill="none" stroke="#000000" stroke-width="2" points="464.085,316.667 469.252,311.167 478.585,314.667 484.085,324 "/>
<polyline fill="none" stroke="#000000" stroke-width="2" points="449.085,360.333 454.585,369.5 463.585,373.333 469.168,367.75 "/>
<polyline fill="none" stroke="#000000" stroke-width="2" points="480.918,363.5 475.918,354.167 466.085,351.333 460.75,356.667 "/>
<polyline fill="none" stroke="#000000" stroke-width="2" points="568.084,359 575.584,356.5 577.25,347.167 586.75,343 588.25,333 
	597.918,328.834 598.75,320.667 608.418,315.167 609.418,307 619.918,302 619.918,291.334 630.584,288 631.75,278.334 642.084,274 
	642.918,264.667 652.918,260.334 652.918,254 "/>
<polyline fill="none" stroke="#000000" stroke-width="2" points="571.918,376.334 579.75,373.334 581.25,363.667 590.584,359.834 
	592.084,350.167 602.084,345.5 603.084,336.667 612.418,332.667 612.418,322.667 623.584,317.834 625.584,309.167 635.25,304.834 
	636.084,297 644.25,291.5 647.25,281.5 656.75,277.334 656.75,271 "/>
<polyline fill="none" stroke="#000000" stroke-width="2" points="600.918,366.167 608.084,363.5 609.418,354.667 619.25,350 
	620.584,341.167 630.418,336 631.918,326.5 641.084,322.5 642.25,313.167 650.918,308.834 653.084,299.667 663.25,294.667 
	664.918,285.667 673.75,281.667 675.084,271.5 685.418,266.834 685.418,261.334 "/>
<path fill="none" stroke="#E87E25" stroke-width="6" stroke-linecap="round" d="M462.75,113.167c0,0,9.334,4.5,6.168,43"/>
<path fill="none" stroke="#E87E25" stroke-width="6" stroke-linecap="round" d="M489.584,114c0,0-14,11.333-11,43.833"/>
<polygon fill="#F29C4B" stroke="#F29C4B" stroke-width="3" stroke-linecap="round" stroke-linejoin="round" points="493.445,12.035 
	453.529,11.524 475.399,43.92 "/>
<line fill="none" stroke="#F29C4B" stroke-width="3" stroke-linecap="round" stroke-linejoin="round" x1="223.5" y1="241.25" x2="215.25" y2="248.5"/>
<line fill="none" stroke="#F29C4B" stroke-width="3" stroke-linecap="round" stroke-linejoin="round" x1="237.125" y1="233.625" x2="227.5" y2="239"/>
<line fill="none" stroke="#F29C4B" stroke-width="3" stroke-linecap="round" stroke-linejoin="round" x1="267.25" y1="227.25" x2="255.625" y2="228"/>
<line fill="none" stroke="#F29C4B" stroke-width="3" stroke-linecap="round" stroke-linejoin="round" x1="251.875" y1="229.125" x2="241.625" y2="231.875"/>
<line fill="none" stroke="#F29C4B" stroke-width="3" stroke-linecap="round" stroke-linejoin="round" x1="283" y1="229.125" x2="272.125" y2="227"/>
<line fill="none" stroke="#F29C4B" stroke-width="3" stroke-linecap="round" stroke-linejoin="round" x1="286.875" y1="229.5" x2="297.875" y2="233.75"/>
<line fill="none" stroke="#F29C4B" stroke-width="3" stroke-linecap="round" stroke-linejoin="round" x1="297.375" y1="226.75" x2="289.438" y2="218.813"/>
<path fill="#F29C4B" stroke="#F29C4B" stroke-width="3" stroke-linecap="round" stroke-linejoin="round" d="M319.75,246
	c0,0-15-10.25-18.375-16"/>
<path fill="#F29C4B" stroke="#F29C4B" stroke-width="3" stroke-linecap="round" stroke-linejoin="round" d="M313.701,241.604
	c0,0-8.451-6.729-11.701-6.729"/>
<line fill="none" stroke="#F29C4B" stroke-width="3" stroke-linecap="round" stroke-linejoin="round" x1="334.875" y1="254.125" x2="324.875" y2="249"/>
<line fill="none" stroke="#F29C4B" stroke-width="3" stroke-linecap="round" stroke-linejoin="round" x1="349" y1="259.75" x2="339.375" y2="255.75"/>
<line fill="none" stroke="#F29C4B" stroke-width="3" stroke-linecap="round" stroke-linejoin="round" x1="364.875" y1="263.125" x2="353.5" y2="260.625"/>
<line fill="none" stroke="#F29C4B" stroke-width="3" stroke-linecap="round" stroke-linejoin="round" x1="380.375" y1="264.375" x2="368.875" y2="263.625"/>
<line fill="none" stroke="#F29C4B" stroke-width="3" stroke-linecap="round" stroke-linejoin="round" x1="395.75" y1="264.625" x2="384.375" y2="264.625"/>
<path fill="#F29C4B" stroke="#F29C4B" stroke-width="3" stroke-linecap="round" stroke-linejoin="round" d="M395.875,265.25
	c0,0-6.813,0.438-10.375,4"/>
<line fill="none" stroke="#F29C4B" stroke-width="3" stroke-linecap="round" stroke-linejoin="round" x1="382.5" y1="271" x2="373.5" y2="278.875"/>
<path fill="#F29C4B" stroke="#F29C4B" stroke-width="3" stroke-linecap="round" stroke-linejoin="round" d="M370,281.375
	c0,0-3.875,4.625-5.375,9.75"/>
<line fill="none" stroke="#F29C4B" stroke-width="3" stroke-linecap="round" stroke-linejoin="round" x1="361.625" y1="302.875" x2="363.125" y2="294.5"/>
<line fill="none" stroke="#F29C4B" stroke-width="3" stroke-linecap="round" stroke-linejoin="round" x1="360.875" y1="306.75" x2="359.875" y2="312.375"/>
<line fill="none" stroke="#F29C4B" stroke-width="3" stroke-linecap="round" stroke-linejoin="round" x1="410.125" y1="263.25" x2="400.75" y2="264.5"/>
<line fill="none" stroke="#F29C4B" stroke-width="3" stroke-linecap="round" stroke-linejoin="round" x1="425.25" y1="260.625" x2="415.25" y2="262.5"/>
<line fill="none" stroke="#F29C4B" stroke-width="3" stroke-linecap="round" stroke-linejoin="round" x1="439.5" y1="255.25" x2="431" y2="258.625"/>
<line fill="none" stroke="#F29C4B" stroke-width="3" stroke-linecap="round" stroke-linejoin="round" x1="452.75" y1="246.25" x2="444.75" y2="252.25"/>
<line fill="none" stroke="#F29C4B" stroke-width="3" stroke-linecap="round" stroke-linejoin="round" x1="461.75" y1="233.625" x2="456" y2="242.75"/>
<path fill="#F29C4B" stroke="#F29C4B" stroke-width="3" stroke-linecap="round" stroke-linejoin="round" d="M436.006,256.638
	c0,0-4.381,6.112-3.631,8.987"/>
<path fill="#F29C4B" stroke="#F29C4B" stroke-width="3" stroke-linecap="round" stroke-linejoin="round" d="M432.375,269.625
	c0,0,2,6.5,6.125,9.25"/>
<path fill="#F29C4B" stroke="#F29C4B" stroke-width="3" stroke-linecap="round" stroke-linejoin="round" d="M451.5,288.25
	c0,0-8.125-5.25-9-6.125"/>
<line fill="none" stroke="#F29C4B" stroke-width="3" stroke-linecap="round" stroke-linejoin="round" x1="455.125" y1="289.875" x2="465.125" y2="294"/>
<line fill="none" stroke="#F29C4B" stroke-width="3" stroke-linecap="round" stroke-linejoin="round" x1="470.25" y1="295.25" x2="480.875" y2="296.875"/>
<line fill="none" stroke="#F29C4B" stroke-width="3" stroke-linecap="round" stroke-linejoin="round" x1="485.5" y1="297.625" x2="495.875" y2="298.75"/>
<line fill="none" stroke="#F29C4B" stroke-width="3" stroke-linecap="round" stroke-linejoin="round" x1="500.875" y1="299.375" x2="511.875" y2="303.25"/>
<polygon fill="#F29C4B" stroke="#F29C4B" stroke-width="3" stroke-linecap="round" points="512.5,300.25 509.125,305.5 
	518.25,306.875 "/>
<line fill="none" stroke="#F29C4B" stroke-width="3" stroke-linecap="round" x1="359.563" y1="316.688" x2="358.625" y2="323.688"/>
<polygon fill="#F29C4B" stroke="#F29C4B" stroke-width="3" stroke-linecap="round" points="362.625,321.375 354.688,319.938 
	357.375,330.375 "/>
<path fill="none" stroke="#F2C99F" stroke-width="5" d="M69.209,252.25c87-53,339-112,629-1"/>
<path fill="#119448" d="M269.25,94.25c0,0-17,12.591-25.25-4s12.75,143,19.625,154.625c2.291,3.873-8.125-3.875-8.125-3.875
	l14.75,29l6-30.5l-4.75,4.75C271.5,244.25,252,170.75,269.25,94.25z"/>
<path fill="#B8D77D" stroke="#184F27" stroke-width="0.25" d="M231.75,119.5c-12,0-32,67.5,6.25,102.75
	C248.773,232.178,245.167,119.5,231.75,119.5z"/>
<text transform="matrix(1 0 0 1 301.5833 126.9087)" enable-background="new    "><tspan x="0" y="0" fill="#82BA41" font-family="'LiberationSans-Regular'" font-size="18">Переносник</tspan><tspan x="0" y="21.6" fill="#82BA41" font-family="'LiberationSans-Regular'" font-size="18">глюкози GLUT4</tspan></text>
<path fill="#96816E" stroke="#77695D" stroke-width="0.25" d="M466.419,43.333c0,0,3.831,3,8.165,3s6.5-1.167,9-5.333
	s-5.165,56.667-5.165,56.667L484.252,96l-8.667,19.333l-9.666-19.167l6.333,2.333L466.419,43.333z"/>
<text transform="matrix(1 0 0 1 379.3337 250.9565)" fill="#F29C4B" font-family="'LiberationSans-Regular'" font-size="24">2</text>
<rect x="530.334" y="281.917" fill="none" width="23.25" height="25.666"/>
<text transform="matrix(1 0 0 1 530.3337 298.9565)" fill="#0D9347" font-family="'LiberationSans-Regular'" font-size="24">6</text>
<text transform="matrix(1 0 0 1 124.6667 354.8735)" font-family="'LiberationSans-Regular'" font-size="18">Глікоген</text>
<rect x="165.625" y="256.375" fill="none" width="16.25" height="20.375"/>
<text transform="matrix(1 0 0 1 207.9587 317.4155)" fill="#109849" font-family="'LiberationSans-Regular'" font-size="24">4</text>
<line fill="none" stroke="#F29C4B" stroke-width="3" stroke-linecap="round" stroke-linejoin="round" x1="211.75" y1="251.25" x2="203.917" y2="259.917"/>
<polygon fill="#F29C4B" stroke="#F29C4B" stroke-width="3" stroke-linecap="round" points="208.083,261.583 201.917,257.833 
	200.083,267.083 "/>
<line fill="none" stroke="#F29C4B" stroke-width="3" stroke-linecap="round" stroke-linejoin="round" x1="286.083" y1="214.5" x2="276.667" y2="203.917"/>
<line fill="none" stroke="#F29C4B" stroke-width="3" stroke-linecap="round" stroke-linejoin="round" x1="273" y1="200.083" x2="266.667" y2="189"/>
<path fill="#B8D77D" stroke="#184F27" stroke-width="0.25" d="M276.532,217.262c12.623,0.4,35.806-66.364-3.307-102.861
	C262.208,104.123,262.419,216.813,276.532,217.262z"/>
<rect x="490.544" y="67.292" fill="none" width="15.165" height="22.583"/>
<text transform="matrix(1 0 0 1 485.2107 85.665)" fill="#96816E" font-family="'LiberationSans-Regular'" font-size="24">1</text>
<text transform="matrix(1 0 0 1 492.4998 32.7896)" fill="#F29C4B" font-family="'LiberationSans-Regular'" font-size="18">Інсулін</text>
<text transform="matrix(1 0 0 1 275.5833 102.79)" fill="#119448" font-family="'LiberationSans-Regular'" font-size="24">3</text>
<path fill="#119448" d="M322.625,332.25c0,0,6.75-1.5,6.75-4.125s0-11.625,0-11.625s27.449,37.209,58.375,29.875
	c2.459-0.584,1.834,3.25,1.834,3.25S358.625,364.75,322.625,332.25z"/>
<polygon fill="#119448" points="389.209,352.542 387.5,343 399.293,344.792 "/>
<polygon fill="#119448" points="577.168,315.5 573.877,323.667 585.959,324.042 "/>
<path fill="#119448" d="M508.375,332.25c0,0-0.875-7.875-5.375-9.625s40.15-26.232,74.25-4.875c3.438,2.151-1.375,3-1.375,3
	S541.125,304.125,508.375,332.25z"/>
<text transform="matrix(1 0 0 1 527.0837 395.5396)" font-family="'LiberationSans-Regular'" font-size="18">Жирні кислоти</text>
<text transform="matrix(1 0 0 1 137.9998 27.4556)" font-family="'LiberationSans-Regular'" font-size="18">Глюкоза</text>
<path fill="none" stroke="#E87E25" stroke-width="6" stroke-linecap="round" d="M460.569,142.648c0,0-11,39.167,2.167,70.5"/>
<path fill="none" stroke="#E87E25" stroke-width="6" stroke-linecap="round" d="M488.25,141.5c0,0,10.5,45.334-16.5,74.167"/>
<g>
	<text transform="matrix(1 0 0 1 372.5417 337.2515)" fill="#0D9347" font-family="'LiberationSans-Regular'" font-size="24">5</text>
</g>
<text transform="matrix(1 0 0 1 415.8757 395.5396)" font-family="'LiberationSans-Regular'" font-size="18">Піруват</text>
<g>
	<text transform="matrix(1 0 0 1 498.5417 137.584)"><tspan x="0" y="0" fill="#DC8031" font-family="'LiberationSans-Regular'" font-size="18">Інсуліновий</tspan><tspan x="0" y="21.6" fill="#DC8031" font-family="'LiberationSans-Regular'" font-size="18">рецептор</tspan></text>
</g>
<g>
	<path fill="#119448" d="M225.107,292.123c0,0-3.679-2.044-3.225-3.576c0.454-1.531,2.013-6.783,2.013-6.783
		s-22.461,16.961-39.238,7.325c-1.334-0.767-1.633,1.579-1.633,1.579S198.471,304.855,225.107,292.123z"/>
	<polygon fill="#119448" points="182.738,292.435 185.387,287.164 178.195,286.167 	"/>
</g>
</svg>
