<?xml version="1.0" encoding="UTF-8" standalone="no"?>
<svg xmlns:svg="http://www.w3.org/2000/svg" xmlns="http://www.w3.org/2000/svg" version="1.0" width="2737.3" height="1727.6" xml:space="preserve">
<rect width="2737.3" height="1727.6" x="0" y="0" style="fill:#ffffff" />
<g transform="translate(50,49.899976)">
<polygon points="2133.6,1112.4 2136.6,1113.9 2136.6,1117.4 2012.1,1189.4 2012.1,1182.4 2133.6,1112.4" style="fill:#165829" />
<g>
<path d="M 2035.1,1008.9 L 2035.1,937.3 L 2044.6,937.3 L 2044.6,966.7 L 2081.9,966.7 L 2081.9,937.3 L 2091.4,937.3 L 2091.4,1008.9 L 2081.9,1008.9 L 2081.9,975.1 L 2044.6,975.1 L 2044.6,1008.9 L 2035.1,1008.9 z" style="fill:#165829" />
<path d="M 2107,1008.9 L 2107,937.3 L 2116.8,937.3 L 2154.5,993.6 L 2154.5,937.3 L 2163.6,937.3 L 2163.6,1008.9 L 2153.8,1008.9 L 2116.1,952.6 L 2116.1,1008.9 L 2107,1008.9 z" style="fill:#165829" />
</g>
<polygon points="2133.6,1024.9 2139.6,1024.9 2139.6,1112.4 2136.6,1113.9 2133.6,1112.4 2133.6,1024.9" style="fill:#165829" />
<polygon points="2258.6,896.4 2264.6,899.4 2185.6,945.4 2182.6,939.9 2258.6,896.4" />
<g>
<path d="M 1859.6,1069.4 L 1859.6,997.8 L 1869.1,997.8 L 1869.1,1027.2 L 1906.4,1027.2 L 1906.4,997.8 L 1915.9,997.8 L 1915.9,1069.4 L 1906.4,1069.4 L 1906.4,1035.6 L 1869.1,1035.6 L 1869.1,1069.4 L 1859.6,1069.4 z" style="fill:#c83737" />
</g>
<g>
<path d="M 1859.3,1152.8 L 1859.3,1081.2 L 1869.1,1081.2 L 1906.8,1137.5 L 1906.8,1081.2 L 1915.9,1081.2 L 1915.9,1152.8 L 1906.1,1152.8 L 1868.4,1096.5 L 1868.4,1152.8 L 1859.3,1152.8 z" style="fill:#c83737" />
</g>
<polygon points="1936.6,1145.9 1939.6,1140.4 2012.1,1182.4 2012.1,1189.4 1936.6,1145.9" />
<polygon points="1765.6,1187.4 1762.6,1185.9 1762.6,1182.4 1834.6,1140.9 1837.6,1145.9 1765.6,1187.4" style="fill:#c83737" />
<polygon points="1638.1,1117.4 1638.1,1110.4 1762.6,1182.4 1762.6,1185.9 1759.6,1187.4 1638.1,1117.4" style="fill:#c83737" />
<g>
<path d="M 1485.3,913.9 L 1494.2,913.1 C 1494.6,916.7 1495.6,919.6 1497.1,921.9 C 1498.6,924.2 1501,926.1 1504.3,927.5 C 1507.5,928.9 1511.2,929.6 1515.2,929.6 C 1518.8,929.6 1522,929.1 1524.7,928 C 1527.5,926.9 1529.5,925.5 1530.9,923.6 C 1532.2,921.7 1532.9,919.7 1532.9,917.5 C 1532.9,915.3 1532.2,913.3 1530.9,911.6 C 1529.6,909.9 1527.4,908.5 1524.5,907.4 C 1522.6,906.7 1518.4,905.5 1511.8,903.9 C 1505.2,902.3 1500.7,900.8 1498,899.4 C 1494.6,897.6 1492,895.4 1490.4,892.7 C 1488.7,890 1487.9,887.1 1487.9,883.8 C 1487.9,880.2 1488.9,876.8 1491,873.6 C 1493.1,870.4 1496,868.1 1500,866.4 C 1503.9,864.8 1508.3,864 1513.1,864 C 1518.4,864 1523.1,864.9 1527.1,866.6 C 1531.1,868.3 1534.3,870.8 1536.4,874.1 C 1538.5,877.4 1539.7,881.2 1539.9,885.4 L 1530.8,886 C 1530.3,881.5 1528.7,878.2 1525.9,875.9 C 1523.1,873.6 1519,872.5 1513.5,872.5 C 1507.8,872.5 1503.6,873.5 1501,875.6 C 1498.4,877.7 1497.1,880.2 1497.1,883.2 C 1497.1,885.8 1498,887.9 1499.9,889.5 C 1501.7,891.2 1506.5,892.9 1514.1,894.6 C 1521.8,896.3 1527,897.9 1529.9,899.2 C 1534.1,901.1 1537.1,903.6 1539.1,906.5 C 1541.1,909.4 1542.1,912.8 1542.1,916.7 C 1542.1,920.5 1541,924.1 1538.8,927.5 C 1536.6,930.9 1533.5,933.5 1529.4,935.4 C 1525.3,937.3 1520.8,938.2 1515.7,938.2 C 1509.2,938.2 1503.8,937.3 1499.5,935.4 C 1495.1,933.5 1491.7,930.7 1489.2,926.9 C 1486.7,923.1 1485.4,918.7 1485.3,913.9 z" style="fill:#800080" />
</g>
<g>
<path d="M 1485.3,769.9 L 1494.2,769.1 C 1494.6,772.7 1495.6,775.6 1497.1,777.9 C 1498.6,780.2 1501,782.1 1504.3,783.5 C 1507.5,784.9 1511.2,785.6 1515.2,785.6 C 1518.8,785.6 1522,785.1 1524.7,784 C 1527.5,782.9 1529.5,781.5 1530.9,779.6 C 1532.2,777.7 1532.9,775.7 1532.9,773.5 C 1532.9,771.3 1532.2,769.3 1530.9,767.6 C 1529.6,765.9 1527.4,764.5 1524.5,763.4 C 1522.6,762.7 1518.4,761.5 1511.8,759.9 C 1505.2,758.3 1500.7,756.8 1498,755.4 C 1494.6,753.6 1492,751.4 1490.4,748.7 C 1488.7,746 1487.9,743.1 1487.9,739.8 C 1487.9,736.2 1488.9,732.8 1491,729.6 C 1493.1,726.4 1496,724.1 1500,722.4 C 1503.9,720.8 1508.3,720 1513.1,720 C 1518.4,720 1523.1,720.9 1527.1,722.6 C 1531.1,724.3 1534.3,726.8 1536.4,730.1 C 1538.5,733.4 1539.7,737.2 1539.9,741.4 L 1530.8,742 C 1530.3,737.5 1528.7,734.2 1525.9,731.9 C 1523.1,729.6 1519,728.5 1513.5,728.5 C 1507.8,728.5 1503.6,729.5 1501,731.6 C 1498.4,733.7 1497.1,736.2 1497.1,739.2 C 1497.1,741.8 1498,743.9 1499.9,745.5 C 1501.7,747.2 1506.5,748.9 1514.1,750.6 C 1521.8,752.3 1527,753.9 1529.9,755.2 C 1534.1,757.1 1537.1,759.6 1539.1,762.5 C 1541.1,765.4 1542.1,768.8 1542.1,772.7 C 1542.1,776.5 1541,780.1 1538.8,783.5 C 1536.6,786.9 1533.5,789.5 1529.4,791.4 C 1525.3,793.3 1520.8,794.2 1515.7,794.2 C 1509.2,794.2 1503.8,793.3 1499.5,791.4 C 1495.1,789.5 1491.7,786.7 1489.2,782.9 C 1486.7,779.1 1485.4,774.7 1485.3,769.9 z" style="fill:#800080" />
</g>
<rect width="6" height="39" x="1510.1" y="809.40002" style="fill:#800080" />
<polygon points="1635.1,680.4 1641.1,683.4 1556.1,732.9 1553.1,727.4 1635.1,680.4" style="fill:#800080" />
<polygon points="1635.1,539.4 1638.1,537.9 1641.1,539.4 1641.1,683.4 1635.1,680.4 1635.1,539.4" style="fill:#800080" />
<polygon points="1762.6,462.4 1762.6,469.4 1641.1,539.4 1638.1,537.9 1638.1,534.4 1762.6,462.4" style="fill:#800080" />
<g>
<path d="M 1859.3,576.9 L 1859.3,505.3 L 1869.1,505.3 L 1906.8,561.6 L 1906.8,505.3 L 1915.9,505.3 L 1915.9,576.9 L 1906.1,576.9 L 1868.4,520.6 L 1868.4,576.9 L 1859.3,576.9 L 1859.3,576.9 z" style="fill:#0000ff" />
</g>
<g>
<path d="M 1859.6,660.3 L 1859.6,588.7 L 1869.1,588.7 L 1869.1,618 L 1906.4,618 L 1906.4,588.6 L 1915.9,588.6 L 1915.9,660.2 L 1906.4,660.2 L 1906.4,626.4 L 1869.1,626.4 L 1869.1,660.2 L 1859.6,660.2 L 1859.6,660.3 z" style="fill:#0000ff" />
</g>
<polygon points="1840.1,507.4 1837.1,512.4 1762.6,469.4 1762.6,462.4 1840.1,507.4" />
<polygon points="2009.1,464.4 2012.1,465.9 2012.1,469.4 1937.1,512.4 1934.1,507.4 2009.1,464.4" style="fill:#0000ff" />
<polygon points="2139.6,536.4 2133.6,539.4 2012.1,469.4 2012.1,465.9 2015.1,464.4 2139.6,536.4" style="fill:#0000ff" />
<g>
<path d="M 2035.1,720.9 L 2035.1,649.3 L 2044.6,649.3 L 2044.6,678.7 L 2081.9,678.7 L 2081.9,649.3 L 2091.4,649.3 L 2091.4,720.9 L 2081.9,720.9 L 2081.9,687.1 L 2044.6,687.1 L 2044.6,720.9 L 2035.1,720.9 z" style="fill:#d40055" />
<path d="M 2107,720.9 L 2107,649.3 L 2116.8,649.3 L 2154.5,705.6 L 2154.5,649.3 L 2163.6,649.3 L 2163.6,720.9 L 2153.8,720.9 L 2116.1,664.6 L 2116.1,720.9 L 2107,720.9 z" style="fill:#d40055" />
</g>
<polygon points="2139.6,633.9 2133.6,633.9 2133.6,539.4 2139.6,536.4 2139.6,633.9" />
<polygon points="2261.6,750.4 2261.6,753.9 2258.6,755.4 2184.1,712.9 2187.1,707.4 2261.6,750.4" style="fill:#d40055" />
<polygon points="2264.6,899.4 2258.6,896.4 2258.6,755.4 2261.6,753.9 2264.6,755.4 2264.6,899.4" style="fill:#d40055" />
<g>
<path d="M 1484.7,1224.9 L 1484.7,1153.3 L 1494.5,1153.3 L 1532.2,1209.6 L 1532.2,1153.3 L 1541.3,1153.3 L 1541.3,1224.9 L 1531.5,1224.9 L 1493.8,1168.6 L 1493.8,1224.9 L 1484.7,1224.9 z" style="fill:#800080" />
</g>
<g>
<path d="M 1485.1,1308.3 L 1485.1,1236.7 L 1494.6,1236.7 L 1494.6,1266.1 L 1531.9,1266.1 L 1531.9,1236.7 L 1541.4,1236.7 L 1541.4,1308.3 L 1531.9,1308.3 L 1531.9,1274.5 L 1494.6,1274.5 L 1494.6,1308.3 L 1485.1,1308.3 z" style="fill:#800080" />
</g>
<polygon points="1563.1,1160.4 1560.1,1155.4 1638.1,1110.4 1638.1,1117.4 1563.1,1160.4" />
<polygon points="1388.6,1117.4 1388.6,1113.9 1391.6,1112.4 1466.1,1155.4 1463.1,1160.4 1388.6,1117.4" style="fill:#800080" />
<polygon points="1385.6,968.4 1391.6,971.4 1391.6,1112.4 1388.6,1113.9 1385.6,1112.4 1385.6,968.4" style="fill:#800080" />
<polygon points="1467.1,920.9 1470.1,925.9 1391.6,971.4 1385.6,968.4 1467.1,920.9" style="fill:#800080" />
<polygon points="1264.1,1188.9 1264.1,1182.4 1385.6,1112.4 1388.6,1113.9 1388.6,1117.4 1264.1,1188.9" style="fill:#800080" />
<g>
<path d="M 1231,1333 C 1231,1321.1 1234.2,1311.8 1240.6,1305.1 C 1247,1298.4 1255.2,1295 1265.3,1295 C 1271.9,1295 1277.8,1296.6 1283.1,1299.7 C 1288.4,1302.9 1292.4,1307.3 1295.2,1312.9 C 1298,1318.6 1299.4,1325 1299.4,1332.1 C 1299.4,1339.4 1297.9,1345.9 1295,1351.6 C 1292.1,1357.3 1287.9,1361.7 1282.6,1364.6 C 1277.2,1367.5 1271.4,1369 1265.2,1369 C 1258.5,1369 1252.5,1367.4 1247.2,1364.1 C 1241.9,1360.8 1237.9,1356.4 1235.2,1350.8 C 1232.4,1345.3 1231,1339.3 1231,1333 z M 1240.7,1333.1 C 1240.7,1341.7 1243,1348.5 1247.7,1353.5 C 1252.3,1358.5 1258.1,1361 1265.1,1361 C 1272.2,1361 1278.1,1358.5 1282.7,1353.5 C 1287.3,1348.5 1289.6,1341.4 1289.6,1332.1 C 1289.6,1326.3 1288.6,1321.2 1286.6,1316.8 C 1284.6,1312.5 1281.8,1309.1 1278,1306.7 C 1274.2,1304.3 1270,1303.1 1265.2,1303.1 C 1258.5,1303.1 1252.7,1305.4 1247.9,1310 C 1243.1,1314.6 1240.7,1322.4 1240.7,1333.1 z" style="fill:#800080" />
</g>
<rect width="6" height="101" x="1274.1" y="1178.4" style="fill:#800080" />
<rect width="6" height="101" x="1248.1" y="1178.4" style="fill:#800080" />
<g>
<path d="M 1111.8,1152.9 L 1111.8,1081.3 L 1121.6,1081.3 L 1159.3,1137.6 L 1159.3,1081.3 L 1168.4,1081.3 L 1168.4,1152.9 L 1158.6,1152.9 L 1120.9,1096.6 L 1120.9,1152.9 L 1111.8,1152.9 z" style="fill:#000080" />
</g>
<polygon points="1189.1,1145.9 1192.1,1140.4 1264.1,1182.4 1264.1,1188.9 1189.1,1145.9" />
<g>
<path d="M 1604.5,974.5 C 1604.5,962.6 1607.7,953.3 1614.1,946.6 C 1620.5,939.9 1628.7,936.5 1638.8,936.5 C 1645.4,936.5 1651.3,938.1 1656.6,941.2 C 1661.9,944.4 1665.9,948.8 1668.7,954.4 C 1671.5,960.1 1672.9,966.5 1672.9,973.6 C 1672.9,980.9 1671.4,987.4 1668.5,993.1 C 1665.6,998.8 1661.4,1003.2 1656.1,1006.1 C 1650.7,1009 1644.9,1010.5 1638.7,1010.5 C 1632,1010.5 1626,1008.9 1620.7,1005.6 C 1615.4,1002.3 1611.4,997.9 1608.7,992.3 C 1605.9,986.8 1604.5,980.8 1604.5,974.5 z M 1614.2,974.6 C 1614.2,983.2 1616.5,990 1621.2,995 C 1625.8,1000 1631.6,1002.5 1638.6,1002.5 C 1645.7,1002.5 1651.6,1000 1656.2,995 C 1660.8,990 1663.1,982.9 1663.1,973.6 C 1663.1,967.8 1662.1,962.7 1660.1,958.3 C 1658.1,954 1655.3,950.6 1651.5,948.2 C 1647.7,945.8 1643.5,944.6 1638.7,944.6 C 1632,944.6 1626.2,946.9 1621.4,951.5 C 1616.6,956.1 1614.2,963.9 1614.2,974.6 z" style="fill:#c83737" />
</g>
<rect width="6" height="95.5" x="1622.1" y="1025.9" style="fill:#c83737" />
<rect width="6" height="95.5" x="1648.1" y="1025.9" style="fill:#c83737" />
<polygon points="1765.6,1330.4 1759.6,1327.9 1759.6,1187.4 1762.6,1185.9 1765.6,1187.4 1765.6,1330.4" style="fill:#c83737" />
<g>
<path d="M 1370.5,504.9 L 1370.5,433.3 L 1380,433.3 L 1380,462.7 L 1417.3,462.7 L 1417.3,433.3 L 1426.8,433.3 L 1426.8,504.9 L 1417.3,504.9 L 1417.3,471.1 L 1380,471.1 L 1380,504.9 L 1370.5,504.9 z" style="fill:#800080" />
</g>
<g>
<path d="M 1472.4,517.2 L 1472.4,523.6 L 1436.9,523.6 C 1436.8,522 1437.1,520.5 1437.7,519 C 1438.6,516.6 1440,514.2 1442,511.9 C 1444,509.6 1446.9,506.9 1450.6,503.8 C 1456.4,499 1460.4,495.2 1462.4,492.4 C 1464.4,489.6 1465.5,487 1465.5,484.5 C 1465.5,481.9 1464.6,479.7 1462.7,477.9 C 1460.8,476.1 1458.4,475.2 1455.4,475.2 C 1452.2,475.2 1449.7,476.2 1447.8,478.1 C 1445.9,480 1444.9,482.6 1444.9,486 L 1438.1,485.2 C 1438.6,480.2 1440.3,476.3 1443.3,473.7 C 1446.3,471.1 1450.4,469.7 1455.5,469.7 C 1460.6,469.7 1464.7,471.1 1467.7,474 C 1470.7,476.9 1472.2,480.4 1472.2,484.6 C 1472.2,486.7 1471.8,488.9 1470.9,490.9 C 1470,492.9 1468.6,495.2 1466.5,497.4 C 1464.4,499.6 1461.1,502.8 1456.4,506.8 C 1452.4,510.1 1449.9,512.4 1448.8,513.5 C 1447.7,514.7 1446.7,515.9 1446,517.1 L 1472.4,517.1 L 1472.4,517.2 z" style="fill:#800080" />
</g>
<g>
<path d="M 1484,504.9 L 1484,433.3 L 1493.8,433.3 L 1531.5,489.6 L 1531.5,433.3 L 1540.6,433.3 L 1540.6,504.9 L 1530.8,504.9 L 1493.1,448.6 L 1493.1,504.9 L 1484,504.9 z" style="fill:#800080" />
</g>
<polygon points="1561.1,496.9 1564.1,491.9 1638.1,534.4 1638.1,537.9 1635.1,539.4 1561.1,496.9" style="fill:#800080" />
<g>
<path d="M 1729.5,326.5 C 1729.5,314.6 1732.7,305.3 1739.1,298.6 C 1745.5,291.9 1753.7,288.5 1763.8,288.5 C 1770.4,288.5 1776.3,290.1 1781.6,293.2 C 1786.9,296.4 1790.9,300.8 1793.7,306.4 C 1796.5,312.1 1797.9,318.5 1797.9,325.6 C 1797.9,332.9 1796.4,339.4 1793.5,345.1 C 1790.6,350.8 1786.4,355.2 1781.1,358.1 C 1775.7,361 1769.9,362.5 1763.7,362.5 C 1757,362.5 1751,360.9 1745.7,357.6 C 1740.4,354.3 1736.4,349.9 1733.7,344.3 C 1730.9,338.8 1729.5,332.8 1729.5,326.5 z M 1739.2,326.6 C 1739.2,335.2 1741.5,342 1746.2,347 C 1750.8,352 1756.6,354.5 1763.6,354.5 C 1770.7,354.5 1776.6,352 1781.2,347 C 1785.8,342 1788.1,334.9 1788.1,325.6 C 1788.1,319.8 1787.1,314.7 1785.1,310.3 C 1783.1,306 1780.3,302.6 1776.5,300.2 C 1772.7,297.8 1768.5,296.6 1763.7,296.6 C 1757,296.6 1751.2,298.9 1746.4,303.5 C 1741.6,308.1 1739.2,315.9 1739.2,326.6 z" style="fill:#800080" />
</g>
<rect width="6" height="95.5" x="1746.6" y="377.89999" style="fill:#800080" />
<rect width="6" height="95.5" x="1772.6" y="377.89999" style="fill:#800080" />
<polygon points="2009.1,320.4 2015.1,323.4 2015.1,464.4 2012.1,465.9 2009.1,464.4 2009.1,320.4" style="fill:#0000ff" />
<polygon points="2133.6,248.4 2136.6,249.9 2136.6,253.4 2015.1,323.4 2009.1,320.4 2133.6,248.4" style="fill:#0000ff" />
<polygon points="2261.6,318.4 2261.6,325.4 2136.6,253.4 2136.6,249.9 2139.6,248.4 2261.6,318.4" style="fill:#0000ff" />
<polygon points="2263.1,289.4 2260.1,294.4 2161.1,237.4 2164.1,232.4 2263.1,289.4" style="fill:#0000ff" />
<polygon points="2383.1,248.4 2389.1,251.4 2261.6,325.4 2261.6,318.4 2383.1,248.4" style="fill:#0000ff" />
<polygon points="2383.1,107.4 2386.1,105.9 2389.1,107.4 2389.1,251.4 2383.1,248.4 2383.1,107.4" style="fill:#0000ff" />
<rect width="6" height="114" x="2357.1001" y="120.9" style="fill:#0000ff" />
<polygon points="2261.6,37.4 2261.6,30.4 2386.1,102.4 2386.1,105.9 2383.1,107.4 2261.6,37.4" style="fill:#0000ff" />
<polygon points="2139.6,107.4 2133.6,104.4 2261.6,30.4 2261.6,37.4 2139.6,107.4" style="fill:#0000ff" />
<polygon points="2164.1,123.4 2161.1,118.4 2260.1,61.4 2263.1,66.4 2164.1,123.4" style="fill:#0000ff" />
<polygon points="2139.6,248.4 2136.6,249.9 2133.6,248.4 2133.6,104.4 2139.6,107.4 2139.6,248.4" style="fill:#0000ff" />
<g>
<path d="M 2477,38 C 2477,26.1 2480.2,16.8 2486.6,10.1 C 2493,3.4 2501.2,1.7763568e-015 2511.3,1.7763568e-015 C 2517.9,1.7763568e-015 2523.8,1.6 2529.1,4.7 C 2534.4,7.9 2538.4,12.3 2541.2,17.9 C 2544,23.6 2545.4,30 2545.4,37.1 C 2545.4,44.4 2543.9,50.9 2541,56.6 C 2538.1,62.3 2533.9,66.7 2528.6,69.6 C 2523.2,72.5 2517.4,74 2511.2,74 C 2504.5,74 2498.5,72.4 2493.2,69.1 C 2487.9,65.8 2483.9,61.4 2481.2,55.8 C 2478.4,50.3 2477,44.3 2477,38 z M 2486.7,38.1 C 2486.7,46.7 2489,53.5 2493.7,58.5 C 2498.3,63.5 2504.1,66 2511.1,66 C 2518.2,66 2524.1,63.5 2528.7,58.5 C 2533.3,53.5 2535.6,46.4 2535.6,37.1 C 2535.6,31.3 2534.6,26.2 2532.6,21.8 C 2530.6,17.5 2527.8,14.1 2524,11.7 C 2520.2,9.3 2516,8.1 2511.2,8.1 C 2504.5,8.1 2498.7,10.4 2493.9,15 C 2489.1,19.6 2486.7,27.4 2486.7,38.1 z" style="fill:#0000ff" />
<path d="M 2557.9,72.9 L 2557.9,1.3 L 2567.4,1.3 L 2567.4,30.7 L 2604.7,30.7 L 2604.7,1.3 L 2614.2,1.3 L 2614.2,72.9 L 2604.7,72.9 L 2604.7,39.1 L 2567.4,39.1 L 2567.4,72.9 L 2557.9,72.9 z" style="fill:#0000ff" />
</g>
<polygon points="2463.1,57.9 2466.1,62.9 2389.1,107.4 2386.1,105.9 2386.1,102.4 2463.1,57.9" style="fill:#0000ff" />
<g>
<path d="M 2227.5,470 C 2227.5,458.1 2230.7,448.8 2237.1,442.1 C 2243.5,435.4 2251.7,432 2261.8,432 C 2268.4,432 2274.3,433.6 2279.6,436.7 C 2284.9,439.9 2288.9,444.3 2291.7,449.9 C 2294.5,455.6 2295.9,462 2295.9,469.1 C 2295.9,476.4 2294.4,482.9 2291.5,488.6 C 2288.6,494.3 2284.4,498.7 2279.1,501.6 C 2273.7,504.5 2267.9,506 2261.7,506 C 2255,506 2249,504.4 2243.7,501.1 C 2238.4,497.8 2234.4,493.4 2231.7,487.8 C 2228.9,482.3 2227.5,476.3 2227.5,470 z M 2237.2,470.1 C 2237.2,478.7 2239.5,485.5 2244.2,490.5 C 2248.8,495.5 2254.6,498 2261.6,498 C 2268.7,498 2274.6,495.5 2279.2,490.5 C 2283.8,485.5 2286.1,478.4 2286.1,469.1 C 2286.1,463.3 2285.1,458.2 2283.1,453.8 C 2281.1,449.5 2278.3,446.1 2274.5,443.7 C 2270.7,441.3 2266.5,440.1 2261.7,440.1 C 2255,440.1 2249.2,442.4 2244.4,447 C 2239.6,451.6 2237.2,459.4 2237.2,470.1 z" style="fill:#0000ff" />
</g>
<rect width="5.8000002" height="98.099998" x="2163.8" y="456.79999" transform="matrix(0.5128,0.8585,-0.8585,0.5128,1489.8285,-1613.6348)" style="fill:#0000ff" />
<polygon points="2220.1,500.9 2223.1,506.4 2138.1,555.4 2135.1,550.4 2220.1,500.9" style="fill:#0000ff" />
<polygon points="2382.6,680.4 2385.6,681.9 2385.6,685.4 2264.6,755.4 2261.6,753.9 2261.6,750.4 2382.6,680.4" style="fill:#d40055" />
<polygon points="2511.6,751.4 2510.1,753.9 2508.6,756.4 2385.6,685.4 2385.6,681.9 2388.6,680.4 2511.6,751.4" style="fill:#d40055" />
<polygon points="2382.6,536.9 2388.6,540.4 2388.6,680.4 2385.6,681.9 2382.6,680.4 2382.6,536.9" style="fill:#d40055" />
<polygon points="2509.1,463.9 2510.6,466.4 2512.1,469.4 2388.6,540.4 2382.6,536.9 2509.1,463.9" style="fill:#d40055" />
<g>
<path d="M 2352.5,973.5 C 2352.5,961.6 2355.7,952.3 2362.1,945.6 C 2368.5,938.9 2376.7,935.5 2386.8,935.5 C 2393.4,935.5 2399.3,937.1 2404.6,940.2 C 2409.9,943.4 2413.9,947.8 2416.7,953.4 C 2419.5,959.1 2420.9,965.5 2420.9,972.6 C 2420.9,979.9 2419.4,986.4 2416.5,992.1 C 2413.6,997.8 2409.4,1002.2 2404.1,1005.1 C 2398.7,1008 2392.9,1009.5 2386.7,1009.5 C 2380,1009.5 2374,1007.9 2368.7,1004.6 C 2363.4,1001.3 2359.4,996.9 2356.7,991.3 C 2353.9,985.8 2352.5,979.8 2352.5,973.5 z M 2362.2,973.7 C 2362.2,982.3 2364.5,989.1 2369.2,994.1 C 2373.8,999.1 2379.6,1001.6 2386.6,1001.6 C 2393.7,1001.6 2399.6,999.1 2404.2,994.1 C 2408.8,989.1 2411.1,982 2411.1,972.7 C 2411.1,966.9 2410.1,961.8 2408.1,957.4 C 2406.1,953.1 2403.3,949.7 2399.5,947.3 C 2395.7,944.9 2391.5,943.7 2386.7,943.7 C 2380,943.7 2374.2,946 2369.4,950.6 C 2364.6,955.2 2362.2,962.9 2362.2,973.7 z" style="fill:#d40055" />
</g>
<rect width="5.8000002" height="101" x="2302.3999" y="857.59998" transform="matrix(-0.513,0.8584,-0.8584,-0.513,4267.5029,-604.9391)" style="fill:#d40055" />
<rect width="5.8000002" height="101" x="2289.5" y="880.09998" transform="matrix(-0.5155,0.8569,-0.8569,-0.5155,4271.5908,-553.9814)" style="fill:#d40055" />
<polygon points="2264.6,1184.4 2258.6,1187.4 2136.6,1117.4 2136.6,1113.9 2139.6,1112.4 2264.6,1184.4" style="fill:#165829" />
<polygon points="2264.6,1328.4 2258.6,1331.4 2258.6,1187.4 2264.6,1184.4 2264.6,1328.4" style="fill:#165829" />
<polygon points="2389.1,1400.4 2383.1,1403.4 2258.6,1331.4 2264.6,1328.4 2389.1,1400.4" style="fill:#165829" />
<g>
<path d="M 2477,1334 C 2477,1322.1 2480.2,1312.8 2486.6,1306.1 C 2493,1299.4 2501.2,1296 2511.3,1296 C 2517.9,1296 2523.8,1297.6 2529.1,1300.7 C 2534.4,1303.9 2538.4,1308.3 2541.2,1313.9 C 2544,1319.6 2545.4,1326 2545.4,1333.1 C 2545.4,1340.4 2543.9,1346.9 2541,1352.6 C 2538.1,1358.3 2533.9,1362.7 2528.6,1365.6 C 2523.2,1368.5 2517.4,1370 2511.2,1370 C 2504.5,1370 2498.5,1368.4 2493.2,1365.1 C 2487.9,1361.8 2483.9,1357.4 2481.2,1351.8 C 2478.4,1346.3 2477,1340.3 2477,1334 z M 2486.7,1334.1 C 2486.7,1342.7 2489,1349.5 2493.7,1354.5 C 2498.3,1359.5 2504.1,1362 2511.1,1362 C 2518.2,1362 2524.1,1359.5 2528.7,1354.5 C 2533.3,1349.5 2535.6,1342.4 2535.6,1333.1 C 2535.6,1327.3 2534.6,1322.2 2532.6,1317.8 C 2530.6,1313.5 2527.8,1310.1 2524,1307.7 C 2520.2,1305.3 2516,1304.1 2511.2,1304.1 C 2504.5,1304.1 2498.7,1306.4 2493.9,1311 C 2489.1,1315.6 2486.7,1323.4 2486.7,1334.1 z" style="fill:#165829" />
</g>
<rect width="5.8000002" height="98.099998" x="2412.8" y="1320.8" transform="matrix(0.513,0.8584,-0.8584,0.513,2352.2563,-1406.4807)" style="fill:#165829" />
<polygon points="2469.6,1364.9 2472.6,1370.4 2387.6,1419.4 2384.6,1414.4 2469.6,1364.9" style="fill:#165829" />
<g>
<path d="M 2357.8,1584.4 L 2357.8,1512.8 L 2367.6,1512.8 L 2405.3,1569.1 L 2405.3,1512.8 L 2414.4,1512.8 L 2414.4,1584.4 L 2404.6,1584.4 L 2366.9,1528.1 L 2366.9,1584.4 L 2357.8,1584.4 z" style="fill:#165829" />
<path d="M 2430.3,1584.4 L 2430.3,1512.8 L 2439.8,1512.8 L 2439.8,1542.2 L 2477.1,1542.2 L 2477.1,1512.8 L 2486.6,1512.8 L 2486.6,1584.4 L 2477.1,1584.4 L 2477.1,1550.6 L 2439.8,1550.6 L 2439.8,1584.4 L 2430.3,1584.4 z" style="fill:#165829" />
</g>
<g>
<path d="M 2532.3,1596.8 L 2532.3,1603.2 L 2496.8,1603.2 C 2496.7,1601.6 2497,1600.1 2497.6,1598.6 C 2498.5,1596.2 2499.9,1593.8 2501.9,1591.5 C 2503.9,1589.2 2506.8,1586.5 2510.5,1583.4 C 2516.3,1578.6 2520.3,1574.8 2522.3,1572 C 2524.3,1569.2 2525.4,1566.6 2525.4,1564.1 C 2525.4,1561.5 2524.5,1559.3 2522.6,1557.5 C 2520.7,1555.7 2518.3,1554.8 2515.3,1554.8 C 2512.1,1554.8 2509.6,1555.8 2507.7,1557.7 C 2505.8,1559.6 2504.8,1562.2 2504.8,1565.6 L 2498,1564.8 C 2498.5,1559.8 2500.2,1555.9 2503.2,1553.3 C 2506.2,1550.7 2510.3,1549.3 2515.4,1549.3 C 2520.5,1549.3 2524.6,1550.7 2527.6,1553.6 C 2530.6,1556.5 2532.1,1560 2532.1,1564.2 C 2532.1,1566.3 2531.7,1568.5 2530.8,1570.5 C 2529.9,1572.5 2528.5,1574.8 2526.4,1577 C 2524.3,1579.2 2521,1582.4 2516.3,1586.4 C 2512.3,1589.7 2509.8,1592 2508.7,1593.1 C 2507.6,1594.3 2506.6,1595.5 2505.9,1596.7 L 2532.3,1596.7 L 2532.3,1596.8 z" style="fill:#165829" />
</g>
<polygon points="2389.1,1497.4 2383.1,1497.4 2383.1,1403.4 2389.1,1400.4 2389.1,1497.4" style="fill:#165829" />
<g>
<path d="M 1978.5,1333.5 C 1978.5,1321.6 1981.7,1312.3 1988.1,1305.6 C 1994.5,1298.9 2002.7,1295.5 2012.8,1295.5 C 2019.4,1295.5 2025.3,1297.1 2030.6,1300.2 C 2035.9,1303.4 2039.9,1307.8 2042.7,1313.4 C 2045.5,1319.1 2046.9,1325.5 2046.9,1332.6 C 2046.9,1339.9 2045.4,1346.4 2042.5,1352.1 C 2039.6,1357.8 2035.4,1362.2 2030.1,1365.1 C 2024.7,1368 2018.9,1369.5 2012.7,1369.5 C 2006,1369.5 2000,1367.9 1994.7,1364.6 C 1989.4,1361.3 1985.4,1356.9 1982.7,1351.3 C 1979.9,1345.8 1978.5,1339.8 1978.5,1333.5 z M 1988.2,1333.7 C 1988.2,1342.3 1990.5,1349.1 1995.2,1354.1 C 1999.8,1359.1 2005.6,1361.6 2012.6,1361.6 C 2019.7,1361.6 2025.6,1359.1 2030.2,1354.1 C 2034.8,1349.1 2037.1,1342 2037.1,1332.7 C 2037.1,1326.9 2036.1,1321.8 2034.1,1317.4 C 2032.1,1313.1 2029.3,1309.7 2025.5,1307.3 C 2021.7,1304.9 2017.5,1303.7 2012.7,1303.7 C 2006,1303.7 2000.2,1306 1995.4,1310.6 C 1990.6,1315.2 1988.2,1322.9 1988.2,1333.7 z" style="fill:#165829" />
</g>
<rect width="6" height="101.5" x="2022.1" y="1178.4" style="fill:#165829" />
<rect width="6" height="101.5" x="1996.1" y="1178.4" style="fill:#165829" />
<polygon points="1018.1,1187.4 1015.1,1185.9 1015.6,1182.4 1087.1,1140.9 1090.1,1145.9 1018.1,1187.4" style="fill:#000080" />
<polygon points="1107.6,975.9 1112.6,970.4 1132.1,1061.9 1126.1,1062.9 1107.6,975.9" style="fill:#000080" />
<polygon points="968.6,961.4 965.1,954.9 1112.6,970.4 1107.6,975.9 968.6,961.4" style="fill:#000080" />
<polygon points="912.1,1088.9 904.6,1090.4 965.1,954.9 968.6,961.4 912.1,1088.9" style="fill:#000080" />
<polygon points="1015.6,1182.4 1015.1,1185.9 1012.1,1187.4 904.6,1090.4 912.1,1088.9 1015.6,1182.4" style="fill:#000080" />
<polygon points="1018.1,1331.4 1012.1,1328.4 1012.1,1187.4 1015.1,1185.9 1018.1,1187.4 1018.1,1331.4" style="fill:#000080" />
<g>
<path d="M 862.2,1440.9 L 862.2,1369.3 L 872,1369.3 L 909.7,1425.6 L 909.7,1369.3 L 918.8,1369.3 L 918.8,1440.9 L 909,1440.9 L 871.3,1384.6 L 871.3,1440.9 L 862.2,1440.9 z" style="fill:#800000" />
</g>
<g>
<path d="M 862.6,1524.3 L 862.6,1452.7 L 872.1,1452.7 L 872.1,1482.1 L 909.4,1482.1 L 909.4,1452.7 L 918.9,1452.7 L 918.9,1524.3 L 909.4,1524.3 L 909.4,1490.5 L 872.1,1490.5 L 872.1,1524.3 L 862.6,1524.3 z" style="fill:#800000" />
</g>
<polygon points="940.6,1376.4 937.6,1370.9 1012.1,1328.4 1018.1,1331.4 940.6,1376.4" />
<polygon points="766.1,1333.4 766.1,1329.9 769.1,1328.4 843.6,1371.4 840.6,1376.4 766.1,1333.4" style="fill:#800000" />
<g>
<path d="M 1106,1405.5 C 1106,1393.6 1109.2,1384.3 1115.6,1377.6 C 1122,1370.9 1130.2,1367.5 1140.3,1367.5 C 1146.9,1367.5 1152.8,1369.1 1158.1,1372.2 C 1163.4,1375.4 1167.4,1379.8 1170.2,1385.4 C 1173,1391.1 1174.4,1397.5 1174.4,1404.6 C 1174.4,1411.9 1172.9,1418.4 1170,1424.1 C 1167.1,1429.8 1162.9,1434.2 1157.6,1437.1 C 1152.2,1440 1146.4,1441.5 1140.2,1441.5 C 1133.5,1441.5 1127.5,1439.9 1122.2,1436.6 C 1116.9,1433.3 1112.9,1428.9 1110.2,1423.3 C 1107.4,1417.8 1106,1411.8 1106,1405.5 z M 1115.7,1405.6 C 1115.7,1414.2 1118,1421 1122.7,1426 C 1127.3,1431 1133.1,1433.5 1140.1,1433.5 C 1147.2,1433.5 1153.1,1431 1157.7,1426 C 1162.3,1421 1164.6,1413.9 1164.6,1404.6 C 1164.6,1398.8 1163.6,1393.7 1161.6,1389.3 C 1159.6,1385 1156.8,1381.6 1153,1379.2 C 1149.2,1376.8 1145,1375.6 1140.2,1375.6 C 1133.5,1375.6 1127.7,1377.9 1122.9,1382.5 C 1118.1,1387.1 1115.7,1394.9 1115.7,1405.6 z" style="fill:#000080" />
</g>
<rect width="5.8000002" height="101" x="1056" y="1289.6" transform="matrix(-0.5149,0.8573,-0.8573,-0.5149,2753.0342,1122.3376)" style="fill:#000080" />
<rect width="5.8000002" height="101" x="1043.5" y="1312.1" transform="matrix(-0.5149,0.8573,-0.8573,-0.5149,2753.3877,1167.1394)" style="fill:#000080" />
<polygon points="641.1,1405.4 641.1,1398.4 763.1,1328.4 766.1,1329.9 766.1,1333.4 641.1,1405.4" style="fill:#800000" />
<g>
<path d="M 488.6,1285.4 L 488.6,1213.8 L 498.1,1213.8 L 498.1,1243.2 L 535.4,1243.2 L 535.4,1213.8 L 544.9,1213.8 L 544.9,1285.4 L 535.4,1285.4 L 535.4,1251.6 L 498.1,1251.6 L 498.1,1285.4 L 488.6,1285.4 z" style="fill:#008000" />
</g>
<g>
<path d="M 488.3,1368.8 L 488.3,1297.2 L 498.1,1297.2 L 535.8,1353.5 L 535.8,1297.2 L 544.9,1297.2 L 544.9,1368.8 L 535.1,1368.8 L 497.4,1312.5 L 497.4,1368.8 L 488.3,1368.8 z" style="fill:#008000" />
</g>
<polygon points="566.1,1362.4 569.1,1356.9 641.1,1398.4 641.1,1405.4 566.1,1362.4" />
<polygon points="391.6,1405.4 391.6,1398.4 464.1,1356.4 467.1,1361.9 391.6,1405.4" style="fill:#008000" />
<polygon points="763.1,1186.9 769.1,1184.4 769.1,1328.4 766.1,1329.9 763.1,1328.4 763.1,1186.9" style="fill:#800000" />
<polygon points="663.1,1087.4 664.1,1083.9 667.6,1083.4 769.1,1184.4 763.1,1186.9 663.1,1087.4" style="fill:#800000" />
<g>
<path d="M 608,1549.5 C 608,1537.6 611.2,1528.3 617.6,1521.6 C 624,1514.9 632.2,1511.5 642.3,1511.5 C 648.9,1511.5 654.8,1513.1 660.1,1516.2 C 665.4,1519.4 669.4,1523.8 672.2,1529.4 C 675,1535.1 676.4,1541.5 676.4,1548.6 C 676.4,1555.9 674.9,1562.4 672,1568.1 C 669.1,1573.8 664.9,1578.2 659.6,1581.1 C 654.2,1584 648.4,1585.5 642.2,1585.5 C 635.5,1585.5 629.5,1583.9 624.2,1580.6 C 618.9,1577.3 614.9,1572.9 612.2,1567.3 C 609.4,1561.8 608,1555.8 608,1549.5 z M 617.8,1549.6 C 617.8,1558.2 620.1,1565 624.8,1570 C 629.4,1575 635.2,1577.5 642.2,1577.5 C 649.3,1577.5 655.2,1575 659.8,1570 C 664.4,1565 666.7,1557.9 666.7,1548.6 C 666.7,1542.8 665.7,1537.7 663.7,1533.3 C 661.7,1529 658.9,1525.6 655.1,1523.2 C 651.3,1520.8 647.1,1519.6 642.3,1519.6 C 635.6,1519.6 629.8,1521.9 625,1526.5 C 620.2,1531.1 617.8,1538.9 617.8,1549.6 z" style="fill:#800000" />
</g>
<rect width="6" height="101.5" x="651.09998" y="1394.4" style="fill:#800000" />
<rect width="6" height="101.5" x="625.09998" y="1394.4" style="fill:#800000" />
<polygon points="698.1,944.9 701.1,945.4 704.1,946.4 667.6,1083.4 664.1,1083.9 661.6,1081.4 698.1,944.9" style="fill:#800000" />
<polygon points="526.1,1123.9 525.6,1121.4 524.6,1118.4 661.6,1081.4 664.1,1083.9 663.1,1087.4 526.1,1123.9" style="fill:#800000" />
<polygon points="1664.1,1431.9 1657.6,1430.4 1759.6,1327.9 1765.6,1330.4 1664.1,1431.9" style="fill:#c83737" />
<g>
<path d="M 1669.7,1608.9 L 1669.7,1537.3 L 1679.5,1537.3 L 1717.2,1593.6 L 1717.2,1537.3 L 1726.3,1537.3 L 1726.3,1608.9 L 1716.5,1608.9 L 1678.8,1552.6 L 1678.8,1608.9 L 1669.7,1608.9 z" style="fill:#c83737" />
<path d="M 1742.3,1608.9 L 1742.3,1537.3 L 1751.8,1537.3 L 1751.8,1566.7 L 1789.1,1566.7 L 1789.1,1537.3 L 1798.6,1537.3 L 1798.6,1608.9 L 1789.1,1608.9 L 1789.1,1575.1 L 1751.8,1575.1 L 1751.8,1608.9 L 1742.3,1608.9 z" style="fill:#c83737" />
</g>
<g>
<path d="M 1844.3,1621.3 L 1844.3,1627.7 L 1808.8,1627.7 C 1808.7,1626.1 1809,1624.6 1809.6,1623.1 C 1810.5,1620.7 1811.9,1618.3 1813.9,1616 C 1815.9,1613.7 1818.8,1611 1822.5,1607.9 C 1828.3,1603.1 1832.3,1599.3 1834.3,1596.5 C 1836.3,1593.7 1837.4,1591.1 1837.4,1588.6 C 1837.4,1586 1836.5,1583.8 1834.6,1582 C 1832.7,1580.2 1830.3,1579.3 1827.3,1579.3 C 1824.1,1579.3 1821.6,1580.3 1819.7,1582.2 C 1817.8,1584.1 1816.8,1586.7 1816.8,1590.1 L 1810,1589.3 C 1810.5,1584.3 1812.2,1580.4 1815.2,1577.8 C 1818.2,1575.2 1822.3,1573.8 1827.4,1573.8 C 1832.5,1573.8 1836.6,1575.2 1839.6,1578.1 C 1842.6,1581 1844.1,1584.5 1844.1,1588.7 C 1844.1,1590.8 1843.7,1593 1842.8,1595 C 1841.9,1597 1840.5,1599.3 1838.4,1601.5 C 1836.3,1603.7 1833,1606.9 1828.3,1610.9 C 1824.3,1614.2 1821.8,1616.5 1820.7,1617.6 C 1819.6,1618.8 1818.6,1620 1817.9,1621.2 L 1844.3,1621.2 L 1844.3,1621.3 z" style="fill:#c83737" />
</g>
<polygon points="1687.1,1516.9 1681.1,1518.4 1657.6,1430.4 1664.1,1431.9 1687.1,1516.9" style="fill:#c83737" />
<g>
<path d="M 1489,1398 C 1489,1386.1 1492.2,1376.8 1498.6,1370.1 C 1505,1363.4 1513.2,1360 1523.3,1360 C 1529.9,1360 1535.8,1361.6 1541.1,1364.7 C 1546.4,1367.9 1550.4,1372.3 1553.2,1377.9 C 1556,1383.6 1557.4,1390 1557.4,1397.1 C 1557.4,1404.4 1555.9,1410.9 1553,1416.6 C 1550.1,1422.3 1545.9,1426.7 1540.6,1429.6 C 1535.2,1432.5 1529.4,1434 1523.2,1434 C 1516.5,1434 1510.5,1432.4 1505.2,1429.1 C 1499.9,1425.8 1495.9,1421.4 1493.2,1415.8 C 1490.4,1410.3 1489,1404.3 1489,1398 z M 1498.8,1398.1 C 1498.8,1406.7 1501.1,1413.5 1505.8,1418.5 C 1510.4,1423.5 1516.2,1426 1523.2,1426 C 1530.3,1426 1536.2,1423.5 1540.8,1418.5 C 1545.4,1413.5 1547.7,1406.4 1547.7,1397.1 C 1547.7,1391.3 1546.7,1386.2 1544.7,1381.8 C 1542.7,1377.5 1539.9,1374.1 1536.1,1371.7 C 1532.3,1369.3 1528.1,1368.1 1523.3,1368.1 C 1516.6,1368.1 1510.8,1370.4 1506,1375 C 1501.2,1379.6 1498.8,1387.4 1498.8,1398.1 z" style="fill:#c83737" />
</g>
<polygon points="1567.6,1422.9 1569.1,1416.9 1665.6,1442.9 1664.1,1448.4 1567.6,1422.9" style="fill:#c83737" />
<polygon points="1574.1,1397.9 1575.6,1391.9 1672.1,1417.9 1670.6,1423.4 1574.1,1397.9" style="fill:#c83737" />
<polygon points="267.6,1333.4 267.6,1326.9 391.6,1398.4 391.6,1405.4 267.6,1333.4" style="fill:#008000" />
<g>
<path d="M 0,1440.9 L 0,1369.3 L 9.5,1369.3 L 9.5,1398.7 L 46.8,1398.7 L 46.8,1369.3 L 56.3,1369.3 L 56.3,1440.9 L 46.8,1440.9 L 46.8,1407.1 L 9.5,1407.1 L 9.5,1440.9 L 0,1440.9 z" />
</g>
<g>
<path d="M 102,1453.3 L 102,1459.7 L 66.5,1459.7 C 66.4,1458.1 66.7,1456.6 67.3,1455.1 C 68.2,1452.7 69.6,1450.3 71.6,1448 C 73.6,1445.7 76.5,1443 80.2,1439.9 C 86,1435.1 90,1431.3 92,1428.5 C 94,1425.7 95.1,1423.1 95.1,1420.6 C 95.1,1418 94.2,1415.8 92.3,1414 C 90.4,1412.2 88,1411.3 85,1411.3 C 81.8,1411.3 79.3,1412.3 77.4,1414.2 C 75.5,1416.1 74.5,1418.7 74.5,1422.1 L 67.7,1421.3 C 68.2,1416.3 69.9,1412.4 72.9,1409.8 C 75.9,1407.2 80,1405.8 85.1,1405.8 C 90.2,1405.8 94.3,1407.2 97.3,1410.1 C 100.3,1413 101.8,1416.5 101.8,1420.7 C 101.8,1422.8 101.4,1425 100.5,1427 C 99.6,1429 98.2,1431.3 96.1,1433.5 C 94,1435.7 90.7,1438.9 86,1442.9 C 82,1446.2 79.5,1448.5 78.4,1449.6 C 77.3,1450.8 76.3,1452 75.6,1453.2 L 102,1453.2 L 102,1453.3 z" />
</g>
<g>
<path d="M 113.5,1440.9 L 113.5,1369.3 L 123.3,1369.3 L 161,1425.6 L 161,1369.3 L 170.1,1369.3 L 170.1,1440.9 L 160.3,1440.9 L 122.6,1384.6 L 122.6,1440.9 L 113.5,1440.9 z" />
</g>
<polygon points="192.1,1376.9 189.1,1371.9 267.6,1326.9 267.6,1333.4 192.1,1376.9" />
<g>
<path d="M 234,1190.5 C 234,1178.6 237.2,1169.3 243.6,1162.6 C 250,1155.9 258.2,1152.5 268.3,1152.5 C 274.9,1152.5 280.8,1154.1 286.1,1157.2 C 291.4,1160.4 295.4,1164.8 298.2,1170.4 C 301,1176.1 302.4,1182.5 302.4,1189.6 C 302.4,1196.9 300.9,1203.4 298,1209.1 C 295.1,1214.8 290.9,1219.2 285.6,1222.1 C 280.2,1225 274.4,1226.5 268.2,1226.5 C 261.5,1226.5 255.5,1224.9 250.2,1221.6 C 244.9,1218.3 240.9,1213.9 238.2,1208.3 C 235.4,1202.8 234,1196.8 234,1190.5 z M 243.8,1190.6 C 243.8,1199.2 246.1,1206 250.8,1211 C 255.4,1216 261.2,1218.5 268.2,1218.5 C 275.3,1218.5 281.2,1216 285.8,1211 C 290.4,1206 292.7,1198.9 292.7,1189.6 C 292.7,1183.8 291.7,1178.7 289.7,1174.3 C 287.7,1170 284.9,1166.6 281.1,1164.2 C 277.3,1161.8 273.1,1160.6 268.3,1160.6 C 261.6,1160.6 255.8,1162.9 251,1167.5 C 246.2,1172.1 243.8,1179.9 243.8,1190.6 z" style="fill:#008000" />
</g>
<rect width="6" height="95.5" x="251.60001" y="1241.9" style="fill:#008000" />
<rect width="6" height="95.5" x="277.60001" y="1241.9" style="fill:#008000" />
<g>
<path d="M 1455.9,624.8 L 1465.4,627.2 C 1463.4,635 1459.8,640.9 1454.7,645 C 1449.6,649.1 1443.2,651.1 1435.8,651.1 C 1428.1,651.1 1421.8,649.5 1417,646.4 C 1412.2,643.3 1408.5,638.7 1406,632.7 C 1403.5,626.7 1402.2,620.3 1402.2,613.5 C 1402.2,606 1403.6,599.5 1406.5,594 C 1409.4,588.5 1413.4,584.2 1418.6,581.3 C 1423.8,578.4 1429.6,577 1435.9,577 C 1443.1,577 1449.1,578.8 1453.9,582.5 C 1458.8,586.2 1462.2,591.3 1464.1,597.9 L 1454.7,600.1 C 1453,594.9 1450.6,591.1 1447.5,588.7 C 1444.3,586.3 1440.4,585.1 1435.6,585.1 C 1430.1,585.1 1425.5,586.4 1421.8,589.1 C 1418.1,591.7 1415.5,595.3 1414,599.7 C 1412.5,604.1 1411.8,608.7 1411.8,613.5 C 1411.8,619.6 1412.7,624.9 1414.5,629.5 C 1416.3,634 1419,637.4 1422.8,639.7 C 1426.5,642 1430.6,643.1 1434.9,643.1 C 1440.2,643.1 1444.7,641.6 1448.4,638.5 C 1452.1,635.4 1454.6,630.8 1455.9,624.8 z" style="fill:#800080" />
<path d="M 1475.6,669.8 L 1474.6,661.6 C 1476.5,662.1 1478.2,662.4 1479.6,662.4 C 1481.6,662.4 1483.1,662.1 1484.3,661.4 C 1485.5,660.7 1486.4,659.8 1487.2,658.7 C 1487.8,657.8 1488.7,655.6 1489.9,652.2 C 1490.1,651.7 1490.3,651 1490.7,650.1 L 1470.9,598.1 L 1480.2,598.1 L 1491.1,628.2 C 1492.5,632 1493.8,636 1494.9,640.2 C 1495.9,636.1 1497.2,632.2 1498.6,628.3 L 1509.7,598 L 1518.5,598 L 1498.9,650.8 C 1496.8,656.5 1495.1,660.4 1493.9,662.5 C 1492.3,665.4 1490.5,667.5 1488.5,668.8 C 1486.5,670.1 1484,670.8 1481.2,670.8 C 1479.6,670.9 1477.7,670.5 1475.6,669.8 z" style="fill:#800080" />
<path d="M 1522.5,634.4 L 1531.3,633 C 1531.8,636.5 1533.1,639.1 1535.4,641 C 1537.6,642.8 1540.7,643.8 1544.7,643.8 C 1548.7,643.8 1551.7,643 1553.7,641.3 C 1555.7,639.6 1556.6,637.7 1556.6,635.5 C 1556.6,633.5 1555.7,632 1554,630.8 C 1552.8,630 1549.8,629 1545,627.8 C 1538.6,626.2 1534.2,624.8 1531.7,623.6 C 1529.2,622.4 1527.3,620.8 1526,618.7 C 1524.7,616.6 1524.1,614.3 1524.1,611.7 C 1524.1,609.4 1524.6,607.3 1525.7,605.3 C 1526.8,603.3 1528.2,601.7 1530,600.4 C 1531.4,599.4 1533.2,598.5 1535.6,597.8 C 1538,597.1 1540.5,596.8 1543.2,596.8 C 1547.3,596.8 1550.8,597.4 1553.9,598.6 C 1557,599.8 1559.2,601.4 1560.7,603.3 C 1562.2,605.3 1563.2,608 1563.7,611.3 L 1555.1,612.4 C 1554.7,609.8 1553.6,607.7 1551.7,606.2 C 1549.8,604.7 1547.2,604 1543.8,604 C 1539.8,604 1536.9,604.7 1535.2,606 C 1533.5,607.3 1532.6,608.9 1532.6,610.7 C 1532.6,611.8 1533,612.9 1533.7,613.8 C 1534.4,614.7 1535.5,615.5 1537,616.1 C 1537.9,616.4 1540.4,617.2 1544.7,618.3 C 1550.9,620 1555.2,621.3 1557.7,622.4 C 1560.2,623.5 1562.1,625 1563.5,627 C 1564.9,629 1565.6,631.5 1565.6,634.5 C 1565.6,637.4 1564.7,640.2 1563,642.8 C 1561.3,645.4 1558.8,647.4 1555.6,648.8 C 1552.4,650.2 1548.7,650.9 1544.7,650.9 C 1538,650.9 1532.8,649.5 1529.3,646.7 C 1525.7,644 1523.4,639.9 1522.5,634.4 z" style="fill:#800080" />
</g>
<g>
<path d="M 2523,270.4 L 2523,207.3 L 2499.4,207.3 L 2499.4,198.8 L 2556.2,198.8 L 2556.2,207.3 L 2532.6,207.3 L 2532.6,270.4 L 2523,270.4 z" style="fill:#0000ff" />
<path d="M 2558.9,290.3 L 2557.9,282.1 C 2559.8,282.6 2561.5,282.9 2562.9,282.9 C 2564.9,282.9 2566.4,282.6 2567.6,281.9 C 2568.8,281.2 2569.7,280.3 2570.5,279.2 C 2571.1,278.3 2572,276.1 2573.2,272.7 C 2573.4,272.2 2573.6,271.5 2574,270.6 L 2554.2,218.6 L 2563.5,218.6 L 2574.4,248.7 C 2575.8,252.5 2577.1,256.5 2578.2,260.7 C 2579.2,256.6 2580.5,252.7 2581.9,248.8 L 2593,218.5 L 2601.8,218.5 L 2582.2,271.3 C 2580.1,277 2578.4,280.9 2577.2,283 C 2575.6,285.9 2573.8,288 2571.8,289.3 C 2569.8,290.6 2567.3,291.3 2564.5,291.3 C 2562.9,291.4 2561,291 2558.9,290.3 z" style="fill:#0000ff" />
<path d="M 2609.2,270.4 L 2609.2,218.5 L 2617.1,218.5 L 2617.1,226.5 C 2619.1,222.8 2621,220.4 2622.7,219.2 C 2624.4,218 2626.3,217.4 2628.3,217.4 C 2631.3,217.4 2634.3,218.3 2637.3,220.2 L 2634.2,228.3 C 2632.1,227.1 2629.9,226.5 2627.8,226.5 C 2625.9,226.5 2624.2,227.1 2622.7,228.2 C 2621.2,229.4 2620.1,231 2619.4,233 C 2618.4,236.1 2617.9,239.5 2617.9,243.2 L 2617.9,270.3 L 2609.2,270.3 L 2609.2,270.4 z" style="fill:#0000ff" />
</g>
<g>
<path d="M 2521.5,920.4 L 2521.5,848.8 L 2531,848.8 L 2531,920.4 L 2521.5,920.4 z" style="fill:#d40055" />
<path d="M 2546.3,920.4 L 2546.3,848.8 L 2555.1,848.8 L 2555.1,920.4 L 2546.3,920.4 z" style="fill:#d40055" />
<path d="M 2604.3,903.6 L 2613.4,904.7 C 2612,910 2609.3,914.1 2605.4,917.1 C 2601.5,920.1 2596.6,921.5 2590.5,921.5 C 2582.9,921.5 2576.9,919.2 2572.4,914.5 C 2567.9,909.8 2565.7,903.3 2565.7,894.9 C 2565.7,886.2 2567.9,879.4 2572.4,874.6 C 2576.9,869.8 2582.7,867.4 2589.9,867.4 C 2596.8,867.4 2602.5,869.8 2606.9,874.5 C 2611.3,879.2 2613.5,885.8 2613.5,894.4 C 2613.5,894.9 2613.5,895.7 2613.5,896.7 L 2574.7,896.7 C 2575,902.4 2576.6,906.8 2579.6,909.8 C 2582.6,912.8 2586.2,914.3 2590.5,914.3 C 2593.7,914.3 2596.5,913.5 2598.8,911.8 C 2601.1,910.1 2602.9,907.3 2604.3,903.6 z M 2575.2,889.4 L 2604.3,889.4 C 2603.9,885.1 2602.8,881.8 2601,879.7 C 2598.2,876.3 2594.5,874.7 2590,874.7 C 2585.9,874.7 2582.5,876 2579.8,878.7 C 2577.1,881.3 2575.5,884.9 2575.2,889.4 z" style="fill:#d40055" />
</g>
<g>
<path d="M 2388.4,1177.4 L 2388.4,1168.9 L 2418.7,1168.9 L 2418.7,1195.5 C 2414.1,1199.2 2409.3,1202 2404.3,1203.9 C 2399.4,1205.8 2394.3,1206.7 2389.1,1206.7 C 2382.1,1206.7 2375.7,1205.2 2370,1202.2 C 2364.3,1199.2 2359.9,1194.8 2357,1189.1 C 2354.1,1183.4 2352.6,1177 2352.6,1170 C 2352.6,1163 2354.1,1156.5 2357,1150.5 C 2359.9,1144.5 2364.1,1140 2369.6,1137 C 2375.1,1134.1 2381.4,1132.6 2388.5,1132.6 C 2393.7,1132.6 2398.3,1133.4 2402.5,1135.1 C 2406.7,1136.8 2410,1139.1 2412.3,1142.1 C 2414.6,1145.1 2416.5,1149 2417.7,1153.8 L 2409.2,1156.1 C 2408.1,1152.4 2406.8,1149.6 2405.2,1147.5 C 2403.6,1145.4 2401.3,1143.7 2398.4,1142.5 C 2395.4,1141.2 2392.2,1140.6 2388.5,1140.6 C 2384.2,1140.6 2380.4,1141.3 2377.3,1142.6 C 2374.1,1143.9 2371.6,1145.7 2369.7,1147.8 C 2367.8,1150 2366.3,1152.3 2365.2,1154.9 C 2363.4,1159.3 2362.5,1164.2 2362.5,1169.3 C 2362.5,1175.7 2363.6,1181 2365.8,1185.4 C 2368,1189.8 2371.2,1192.9 2375.4,1195 C 2379.6,1197.1 2384.1,1198.1 2388.8,1198.1 C 2392.9,1198.1 2396.9,1197.3 2400.8,1195.7 C 2404.7,1194.1 2407.7,1192.4 2409.7,1190.6 L 2409.7,1177.3 L 2388.4,1177.3 L 2388.4,1177.4 z" style="fill:#165829" />
<path d="M 2431.3,1205.4 L 2431.3,1133.8 L 2440.1,1133.8 L 2440.1,1205.4 L 2431.3,1205.4 z" style="fill:#165829" />
</g>
<g>
<path d="M 2453.8,1205.4 L 2453.8,1153.5 L 2461.7,1153.5 L 2461.7,1160.9 C 2465.5,1155.2 2471,1152.4 2478.2,1152.4 C 2481.3,1152.4 2484.2,1153 2486.8,1154.1 C 2489.4,1155.2 2491.4,1156.7 2492.7,1158.5 C 2494,1160.3 2494.9,1162.5 2495.4,1165 C 2495.7,1166.6 2495.9,1169.5 2495.9,1173.5 L 2495.9,1205.4 L 2487.1,1205.4 L 2487.1,1173.9 C 2487.1,1170.3 2486.8,1167.6 2486.1,1165.9 C 2485.4,1164.2 2484.2,1162.7 2482.5,1161.7 C 2480.8,1160.6 2478.7,1160.1 2476.4,1160.1 C 2472.6,1160.1 2469.4,1161.3 2466.7,1163.7 C 2464,1166.1 2462.6,1170.6 2462.6,1177.2 L 2462.6,1205.5 L 2453.8,1205.5 L 2453.8,1205.4 z" style="fill:#165829" />
</g>
<g>
<path d="M 1802,1485.4 L 1829.4,1413.8 L 1839.9,1413.8 L 1869,1485.4 L 1858.2,1485.4 L 1850.1,1463.8 L 1819.9,1463.8 L 1812.1,1485.4 L 1802,1485.4 z M 1822.5,1456 L 1847,1456 L 1839.5,1436.1 C 1837.3,1430.1 1835.5,1425.1 1834.3,1421.1 C 1833.3,1425.8 1832,1430.4 1830.4,1434.9 L 1822.5,1456 z" style="fill:#c83737" />
<path d="M 1871.9,1469.9 L 1880.7,1468.5 C 1881.2,1472 1882.5,1474.6 1884.8,1476.5 C 1887,1478.3 1890.1,1479.3 1894.1,1479.3 C 1898.1,1479.3 1901.1,1478.5 1903.1,1476.8 C 1905.1,1475.1 1906,1473.2 1906,1471 C 1906,1469 1905.1,1467.5 1903.4,1466.3 C 1902.2,1465.5 1899.2,1464.5 1894.4,1463.3 C 1888,1461.7 1883.6,1460.3 1881.1,1459.1 C 1878.6,1457.9 1876.7,1456.3 1875.4,1454.2 C 1874.1,1452.1 1873.5,1449.8 1873.5,1447.2 C 1873.5,1444.9 1874,1442.8 1875.1,1440.8 C 1876.2,1438.8 1877.6,1437.2 1879.4,1435.9 C 1880.8,1434.9 1882.6,1434 1885,1433.3 C 1887.4,1432.6 1889.9,1432.3 1892.6,1432.3 C 1896.7,1432.3 1900.2,1432.9 1903.3,1434.1 C 1906.4,1435.3 1908.6,1436.9 1910.1,1438.8 C 1911.6,1440.8 1912.6,1443.5 1913.1,1446.8 L 1904.5,1447.9 C 1904.1,1445.3 1903,1443.2 1901.1,1441.7 C 1899.2,1440.2 1896.6,1439.5 1893.2,1439.5 C 1889.2,1439.5 1886.3,1440.2 1884.6,1441.5 C 1882.9,1442.8 1882,1444.4 1882,1446.2 C 1882,1447.3 1882.4,1448.4 1883.1,1449.3 C 1883.8,1450.2 1884.9,1451 1886.4,1451.6 C 1887.3,1451.9 1889.8,1452.7 1894.1,1453.8 C 1900.3,1455.5 1904.6,1456.8 1907.1,1457.9 C 1909.6,1459 1911.5,1460.5 1912.9,1462.5 C 1914.3,1464.5 1915,1467 1915,1470 C 1915,1472.9 1914.1,1475.7 1912.4,1478.3 C 1910.7,1480.9 1908.2,1482.9 1905,1484.3 C 1901.8,1485.7 1898.1,1486.4 1894.1,1486.4 C 1887.4,1486.4 1882.2,1485 1878.7,1482.2 C 1875.2,1479.5 1872.9,1475.4 1871.9,1469.9 z" style="fill:#c83737" />
<path d="M 1925.4,1485.4 L 1925.4,1433.5 L 1933.3,1433.5 L 1933.3,1440.9 C 1937.1,1435.2 1942.6,1432.4 1949.8,1432.4 C 1952.9,1432.4 1955.8,1433 1958.4,1434.1 C 1961,1435.2 1963,1436.7 1964.3,1438.5 C 1965.6,1440.3 1966.5,1442.5 1967,1445 C 1967.3,1446.6 1967.5,1449.5 1967.5,1453.5 L 1967.5,1485.4 L 1958.7,1485.4 L 1958.7,1453.9 C 1958.7,1450.3 1958.4,1447.6 1957.7,1445.9 C 1957,1444.2 1955.8,1442.7 1954.1,1441.7 C 1952.4,1440.6 1950.3,1440.1 1948,1440.1 C 1944.2,1440.1 1941,1441.3 1938.3,1443.7 C 1935.6,1446.1 1934.2,1450.6 1934.2,1457.2 L 1934.2,1485.5 L 1925.4,1485.5 L 1925.4,1485.4 z" style="fill:#c83737" />
</g>
<g>
<path d="M 1300.9,880.8 L 1310.4,883.2 C 1308.4,891 1304.8,896.9 1299.7,901 C 1294.6,905.1 1288.2,907.1 1280.8,907.1 C 1273.1,907.1 1266.8,905.5 1262,902.4 C 1257.2,899.3 1253.5,894.7 1251,888.7 C 1248.5,882.7 1247.2,876.3 1247.2,869.5 C 1247.2,862 1248.6,855.5 1251.5,850 C 1254.4,844.5 1258.4,840.2 1263.6,837.3 C 1268.8,834.4 1274.6,833 1280.9,833 C 1288.1,833 1294.1,834.8 1298.9,838.5 C 1303.8,842.2 1307.2,847.3 1309.1,853.9 L 1299.7,856.1 C 1298,850.9 1295.6,847.1 1292.5,844.7 C 1289.3,842.3 1285.4,841.1 1280.6,841.1 C 1275.1,841.1 1270.5,842.4 1266.8,845.1 C 1263.1,847.7 1260.5,851.3 1259,855.7 C 1257.5,860.1 1256.8,864.7 1256.8,869.5 C 1256.8,875.6 1257.7,880.9 1259.5,885.5 C 1261.3,890 1264,893.4 1267.8,895.7 C 1271.5,898 1275.6,899.1 1279.9,899.1 C 1285.2,899.1 1289.7,897.6 1293.4,894.5 C 1297.1,891.4 1299.6,886.8 1300.9,880.8 z" style="fill:#800080" />
<path d="M 1320.6,925.8 L 1319.6,917.6 C 1321.5,918.1 1323.2,918.4 1324.6,918.4 C 1326.6,918.4 1328.1,918.1 1329.3,917.4 C 1330.5,916.7 1331.4,915.8 1332.2,914.7 C 1332.8,913.8 1333.7,911.6 1334.9,908.2 C 1335.1,907.7 1335.3,907 1335.7,906.1 L 1315.9,854.1 L 1325.3,854.1 L 1336.2,884.2 C 1337.6,888 1338.9,892 1340,896.2 C 1341,892.1 1342.3,888.2 1343.7,884.3 L 1354.8,854 L 1363.6,854 L 1344,906.8 C 1341.9,912.5 1340.2,916.4 1339,918.5 C 1337.4,921.4 1335.6,923.5 1333.6,924.8 C 1331.6,926.1 1329.1,926.8 1326.3,926.8 C 1324.6,926.9 1322.7,926.5 1320.6,925.8 z" style="fill:#800080" />
<path d="M 1367.5,890.4 L 1376.3,889 C 1376.8,892.5 1378.1,895.1 1380.4,897 C 1382.6,898.8 1385.7,899.8 1389.7,899.8 C 1393.7,899.8 1396.7,899 1398.7,897.3 C 1400.7,895.6 1401.6,893.7 1401.6,891.5 C 1401.6,889.5 1400.7,888 1399,886.8 C 1397.8,886 1394.8,885 1390,883.8 C 1383.6,882.2 1379.2,880.8 1376.7,879.6 C 1374.2,878.4 1372.3,876.8 1371,874.7 C 1369.7,872.6 1369.1,870.3 1369.1,867.7 C 1369.1,865.4 1369.6,863.3 1370.7,861.3 C 1371.8,859.3 1373.2,857.7 1375,856.4 C 1376.4,855.4 1378.2,854.5 1380.6,853.8 C 1383,853.1 1385.5,852.8 1388.2,852.8 C 1392.3,852.8 1395.8,853.4 1398.9,854.6 C 1402,855.8 1404.2,857.4 1405.7,859.3 C 1407.2,861.3 1408.2,864 1408.7,867.3 L 1400.1,868.4 C 1399.7,865.8 1398.6,863.7 1396.7,862.2 C 1394.8,860.7 1392.2,860 1388.8,860 C 1384.8,860 1381.9,860.7 1380.2,862 C 1378.5,863.3 1377.6,864.9 1377.6,866.7 C 1377.6,867.8 1378,868.9 1378.7,869.8 C 1379.4,870.7 1380.5,871.5 1382,872.1 C 1382.9,872.4 1385.4,873.2 1389.7,874.3 C 1395.9,876 1400.2,877.3 1402.7,878.4 C 1405.2,879.5 1407.1,881 1408.5,883 C 1409.9,885 1410.6,887.5 1410.6,890.5 C 1410.6,893.4 1409.7,896.2 1408,898.8 C 1406.3,901.4 1403.8,903.4 1400.6,904.8 C 1397.4,906.2 1393.7,906.9 1389.7,906.9 C 1383,906.9 1377.8,905.5 1374.3,902.7 C 1370.7,900 1368.4,895.9 1367.5,890.4 z" style="fill:#800080" />
</g>
<g>
<path d="M 964.9,905.4 L 964.9,833.8 L 991.9,833.8 C 996.7,833.8 1000.3,834 1002.8,834.5 C 1006.3,835.1 1009.3,836.2 1011.6,837.8 C 1014,839.4 1015.9,841.7 1017.3,844.7 C 1018.7,847.7 1019.5,850.9 1019.5,854.5 C 1019.5,860.6 1017.6,865.7 1013.7,870 C 1009.8,874.2 1002.8,876.3 992.7,876.3 L 974.4,876.3 L 974.4,905.4 L 964.9,905.4 L 964.9,905.4 z M 974.4,867.8 L 992.9,867.8 C 999,867.8 1003.4,866.7 1005.9,864.4 C 1008.5,862.1 1009.8,858.9 1009.8,854.8 C 1009.8,851.8 1009,849.3 1007.5,847.1 C 1006,844.9 1004,843.6 1001.5,842.9 C 999.9,842.5 997,842.3 992.7,842.3 L 974.4,842.3 L 974.4,867.8 L 974.4,867.8 z" style="fill:#000080" />
<path d="M 1030.3,905.4 L 1030.3,853.5 L 1038.2,853.5 L 1038.2,861.5 C 1040.2,857.8 1042.1,855.4 1043.8,854.2 C 1045.5,853 1047.4,852.4 1049.4,852.4 C 1052.4,852.4 1055.4,853.3 1058.4,855.2 L 1055.3,863.3 C 1053.2,862.1 1051,861.5 1048.9,861.5 C 1047,861.5 1045.3,862.1 1043.8,863.2 C 1042.3,864.4 1041.2,866 1040.5,868 C 1039.5,871.1 1039,874.5 1039,878.2 L 1039,905.3 L 1030.3,905.3 L 1030.3,905.4 z" style="fill:#000080" />
</g>
<g>
<path d="M 1060.5,879.4 C 1060.5,869.8 1063.2,862.7 1068.5,858.1 C 1073,854.3 1078.4,852.3 1084.8,852.3 C 1091.9,852.3 1097.7,854.6 1102.3,859.3 C 1106.8,864 1109.1,870.4 1109.1,878.6 C 1109.1,885.3 1108.1,890.5 1106.1,894.3 C 1104.1,898.1 1101.2,901.1 1097.4,903.2 C 1093.6,905.3 1089.4,906.4 1084.9,906.4 C 1077.7,906.4 1071.8,904.1 1067.3,899.4 C 1062.8,894.7 1060.5,888.2 1060.5,879.4 z M 1069.5,879.4 C 1069.5,886 1070.9,891 1073.8,894.3 C 1076.7,897.6 1080.3,899.2 1084.7,899.2 C 1089.1,899.2 1092.7,897.5 1095.6,894.2 C 1098.5,890.9 1099.9,885.8 1099.9,879 C 1099.9,872.6 1098.4,867.7 1095.5,864.5 C 1092.6,861.2 1089,859.6 1084.6,859.6 C 1080.2,859.6 1076.6,861.2 1073.7,864.5 C 1070.8,867.8 1069.5,872.8 1069.5,879.4 z" style="fill:#000080" />
</g>
<g>
<path d="M 439.5,1020.4 L 439.5,948.8 L 449,948.8 L 449,1011.9 L 484.1,1011.9 L 484.1,1020.4 L 439.5,1020.4 z" style="fill:#800000" />
<path d="M 529.9,1003.6 L 539,1004.7 C 537.6,1010 534.9,1014.1 531,1017.1 C 527.1,1020.1 522.2,1021.5 516.1,1021.5 C 508.5,1021.5 502.5,1019.2 498,1014.5 C 493.5,1009.8 491.3,1003.3 491.3,994.9 C 491.3,986.2 493.5,979.4 498,974.6 C 502.5,969.8 508.3,967.4 515.5,967.4 C 522.4,967.4 528.1,969.8 532.5,974.5 C 536.9,979.2 539.1,985.8 539.1,994.4 C 539.1,994.9 539.1,995.7 539.1,996.7 L 500.3,996.7 C 500.6,1002.4 502.2,1006.8 505.2,1009.8 C 508.2,1012.8 511.8,1014.3 516.1,1014.3 C 519.3,1014.3 522.1,1013.5 524.4,1011.8 C 526.7,1010.1 528.5,1007.3 529.9,1003.6 z M 500.9,989.4 L 530,989.4 C 529.6,985.1 528.5,981.8 526.7,979.7 C 523.9,976.3 520.2,974.7 515.7,974.7 C 511.6,974.7 508.2,976 505.5,978.7 C 502.7,981.3 501.2,984.9 500.9,989.4 z" style="fill:#800000" />
<path d="M 584,1020.4 L 584,1012.7 C 580,1018.6 574.5,1021.5 567.5,1021.5 C 564.4,1021.5 561.6,1020.9 558.9,1019.7 C 556.2,1018.5 554.3,1017.1 553,1015.3 C 551.7,1013.5 550.8,1011.4 550.3,1008.8 C 549.9,1007.1 549.8,1004.3 549.8,1000.6 L 549.8,968.5 L 558.6,968.5 L 558.6,997.2 C 558.6,1001.8 558.8,1004.9 559.1,1006.5 C 559.7,1008.8 560.8,1010.6 562.6,1011.9 C 564.4,1013.2 566.6,1013.9 569.3,1013.9 C 572,1013.9 574.4,1013.2 576.8,1011.9 C 579.2,1010.6 580.8,1008.7 581.7,1006.4 C 582.7,1004.1 583.2,1000.7 583.2,996.3 L 583.2,968.6 L 592,968.6 L 592,1020.5 L 584,1020.5 L 584,1020.4 z" style="fill:#800000" />
</g>
<g>
<path d="M 338.4,1511.9 L 338.4,1503.4 L 368.7,1503.4 L 368.7,1530 C 364.1,1533.7 359.3,1536.5 354.3,1538.4 C 349.4,1540.3 344.3,1541.2 339.1,1541.2 C 332.1,1541.2 325.7,1539.7 320,1536.7 C 314.3,1533.7 309.9,1529.3 307,1523.6 C 304.1,1517.9 302.6,1511.5 302.6,1504.5 C 302.6,1497.5 304.1,1491 307,1485 C 309.9,1479 314.1,1474.5 319.6,1471.5 C 325.1,1468.6 331.4,1467.1 338.5,1467.1 C 343.7,1467.1 348.3,1467.9 352.5,1469.6 C 356.7,1471.3 360,1473.6 362.3,1476.6 C 364.6,1479.6 366.5,1483.5 367.7,1488.3 L 359.2,1490.6 C 358.1,1486.9 356.8,1484.1 355.2,1482 C 353.6,1479.9 351.3,1478.2 348.4,1477 C 345.4,1475.7 342.2,1475.1 338.5,1475.1 C 334.2,1475.1 330.4,1475.8 327.3,1477.1 C 324.1,1478.4 321.6,1480.2 319.7,1482.3 C 317.8,1484.5 316.3,1486.8 315.2,1489.4 C 313.4,1493.8 312.5,1498.7 312.5,1503.8 C 312.5,1510.2 313.6,1515.5 315.8,1519.9 C 318,1524.3 321.2,1527.4 325.4,1529.5 C 329.6,1531.6 334.1,1532.6 338.8,1532.6 C 342.9,1532.6 346.9,1531.8 350.8,1530.2 C 354.7,1528.6 357.7,1526.9 359.7,1525.1 L 359.7,1511.8 L 338.4,1511.8 L 338.4,1511.9 z" style="fill:#008000" />
<path d="M 381.3,1539.9 L 381.3,1468.3 L 390.1,1468.3 L 390.1,1539.9 L 381.3,1539.9 z" style="fill:#008000" />
</g>
<g>
<path d="M 403.4,1559.8 L 402.4,1551.6 C 404.3,1552.1 406,1552.4 407.4,1552.4 C 409.4,1552.4 410.9,1552.1 412.1,1551.4 C 413.3,1550.7 414.2,1549.8 415,1548.7 C 415.6,1547.8 416.5,1545.6 417.7,1542.2 C 417.9,1541.7 418.1,1541 418.5,1540.1 L 398.7,1488.1 L 408,1488.1 L 418.9,1518.2 C 420.3,1522 421.6,1526 422.7,1530.2 C 423.7,1526.1 425,1522.2 426.4,1518.3 L 437.5,1488 L 446.3,1488 L 426.7,1540.8 C 424.6,1546.5 422.9,1550.4 421.7,1552.5 C 420.1,1555.4 418.3,1557.5 416.3,1558.8 C 414.3,1560.1 411.8,1560.8 409,1560.8 C 407.4,1560.9 405.5,1560.5 403.4,1559.8 z" style="fill:#008000" />
</g>
</g>
</svg>

