<?xml version="1.0" encoding="utf-8"?>
<!-- Generator: Adobe Illustrator 18.1.1, SVG Export Plug-In . SVG Version: 6.00 Build 0)  -->
<!DOCTYPE svg PUBLIC "-//W3C//DTD SVG 1.1//EN" "http://www.w3.org/Graphics/SVG/1.1/DTD/svg11.dtd">
<svg version="1.1" xmlns="http://www.w3.org/2000/svg" xmlns:xlink="http://www.w3.org/1999/xlink" x="0px" y="0px"
	 viewBox="0 0 446.2 119.6" enable-background="new 0 0 446.2 119.6" xml:space="preserve">
<g id="Background">
</g>
<g id="Pathway">
</g>
<g id="Labels">
	<g>
		<path d="M76.3,80.7c-0.9,0-1.6-0.3-2.1-0.8c-0.8-0.8-0.9-1.5-0.9-3.5s0-2.7,0.9-3.5c0.5-0.5,1.2-0.8,2.1-0.8c1.5,0,2.7,0.9,3,2.5
			h-0.9c-0.2-1.1-1-1.7-2-1.7c-0.6,0-1.1,0.2-1.5,0.6c-0.5,0.6-0.6,1.2-0.6,2.9s0.1,2.4,0.6,2.9c0.4,0.4,0.9,0.6,1.5,0.6
			c1.1,0,1.8-0.7,2.1-1.7h0.9C79,79.8,77.8,80.7,76.3,80.7z"/>
		<path d="M84.9,80.1c-0.4,0.4-1,0.7-1.7,0.7c-0.7,0-1.3-0.3-1.7-0.7c-0.6-0.6-0.7-1.4-0.7-2.4c0-0.9,0.1-1.8,0.7-2.4
			c0.4-0.4,1-0.7,1.7-0.7c0.7,0,1.3,0.3,1.7,0.7c0.6,0.6,0.7,1.4,0.7,2.4C85.6,78.6,85.5,79.5,84.9,80.1z M84.3,75.9
			c-0.3-0.3-0.7-0.4-1.1-0.4c-0.4,0-0.8,0.1-1.1,0.4c-0.4,0.4-0.5,1.2-0.5,1.8c0,0.7,0,1.4,0.5,1.8c0.3,0.3,0.6,0.4,1.1,0.4
			c0.4,0,0.8-0.1,1.1-0.4c0.4-0.4,0.5-1.2,0.5-1.8C84.8,77.1,84.7,76.3,84.3,75.9z"/>
		<path d="M91,80.7V80c-0.5,0.6-1,0.8-1.7,0.8c-0.6,0-1.1-0.2-1.4-0.5c-0.6-0.6-0.7-1.6-0.7-2.5s0.1-1.9,0.7-2.5
			c0.3-0.3,0.8-0.5,1.4-0.5c0.7,0,1.2,0.1,1.7,0.8v-3.3h0.9v8.5H91z M89.5,75.5c-1.3,0-1.5,1.1-1.5,2.3s0.2,2.3,1.5,2.3
			c1.3,0,1.5-1.1,1.5-2.3S90.8,75.5,89.5,75.5z"/>
		<path d="M97.8,80.1c-0.4,0.4-1,0.7-1.7,0.7c-0.7,0-1.3-0.3-1.7-0.7c-0.6-0.6-0.7-1.4-0.7-2.4c0-0.9,0.1-1.8,0.7-2.4
			c0.4-0.4,1-0.7,1.7-0.7c0.7,0,1.3,0.3,1.7,0.7c0.6,0.6,0.7,1.4,0.7,2.4C98.5,78.6,98.4,79.5,97.8,80.1z M97.2,75.9
			c-0.3-0.3-0.7-0.4-1.1-0.4c-0.4,0-0.8,0.1-1.1,0.4c-0.4,0.4-0.5,1.2-0.5,1.8c0,0.7,0,1.4,0.5,1.8c0.3,0.3,0.6,0.4,1.1,0.4
			c0.4,0,0.8-0.1,1.1-0.4c0.4-0.4,0.5-1.2,0.5-1.8C97.7,77.1,97.6,76.3,97.2,75.9z"/>
		<path d="M104.2,80.7V77c0-1-0.6-1.6-1.5-1.6s-1.5,0.5-1.5,1.6v3.6h-0.9v-5.9h0.9v0.6c0.4-0.5,1-0.7,1.7-0.7c0.6,0,1.2,0.2,1.5,0.6
			c0.4,0.4,0.6,1,0.6,1.6v3.8H104.2z"/>
		<path d="M112.1,80.7v-7.6l-1.6,1.4v-1l1.6-1.4h0.9v8.5H112.1z"/>
	</g>
	<g>
		<path d="M128.8,80.7c-0.9,0-1.6-0.3-2.1-0.8c-0.8-0.8-0.9-1.5-0.9-3.5s0-2.7,0.9-3.5c0.5-0.5,1.2-0.8,2.1-0.8c1.5,0,2.7,0.9,3,2.5
			h-0.9c-0.2-1.1-1-1.7-2-1.7c-0.6,0-1.1,0.2-1.5,0.6c-0.5,0.6-0.6,1.2-0.6,2.9s0.1,2.4,0.6,2.9c0.4,0.4,0.9,0.6,1.5,0.6
			c1.1,0,1.8-0.7,2.1-1.7h0.9C131.5,79.8,130.3,80.7,128.8,80.7z"/>
		<path d="M137.4,80.1c-0.4,0.4-1,0.7-1.7,0.7c-0.7,0-1.3-0.3-1.7-0.7c-0.6-0.6-0.7-1.4-0.7-2.4c0-0.9,0.1-1.8,0.7-2.4
			c0.4-0.4,1-0.7,1.7-0.7c0.7,0,1.3,0.3,1.7,0.7c0.6,0.6,0.7,1.4,0.7,2.4C138.1,78.6,138,79.5,137.4,80.1z M136.8,75.9
			c-0.3-0.3-0.7-0.4-1.1-0.4c-0.4,0-0.8,0.1-1.1,0.4c-0.4,0.4-0.5,1.2-0.5,1.8c0,0.7,0,1.4,0.5,1.8c0.3,0.3,0.6,0.4,1.1,0.4
			c0.4,0,0.8-0.1,1.1-0.4c0.4-0.4,0.5-1.2,0.5-1.8C137.3,77.1,137.2,76.3,136.8,75.9z"/>
		<path d="M143.5,80.7V80c-0.5,0.6-1,0.8-1.7,0.8c-0.6,0-1.1-0.2-1.4-0.5c-0.6-0.6-0.7-1.6-0.7-2.5s0.1-1.9,0.7-2.5
			c0.3-0.3,0.8-0.5,1.4-0.5c0.7,0,1.2,0.1,1.7,0.8v-3.3h0.9v8.5H143.5z M142,75.5c-1.3,0-1.5,1.1-1.5,2.3s0.2,2.3,1.5,2.3
			c1.3,0,1.5-1.1,1.5-2.3S143.3,75.5,142,75.5z"/>
		<path d="M150.3,80.1c-0.4,0.4-1,0.7-1.7,0.7c-0.7,0-1.3-0.3-1.7-0.7c-0.6-0.6-0.7-1.4-0.7-2.4c0-0.9,0.1-1.8,0.7-2.4
			c0.4-0.4,1-0.7,1.7-0.7c0.7,0,1.3,0.3,1.7,0.7c0.6,0.6,0.7,1.4,0.7,2.4C151,78.6,150.9,79.5,150.3,80.1z M149.7,75.9
			c-0.3-0.3-0.7-0.4-1.1-0.4c-0.4,0-0.8,0.1-1.1,0.4c-0.4,0.4-0.5,1.2-0.5,1.8c0,0.7,0,1.4,0.5,1.8c0.3,0.3,0.6,0.4,1.1,0.4
			c0.4,0,0.8-0.1,1.1-0.4c0.4-0.4,0.5-1.2,0.5-1.8C150.2,77.1,150.1,76.3,149.7,75.9z"/>
		<path d="M156.7,80.7V77c0-1-0.6-1.6-1.5-1.6s-1.5,0.5-1.5,1.6v3.6h-0.9v-5.9h0.9v0.6c0.4-0.5,1-0.7,1.7-0.7c0.6,0,1.2,0.2,1.5,0.6
			c0.4,0.4,0.6,1,0.6,1.6v3.8H156.7z"/>
		<path d="M162.3,80.7v-0.8l3.4-4.3c0.3-0.4,0.5-0.8,0.5-1.3c0-0.9-0.6-1.5-1.5-1.5c-0.8,0-1.5,0.4-1.5,1.5h-0.9
			c0-1.3,0.9-2.3,2.4-2.3c1.4,0,2.4,0.9,2.4,2.3c0,0.7-0.2,1.1-0.7,1.7l-3,3.8h3.7v0.8H162.3z"/>
	</g>
	<g>
		<path d="M181.2,80.7c-0.9,0-1.6-0.3-2.1-0.8c-0.8-0.8-0.9-1.5-0.9-3.5s0-2.7,0.9-3.5c0.5-0.5,1.2-0.8,2.1-0.8c1.5,0,2.7,0.9,3,2.5
			h-0.9c-0.2-1.1-1-1.7-2-1.7c-0.6,0-1.1,0.2-1.5,0.6c-0.5,0.6-0.6,1.2-0.6,2.9s0.1,2.4,0.6,2.9c0.4,0.4,0.9,0.6,1.5,0.6
			c1.1,0,1.8-0.7,2.1-1.7h0.9C183.8,79.8,182.7,80.7,181.2,80.7z"/>
		<path d="M189.8,80.1c-0.4,0.4-1,0.7-1.7,0.7c-0.7,0-1.3-0.3-1.7-0.7c-0.6-0.6-0.7-1.4-0.7-2.4c0-0.9,0.1-1.8,0.7-2.4
			c0.4-0.4,1-0.7,1.7-0.7c0.7,0,1.3,0.3,1.7,0.7c0.6,0.6,0.7,1.4,0.7,2.4C190.5,78.6,190.4,79.5,189.8,80.1z M189.2,75.9
			c-0.3-0.3-0.7-0.4-1.1-0.4c-0.4,0-0.8,0.1-1.1,0.4c-0.4,0.4-0.5,1.2-0.5,1.8c0,0.7,0,1.4,0.5,1.8c0.3,0.3,0.6,0.4,1.1,0.4
			c0.4,0,0.8-0.1,1.1-0.4c0.4-0.4,0.5-1.2,0.5-1.8C189.6,77.1,189.6,76.3,189.2,75.9z"/>
		<path d="M195.9,80.7V80c-0.5,0.6-1,0.8-1.7,0.8c-0.6,0-1.1-0.2-1.4-0.5c-0.6-0.6-0.7-1.6-0.7-2.5s0.1-1.9,0.7-2.5
			c0.3-0.3,0.8-0.5,1.4-0.5c0.7,0,1.2,0.1,1.7,0.8v-3.3h0.9v8.5H195.9z M194.4,75.5c-1.3,0-1.5,1.1-1.5,2.3s0.2,2.3,1.5,2.3
			c1.3,0,1.5-1.1,1.5-2.3S195.7,75.5,194.4,75.5z"/>
		<path d="M202.7,80.1c-0.4,0.4-1,0.7-1.7,0.7c-0.7,0-1.3-0.3-1.7-0.7c-0.6-0.6-0.7-1.4-0.7-2.4c0-0.9,0.1-1.8,0.7-2.4
			c0.4-0.4,1-0.7,1.7-0.7c0.7,0,1.3,0.3,1.7,0.7c0.6,0.6,0.7,1.4,0.7,2.4C203.4,78.6,203.3,79.5,202.7,80.1z M202.1,75.9
			c-0.3-0.3-0.7-0.4-1.1-0.4c-0.4,0-0.8,0.1-1.1,0.4c-0.4,0.4-0.5,1.2-0.5,1.8c0,0.7,0,1.4,0.5,1.8c0.3,0.3,0.6,0.4,1.1,0.4
			c0.4,0,0.8-0.1,1.1-0.4c0.4-0.4,0.5-1.2,0.5-1.8C202.5,77.1,202.5,76.3,202.1,75.9z"/>
		<path d="M209,80.7V77c0-1-0.6-1.6-1.5-1.6s-1.5,0.5-1.5,1.6v3.6h-0.9v-5.9h0.9v0.6c0.4-0.5,1-0.7,1.7-0.7c0.6,0,1.2,0.2,1.5,0.6
			c0.4,0.4,0.6,1,0.6,1.6v3.8H209z"/>
		<path d="M216.9,80.8c-1.3,0-2.4-0.7-2.5-2.3h0.9c0.1,1.1,0.8,1.5,1.6,1.5c0.9,0,1.6-0.6,1.6-1.7c0-1-0.5-1.7-1.7-1.7h-0.2v-0.8
			h0.2c1,0,1.5-0.6,1.5-1.5c0-1-0.7-1.6-1.5-1.6c-0.9,0-1.5,0.6-1.5,1.4h-0.9c0.1-1.4,1.1-2.2,2.4-2.2c1.4,0,2.4,0.9,2.4,2.3
			c0,0.9-0.4,1.5-1.2,1.9c0.9,0.3,1.3,1,1.3,2.1C219.4,79.9,218.3,80.8,216.9,80.8z"/>
	</g>
	<g>
		<path d="M233.6,80.7c-0.9,0-1.6-0.3-2.1-0.8c-0.8-0.8-0.9-1.5-0.9-3.5s0-2.7,0.9-3.5c0.5-0.5,1.2-0.8,2.1-0.8c1.5,0,2.7,0.9,3,2.5
			h-0.9c-0.2-1.1-1-1.7-2-1.7c-0.6,0-1.1,0.2-1.5,0.6c-0.5,0.6-0.6,1.2-0.6,2.9s0.1,2.4,0.6,2.9c0.4,0.4,0.9,0.6,1.5,0.6
			c1.1,0,1.8-0.7,2.1-1.7h0.9C236.2,79.8,235.1,80.7,233.6,80.7z"/>
		<path d="M242.2,80.1c-0.4,0.4-1,0.7-1.7,0.7c-0.7,0-1.3-0.3-1.7-0.7c-0.6-0.6-0.7-1.4-0.7-2.4c0-0.9,0.1-1.8,0.7-2.4
			c0.4-0.4,1-0.7,1.7-0.7c0.7,0,1.3,0.3,1.7,0.7c0.6,0.6,0.7,1.4,0.7,2.4C242.9,78.6,242.8,79.5,242.2,80.1z M241.6,75.9
			c-0.3-0.3-0.7-0.4-1.1-0.4c-0.4,0-0.8,0.1-1.1,0.4c-0.4,0.4-0.5,1.2-0.5,1.8c0,0.7,0,1.4,0.5,1.8c0.3,0.3,0.6,0.4,1.1,0.4
			c0.4,0,0.8-0.1,1.1-0.4c0.4-0.4,0.5-1.2,0.5-1.8C242,77.1,242,76.3,241.6,75.9z"/>
		<path d="M248.3,80.7V80c-0.5,0.6-1,0.8-1.7,0.8c-0.6,0-1.1-0.2-1.4-0.5c-0.6-0.6-0.7-1.6-0.7-2.5s0.1-1.9,0.7-2.5
			c0.3-0.3,0.8-0.5,1.4-0.5c0.7,0,1.2,0.1,1.7,0.8v-3.3h0.9v8.5H248.3z M246.8,75.5c-1.3,0-1.5,1.1-1.5,2.3s0.2,2.3,1.5,2.3
			c1.3,0,1.5-1.1,1.5-2.3S248.1,75.5,246.8,75.5z"/>
		<path d="M255.1,80.1c-0.4,0.4-1,0.7-1.7,0.7c-0.7,0-1.3-0.3-1.7-0.7c-0.6-0.6-0.7-1.4-0.7-2.4c0-0.9,0.1-1.8,0.7-2.4
			c0.4-0.4,1-0.7,1.7-0.7c0.7,0,1.3,0.3,1.7,0.7c0.6,0.6,0.7,1.4,0.7,2.4C255.8,78.6,255.7,79.5,255.1,80.1z M254.5,75.9
			c-0.3-0.3-0.7-0.4-1.1-0.4c-0.4,0-0.8,0.1-1.1,0.4c-0.4,0.4-0.5,1.2-0.5,1.8c0,0.7,0,1.4,0.5,1.8c0.3,0.3,0.6,0.4,1.1,0.4
			c0.4,0,0.8-0.1,1.1-0.4c0.4-0.4,0.5-1.2,0.5-1.8C254.9,77.1,254.9,76.3,254.5,75.9z"/>
		<path d="M261.4,80.7V77c0-1-0.6-1.6-1.5-1.6s-1.5,0.5-1.5,1.6v3.6h-0.9v-5.9h0.9v0.6c0.4-0.5,1-0.7,1.7-0.7c0.6,0,1.2,0.2,1.5,0.6
			c0.4,0.4,0.6,1,0.6,1.6v3.8H261.4z"/>
		<path d="M271,79.3v1.4h-0.9v-1.4h-3.4v-0.8l3.1-6.4h0.9l-3.1,6.4h2.5v-2.4h0.9v2.4h1v0.8H271z"/>
	</g>
	<g>
		<path d="M285.9,80.7c-0.9,0-1.6-0.3-2.1-0.8c-0.8-0.8-0.9-1.5-0.9-3.5s0-2.7,0.9-3.5c0.5-0.5,1.2-0.8,2.1-0.8c1.5,0,2.7,0.9,3,2.5
			H288c-0.2-1.1-1-1.7-2-1.7c-0.6,0-1.1,0.2-1.5,0.6c-0.5,0.6-0.6,1.2-0.6,2.9s0.1,2.4,0.6,2.9c0.4,0.4,0.9,0.6,1.5,0.6
			c1.1,0,1.8-0.7,2.1-1.7h0.9C288.6,79.8,287.5,80.7,285.9,80.7z"/>
		<path d="M294.6,80.1c-0.4,0.4-1,0.7-1.7,0.7c-0.7,0-1.3-0.3-1.7-0.7c-0.6-0.6-0.7-1.4-0.7-2.4c0-0.9,0.1-1.8,0.7-2.4
			c0.4-0.4,1-0.7,1.7-0.7c0.7,0,1.3,0.3,1.7,0.7c0.6,0.6,0.7,1.4,0.7,2.4C295.3,78.6,295.2,79.5,294.6,80.1z M293.9,75.9
			c-0.3-0.3-0.7-0.4-1.1-0.4c-0.4,0-0.8,0.1-1.1,0.4c-0.4,0.4-0.5,1.2-0.5,1.8c0,0.7,0,1.4,0.5,1.8c0.3,0.3,0.6,0.4,1.1,0.4
			c0.4,0,0.8-0.1,1.1-0.4c0.4-0.4,0.5-1.2,0.5-1.8C294.4,77.1,294.4,76.3,293.9,75.9z"/>
		<path d="M300.7,80.7V80c-0.5,0.6-1,0.8-1.7,0.8c-0.6,0-1.1-0.2-1.4-0.5c-0.6-0.6-0.7-1.6-0.7-2.5s0.1-1.9,0.7-2.5
			c0.3-0.3,0.8-0.5,1.4-0.5c0.7,0,1.2,0.1,1.7,0.8v-3.3h0.9v8.5H300.7z M299.2,75.5c-1.3,0-1.5,1.1-1.5,2.3s0.2,2.3,1.5,2.3
			c1.3,0,1.5-1.1,1.5-2.3S300.4,75.5,299.2,75.5z"/>
		<path d="M307.5,80.1c-0.4,0.4-1,0.7-1.7,0.7c-0.7,0-1.3-0.3-1.7-0.7c-0.6-0.6-0.7-1.4-0.7-2.4c0-0.9,0.1-1.8,0.7-2.4
			c0.4-0.4,1-0.7,1.7-0.7c0.7,0,1.3,0.3,1.7,0.7c0.6,0.6,0.7,1.4,0.7,2.4C308.2,78.6,308.1,79.5,307.5,80.1z M306.8,75.9
			c-0.3-0.3-0.7-0.4-1.1-0.4c-0.4,0-0.8,0.1-1.1,0.4c-0.4,0.4-0.5,1.2-0.5,1.8c0,0.7,0,1.4,0.5,1.8c0.3,0.3,0.6,0.4,1.1,0.4
			c0.4,0,0.8-0.1,1.1-0.4c0.4-0.4,0.5-1.2,0.5-1.8C307.3,77.1,307.3,76.3,306.8,75.9z"/>
		<path d="M313.8,80.7V77c0-1-0.6-1.6-1.5-1.6s-1.5,0.5-1.5,1.6v3.6H310v-5.9h0.9v0.6c0.4-0.5,1-0.7,1.7-0.7c0.6,0,1.2,0.2,1.5,0.6
			c0.4,0.4,0.6,1,0.6,1.6v3.8H313.8z"/>
		<path d="M323.5,80.1c-0.4,0.4-0.9,0.6-1.7,0.6c-0.7,0-1.3-0.2-1.7-0.6c-0.4-0.4-0.6-0.9-0.6-1.5h0.9c0.1,0.9,0.6,1.3,1.5,1.3
			c0.4,0,0.8-0.1,1.1-0.4c0.4-0.4,0.5-1.1,0.5-1.7c0-1-0.2-2.1-1.4-2.1c-0.7,0-1.2,0.3-1.4,0.8h-0.8v-4.5h4.3v0.8h-3.5v2.7
			c0.3-0.4,0.9-0.6,1.5-0.6c0.6,0,1.1,0.2,1.5,0.5c0.6,0.6,0.7,1.5,0.7,2.3C324.2,78.7,324.1,79.5,323.5,80.1z"/>
	</g>
	<g>
		<path d="M338.9,80.7c-0.9,0-1.6-0.3-2.1-0.8c-0.8-0.8-0.9-1.5-0.9-3.5s0-2.7,0.9-3.5c0.5-0.5,1.2-0.8,2.1-0.8c1.5,0,2.7,0.9,3,2.5
			h-0.9c-0.2-1.1-1-1.7-2-1.7c-0.6,0-1.1,0.2-1.5,0.6c-0.5,0.6-0.6,1.2-0.6,2.9s0.1,2.4,0.6,2.9c0.4,0.4,0.9,0.6,1.5,0.6
			c1.1,0,1.8-0.7,2.1-1.7h0.9C341.6,79.8,340.5,80.7,338.9,80.7z"/>
		<path d="M347.5,80.1c-0.4,0.4-1,0.7-1.7,0.7c-0.7,0-1.3-0.3-1.7-0.7c-0.6-0.6-0.7-1.4-0.7-2.4c0-0.9,0.1-1.8,0.7-2.4
			c0.4-0.4,1-0.7,1.7-0.7c0.7,0,1.3,0.3,1.7,0.7c0.6,0.6,0.7,1.4,0.7,2.4C348.3,78.6,348.1,79.5,347.5,80.1z M346.9,75.9
			c-0.3-0.3-0.7-0.4-1.1-0.4c-0.4,0-0.8,0.1-1.1,0.4c-0.4,0.4-0.5,1.2-0.5,1.8c0,0.7,0,1.4,0.5,1.8c0.3,0.3,0.6,0.4,1.1,0.4
			c0.4,0,0.8-0.1,1.1-0.4c0.4-0.4,0.5-1.2,0.5-1.8C347.4,77.1,347.4,76.3,346.9,75.9z"/>
		<path d="M353.6,80.7V80c-0.5,0.6-1,0.8-1.7,0.8c-0.6,0-1.1-0.2-1.4-0.5c-0.6-0.6-0.7-1.6-0.7-2.5s0.1-1.9,0.7-2.5
			c0.3-0.3,0.8-0.5,1.4-0.5c0.7,0,1.2,0.1,1.7,0.8v-3.3h0.9v8.5H353.6z M352.1,75.5c-1.3,0-1.5,1.1-1.5,2.3s0.2,2.3,1.5,2.3
			c1.3,0,1.5-1.1,1.5-2.3S353.4,75.5,352.1,75.5z"/>
		<path d="M360.4,80.1c-0.4,0.4-1,0.7-1.7,0.7c-0.7,0-1.3-0.3-1.7-0.7c-0.6-0.6-0.7-1.4-0.7-2.4c0-0.9,0.1-1.8,0.7-2.4
			c0.4-0.4,1-0.7,1.7-0.7c0.7,0,1.3,0.3,1.7,0.7c0.6,0.6,0.7,1.4,0.7,2.4C361.2,78.6,361,79.5,360.4,80.1z M359.8,75.9
			c-0.3-0.3-0.7-0.4-1.1-0.4c-0.4,0-0.8,0.1-1.1,0.4c-0.4,0.4-0.5,1.2-0.5,1.8c0,0.7,0,1.4,0.5,1.8c0.3,0.3,0.6,0.4,1.1,0.4
			c0.4,0,0.8-0.1,1.1-0.4c0.4-0.4,0.5-1.2,0.5-1.8C360.3,77.1,360.3,76.3,359.8,75.9z"/>
		<path d="M366.8,80.7V77c0-1-0.6-1.6-1.5-1.6s-1.5,0.5-1.5,1.6v3.6H363v-5.9h0.9v0.6c0.4-0.5,1-0.7,1.7-0.7c0.6,0,1.2,0.2,1.5,0.6
			c0.4,0.4,0.6,1,0.6,1.6v3.8H366.8z"/>
		<path d="M374.8,80.7c-1.5,0-2.4-1-2.4-2.5c0-0.6,0.2-1.2,0.5-1.9l2.1-4.2h0.9l-1.9,3.8c0.3-0.1,0.6-0.2,0.9-0.2
			c1.3,0,2.2,1,2.2,2.4C377.2,79.7,376.3,80.7,374.8,80.7z M374.8,76.5c-0.9,0-1.5,0.7-1.5,1.7c0,1,0.6,1.7,1.5,1.7
			c0.9,0,1.5-0.7,1.5-1.7C376.3,77.3,375.8,76.5,374.8,76.5z"/>
	</g>
	<g>
		<path d="M390.7,80.7c-0.9,0-1.6-0.3-2.1-0.8c-0.8-0.8-0.9-1.5-0.9-3.5s0-2.7,0.9-3.5c0.5-0.5,1.2-0.8,2.1-0.8c1.5,0,2.7,0.9,3,2.5
			h-0.9c-0.2-1.1-1-1.7-2-1.7c-0.6,0-1.1,0.2-1.5,0.6c-0.5,0.6-0.6,1.2-0.6,2.9s0.1,2.4,0.6,2.9c0.4,0.4,0.9,0.6,1.5,0.6
			c1.1,0,1.8-0.7,2.1-1.7h0.9C393.4,79.8,392.2,80.7,390.7,80.7z"/>
		<path d="M399.3,80.1c-0.4,0.4-1,0.7-1.7,0.7c-0.7,0-1.3-0.3-1.7-0.7c-0.6-0.6-0.7-1.4-0.7-2.4c0-0.9,0.1-1.8,0.7-2.4
			c0.4-0.4,1-0.7,1.7-0.7c0.7,0,1.3,0.3,1.7,0.7c0.6,0.6,0.7,1.4,0.7,2.4C400,78.6,399.9,79.5,399.3,80.1z M398.7,75.9
			c-0.3-0.3-0.7-0.4-1.1-0.4c-0.4,0-0.8,0.1-1.1,0.4c-0.4,0.4-0.5,1.2-0.5,1.8c0,0.7,0,1.4,0.5,1.8c0.3,0.3,0.6,0.4,1.1,0.4
			c0.4,0,0.8-0.1,1.1-0.4c0.4-0.4,0.5-1.2,0.5-1.8C399.2,77.1,399.1,76.3,398.7,75.9z"/>
		<path d="M405.4,80.7V80c-0.5,0.6-1,0.8-1.7,0.8c-0.6,0-1.1-0.2-1.4-0.5c-0.6-0.6-0.7-1.6-0.7-2.5s0.1-1.9,0.7-2.5
			c0.3-0.3,0.8-0.5,1.4-0.5c0.7,0,1.2,0.1,1.7,0.8v-3.3h0.9v8.5H405.4z M403.9,75.5c-1.3,0-1.5,1.1-1.5,2.3s0.2,2.3,1.5,2.3
			c1.3,0,1.5-1.1,1.5-2.3S405.2,75.5,403.9,75.5z"/>
		<path d="M412.2,80.1c-0.4,0.4-1,0.7-1.7,0.7c-0.7,0-1.3-0.3-1.7-0.7c-0.6-0.6-0.7-1.4-0.7-2.4c0-0.9,0.1-1.8,0.7-2.4
			c0.4-0.4,1-0.7,1.7-0.7c0.7,0,1.3,0.3,1.7,0.7c0.6,0.6,0.7,1.4,0.7,2.4C412.9,78.6,412.8,79.5,412.2,80.1z M411.6,75.9
			c-0.3-0.3-0.7-0.4-1.1-0.4c-0.4,0-0.8,0.1-1.1,0.4c-0.4,0.4-0.5,1.2-0.5,1.8c0,0.7,0,1.4,0.5,1.8c0.3,0.3,0.6,0.4,1.1,0.4
			c0.4,0,0.8-0.1,1.1-0.4c0.4-0.4,0.5-1.2,0.5-1.8C412.1,77.1,412,76.3,411.6,75.9z"/>
		<path d="M418.6,80.7V77c0-1-0.6-1.6-1.5-1.6s-1.5,0.5-1.5,1.6v3.6h-0.9v-5.9h0.9v0.6c0.4-0.5,1-0.7,1.7-0.7c0.6,0,1.2,0.2,1.5,0.6
			c0.4,0.4,0.6,1,0.6,1.6v3.8H418.6z"/>
		<path d="M426.1,80.7h-0.9l3-7.8h-3v1.3h-0.9v-2.1h4.7v0.8L426.1,80.7z"/>
	</g>
	<g>
		<path d="M15.8,80.7c-0.9,0-1.6-0.3-2.1-0.8c-0.8-0.8-0.9-1.5-0.9-3.5s0-2.7,0.9-3.5c0.5-0.5,1.2-0.8,2.1-0.8c1.5,0,2.7,0.9,3,2.5
			h-0.9c-0.2-1.1-1-1.7-2-1.7c-0.6,0-1.1,0.2-1.5,0.6c-0.5,0.6-0.6,1.2-0.6,2.9s0.1,2.4,0.6,2.9c0.4,0.4,0.9,0.6,1.5,0.6
			c1.1,0,1.8-0.7,2.1-1.7h0.9C18.4,79.8,17.3,80.7,15.8,80.7z"/>
		<path d="M24.4,80.1c-0.4,0.4-1,0.7-1.7,0.7c-0.7,0-1.3-0.3-1.7-0.7c-0.6-0.6-0.7-1.4-0.7-2.4c0-0.9,0.1-1.8,0.7-2.4
			c0.4-0.4,1-0.7,1.7-0.7c0.7,0,1.3,0.3,1.7,0.7c0.6,0.6,0.7,1.4,0.7,2.4C25.1,78.6,25,79.5,24.4,80.1z M23.8,75.9
			c-0.3-0.3-0.7-0.4-1.1-0.4c-0.4,0-0.8,0.1-1.1,0.4c-0.4,0.4-0.5,1.2-0.5,1.8c0,0.7,0,1.4,0.5,1.8c0.3,0.3,0.6,0.4,1.1,0.4
			c0.4,0,0.8-0.1,1.1-0.4c0.4-0.4,0.5-1.2,0.5-1.8C24.2,77.1,24.2,76.3,23.8,75.9z"/>
		<path d="M30.5,80.7V80c-0.5,0.6-1,0.8-1.7,0.8c-0.6,0-1.1-0.2-1.4-0.5c-0.6-0.6-0.7-1.6-0.7-2.5s0.1-1.9,0.7-2.5
			c0.3-0.3,0.8-0.5,1.4-0.5c0.7,0,1.2,0.1,1.7,0.8v-3.3h0.9v8.5H30.5z M29,75.5c-1.3,0-1.5,1.1-1.5,2.3S27.7,80,29,80
			c1.3,0,1.5-1.1,1.5-2.3S30.3,75.5,29,75.5z"/>
		<path d="M37.3,80.1c-0.4,0.4-1,0.7-1.7,0.7c-0.7,0-1.3-0.3-1.7-0.7c-0.6-0.6-0.7-1.4-0.7-2.4c0-0.9,0.1-1.8,0.7-2.4
			c0.4-0.4,1-0.7,1.7-0.7c0.7,0,1.3,0.3,1.7,0.7c0.6,0.6,0.7,1.4,0.7,2.4C38,78.6,37.9,79.5,37.3,80.1z M36.7,75.9
			c-0.3-0.3-0.7-0.4-1.1-0.4c-0.4,0-0.8,0.1-1.1,0.4c-0.4,0.4-0.5,1.2-0.5,1.8c0,0.7,0,1.4,0.5,1.8c0.3,0.3,0.6,0.4,1.1,0.4
			c0.4,0,0.8-0.1,1.1-0.4c0.4-0.4,0.5-1.2,0.5-1.8C37.1,77.1,37.1,76.3,36.7,75.9z"/>
		<path d="M43.6,80.7V77c0-1-0.6-1.6-1.5-1.6S40.7,76,40.7,77v3.6h-0.9v-5.9h0.9v0.6c0.4-0.5,1-0.7,1.7-0.7c0.6,0,1.2,0.2,1.5,0.6
			c0.4,0.4,0.6,1,0.6,1.6v3.8H43.6z"/>
	</g>
	<g>
		<path d="M12.1,33.2h-1.8V19.6h6.3c0.6,0,1.1,0.1,1.6,0.2c0.5,0.1,1,0.3,1.4,0.6c0.4,0.3,0.8,0.6,1,1.1s0.4,1.1,0.4,1.8
			c0,0.5-0.1,0.9-0.2,1.3s-0.3,0.7-0.4,0.9s-0.4,0.5-0.6,0.6c-0.2,0.2-0.4,0.3-0.7,0.4c0.2,0.1,0.4,0.2,0.6,0.3
			c0.2,0.1,0.4,0.2,0.5,0.4c0.2,0.2,0.3,0.4,0.4,0.7c0.1,0.3,0.2,0.7,0.2,1.1l0.1,2.5c0,0.2,0,0.4,0,0.5c0,0.1,0.1,0.3,0.1,0.4
			c0,0.1,0.1,0.2,0.2,0.3c0.1,0.1,0.2,0.2,0.3,0.2v0.3h-2.3c-0.1-0.2-0.1-0.5-0.2-0.8c0-0.3-0.1-0.7-0.1-1s0-0.7,0-1
			c0-0.3,0-0.5,0-0.6c0-0.3,0-0.6-0.1-0.9c0-0.3-0.2-0.6-0.3-0.8s-0.4-0.4-0.7-0.6c-0.3-0.1-0.8-0.2-1.3-0.2h-4.5V33.2z M12.1,25.8
			h4.3c0.3,0,0.7,0,1-0.1c0.3-0.1,0.6-0.2,0.9-0.3s0.5-0.4,0.6-0.7c0.2-0.3,0.2-0.7,0.2-1.2c0-0.5-0.1-1-0.3-1.3s-0.4-0.5-0.6-0.7
			c-0.2-0.2-0.5-0.2-0.8-0.3s-0.5-0.1-0.8-0.1h-4.6V25.8z"/>
		<path d="M32.8,19.6h1.8v13.6h-2.1l-6.9-11h0v11h-1.8V19.6H26l6.8,11h0V19.6z"/>
		<path d="M39.7,29.2l-1.4,4h-1.9l5.1-13.6h2.1l4.9,13.6h-2l-1.3-4H39.7z M44.5,27.6l-2-6h0l-2.2,6H44.5z"/>
	</g>
	<g>
		<path d="M401.5,104.1c0-0.2,0-0.4,0-0.6c0-0.2-0.1-0.4-0.1-0.5c-0.1-0.1-0.2-0.3-0.3-0.4c-0.1-0.1-0.3-0.1-0.5-0.1
			c-0.3,0-0.5,0.1-0.7,0.2s-0.3,0.3-0.3,0.6c0,0.2,0,0.3,0.1,0.4s0.1,0.2,0.2,0.3s0.2,0.2,0.3,0.3s0.2,0.2,0.4,0.2
			c0.1,0.1,0.3,0.2,0.5,0.3c0.2,0.1,0.4,0.2,0.6,0.4c0.2,0.1,0.4,0.3,0.5,0.4c0.2,0.1,0.3,0.3,0.4,0.4c0.3,0.3,0.5,0.6,0.6,0.9
			c0.1,0.3,0.2,0.6,0.2,1c0,0.4-0.1,0.8-0.2,1.1c-0.1,0.3-0.3,0.6-0.6,0.8c-0.2,0.2-0.5,0.4-0.9,0.5c-0.3,0.1-0.7,0.2-1.1,0.2
			c-0.5,0-0.9-0.1-1.3-0.2s-0.6-0.3-0.8-0.6s-0.4-0.5-0.5-0.9c-0.1-0.3-0.1-0.7-0.1-1.1v-0.7h1.7v0.5c0,0.4,0.1,0.8,0.2,1.1
			c0.2,0.3,0.4,0.4,0.9,0.4c0.7,0,1-0.4,1-1.1c0-0.3-0.1-0.5-0.2-0.7c-0.1-0.2-0.3-0.4-0.5-0.5c-0.2-0.2-0.4-0.3-0.7-0.5
			c-0.2-0.2-0.5-0.3-0.7-0.5s-0.5-0.3-0.7-0.5c-0.2-0.2-0.4-0.4-0.6-0.6c-0.3-0.4-0.4-0.9-0.4-1.4c0-0.8,0.2-1.4,0.6-1.8
			c0.4-0.4,1.1-0.6,2-0.6c0.4,0,0.8,0.1,1.1,0.2c0.3,0.1,0.5,0.2,0.7,0.4c0.2,0.2,0.3,0.4,0.4,0.6c0.1,0.2,0.2,0.4,0.2,0.6
			s0.1,0.4,0.1,0.6c0,0.2,0,0.4,0,0.5H401.5z"/>
		<path d="M406.9,110.4c-0.2,0-0.5,0-0.7,0.1s-0.5,0-0.7-0.1c-0.2-0.1-0.4-0.2-0.5-0.3c-0.1-0.2-0.2-0.4-0.2-0.7v-4.6h-0.6v-1.1h0.6
			v-1.9h1.6v1.9h0.7v1.1h-0.7v4.2c0,0.1,0,0.1,0.1,0.2c0.1,0,0.1,0.1,0.2,0.1c0.1,0,0.1,0,0.2,0c0.1,0,0.1,0,0.2,0V110.4z"/>
		<path d="M410.3,110.6c-0.5,0-0.9,0-1.2-0.2c-0.3-0.1-0.6-0.3-0.7-0.6c-0.2-0.3-0.3-0.6-0.3-1s-0.1-0.9-0.1-1.5c0-0.6,0-1.1,0-1.6
			c0-0.5,0.1-0.9,0.3-1.2c0.1-0.3,0.4-0.6,0.7-0.8c0.3-0.2,0.8-0.3,1.4-0.3c0.6,0,1,0.1,1.3,0.3c0.3,0.2,0.5,0.4,0.7,0.8
			c0.1,0.3,0.2,0.7,0.3,1.2c0,0.5,0,1,0,1.6c0,0.6,0,1.1-0.1,1.5c-0.1,0.4-0.2,0.8-0.3,1c-0.2,0.3-0.4,0.5-0.7,0.6
			C411.2,110.5,410.8,110.6,410.3,110.6z M409.5,108.2c0,0.2,0,0.4,0,0.5c0,0.1,0.1,0.3,0.1,0.4c0.1,0.1,0.1,0.2,0.2,0.2
			c0.1,0,0.3,0.1,0.5,0.1c0.2,0,0.3,0,0.4-0.1c0.1,0,0.2-0.1,0.2-0.2c0.1-0.1,0.1-0.2,0.1-0.4s0-0.3,0-0.5v-2.3c0-0.2,0-0.3,0-0.5
			c0-0.2,0-0.3-0.1-0.4s-0.1-0.2-0.2-0.3c-0.1-0.1-0.3-0.1-0.4-0.1c-0.2,0-0.4,0-0.5,0.1s-0.2,0.2-0.2,0.3s-0.1,0.3-0.1,0.4
			c0,0.2,0,0.3,0,0.5V108.2z"/>
		<path d="M415.5,104.4L415.5,104.4c0.2-0.3,0.3-0.6,0.6-0.7c0.2-0.1,0.5-0.2,0.8-0.2c0.2,0,0.5,0.1,0.7,0.1
			c0.2,0.1,0.4,0.2,0.5,0.4c0.1,0.2,0.2,0.4,0.3,0.7c0.1,0.3,0.1,0.7,0.1,1.2v2.4c0,0.3,0,0.5-0.1,0.8c0,0.3-0.1,0.5-0.2,0.7
			s-0.3,0.4-0.5,0.5c-0.2,0.1-0.5,0.2-0.8,0.2c-0.3,0-0.6-0.1-0.8-0.2c-0.2-0.1-0.4-0.3-0.6-0.7h0v3H414v-9h1.6V104.4z M415.5,108.2
			c0,0.8,0.3,1.2,0.8,1.2c0.2,0,0.4-0.1,0.5-0.3c0.1-0.2,0.2-0.5,0.2-0.8V106c0-0.2,0-0.3,0-0.5s0-0.3-0.1-0.4s-0.1-0.2-0.2-0.3
			c-0.1-0.1-0.2-0.1-0.4-0.1c-0.2,0-0.3,0.1-0.4,0.2c-0.1,0.1-0.2,0.2-0.2,0.4s-0.1,0.3-0.1,0.5s0,0.3,0,0.5V108.2z"/>
	</g>
	<g>
		<path d="M2.8,110.4l2.1-9h2.3l2,9H7.4L7,108.1H5l-0.4,2.3H2.8z M5.3,106.8h1.4l-0.5-2.6c0-0.2-0.1-0.4-0.1-0.6
			c0-0.2,0-0.4-0.1-0.6c0-0.1,0-0.2,0-0.3s0-0.2,0-0.3h0c0,0.1,0,0.2,0,0.3c0,0.1,0,0.2,0,0.3c0,0.2,0,0.4-0.1,0.6
			c0,0.2-0.1,0.4-0.1,0.6L5.3,106.8z"/>
		<path d="M11.7,104.3L11.7,104.3c0.1-0.2,0.2-0.3,0.3-0.4c0.1-0.1,0.2-0.2,0.4-0.3c0.1-0.1,0.3-0.1,0.4-0.1c0.1,0,0.3,0,0.4,0
			c0.1,0,0.3,0,0.5,0c0.2,0,0.3,0.1,0.4,0.2c0.1,0.1,0.3,0.2,0.4,0.3c0.1,0.1,0.2,0.2,0.2,0.4h0c0.2-0.3,0.4-0.5,0.6-0.7
			c0.3-0.1,0.6-0.2,1-0.2c0.3,0,0.5,0,0.7,0.1s0.4,0.2,0.5,0.3c0.1,0.1,0.2,0.3,0.3,0.5c0.1,0.2,0.1,0.4,0.1,0.5v5.5h-1.6v-4.6
			c0-0.2,0-0.3,0-0.4c0-0.1,0-0.3-0.1-0.4c-0.1-0.1-0.1-0.2-0.2-0.3c-0.1-0.1-0.2-0.1-0.4-0.1c-0.3,0-0.6,0.1-0.6,0.4
			c-0.1,0.2-0.1,0.5-0.1,0.9v4.5h-1.6v-4.7c0-0.2,0-0.3,0-0.4s0-0.2-0.1-0.3c-0.1-0.1-0.1-0.2-0.2-0.2c-0.1-0.1-0.2-0.1-0.4-0.1
			c-0.2,0-0.3,0-0.4,0.1c-0.1,0.1-0.2,0.2-0.2,0.3s-0.1,0.2-0.1,0.4s0,0.3,0,0.5v4.5h-1.6v-6.8h1.6V104.3z"/>
		<path d="M19.6,102.8v-1.4h1.6v1.4H19.6z M19.6,110.4v-6.8h1.6v6.8H19.6z"/>
		<path d="M24.3,104.3L24.3,104.3c0.1-0.2,0.2-0.3,0.3-0.5c0.1-0.1,0.3-0.2,0.4-0.3c0.1-0.1,0.3-0.1,0.4-0.1c0.1,0,0.2,0,0.3,0
			c0.2,0,0.4,0,0.6,0.1c0.2,0.1,0.4,0.2,0.5,0.3c0.1,0.1,0.3,0.3,0.3,0.5s0.1,0.5,0.1,0.8v5.2h-1.6v-4.5c0-0.3,0-0.6-0.1-0.8
			c-0.1-0.2-0.3-0.3-0.6-0.3c-0.3,0-0.5,0.1-0.6,0.3c-0.1,0.2-0.2,0.5-0.2,0.9v4.4h-1.6v-6.8h1.6V104.3z"/>
		<path d="M31,110.6c-0.5,0-0.9,0-1.2-0.2c-0.3-0.1-0.6-0.3-0.7-0.6c-0.2-0.3-0.3-0.6-0.3-1s-0.1-0.9-0.1-1.5c0-0.6,0-1.1,0-1.6
			c0-0.5,0.1-0.9,0.3-1.2c0.1-0.3,0.4-0.6,0.7-0.8c0.3-0.2,0.8-0.3,1.4-0.3c0.6,0,1,0.1,1.3,0.3c0.3,0.2,0.5,0.4,0.7,0.8
			c0.1,0.3,0.2,0.7,0.3,1.2c0,0.5,0,1,0,1.6c0,0.6,0,1.1-0.1,1.5c-0.1,0.4-0.2,0.8-0.3,1c-0.2,0.3-0.4,0.5-0.7,0.6
			C32,110.5,31.5,110.6,31,110.6z M30.2,108.2c0,0.2,0,0.4,0,0.5c0,0.1,0.1,0.3,0.1,0.4c0.1,0.1,0.1,0.2,0.2,0.2
			c0.1,0,0.3,0.1,0.5,0.1c0.2,0,0.3,0,0.4-0.1c0.1,0,0.2-0.1,0.2-0.2c0.1-0.1,0.1-0.2,0.1-0.4s0-0.3,0-0.5v-2.3c0-0.2,0-0.3,0-0.5
			c0-0.2,0-0.3-0.1-0.4s-0.1-0.2-0.2-0.3c-0.1-0.1-0.3-0.1-0.4-0.1c-0.2,0-0.4,0-0.5,0.1s-0.2,0.2-0.2,0.3s-0.1,0.3-0.1,0.4
			c0,0.2,0,0.3,0,0.5V108.2z"/>
		<path d="M37.8,110.4c-0.1-0.1-0.1-0.2-0.1-0.3s0-0.2,0-0.4h0c-0.1,0.1-0.2,0.3-0.3,0.4c-0.1,0.1-0.2,0.2-0.3,0.3
			c-0.2,0.2-0.5,0.2-0.7,0.2c-0.6,0-1.1-0.2-1.4-0.5c-0.3-0.3-0.4-0.8-0.4-1.5c0-0.4,0.1-0.7,0.2-1s0.3-0.5,0.5-0.6s0.5-0.3,0.7-0.4
			c0.3-0.1,0.6-0.3,0.9-0.4c0.3-0.1,0.6-0.3,0.7-0.5c0.1-0.2,0.1-0.4,0.1-0.7c0-0.2-0.1-0.2-0.2-0.3c-0.1,0-0.3-0.1-0.5-0.1
			c-0.4,0-0.6,0.1-0.7,0.3c-0.1,0.2-0.1,0.4-0.1,0.7h-1.5c0-0.3,0-0.6,0.1-0.9c0.1-0.3,0.2-0.5,0.4-0.7s0.4-0.3,0.7-0.5
			c0.3-0.1,0.7-0.2,1.2-0.2c0.5,0,0.9,0.1,1.2,0.2s0.5,0.3,0.7,0.5c0.1,0.2,0.2,0.4,0.3,0.6c0,0.2,0,0.5,0,0.7v4
			c0,0.3,0,0.6,0.1,0.9H37.8z M37.6,106.8c-0.2,0.1-0.4,0.3-0.6,0.4c-0.2,0.1-0.4,0.3-0.6,0.5c-0.1,0.1-0.2,0.2-0.2,0.4
			c0,0.2,0,0.3,0,0.4c0,0.3,0,0.5,0.1,0.6s0.3,0.2,0.6,0.2c0.2,0,0.4-0.1,0.5-0.2c0.1-0.1,0.2-0.3,0.2-0.5c0-0.2,0.1-0.4,0.1-0.6
			c0-0.2,0-0.4,0-0.6V106.8z"/>
		<path d="M43.3,106v-0.8c0-0.4-0.2-0.6-0.5-0.6c-0.2,0-0.3,0-0.3,0.1s-0.1,0.2-0.2,0.3s-0.1,0.3-0.1,0.5c0,0.2,0,0.4,0,0.6v1.6
			c0,0.3,0,0.6,0,0.8c0,0.2,0,0.4,0.1,0.5c0,0.1,0.1,0.2,0.2,0.2c0.1,0,0.2,0.1,0.3,0.1c0.1,0,0.2,0,0.3-0.1
			c0.1-0.1,0.1-0.1,0.2-0.2c0-0.1,0.1-0.2,0.1-0.3c0-0.1,0-0.2,0-0.4v-0.6h1.6v0.6c0,0.7-0.2,1.3-0.5,1.6c-0.3,0.4-0.9,0.6-1.6,0.6
			c-0.3,0-0.7,0-0.9-0.1c-0.3-0.1-0.5-0.2-0.7-0.5c-0.2-0.2-0.3-0.5-0.4-0.8c-0.1-0.3-0.1-0.7-0.1-1.2v-2.2c0-0.5,0.1-0.9,0.2-1.2
			c0.1-0.3,0.3-0.6,0.4-0.7c0.2-0.2,0.4-0.3,0.7-0.4c0.3-0.1,0.5-0.1,0.8-0.1c0.4,0,0.7,0.1,1,0.2c0.3,0.1,0.5,0.3,0.7,0.5
			c0.2,0.2,0.3,0.4,0.4,0.6c0.1,0.2,0.1,0.5,0.1,0.7v0.5H43.3z"/>
		<path d="M46.2,102.8v-1.4h1.6v1.4H46.2z M46.2,110.4v-6.8h1.6v6.8H46.2z"/>
		<path d="M52.3,109.7L52.3,109.7c-0.2,0.3-0.4,0.6-0.6,0.7c-0.2,0.1-0.5,0.2-0.8,0.2c-0.3,0-0.6-0.1-0.8-0.2
			c-0.2-0.1-0.4-0.3-0.5-0.5s-0.2-0.5-0.3-0.7c0-0.3-0.1-0.5-0.1-0.8v-2.4c0-0.5,0-0.8,0.1-1.2c0.1-0.3,0.2-0.6,0.3-0.7
			c0.1-0.2,0.3-0.3,0.5-0.4c0.2-0.1,0.4-0.1,0.7-0.1c0.3,0,0.6,0.1,0.8,0.2s0.4,0.4,0.6,0.7h0c0-0.2,0-0.4,0-0.6v-2.3h1.6v9h-1.6
			V109.7z M52.3,106.2c0-0.1,0-0.3,0-0.5s0-0.3-0.1-0.5s-0.1-0.3-0.2-0.4c-0.1-0.1-0.2-0.2-0.4-0.2c-0.2,0-0.3,0-0.4,0.1
			c-0.1,0.1-0.2,0.2-0.2,0.3s-0.1,0.3-0.1,0.4s0,0.3,0,0.5v2.3c0,0.3,0.1,0.6,0.2,0.8c0.1,0.2,0.3,0.3,0.5,0.3
			c0.5,0,0.8-0.4,0.8-1.2V106.2z"/>
	</g>
	<g>
		<path d="M344.7,104.1c0-0.2,0-0.4,0-0.6c0-0.2-0.1-0.4-0.1-0.5c-0.1-0.1-0.2-0.3-0.3-0.4c-0.1-0.1-0.3-0.1-0.5-0.1
			c-0.3,0-0.5,0.1-0.7,0.2s-0.3,0.3-0.3,0.6c0,0.2,0,0.3,0.1,0.4s0.1,0.2,0.2,0.3s0.2,0.2,0.3,0.3s0.2,0.2,0.4,0.2
			c0.1,0.1,0.3,0.2,0.5,0.3c0.2,0.1,0.4,0.2,0.6,0.4c0.2,0.1,0.4,0.3,0.5,0.4c0.2,0.1,0.3,0.3,0.4,0.4c0.3,0.3,0.5,0.6,0.6,0.9
			c0.1,0.3,0.2,0.6,0.2,1c0,0.4-0.1,0.8-0.2,1.1c-0.1,0.3-0.3,0.6-0.6,0.8c-0.2,0.2-0.5,0.4-0.9,0.5c-0.3,0.1-0.7,0.2-1.1,0.2
			c-0.5,0-0.9-0.1-1.3-0.2s-0.6-0.3-0.8-0.6s-0.4-0.5-0.5-0.9c-0.1-0.3-0.1-0.7-0.1-1.1v-0.7h1.7v0.5c0,0.4,0.1,0.8,0.2,1.1
			c0.2,0.3,0.4,0.4,0.9,0.4c0.7,0,1-0.4,1-1.1c0-0.3-0.1-0.5-0.2-0.7c-0.1-0.2-0.3-0.4-0.5-0.5c-0.2-0.2-0.4-0.3-0.7-0.5
			c-0.2-0.2-0.5-0.3-0.7-0.5s-0.5-0.3-0.7-0.5c-0.2-0.2-0.4-0.4-0.6-0.6c-0.3-0.4-0.4-0.9-0.4-1.4c0-0.8,0.2-1.4,0.6-1.8
			c0.4-0.4,1.1-0.6,2-0.6c0.4,0,0.8,0.1,1.1,0.2c0.3,0.1,0.5,0.2,0.7,0.4c0.2,0.2,0.3,0.4,0.4,0.6c0.1,0.2,0.2,0.4,0.2,0.6
			s0.1,0.4,0.1,0.6c0,0.2,0,0.4,0,0.5H344.7z"/>
		<path d="M347.8,106c0-0.8,0.1-1.4,0.5-1.9c0.4-0.4,1-0.7,1.8-0.7c0.5,0,1,0.1,1.3,0.2c0.3,0.1,0.6,0.3,0.7,0.6
			c0.2,0.3,0.3,0.6,0.3,0.9s0.1,0.8,0.1,1.2v0.9h-3.1v1c0,0.2,0,0.4,0.1,0.5c0,0.1,0.1,0.2,0.2,0.3c0.1,0.1,0.2,0.1,0.3,0.2
			c0.1,0,0.2,0,0.3,0c0.3,0,0.5-0.1,0.6-0.3c0.1-0.2,0.1-0.5,0.1-1h1.6c0,0.4,0,0.7-0.1,1c-0.1,0.3-0.2,0.6-0.4,0.8
			s-0.4,0.4-0.7,0.5c-0.3,0.1-0.6,0.2-1,0.2c-0.9,0-1.5-0.2-1.9-0.7c-0.4-0.4-0.6-1.2-0.6-2.2V106z M350.9,106.2v-0.6
			c0-0.3-0.1-0.6-0.2-0.7c-0.1-0.1-0.3-0.2-0.6-0.2c-0.2,0-0.3,0-0.4,0.1c-0.1,0.1-0.2,0.2-0.2,0.3c0,0.1-0.1,0.2-0.1,0.4
			c0,0.1,0,0.3,0,0.4v0.3H350.9z"/>
		<path d="M355.4,104.8L355.4,104.8c0.1-0.2,0.2-0.4,0.3-0.6c0.1-0.1,0.2-0.3,0.3-0.4c0.2-0.2,0.4-0.3,0.6-0.3c0.2,0,0.3,0,0.4,0
			v1.8c-0.2,0-0.4,0-0.6,0c-0.2,0-0.3,0.1-0.5,0.2c-0.1,0.1-0.2,0.2-0.3,0.4c-0.1,0.2-0.1,0.4-0.1,0.6v3.9h-1.6v-6.8h1.5V104.8z"/>
		<path d="M358,102.8v-1.4h1.6v1.4H358z M358,110.4v-6.8h1.6v6.8H358z"/>
		<path d="M362.8,104.3L362.8,104.3c0.1-0.2,0.2-0.3,0.3-0.5c0.1-0.1,0.3-0.2,0.4-0.3c0.1-0.1,0.3-0.1,0.4-0.1c0.1,0,0.2,0,0.3,0
			c0.2,0,0.4,0,0.6,0.1c0.2,0.1,0.4,0.2,0.5,0.3c0.1,0.1,0.3,0.3,0.3,0.5s0.1,0.5,0.1,0.8v5.2h-1.6v-4.5c0-0.3,0-0.6-0.1-0.8
			c-0.1-0.2-0.3-0.3-0.6-0.3c-0.3,0-0.5,0.1-0.6,0.3c-0.1,0.2-0.2,0.5-0.2,0.9v4.4h-1.6v-6.8h1.6V104.3z"/>
		<path d="M367.1,106c0-0.8,0.1-1.4,0.5-1.9c0.4-0.4,1-0.7,1.8-0.7c0.5,0,1,0.1,1.3,0.2c0.3,0.1,0.6,0.3,0.7,0.6
			c0.2,0.3,0.3,0.6,0.3,0.9s0.1,0.8,0.1,1.2v0.9h-3.1v1c0,0.2,0,0.4,0.1,0.5c0,0.1,0.1,0.2,0.2,0.3c0.1,0.1,0.2,0.1,0.3,0.2
			c0.1,0,0.2,0,0.3,0c0.3,0,0.5-0.1,0.6-0.3c0.1-0.2,0.1-0.5,0.1-1h1.6c0,0.4,0,0.7-0.1,1c-0.1,0.3-0.2,0.6-0.4,0.8
			s-0.4,0.4-0.7,0.5c-0.3,0.1-0.6,0.2-1,0.2c-0.9,0-1.5-0.2-1.9-0.7c-0.4-0.4-0.6-1.2-0.6-2.2V106z M370.2,106.2v-0.6
			c0-0.3-0.1-0.6-0.2-0.7c-0.1-0.1-0.3-0.2-0.6-0.2c-0.2,0-0.3,0-0.4,0.1c-0.1,0.1-0.2,0.2-0.2,0.3c0,0.1-0.1,0.2-0.1,0.4
			c0,0.1,0,0.3,0,0.4v0.3H370.2z"/>
	</g>
	<g>
		<path d="M282.9,110.4l2.1-9h2.3l2,9h-1.8l-0.4-2.3h-2l-0.4,2.3H282.9z M285.4,106.8h1.4l-0.5-2.6c0-0.2-0.1-0.4-0.1-0.6
			c0-0.2,0-0.4-0.1-0.6c0-0.1,0-0.2,0-0.3s0-0.2,0-0.3h0c0,0.1,0,0.2,0,0.3c0,0.1,0,0.2,0,0.3c0,0.2,0,0.4-0.1,0.6
			c0,0.2-0.1,0.4-0.1,0.6L285.4,106.8z"/>
		<path d="M291.7,104.8L291.7,104.8c0.1-0.2,0.2-0.4,0.3-0.6c0.1-0.1,0.2-0.3,0.3-0.4c0.2-0.2,0.4-0.3,0.6-0.3c0.2,0,0.3,0,0.4,0
			v1.8c-0.2,0-0.4,0-0.6,0c-0.2,0-0.3,0.1-0.5,0.2c-0.1,0.1-0.2,0.2-0.3,0.4c-0.1,0.2-0.1,0.4-0.1,0.6v3.9h-1.6v-6.8h1.5V104.8z"/>
		<path d="M295.8,111.2c0,0.1,0.1,0.2,0.2,0.3c0.1,0,0.1,0.1,0.2,0.1c0.1,0,0.2,0,0.3,0c0.2,0,0.3,0,0.4-0.1
			c0.1-0.1,0.2-0.1,0.2-0.2c0.1-0.1,0.1-0.2,0.1-0.3c0-0.1,0-0.3,0-0.4v-0.8l0,0c-0.2,0.3-0.4,0.6-0.6,0.7c-0.2,0.1-0.5,0.2-0.8,0.2
			c-0.3,0-0.6-0.1-0.8-0.2c-0.2-0.1-0.4-0.3-0.5-0.5s-0.2-0.5-0.2-0.7c0-0.3-0.1-0.5-0.1-0.8v-2.4c0-0.5,0-0.8,0.1-1.2
			c0.1-0.3,0.2-0.6,0.3-0.7c0.1-0.2,0.3-0.3,0.5-0.4c0.2-0.1,0.4-0.1,0.7-0.1c0.7,0,1.1,0.3,1.4,0.9h0v-0.7h1.6v6.6
			c0,0.3,0,0.7-0.1,1c-0.1,0.3-0.2,0.6-0.4,0.8c-0.2,0.2-0.4,0.4-0.8,0.5s-0.8,0.2-1.3,0.2c-0.3,0-0.5,0-0.7-0.1
			c-0.2-0.1-0.4-0.1-0.6-0.3s-0.3-0.3-0.4-0.5c-0.1-0.2-0.2-0.4-0.2-0.7H295.8z M297.1,105.7c0-0.2,0-0.3-0.1-0.5s-0.1-0.3-0.2-0.4
			c-0.1-0.1-0.2-0.2-0.4-0.2c-0.2,0-0.3,0-0.4,0.1c-0.1,0.1-0.2,0.2-0.2,0.3s-0.1,0.3-0.1,0.4s0,0.3,0,0.5v2.3
			c0,0.3,0.1,0.6,0.2,0.8c0.1,0.2,0.3,0.3,0.5,0.3c0.5,0,0.8-0.4,0.8-1.2v-2C297.1,106,297.1,105.9,297.1,105.7z"/>
		<path d="M300.4,102.8v-1.4h1.6v1.4H300.4z M300.4,110.4v-6.8h1.6v6.8H300.4z"/>
		<path d="M305.1,104.3L305.1,104.3c0.1-0.2,0.2-0.3,0.3-0.5c0.1-0.1,0.3-0.2,0.4-0.3c0.1-0.1,0.3-0.1,0.4-0.1c0.1,0,0.2,0,0.3,0
			c0.2,0,0.4,0,0.6,0.1c0.2,0.1,0.4,0.2,0.5,0.3c0.1,0.1,0.3,0.3,0.3,0.5s0.1,0.5,0.1,0.8v5.2h-1.6v-4.5c0-0.3,0-0.6-0.1-0.8
			c-0.1-0.2-0.3-0.3-0.6-0.3c-0.3,0-0.5,0.1-0.6,0.3c-0.1,0.2-0.2,0.5-0.2,0.9v4.4h-1.6v-6.8h1.6V104.3z"/>
		<path d="M309.7,102.8v-1.4h1.6v1.4H309.7z M309.7,110.4v-6.8h1.6v6.8H309.7z"/>
		<path d="M314.5,104.3L314.5,104.3c0.1-0.2,0.2-0.3,0.3-0.5c0.1-0.1,0.3-0.2,0.4-0.3c0.1-0.1,0.3-0.1,0.4-0.1c0.1,0,0.2,0,0.3,0
			c0.2,0,0.4,0,0.6,0.1c0.2,0.1,0.4,0.2,0.5,0.3c0.1,0.1,0.3,0.3,0.3,0.5s0.1,0.5,0.1,0.8v5.2h-1.6v-4.5c0-0.3,0-0.6-0.1-0.8
			c-0.1-0.2-0.3-0.3-0.6-0.3c-0.3,0-0.5,0.1-0.6,0.3c-0.1,0.2-0.2,0.5-0.2,0.9v4.4h-1.6v-6.8h1.6V104.3z"/>
		<path d="M318.8,106c0-0.8,0.1-1.4,0.5-1.9c0.4-0.4,1-0.7,1.8-0.7c0.5,0,1,0.1,1.3,0.2c0.3,0.1,0.6,0.3,0.7,0.6
			c0.2,0.3,0.3,0.6,0.3,0.9s0.1,0.8,0.1,1.2v0.9h-3.1v1c0,0.2,0,0.4,0.1,0.5c0,0.1,0.1,0.2,0.2,0.3c0.1,0.1,0.2,0.1,0.3,0.2
			c0.1,0,0.2,0,0.3,0c0.3,0,0.5-0.1,0.6-0.3c0.1-0.2,0.1-0.5,0.1-1h1.6c0,0.4,0,0.7-0.1,1c-0.1,0.3-0.2,0.6-0.4,0.8
			s-0.4,0.4-0.7,0.5c-0.3,0.1-0.6,0.2-1,0.2c-0.9,0-1.5-0.2-1.9-0.7c-0.4-0.4-0.6-1.2-0.6-2.2V106z M321.9,106.2v-0.6
			c0-0.3-0.1-0.6-0.2-0.7c-0.1-0.1-0.3-0.2-0.6-0.2c-0.2,0-0.3,0-0.4,0.1c-0.1,0.1-0.2,0.2-0.2,0.3c0,0.1-0.1,0.2-0.1,0.4
			c0,0.1,0,0.3,0,0.4v0.3H321.9z"/>
	</g>
	<g>
		<path d="M232.6,110.4v-9h1.7v7.7h3.1v1.3H232.6z"/>
		<path d="M238.4,106c0-0.8,0.1-1.4,0.5-1.9c0.4-0.4,1-0.7,1.8-0.7c0.5,0,1,0.1,1.3,0.2c0.3,0.1,0.6,0.3,0.7,0.6
			c0.2,0.3,0.3,0.6,0.3,0.9s0.1,0.8,0.1,1.2v0.9H240v1c0,0.2,0,0.4,0.1,0.5c0,0.1,0.1,0.2,0.2,0.3c0.1,0.1,0.2,0.1,0.3,0.2
			c0.1,0,0.2,0,0.3,0c0.3,0,0.5-0.1,0.6-0.3c0.1-0.2,0.1-0.5,0.1-1h1.6c0,0.4,0,0.7-0.1,1c-0.1,0.3-0.2,0.6-0.4,0.8
			s-0.4,0.4-0.7,0.5c-0.3,0.1-0.6,0.2-1,0.2c-0.9,0-1.5-0.2-1.9-0.7c-0.4-0.4-0.6-1.2-0.6-2.2V106z M241.5,106.2v-0.6
			c0-0.3-0.1-0.6-0.2-0.7c-0.1-0.1-0.3-0.2-0.6-0.2c-0.2,0-0.3,0-0.4,0.1c-0.1,0.1-0.2,0.2-0.2,0.3c0,0.1-0.1,0.2-0.1,0.4
			c0,0.1,0,0.3,0,0.4v0.3H241.5z"/>
		<path d="M247.5,109.4L247.5,109.4c-0.3,0.8-0.7,1.2-1.5,1.2c-0.3,0-0.6,0-0.8-0.1c-0.2-0.1-0.4-0.2-0.5-0.3
			c-0.1-0.2-0.2-0.3-0.2-0.6s-0.1-0.5-0.1-0.8v-5.2h1.6v4.6c0,0.2,0,0.3,0,0.5s0.1,0.3,0.1,0.4c0.1,0.1,0.3,0.2,0.5,0.2
			c0.2,0,0.3,0,0.4-0.1c0.1-0.1,0.2-0.2,0.2-0.3c0-0.1,0.1-0.3,0.1-0.4c0-0.2,0-0.3,0-0.4v-4.4h1.6v6.8h-1.5V109.4z"/>
		<path d="M253.1,106v-0.8c0-0.4-0.2-0.6-0.5-0.6c-0.2,0-0.3,0-0.3,0.1s-0.1,0.2-0.2,0.3s-0.1,0.3-0.1,0.5c0,0.2,0,0.4,0,0.6v1.6
			c0,0.3,0,0.6,0,0.8c0,0.2,0,0.4,0.1,0.5c0,0.1,0.1,0.2,0.2,0.2c0.1,0,0.2,0.1,0.3,0.1c0.1,0,0.2,0,0.3-0.1
			c0.1-0.1,0.1-0.1,0.2-0.2c0-0.1,0.1-0.2,0.1-0.3c0-0.1,0-0.2,0-0.4v-0.6h1.6v0.6c0,0.7-0.2,1.3-0.5,1.6c-0.3,0.4-0.9,0.6-1.6,0.6
			c-0.3,0-0.7,0-0.9-0.1c-0.3-0.1-0.5-0.2-0.7-0.5c-0.2-0.2-0.3-0.5-0.4-0.8c-0.1-0.3-0.1-0.7-0.1-1.2v-2.2c0-0.5,0.1-0.9,0.2-1.2
			c0.1-0.3,0.3-0.6,0.4-0.7c0.2-0.2,0.4-0.3,0.7-0.4c0.3-0.1,0.5-0.1,0.8-0.1c0.4,0,0.7,0.1,1,0.2c0.3,0.1,0.5,0.3,0.7,0.5
			c0.2,0.2,0.3,0.4,0.4,0.6c0.1,0.2,0.1,0.5,0.1,0.7v0.5H253.1z"/>
		<path d="M256,102.8v-1.4h1.6v1.4H256z M256,110.4v-6.8h1.6v6.8H256z"/>
		<path d="M260.7,104.3L260.7,104.3c0.1-0.2,0.2-0.3,0.3-0.5c0.1-0.1,0.3-0.2,0.4-0.3c0.1-0.1,0.3-0.1,0.4-0.1c0.1,0,0.2,0,0.3,0
			c0.2,0,0.4,0,0.6,0.1c0.2,0.1,0.4,0.2,0.5,0.3c0.1,0.1,0.3,0.3,0.3,0.5s0.1,0.5,0.1,0.8v5.2h-1.6v-4.5c0-0.3,0-0.6-0.1-0.8
			c-0.1-0.2-0.3-0.3-0.6-0.3c-0.3,0-0.5,0.1-0.6,0.3c-0.1,0.2-0.2,0.5-0.2,0.9v4.4h-1.6v-6.8h1.6V104.3z"/>
		<path d="M265.1,106c0-0.8,0.1-1.4,0.5-1.9c0.4-0.4,1-0.7,1.8-0.7c0.5,0,1,0.1,1.3,0.2c0.3,0.1,0.6,0.3,0.7,0.6
			c0.2,0.3,0.3,0.6,0.3,0.9s0.1,0.8,0.1,1.2v0.9h-3.1v1c0,0.2,0,0.4,0.1,0.5c0,0.1,0.1,0.2,0.2,0.3c0.1,0.1,0.2,0.1,0.3,0.2
			c0.1,0,0.2,0,0.3,0c0.3,0,0.5-0.1,0.6-0.3c0.1-0.2,0.1-0.5,0.1-1h1.6c0,0.4,0,0.7-0.1,1c-0.1,0.3-0.2,0.6-0.4,0.8
			s-0.4,0.4-0.7,0.5c-0.3,0.1-0.6,0.2-1,0.2c-0.9,0-1.5-0.2-1.9-0.7c-0.4-0.4-0.6-1.2-0.6-2.2V106z M268.2,106.2v-0.6
			c0-0.3-0.1-0.6-0.2-0.7c-0.1-0.1-0.3-0.2-0.6-0.2c-0.2,0-0.3,0-0.4,0.1c-0.1,0.1-0.2,0.2-0.2,0.3c0,0.1-0.1,0.2-0.1,0.4
			c0,0.1,0,0.3,0,0.4v0.3H268.2z"/>
	</g>
	<g>
		<path d="M175,105.2c0-0.6,0.1-1.1,0.1-1.6c0.1-0.5,0.2-0.9,0.4-1.3c0.2-0.4,0.5-0.6,0.9-0.8c0.4-0.2,0.9-0.3,1.6-0.3
			c0.4,0,0.7,0,1,0.1c0.3,0.1,0.6,0.2,0.8,0.3c0.2,0.1,0.4,0.3,0.6,0.6c0.2,0.2,0.3,0.6,0.4,1c0,0.2,0.1,0.4,0.1,0.5
			c0,0.2,0,0.4,0,0.5h-1.7c0-0.2,0-0.4,0-0.6c0-0.2-0.1-0.4-0.2-0.5c-0.1-0.2-0.2-0.3-0.4-0.4c-0.2-0.1-0.4-0.1-0.7-0.2
			c-0.3,0-0.6,0.1-0.7,0.3c-0.2,0.2-0.3,0.4-0.4,0.6c-0.1,0.2-0.1,0.5-0.1,0.7c0,0.3,0,0.5,0,0.6v2.5c0,0.2,0,0.4,0,0.6
			c0,0.2,0.1,0.4,0.1,0.6c0.1,0.2,0.2,0.4,0.4,0.5s0.4,0.2,0.7,0.2c0.2,0,0.4-0.1,0.6-0.2s0.3-0.3,0.4-0.5c0.1-0.2,0.2-0.5,0.2-0.8
			s0-0.6,0-0.9H178v-1.3h2.8v4.8h-1.3v-1h0c-0.1,0.2-0.2,0.4-0.3,0.6s-0.2,0.3-0.4,0.4c-0.1,0.1-0.3,0.2-0.4,0.2
			c-0.2,0-0.3,0.1-0.5,0.1c-0.7,0-1.2-0.1-1.6-0.3c-0.4-0.2-0.7-0.5-0.9-0.9c-0.2-0.4-0.3-0.8-0.4-1.3c0-0.5-0.1-1.1-0.1-1.7V105.2z
			"/>
		<path d="M182.3,110.4v-9h1.6v9H182.3z"/>
		<path d="M188.2,109.4L188.2,109.4c-0.3,0.8-0.7,1.2-1.5,1.2c-0.3,0-0.6,0-0.8-0.1c-0.2-0.1-0.4-0.2-0.5-0.3
			c-0.1-0.2-0.2-0.3-0.2-0.6s-0.1-0.5-0.1-0.8v-5.2h1.6v4.6c0,0.2,0,0.3,0,0.5s0.1,0.3,0.1,0.4c0.1,0.1,0.3,0.2,0.5,0.2
			c0.2,0,0.3,0,0.4-0.1c0.1-0.1,0.2-0.2,0.2-0.3c0-0.1,0.1-0.3,0.1-0.4c0-0.2,0-0.3,0-0.4v-4.4h1.6v6.8h-1.5V109.4z"/>
		<path d="M193.3,110.4c-0.2,0-0.5,0-0.7,0.1s-0.5,0-0.7-0.1c-0.2-0.1-0.4-0.2-0.5-0.3c-0.1-0.2-0.2-0.4-0.2-0.7v-4.6h-0.6v-1.1h0.6
			v-1.9h1.6v1.9h0.7v1.1h-0.7v4.2c0,0.1,0,0.1,0.1,0.2c0.1,0,0.1,0.1,0.2,0.1c0.1,0,0.1,0,0.2,0c0.1,0,0.1,0,0.2,0V110.4z"/>
		<path d="M197.2,110.4c-0.1-0.1-0.1-0.2-0.1-0.3s0-0.2,0-0.4h0c-0.1,0.1-0.2,0.3-0.3,0.4c-0.1,0.1-0.2,0.2-0.3,0.3
			c-0.2,0.2-0.5,0.2-0.7,0.2c-0.6,0-1.1-0.2-1.4-0.5c-0.3-0.3-0.4-0.8-0.4-1.5c0-0.4,0.1-0.7,0.2-1s0.3-0.5,0.5-0.6s0.5-0.3,0.7-0.4
			c0.3-0.1,0.6-0.3,0.9-0.4c0.3-0.1,0.6-0.3,0.7-0.5c0.1-0.2,0.1-0.4,0.1-0.7c0-0.2-0.1-0.2-0.2-0.3c-0.1,0-0.3-0.1-0.5-0.1
			c-0.4,0-0.6,0.1-0.7,0.3c-0.1,0.2-0.1,0.4-0.1,0.7h-1.5c0-0.3,0-0.6,0.1-0.9c0.1-0.3,0.2-0.5,0.4-0.7s0.4-0.3,0.7-0.5
			c0.3-0.1,0.7-0.2,1.2-0.2c0.5,0,0.9,0.1,1.2,0.2s0.5,0.3,0.7,0.5c0.1,0.2,0.2,0.4,0.3,0.6c0,0.2,0,0.5,0,0.7v4
			c0,0.3,0,0.6,0.1,0.9H197.2z M197,106.8c-0.2,0.1-0.4,0.3-0.6,0.4c-0.2,0.1-0.4,0.3-0.6,0.5c-0.1,0.1-0.2,0.2-0.2,0.4
			c0,0.2,0,0.3,0,0.4c0,0.3,0,0.5,0.1,0.6s0.3,0.2,0.6,0.2c0.2,0,0.4-0.1,0.5-0.2c0.1-0.1,0.2-0.3,0.2-0.5c0-0.2,0.1-0.4,0.1-0.6
			c0-0.2,0-0.4,0-0.6V106.8z"/>
		<path d="M201.5,104.3L201.5,104.3c0.1-0.2,0.2-0.3,0.3-0.4c0.1-0.1,0.2-0.2,0.4-0.3c0.1-0.1,0.3-0.1,0.4-0.1c0.1,0,0.3,0,0.4,0
			c0.1,0,0.3,0,0.5,0c0.2,0,0.3,0.1,0.4,0.2c0.1,0.1,0.3,0.2,0.4,0.3c0.1,0.1,0.2,0.2,0.2,0.4h0c0.2-0.3,0.4-0.5,0.6-0.7
			c0.3-0.1,0.6-0.2,1-0.2c0.3,0,0.5,0,0.7,0.1s0.4,0.2,0.5,0.3c0.1,0.1,0.2,0.3,0.3,0.5c0.1,0.2,0.1,0.4,0.1,0.5v5.5h-1.6v-4.6
			c0-0.2,0-0.3,0-0.4c0-0.1,0-0.3-0.1-0.4c-0.1-0.1-0.1-0.2-0.2-0.3c-0.1-0.1-0.2-0.1-0.4-0.1c-0.3,0-0.6,0.1-0.6,0.4
			c-0.1,0.2-0.1,0.5-0.1,0.9v4.5H203v-4.7c0-0.2,0-0.3,0-0.4s0-0.2-0.1-0.3c-0.1-0.1-0.1-0.2-0.2-0.2c-0.1-0.1-0.2-0.1-0.4-0.1
			c-0.2,0-0.3,0-0.4,0.1c-0.1,0.1-0.2,0.2-0.2,0.3s-0.1,0.2-0.1,0.4s0,0.3,0,0.5v4.5h-1.6v-6.8h1.6V104.3z"/>
		<path d="M212.1,110.4c-0.1-0.1-0.1-0.2-0.1-0.3s0-0.2,0-0.4h0c-0.1,0.1-0.2,0.3-0.3,0.4c-0.1,0.1-0.2,0.2-0.3,0.3
			c-0.2,0.2-0.5,0.2-0.7,0.2c-0.6,0-1.1-0.2-1.4-0.5c-0.3-0.3-0.4-0.8-0.4-1.5c0-0.4,0.1-0.7,0.2-1s0.3-0.5,0.5-0.6s0.5-0.3,0.7-0.4
			c0.3-0.1,0.6-0.3,0.9-0.4c0.3-0.1,0.6-0.3,0.7-0.5c0.1-0.2,0.1-0.4,0.1-0.7c0-0.2-0.1-0.2-0.2-0.3c-0.1,0-0.3-0.1-0.5-0.1
			c-0.4,0-0.6,0.1-0.7,0.3c-0.1,0.2-0.1,0.4-0.1,0.7h-1.5c0-0.3,0-0.6,0.1-0.9c0.1-0.3,0.2-0.5,0.4-0.7s0.4-0.3,0.7-0.5
			c0.3-0.1,0.7-0.2,1.2-0.2c0.5,0,0.9,0.1,1.2,0.2s0.5,0.3,0.7,0.5c0.1,0.2,0.2,0.4,0.3,0.6c0,0.2,0,0.5,0,0.7v4
			c0,0.3,0,0.6,0.1,0.9H212.1z M211.8,106.8c-0.2,0.1-0.4,0.3-0.6,0.4c-0.2,0.1-0.4,0.3-0.6,0.5c-0.1,0.1-0.2,0.2-0.2,0.4
			c0,0.2,0,0.3,0,0.4c0,0.3,0,0.5,0.1,0.6s0.3,0.2,0.6,0.2c0.2,0,0.4-0.1,0.5-0.2c0.1-0.1,0.2-0.3,0.2-0.5c0-0.2,0.1-0.4,0.1-0.6
			c0-0.2,0-0.4,0-0.6V106.8z"/>
		<path d="M217,110.4c-0.2,0-0.5,0-0.7,0.1s-0.5,0-0.7-0.1c-0.2-0.1-0.4-0.2-0.5-0.3c-0.1-0.2-0.2-0.4-0.2-0.7v-4.6h-0.6v-1.1h0.6
			v-1.9h1.6v1.9h0.7v1.1h-0.7v4.2c0,0.1,0,0.1,0.1,0.2c0.1,0,0.1,0.1,0.2,0.1c0.1,0,0.1,0,0.2,0c0.1,0,0.1,0,0.2,0V110.4z"/>
		<path d="M217.7,106c0-0.8,0.1-1.4,0.5-1.9c0.4-0.4,1-0.7,1.8-0.7c0.5,0,1,0.1,1.3,0.2c0.3,0.1,0.6,0.3,0.7,0.6
			c0.2,0.3,0.3,0.6,0.3,0.9s0.1,0.8,0.1,1.2v0.9h-3.1v1c0,0.2,0,0.4,0.1,0.5c0,0.1,0.1,0.2,0.2,0.3c0.1,0.1,0.2,0.1,0.3,0.2
			c0.1,0,0.2,0,0.3,0c0.3,0,0.5-0.1,0.6-0.3c0.1-0.2,0.1-0.5,0.1-1h1.6c0,0.4,0,0.7-0.1,1c-0.1,0.3-0.2,0.6-0.4,0.8
			s-0.4,0.4-0.7,0.5c-0.3,0.1-0.6,0.2-1,0.2c-0.9,0-1.5-0.2-1.9-0.7c-0.4-0.4-0.6-1.2-0.6-2.2V106z M220.9,106.2v-0.6
			c0-0.3-0.1-0.6-0.2-0.7c-0.1-0.1-0.3-0.2-0.6-0.2c-0.2,0-0.3,0-0.4,0.1c-0.1,0.1-0.2,0.2-0.2,0.3c0,0.1-0.1,0.2-0.1,0.4
			c0,0.1,0,0.3,0,0.4v0.3H220.9z"/>
	</g>
	<g>
		<path d="M122.8,101.4h5.6v1.3h-2v7.7h-1.7v-7.7h-2V101.4z"/>
		<path d="M129.1,110.4v-9h1.6v2.9h0c0.1-0.2,0.2-0.4,0.4-0.5s0.3-0.2,0.4-0.3c0.1-0.1,0.2-0.1,0.4-0.1s0.2,0,0.3,0
			c0.2,0,0.4,0,0.6,0.1c0.2,0.1,0.4,0.2,0.5,0.3c0.1,0.1,0.3,0.3,0.3,0.5s0.1,0.5,0.1,0.8v5.2h-1.6v-4.6c0-0.3,0-0.6-0.1-0.8
			c-0.1-0.2-0.3-0.3-0.6-0.3c-0.3,0-0.5,0.1-0.6,0.3c-0.1,0.2-0.2,0.5-0.2,0.9v4.5H129.1z"/>
		<path d="M136.4,104.8L136.4,104.8c0.1-0.2,0.2-0.4,0.3-0.6c0.1-0.1,0.2-0.3,0.3-0.4c0.2-0.2,0.4-0.3,0.6-0.3c0.2,0,0.3,0,0.4,0
			v1.8c-0.2,0-0.4,0-0.6,0c-0.2,0-0.3,0.1-0.5,0.2c-0.1,0.1-0.2,0.2-0.3,0.4c-0.1,0.2-0.1,0.4-0.1,0.6v3.9h-1.6v-6.8h1.5V104.8z"/>
		<path d="M138.6,106c0-0.8,0.1-1.4,0.5-1.9c0.4-0.4,1-0.7,1.8-0.7c0.5,0,1,0.1,1.3,0.2c0.3,0.1,0.6,0.3,0.7,0.6
			c0.2,0.3,0.3,0.6,0.3,0.9s0.1,0.8,0.1,1.2v0.9h-3.1v1c0,0.2,0,0.4,0.1,0.5c0,0.1,0.1,0.2,0.2,0.3c0.1,0.1,0.2,0.1,0.3,0.2
			c0.1,0,0.2,0,0.3,0c0.3,0,0.5-0.1,0.6-0.3c0.1-0.2,0.1-0.5,0.1-1h1.6c0,0.4,0,0.7-0.1,1c-0.1,0.3-0.2,0.6-0.4,0.8
			s-0.4,0.4-0.7,0.5c-0.3,0.1-0.6,0.2-1,0.2c-0.9,0-1.5-0.2-1.9-0.7c-0.4-0.4-0.6-1.2-0.6-2.2V106z M141.7,106.2v-0.6
			c0-0.3-0.1-0.6-0.2-0.7c-0.1-0.1-0.3-0.2-0.6-0.2c-0.2,0-0.3,0-0.4,0.1c-0.1,0.1-0.2,0.2-0.2,0.3c0,0.1-0.1,0.2-0.1,0.4
			c0,0.1,0,0.3,0,0.4v0.3H141.7z"/>
		<path d="M146.7,110.6c-0.5,0-0.9,0-1.2-0.2c-0.3-0.1-0.6-0.3-0.7-0.6c-0.2-0.3-0.3-0.6-0.3-1s-0.1-0.9-0.1-1.5c0-0.6,0-1.1,0-1.6
			c0-0.5,0.1-0.9,0.3-1.2c0.1-0.3,0.4-0.6,0.7-0.8c0.3-0.2,0.8-0.3,1.4-0.3c0.6,0,1,0.1,1.3,0.3c0.3,0.2,0.5,0.4,0.7,0.8
			c0.1,0.3,0.2,0.7,0.3,1.2c0,0.5,0,1,0,1.6c0,0.6,0,1.1-0.1,1.5c-0.1,0.4-0.2,0.8-0.3,1c-0.2,0.3-0.4,0.5-0.7,0.6
			C147.6,110.5,147.2,110.6,146.7,110.6z M145.9,108.2c0,0.2,0,0.4,0,0.5c0,0.1,0.1,0.3,0.1,0.4c0.1,0.1,0.1,0.2,0.2,0.2
			c0.1,0,0.3,0.1,0.5,0.1c0.2,0,0.3,0,0.4-0.1c0.1,0,0.2-0.1,0.2-0.2c0.1-0.1,0.1-0.2,0.1-0.4s0-0.3,0-0.5v-2.3c0-0.2,0-0.3,0-0.5
			c0-0.2,0-0.3-0.1-0.4s-0.1-0.2-0.2-0.3c-0.1-0.1-0.3-0.1-0.4-0.1c-0.2,0-0.4,0-0.5,0.1s-0.2,0.2-0.2,0.3s-0.1,0.3-0.1,0.4
			c0,0.2,0,0.3,0,0.5V108.2z"/>
		<path d="M151.7,104.3L151.7,104.3c0.1-0.2,0.2-0.3,0.3-0.5c0.1-0.1,0.3-0.2,0.4-0.3c0.1-0.1,0.3-0.1,0.4-0.1c0.1,0,0.2,0,0.3,0
			c0.2,0,0.4,0,0.6,0.1c0.2,0.1,0.4,0.2,0.5,0.3c0.1,0.1,0.3,0.3,0.3,0.5s0.1,0.5,0.1,0.8v5.2h-1.6v-4.5c0-0.3,0-0.6-0.1-0.8
			c-0.1-0.2-0.3-0.3-0.6-0.3c-0.3,0-0.5,0.1-0.6,0.3c-0.1,0.2-0.2,0.5-0.2,0.9v4.4h-1.6v-6.8h1.6V104.3z"/>
		<path d="M156.1,102.8v-1.4h1.6v1.4H156.1z M156.1,110.4v-6.8h1.6v6.8H156.1z"/>
		<path d="M160.6,104.3L160.6,104.3c0.1-0.2,0.2-0.3,0.3-0.5c0.1-0.1,0.3-0.2,0.4-0.3c0.1-0.1,0.3-0.1,0.4-0.1c0.1,0,0.2,0,0.3,0
			c0.2,0,0.4,0,0.6,0.1c0.2,0.1,0.4,0.2,0.5,0.3c0.1,0.1,0.3,0.3,0.3,0.5s0.1,0.5,0.1,0.8v5.2H162v-4.5c0-0.3,0-0.6-0.1-0.8
			c-0.1-0.2-0.3-0.3-0.6-0.3c-0.3,0-0.5,0.1-0.6,0.3c-0.1,0.2-0.2,0.5-0.2,0.9v4.4H159v-6.8h1.6V104.3z"/>
		<path d="M164.7,106c0-0.8,0.1-1.4,0.5-1.9c0.4-0.4,1-0.7,1.8-0.7c0.5,0,1,0.1,1.3,0.2c0.3,0.1,0.6,0.3,0.7,0.6
			c0.2,0.3,0.3,0.6,0.3,0.9s0.1,0.8,0.1,1.2v0.9h-3.1v1c0,0.2,0,0.4,0.1,0.5c0,0.1,0.1,0.2,0.2,0.3c0.1,0.1,0.2,0.1,0.3,0.2
			c0.1,0,0.2,0,0.3,0c0.3,0,0.5-0.1,0.6-0.3c0.1-0.2,0.1-0.5,0.1-1h1.6c0,0.4,0,0.7-0.1,1c-0.1,0.3-0.2,0.6-0.4,0.8
			s-0.4,0.4-0.7,0.5c-0.3,0.1-0.6,0.2-1,0.2c-0.9,0-1.5-0.2-1.9-0.7c-0.4-0.4-0.6-1.2-0.6-2.2V106z M167.8,106.2v-0.6
			c0-0.3-0.1-0.6-0.2-0.7c-0.1-0.1-0.3-0.2-0.6-0.2c-0.2,0-0.3,0-0.4,0.1c-0.1,0.1-0.2,0.2-0.2,0.3c0,0.1-0.1,0.2-0.1,0.4
			c0,0.1,0,0.3,0,0.4v0.3H167.8z"/>
	</g>
	<g>
		<path d="M75.3,110.4l2.1-9h2.3l2,9H80l-0.4-2.3h-2l-0.4,2.3H75.3z M77.8,106.8h1.4l-0.5-2.6c0-0.2-0.1-0.4-0.1-0.6
			c0-0.2,0-0.4-0.1-0.6c0-0.1,0-0.2,0-0.3s0-0.2,0-0.3h0c0,0.1,0,0.2,0,0.3c0,0.1,0,0.2,0,0.3c0,0.2,0,0.4-0.1,0.6
			c0,0.2-0.1,0.4-0.1,0.6L77.8,106.8z"/>
		<path d="M82.8,110.4v-9h1.6v9H82.8z"/>
		<path d="M89,110.4c-0.1-0.1-0.1-0.2-0.1-0.3s0-0.2,0-0.4h0c-0.1,0.1-0.2,0.3-0.3,0.4c-0.1,0.1-0.2,0.2-0.3,0.3
			c-0.2,0.2-0.5,0.2-0.7,0.2c-0.6,0-1.1-0.2-1.4-0.5c-0.3-0.3-0.4-0.8-0.4-1.5c0-0.4,0.1-0.7,0.2-1s0.3-0.5,0.5-0.6s0.5-0.3,0.7-0.4
			c0.3-0.1,0.6-0.3,0.9-0.4c0.3-0.1,0.6-0.3,0.7-0.5c0.1-0.2,0.1-0.4,0.1-0.7c0-0.2-0.1-0.2-0.2-0.3c-0.1,0-0.3-0.1-0.5-0.1
			c-0.4,0-0.6,0.1-0.7,0.3c-0.1,0.2-0.1,0.4-0.1,0.7h-1.5c0-0.3,0-0.6,0.1-0.9c0.1-0.3,0.2-0.5,0.4-0.7s0.4-0.3,0.7-0.5
			c0.3-0.1,0.7-0.2,1.2-0.2c0.5,0,0.9,0.1,1.2,0.2s0.5,0.3,0.7,0.5c0.1,0.2,0.2,0.4,0.3,0.6c0,0.2,0,0.5,0,0.7v4
			c0,0.3,0,0.6,0.1,0.9H89z M88.8,106.8c-0.2,0.1-0.4,0.3-0.6,0.4c-0.2,0.1-0.4,0.3-0.6,0.5c-0.1,0.1-0.2,0.2-0.2,0.4
			c0,0.2,0,0.3,0,0.4c0,0.3,0,0.5,0.1,0.6s0.3,0.2,0.6,0.2c0.2,0,0.4-0.1,0.5-0.2c0.1-0.1,0.2-0.3,0.2-0.5c0-0.2,0.1-0.4,0.1-0.6
			c0-0.2,0-0.4,0-0.6V106.8z"/>
		<path d="M93.5,104.3L93.5,104.3c0.1-0.2,0.2-0.3,0.3-0.5c0.1-0.1,0.3-0.2,0.4-0.3c0.1-0.1,0.3-0.1,0.4-0.1c0.1,0,0.2,0,0.3,0
			c0.2,0,0.4,0,0.6,0.1c0.2,0.1,0.4,0.2,0.5,0.3c0.1,0.1,0.3,0.3,0.3,0.5s0.1,0.5,0.1,0.8v5.2h-1.6v-4.5c0-0.3,0-0.6-0.1-0.8
			c-0.1-0.2-0.3-0.3-0.6-0.3c-0.3,0-0.5,0.1-0.6,0.3c-0.1,0.2-0.2,0.5-0.2,0.9v4.4h-1.6v-6.8h1.6V104.3z"/>
		<path d="M98.1,102.8v-1.4h1.6v1.4H98.1z M98.1,110.4v-6.8h1.6v6.8H98.1z"/>
		<path d="M102.8,104.3L102.8,104.3c0.1-0.2,0.2-0.3,0.3-0.5c0.1-0.1,0.3-0.2,0.4-0.3c0.1-0.1,0.3-0.1,0.4-0.1c0.1,0,0.2,0,0.3,0
			c0.2,0,0.4,0,0.6,0.1c0.2,0.1,0.4,0.2,0.5,0.3c0.1,0.1,0.3,0.3,0.3,0.5s0.1,0.5,0.1,0.8v5.2h-1.6v-4.5c0-0.3,0-0.6-0.1-0.8
			c-0.1-0.2-0.3-0.3-0.6-0.3c-0.3,0-0.5,0.1-0.6,0.3c-0.1,0.2-0.2,0.5-0.2,0.9v4.4h-1.6v-6.8h1.6V104.3z"/>
		<path d="M107.2,106c0-0.8,0.1-1.4,0.5-1.9c0.4-0.4,1-0.7,1.8-0.7c0.5,0,1,0.1,1.3,0.2c0.3,0.1,0.6,0.3,0.7,0.6
			c0.2,0.3,0.3,0.6,0.3,0.9s0.1,0.8,0.1,1.2v0.9h-3.1v1c0,0.2,0,0.4,0.1,0.5c0,0.1,0.1,0.2,0.2,0.3c0.1,0.1,0.2,0.1,0.3,0.2
			c0.1,0,0.2,0,0.3,0c0.3,0,0.5-0.1,0.6-0.3c0.1-0.2,0.1-0.5,0.1-1h1.6c0,0.4,0,0.7-0.1,1c-0.1,0.3-0.2,0.6-0.4,0.8
			s-0.4,0.4-0.7,0.5c-0.3,0.1-0.6,0.2-1,0.2c-0.9,0-1.5-0.2-1.9-0.7c-0.4-0.4-0.6-1.2-0.6-2.2V106z M110.3,106.2v-0.6
			c0-0.3-0.1-0.6-0.2-0.7c-0.1-0.1-0.3-0.2-0.6-0.2c-0.2,0-0.3,0-0.4,0.1c-0.1,0.1-0.2,0.2-0.2,0.3c0,0.1-0.1,0.2-0.1,0.4
			c0,0.1,0,0.3,0,0.4v0.3H110.3z"/>
	</g>
	<g>
		<path d="M81.3,53.5c-1.3,0.7-2.8,1-4.4,1c-3.3,0-5.6-2.2-5.6-5.5c0-3.4,2.3-5.6,5.6-5.6c1.6,0,3.1,0.3,4.2,1.3l-1.4,1.4
			c-0.7-0.7-1.7-1-2.8-1c-2.2,0-3.6,1.7-3.6,3.8c0,2.3,1.5,3.9,3.6,3.9c1,0,1.8-0.2,2.5-0.6v-2.5h-2.2v-1.7h4.1V53.5z"/>
	</g>
	<g>
		<path d="M13.3,43.7h4.1c1.6,0,3.3,0.7,3.3,2.7c0,1.2-0.8,2-1.8,2.3v0c1.3,0.2,2.3,1.2,2.3,2.6c0,2.3-2,3-4,3h-3.8V43.7z M15.2,48
			H17c1.3,0,1.9-0.5,1.9-1.3c0-0.9-0.6-1.4-2.1-1.4h-1.6V48z M15.2,52.7H17c1,0,2.3-0.2,2.3-1.6c0-1.1-0.7-1.5-2.3-1.5h-1.8V52.7z"
			/>
		<path d="M27.4,53.3L27.4,53.3c-0.6,0.8-1.4,1.2-2.4,1.2c-1.3,0-2.6-0.7-2.6-2.2c0-2.3,2.7-2.5,4.5-2.5h0.5v-0.2
			c0-0.9-0.7-1.3-1.6-1.3c-0.8,0-1.4,0.3-1.9,0.7L22.9,48c0.8-0.8,1.9-1.2,3.1-1.2c3.1,0,3.1,2.2,3.1,3.2v4.1h-1.6V53.3z M27.3,51
			h-0.4c-1,0-2.7,0.1-2.7,1.1c0,0.7,0.7,0.9,1.3,0.9c1.2,0,1.8-0.6,1.8-1.7V51z"/>
		<path d="M34.8,49.1c-0.3-0.5-0.8-0.7-1.4-0.7c-0.5,0-1,0.2-1,0.8c0,1.3,3.9,0.2,3.9,3c0,1.7-1.6,2.3-3.1,2.3
			c-1.1,0-2.1-0.3-2.8-1.1l1.2-1.1c0.5,0.5,0.9,0.9,1.7,0.9c0.5,0,1.2-0.3,1.2-0.8c0-1.5-3.9-0.3-3.9-3.1c0-1.6,1.4-2.3,2.9-2.3
			c1,0,2,0.3,2.6,1.1L34.8,49.1z"/>
		<path d="M39.1,51.3C39.2,52.4,40,53,41,53c0.9,0,1.5-0.4,1.9-1l1.3,1c-0.8,1-1.9,1.4-3,1.4c-2.2,0-3.9-1.5-3.9-3.8
			c0-2.3,1.7-3.8,3.9-3.8c2,0,3.4,1.4,3.4,3.9v0.5H39.1z M42.7,50c0-1.1-0.7-1.7-1.8-1.7c-1.1,0-1.7,0.7-1.9,1.7H42.7z"/>
	</g>
	<g>
		<path d="M430.5,53.5c-1.3,0.7-2.8,1-4.4,1c-3.3,0-5.6-2.2-5.6-5.5c0-3.4,2.3-5.6,5.6-5.6c1.6,0,3.1,0.3,4.2,1.3l-1.4,1.4
			c-0.7-0.7-1.7-1-2.8-1c-2.2,0-3.6,1.7-3.6,3.8c0,2.3,1.5,3.9,3.6,3.9c1,0,1.8-0.2,2.5-0.6v-2.5h-2.2v-1.7h4.1V53.5z"/>
	</g>
	<g>
		<path d="M168.6,53.5c-1.3,0.7-2.8,1-4.4,1c-3.3,0-5.6-2.2-5.6-5.5c0-3.4,2.3-5.6,5.6-5.6c1.6,0,3.1,0.3,4.2,1.3l-1.4,1.4
			c-0.7-0.7-1.7-1-2.8-1c-2.2,0-3.6,1.7-3.6,3.8c0,2.3,1.5,3.9,3.6,3.9c1,0,1.8-0.2,2.5-0.6v-2.5h-2.2v-1.7h4.1V53.5z"/>
	</g>
	<g>
		<path d="M186.1,53.5c-1.3,0.7-2.8,1-4.4,1c-3.3,0-5.6-2.2-5.6-5.5c0-3.4,2.3-5.6,5.6-5.6c1.6,0,3.1,0.3,4.2,1.3l-1.4,1.4
			c-0.7-0.7-1.7-1-2.8-1c-2.2,0-3.6,1.7-3.6,3.8c0,2.3,1.5,3.9,3.6,3.9c1,0,1.8-0.2,2.5-0.6v-2.5H182v-1.7h4.1V53.5z"/>
	</g>
	<g>
		<path d="M308.3,53.5c-1.3,0.7-2.8,1-4.4,1c-3.3,0-5.6-2.2-5.6-5.5c0-3.4,2.3-5.6,5.6-5.6c1.6,0,3.1,0.3,4.2,1.3l-1.4,1.4
			c-0.7-0.7-1.7-1-2.8-1c-2.2,0-3.6,1.7-3.6,3.8c0,2.3,1.5,3.9,3.6,3.9c1,0,1.8-0.2,2.5-0.6v-2.5h-2.2v-1.7h4.1V53.5z"/>
	</g>
	<g>
		<path d="M325.7,53.5c-1.3,0.7-2.8,1-4.4,1c-3.3,0-5.6-2.2-5.6-5.5c0-3.4,2.3-5.6,5.6-5.6c1.6,0,3.1,0.3,4.2,1.3l-1.4,1.4
			c-0.7-0.7-1.7-1-2.8-1c-2.2,0-3.6,1.7-3.6,3.8c0,2.3,1.5,3.9,3.6,3.9c1,0,1.8-0.2,2.5-0.6v-2.5h-2.2v-1.7h4.1V53.5z"/>
	</g>
	<g>
		<path d="M221,53.5c-1.3,0.7-2.8,1-4.4,1c-3.3,0-5.6-2.2-5.6-5.5c0-3.4,2.3-5.6,5.6-5.6c1.6,0,3.1,0.3,4.2,1.3l-1.4,1.4
			c-0.7-0.7-1.7-1-2.8-1c-2.2,0-3.6,1.7-3.6,3.8c0,2.3,1.5,3.9,3.6,3.9c1,0,1.8-0.2,2.5-0.6v-2.5h-2.2v-1.7h4.1V53.5z"/>
	</g>
	<g>
		<path d="M97.3,46.1c-0.8-0.8-1.5-1-2.2-1c-2.2,0-3.6,1.7-3.6,3.8c0,2.3,1.5,3.9,3.6,3.9c0.9,0,1.7-0.4,2.4-1.3l1.6,1.1
			c-1,1.3-2.4,1.9-4,1.9c-3.3,0-5.6-2.2-5.6-5.5c0-3.4,2.3-5.6,5.6-5.6c1.4,0,2.7,0.5,3.7,1.7L97.3,46.1z"/>
	</g>
	<g>
		<path d="M237,46.1c-0.8-0.8-1.5-1-2.2-1c-2.2,0-3.6,1.7-3.6,3.8c0,2.3,1.5,3.9,3.6,3.9c0.9,0,1.7-0.4,2.4-1.3l1.6,1.1
			c-1,1.3-2.4,1.9-4,1.9c-3.3,0-5.6-2.2-5.6-5.5c0-3.4,2.3-5.6,5.6-5.6c1.4,0,2.7,0.5,3.7,1.7L237,46.1z"/>
	</g>
	<g>
		<path d="M289.4,46.1c-0.8-0.8-1.5-1-2.2-1c-2.2,0-3.6,1.7-3.6,3.8c0,2.3,1.5,3.9,3.6,3.9c0.9,0,1.7-0.4,2.4-1.3l1.6,1.1
			c-1,1.3-2.4,1.9-4,1.9c-3.3,0-5.6-2.2-5.6-5.5c0-3.4,2.3-5.6,5.6-5.6c1.4,0,2.7,0.5,3.7,1.7L289.4,46.1z"/>
	</g>
	<g>
		<path d="M149.7,46.1c-0.8-0.8-1.5-1-2.2-1c-2.2,0-3.6,1.7-3.6,3.8c0,2.3,1.5,3.9,3.6,3.9c0.9,0,1.7-0.4,2.4-1.3l1.6,1.1
			c-1,1.3-2.4,1.9-4,1.9c-3.3,0-5.6-2.2-5.6-5.5c0-3.4,2.3-5.6,5.6-5.6c1.4,0,2.7,0.5,3.7,1.7L149.7,46.1z"/>
	</g>
	<g>
		<path d="M115.7,50.4c0,2.6-1.8,4.2-4.3,4.2s-4.3-1.6-4.3-4.2v-6.7h1.9v6.7c0,1,0.6,2.4,2.4,2.4c1.8,0,2.4-1.4,2.4-2.4v-6.7h1.9
			V50.4z"/>
	</g>
	<g>
		<path d="M255.4,50.4c0,2.6-1.8,4.2-4.3,4.2s-4.3-1.6-4.3-4.2v-6.7h1.9v6.7c0,1,0.6,2.4,2.4,2.4c1.8,0,2.4-1.4,2.4-2.4v-6.7h1.9
			V50.4z"/>
	</g>
	<g>
		<path d="M272.8,50.4c0,2.6-1.8,4.2-4.3,4.2s-4.3-1.6-4.3-4.2v-6.7h1.9v6.7c0,1,0.6,2.4,2.4,2.4c1.8,0,2.4-1.4,2.4-2.4v-6.7h1.9
			V50.4z"/>
	</g>
	<g>
		<path d="M128.1,43.7h1.6l4.6,10.6h-2.2l-1-2.4h-4.6l-1,2.4h-2.1L128.1,43.7z M130.5,50.2l-1.6-4.3l-1.7,4.3H130.5z"/>
	</g>
	<g>
		<path d="M395.1,50.4c0,2.6-1.8,4.2-4.3,4.2s-4.3-1.6-4.3-4.2v-6.7h1.9v6.7c0,1,0.6,2.4,2.4,2.4c1.8,0,2.4-1.4,2.4-2.4v-6.7h1.9
			V50.4z"/>
	</g>
	<g>
		<path d="M407.5,43.7h1.6l4.6,10.6h-2.2l-1-2.4h-4.6l-1,2.4h-2.1L407.5,43.7z M409.9,50.2l-1.6-4.3l-1.7,4.3H409.9z"/>
	</g>
	<g>
		<path d="M197.9,43.7h1.6l4.6,10.6H202l-1-2.4h-4.6l-1,2.4h-2.1L197.9,43.7z M200.3,50.2l-1.6-4.3l-1.7,4.3H200.3z"/>
	</g>
	<g>
		<path d="M360.7,53.5c-1.3,0.7-2.8,1-4.4,1c-3.3,0-5.6-2.2-5.6-5.5c0-3.4,2.3-5.6,5.6-5.6c1.6,0,3.1,0.3,4.2,1.3l-1.4,1.4
			c-0.7-0.7-1.7-1-2.8-1c-2.2,0-3.6,1.7-3.6,3.8c0,2.3,1.5,3.9,3.6,3.9c1,0,1.8-0.2,2.5-0.6v-2.5h-2.2v-1.7h4.1V53.5z"/>
	</g>
	<g>
		<path d="M376.7,46.1c-0.8-0.8-1.5-1-2.2-1c-2.2,0-3.6,1.7-3.6,3.8c0,2.3,1.5,3.9,3.6,3.9c0.9,0,1.7-0.4,2.4-1.3l1.6,1.1
			c-1,1.3-2.4,1.9-4,1.9c-3.3,0-5.6-2.2-5.6-5.5c0-3.4,2.3-5.6,5.6-5.6c1.4,0,2.7,0.5,3.7,1.7L376.7,46.1z"/>
	</g>
	<g>
		<path d="M337.6,43.7h1.6l4.6,10.6h-2.2l-1-2.4h-4.6l-1,2.4H333L337.6,43.7z M340,50.2l-1.6-4.3l-1.7,4.3H340z"/>
	</g>
	<path fill="none" stroke="#231F20" stroke-width="1.1248" stroke-miterlimit="10" d="M429.4,60.5v0.4c0,0.8-0.6,1.4-1.4,1.4h-17.2
		c-1.4,0-2.6,1.2-2.6,2.6v0.8l0,0h0l0,0v-0.8c0-1.4-1.2-2.6-2.6-2.6h-17.2c-0.8,0-1.4-0.6-1.4-1.4v-0.4"/>
	<path fill="none" stroke="#231F20" stroke-width="1.1248" stroke-miterlimit="10" d="M377,60.5v0.4c0,0.8-0.6,1.4-1.4,1.4h-17.2
		c-1.4,0-2.6,1.2-2.6,2.6v0.8l0,0h0l0,0v-0.8c0-1.4-1.2-2.6-2.6-2.6H336c-0.8,0-1.4-0.6-1.4-1.4v-0.4"/>
	<path fill="none" stroke="#231F20" stroke-width="1.1248" stroke-miterlimit="10" d="M324.6,60.5v0.4c0,0.8-0.6,1.4-1.4,1.4H306
		c-1.4,0-2.6,1.2-2.6,2.6v0.8l0,0h0l0,0v-0.8c0-1.4-1.2-2.6-2.6-2.6h-17.2c-0.8,0-1.4-0.6-1.4-1.4v-0.4"/>
	<path fill="none" stroke="#231F20" stroke-width="1.1248" stroke-miterlimit="10" d="M272.2,60.5v0.4c0,0.8-0.6,1.4-1.4,1.4h-17.2
		c-1.4,0-2.6,1.2-2.6,2.6v0.8l0,0h0l0,0v-0.8c0-1.4-1.2-2.6-2.6-2.6h-17.2c-0.8,0-1.4-0.6-1.4-1.4v-0.4"/>
	<path fill="none" stroke="#231F20" stroke-width="1.1248" stroke-miterlimit="10" d="M219.8,60.5v0.4c0,0.8-0.6,1.4-1.4,1.4h-17.2
		c-1.4,0-2.6,1.2-2.6,2.6v0.8l0,0h0l0,0v-0.8c0-1.4-1.2-2.6-2.6-2.6h-17.2c-0.8,0-1.4-0.6-1.4-1.4v-0.4"/>
	<path fill="none" stroke="#231F20" stroke-width="1.1248" stroke-miterlimit="10" d="M166.8,60.5v0.4c0,0.8-0.6,1.4-1.4,1.4h-17.2
		c-1.4,0-2.6,1.2-2.6,2.6v0.8l0,0h0l0,0v-0.8c0-1.4-1.2-2.6-2.6-2.6h-17.2c-0.8,0-1.4-0.6-1.4-1.4v-0.4"/>
	<path fill="none" stroke="#231F20" stroke-width="1.1248" stroke-miterlimit="10" d="M115,60.5v0.4c0,0.8-0.6,1.4-1.4,1.4H96.5
		c-1.4,0-2.6,1.2-2.6,2.6v0.8h0h0h0v-0.8c0-1.4-1.2-2.6-2.6-2.6H74.1c-0.8,0-1.4-0.6-1.4-1.4v-0.4"/>
	<polygon fill="#FAA71A" points="80.2,31.5 72.8,31.5 72.8,16.6 76.5,13.8 80.2,16.6 	"/>
	<polygon fill="#B08CC0" points="97.7,29.3 90.2,29.3 90.2,14.4 94,17.2 97.7,14.4 	"/>
	<polygon fill="#F15E23" points="115.2,28.1 107.7,28.1 107.7,15.6 111.4,18.2 115.2,15.6 	"/>
	<polygon fill="#F05473" points="132.6,27.2 125.2,27.2 125.2,14.8 128.9,11.8 132.6,14.8 	"/>
	<polygon fill="#FAA71A" points="167.5,27.2 160.1,27.2 160.1,12.3 163.8,9.6 167.5,12.3 	"/>
	<polygon fill="#B08CC0" points="150.1,26.3 142.6,26.3 142.6,11.4 146.3,14.2 150.1,11.4 	"/>
	<polygon fill="#F05473" points="202.5,28.6 195,28.6 195,16.2 198.7,13.2 202.5,16.2 	"/>
	<polygon fill="#FAA71A" points="219.9,29.7 212.5,29.7 212.5,14.9 216.2,12.1 219.9,14.9 	"/>
	<polygon fill="#FAA71A" points="185,27.2 177.5,27.2 177.5,12.3 181.3,9.6 185,12.3 	"/>
	<polygon fill="#B08CC0" points="237.4,31.2 229.9,31.2 229.9,16.3 233.6,19.1 237.4,16.3 	"/>
	<polygon fill="#B08CC0" points="289.8,35.4 282.3,35.4 282.3,20.5 286,23.3 289.8,20.5 	"/>
	<polygon fill="#B08CC0" points="377.1,37.1 369.6,37.1 369.6,22.2 373.3,25 377.1,22.2 	"/>
	<polygon fill="#F15E23" points="254.8,32.6 247.4,32.6 247.4,20.2 251.1,22.7 254.8,20.2 	"/>
	<polygon fill="#F15E23" points="272.3,34.1 264.8,34.1 264.8,21.6 268.6,24.1 272.3,21.6 	"/>
	<polygon fill="#F15E23" points="394.5,35.9 387.1,35.9 387.1,23.4 390.8,25.9 394.5,23.4 	"/>
	<polygon fill="#FAA71A" points="324.7,38.2 317.2,38.2 317.2,23.3 321,20.6 324.7,23.3 	"/>
	<polygon fill="#FAA71A" points="307.2,36.8 299.8,36.8 299.8,21.9 303.5,19.1 307.2,21.9 	"/>
	<polygon fill="#FAA71A" points="360.2,38.2 352.8,38.2 352.8,23.3 356.5,20.6 360.2,23.3 	"/>
	<polygon fill="#FAA71A" points="429.4,33.2 422,33.2 422,18.3 425.7,15.6 429.4,18.3 	"/>
	<polygon fill="#F05473" points="342.1,38.3 334.7,38.3 334.7,25.9 338.4,22.9 342.1,25.9 	"/>
	<polygon fill="#F05473" points="412,34.5 404.5,34.5 404.5,22.1 408.3,19.1 412,22.1 	"/>
	<path id="mRNA" fill="none" stroke="#000000" stroke-width="3.5307" stroke-miterlimit="10" d="M60.5,33.9c0,0,50.6-10.9,116.9-7.3
		c69,3.7,87.3,8,138.4,11.2c51.4,3.2,125.8-7,125.8-7"/>
	<g>
		<g>
			<line fill="none" stroke="#A7A9AC" stroke-width="3" stroke-miterlimit="10" x1="408.3" y1="86.5" x2="408.3" y2="91.7"/>
			<g>
				<polygon fill="#A7A9AC" points="404.5,90.6 408.3,97.1 412,90.6 				"/>
			</g>
		</g>
	</g>
	<g>
		<g>
			<line fill="none" stroke="#A7A9AC" stroke-width="3" stroke-miterlimit="10" x1="355.9" y1="86.5" x2="355.9" y2="91.7"/>
			<g>
				<polygon fill="#A7A9AC" points="352.1,90.6 355.9,97.1 359.6,90.6 				"/>
			</g>
		</g>
	</g>
	<g>
		<g>
			<line fill="none" stroke="#A7A9AC" stroke-width="3" stroke-miterlimit="10" x1="303.5" y1="86.5" x2="303.5" y2="91.7"/>
			<g>
				<polygon fill="#A7A9AC" points="299.8,90.6 303.5,97.1 307.2,90.6 				"/>
			</g>
		</g>
	</g>
	<g>
		<g>
			<line fill="none" stroke="#A7A9AC" stroke-width="3" stroke-miterlimit="10" x1="251.1" y1="86.5" x2="251.1" y2="91.7"/>
			<g>
				<polygon fill="#A7A9AC" points="247.4,90.6 251.1,97.1 254.8,90.6 				"/>
			</g>
		</g>
	</g>
	<g>
		<g>
			<line fill="none" stroke="#A7A9AC" stroke-width="3" stroke-miterlimit="10" x1="198.7" y1="86.5" x2="198.7" y2="91.7"/>
			<g>
				<polygon fill="#A7A9AC" points="195,90.6 198.7,97.1 202.5,90.6 				"/>
			</g>
		</g>
	</g>
	<g>
		<g>
			<line fill="none" stroke="#A7A9AC" stroke-width="3" stroke-miterlimit="10" x1="145.7" y1="86.5" x2="145.7" y2="91.7"/>
			<g>
				<polygon fill="#A7A9AC" points="142,90.6 145.7,97.1 149.5,90.6 				"/>
			</g>
		</g>
	</g>
	<g>
		<g>
			<line fill="none" stroke="#A7A9AC" stroke-width="3" stroke-miterlimit="10" x1="94" y1="86.5" x2="94" y2="91.7"/>
			<g>
				<polygon fill="#A7A9AC" points="90.2,90.6 94,97.1 97.7,90.6 				"/>
			</g>
		</g>
	</g>
</g>
</svg>
