<?xml version="1.0" encoding="UTF-8"?>
<svg width="268pt" version="1.1" xmlns="http://www.w3.org/2000/svg" height="125pt" viewBox="0 0 268 125" xmlns:xlink="http://www.w3.org/1999/xlink">
 <defs>
  <clipPath id="Clip0">
   <path d="M0 0 L268 0 L268 125 L0 125 L0 0 Z" transform="translate(0, 0)"/>
  </clipPath>
 </defs>
 <g id="Background">
  <g id="Group1" clip-path="url(#Clip0)">
   <path style="fill:#000000; fill-rule:nonzero;stroke:none;" d="M0 0.5 L0.8506 0 L1.7002 0.5 L1.7002 39.1992 L0 40.1494 L0 0.5 Z" transform="translate(62.3496, 34.1504)"/>
   <path style="fill:#000000; fill-rule:nonzero;stroke:none;" d="M34.3496 0 L34.3496 1.9502 L0.8496 21.3506 L0 20.8506 L0 19.8506 L34.3496 0 Z" transform="translate(63.2002, 13.2998)"/>
   <path style="fill:#000000; fill-rule:nonzero;stroke:none;" d="M28.3994 0 L29.25 1.5 L0.8496 17.8994 L0 16.4492 L28.3994 0 Z" transform="translate(68.7002, 20.4004)"/>
   <path style="fill:#000000; fill-rule:nonzero;stroke:none;" d="M34.6502 19.9502 L34.4002 20.7998 L33.5502 21.2998 L0 1.9502 L0 0 L34.6502 19.9502 Z" transform="translate(97.5498, 13.2998)"/>
   <path style="fill:#000000; fill-rule:nonzero;stroke:none;" d="M0 21.3506 L0 19.3506 L33.5004 0 L34.3504 0.5 L34.3504 1.5 L0 21.3506 Z" transform="translate(97.5996, 73.2998)"/>
   <path style="fill:#000000; fill-rule:nonzero;stroke:none;" d="M0 0.9502 L1.7002 0 L35.25 19.3008 L35.25 21.3008 L0 0.9502 Z" transform="translate(62.3496, 73.3496)"/>
   <path style="fill:#000000; fill-rule:nonzero;stroke:none;" d="M0 1.4492 L0.8496 0 L29.25 16.3994 L28.4004 17.8496 L0 1.4492 Z" transform="translate(68.75, 69.6504)"/>
   <path style="fill:#000000; fill-rule:evenodd;stroke:none;" d="M11.2266 9.52738 L11.2266 17.4922 L13.4609 17.4922 L13.4609 0 L11.2266 0 L11.2266 7.55858 L2.23047 7.55858 L2.23047 0 L0 0 L0 17.4922 L2.25391 17.4922 L2.25391 9.52738 L11.2266 9.52738 Z" transform="translate(4.24219, 5.55762)"/>
   <path style="fill:#000000; fill-rule:evenodd;stroke:none;" d="M8.4219 0 C3.4102 0 0 3.69532 0 9.16795 C0 14.6601 3.3828 18.332 8.4492 18.332 C10.582 18.332 12.4531 17.6836 13.8711 16.4843 C15.7656 14.8789 16.8945 12.1679 16.8945 9.31255 C16.8945 3.67188 13.5586 0 8.4219 0 Z M8.4219 1.96875 C12.2148 1.96875 14.6602 4.82425 14.6602 9.26175 C14.6602 13.4882 12.1406 16.3671 8.4492 16.3671 C4.7031 16.3671 2.2344 13.4882 2.2344 9.16795 C2.2344 4.84765 4.7031 1.96875 8.4219 1.96875 Z" transform="translate(20.4873, 5.26855)"/>
   <path style="fill:#000000; fill-rule:nonzero;stroke:none;" d="M0 1.5 L0.8496 0 L25.25 14.1006 L25.25 15.1006 L24.3994 15.6006 L0 1.5 Z" transform="translate(37.9502, 19.0498)"/>
   <path style="fill:#000000; fill-rule:evenodd;stroke:none;" d="M13.675 0 L11.562 0 L11.562 14.3008 L2.421 0 L0 0 L0 17.4924 L2.109 17.4924 L2.109 3.3125 L11.156 17.4924 L13.675 17.4924 L13.675 0 Z" transform="translate(159.475, 84.8076)"/>
   <path style="fill:#000000; fill-rule:evenodd;stroke:none;" d="M11.226 9.527 L11.226 17.492 L13.461 17.492 L13.461 0 L11.226 0 L11.226 7.558 L2.23 7.558 L2.23 0 L0 0 L0 17.492 L2.253 17.492 L2.253 9.527 L11.226 9.527 Z" transform="translate(159.643, 104.758)"/>
   <path style="fill:#000000; fill-rule:nonzero;stroke:none;" d="M1.7 39.2002 L0.85 39.7002 L0 39.2002 L0 0.5 L0.85 0 L1.7 0.8506 L1.7 39.2002 Z" transform="translate(131.1, 34.0996)"/>
   <path style="fill:#000000; fill-rule:nonzero;stroke:none;" d="M1.7 32.7998 L0 32.7998 L0 0 L1.7 0 L1.7 32.7998 Z" transform="translate(125.15, 37.5498)"/>
   <path style="fill:#000000; fill-rule:nonzero;stroke:none;" d="M24.4 13.7002 L23.55 15.1504 L0 1.5 L0 0.5 L0.85 0 L24.4 13.7002 Z" transform="translate(131.95, 73.2998)"/>
   <path style="fill:#000000; fill-rule:nonzero;stroke:none;" d="M23.75 0 L25.45 0.9502 L0.85 15.2002 L0 13.7002 L23.75 0 Z" transform="translate(176.1, 73.3496)"/>
   <path style="fill:#000000; fill-rule:nonzero;stroke:none;" d="M68.8 0.0498 L68.8 0.9004 L67.95 1.75 L0.85 1.7002 L0 0.8496 L0.25 0 L68.8 0.0498 Z" transform="translate(131.95, 33.25)"/>
   <path style="fill:#000000; fill-rule:nonzero;stroke:none;" d="M1.7 40.1494 L0 39.1992 L0.05 0.8496 L0.9 0 L1.75 0.8496 L1.7 40.1494 Z" transform="translate(199.85, 34.1504)"/>
   <path style="fill:#000000; fill-rule:nonzero;stroke:none;" d="M1.7 30.3008 L0 30.3008 L0.05 0 L1.75 0 L1.7 30.3008 Z" transform="translate(193.9, 40.0996)"/>
   <path style="fill:#000000; fill-rule:nonzero;stroke:none;" d="M0 1.6992 L1.2 0 L16.55 39.8994 L14.65 39.7998 L0 1.6992 Z" transform="translate(248.65, 32.9004)"/>
   <path style="fill:#000000; fill-rule:nonzero;stroke:none;" d="M49.1 0 L47.9 1.6992 L0.85 2.0996 L0 1.25 L0 0.3994 L49.1 0 Z" transform="translate(200.75, 32.9004)"/>
   <path style="fill:#000000; fill-rule:evenodd;stroke:none;" d="M11.226 9.5272 L11.226 17.4922 L13.461 17.4922 L13.461 0 L11.226 0 L11.226 7.5582 L2.23 7.5582 L2.23 0 L0 0 L0 17.4922 L2.254 17.4922 L2.254 9.5272 L11.226 9.5272 Z" transform="translate(210.467, 98.2578)"/>
   <path style="fill:#000000; fill-rule:evenodd;stroke:none;" d="M8.512 11.215 L1.785 11.215 C1.949 10.172 2.523 9.504 4.094 8.582 L5.898 7.609 C7.684 6.637 8.602 5.32 8.602 3.75 C8.602 2.687 8.168 1.695 7.41 0.992 C6.652 0.324 5.734 0 4.508 0 C2.887 0 1.676 0.558 0.973 1.66 C0.523 2.344 0.324 3.137 0.289 4.437 L1.875 4.437 C1.93 3.57 2.039 3.047 2.254 2.633 C2.668 1.855 3.5 1.387 4.453 1.387 C5.898 1.387 6.981 2.414 6.981 3.785 C6.981 4.797 6.383 5.66 5.246 6.312 L3.59 7.25 C0.918 8.765 0.145 9.973 0 12.785 L8.512 12.785 L8.512 11.215 Z" transform="translate(226.415, 107.465)"/>
   <path style="fill:#000000; fill-rule:evenodd;stroke:none;" d="M13.676 0 L11.562 0 L11.562 14.3012 L2.422 0 L0 0 L0 17.4922 L2.109 17.4922 L2.109 3.3122 L11.156 17.4922 L13.676 17.4922 L13.676 0 Z" transform="translate(237.634, 98.2578)"/>
   <path style="fill:#000000; fill-rule:nonzero;stroke:none;" d="M1.5 23.5996 L0 22.75 L13.15 0 L15.05 0.0996 L1.5 23.5996 Z" transform="translate(250.15, 72.7002)"/>
  </g>
 </g>
</svg>
