<?xml version="1.0" encoding="utf-8"?>
<!-- Generator: Adobe Illustrator 19.2.1, SVG Export Plug-In . SVG Version: 6.00 Build 0)  -->
<svg version="1.1" id="Слой_1" xmlns="http://www.w3.org/2000/svg" xmlns:xlink="http://www.w3.org/1999/xlink" x="0px" y="0px"
	 viewBox="0 0 392.8 193.2" style="enable-background:new 0 0 392.8 193.2;" xml:space="preserve">
<g>
	<path d="M251.3,142.7l-26-25.1l17-52.2l0,0l0.6-1.9l0,0l0,0l0.3-0.8l-0.7-0.5l0,0l-29.9-21.7l-1.4,1.9l28.3,20.6l0,0l0.9,0.6
		L223,116.6h-54.7h-1.1l-0.3-1.1l0,0l-16.9-52.1l29.3-21.2l-1.4-1.9l-27.5,19.9c0-1.2-0.2-2.5-1-3.5c-1.3-1.4-3.4-1.7-6.4-0.8
		c-1,0.3-3.4,0.5-4.2-0.4c-0.6-0.6-0.5-2.1,0.3-4c0.2-0.5,1.7-4.5-0.3-6.7c-1.2-1.4-3.4-1.7-6.4-0.8c-1,0.3-3.4,0.6-4.2-0.4
		c-0.6-0.6-0.5-2.1,0.3-4c0.2-0.4,1.7-4.5-0.4-6.7c-1.2-1.4-3.4-1.7-6.4-0.8c-1,0.3-3.4,0.6-4.2-0.3c-0.6-0.6-0.5-2,0.3-4l0.1-0.2
		c0.1-0.5,1.1-5.2-1.4-7.7c-1.4-1.4-3.6-1.7-6.4-0.9l0,0l-36.4,7.8l0.5,2.3l36.4-7.8l-0.3-1.2l0.3,1.2c2-0.5,3.4-0.4,4.2,0.3
		c1.3,1.3,1,4.2,0.8,5.3c-1.1,2.9-1,5,0.2,6.4c2,2.2,6.2,1.2,6.6,1c2-0.5,3.4-0.5,4,0.1c0.8,0.9,0.3,3.2-0.1,4.2
		c-1.1,2.9-1.1,5.1,0.2,6.5c2,2.3,6.2,1.2,6.6,1.1c2-0.6,3.4-0.5,4,0.1c0.8,0.9,0.3,3.2-0.1,4.2c-1.1,2.9-1.1,5.1,0.2,6.5
		c2,2.2,6.2,1.2,6.6,1.1c2-0.6,3.4-0.5,4,0.1c0.7,0.8,0.4,2.5,0.1,3.6l-35.7,7.6l0.5,2.3l35.3-7.5l17.5,53.7l0.3,0.9h0.9h2h54.9
		l15.8,32.5L251.3,142.7z M223.9,117.9L223.9,117.9L223.9,117.9L223.9,117.9z"/>
	<polygon points="147.7,134.1 156.5,140.5 157.6,138.3 149.5,132.4 	"/>
	<polygon points="161.7,120.6 165.1,123 166.1,120.8 163.5,118.9 	"/>
	<polygon points="154.7,127.3 160.8,131.8 161.9,129.6 156.5,125.7 	"/>
	<polygon points="140.7,140.9 152.3,149.3 153.3,147.1 142.5,139.2 	"/>
	<polygon points="285.8,55.2 282,43.5 279.8,44.5 283.4,55.7 	"/>
	<polygon points="247.9,63 246.8,59.5 244.6,60.5 245.6,63.5 	"/>
	<polygon points="295.2,53.2 290.8,39.5 288.6,40.5 292.9,53.7 	"/>
	<polygon points="266.9,59.1 264.4,51.5 262.2,52.5 264.5,59.6 	"/>
	<polygon points="257.4,61.1 255.6,55.5 253.4,56.5 255,61.5 	"/>
	<polygon points="273.2,47.5 271,48.5 273.9,57.6 276.3,57.1 	"/>
	<rect x="308.8" y="39.2" transform="matrix(0.67 -0.7424 0.7424 0.67 59.6355 249.0961)" width="2.4" height="36.5"/>
	<path d="M188,41.9c3.2,1.8,7.1,1.8,7.1,1.8c3.9,0,7-1.8,7-1.8c3.1-1.8,4.9-5.2,4.9-5.2c1.8-3.4,1.8-7.8,1.8-7.8
		c0-4.5-1.8-7.8-1.8-7.8c-1.8-3.3-4.9-5.2-4.9-5.2c-3.1-1.8-7-1.8-7-1.8c-3.9,0-7,1.8-7,1.8c-3.2,1.8-4.9,5.2-4.9,5.2
		c-1.8,3.4-1.8,7.8-1.8,7.8c0,4.3,1.8,7.7,1.8,7.7C184.9,40.1,188,41.9,188,41.9z M186.5,22.8c1.2-2.6,3.5-4,3.5-4
		c2.2-1.4,5.1-1.4,5.1-1.4c2.9,0,5.1,1.4,5.1,1.4c2.2,1.4,3.5,4,3.5,4c1.2,2.6,1.2,6.2,1.2,6.2c0,3.6-1.2,6.2-1.2,6.2
		c-1.2,2.6-3.5,4-3.5,4c-2.2,1.4-5,1.4-5,1.4c-2.8,0-5-1.4-5-1.4c-2.2-1.4-3.5-4-3.5-4c-1.2-2.6-1.2-6.1-1.2-6.1
		C185.3,25.5,186.5,22.8,186.5,22.8z"/>
	<path d="M264.7,151.2c-3.1-1.8-7-1.8-7-1.8c-3.9,0-7,1.8-7,1.8c-3.1,1.8-4.9,5.2-4.9,5.2c-1.8,3.4-1.8,7.8-1.8,7.8
		c0,4.3,1.8,7.7,1.8,7.7c1.8,3.4,4.9,5.2,4.9,5.2c3.1,1.8,7,1.8,7,1.8c3.9,0,7-1.8,7-1.8c3.1-1.8,4.9-5.2,4.9-5.2
		c1.8-3.4,1.8-7.8,1.8-7.8c0-4.5-1.8-7.8-1.8-7.8C267.9,153.1,264.7,151.2,264.7,151.2z M266.3,170.5c-1.3,2.6-3.5,4-3.5,4
		c-2.2,1.4-5.1,1.4-5.1,1.4c-2.8,0-5-1.4-5-1.4c-2.2-1.4-3.5-4-3.5-4c-1.2-2.6-1.2-6.1-1.2-6.1c0-3.6,1.2-6.3,1.2-6.3
		c1.2-2.6,3.4-4,3.4-4c2.2-1.4,5.1-1.4,5.1-1.4c2.9,0,5.1,1.4,5.1,1.4c2.2,1.4,3.4,4,3.4,4c1.2,2.6,1.2,6.2,1.2,6.2
		C267.5,167.9,266.3,170.5,266.3,170.5z"/>
	<polygon points="293.3,161.7 279.2,161.7 279.2,149.9 275.4,149.9 275.4,178.5 279.2,178.5 279.2,165.1 293.3,165.1 293.3,178.5 
		297.1,178.5 297.1,149.9 293.3,149.9 	"/>
	<path d="M139.5,151.2c-3.1-1.8-7-1.8-7-1.8c-3.9,0-7,1.8-7,1.8c-3.1,1.8-4.9,5.2-4.9,5.2c-1.8,3.4-1.8,7.8-1.8,7.8
		c0,4.3,1.8,7.7,1.8,7.7c1.8,3.4,4.9,5.2,4.9,5.2c3.1,1.8,7,1.8,7,1.8c3.9,0,7-1.8,7-1.8c3.1-1.8,4.9-5.2,4.9-5.2
		c1.8-3.4,1.8-7.8,1.8-7.8c0-4.5-1.8-7.8-1.8-7.8C142.5,153.1,139.5,151.2,139.5,151.2z M140.9,170.5c-1.3,2.6-3.5,4-3.5,4
		c-2.2,1.4-5.1,1.4-5.1,1.4c-2.8,0-5-1.4-5-1.4c-2.2-1.4-3.5-4-3.5-4c-1.2-2.6-1.2-6.1-1.2-6.1c0-3.6,1.2-6.3,1.2-6.3
		c1.2-2.6,3.4-4,3.4-4c2.2-1.4,5.1-1.4,5.1-1.4c2.9,0,5.1,1.4,5.1,1.4c2.2,1.4,3.4,4,3.4,4c1.2,2.6,1.2,6.2,1.2,6.2
		C142.2,167.9,140.9,170.5,140.9,170.5z"/>
	<polygon points="110.9,161.7 96.8,161.7 96.8,149.9 93,149.9 93,178.5 96.8,178.5 96.8,165.1 110.9,165.1 110.9,178.5 114.7,178.5 
		114.7,149.9 110.9,149.9 	"/>
	<path d="M104.1,82.6c1.8-3.4,1.8-7.8,1.8-7.8c0-4.5-1.8-7.8-1.8-7.8c-1.8-3.4-4.9-5.2-4.9-5.2c-3.1-1.8-7-1.8-7-1.8
		c-3.9,0-7,1.8-7,1.8c-3.1,1.8-4.9,5.2-4.9,5.2c-1.8,3.4-1.8,7.8-1.8,7.8c0,4.3,1.8,7.7,1.8,7.7c1.8,3.4,4.9,5.2,4.9,5.2
		c3.1,1.9,7,1.9,7,1.9c3.9,0,7-1.8,7-1.8C102.3,86,104.1,82.6,104.1,82.6z M97.2,85c-2.2,1.4-5.1,1.4-5.1,1.4c-2.8,0-5-1.4-5-1.4
		c-2.2-1.4-3.5-4-3.5-4c-1.2-2.6-1.2-6.1-1.2-6.1c0-3.6,1.2-6.3,1.2-6.3c1.2-2.6,3.4-4,3.4-4c2.2-1.4,5.1-1.4,5.1-1.4
		c2.9,0,5.1,1.4,5.1,1.4c2.2,1.4,3.4,4,3.4,4c1.2,2.6,1.2,6.2,1.2,6.2c0,3.6-1.2,6.1-1.2,6.1C99.4,83.6,97.2,85,97.2,85z"/>
	<polygon points="70.6,72.3 56.5,72.3 56.5,60.5 52.7,60.5 52.7,89.1 56.5,89.1 56.5,75.7 70.6,75.7 70.6,89.1 74.4,89.1 74.4,60.5 
		70.6,60.5 	"/>
	<path d="M346.3,70.6c-3.1-1.8-7-1.8-7-1.8c-3.9,0-7,1.8-7,1.8c-3.1,1.8-4.9,5.2-4.9,5.2c-1.8,3.4-1.8,7.8-1.8,7.8
		c0,4.3,1.8,7.7,1.8,7.7c1.8,3.4,4.9,5.2,4.9,5.2c3.1,1.8,7,1.8,7,1.8c3.9,0,7-1.8,7-1.8c3.1-1.8,4.9-5.2,4.9-5.2
		c1.8-3.4,1.8-7.8,1.8-7.8c0-4.5-1.8-7.8-1.8-7.8C349.4,72.4,346.3,70.6,346.3,70.6z M347.8,89.8c-1.2,2.6-3.5,4-3.5,4
		c-2.2,1.4-5.1,1.4-5.1,1.4c-2.8,0-5-1.4-5-1.4c-2.2-1.4-3.5-4-3.5-4c-1.2-2.6-1.2-6.1-1.2-6.1c0-3.6,1.2-6.3,1.2-6.3
		c1.2-2.6,3.4-4,3.4-4c2.2-1.4,5.1-1.4,5.1-1.4c2.9,0,5.1,1.4,5.1,1.4c2.2,1.4,3.4,4,3.4,4c1.2,2.6,1.2,6.2,1.2,6.2
		C349,87.2,347.8,89.8,347.8,89.8z"/>
	<polygon points="374.8,69.3 374.8,81 360.7,81 360.7,69.3 356.9,69.3 356.9,97.9 360.7,97.9 360.7,84.4 374.8,84.4 374.8,97.9 
		378.6,97.9 378.6,69.3 	"/>
	<path d="M60.6,45c3.1-1.8,4.9-5.2,4.9-5.2c1.8-3.4,1.8-7.8,1.8-7.8c0-4.5-1.8-7.8-1.8-7.8c-1.8-3.4-4.9-5.2-4.9-5.2
		c-3.1-1.8-7-1.8-7-1.8c-3.9,0-7,1.8-7,1.8c-3.2,1.8-4.9,5.2-4.9,5.2c-1.8,3.4-1.8,7.8-1.8,7.8c0,4.3,1.8,7.7,1.8,7.7
		c1.8,3.4,4.9,5.2,4.9,5.2c3.2,1.9,7.1,1.9,7.1,1.9C57.5,46.8,60.6,45,60.6,45z M48.5,42.2c-2.2-1.4-3.4-3.9-3.4-3.9
		c-1.2-2.6-1.2-6.1-1.2-6.1c0-3.6,1.2-6.3,1.2-6.3c1.2-2.6,3.4-4,3.4-4c2.2-1.4,5.1-1.4,5.1-1.4c2.9,0,5.1,1.4,5.1,1.4
		c2.2,1.4,3.5,4,3.5,4c1.2,2.6,1.2,6.2,1.2,6.2c0,3.5-1.2,6.1-1.2,6.1c-1.2,2.6-3.5,4-3.5,4c-2.2,1.4-5,1.4-5,1.4
		C50.7,43.6,48.5,42.2,48.5,42.2z"/>
	<polygon points="32.1,29.5 18,29.5 18,17.7 14.2,17.7 14.2,46.3 18,46.3 18,32.9 32.1,32.9 32.1,46.3 35.9,46.3 35.9,17.7 
		32.1,17.7 	"/>
</g>
</svg>
