<svg xmlns="http://www.w3.org/2000/svg" viewBox="0 0 898.99 773.76"><defs><style>.cls-1,.cls-3,.cls-4,.cls-9{fill:#4679f2;}.cls-1,.cls-2{stroke:#000;stroke-miterlimit:15.5;stroke-width:3.93px;}.cls-11,.cls-2,.cls-5{fill:#111b3c;}.cls-16,.cls-17,.cls-18,.cls-3{stroke:#111b3c;}.cls-17,.cls-3,.cls-4{stroke-miterlimit:1.4;}.cls-19,.cls-4{stroke:#4679f2;}.cls-4{stroke-width:0.25px;}.cls-16,.cls-17,.cls-19,.cls-6,.cls-8{fill:none;}.cls-6{stroke:#284386;stroke-linecap:round;stroke-linejoin:round;stroke-width:1.42px;}.cls-18,.cls-7{fill:#d4e0fc;}.cls-10{fill:#fff;}.cls-11{font-size:22px;font-family:TitilliumWeb-Regular, Titillium Web;}.cls-12{letter-spacing:-0.09em;}.cls-13{letter-spacing:-0.01em;}.cls-14{letter-spacing:-0.01em;}.cls-15{letter-spacing:-0.01em;}.cls-16,.cls-18,.cls-19{stroke-miterlimit:10;}.cls-16{stroke-width:0.79px;}.cls-17,.cls-19{stroke-width:4px;}.cls-18{stroke-width:2px;}</style></defs><title>Aktiv 1</title><g id="Lag_2" data-name="Lag 2"><g id="svg8"><g id="g1986"><path id="path1980" class="cls-1" d="M411.65,205.71h0c-2,21.95-8.94,43.2-12.25,65-2.42,15.89-16.75,36.34-5.57,47.9,8.37,8.66,26.13,3.91,36-3,9.52-6.62,13.91-19.95,14.72-31.51,1.83-26.4-23.32-56.57-23.32-75.88"/><path id="path1982" class="cls-2" d="M402.38,203.21c1.28,58.25-47.43,52.5-48.68,79.34.32,12.84,6.9,27.41,17.83,34.16,6.11,3.77,16.1,5.06,21.54.37,19.62-16.92,21.9-33.54,17-52.2-4.67-17.75,1.59-39.86,1.59-59.17"/></g><path id="path828" class="cls-3" d="M405.1,160.19c-.52-3.15-.17-6.42-.58-9.6-.34-4.36-.27-8.77-.89-13.09-.32-3.3-.82-7-3.39-9.34-1.8-1.7-4.22-2.55-6.11-4.13a50.11,50.11,0,0,1-11-10.56,32.78,32.78,0,0,1-5.78-12.81c-1.83.25-3.83,1.26-5.84.93a7.28,7.28,0,0,1-6.63-6.1,8.49,8.49,0,0,0-6.93-6.2c-2.48-.47-5-.28-7.52-.74-2.27-.35-4.67-.36-6.84-1.11a35.91,35.91,0,0,1-5.38-.73,157.26,157.26,0,0,1-20.57-4.87c-4.95-1.89-10-3.85-14.17-7.22a22,22,0,0,1-6.53-9c-2.21-5.78-2.56-12.11-2.09-18.23A33.2,33.2,0,0,1,303.72,28a62,62,0,0,1,14-11,155.38,155.38,0,0,1,16.63-7.94A116.89,116.89,0,0,1,369.85.92c3.29-.28,6.6-.31,9.9-.41,2.64,0,5.27.17,7.91.16,2.13.15,4.27.37,6.41.55a117.49,117.49,0,0,1,23.7,4.86,77.67,77.67,0,0,1,24.66,12.73,87.71,87.71,0,0,1,11.57,11A76.11,76.11,0,0,1,468.89,56a58.47,58.47,0,0,1-8.37,53.38c-.92,1.72-3.48,1.09-4.52,1.57,1.25,2.26-.5,4.75-1.71,6.62-3,4.4-7.65,7.22-11.59,10.7-2.8,2-6,3.21-8.95,5-4.14,2.47-8.67,4.38-12.39,7.5-2.5,2.35-3.74,5.76-4.38,9.07s-.71,6.78-.93,10.15c-2.72,1.31-1.84-2.86-2.05-4.34.18-2.57.15-5.14.24-7.71.35,3.74,0,7.52.21,11.27.64-.62.3-3.81.74-5.32.31-4.86,1.38-10.07,4.84-13.74,3.34-3.17,7.7-4.92,11.63-7.23a100.81,100.81,0,0,0,14-8.86c3.32-2.6,6.62-5.45,8.82-9.09,1.37-2.15,0-4.55-1.66-6-1.78-2.78-4.43-4.86-6.82-7.1-2.79-2.38-5.49-4.88-8.4-7.1-3.14-2.27-6.44-4.28-9.7-6.36A2.74,2.74,0,0,1,431.5,90c3.58,2.58,7.43,4.8,10.71,7.78,3.68,3,7.07,6.32,10.68,9.38,1.67,1.27,3.89,2.88,6,1.77,1.69-1.45,2.51-3.63,3.78-5.42A56.58,56.58,0,0,0,470,83.2a59.28,59.28,0,0,0,.68-7.87,64.17,64.17,0,0,0-1.16-11.82C466.65,49.25,459,36.22,448.66,26.06A74.57,74.57,0,0,0,421.53,8.78a114.6,114.6,0,0,0-30.39-6.56q-6-.45-12.05-.49c-3.52.25-7.07.16-10.59.58a121.83,121.83,0,0,0-25.37,5,132.76,132.76,0,0,0-22.67,9.83c-6.9,3.8-13.5,8.49-18.29,14.84A32.51,32.51,0,0,0,296,49.8a31.57,31.57,0,0,0,.53,8.29,25.59,25.59,0,0,0,2.76,9.34,22.5,22.5,0,0,0,11,9.83,66,66,0,0,0,13.3,5c6.34,1.62,12.78,2.84,19.21,4a141.9,141.9,0,0,0,14.56,1.65c3,.38,6.32,1.63,7.71,4.58.92,2.9,1.45-1.22,1-2.31-1-2.08-4.07-2-6.1-2.49-2.89-.4-5.81-.48-8.69-1-2.51-.45-5-1.21-7.44-1.78-3.31-.37-6.68-.7-10-1.38a68.24,68.24,0,0,1-14.25-3.85c-1.3-1.61-3.62.16-5.38-1a15.86,15.86,0,0,1-5.35-2.84,17.93,17.93,0,0,1-8.26-7.21c-1.05-2.09-.92-4.41-2.51-6.28a26.38,26.38,0,0,1-1.73-6.65c-.54-2.2.39-4.36.68-6.23-.19-4,1.48-7.83,3-11.47,1.67-3.61,3.59-7.49,7.09-9.66,2.08-.29,2.32-2.93,4.08-4a59.12,59.12,0,0,1,13.25-8.21c2.18-1,4.54-2.18,6.95-2.21,1.09-1.88,3.48-2.35,5.25-3.41A54.36,54.36,0,0,1,351,6.39c1.74-.26,3.42,1.34,4.55-.6C360.26,3.25,365.76,3,371,3c1.93-.26,4.11.57,5.73.48,2.17-.91,4.67-.59,6.93-.24,1.28.38,1.92,1.32,3.16.26a24.82,24.82,0,0,1,6.44-.22,76,76,0,0,1,11.53,1.41,83.44,83.44,0,0,1,19,5.72c2.34.86,2.78,3.81,5.51,3.56a23.65,23.65,0,0,1,13.55,9.84c.2,2.17,2.85,1.83,4.1,3.53,2.29,2.09,4.54,4.47,5.62,7.43-.59,2,2.27,1.42,3,3.12A45.43,45.43,0,0,1,462,47.85c2.43,5.16,4.64,10.58,5.16,16.31a14.88,14.88,0,0,1-.52,5.47c2.06,2.06,2.3,5.22,2.48,8,0,1.9.18,4.09-.89,5.73a14.51,14.51,0,0,1-.16,5.9c-.16,2.67-1.85,4.88-2.68,7.31-1.42,3.5-2.54,7.28-5.12,10.12-1.82,2-4.88,1.56-6.85.06a39.85,39.85,0,0,1-10.16-9.52c-1.31-1.65-3.55-2.17-5.2-3.44-2.55-1.7-5.24-3.4-7.12-5.87-1.17-1.62-3.35-2.44-3.49-4.82-.25-2.88-2.76.42-4.47-.27-1.5-.24-3.82-2.15-4.34.2-1.16.53-1.06,2.4-2.27,2,.91,3-2.6,3-4.16,1.54-1.12-1.49-4.84-1.64-3.7.94a48.21,48.21,0,0,1,1.85,5.76c2.15.92,2.4-2.13,3.9-2.91a43,43,0,0,1,5.42-1.91c2.25-.53,4.24.8,6.43.57,2,0,3.18,1.83,4.9,2.55a53.87,53.87,0,0,0,5.1,3.34,47.24,47.24,0,0,1,9.65,8.07c2,1.51,3.94,3.35,4.4,5.91,1.1,1.84,2.52,4.08,1.32,6.23-1.26,1.67-1,4.15-2.77,5.45-2.2.68-3,3-4.81,4.15a9.83,9.83,0,0,0-5.15,2.91c-1.35,1.25-3.24,1.72-4.56,3-1.95,1.09-4.06,1.74-5.68,3.37-1.91,1.3-4.18,2-6.07,3.37-3,1.7-5,4.61-6.62,7.6-.17-.37.58-3.41.37-4.74a41.43,41.43,0,0,0-.12-7.13c.19-2.58-1.19-4.88-1.3-7.42-.36-3.25-.72-7.22,2-9.61a11.17,11.17,0,0,1,3.91-2.5c-1.23,1-4.17,3-1.23,3.86.56.66,3.67.25,2.45,1.3-1.95-.27-4.14-2.34-5.8-.09-1.64,1.61-.13,6.33,2.4,4.24.58-1.09,1.87-2.21,1.68-.39-2.7.24-2.42,4.27-.59,5.5,1.62.38,3.35-1.71,3.43-3.3-.33-.76-.08-3.82.45-1.71-.29,1.32.24,1.61,1.33,1.19-1.81,1.09-2.95,4.29.06,4.69a2.53,2.53,0,0,0,3.46-3.44c-1.3-1.68-1.08-3.84-1.11-5.76-1.65-.64-2.26-2-.25-2.63-.25-.73,0-3.95.19-1.51,1.1,1.28-.73,2.24-.72,2.94,2.57.73.16,3.81,1.87,5.38,1.29,1.37.45,3.24,1.27,4.69,1.59,1,5.22-.18,4.62-2.34-.36-1.48-2.56-2.42-.69-3.54,1.18-1.27-.67,1.81.45,2.15.68,2.63,3.34.92,4.52-.35,2-2.23-1.92-3.16-2-5.08-.14-1.45-3.6-.82-3.42-1.26,1.49.06,4.52-.31,4.09,1.94.57,1.74,3,.7,2.76,2.57,2.16.41,5.32-2.34,3.46-4.43-.81-1.44-3.3-1.75-3.75-2.74,2.09,0,3.53,3.37,5.74,1.7,1.34-1.29,2.24-4.93-.33-5.36-2.05-.41-4,.71-6-.18-.74.56-4.19-.2-1.75-.22a44.54,44.54,0,0,0,6.94-.11c2.29,1.76,3.41-1.53,2.41-3.31-1-2.38-4.23-.87-5.7.22-.64,1.68-2.24-.47-3.56.54-.74.23-3.66.28-1.4,0,2.19-.64,4.55-.39,6.38-1.9,2.69.17,3.47-2.88,1.36-4.34s-4.18.51-5.44,2.06c-.59,1.19-3.8.93-1.41.26,1.58-.91,3.69-2.49,4-4.21-.61-3-3.51-1.66-4.6.15-.54.81-2.69,4.12-1.72,1.26.54-1.83,4.69-3,2.27-5.18-1.33-1.49-4.2-2.52-5.05,0-1.66,2.28,1.26,4.12,2.09,2-.35,2.68-4.26,1-2.86-1.22-1.73.56-1.46,3.16-3.24,3.94-.47,1.32-1.29.67-.24-.22,1.44-2.12,2.65-4.51,4.85-6s-2-4.55-3.46-2.87a1.88,1.88,0,0,0-.78,3c-1-1.63-2.7,1.29-2.71.61,1-1.68,3.08-3.09,2.79-5.28a2.47,2.47,0,0,0-4.65.62c-.71.65.23,3.82-.73,3-.58-1.83,1.85-4.32-.3-5.55a5.48,5.48,0,0,0-5,1.34c.42,1.79,2,3.38,2.41,5.32-.28,1.34-.85-1.76-1.31-2.16-1-1-1.06-3-2.53-3.49-2.67-.07-4,3.76-1.32,4.94,1,.37,1.65,1.77,2.28,2.07-1.79-.11,1.52,3-.5,1.55a5.07,5.07,0,0,1-1.23-2.9c-1.31-1.38-4.1-2-4.1.74-.91,2.38,1.64,3.78,3.35,4.69.73.34,3.13,3.21,1.24,1.63-1.18-1.63-3.11-2.11-4.8-2.7-1,.45.55,2.94-.84,1.62.07,1.08.73,1.22.85,1.27.17,1.86,4,1.36,3.81,2.41-1.26-.18-4.25-1.33-3,1.16,1,2.4,2,5.36,4.66,6.29.89.26,2.55-1.4,3-.58-1.64.32-2.1,1.88-3.42.76-2-.35-2.82-2.58-3.56-4.2a38.65,38.65,0,0,1-3.76-11.07,21,21,0,0,0,.14-6.42c-.27-2-.93-4.11-2.81-5.1-1.3-2,2-4,3.39-2.34,1.54,1.49,3.31,3.36,5.62,3.22,2.48-1-1-3.06-.78-4.44,1.17.2,2.6,1.9,3.32,0,1.4-.4,1.11-2.19-.45-1.76C415,75.14,410.45,70.67,405.7,67c-1.66-1.21-3.2-2.53-5.47-2.53-2.44-.28.75-.55,1.53.09,1.52.06-1.55-1.61-2.08-2.1a7.58,7.58,0,0,0-5.95-1.23c-5.15.31-10.43,2.79-13.15,7.31a8.64,8.64,0,0,0,.38,7.88c-.62-.18-1.73-3.27-1.63-4.7.22-4.44,4-7.75,7.8-9.38,2.47-1.37,5.34-1.41,8-2-4.87-2.39-9.72-5.29-15.12-6.47a58.08,58.08,0,0,0-14.6-2c-2.35.05-5.39.31-6.56,2.7-1.45,2.4.18,5.13,1.86,6.9,2.24,2.35,5.28,3.88,7,6.7A14.36,14.36,0,0,1,370,73c1.18-1.19,3.73-1.65,4.66.12a10.08,10.08,0,0,1-.33,7.29c-.85,1.69-2.44.89-3.64.57.42,1.42-1.65,5.48,1.2,4.33.71-.67,3.65.78,3.21,2.68.11,1,.37,3.91,1.6,1.81,2.47-2.41,4.85-5.14,8.06-6.56.91-.44,3.49-.47,1.17,0-3.11,1-5.37,3.46-7.68,5.63-1,1.3-3.38,3.89-3.21.65.09-2-.94-4.63-3.44-3.68-2.84.54-.95-3.49-1.48-5.09-.63-3.43,2.79,1.5,3.89-1.14.83-2.1,1.4-4.78,0-6.78-1.38-1.39-3.62-.26-4.25,1.33a12.82,12.82,0,0,0-3.15-6.94c-1.16-1.75-3.08-2.81-4.82-3.88a8.26,8.26,0,0,1-4.15-5.88A5.09,5.09,0,0,1,361,51.58c3.65-1.23,7.52-.38,11.25-.11A62.08,62.08,0,0,1,399.2,61.69,85,85,0,0,1,413.85,74c1.49,1.57,3,3.13,4.38,4.79,1.53,1.9,4.08,3.72,6.6,2.56,1.07.11,2.62-2.47.9-1a4.43,4.43,0,0,1-5.85-.41c-.81-.45-2-2.21-.49-.75,1.69,1.5,4.69,2.71,6.55.85,1.57-2.1.26-5.22-1.68-6.62s-3.6-2.83-5.51-4.07c-1.1.17-3.86-3.23-1.41-1.49,1.82,1.72,4.11,2.82,6.08,4.39,2.25,1.38,4.38,4,3.28,6.82.83,1.45.95-2.54.55-3.35-.51-2.49-2.86-3.62-4.8-4.84a48.11,48.11,0,0,1-4.56-3.39c-1.56-1.21-3.15-2.51-4.62-3.88-2.48-2.19-4.61-4.81-7.6-6.34a113,113,0,0,0-13.38-6.71c-.93-.19-3.06-1.48-3.33-1.17,2.73,1.24,5.53,2.38,8.17,3.85a21.4,21.4,0,0,1,4.66,2.83,99.49,99.49,0,0,0-21.59-9.32,55.23,55.23,0,0,0-14.83-2.27c-3.93.22-8.06.45-11.61,2.31-3.48,1.69-6.36,5.57-5.39,9.57.66,2.72,2.47,4.91,4.34,6.9.37.85-1.59-1.51-2-1.93-2.76-2.88-4-7.84-1.37-11.19a13.75,13.75,0,0,1,8-5.11,35.93,35.93,0,0,1,12.62-.66,69.19,69.19,0,0,1,15.73,3.74c.89-.1-1.94-1-2.61-1.15a83.73,83.73,0,0,0-13.87-3.37,30.08,30.08,0,0,0-13.29,1.3c-3.53,1.35-7.23,3.51-8.44,7.33a8.66,8.66,0,0,0,.45,5.91,10.43,10.43,0,0,0,4.42,5.7c3.74,2.38,8,3.7,12.24,5,2.63,1.21,3.64,4.32,4.14,7,.18,3.89.26,7.85-.85,11.62.39,2.58,3.84,1,5.53,1.88,1.76,1.75,0,3.75-2.08,3.53-1.89.22-4.52,1.72-3.86,4,.57,1.82,4.39,3.06,4,.15.23-1.4,1.81-3.34,2.79-3.42-1.21,1-4,4.89-1.18,4.76.14-.91,2.6.93,3.09-1,1-1.82-.06-4.31,1.8-5.76a20,20,0,0,1,4.87-3.83c2.58-1.15,4.49,1.39,5,3.63,1,1.47,3.58,4.5.1,4.63-1.5-1.38-3.39-.39-4.29,1.2-.79.76-.53,5,0,2.28.41-1.38,1.31-3.65,2.82-3.63a7.43,7.43,0,0,0-2.82,5.43c.26,4.65,2.68,8.82,5.62,12.29,1.26,1.47-.73-1.47-1.2-1.88-.86-1.48-2.47-3.55-2.49-4.9,1.76,3.14,3.65,6.35,6.5,8.61a23.23,23.23,0,0,0,4.75,3.44c2.38,1.52-1.42-.08-2-.67-.76-.3-3-2.69-2.91-1.74,2.46,2.25,5.51,4.6,9,4.34,2.47-.49,2.77-3.81,2.18-5.74-.78-3.94-3.05-7.37-5.13-10.72a28.64,28.64,0,0,1,5.47,10c.55,2.09.68,4.47-.56,6.36-.37,2.13,1.11,4.08,1.87,6,1.37,2.28,1.29,5,1.63,7.57.27,2,.15,4.11.5,6.14.13,2.45.34,4.9.27,7.37,0,3.42.57,6.81.41,10.24.08.72-.17,3.2-.29,1.05,0-2.87-.08-5.73-.33-8.59,0-4.21-.2-8.42-.59-12.62-.19-3-.23-6.19-1.59-9-2.26-2.6-5.6-3.9-8.28-6-.85-.69-2.88-2.06-2.85-2.55a46,46,0,0,0,7.83,5.1c1.27.42,3.18,2.91,3.65,2.88a26.47,26.47,0,0,0-4.25-6.87c-1.07-.8-1.6.19-.23.69.64.32,1.89,2.31.6.82-2.55-2.22-6.11-2.84-8.53-5.26a18.45,18.45,0,0,1-4.3-4.52c-2.7-3.38-4.79-7.4-5-11.78-1.17-1.39.13-4.22-.58-5-.3,1.94-.91,4-.35,5.9,1.14,5.42,3.34,10.91,7.59,14.66.51.75,2.72,2,2.28,2.5-1.74-1.48-3.49-3-5.09-4.59-.93-1.82-2.38-3.44-3.2-5.38a36.32,36.32,0,0,1-2.74-10.66c-.18-1.48-3.09-4.17-3.32-1.35.09.9,1.67.92,1.1,2.3.33,5.52,3.24,10.47,6.6,14.69,1.13,1.64,2.89,2.81,4.23,4.31A50.63,50.63,0,0,0,400,126.22c2.81,2,4.18,5.34,4.59,8.66q.78,6.15,1,12.34c.17,2.07.19,4.17.35,6.26a47.3,47.3,0,0,1,.09,6.52c0,.58-.68.47-1,.19Zm12-18.61c1.3-2.13,3.62-3.26,5.43-4.86-1.74.69-4.13,1.71-5.29,3.57-.19.12-.77,1.87-.14,1.29Zm1.33-3.34c1.15-.57-2.63-1.06-.85,0A.55.55,0,0,0,418.42,138.24Zm1.45-1.07a12.67,12.67,0,0,1-3.28-2.32A2.5,2.5,0,0,0,419.87,137.17Zm2.08-.81c.94-.42,1.51-1.18.09-.69-2,.15-4.1-1.14-5.46-2.14.18,2.23,3.43,3.68,5.37,2.83Zm1.17-1.16c2.71-.42-1.57-.49-2.42-.47-2.11-.18,1.77-.43,2.44-.35,1.47-.19,4.28-.79,4.2-2.32-3.26,1.41-7.16,1.83-10.43.21-.33,1.45,2.36,2.67,3.79,2.94a7,7,0,0,0,2.42,0Zm3.95-1c.65-.63,1.45-2.17.05-.88C426.46,133.75,425.43,134.89,427.07,134.22Zm1.71-1c1.4-1.73,4.07-1.84,5.36-3.36-1.79,1.2-4.77.94-5.8,3-.19.63-.32,1,.44.34Zm-6.08-.36a10.55,10.55,0,0,0,6.17-2.68c-1.09-1.29-3.16,1.75-4.87,1.71-.68.22-4.2,1.27-1.72.32,1.49-.57,4-1.12,4.51-2.43-2.55-.67-4.39,1.47-6.84,1.74a6.6,6.6,0,0,1-3.48-.63c.57,1.83,3.14,2,4.83,2.12a7.31,7.31,0,0,0,1.4-.15Zm6.27-1.37c2.13-.36-.51-1.63-.73,0C427.46,132.32,428.82,131.51,429,131.47Zm-8.06-.51c1.16-.35,4.39-1.33,1.81-2.23-1.69.15-3.52,1.84-5.56,1.72.48.79,2.69.86,3.75.51Zm11.19-.76c1.23-.54,3-1.64,3.2-2.85-1.54,1.76-3.38,2.78-5.74,2.32-1.43,1,2.06,1.13,2.54.53Zm-12.81-.56c1.19.12,3.82-2.12,1.23-1.18-1.89.17-4.07-1.67-5.22-1.94.22,2.08,4.05,2,4.35,2.73-1.25.09-3.32-1.14-4-.79C415.85,130.55,417.91,129.71,419.29,129.64Zm16.64-.79a19.06,19.06,0,0,0,4.82-3.84c-2.15-1.38-1.85,2.7-3.95,3C436.32,128.11,434.52,129.74,435.93,128.85Zm.54-1.15c.75-.37,2.87-2.09,2.08-2.46C437.93,125.93,434.26,126.86,436.47,127.7Zm-17.91-.25a27.28,27.28,0,0,0-3.34-5c-1.05-1.36-.22,2.44.9,2.31-1.6.86,1.58,2.74,2.44,2.74Zm-1.14-.93c-.59-.64-1.19-2.33-.11-.83C417.52,125.8,418.16,127.23,417.42,126.52Zm26-2.14c2.18-1.16,2.87-4.27,2.16-6.45-2.17.24-.29,4.21-3,4.58-.79.17-4.38,1.79-1.89,1.6a4.9,4.9,0,0,0,4.33-4c.77-2.19.21,2.08-.61,2.46-.52,1-4.43,2.14-1.41,2l.38-.17Zm3.22-3.33a6.45,6.45,0,0,0,2.6-5.87c-1-2.28-1,1.8-1.6,2.52,0,1.17-2.24,2.87-1.36,3.53l.36-.18Zm2.25-1.31c.9-.45,1.33-4.36.45-1.9C449.4,118,447.6,121.11,448.9,119.74Zm-2.33-1.22c1.24-1.46,2.58-4.8.51-6,.2,1.94-.85,3.93-.76,5.9,0,.1.21.38.25.11Zm-55-2.61c-.35-.86-2.49-2.12-.93-.62C390.85,115.42,391.24,116.19,391.53,115.91Zm59.32-.68c1.3-1.82.2-3.92-.86-5.54-.86-1.11.66,3.34.24,4.47C450.15,114.75,450.24,116.9,450.85,115.23Zm-.89-.82a25.45,25.45,0,0,0-.88-5.69c.35-1-1.49-3.42-2.63-4.46-.72-.75-2.06-1.56-.83,0,1.84,2.71,3.34,5.83,3.32,9.17.13.12.94,1.83,1,1Zm-1.56-2a16.15,16.15,0,0,0-2.41-7.08c-1,.57,1.59,2.75,1.19,4.16C447.39,110.88,446.07,112.86,448.4,112.39Zm9-5.89c2.87-1.11.7-3.54-1.37-3.84a24.88,24.88,0,0,1-6.08-4.93c-.84-.76-.73-2.25.35-.77,2.16,2.39,4.6,4.92,7.89,5.54,1.65-1.47-.1-3.65-.67-5.1a6.4,6.4,0,0,1,1.65,5.67c1.37,2.92,3.43-.85,4.08-2.36.23-1.72,2.52-3.94,1.26-5.39-1.59-1-2-3.32-2.62-4.71,1.13,1.28,1.65,4.17,3.79,3.81,1.56-2,1.79-4.78,2.23-7.25.65-1.39-.5-3-.28-4,1.34-1.61.92-4,1-6-.22-2.22-.47-4.66-1.81-6.51-2.25-.31-4.32-1.82-6.65-1.52-.88.17-3.75.81-1.43-.12,1.84-.69,3.72-.06,5.61-.13,2.89.4,2.48-3,2.32-4.87a48.07,48.07,0,0,0-4-13.43c-1.3-2.13-4.2-.42-6.07-.11-.88.49-2.44,1.39-.7.13,1.49-1.38,4.74-.88,5.43-2.6a40.33,40.33,0,0,0-5.82-9.26c-1-1.39-3.53-3.44-3.08-.28-.11,2.21-2.07,3.61-3,5.42.36,1.18.16,3,2,2,1-.79,3.89.68,1.25.25-1.73.11-4.43,1.66-3.92-1.19a25.21,25.21,0,0,0-4.5,4.66c-.63.82-1.79,3.9-1,1.25,1.63-4.53,6.62-6.77,8.13-11.37,1-2.94-2.87-1.87-4.26-3.08-1.61-.84,1.9.8,2.79.38,3.2-.22,1.84-4,.17-5.24a26.93,26.93,0,0,0-5.72-5.36,13,13,0,0,1-6.48-.77c-2.79-.62-6.06-.17-8.07,2-.57.44-3.22,3.15-1.62,1.08,1.8-2,3.72-4.64,6.73-4.35,2.05-.06,3.86,1.17,5.87,1.21,2.55-.16,1.35-2.08.2-3.21a24.21,24.21,0,0,0-12.48-7.85c-2.21-.17-3.77,1.57-5.11,3.06-2.33,2.15-4.48,4.54-7.2,6.22,1-1.17,2.86-2.11,3.66-3.68a1.91,1.91,0,0,0-.94-2.73,3.47,3.47,0,0,0,5.26-1.68c1.26-.86-1.58-2.1.53-2.06,2.84-.32-.88-2.42-1.91-2.8-6.3-3-13.17-4.49-20-5.79a91.91,91.91,0,0,0-11.57-1.23c-1.92.21-4.87-.49-5.81,1.78-.61,2.07,3,1.66,3.59,3.5,1.57,1.89,4.3,1.41,6.19,2.52,1.51,1.79,1.27,4.41.88,6.55.23-2.27.31-5.29-2.09-6.46-1.82-.94-4-1.09-5.61-2.5C387,7.69,384.91,6.69,383,7.75c-2.38.56-3.57,2.76-4.47,4.81-.54.88-1.5,4.91-1,2a16.77,16.77,0,0,1,3-6.13c1.62-.93,4.85-2,3.4-4.49-2-.83-4.37-.46-6.5-.28-.71,1.76-1.33,3.65-3.53,4.16-1.44.82-3,2.15-4.23,2.83a37.79,37.79,0,0,1,5.05-4c2.53-1.12.2-3.83-1.86-3.12a43.48,43.48,0,0,0-11.45.68c-2,.58-4.87.74-5.78,2.8-.26,2.52,2.1,4.13,2.8,6.36,1.34,2.87,2.36,5.94,3.71,8.75-1.3-1.72-1.9-4.09-3-6a48.39,48.39,0,0,0-4-6.75c-.54-2.31-3-3-5.05-2.4a36.22,36.22,0,0,0-6.54,1.56c1.67,1.58,2.48,4.41,5.11,4.68,1.13.14,3,2.2,2.65,2.57-.95-2.8-4.38-1.57-5.84-3.55-1.15-1.58-2.86-4-5.1-2.71-2.68,1.13-5.54,2.06-7.88,3.84-.48,2.06,2.2,3.54,2.2,5.78.27,1.3,1.23,3.35,1.05,4.23-1-2.18-1.3-4.75-2.87-6.62-1.7-.7-2.46-3.34-4.56-1.78a65,65,0,0,0-16.1,9.16c-1.14,1.05-3.77,2.61-2.15,4.28,1.63,1.91,4.43,1.41,6.47,2.6.9.24,2.82,2.47,1,1-1.6-1.27-3.66-1.36-5.57-1.71-2.15-.08-3.56-3.35-5.56-1-3.17,2.82-4.91,6.85-6.6,10.66-.79,2.51-2.36,5.15-1.53,7.83,1.56,1.67,4.28.32,6.26.14,1.08-.16,3.2-2.43,3.14-1.95-.56,1.14-4.07,2.36-1.35,2.84,1,.31,3.4,2.35,1.06,1-2-1.66-4.79-1.34-7-.24-2,.69-3.8,2.38-3.65,4.61A22.66,22.66,0,0,0,299,62.91c1.6,1.71,4.29,1.12,6.28.5.81-.36,4.27-1.33,1.75-.31a13.88,13.88,0,0,1-6.6,1.67c-.85,1.58.7,3.51,1.54,4.89a16.7,16.7,0,0,0,6.7,5.45c1.23-1.22,2.94-3.5,2.49-5.51-.18-.79.17-3.52.35-1.26-.35,1.57.62,2.81,2.18,1.84.73-.14,3.37-1.26,3.13-.81-1.7.69-3.4,1.54-5.1,2.07-.39,1.62-2.91,3.92-.78,5.13s4.52,2.63,6.95,1.76a3.57,3.57,0,0,0,1.81-5c.72,1.75,2.49,2.82,4.16,3.67s3.82,1.3,5.32,2.35c-2.55-.72-4.88-2.07-7.42-2.77-2.56.79-.44,3.92,1.59,3.84a98.39,98.39,0,0,0,16.38,3.46c1.32-.17,4.51,1.33,4.39-.47-1.18-.69-3.3-2.17-3.92-2.55,1.82.68,3.69,1.18,5.07,2.63,2,2.12,5.2,1.69,7.81,2.42,2.77.28,5.64,1.36,8.35.18,2.8-.23-2.18-4.7.68-2.32,1.57,2.48,3.58-.39,4.38-2,1.68-3.74.7-8.11-1.29-11.53-1.16-1.89-3.68-1.8-5.52-2.65-2.54-.74-4.78-2.23-7.31-3-2.25-1.16-3.31,1.61-5.3,2-2.4-.68-1.81,3.83-3,3.81,1.34-1.72-.52-3.92-.27-5.19,1.61,1.44,4.37.58,5.42-1.15a24.85,24.85,0,0,0-1.65-5.67,9.46,9.46,0,0,1,1.88-10.31c1.12-1.61,3.14-2.36,4.43-3.62,0-1.18.32-1.5,1-.46a51.38,51.38,0,0,1,8.07-1.21c1.5-.48,4.22.83,4.6-1.33,1,2.2,3.89,1.36,5.77,2.09,3.87.86,7.6,2.28,11.52,3,1.31,1,3.42-2.24,2.5.48,1.12,1.66,3.74,1.65,5.35,2.85,3.7,1.83,7.56,3.61,11.72,3.94,1.93.31,2.69,5,4.32,1.78.51-.69,2.59-2.56,1.16-.66-1.26,1.29-1.77,3,0,4,1.25,2.4,3.64,3.92,6,5,2,0,2.05,2.07,2.76,3.4,1.75,1.1,4,1.42,5.54,2.93a7.22,7.22,0,0,1,3.2,5c1.22,1.64-1.4,5.4,1.72,5.23,2.18-1.37,2.34-4.42,3.38-6.61.72-1.22.65-3.49.74-4.22,1.43,1.86,3.84,1.59,5.65.52a5.9,5.9,0,0,0,4.24-4c.72-1.81,1.31-3.82,2-5.52-.14,2.23-1.07,4.35-1.57,6.52-1,2.11,1,3.86,2.32,5.22.63.43,1.73,1.69.29.78-1.9-1.13-3.77-3.39-6.19-2.5a16.55,16.55,0,0,0-6.25,2.62c-1.77,2.14-2,5.1-3.61,7.37-1.94,2.51,1.56,3,3.33,3.16,2.44.89-4.2-.32-2.4,1.84s4.65,2.84,6.92,4.35c-1.33-.26-3.57-1.5-5.24-2.09-1-.7-2.09-.47-.66.58a43.91,43.91,0,0,0,9.37,6.63c1.32.58,2.79.07,4.15.37-2.07-.62-2.9,1.51-1.08,2.58a38,38,0,0,0,9.13,8,3.73,3.73,0,0,0,3.66.33Zm-9.64-12.58a23.79,23.79,0,0,1-6.41-2.84c1.51.29,4.78,2.76,5.14.2-.35-1-.15-1.69.3-.3,0,.63,2.6,3.45,1,2.94Zm11.09-.74c-1.51-1.84-3.14-3.59-4.48-5.56-.46-1.31,3.65-1.13,1.5-2.94-.5-.67-3.77-2.79-1.33-1.54,2.9,1.84,6.24,2.69,9.52,3.51.91.45-2-.41-2.67-.23-1.83,0-4.18-.3-5.54,1.11.06,2.44,2.31,4.06,3.44,6-.09.24-.39-.42-.44-.4Zm-6.29-6.47c-4.38-1.54-9-2.93-13.67-2.6-.92,0-5,.35-2.19-.27,3.27-.78,6.11-2.66,9.08-4.14,1.89-.6,3.45-2,2.07-3.83a7.38,7.38,0,0,0,5.74.94c2-.28-1.41.75-2.08,1.11-2.94,1.31-6,2.56-8.5,4.59.28,1.72,3.43,1.45,4.93,2.16,1.66.62,4.39,1.45,5.31,2.28l-.28-.08-.41-.16Zm-95.13-5.28c2.17-1.73-1.34-3-2.5-4-.94-.42-1.39-1.17-.08-.35,1.7,1.06,4.85,2.72,5.92,0a5.77,5.77,0,0,0-2.64-6.23c1.05-.39,3.19,2.51,3.22,4.23.37,2.07-.1,4.56-2.16,5.57-.55.21-1.21.89-1.76.76Zm-20.29-1.25a13.22,13.22,0,0,1-7.2-4.12c-.52-.7-2.63-2.38-2.18-2.62,2.42,2,4.7,4.31,7.48,5.83.73.24,5.08,1.45,1.9.91Zm124.16-4.7c-.88-.52-4,.27-3.67-.19,1.95-.37,3.41-2.34,5.18-2.53-1.5.33-1.43,2-1.22,2.83l-.29-.11ZM348.34,75c-3.09-.35-6.24,0-9.3-.49a29,29,0,0,1-11-3.82c1.62.51,3.11,1.59,4.86,1.86A69.13,69.13,0,0,0,342,74.43a5.5,5.5,0,0,0,5.56-2.67c1.4-1.8-1.53,2.93.93,2.76.73.19.49.8-.18.48Zm-10-4.35a11.12,11.12,0,0,1-6.4-2.37,24.58,24.58,0,0,1-4.43-3.9c2.64,2,5.11,4.36,8.27,5.46,2.23,1.59,1.3-4.56,1.83-1.28-.34,1.34,1.14,2,1.81,2.34C339,70.83,338.67,70.73,338.31,70.65Zm94.34-2a37.59,37.59,0,0,0-4.45-8.61c-1.22-.15-4,2.78-1.86.51,2.26-1.71-.28-3.88-1.1-5.61-1.66-2.38,1.12.4,1.69,1,1.7,2,2.56,4.62,4.19,6.68s4.23,1.08,5.79-.41c.74-.66,2.92-1.71,1.06-.28a11,11,0,0,1-4.83,3.18C432,66.16,433,68.28,432.65,68.67ZM451,68.08a65.66,65.66,0,0,0,2.91-11.6c0-.86.62-3.11.51-.87.25,2.07-1.55,4.83.37,6.35,1,.47,2.52,1.11.5,1-2.49.45-3.36,3.23-4.27,5.21l0-.13ZM320,66.37c-1.18-1.59-3.31-3.85-5.42-2.43-.78.69-1.62,1.86-.82.13a4.22,4.22,0,0,0-2.05-5.52c-.7-.54-5-1.52-2.3-1.18,2.88.42,5,2.68,6.43,5,1.57,1.32,3.78,2.3,4.51,4.34l-.13-.09-.22-.26Zm11.15-3.28c-2.54-3-5.53-6.24-5.41-10.42-.51-1.83,1.68-5.61-1.63-5.27-2.13-.12-4.33.25-6.41-.32-.49-2.06,3.06-.66,4.19-.36,2.21.61,5.05,0,6-2.31.84-2.85,3.2-4.89,5.66-6.36,2.22-1.79-1.15-3.89-2-5.56-1.54-2.15,1.29.9,2,1.45,1.49,1.86,3.86,1.36,5.74.49,5.38-2,10.54-4.91,16.31-5.67,2.06-.2,4.37-1.51,3.79-3.9a3.31,3.31,0,0,0,3.49,3.36,88.61,88.61,0,0,0,10.44.56,50.52,50.52,0,0,1,10.8,1.55c2.29,1.6,4.21-.51,4.55-2.76-.05-1,.36-2.54.36-.62.17,1.95-.27,4.48,1.51,5.78-1.72,0-3.83-1-5.73-1.25-4.92-.89-9.91-1.41-14.89-2-4.14-.21-8.25-.94-12.41-.54-6.15,1.35-12.35,3-17.82,6.24-5.14,2.51-10.17,6.24-12.26,11.76A15,15,0,0,0,329,60c.58,1.22,2.19,2.26,2.44,3.36l-.25-.27ZM342.07,63c-.75-.51-.88-1.48,0-.33C342.19,62.66,342.1,63.59,342.07,63Zm-18.59-1.14c-1.69-2.81-3.72-5.76-7-6.85a15.79,15.79,0,0,1-6.06-6.18c1.15,1,3.13,3.33,4.8,4.6,1.25,1,3.42-1.15,4.51-.63-1.19.54-3.22,1.35-1,2.3,2.13.64,3.07,2.72,4,4.54C322.73,59.8,325.14,64.09,323.48,61.83Zm17.33-2.1c-1.08-1.4-1.68-3.8-3-4.4,1.4-1.62-.43-4.54.71-6.61,1.67-2.17-1.3-3.68-2.27-4.69a5.07,5.07,0,0,0,5.85-1.3c1.38-1.15,2.65-2.38,4.42-2.84,4.3-1.71,8.82-3.87,13.56-3.15-1.31.92-3.85.76-5.62,1.34a28.53,28.53,0,0,0-6.12,2.16c-1.33.74-3.22.74-4.48,2.07a15.24,15.24,0,0,0-5.18,10.39c.2,2.5,1.4,4.78,2.36,7.06l0,.13-.2-.16Zm104.51-.55c-.34-1.29-2.09-2.32-2.39-3.22,1.55,2.46,4.64.46,4.85-1.82.65,1.93-1.86,3.79-2.37,5.29l-.09-.25ZM437,57.53c-.19-2.11,1.42-4.69-.57-6.32-.54-1-5.22-1.16-2.48-1.7,3.15-1,3.94-4.64,4.49-7.52.6-1.1,0,2.18-.17,2.71,0,1.54-2.11,4.62.63,4.59,1.95,0-.85,2.64-.66,3.82A31.11,31.11,0,0,0,437,58.68a8.83,8.83,0,0,1,0-1.15Zm-20.17-2.21c-3.38-3.67-7.93-6-12.45-7.9a27.28,27.28,0,0,1-6.93-3.83c1.58,0,3.81,3.15,5.29,1.34.55-.38.44,2,1.79,1.77,1.92.26,4,2.21,5.74,1.51.55-.68,1.95-3.71,1.07-1.17-1.74,2.22.54,3.72,2.28,4.8,1,.8,3.62,2.9,3.21,3.48ZM424,53.1a32,32,0,0,0-4-5.32,11.5,11.5,0,0,0-4.95-3.7c-3.05-1.74-6.26-3.19-9.25-5-4.09-1.85-8.26-3.56-12.41-5.26-1.78-1.12,1.68.57,2.28.62a22.76,22.76,0,0,0,5.86,1.34c2.29-.76,1.9-3.78,2.5-5.7.57-2.67.73-5.4,1.05-8.11,0,3-.23,6.09-.43,9.1-.33,2.58-.16,5.52,1.71,7.52A21.11,21.11,0,0,0,411.57,42c2.88,1.26,5.76,2.69,9,2.44a56.41,56.41,0,0,0,5.63-2.89c.94,0-1.63,1.73-2.16,2.22-1.38,1.21-4.76,3.23-2.16,5,1,.88,2.77,4.12,2.18,4.34ZM307.71,41.87c.57-.83,1.74-2.36.36-2.81,1.9-.24,3.6-1.28,5.56-1.23,2.13,0,4.58.17,6.19,1.68-1.85-.79-3.89-1.53-5.95-1.09a10.68,10.68,0,0,0-5.94,3.51l-.16,0-.06-.11ZM387.59,40a30,30,0,0,0-7.82-1.06c-.83.07-4.71.07-1.94-.41a22.12,22.12,0,0,1,8.23,0c.37.1,3.48,2,1.53,1.51Zm-13.75-1.31a35.1,35.1,0,0,0-7.61-1.28c-1.37-.26-3.88-.11-4.59-.81,2.64-.34,5.27.6,7.9.22,1.21-1.57.86-3.86,1.84-5.57-.12,1.87-1.37,4.29-.18,5.86.84.66,2.51.94,3,1.71l-.34-.13Zm-51.21-.18a3.77,3.77,0,0,0,2.4-5.63c-.94-1.58-.8-4.58-3.14-4.69-.9-.36-3.66-.62-3.57-.91,1.61-.2,5.29,1.93,5.13-.95.55-1.47,3.82-1.32,4.16-1.5-2,.13-4.61,1.07-3.34,3.54.82,2.68,2.45,5.57,1.34,8.41a3.06,3.06,0,0,1-3,1.73Zm110.38-2a19.72,19.72,0,0,0,6-6.3,4,4,0,0,0,2,3.94c-2.25-.5-4.34.73-6.29,1.67C434.66,35.94,431.64,37.39,433,36.46Zm-13.08-1.28c-1.05-2.52-3.85-1.6-5.8-.9-1,.38-2,.32-.33-.19a22.17,22.17,0,0,0,9-5.91c.14.44-2.15,2.38-2.59,3.66a3.52,3.52,0,0,0-.11,3.53l-.19-.19Zm-81.37-7.4c1.86-1.55,4.4-2.14,6.21-3.77.72-2-2.34-2.74-3.16-4.19-1.07-2.4,1.31.52,1.94,1.06a18.32,18.32,0,0,0,5.7,3.61c-1.46.38-4-.08-5.59,1.12C342,26.18,340,27.39,338.56,27.78Zm33.54-4.47c-.66-2-.17-4.79-2.34-6-2.18-1.7-4.49-3.21-6.83-4.7-.55-.75,2,1,2.52,1.29,2,1.06,3.88,2.44,6.06,3.1.86.25,3.15-2,1.67-.25s-1.26,4.18-.82,6.29c.13.09-.09.67-.26.29ZM389.36,23c-.2-2.72-3.73-3.23-3.95-5.77.59-1.06-.1-3.69.42-3.7.33,2,.22,4.46,2.38,5.58,1.58,1.37,1.08-3.9,1.83-3.26-.06,2.07-.39,4.13-.38,6.2C389.59,22.36,389.56,22.87,389.36,23Zm16.08-2.45a13,13,0,0,0-.3-7.73c-.21-1.18-1.43-3-.92-3.82.89,1.77.71,5,3.11,5.32.94-.12,3.17-2.09,1.58-.13a24.2,24.2,0,0,0-3.46,6.5Zm38,80.74c-.43-.69-2.41-2.12-1.56-.32.61.15,3,1.69,1.56.32Zm-69-1.36c-.84-.83-3.52-.9-5.05-.84A8.07,8.07,0,0,0,374.45,100Zm35.3-.82c0-.78-.38-2.41-.24-.6C409.46,98.92,409.82,100.33,409.75,99.14Zm-27.81-.29c.37-1.36-1.6-4,1.1-3.33,1.23,0,2.52-.63.76-1.33-1.12-.63-2.85.76-4,1.1.55,1.23,1.74,2.61,2.07,3.79l.08-.23Zm-5.29-.92c1-.63.66-3.23.33-.86C377.09,97.32,375.79,98.44,376.65,97.93Zm62.72-.09c-1.9-1.19-3.24-3.22-5.61-3.61a25.64,25.64,0,0,1,4.84,3.59l.37.08ZM367,96.59c-.86-2.64,2.75-3.69,4.71-4.15,2.25.25,2.19-2,.7-3-1.7.26-4.7,1-4.94-1.57.32-1-.13-1.93.16-2.68-.9.32-2.11.25-2.32-.66-1,1.13-3.17,1.49-3.88,2.41,1.76.7,4.57.71,5.15,2.92.14,2.25-.76,4.71.3,6.81.06.1.19-.12.12-.12Zm21.9-1.16c1.51-1.28-1.83-3-1.88-4.73s-3.31-3.1-2.62-.3c-.22,1.71-1.17,4.36,1.57,4.43C387.17,94.9,387.61,96.33,388.89,95.43Zm21.62-.69c1.66-.66.09-1-.31.08C410.22,95,410.53,94.79,410.51,94.74Zm-29-.72c2.24-.45,2.68-2.86,2.83-4.78.29-2.24-2.95.45-4,1s-2.38,2-1.4,2.12C378.55,93.68,380.51,94.29,381.47,94Zm31-.49c-.38-1-.59,1,0,0Zm-2.7-8.37c-.72-1.12-2.32.12-.38.09C409.46,85.21,409.79,85.35,409.78,85.16Zm-43-.06c0-.42-.1-2.14.43-.57,2.2-1-2.17-2.13-1.18.17.1.25.46.65.75.4Zm1.48-2.9c1-1.68-.83-1.46-.76.08C367.71,82.42,368.09,82.53,368.24,82.2ZM298.83,49.41c2-.66-2.86-1.51-1.11.4A3.36,3.36,0,0,0,298.83,49.41ZM412.92,160.1c-.12-9.39-.07-18.8-.2-28.19a89.37,89.37,0,0,0-1.87-15.56c-1-4.66-3-9-4.91-13.42-.82-1.47-1.39-3.59-2.34-4.67.92,2.28,2.09,4.47,2.83,6.82-.24.2-1-2.32-1.57-3.22-2.3-4.82-4.7-9.72-8.36-13.67-2.74-2.64-6.49-4.6-10.39-4-1.15,0-4,1.64-1.77,0a8.93,8.93,0,0,1,6.3,0c4.59,1,7.63,5,9.91,8.84a41.54,41.54,0,0,1,2.83,4.86,26,26,0,0,0-2.5-4.86c-1.89-3.42-4.15-7-7.93-8.54-1.05-.6-4.95-1.2-4.47-1.48a13.87,13.87,0,0,1,9.12,4.5c3,3.3,4.94,7.41,7.13,11.27a93.35,93.35,0,0,1,6.66,16.32c.71,2.69,1,5.48,1.73,8.18.72,3,.14-3.43.67-.77.53,3.93.23,7.92.46,11.87,0,2.06.28,4.07.2,6.14,0,.89-.55,3.44-.7,1.21-.79,2.47-.51,5.25-.6,7.85-.19,3.3.39,6.59.13,9.88,0,.09-.09,1-.36.66Zm.88-21c.11-.89-.25-2-.25-.42-.11.65.23,2.73.24.84v-.42ZM431,127.44c.14-2.16-1.4-3.93-1.13-6.12s-.85-4.39-.95-6.67c-.63-1.82.83-3.61,2.46-1.92a30.79,30.79,0,0,0,5.24,4c.72.55,3.29,2,2.75,2.19-2-1.19-3.89-2.61-5.83-3.92-1.27-.68-2.95-3.69-4.37-2.22,1.44,1.75,2.1,4.07,3.44,5.91,1.53,1,3.33,2.43,3,4.48a23.78,23.78,0,0,0-4.34-4.34c-.56-.44-1.46-3.52-.59-1.5s2.87,2.8,4.19,4.34c.1-1.55-2.89-2.36-3.34-4.13-.53-.9-1.5-4-2.3-3.25.09,2.69,1.05,5.25,1.49,7.89a18,18,0,0,1,.26,5.28Zm-.42-3.59c.05-.74-.24-3.3-.54-3.13C430.06,121.48,429.93,123.88,430.57,123.85Zm-16.77-4.71c.1-1.82,1.64-3.54,1.94-5-2.31-.14-3.09-2.78-3.82-4.57.18-.71.95,2,1.53,2.55.26,1.89,4.75,1.33,2.42,3.27-1.18.79-1.59,3.35-2.07,3.71Zm9-.86c-.26-2,2.39-4,1.49-5.49-1,0-4.28,1.5-1.74.12,2.34-1.57,3,1.32,1.36,2.64C423.41,116.3,423.17,117.92,422.77,118.28Zm16.05-1.15c-2.18-.39-3.31-2.47-5.11-3.53-.84-.85-2.87-1.91-3-2.62,1,.79,3.95,1.24,1.91-.54s2.43-1.74,3.31-2.92c1.16-.31,2.88-2.44,3.76-1.5-2.47.68-4.4,2.57-6.9,3.19-1.35,1.7,2.76,1.23,3.79,1,2.39.11-1.49.45-2.34.74-2.86-.19,1.92,2,3,1.91,1.06.38,3.85.67,3.85.79-2.75.08-5.35-.9-7.94-1.66.27.51-1.36-.77-.22.48a26.9,26.9,0,0,0,4.88,4c.81.46,4.27.66,1.67.7h-.32l-.3,0Zm-.36-3c-1.17-.18-5-1.11-4.43-1.56,1.18.85,4.56,1,4.73,1.7l-.3-.14Zm-17.95-3.08c1-2.41-2.75-2.1-4.14-2.76-.82.34-3.79-.63-1.44-.52.93.16,2-.12.52-.58-.76-.36-2.94-2.15-.89-1a5,5,0,0,0,5.11.81c0-1.36-1.69-3.49-1-4.7.92,2.15,1.43,4.53,2.66,6.5.89,2.08,4.79.78,3-1.27-1.12-2-1.57-4.35-2.6-6.39-.65-1.18-3.86-2.13-2.94-3.22.9.74,4,1.52,3.3,2.12-.87-.25-2.84-1.83-3.05-1.31,2,1.13,3.66,2.62,4,5,.43,2,2.66,4.18,1.46,6.09-1.92,1.27-3.61-1-4.34-2.52-.73.13-3.22.58-1.2,1.13,1.1.2,3.41,1.66,1.59,2.57Zm5.54-3a26.48,26.48,0,0,1-3.22-8.7,27.35,27.35,0,0,1-1.6-5.09c0-1.4,1.17,2.21,1.21,2.9.82,2.62,1.15,5.41,2.45,7.88.54,1.37,1.16,3.31,2.84,3.21A1.33,1.33,0,0,1,426.05,108.06Zm-15-.52c-2.18-5.7-4.76-11.26-6.72-17.05a14,14,0,0,1-.59-7c1.08-2.39,4.37-2.56,6.55-1.79,2.32,1.27-1.1-3,1.75-2.36,2,1.06.42-1.26-.39-1.33-2.43,1.88-5.54,2.43-8.47,3-1.22,0-3.47.57-4,.42,1.91-.59,4-.52,5.89-1.09,2.12-.6,4.9-1.19,6.16-3-1.23-2.8-3.11.48-5,.62a36.11,36.11,0,0,1-8.94,1.55c2.4-.71,5-.44,7.37-1.37,1.65-.71,6.12-1.6,4.24-4.1-1.32-2.13-3.78-2.95-5.81-4.2-1.85-.82-3.44-2.06-5.64-1.57-1,0-3.32.1-3.49-.45,1.94,0,3.88.28,5.89.21,1.4-.52,1.93,1.68,3.6,1.64,1.77,1.09,3.85,1.7,5.18,3.44,1,2.08,2.71,3.58,4.15,5.32a4.08,4.08,0,0,0,3.06,2.55A17.55,17.55,0,0,0,412.49,76a36.1,36.1,0,0,1-3.68-4.59c-1.56-1.31-3.19-2.77-5.25-3.14a20.9,20.9,0,0,0-6.64-1.84,19.89,19.89,0,0,0-6.35,0c-.13-1.26-2.9.54-3.86.76-1.91.72-4.21,2.1-3.75,4.5-.08.57-1.07,2.8-1.2.9-.22-2.91,2.7-4.54,5-5.57,2.1-1,4.42-2,6.73-1.08,4.69-.15,9.66.53,13.51,3.42,4.15,3,6.89,7.39,9.68,11.55.07,1.8-2.61-.74-3.66-.89-1.69-1.3-2.38.45-1.23,1.67.07.92,2.47,2,1.8,2.43-2-1.1-3.86-3-6.32-2.51a4,4,0,0,0-3.34,5.52c1.22,6.11,4,11.71,6.2,17.51.13.25,1.76,4,.91,2.88Zm20.59,0c.51-.93,3-3,2.87-2.52C433.56,105.67,432.48,107.56,431.6,107.52Zm1.42.09a24.34,24.34,0,0,1,4.22-1.27A14.71,14.71,0,0,1,433,107.61Zm-5.26-.8c-.07-1.2-1.91-3.61-1.54-3.76.65,1.27,1.84,2.72,1.64,4.11Zm2.63-.46c.24-.69,1.05-3.43,1.23-3-.69,1-1.17,4,.79,2.18,1.57-1.48,3.62-1.8,4.93-3.73,1.59-.93-1.35,1.81-1.88,2.09C433.54,104.2,432.36,106.86,430.39,106.35Zm-1.47-.65c-1.85-1.34.14-4.2,1-4.49-.67.93-2.63,4.23-.4,3.83,1.51-.8,1.23-3.68,1.81-4.15.16,1.91-.71,4.21-2.4,4.81Zm2.72-3.47c-.44-1.55,4.15-2.18,1.36-1.19C432.33,101.09,432,102.06,431.64,102.23Zm-6.12-.45c.23-2.41,2.21-4.08,4-5.42.36-1,1.57-1.33.67,0-2,1.37-4.33,3-4.49,5.6l-.1,0-.11-.16Zm-9.72-1.24c-.52-.48-3.57-2.06-1.27-1.18C415.24,99.45,418,102.1,415.8,100.54Zm1-.22c-1.11-1-2.67-1.94-3.05-3.35.72,1.52,2.86,2.29,3.31,3.59Zm8.8-.61c.32-1.93,2.66-2.67,3.66-4.26.4,1.1-2.65,2.41-3.4,3.82C425.71,99.29,425.69,99.92,425.56,99.71ZM422,98.82c-.33-1.11-.11-1.93.12-.3C422.16,98.81,422.21,99.8,422,98.82ZM373,96.68c.49-1.33,2.58-3.84,3.32-3.76C374.94,93.78,373.7,96,373,96.68Zm5.86-7.47c.54-.71,2.61-2.39,1-.81A5.51,5.51,0,0,1,378.86,89.21Zm16.75-7.95c-4.38-.41-9-1.22-12.45-4.22-.44-.77,0-1.81-.37-2.68a6.67,6.67,0,0,0,4.14,4.37c2.88,1.48,6.12,1.88,9.26,2.43,1.23.24-.37.21-.58.1Zm-6.14-3.44c-2.7-.76-5.66-2.38-6.39-5.28,1.34,2.7,4.05,4.32,6.81,5.26C390.2,78,389.1,78,389.47,77.82Zm27.17-1.48c-6.56-7.23-13.88-13.9-22.36-18.81a27,27,0,0,1,5.24,2.9c6.09,4.07,11.32,9.25,16.33,14.55C416.08,75,417.81,77.58,416.64,76.34ZM366.8,68.65c-1.34-2.5-3.91-4-6.25-5.37a9.84,9.84,0,0,1-3.5-5.23c.73,1.32,1.77,3.47,3.31,4.58,1.73,1.35,3.95,2.1,5.32,3.92C366,66.94,367.37,68.63,366.8,68.65Zm20.35-.24c-.45-1.52,3.08-1.68,4.35-1.89,1,.33-2.31.37-2.92.77-1.12.17-1.45,1.51,0,.91,1.42-.37,4-1,4.65-.07-2-.74-4.07.85-6,.28Zm15.05-2.9c-1-.18-2.43-.91-.54-.34C402.49,65.3,403.82,66,402.2,65.51Zm-11.43-.37a16.58,16.58,0,0,1,6.15-1c1.2-.36,3.26.75.9.46a24.29,24.29,0,0,0-7.14.6l.09-.11Zm-34-8.49c-1.12-2.91,1.58-5.73,4.35-6.14,3.25-.79,6.65-.45,10-.36a65.07,65.07,0,0,1,19.21,5.5c-1.73-.29-4.27-1.71-6.38-2.24a54.27,54.27,0,0,0-15.53-3.12c-3.48,0-7.38-.27-10.31,2-1.39,1.09-1,3.22-1.3,4.41Z"/><circle id="path1976" class="cls-4" cx="375.96" cy="82.45" r="8.5"/><path class="cls-5" d="M400.48,435.18s-40.11-6.21-46,22.47-11,71.46,18.63,97.26,50.69,14.9,62.3,1.65,6.47-29.35,6.47-29.35,12.45-21.46-7.84-53.52"/><path class="cls-6" d="M400.64,449a2.14,2.14,0,0,1-2.46-.69c-.62-.68-1-1.55-1.65-2.19a2,2,0,0,0-2.48-.47c-.9.69-.64,2.29-1.56,2.94a1.93,1.93,0,0,1-2.36-.51c-.62-.63-1-1.46-1.6-2.09a2,2,0,0,0-2.35-.58c-.68.44-.79,1.37-1.25,2a2,2,0,0,1-2.74.49c-.75-.56-.95-1.58-1.37-2.42s-1.46-1.6-2.24-1.07-.57,1.43-.86,2.17a2,2,0,0,1-1.76,1.24,1.82,1.82,0,0,1-1.73-1.24c-.17-.57,0-1.2-.24-1.75a2,2,0,0,0-2.58-.88,4.4,4.4,0,0,0-2.05,2.16,12.81,12.81,0,0,0-1.21,3.28,3.48,3.48,0,0,0,0,1.81,1.44,1.44,0,0,0,1.35,1.05c1.4-.08,1.44-2.41,2.72-3A1.37,1.37,0,0,1,374,450c.16.46.07,1,.19,1.43a1.62,1.62,0,0,0,2.11,1c.76-.32,1.13-1.17,1.58-1.85s1.32-1.33,2.06-.95c1.11.57.5,2.6,1.57,3.25.87.52,1.88-.38,2.48-1.21s1.54-1.76,2.45-1.32c1.18.57.91,2.93,2.22,3s1.38-2.33,2.66-2.61,1.84,1.93,3.14,2.32a2.1,2.1,0,0,0,2.21-1.18c.46-.78.66-1.69,1.15-2.45a2,2,0,0,1,2.28-1"/><path class="cls-6" d="M414.46,462.32c-.39.86-2,.95-2.94.48a20.09,20.09,0,0,1-2.5-1.87,3,3,0,0,0-3.12-.28c-1.15.84-.63,2.92-2.17,3.1-1.83.21-2.23-2.9-4-2.56-1.2.23-1,1.65-1.63,2.5a2.36,2.36,0,0,1-2.62.64,5,5,0,0,1-1.7-1.44,2.46,2.46,0,0,0-2.1-.88c-1.72.3-1.48,2.85-3.21,3.1a2.23,2.23,0,0,1-1.93-.85,10.43,10.43,0,0,0-1.28-1.55,1.13,1.13,0,0,0-.86-.3,1.09,1.09,0,0,0-.6.36,9.62,9.62,0,0,0-1.11,2,2.39,2.39,0,0,1-2,1.33c-2,0-2.77-2.95-4.7-2.54-.8.45-.9,1.36-1.23,2.09a1.64,1.64,0,0,1-2.86-.18c-.17-.61-.3-1.22-1-1.39a1.51,1.51,0,0,0-1.66,1.19c-.16.66-.08,1.39-.59,1.92a2,2,0,0,1-2.37.21,3.74,3.74,0,0,1-1.06-1.67,1.7,1.7,0,0,0-1.78-1,1.25,1.25,0,0,0-.88,1.31,4.53,4.53,0,0,1,0,1.6,1.18,1.18,0,0,1-1.51.67c-.87-.44-.43-2-1.46-2a1,1,0,0,0-.43.15c-1.13.68-.85,2.07-.44,3.16a3.08,3.08,0,0,0,1,1.58,1.67,1.67,0,0,0,2,0c.45-.51.13-1.36.77-1.73,1.13.4.56,2.37,1.8,2.36s.79-2.06,2-2.22a1.24,1.24,0,0,1,1.25,1c.13.51.19,1.1.7,1.42a2,2,0,0,0,2.34-.67,12.29,12.29,0,0,1,1.3-2c.62-.56,2-.68,2.34,0a2.88,2.88,0,0,1,.13.83,1.64,1.64,0,0,0,1.53,1.16,1.81,1.81,0,0,0,1.76-.93c.34-.81-.29-1.83.46-2.49a1.88,1.88,0,0,1,2.1-.07,3.21,3.21,0,0,1,1.36,2.38c1.11.26,1.9-.84,2.31-1.71s1.44-1.9,2.45-1.44.64,2.06,1.76,2.39,2-1.16,2-2a1.46,1.46,0,0,1,1.3-1.43c1.21-.18,1.61.87,1.81,1.68s.69,1.61,1.6,1.51a1.69,1.69,0,0,0,1-.53,4.83,4.83,0,0,0,1.23-1.88,1.3,1.3,0,0,1,.35-.65c.61-.48,1.63.12,2,.75s.56,1.44,1.38,1.64c1.07.27,1.92-.75,2.19-1.62l.12-.39a1.49,1.49,0,0,1,2.52-.18l.67,1.11a1.19,1.19,0,0,0,.59.58c.67.22,1.24-.46,1.47-1l.11-.27c.51-1.22,2.78-1.07,2.92.21v0c2.33-.59,1.15-4.1,3.39-4.89"/><path class="cls-6" d="M424.65,476a3.57,3.57,0,0,1-3.55,0c-.66-.41-1.46-1.06-2.1-.63s-.11,1.93-.91,2.41c-.64.39-1.43-.32-1.68-1s-.41-1.52-1.12-1.8c-1.11-.44-2,.91-2.36,2s-1.23,2.44-2.34,2a1.82,1.82,0,0,1-.8-.73,15.25,15.25,0,0,0-1.07-1.71,1.94,1.94,0,0,0-1.85-.74c-1,.24-1.28,1.34-1.54,2.24s-1,1.95-2,1.73c-1.41-.31-1-2.75-2.44-3.15-1.07-.31-1.89.94-2.1,2s-.43,2.31-1.5,2.63a2.27,2.27,0,0,1-2.26-1,12.48,12.48,0,0,0-1.53-2,1.78,1.78,0,0,0-2.37-.09,2.08,2.08,0,0,0-.38,1,4.82,4.82,0,0,1-.92,2.28,2.19,2.19,0,0,1-2.32.76c-1.26-.46-1.53-2.27-2.83-2.61-1.58-.41-2.78,1.68-3.13,2.89a2.5,2.5,0,0,1-1.67,1.7c-2.49.75-3.06-3.09-5.17-2.84-1.15.14-1.64,1.42-1.89,2.48s-.78,2.34-1.94,2.43c-2,.15-2.58-3.54-4.61-3.28-1.08.13-1.55,1.34-1.65,2.34s-.08,2.17-.89,2.84a1,1,0,0,1-.59.24,1.19,1.19,0,0,1-.62-.24,8.19,8.19,0,0,1-2-2c-.3-.43-.64-.93-1.19-.95a1.37,1.37,0,0,0-.9.38c-2.47,2-1.61,5.83-.88,8.62a1.72,1.72,0,0,0,1.45,1.3c1.24.14,1.76-1.16,2.12-2.17s1.25-2.05,2.23-1.64c1.16.49.7,2.51,1.89,2.93.94.33,1.77-.72,2-1.63s.3-2,1.18-2.48a2.51,2.51,0,0,1,2.59.57,7,7,0,0,0,2.27,1.57,2.49,2.49,0,0,0,2.75-1,8.55,8.55,0,0,0,.61-2.57c.2-.86.95-1.78,1.88-1.62,1.6.26,1.43,3.11,3,3.24,1.19.09,1.8-1.47,1.78-2.44a2.32,2.32,0,0,1,.69-1.79c1.17-1.1,2.68-.06,3.65.92s2.1,1.83,3.24,1.31c.89-.41,1.1-1.48,1.3-2.38s.71-2,1.7-2c1.51-.1,1.9,2.07,3.25,2.68s2.92-.66,3.39-2c.25-.69.53-1.6,1.31-1.65s1.17.74,1.67,1.26a2.91,2.91,0,0,0,3.69.26,9.26,9.26,0,0,0,1.73-2.46,2.39,2.39,0,0,1,2.63-1.17c.85.34,1.13,1.37,1.9,1.86a1.86,1.86,0,0,0,2.39-.46,5.3,5.3,0,0,0,.49-2c.14-.66.64-1.4,1.37-1.36.63.95,1.67,2,2.78,1.61s1-2,1.46-3.15a3.07,3.07,0,0,1,3-1.8"/><path class="cls-6" d="M420.3,490c-1.74.09-2.9-2.84-4.48-2.11-1.3.59-.93,3.08-2.32,3.38s-2.41-2.22-3.76-1.69-.54,3.36-2,3.62c-1.28.23-2-2.18-3.24-1.74s0,2.6-.88,3.64-2.43.11-3.17-.64a2.16,2.16,0,0,0-2.12-.68c-1.9.56-.61,3.63-2.14,4.49-1.11.61-2.29-.61-3.08-1.6a1.72,1.72,0,0,0-.65-.58c-.89-.35-1.64.79-1.76,1.74s-.15,2.1-1,2.54c-1.52.79-3.11-1.92-4.72-1.32s-.68,3.83-2.3,4.65c-1,.51-2.12-.31-2.95-1.06s-2-1.51-3-.89-.68,2-.63,3.15a1.57,1.57,0,0,1-.12.78c-.57,1-2.35,0-2.78-.89a1.64,1.64,0,0,0-2.06-.93c-1.67.67.23,3.37-1,4.45-.88.77-2.17-.2-3-1.07s-2.25-1.69-2.95-.75c-.87,1.17,1.17,3.16.09,4.15-.6.53-1.57.12-2.11-.47v0a1.58,1.58,0,0,0-2.76.84,5.77,5.77,0,0,0,.06,1.66,11.15,11.15,0,0,0,1.8,4,3.66,3.66,0,0,0,2,1.78,1.43,1.43,0,0,0,1.76-.76c.24-.66-.19-1.3-.36-2s.14-1.49.77-1.41a1.18,1.18,0,0,1,.68.49c.76.93,1.8,2.11,2.9,1.64a2.14,2.14,0,0,0,1-1.87,6.24,6.24,0,0,1,.34-2.21c.32-.68,1.25-1.15,1.84-.69a2.21,2.21,0,0,1,.51.76c.6,1.14,2.09,2.15,3.13.92a2.43,2.43,0,0,0,.48-1.94c-.15-1.06.33-2.86,1.54-2.78.94.07,1.33,1.21,2,1.82a2.17,2.17,0,0,0,3.37-1.24,10.27,10.27,0,0,0-.12-1.91,1.5,1.5,0,0,1,.84-1.56c1.25-.39,2.08,1.84,3.37,1.62.95-.16,1.13-1.43,1-2.38s-.1-2.19.78-2.56c1.59-.68,2.65,2.54,4.35,2.21,1-.18,1.28-1.37,1.45-2.34s.62-2.16,1.61-2.19c1.29-.05,2,2,3.65,1.08a3.08,3.08,0,0,0,1.35-1.84c.39-1.3,1.27-3.23,2.73-3,1.08.18,1.91,1.56,2.93,1.19.74-.27.87-1.23,1-2s.85-1.66,1.56-1.32c.27.14.43.43.68.6a1.41,1.41,0,0,0,1.8-.39,6.77,6.77,0,0,0,.91-1.8,7.5,7.5,0,0,1,3.49-3.67"/><path class="cls-6" d="M431.07,495.37c-1.32,1-3.09-1.67-4.56-.94-1,1,.26,3.42-1.09,3.92-1.11.42-1.95-1.43-3.14-1.36s-1.38,1.43-1.41,2.48-.37,2.42-1.42,2.47-1.81-1.29-2.75-.95c-1.44.51.08,3.34-1.26,4.06-1.17.64-2.29-1.46-3.6-1.22-1,.19-1.21,1.5-1.21,2.52s-.26,2.33-1.27,2.47-1.84-1.28-2.9-1.18c-1.28.11-1.47,2.09-1.28,3.14a2,2,0,0,1-.74,2c-1.84,1.33-3.74-2.76-5.25-.59a1.92,1.92,0,0,0,.09,2.15c1.2,1.8-1,3.68-2.59,3-.77-.33-1.39-1.14-2.23-1.07-1.37.1-1.49,2.21-1.16,3.41a2.93,2.93,0,0,1-.13,2,1.53,1.53,0,0,1-2,.87,15.89,15.89,0,0,0-3.71-.66c-1.26.06-2.62.94-2.62,2.2s1.09,2.27.56,3.28-2,.74-3,.3-2.33-.9-3.09-.11c-1.18,1.24.81,3.33.15,4.91s-3.48,1.09-4.85.44a2.86,2.86,0,0,0-2.55,0c-1.73,1-1.15,2.6-.44,3.84a22.7,22.7,0,0,0,3.86,5,4.22,4.22,0,0,0,2.15,1.31,1.64,1.64,0,0,0,1.94-1.23c.17-1.5-2.37-2.65-1.63-4,.51-.94,1.95-.5,2.83.1s2.19,1.22,2.9.42.15-1.73-.26-2.54-.67-2,.1-2.46c1.23-.77,2.35,1.57,3.8,1.58a1.65,1.65,0,0,0,1.5-1.31,3.25,3.25,0,0,0-.33-2.09c-.42-.87-1-2,.13-2.55a1.66,1.66,0,0,1,1.85.42,1.76,1.76,0,0,0,2.89-.77,6,6,0,0,0-.19-2.38c-.1-.8.17-1.8,1-2a2.05,2.05,0,0,1,1.24.27,4.77,4.77,0,0,0,2.14.53,1.8,1.8,0,0,0,1.69-1.21c.28-1.16-.89-2.69.07-3.39s2.07.88,3.26.93c1,0,1.68-1,1.79-2s-.17-2-.05-3,.87-2,1.85-1.94S407.92,516,409,516c.92,0,1.49-1,1.58-2a9.53,9.53,0,0,1,.29-2.73,1.46,1.46,0,0,1,1.11-1c1.33-.13,1.74,2.07,3.05,2.35a1.73,1.73,0,0,0,1.82-1.3A6.25,6.25,0,0,0,417,509c0-.6,0-1.34.58-1.59,1-.48,1.75,1.28,2.86,1.42.85.1,1.5-.84,1.56-1.69s-.23-1.71-.22-2.57.54-1.84,1.4-1.87a1.11,1.11,0,0,1,.26,0,2.25,2.25,0,0,0,2.79-1.79c0-.1,0-.21.05-.31.21-1.17,1.18-2.46,2.33-2.15a4.54,4.54,0,0,0,.86.28c.85.07,1.27-1,1.24-1.86s-.2-1.82.4-2.42"/><path class="cls-6" d="M437.92,506.92c-.28.8-5.3,3.85-6,3.48s-1.44-1-2.2-.73-1.19,1.36-1.12,2.3.44,1.83.48,2.78-.41,2-1.27,2.18c-1.27.22-2.42-1.76-3.55-1.1-.88.51-.59,1.95-.14,2.91s.88,2.31.1,3c-1.29,1.12-3.41-1.7-4.61-.46-.59.61-.31,1.69.07,2.47a3.15,3.15,0,0,1,.52,2.5c-.46,1.11-1.92,1-3,.74s-2.59-.23-2.9.95c-.39,1.47,1.72,2.88,1,4.22-.47.93-1.72.7-2.65.43-1.35-.4-3.18-.37-3.7,1s.89,3.26.2,4.67a2.28,2.28,0,0,1-2.32,1.05,13.81,13.81,0,0,0-2.63-.27,1.91,1.91,0,0,0-1.77,1.79c0,.94.91,1.53,1.49,2.23a1.71,1.71,0,0,1,.38.73c.15.85-.72,1.54-1.51,1.59s-1.57-.28-2.36-.26-1.69.6-1.64,1.46c.08,1.26,2,1.68,1.95,2.94a1.46,1.46,0,0,1-1.59,1.17,13.69,13.69,0,0,0-2.11-.2c-.7.09-1.42.82-1.17,1.54.19.54.79.73,1.28.94s1,.71.85,1.26a1.2,1.2,0,0,1-.66.63,6.75,6.75,0,0,1-2.77.7,1.6,1.6,0,0,0-1.23.35c-.57.66.11,1.68.77,2.23,1.89,1.59,4.24,3.12,6.55,2.41a1.58,1.58,0,0,0,1.17-1c.2-.83-.57-1.52-1.22-2s-1.35-1.3-1-2.07c.43-1,1.72-.5,2.69-.54a2.68,2.68,0,0,0,2-3.61c-.38-.88-1.24-1.79-.79-2.63.57-1.07,2.17-.11,3.2-.63,1.73-.86.17-4.39,1.72-5.58,1.3-1,3.32.84,4.62-.17a2.59,2.59,0,0,0,.64-2.37,15,15,0,0,1-.38-2.55c0-.87.56-1.82,1.35-1.85a3.23,3.23,0,0,1,1.48.59c.48.23,1.15.28,1.43-.22a1.54,1.54,0,0,0,.07-1c-.13-.79-.25-1.58-.37-2.36a1.48,1.48,0,0,1,.09-1.06c.34-.52,1.07-.31,1.65-.2a2,2,0,0,0,2.24-1.09c.45-1.28-.76-2.85-.09-4,.51-.87,1.66-.81,2.61-.74s2.16-.18,2.34-1.2c.12-.72-.4-1.39-.46-2.12a1.61,1.61,0,0,1,1.29-1.71c.61-.07,1.23.29,1.84.15,1.15-.25,1.38-1.9,1.38-3.18s.34-2.93,1.5-3.06c.46-.05,1,.17,1.35-.08a1.36,1.36,0,0,0,.43-1.29c-.07-.79-.34-1.55-.36-2.34s2.46-4.78,3.16-5"/><path class="cls-6" d="M441.3,517.36c-.13-.86-1.57-.73-1.94,0a3.79,3.79,0,0,0,.14,2.54,2.31,2.31,0,0,1-.43,2.41c-.79.61-2,.11-2.91.43a1.8,1.8,0,0,0-.4,3c.47.32,1.11.43,1.4.91.39.66-.22,1.53-1,1.75a6.46,6.46,0,0,1-2.28,0,2.11,2.11,0,0,0-2,.83,2,2,0,0,0,.58,2.23,13.63,13.63,0,0,1,1.75,1.73,1.58,1.58,0,0,1-.26,2.19,2,2,0,0,1-1.2.13,6.58,6.58,0,0,0-2.46-.07,1.72,1.72,0,0,0-1.39,1.77c.2,1.12,1.84,1.67,1.76,2.79s-1.72,1.29-2.84,1-2.7-.32-3,.79c-.24.93.72,1.67,1.51,2.21s1.61,1.56,1.05,2.33a1.76,1.76,0,0,1-1.07.57,8.92,8.92,0,0,1-3,.16,1.83,1.83,0,0,0-1.09.08c-.59.34-.5,1.26-.07,1.78a12.92,12.92,0,0,0,1.58,1.27,1.45,1.45,0,0,1,.43,1.81,1.37,1.37,0,0,1-.81.45,15.64,15.64,0,0,1-2.9,0c-1,0-2.09.67-2,1.64.08,1.25,1.83,1.48,3.06,1.24a23.65,23.65,0,0,0,3.1-.84,5.74,5.74,0,0,0,3.09-2,2.35,2.35,0,0,0-.62-3.3c2-.48,4.28-1.31,4.72-3.28a11.9,11.9,0,0,0-.07-2.73,2.15,2.15,0,0,1,1.25-2.21c.83-.22,1.79.37,2.52-.08a1.76,1.76,0,0,0,.5-1.91,4.72,4.72,0,0,1-.3-2.05c.31-1.43,2.32-1.95,2.7-3.36.25-.93-.31-1.86-.64-2.76s-.3-2.18.6-2.53c.28-.12.61-.1.9-.2.94-.33,1.13-1.57,1-2.55s-.52-2-.1-2.91c.25-.54.74-.93,1-1.45.92-1.69-.56-4.19.8-5.55"/><path class="cls-7" d="M439.49,480.14c-3.7-14.51-54.73-51.2-54.73-51.2l-20.52,4.54S345.27,450.61,347,495s21.67,69.2,45.08,76.89,41.57-7.11,47.39-17.13l5.83-10,3.47-14.8s-5.59-35.3-9.3-49.8m-70.85-39.3c3,2.58,22,2.66,26.47,3.64s7.82,6.48,6.78,8.92-34.95,4.9-39.15,0,5.9-12.56,5.9-12.56m-11.48,23.08a7.6,7.6,0,0,1,5.18-2.72c7-.68,27.8-2.62,39.74-2.9,14.52-.35,11.69,9.78,9.24,10.83S361.35,480,356.8,473a7.17,7.17,0,0,1,.36-9.05m-3.5,29.32c-1.75-10.13,4.54-13.1,4.54-13.1s53.82-7.87,60.11-7.87,6.29,6.64,4.2,9.44-29,9.44-38.17,11.53-28.94,10.14-30.68,0M357.15,516c-2.09-9.09,2.8-11.18,2.8-11.18s35.65-12.24,42.13-14,20.43-4.55,17.63,0-34.6,23.06-43.43,27.61-17,6.64-19.13-2.45m9.79,21c-.7-4.19,4.19-8,4.19-8s48.58-34.25,54.52-36,6.29,5.25,4.54,8.59-31.45,28.46-35.08,32.65-11.75,13.63-16.64,14-10.83-7-11.53-11.18m22,24.46c-4.53-3.14,1.74-10.83,1.74-10.83s34.6-39.14,39.49-43.34,6.64,1,6.29,2.8-22.36,38.44-29.35,47.88-13.63,6.64-18.17,3.49M439.49,539s-3.7,10.13-11.39,16.77a18.83,18.83,0,0,1-10.37,4.77,2.78,2.78,0,0,1-2.78-3.93c1.86-4.07,5.3-11.32,10.35-20.78a135.82,135.82,0,0,1,16.87-24.8c1.09,8.32-2.68,28-2.68,28"/><path class="cls-8" d="M432.68,442.62l2.65,2.67C434.48,444.39,433.6,443.5,432.68,442.62Z"/><path class="cls-8" d="M446.25,452.81h0a4.89,4.89,0,0,1-1.62-2.92h0a4.77,4.77,0,0,1-1-1.27c-4.12-4.82-9.85-8.7-13.13-13.94a18.26,18.26,0,0,1-.31,5.44l2.49,2.5c.92.88,1.8,1.77,2.65,2.67l12.56,12.65C447.28,456.29,446.74,454.58,446.25,452.81Zm-10.54-8h0Z"/><path class="cls-9" d="M430.19,440.12c-7-10.13-19.22-22.36-35.08-23.41s-29.22,5.24-30.56,12.93,1.69,11.88,8.68,12.23,44.73-.7,59.76,33.55,8,65,8.93,68.85,10.29,0,13.44-29.36a129.23,129.23,0,0,0-2.54-41,118,118,0,0,0-4.93-16"/><path class="cls-5" d="M440.6,516.21a.48.48,0,0,0,0-1,.48.48,0,0,0,0,1"/><path class="cls-5" d="M632.58,563.85a147.24,147.24,0,0,0-8.31-26.65c-1.45-3.35-2.39-6.86-3.81-10.24a81.65,81.65,0,0,0-16.89-25.43,71.73,71.73,0,0,0-23.18-16.27,51.47,51.47,0,0,0-21.86-3.85c-15.06.4-30.09,3.42-44.81,6.42-15.87,3.23-31.63,7-47.53,10.07-6.14,1.19-12.33,2.34-18.56,2.93-3.49.33-7.81.91-11.18-.39a2.51,2.51,0,0,1-1.83-1.76,5.83,5.83,0,0,1,.26-1.85,4.64,4.64,0,0,0-1.39-4.25c-3-2.7-7.87-1.08-11.32-.51-1,.18-1.21.4-.43-.39a19.65,19.65,0,0,1,1.69-1.32c1-.8,2.17-1.78,2.42-3.11.72-3.78-4.56-4.43-7.09-4-1,.16-4,.42-2.89-1.27.55-.82,1.6-1.19,2.12-2.11,1.61-2.88-1.27-6.43-3.14-8.38a29.57,29.57,0,0,0-10.44-6.6,38.7,38.7,0,0,0-6.31-2,1,1,0,0,0-.73,1.72c3.29,2,6.94,4.24,8.83,7.76a8.93,8.93,0,0,1,1,6.29c-.43,1.68-1.85,2.85-2.19,4.54-.89,4.5,5,5.35,8.49,5.08.37,2.35-4.62,3.65-5.84,4.7a4.23,4.23,0,0,0-1.45,4.51c1.22,4,6,4.92,9.55,5.09,3,.14,6,.28,7.76,3.16.56.95.93,2,1.48,3a10.73,10.73,0,0,0,1.51,2.05c2.91,3.06,7.45,3.52,11.45,3.58,8.58.11,17.24-1.39,25.71-2.62,16.12-2.34,32.21-4.9,48.33-7.24,11.84-1.72,23.7-3.54,35.58-4.93A17,17,0,0,1,559,501.62c2.87,1.85,6.3,6,5.71,9.71-.43,2.66-2.71,4.93-4.56,6.7a83.42,83.42,0,0,1-10.23,8c-9.62,6.69-19.61,12.82-29.26,19.46-21.51,14.8-42.55,30.64-62.7,47.24-4.79,3.94-9.56,7.94-14,12.28-1.07,1.05-3.13,2.55-3.45,4.05a16.81,16.81,0,0,0,.12,3.61q.51,16.95,1,33.89l.09,2.87a1,1,0,0,0,.69.91l39.17,9.29a32.72,32.72,0,0,0,7.66.78l21.74.3c14.11.19,28.26.65,42.38.58.16,0,.56.05.61,0,.29.09.58.23.86.34l5.86,2.27,21.63,8.42c13,5.06,26,10.49,39.12,15.21.25.09,1,.2.75.29-15,5.81-14.5,3.93-1.3-1.86,0-.06,2.19-1.69,2.24-1.77,12.63-20,18.52-79.43,9.45-120.4"/><path class="cls-10" d="M626.48,663.91c-2.8,42.09-51.17,73.14-108.05,69.35s-100.7-41-97.9-83.06,51.17-73.14,108.05-69.35,100.7,41,97.9,83.06"/><path class="cls-7" d="M474.07,603.85a7.74,7.74,0,1,0-7.74,7.74,7.74,7.74,0,0,0,7.74-7.74"/><path class="cls-5" d="M469.91,603.85a3.59,3.59,0,1,0-3.58,3.59,3.58,3.58,0,0,0,3.58-3.59"/><path class="cls-7" d="M461.27,612.76a7.75,7.75,0,1,0-7.74,7.74,7.74,7.74,0,0,0,7.74-7.74"/><path class="cls-5" d="M457.11,612.76a3.59,3.59,0,1,0-3.59,3.59,3.59,3.59,0,0,0,3.59-3.59"/><path class="cls-7" d="M450.48,624.09a7.74,7.74,0,1,0-7.74,7.74,7.73,7.73,0,0,0,7.74-7.74"/><path class="cls-5" d="M446.33,624.09a3.59,3.59,0,1,0-3.59,3.58,3.59,3.59,0,0,0,3.59-3.58"/><path class="cls-7" d="M457.68,637.68a7.74,7.74,0,1,0-7.74,7.74,7.75,7.75,0,0,0,7.74-7.74"/><path class="cls-5" d="M453.53,637.68a3.59,3.59,0,1,0-3.59,3.59,3.59,3.59,0,0,0,3.59-3.59"/><path class="cls-7" d="M467.22,627.07a7.74,7.74,0,1,0-7.74,7.74,7.75,7.75,0,0,0,7.74-7.74"/><path class="cls-5" d="M463.07,627.07a3.59,3.59,0,1,0-3.59,3.59,3.59,3.59,0,0,0,3.59-3.59"/><path class="cls-7" d="M479.06,631a6.2,6.2,0,1,0-6.2,6.19,6.2,6.2,0,0,0,6.2-6.19"/><path class="cls-7" d="M471,639.68a6.19,6.19,0,1,0-6.19,6.19,6.19,6.19,0,0,0,6.19-6.19"/><path class="cls-7" d="M467.46,650.65a6.2,6.2,0,1,0-6.19,6.19,6.19,6.19,0,0,0,6.19-6.19"/><path class="cls-7" d="M475.86,648.37a5,5,0,1,0-5,5,5,5,0,0,0,5-5"/><path class="cls-7" d="M475.92,658.41a5,5,0,1,0-4.95,5,4.95,4.95,0,0,0,4.95-5"/><path class="cls-7" d="M481.42,666.15a5,5,0,1,0-4.95,5,5,5,0,0,0,4.95-5"/><path class="cls-7" d="M488.17,673.75a5,5,0,1,0-4.95,5,4.95,4.95,0,0,0,4.95-5"/><path class="cls-7" d="M482,641.27a5,5,0,1,0-5,5,5,5,0,0,0,5-5"/><path class="cls-7" d="M485.88,650.31a5,5,0,1,0-5,5,5,5,0,0,0,5-5"/><path class="cls-7" d="M497.31,680.19a5,5,0,1,0-4.95,5,5,5,0,0,0,4.95-5"/><path class="cls-7" d="M498.21,631.94a5,5,0,1,0-4.95,4.95,5,5,0,0,0,4.95-4.95"/><path class="cls-7" d="M508.06,628.06a4.95,4.95,0,1,0-4.95,5,5,5,0,0,0,4.95-5"/><path class="cls-7" d="M519.54,625.76a5,5,0,1,0-4.95,5,4.94,4.94,0,0,0,4.95-5"/><path class="cls-7" d="M510.36,687a5,5,0,1,0-4.95,4.95,5,5,0,0,0,4.95-4.95"/><path class="cls-7" d="M570.7,682.92a5,5,0,1,0-5,5,5,5,0,0,0,5-5"/><path class="cls-7" d="M566.82,673.75a5,5,0,1,0-5,5,5,5,0,0,0,5-5"/><path class="cls-7" d="M548.55,689.26a5,5,0,1,0-4.95,5,5,5,0,0,0,4.95-5"/><path class="cls-7" d="M541.49,683.67a5,5,0,1,0-5,5,4.95,4.95,0,0,0,5-5"/><path class="cls-7" d="M542.19,628.35a5,5,0,1,0-5,4.95,4.95,4.95,0,0,0,5-4.95"/><path class="cls-7" d="M535.14,690a5,5,0,1,0-4.95,5,5,5,0,0,0,4.95-5"/><path class="cls-7" d="M575.65,673.75a5,5,0,1,0-4.95,5,4.95,4.95,0,0,0,4.95-5"/><path class="cls-7" d="M584.11,664.88a5,5,0,1,0-5,5,5,5,0,0,0,5-5"/><path class="cls-7" d="M582.42,656.12a5,5,0,1,0-4.95,5,5,5,0,0,0,4.95-5"/><path class="cls-7" d="M579.15,647.78a5,5,0,1,0-4.95,5,4.95,4.95,0,0,0,4.95-5"/><path class="cls-7" d="M571.77,652.62a5,5,0,1,0-4.95,5,5,5,0,0,0,4.95-5"/><path class="cls-7" d="M575.65,662.35a4.95,4.95,0,1,0-4.95,4.95,5,5,0,0,0,4.95-4.95"/><path class="cls-7" d="M571.77,642.51a5,5,0,1,0-4.95,5,5,5,0,0,0,4.95-5"/><path class="cls-7" d="M565.5,635.92a5,5,0,1,0-5,5,5,5,0,0,0,5-5"/><path class="cls-7" d="M556.29,633a5,5,0,1,0-4.95,5,4.95,4.95,0,0,0,4.95-5"/><path class="cls-7" d="M490.47,638.27a5,5,0,1,0-5,5,5,5,0,0,0,5-5"/><path class="cls-7" d="M467.46,662a6.2,6.2,0,1,0-6.19,6.19,6.2,6.2,0,0,0,6.19-6.19"/><path class="cls-7" d="M473.84,672.34a6.19,6.19,0,1,0-6.19,6.19,6.19,6.19,0,0,0,6.19-6.19"/><path class="cls-7" d="M480.92,679a6.19,6.19,0,1,0-6.19,6.19,6.19,6.19,0,0,0,6.19-6.19"/><path class="cls-7" d="M490.09,685.08a6.2,6.2,0,1,0-6.19,6.19,6.19,6.19,0,0,0,6.19-6.19"/><path class="cls-7" d="M501.42,690.84a6.2,6.2,0,1,0-6.19,6.19,6.19,6.19,0,0,0,6.19-6.19"/><path class="cls-7" d="M515.62,697a6.2,6.2,0,1,0-6.19,6.19,6.19,6.19,0,0,0,6.19-6.19"/><path class="cls-7" d="M529.2,698a6.19,6.19,0,1,0-6.19,6.19A6.19,6.19,0,0,0,529.2,698"/><path class="cls-7" d="M543.43,698.14a6.19,6.19,0,1,0-6.19,6.19,6.19,6.19,0,0,0,6.19-6.19"/><path class="cls-7" d="M557.53,697.32a6.19,6.19,0,1,0-6.19,6.2,6.19,6.19,0,0,0,6.19-6.2"/><path class="cls-7" d="M567.38,692.82a6.19,6.19,0,1,0-6.19,6.19,6.19,6.19,0,0,0,6.19-6.19"/><path class="cls-7" d="M581.23,685.21A6.19,6.19,0,1,0,575,691.4a6.19,6.19,0,0,0,6.19-6.19"/><path class="cls-7" d="M587.42,675.29a6.19,6.19,0,1,0-6.19,6.2,6.19,6.19,0,0,0,6.19-6.2"/><path class="cls-7" d="M595,667.44a6.2,6.2,0,1,0-6.2,6.19,6.21,6.21,0,0,0,6.2-6.19"/><path class="cls-7" d="M593.87,655.54a6.19,6.19,0,1,0-6.19,6.19,6.19,6.19,0,0,0,6.19-6.19"/><path class="cls-7" d="M590.29,644.46a6.2,6.2,0,1,0-6.19,6.19,6.19,6.19,0,0,0,6.19-6.19"/><path class="cls-7" d="M581.23,637.18a6.19,6.19,0,1,0-6.19,6.2,6.19,6.19,0,0,0,6.19-6.2"/><path class="cls-7" d="M574.81,628.35a6.2,6.2,0,1,0-6.19,6.19,6.19,6.19,0,0,0,6.19-6.19"/><path class="cls-7" d="M563.72,625.19a6.19,6.19,0,1,0-6.19,6.19,6.2,6.2,0,0,0,6.19-6.19"/><path class="cls-7" d="M539.52,619a6.19,6.19,0,1,0-6.19,6.2,6.19,6.19,0,0,0,6.19-6.2"/><path class="cls-7" d="M551.86,621.86a6.2,6.2,0,1,0-6.19,6.2,6.19,6.19,0,0,0,6.19-6.2"/><path class="cls-7" d="M490.72,627.07a6.19,6.19,0,1,0-6.19,6.19,6.19,6.19,0,0,0,6.19-6.19"/><path class="cls-7" d="M501.42,621a6.2,6.2,0,1,0-6.19,6.2,6.19,6.19,0,0,0,6.19-6.2"/><path class="cls-7" d="M513.46,618.16a6.2,6.2,0,1,0-6.19,6.2,6.19,6.19,0,0,0,6.19-6.2"/><path class="cls-7" d="M526.94,617.45a6.19,6.19,0,1,0-6.19,6.19,6.2,6.2,0,0,0,6.19-6.19"/><path class="cls-7" d="M478.55,617.45a7.74,7.74,0,1,0-7.74,7.74,7.74,7.74,0,0,0,7.74-7.74"/><path class="cls-5" d="M474.4,617.45a3.59,3.59,0,1,0-3.59,3.58,3.59,3.59,0,0,0,3.59-3.58"/><path class="cls-7" d="M493.26,612.76a7.75,7.75,0,1,0-7.74,7.74,7.74,7.74,0,0,0,7.74-7.74"/><path class="cls-5" d="M489.1,612.76a3.59,3.59,0,1,0-3.58,3.59,3.58,3.58,0,0,0,3.58-3.59"/><path class="cls-7" d="M506.55,607.44a7.74,7.74,0,1,0-7.74,7.74,7.73,7.73,0,0,0,7.74-7.74"/><path class="cls-5" d="M502.4,607.44a3.59,3.59,0,1,0-3.59,3.58,3.59,3.59,0,0,0,3.59-3.58"/><path class="cls-7" d="M520.75,605.55a7.74,7.74,0,1,0-7.74,7.74,7.74,7.74,0,0,0,7.74-7.74"/><path class="cls-5" d="M516.6,605.55a3.59,3.59,0,1,0-3.59,3.59,3.58,3.58,0,0,0,3.59-3.59"/><path class="cls-7" d="M536.54,606.12a7.74,7.74,0,1,0-7.74,7.74,7.73,7.73,0,0,0,7.74-7.74"/><path class="cls-5" d="M532.39,606.12a3.59,3.59,0,1,0-3.59,3.59,3.59,3.59,0,0,0,3.59-3.59"/><path class="cls-7" d="M551.34,608a7.74,7.74,0,1,0-7.74,7.74,7.75,7.75,0,0,0,7.74-7.74"/><path class="cls-7" d="M566.82,611.59a7.74,7.74,0,1,0-7.74,7.74,7.74,7.74,0,0,0,7.74-7.74"/><path class="cls-7" d="M579.94,617.45a7.74,7.74,0,1,0-7.74,7.74,7.73,7.73,0,0,0,7.74-7.74"/><path class="cls-7" d="M591.84,627.67a7.75,7.75,0,1,0-7.74,7.74,7.75,7.75,0,0,0,7.74-7.74"/><path class="cls-7" d="M601.85,637.68a7.74,7.74,0,1,0-7.74,7.74,7.75,7.75,0,0,0,7.74-7.74"/><path class="cls-7" d="M455.31,653.16a7.74,7.74,0,1,0-7.74,7.74,7.74,7.74,0,0,0,7.74-7.74"/><path class="cls-5" d="M451.16,653.16a3.59,3.59,0,1,0-3.59,3.59,3.58,3.58,0,0,0,3.59-3.59"/><path class="cls-7" d="M457.68,668.75a7.74,7.74,0,1,0-7.74,7.74,7.75,7.75,0,0,0,7.74-7.74"/><path class="cls-5" d="M453.53,668.75a3.59,3.59,0,1,0-3.59,3.59,3.59,3.59,0,0,0,3.59-3.59"/><path class="cls-7" d="M466.64,681.49a7.74,7.74,0,1,0-7.74,7.74,7.74,7.74,0,0,0,7.74-7.74"/><path class="cls-5" d="M462.49,681.49a3.59,3.59,0,1,0-3.59,3.59,3.58,3.58,0,0,0,3.59-3.59"/><path class="cls-7" d="M478.55,691.41a7.74,7.74,0,1,0-7.74,7.74,7.75,7.75,0,0,0,7.74-7.74"/><path class="cls-5" d="M474.4,691.41a3.59,3.59,0,1,0-3.59,3.59,3.58,3.58,0,0,0,3.59-3.59"/><path class="cls-7" d="M492,699.15a7.74,7.74,0,1,0-7.74,7.74,7.75,7.75,0,0,0,7.74-7.74"/><path class="cls-5" d="M487.79,699.15a3.59,3.59,0,1,0-3.58,3.59,3.58,3.58,0,0,0,3.58-3.59"/><path class="cls-7" d="M506.55,704.83a7.74,7.74,0,1,0-7.74,7.74,7.73,7.73,0,0,0,7.74-7.74"/><path class="cls-5" d="M502.4,704.83a3.59,3.59,0,1,0-3.59,3.58,3.59,3.59,0,0,0,3.59-3.58"/><path class="cls-7" d="M522.18,708.41a7.74,7.74,0,1,0-7.74,7.74,7.74,7.74,0,0,0,7.74-7.74"/><path class="cls-5" d="M518,708.41a3.59,3.59,0,1,0-3.59,3.59,3.58,3.58,0,0,0,3.59-3.59"/><path class="cls-7" d="M537.93,709.69a7.75,7.75,0,1,0-7.74,7.74,7.74,7.74,0,0,0,7.74-7.74"/><path class="cls-7" d="M553.41,709.69a7.74,7.74,0,1,0-7.74,7.74,7.74,7.74,0,0,0,7.74-7.74"/><path class="cls-7" d="M567.83,706.1a7.74,7.74,0,1,0-7.74,7.74,7.74,7.74,0,0,0,7.74-7.74"/><path class="cls-7" d="M580.51,698.58a7.74,7.74,0,1,0-7.74,7.74,7.74,7.74,0,0,0,7.74-7.74"/><path class="cls-7" d="M594.11,692.82a7.74,7.74,0,1,0-7.74,7.74,7.75,7.75,0,0,0,7.74-7.74"/><path class="cls-7" d="M601.85,680.19a7.74,7.74,0,1,0-7.74,7.74,7.75,7.75,0,0,0,7.74-7.74"/><path class="cls-7" d="M609.59,667.44a7.74,7.74,0,1,0-7.74,7.74,7.74,7.74,0,0,0,7.74-7.74"/><path class="cls-7" d="M607.86,652a7.74,7.74,0,1,0-7.74,7.74,7.73,7.73,0,0,0,7.74-7.74"/><path class="cls-7" d="M440.16,631.91a7.74,7.74,0,1,0,.61,10.93,7.75,7.75,0,0,0-.61-10.93"/><path class="cls-5" d="M437.39,635a3.59,3.59,0,1,0,.29,5.06,3.58,3.58,0,0,0-.29-5.06"/><path class="cls-7" d="M437.3,647.39a7.74,7.74,0,1,0,.61,10.93,7.75,7.75,0,0,0-.61-10.93"/><path class="cls-5" d="M434.53,650.49a3.59,3.59,0,1,0,.28,5.06,3.6,3.6,0,0,0-.28-5.06"/><path class="cls-7" d="M530.75,597.56a7.74,7.74,0,1,0-10.69-2.39,7.75,7.75,0,0,0,10.69,2.39"/><path class="cls-5" d="M528.52,594.05a3.59,3.59,0,1,0-4.95-1.1,3.59,3.59,0,0,0,4.95,1.1"/><path class="cls-7" d="M515,597.71a7.74,7.74,0,1,0-10.68-2.38A7.74,7.74,0,0,0,515,597.71"/><path class="cls-5" d="M512.78,594.21a3.59,3.59,0,1,0-5-1.11,3.6,3.6,0,0,0,5,1.11"/><path class="cls-7" d="M502.86,594.55a7.74,7.74,0,1,0-8.9,6.38,7.73,7.73,0,0,0,8.9-6.38"/><path class="cls-5" d="M498.76,593.87a3.58,3.58,0,1,0-4.12,3,3.58,3.58,0,0,0,4.12-3"/><path class="cls-7" d="M488.26,599.07a7.74,7.74,0,1,0-8.9,6.38,7.74,7.74,0,0,0,8.9-6.38"/><path class="cls-5" d="M484.16,598.4a3.59,3.59,0,1,0-4.12,3,3.6,3.6,0,0,0,4.12-3"/><path class="cls-7" d="M439.53,663a7.74,7.74,0,1,0,.61,10.93,7.75,7.75,0,0,0-.61-10.93"/><path class="cls-5" d="M436.76,666.08a3.59,3.59,0,1,0,.28,5.06,3.59,3.59,0,0,0-.28-5.06"/><path class="cls-7" d="M446.43,677.15a7.74,7.74,0,1,0,.61,10.93,7.74,7.74,0,0,0-.61-10.93"/><path class="cls-5" d="M443.66,680.24a3.59,3.59,0,1,0,.29,5.07,3.58,3.58,0,0,0-.29-5.07"/><path class="cls-7" d="M449.17,687.51a7.74,7.74,0,1,0,9.47,5.49,7.74,7.74,0,0,0-9.47-5.49"/><path class="cls-5" d="M450.24,691.52a3.59,3.59,0,1,0,4.39,2.55,3.58,3.58,0,0,0-4.39-2.55"/><path class="cls-7" d="M461.07,697.59a7.74,7.74,0,1,0,9.48,5.48,7.74,7.74,0,0,0-9.48-5.48"/><path class="cls-5" d="M462.14,701.6a3.59,3.59,0,1,0,4.39,2.54,3.59,3.59,0,0,0-4.39-2.54"/><path class="cls-7" d="M474.8,705.09a7.74,7.74,0,1,0,9.47,5.48,7.73,7.73,0,0,0-9.47-5.48"/><path class="cls-5" d="M475.86,709.1a3.59,3.59,0,1,0,4.39,2.54,3.59,3.59,0,0,0-4.39-2.54"/><path class="cls-7" d="M484.74,714.82a7.74,7.74,0,1,0,10.4-3.41,7.73,7.73,0,0,0-10.4,3.41"/><path class="cls-5" d="M488.44,716.69a3.59,3.59,0,1,0,4.82-1.57,3.59,3.59,0,0,0-4.82,1.57"/><path class="cls-7" d="M500.22,718.4a7.74,7.74,0,1,0,10.4-3.4,7.75,7.75,0,0,0-10.4,3.4"/><path class="cls-5" d="M503.92,720.28a3.59,3.59,0,1,0,4.82-1.58,3.59,3.59,0,0,0-4.82,1.58"/><path class="cls-7" d="M515.7,719.82a7.74,7.74,0,1,0,10.41-3.4,7.74,7.74,0,0,0-10.41,3.4"/><path class="cls-5" d="M475.73,631a2.87,2.87,0,1,0-2.87,2.87,2.87,2.87,0,0,0,2.87-2.87"/><path class="cls-5" d="M467.65,639.68a2.87,2.87,0,1,0-2.87,2.87,2.87,2.87,0,0,0,2.87-2.87"/><path class="cls-5" d="M464.13,650.65a2.87,2.87,0,1,0-2.87,2.87,2.87,2.87,0,0,0,2.87-2.87"/><path class="cls-5" d="M473.2,648.37a2.3,2.3,0,1,0-2.3,2.29,2.3,2.3,0,0,0,2.3-2.29"/><path class="cls-5" d="M473.27,658.41a2.3,2.3,0,1,0-2.3,2.3,2.29,2.29,0,0,0,2.3-2.3"/><path class="cls-5" d="M478.76,666.15a2.3,2.3,0,1,0-2.29,2.29,2.29,2.29,0,0,0,2.29-2.29"/><path class="cls-5" d="M485.52,673.75a2.3,2.3,0,1,0-2.3,2.3,2.3,2.3,0,0,0,2.3-2.3"/><path class="cls-5" d="M479.33,641.27a2.3,2.3,0,1,0-2.3,2.29,2.3,2.3,0,0,0,2.3-2.29"/><path class="cls-5" d="M494.65,680.19a2.3,2.3,0,1,0-2.29,2.3,2.28,2.28,0,0,0,2.29-2.3"/><path class="cls-5" d="M495.55,631.94a2.3,2.3,0,1,0-2.29,2.29,2.3,2.3,0,0,0,2.29-2.29"/><path class="cls-5" d="M505.41,628.06a2.3,2.3,0,1,0-2.3,2.29,2.3,2.3,0,0,0,2.3-2.29"/><path class="cls-5" d="M516.89,625.76a2.3,2.3,0,1,0-2.3,2.3,2.3,2.3,0,0,0,2.3-2.3"/><path class="cls-5" d="M507.7,687a2.3,2.3,0,1,0-2.29,2.29A2.3,2.3,0,0,0,507.7,687"/><path class="cls-5" d="M487.81,638.27a2.3,2.3,0,1,0-2.29,2.29,2.3,2.3,0,0,0,2.29-2.29"/><path class="cls-5" d="M464.13,662a2.87,2.87,0,1,0-2.87,2.87,2.86,2.86,0,0,0,2.87-2.87"/><path class="cls-5" d="M470.52,672.34a2.87,2.87,0,1,0-2.87,2.87,2.87,2.87,0,0,0,2.87-2.87"/><path class="cls-5" d="M477.6,679a2.87,2.87,0,1,0-2.87,2.87A2.86,2.86,0,0,0,477.6,679"/><path class="cls-5" d="M486.77,685.08A2.87,2.87,0,1,0,483.9,688a2.88,2.88,0,0,0,2.87-2.87"/><path class="cls-5" d="M498.1,690.84a2.87,2.87,0,1,0-2.87,2.87,2.87,2.87,0,0,0,2.87-2.87"/><path class="cls-5" d="M512.29,697a2.87,2.87,0,1,0-2.87,2.87,2.86,2.86,0,0,0,2.87-2.87"/><path class="cls-5" d="M525.88,698a2.87,2.87,0,1,0-2.87,2.87,2.86,2.86,0,0,0,2.87-2.87"/><path class="cls-5" d="M487.4,627.07a2.87,2.87,0,1,0-2.87,2.87,2.87,2.87,0,0,0,2.87-2.87"/><path class="cls-5" d="M498.1,621a2.87,2.87,0,1,0-2.87,2.87A2.88,2.88,0,0,0,498.1,621"/><path class="cls-5" d="M510.13,618.16a2.87,2.87,0,1,0-2.87,2.87,2.87,2.87,0,0,0,2.87-2.87"/><path class="cls-5" d="M533.77,709.69a3.59,3.59,0,1,0-3.58,3.58,3.58,3.58,0,0,0,3.58-3.58"/><path class="cls-5" d="M519.41,721.7a3.59,3.59,0,1,0,4.82-1.58,3.58,3.58,0,0,0-4.82,1.58"/><path class="cls-7" d="M531.26,719.82a7.74,7.74,0,1,0,10.41-3.4,7.75,7.75,0,0,0-10.41,3.4"/><path class="cls-5" d="M568,682.92a2.3,2.3,0,1,0-2.29,2.29,2.3,2.3,0,0,0,2.29-2.29"/><path class="cls-5" d="M564.16,673.75a2.3,2.3,0,1,0-2.29,2.3,2.3,2.3,0,0,0,2.29-2.3"/><path class="cls-5" d="M545.89,689.26a2.3,2.3,0,1,0-2.29,2.3,2.28,2.28,0,0,0,2.29-2.3"/><path class="cls-5" d="M538.84,683.67a2.3,2.3,0,1,0-2.3,2.3,2.3,2.3,0,0,0,2.3-2.3"/><path class="cls-5" d="M539.53,628.35a2.3,2.3,0,1,0-2.29,2.3,2.29,2.29,0,0,0,2.29-2.3"/><path class="cls-5" d="M532.48,690a2.3,2.3,0,1,0-2.29,2.3,2.29,2.29,0,0,0,2.29-2.3"/><path class="cls-5" d="M573,673.75a2.3,2.3,0,1,0-2.3,2.3,2.3,2.3,0,0,0,2.3-2.3"/><path class="cls-5" d="M581.45,664.88a2.3,2.3,0,1,0-2.3,2.29,2.3,2.3,0,0,0,2.3-2.29"/><path class="cls-5" d="M579.76,656.12a2.3,2.3,0,1,0-2.29,2.29,2.3,2.3,0,0,0,2.29-2.29"/><path class="cls-5" d="M576.5,647.78a2.3,2.3,0,1,0-2.3,2.3,2.3,2.3,0,0,0,2.3-2.3"/><path class="cls-5" d="M569.12,652.62a2.3,2.3,0,1,0-2.3,2.29,2.3,2.3,0,0,0,2.3-2.29"/><path class="cls-5" d="M573,662.35a2.3,2.3,0,1,0-2.3,2.29,2.3,2.3,0,0,0,2.3-2.29"/><path class="cls-5" d="M569.12,642.51a2.3,2.3,0,1,0-2.3,2.29,2.3,2.3,0,0,0,2.3-2.29"/><path class="cls-5" d="M562.84,635.92a2.3,2.3,0,1,0-2.3,2.29,2.3,2.3,0,0,0,2.3-2.29"/><path class="cls-5" d="M553.63,633a2.3,2.3,0,1,0-2.29,2.3,2.29,2.29,0,0,0,2.29-2.3"/><path class="cls-5" d="M540.11,698.14a2.87,2.87,0,1,0-2.87,2.87,2.87,2.87,0,0,0,2.87-2.87"/><path class="cls-5" d="M554.21,697.32a2.87,2.87,0,1,0-2.87,2.87,2.88,2.88,0,0,0,2.87-2.87"/><path class="cls-5" d="M564.06,692.82a2.87,2.87,0,1,0-2.87,2.87,2.87,2.87,0,0,0,2.87-2.87"/><path class="cls-5" d="M577.91,685.21a2.87,2.87,0,1,0-2.87,2.87,2.88,2.88,0,0,0,2.87-2.87"/><path class="cls-5" d="M584.1,675.29a2.87,2.87,0,1,0-2.87,2.87,2.87,2.87,0,0,0,2.87-2.87"/><path class="cls-5" d="M591.66,667.44a2.87,2.87,0,1,0-2.87,2.87,2.86,2.86,0,0,0,2.87-2.87"/><path class="cls-5" d="M590.55,655.54a2.87,2.87,0,1,0-2.87,2.87,2.87,2.87,0,0,0,2.87-2.87"/><path class="cls-5" d="M587,644.46a2.87,2.87,0,1,0-2.87,2.87,2.88,2.88,0,0,0,2.87-2.87"/><path class="cls-5" d="M577.91,637.18a2.87,2.87,0,1,0-2.87,2.87,2.88,2.88,0,0,0,2.87-2.87"/><path class="cls-5" d="M571.49,628.35a2.87,2.87,0,1,0-2.87,2.87,2.87,2.87,0,0,0,2.87-2.87"/><path class="cls-5" d="M560.4,625.19a2.87,2.87,0,1,0-2.87,2.87,2.86,2.86,0,0,0,2.87-2.87"/><path class="cls-5" d="M536.2,619a2.87,2.87,0,1,0-2.87,2.87A2.87,2.87,0,0,0,536.2,619"/><path class="cls-5" d="M548.54,621.86a2.87,2.87,0,1,0-2.87,2.87,2.88,2.88,0,0,0,2.87-2.87"/><path class="cls-5" d="M523.62,617.45a2.87,2.87,0,1,0-2.87,2.87,2.86,2.86,0,0,0,2.87-2.87"/><path class="cls-5" d="M547.19,608a3.59,3.59,0,1,0-3.59,3.59,3.58,3.58,0,0,0,3.59-3.59"/><path class="cls-5" d="M562.67,611.59a3.59,3.59,0,1,0-3.59,3.59,3.59,3.59,0,0,0,3.59-3.59"/><path class="cls-5" d="M575.79,617.45A3.59,3.59,0,1,0,572.2,621a3.59,3.59,0,0,0,3.59-3.58"/><path class="cls-5" d="M587.68,627.67a3.59,3.59,0,1,0-3.58,3.59,3.58,3.58,0,0,0,3.58-3.59"/><path class="cls-5" d="M597.7,637.68a3.59,3.59,0,1,0-3.59,3.59,3.59,3.59,0,0,0,3.59-3.59"/><path class="cls-5" d="M549.25,709.69a3.59,3.59,0,1,0-3.58,3.58,3.58,3.58,0,0,0,3.58-3.58"/><path class="cls-5" d="M563.67,706.1a3.59,3.59,0,1,0-3.58,3.58,3.58,3.58,0,0,0,3.58-3.58"/><path class="cls-5" d="M576.36,698.58a3.59,3.59,0,1,0-3.59,3.58,3.59,3.59,0,0,0,3.59-3.58"/><path class="cls-5" d="M590,692.82a3.59,3.59,0,1,0-3.59,3.59,3.58,3.58,0,0,0,3.59-3.59"/><path class="cls-5" d="M597.7,680.19a3.59,3.59,0,1,0-3.59,3.59,3.58,3.58,0,0,0,3.59-3.59"/><path class="cls-5" d="M605.44,667.44a3.59,3.59,0,1,0-3.59,3.58,3.59,3.59,0,0,0,3.59-3.58"/><path class="cls-5" d="M603.71,652a3.59,3.59,0,1,0-3.59,3.58,3.59,3.59,0,0,0,3.59-3.58"/><path class="cls-5" d="M535,721.7a3.59,3.59,0,1,0,4.82-1.58A3.58,3.58,0,0,0,535,721.7"/><path class="cls-7" d="M546.24,718.08a7.74,7.74,0,1,0,10-4.39,7.75,7.75,0,0,0-10,4.39"/><path class="cls-7" d="M561.41,714.44a7.74,7.74,0,1,0,10-4.39,7.74,7.74,0,0,0-10,4.39"/><path class="cls-7" d="M575.57,706.87a7.74,7.74,0,1,0,10-4.39,7.75,7.75,0,0,0-10,4.39"/><path class="cls-7" d="M589,705.22a7.74,7.74,0,1,0,3.4-10.4,7.73,7.73,0,0,0-3.4,10.4"/><path class="cls-7" d="M599.17,693.74a7.74,7.74,0,1,0,3.41-10.41,7.74,7.74,0,0,0-3.41,10.41"/><path class="cls-7" d="M606,680.1a7.74,7.74,0,1,0,3.4-10.4,7.73,7.73,0,0,0-3.4,10.4"/><path class="cls-7" d="M609.55,665.64a7.74,7.74,0,1,0,3.41-10.4,7.75,7.75,0,0,0-3.41,10.4"/><path class="cls-7" d="M613.16,654.35a7.74,7.74,0,1,0-6.83-8.55,7.74,7.74,0,0,0,6.83,8.55"/><path class="cls-7" d="M606.91,639.63a7.74,7.74,0,1,0-6.83-8.56,7.73,7.73,0,0,0,6.83,8.56"/><path class="cls-7" d="M595.67,627a7.74,7.74,0,1,0-6.83-8.55,7.74,7.74,0,0,0,6.83,8.55"/><path class="cls-7" d="M590.36,615.48a7.74,7.74,0,1,0-10.93-.62,7.74,7.74,0,0,0,10.93.62"/><path class="cls-7" d="M576.57,607.74a7.74,7.74,0,1,0-10.93-.62,7.74,7.74,0,0,0,10.93.62"/><path class="cls-7" d="M562.11,602.27a7.74,7.74,0,1,0-10.93-.61,7.75,7.75,0,0,0,10.93.61"/><path class="cls-7" d="M547.24,599.06a7.74,7.74,0,1,0-10.93-.61,7.74,7.74,0,0,0,10.93.61"/><path class="cls-5" d="M550.11,719.59a3.59,3.59,0,1,0,4.64-2,3.59,3.59,0,0,0-4.64,2"/><path class="cls-5" d="M565.27,716a3.59,3.59,0,1,0,4.65-2,3.6,3.6,0,0,0-4.65,2"/><path class="cls-5" d="M579.44,708.38a3.59,3.59,0,1,0,4.65-2,3.59,3.59,0,0,0-4.65,2"/><path class="cls-5" d="M592.68,703.35a3.59,3.59,0,1,0,1.58-4.82,3.6,3.6,0,0,0-1.58,4.82"/><path class="cls-5" d="M602.87,691.86a3.59,3.59,0,1,0,1.58-4.82,3.59,3.59,0,0,0-1.58,4.82"/><path class="cls-5" d="M609.67,678.23a3.59,3.59,0,1,0,1.58-4.83,3.59,3.59,0,0,0-1.58,4.83"/><path class="cls-5" d="M613.26,663.76a3.59,3.59,0,1,0,1.58-4.82,3.58,3.58,0,0,0-1.58,4.82"/><path class="cls-5" d="M613.62,650.22a3.58,3.58,0,1,0-3.16-4,3.57,3.57,0,0,0,3.16,4"/><path class="cls-5" d="M607.37,635.5a3.59,3.59,0,1,0-3.16-4,3.59,3.59,0,0,0,3.16,4"/><path class="cls-5" d="M596.13,622.89a3.58,3.58,0,1,0-3.16-4,3.58,3.58,0,0,0,3.16,4"/><path class="cls-5" d="M587.6,612.38a3.59,3.59,0,1,0-5.07-.28,3.59,3.59,0,0,0,5.07.28"/><path class="cls-5" d="M573.8,604.64a3.59,3.59,0,1,0-5.06-.28,3.58,3.58,0,0,0,5.06.28"/><path class="cls-5" d="M559.34,599.17a3.59,3.59,0,1,0-5.06-.28,3.58,3.58,0,0,0,5.06.28"/><path class="cls-5" d="M544.47,596a3.58,3.58,0,1,0-5.07-.28,3.58,3.58,0,0,0,5.07.28"/><path class="cls-9" d="M520.22,577.2V583c3,0,6,.1,9.06.3,27,1.8,51.8,11.35,69.83,26.9,17.56,15.15,26.52,34.19,25.23,53.6C623.13,682,612.8,699,595.25,711.48c-17.89,12.75-41.59,19.77-66.72,19.77-3,0-6.06-.1-9.07-.3-27-1.8-51.8-11.35-69.83-26.9-17.56-15.15-26.52-34.18-25.23-53.59,1.21-18.26,11.54-35.21,29.08-47.71C471.38,590,495.08,583,520.21,583V577.2m0,0c-54.21,0-98.8,31.31-101.57,72.88-2.92,43.95,42,82.74,100.43,86.62,3.18.22,6.33.32,9.46.32,54.21,0,98.8-31.31,101.56-72.87,2.93-44-42-82.74-100.42-86.63q-4.77-.32-9.46-.32"/><path class="cls-5" d="M522.82,677c.21,1.25,1.74,4.16,3.25,3.9s2-3.51,1.78-4.76a2.55,2.55,0,0,0-2.14-2.08.53.53,0,0,0,0-.25.61.61,0,0,0-.71-.5H525a2,2,0,0,1-.61-1.16,2.91,2.91,0,0,1,.3-1.78,2.62,2.62,0,0,0-.21-3,10.4,10.4,0,0,1-.57-1.07,2.46,2.46,0,0,1-.06-2.6.26.26,0,0,0,0-.36.26.26,0,0,0-.21,0,.27.27,0,0,0-.15.09c-.43.52-.78,1.49,0,3.14a10.18,10.18,0,0,0,.59,1.11,2.13,2.13,0,0,1,.2,2.56,3.49,3.49,0,0,0-.36,2.1,2.64,2.64,0,0,0,.55,1.2.62.62,0,0,0-.34.65.67.67,0,0,0,.1.23,2.52,2.52,0,0,0-1.32,2.67"/><path class="cls-5" d="M514.2,689.7c0,1.66,1.33,5.75,3.34,5.75s3.35-4.09,3.35-5.75a3.33,3.33,0,0,0-2.3-3.16.88.88,0,0,0,.07-.32.8.8,0,0,0-.8-.8h-.09a2.76,2.76,0,0,1-.53-1.63,3.79,3.79,0,0,1,.79-2.23c1.25-1.68.89-2.65.39-4a13.25,13.25,0,0,1-.49-1.5c-.31-1.09-.47-2.55.49-3.38a.32.32,0,0,0,0-.47.3.3,0,0,0-.25-.12.35.35,0,0,0-.22.09c-.67.58-1.34,1.76-.7,4a14.44,14.44,0,0,0,.52,1.57c.48,1.3.73,2-.31,3.35a4.55,4.55,0,0,0-.92,2.63,3.44,3.44,0,0,0,.44,1.67.8.8,0,0,0-.58.76.71.71,0,0,0,.07.32,3.33,3.33,0,0,0-2.3,3.16"/><path class="cls-5" d="M508.56,672.72c-.48,1.58-.38,5.89,1.54,6.47s4.39-3,4.86-4.55a3.32,3.32,0,0,0-1.28-3.68.73.73,0,0,0,.15-.29.8.8,0,0,0-.53-1l-.08,0a2.71,2.71,0,0,1-.05-1.71,3.93,3.93,0,0,1,1.4-1.91c1.69-1.24,1.62-2.27,1.53-3.7a15.58,15.58,0,0,1,0-1.58c0-1.13.29-2.58,1.45-3.09a.34.34,0,0,0,.17-.44.33.33,0,0,0-.21-.19.33.33,0,0,0-.24,0c-.81.36-1.79,1.29-1.84,3.68,0,.61,0,1.16,0,1.65.09,1.39.14,2.08-1.25,3.11a4.54,4.54,0,0,0-1.65,2.26,3.39,3.39,0,0,0,0,1.73.78.78,0,0,0-.78.56.71.71,0,0,0,0,.32,3.34,3.34,0,0,0-3.11,2.37"/><path class="cls-5" d="M538.49,677.12c1.24,1.1,5.19,2.81,6.52,1.31s-.85-5.22-2.09-6.32a3.33,3.33,0,0,0-3.89-.37.83.83,0,0,0-.19-.27.82.82,0,0,0-1.14.07l-.05.06a2.78,2.78,0,0,1-1.58-.67,3.9,3.9,0,0,1-1.14-2.08c-.43-2.05-1.39-2.42-2.72-2.93a14,14,0,0,1-1.46-.63c-1-.49-2.22-1.34-2.2-2.61a.33.33,0,0,0-.33-.33.32.32,0,0,0-.34.33c0,.89.43,2.17,2.57,3.21a13.82,13.82,0,0,0,1.52.65c1.3.5,1.95.76,2.3,2.45a4.5,4.5,0,0,0,1.36,2.44,3.29,3.29,0,0,0,1.55.77.79.79,0,0,0,.18.94.66.66,0,0,0,.28.16,3.34,3.34,0,0,0,.85,3.82"/><path class="cls-5" d="M548.1,671.83c1.44.82,5.66,1.68,6.65-.07s-1.91-4.93-3.36-5.75a3.35,3.35,0,0,0-3.88.45.64.64,0,0,0-.24-.22.81.81,0,0,0-1.1.3l0,.08a2.8,2.8,0,0,1-1.68-.34,3.91,3.91,0,0,1-1.55-1.79c-.84-1.92-1.86-2.08-3.27-2.31a12.59,12.59,0,0,1-1.56-.31c-1.09-.27-2.44-.85-2.69-2.09a.33.33,0,0,0-.39-.26.35.35,0,0,0-.23.16.37.37,0,0,0,0,.23c.18.88.87,2,3.18,2.61a13.93,13.93,0,0,0,1.62.32c1.38.23,2.07.34,2.77,1.92a4.47,4.47,0,0,0,1.83,2.1,3.45,3.45,0,0,0,1.68.44.79.79,0,0,0,.37.88.75.75,0,0,0,.31.1,3.34,3.34,0,0,0,1.62,3.55"/><path class="cls-5" d="M556.2,681.37c.88.5,3.46,1,4.06,0s-1.17-3-2-3.5a2,2,0,0,0-2.37.27.41.41,0,0,0-.15-.14.48.48,0,0,0-.66.19l0,0a1.68,1.68,0,0,1-1-.2,2.3,2.3,0,0,1-.94-1.09,2.1,2.1,0,0,0-2-1.41c-.28-.05-.6-.1-.95-.19-.67-.17-1.49-.52-1.64-1.28a.21.21,0,0,0-.24-.16.19.19,0,0,0-.14.1.22.22,0,0,0,0,.14c.11.53.54,1.24,2,1.59a7.23,7.23,0,0,0,1,.2c.84.14,1.26.2,1.68,1.17a2.82,2.82,0,0,0,1.12,1.28,2.09,2.09,0,0,0,1,.27.48.48,0,0,0,.22.54.7.7,0,0,0,.19.06,2.06,2.06,0,0,0,1,2.17"/><path class="cls-5" d="M543.84,639c1.19-1.16,3.18-5,1.77-6.42s-5.26.48-6.45,1.64a3.37,3.37,0,0,0-.65,3.86.65.65,0,0,0-.27.17.8.8,0,0,0,0,1.14l0,.06a2.75,2.75,0,0,1-.78,1.52,3.92,3.92,0,0,1-2.15,1c-2.08.28-2.51,1.21-3.12,2.5a12.81,12.81,0,0,1-.73,1.41c-.56,1-1.5,2.12-2.75,2a.33.33,0,0,0-.27.57.32.32,0,0,0,.21.1c.89.07,2.2-.27,3.38-2.34a11.5,11.5,0,0,0,.76-1.46c.6-1.26.89-1.9,2.61-2.13A4.62,4.62,0,0,0,538,641.4a3.5,3.5,0,0,0,.88-1.49.79.79,0,0,0,.95-.12.8.8,0,0,0,.18-.27,3.33,3.33,0,0,0,3.86-.57"/><path class="cls-5" d="M528.57,629.74c.1-1.65-1-5.82-3-6s-3.6,3.87-3.71,5.52a3.35,3.35,0,0,0,2.09,3.3.85.85,0,0,0-.09.32.8.8,0,0,0,.75.85h.09a2.71,2.71,0,0,1,.43,1.66,3.83,3.83,0,0,1-.94,2.17c-1.36,1.6-1.06,2.58-.65,4a13.64,13.64,0,0,1,.4,1.54c.23,1.1.3,2.57-.71,3.33a.34.34,0,0,0-.07.47.33.33,0,0,0,.25.13.3.3,0,0,0,.22-.06c.71-.54,1.46-1.67,1-4a13.68,13.68,0,0,0-.41-1.6c-.4-1.34-.6-2,.52-3.32a4.44,4.44,0,0,0,1.09-2.57,3.41,3.41,0,0,0-.33-1.7.78.78,0,0,0,.63-.72.7.7,0,0,0,0-.32,3.34,3.34,0,0,0,2.5-3"/><path class="cls-5" d="M497.75,679.15c-.68,1.51-1.13,5.79.7,6.61s4.72-2.37,5.4-3.88a3.33,3.33,0,0,0-.81-3.82.9.9,0,0,0,.2-.27.8.8,0,0,0-.41-1.06l-.08,0a2.83,2.83,0,0,1,.18-1.7,3.87,3.87,0,0,1,1.64-1.72c1.82-1,1.89-2,2-3.47a14.32,14.32,0,0,1,.16-1.58c.17-1.11.62-2.51,1.83-2.88a.33.33,0,0,0,0-.62.36.36,0,0,0-.23,0c-.85.26-2,1.06-2.3,3.42a15.79,15.79,0,0,0-.17,1.64c-.09,1.39-.13,2.09-1.64,2.93a4.45,4.45,0,0,0-1.92,2,3.36,3.36,0,0,0-.28,1.71.79.79,0,0,0-.84.45.74.74,0,0,0-.07.32,3.33,3.33,0,0,0-3.38,1.95"/><path class="cls-5" d="M563.84,668.73c.93.29,3.46.26,3.81-.87s-1.71-2.59-2.64-2.88a2,2,0,0,0-2.18.73.42.42,0,0,0-.16-.09.48.48,0,0,0-.6.31V666a1.59,1.59,0,0,1-1,0,2.23,2.23,0,0,1-1.11-.83,2,2,0,0,0-2.17-.92c-.27,0-.59,0-.93,0-.66,0-1.51-.18-1.81-.86a.2.2,0,0,0-.26-.11.25.25,0,0,0-.11.12.22.22,0,0,0,0,.14c.21.48.75,1.06,2.15,1.1a7.64,7.64,0,0,0,1,0c.82,0,1.23-.07,1.83.76a2.71,2.71,0,0,0,1.31,1,2.08,2.08,0,0,0,1,0,.47.47,0,0,0,.32.46.46.46,0,0,0,.2,0,2,2,0,0,0,1.37,1.84"/><path class="cls-5" d="M552.39,657c1,.13,3.45-.35,3.6-1.52s-2.14-2.25-3.11-2.38a2,2,0,0,0-2,1.11.43.43,0,0,0-.18-.06.47.47,0,0,0-.53.4v.05a1.63,1.63,0,0,1-1,.2,2.34,2.34,0,0,1-1.24-.63,2,2,0,0,0-2.29-.53,6.52,6.52,0,0,1-.92.18,1.91,1.91,0,0,1-1.93-.54.2.2,0,0,0-.36.09.31.31,0,0,0,0,.13c.29.44.93.91,2.31.71.37-.05.68-.12,1-.18a1.63,1.63,0,0,1,1.93.42,2.62,2.62,0,0,0,1.46.74,2,2,0,0,0,1-.14.48.48,0,0,0,.4.4.4.4,0,0,0,.19,0,2,2,0,0,0,1.68,1.57"/><path class="cls-5" d="M551.05,645.32c1.08-.6,3.27-3,2.54-4.27s-3.89-.7-5-.09a2.49,2.49,0,0,0-1.23,2.64.62.62,0,0,0-.23.07.61.61,0,0,0-.23.82l0,.06a2.08,2.08,0,0,1-.87.94,2.88,2.88,0,0,1-1.74.29A2.57,2.57,0,0,0,541.6,647a8.72,8.72,0,0,1-.8.87,2.45,2.45,0,0,1-2.38.91.25.25,0,0,0-.32.15.2.2,0,0,0,0,.2.26.26,0,0,0,.13.12c.62.22,1.64.23,2.9-1,.33-.32.6-.63.84-.91a2.06,2.06,0,0,1,2.29-1,3.43,3.43,0,0,0,2.05-.36,2.44,2.44,0,0,0,.93-.9.59.59,0,0,0,.71.11.56.56,0,0,0,.18-.16,2.52,2.52,0,0,0,2.9.35"/><path class="cls-5" d="M521.09,634.92c-.07-1.24-1.22-4.24-2.72-4.17s-2.33,3.19-2.27,4.42a2.5,2.5,0,0,0,1.83,2.27.66.66,0,0,0,0,.24.6.6,0,0,0,.63.57h.06a2,2,0,0,1,.46,1.19,2.87,2.87,0,0,1-.5,1.7,2.53,2.53,0,0,0-.14,3,10.47,10.47,0,0,1,.42,1.11,2.42,2.42,0,0,1-.23,2.53.25.25,0,0,0,0,.36.23.23,0,0,0,.19.07.2.2,0,0,0,.16-.07c.48-.46.94-1.36.37-3a11.09,11.09,0,0,0-.45-1.15,2.06,2.06,0,0,1,.1-2.5,3.37,3.37,0,0,0,.59-2,2.43,2.43,0,0,0-.4-1.23.6.6,0,0,0,.35-.83,2.5,2.5,0,0,0,1.59-2.44"/><path class="cls-5" d="M498.38,640c-1-.68-4.13-1.56-5-.31s1.15,3.78,2.18,4.47a2.51,2.51,0,0,0,2.92-.12.58.58,0,0,0,.17.18.6.6,0,0,0,.83-.17l0,0a2,2,0,0,1,1.23.34,2.91,2.91,0,0,1,1.06,1.42,2.57,2.57,0,0,0,2.31,1.9,10.18,10.18,0,0,1,1.14.32c.8.26,1.77.77,1.89,1.7a.24.24,0,0,0,.45.11.21.21,0,0,0,0-.17c-.08-.66-.53-1.56-2.22-2.12a11.67,11.67,0,0,0-1.19-.33c-1-.24-1.52-.36-1.95-1.58a3.43,3.43,0,0,0-1.25-1.66,2.52,2.52,0,0,0-1.23-.42.59.59,0,0,0-.23-.68.47.47,0,0,0-.22-.09,2.52,2.52,0,0,0-1-2.74"/><path class="cls-5" d="M510.09,636c-.44-.9-2.25-2.77-3.34-2.23s-.73,3.11-.29,4a2,2,0,0,0,2.09,1.11.45.45,0,0,0,.05.19.48.48,0,0,0,.65.22l0,0a1.68,1.68,0,0,1,.73.74,2.45,2.45,0,0,1,.16,1.43,2.06,2.06,0,0,0,.85,2.26c.2.2.44.42.67.69a2,2,0,0,1,.63,2,.19.19,0,0,0,.1.26.2.2,0,0,0,.17,0,.22.22,0,0,0,.1-.11c.21-.49.26-1.31-.7-2.38a6.93,6.93,0,0,0-.7-.72,1.68,1.68,0,0,1-.72-1.9,2.8,2.8,0,0,0-.2-1.68,2,2,0,0,0-.69-.78.48.48,0,0,0,.12-.57.4.4,0,0,0-.12-.16,2,2,0,0,0,.4-2.33"/><path class="cls-5" d="M495.28,664.19c-.78.62-2.22,2.8-1.46,3.75s3.2,0,4-.59a2,2,0,0,0,.63-2.27l.18-.09a.5.5,0,0,0,.08-.69l0,0a1.64,1.64,0,0,1,.57-.86,2.37,2.37,0,0,1,1.36-.47,2.07,2.07,0,0,0,2-1.31,7.34,7.34,0,0,1,.53-.8,2,2,0,0,1,1.78-1,.2.2,0,0,0,.23-.17.17.17,0,0,0,0-.16.2.2,0,0,0-.12-.07c-.53-.1-1.34,0-2.18,1.19-.22.3-.4.59-.55.84-.43.72-.65,1.08-1.7,1.12a2.74,2.74,0,0,0-1.59.55,2,2,0,0,0-.62.84.48.48,0,0,0-.58,0,.45.45,0,0,0-.13.15,2,2,0,0,0-2.36.11"/><path class="cls-5" d="M483.23,664.06c-.9.66-2.57,3-1.76,4.11s3.55.16,4.44-.51a2.22,2.22,0,0,0,.78-2.5.72.72,0,0,0,.2-.09.55.55,0,0,0,.12-.76l0,0a1.83,1.83,0,0,1,.66-.95,2.69,2.69,0,0,1,1.53-.46,2.3,2.3,0,0,0,2.3-1.39,10.5,10.5,0,0,1,.62-.87c.46-.6,1.19-1.27,2-1.09a.22.22,0,0,0,.27-.17.2.2,0,0,0,0-.18.25.25,0,0,0-.13-.09c-.58-.13-1.49,0-2.46,1.25a8.32,8.32,0,0,0-.65.91c-.5.78-.76,1.18-1.92,1.18a3.06,3.06,0,0,0-1.79.55,2.29,2.29,0,0,0-.73.91.54.54,0,0,0-.64,0,.8.8,0,0,0-.15.17,2.24,2.24,0,0,0-2.62,0"/><path class="cls-5" d="M484.9,648.42c-1.12.08-3.8,1.16-3.71,2.51s2.9,2.05,4,2a2.26,2.26,0,0,0,2-1.69.41.41,0,0,0,.22,0,.54.54,0,0,0,.5-.57v-.06a1.8,1.8,0,0,1,1.07-.43,2.56,2.56,0,0,1,1.53.42,2.3,2.3,0,0,0,2.69.09,8.82,8.82,0,0,1,1-.4,2.19,2.19,0,0,1,2.29.17.21.21,0,0,0,.31,0,.23.23,0,0,0,.07-.17.25.25,0,0,0-.06-.15c-.43-.42-1.25-.82-2.76-.28a8.55,8.55,0,0,0-1,.42,1.88,1.88,0,0,1-2.26,0,3,3,0,0,0-1.81-.5,2.36,2.36,0,0,0-1.1.37.52.52,0,0,0-.54-.35.39.39,0,0,0-.21.06,2.24,2.24,0,0,0-2.22-1.4"/><path class="cls-5" d="M419.36,736.81a5.21,5.21,0,0,0-6.05-1.7,5.35,5.35,0,0,0-1.78,1.19A21.85,21.85,0,0,0,386.74,730c-10.09,4.05-31.73,22.13-26.83,34.35s33,10.35,43.13,6.3A21.85,21.85,0,0,0,416.64,749a5.2,5.2,0,0,0,2.11-.37,5.26,5.26,0,0,0,2.93-6.85l-.2-.51"/><path class="cls-5" d="M412.34,739.83c17.13-6.77,39.61-1.49,64.22.26q3.36.23,6.64.41c26.39,2.09,61.17-2,70-32.43a38.27,38.27,0,0,0,1.16-8.93,39.65,39.65,0,0,0-1-9.35,40.47,40.47,0,0,0-2.77-8.11c-4.88-10.55-14.35-19.83-28.58-26.64a.25.25,0,0,1,.17-.46c6.94,2.18,24,8.89,32.67,24.13a38.31,38.31,0,0,1,4,10.19,44.44,44.44,0,0,1-.58,21.05c-6.85,29.36-41.2,38.53-67.29,36.84-3.87,0-7.9-.18-12.07-.42-28-1.62-50.47-7.73-67.4,1.38Z"/><text class="cls-11" transform="translate(84.45 510.26)"><tspan class="cls-12">T</tspan><tspan x="9.59" y="0">estis</tspan></text><text class="cls-11" transform="translate(113.49 655.85)">Sperm <tspan class="cls-13" x="65.47" y="0">C</tspan><tspan x="77.22" y="0">ells</tspan></text><text class="cls-11" transform="translate(0 592.2)">Semini<tspan class="cls-14" x="62.88" y="0">f</tspan><tspan x="69.96" y="0">e</tspan><tspan class="cls-15" x="81.07" y="0">r</tspan><tspan x="88.46" y="0">ous tubules</tspan></text><line class="cls-16" x1="344.9" y1="505.15" x2="146.19" y2="505.15"/><polyline class="cls-16" points="401.97 548.12 207.08 587.43 544.84 551.44"/><line class="cls-16" x1="232.96" y1="649.58" x2="470.9" y2="649.58"/><text class="cls-11" transform="translate(560.53 444.82)">Testosterone</text><text class="cls-11" transform="translate(732.36 664.42)">Sperm Production</text><text class="cls-11" transform="translate(21.27 286.22)">Pituitary Gland</text><line class="cls-16" x1="326.58" y1="280.48" x2="164.97" y2="280.48"/><text class="cls-11" transform="translate(60.56 88.68)">Hypothalamus</text><line class="cls-16" x1="365.87" y1="82.94" x2="204.26" y2="82.94"/><line class="cls-5" x1="622.26" y1="130.57" x2="622.26" y2="236.18"/><line class="cls-17" x1="622.26" y1="130.57" x2="622.26" y2="221.83"/><polygon class="cls-5" points="612.29 218.91 622.26 236.18 632.23 218.91 612.29 218.91"/><line class="cls-5" x1="622.26" y1="309.38" x2="622.26" y2="405.38"/><line class="cls-17" x1="622.26" y1="309.38" x2="622.26" y2="391.03"/><polygon class="cls-5" points="612.29 388.12 622.26 405.38 632.23 388.12 612.29 388.12"/><path class="cls-17" d="M691.32,443.47c52.55.2,95.24,76.56,98.76,173.44"/><polygon class="cls-5" points="779.94 614.22 790.31 631.26 799.88 613.77 779.94 614.22"/><path class="cls-17" d="M543.6,428.94c-83.27-96.52-76.69-239.61,12.63-326.53"/><polygon class="cls-5" points="560.99 111.78 566.82 92.71 547.39 97.19 560.99 111.78"/><circle class="cls-18" cx="659.92" cy="183.38" r="18.39"/><line class="cls-19" x1="647.59" y1="183.38" x2="672.25" y2="183.38"/><line class="cls-19" x1="659.92" y1="195.7" x2="659.92" y2="171.05"/><circle class="cls-18" cx="659.92" cy="354.32" r="18.39"/><line class="cls-19" x1="647.59" y1="354.32" x2="672.25" y2="354.32"/><line class="cls-19" x1="659.92" y1="366.65" x2="659.92" y2="341.99"/><circle class="cls-18" cx="740.81" cy="522.3" r="18.39"/><line class="cls-19" x1="728.49" y1="522.3" x2="753.14" y2="522.3"/><line class="cls-19" x1="740.81" y1="534.62" x2="740.81" y2="509.97"/><circle class="cls-18" cx="516.1" cy="309.38" r="18.39"/><line class="cls-19" x1="503.77" y1="309.38" x2="528.42" y2="309.38"/><circle class="cls-18" cx="521.89" cy="232.2" r="18.39"/><line class="cls-19" x1="509.56" y1="232.2" x2="534.21" y2="232.2"/><text class="cls-11" transform="translate(609.56 275.38)">LH</text><text class="cls-11" transform="translate(595.37 103.96)">GnRH</text><path class="cls-17" d="M543.6,428.94C523.24,362.6,541,297.17,583.17,274"/><polygon class="cls-5" points="584.65 284.54 596.39 268.42 576.56 266.31 584.65 284.54"/><text class="cls-11" transform="translate(704.06 275.38)">FSH</text><circle class="cls-18" cx="777.98" cy="183.38" r="18.39"/><line class="cls-19" x1="765.65" y1="183.38" x2="790.31" y2="183.38"/><line class="cls-19" x1="777.33" y1="195.7" x2="777.33" y2="171.05"/><path class="cls-17" d="M759.59,272.32c53.81.62,95.86,153.46,95.78,344.59"/><polygon class="cls-5" points="845.27 614.02 855.28 631.26 865.21 613.96 845.27 614.02"/><circle class="cls-18" cx="870.49" cy="442.62" r="18.39"/><line class="cls-19" x1="858.16" y1="442.62" x2="882.82" y2="442.62"/><line class="cls-19" x1="870.49" y1="454.95" x2="870.49" y2="430.29"/><line class="cls-5" x1="723.24" y1="130.57" x2="723.24" y2="236.18"/><line class="cls-17" x1="723.24" y1="130.57" x2="723.24" y2="221.83"/><polygon class="cls-5" points="713.26 218.91 723.24 236.18 733.21 218.91 713.26 218.91"/></g></g></svg>