<?xml version="1.0" encoding="UTF-8" standalone="no"?>
<!-- Generator: Adobe Illustrator 12.0.1, SVG Export Plug-In . SVG Version: 6.00 Build 51448)  -->
<svg
   xmlns:dc="http://purl.org/dc/elements/1.1/"
   xmlns:cc="http://web.resource.org/cc/"
   xmlns:rdf="http://www.w3.org/1999/02/22-rdf-syntax-ns#"
   xmlns:svg="http://www.w3.org/2000/svg"
   xmlns="http://www.w3.org/2000/svg"
   xmlns:sodipodi="http://sodipodi.sourceforge.net/DTD/sodipodi-0.dtd"
   xmlns:inkscape="http://www.inkscape.org/namespaces/inkscape"
   version="1.1"
   id="Layer_1"
   width="346.096"
   height="201.284"
   viewBox="0 0 346.096 201.284"
   style="overflow:visible;enable-background:new 0 0 346.096 201.284;"
   xml:space="preserve"
   sodipodi:version="0.32"
   inkscape:version="0.45.1"
   sodipodi:docname="Thiamin.svg"
   inkscape:output_extension="org.inkscape.output.svg.inkscape"
   sodipodi:docbase="C:\"><metadata
   id="metadata112"><rdf:RDF><cc:Work
       rdf:about=""><dc:format>image/svg+xml</dc:format><dc:type
         rdf:resource="http://purl.org/dc/dcmitype/StillImage" /></cc:Work></rdf:RDF></metadata><defs
   id="defs110" /><sodipodi:namedview
   inkscape:window-height="579"
   inkscape:window-width="801"
   inkscape:pageshadow="2"
   inkscape:pageopacity="0.0"
   guidetolerance="10.0"
   gridtolerance="10.0"
   objecttolerance="10.0"
   borderopacity="1.0"
   bordercolor="#666666"
   pagecolor="#ffffff"
   id="base"
   inkscape:zoom="1.8779436"
   inkscape:cx="173.048"
   inkscape:cy="100.642"
   inkscape:window-x="220"
   inkscape:window-y="220"
   inkscape:current-layer="Layer_1" />
<g
   id="g3"
   transform="matrix(0.95,0,0,0.95,8.6524,5.032125)">
	<path
   d="M 62.565,76.688 L 62.565,59.5 L 64.905,59.5 L 73.909,72.989 L 73.909,59.5 L 76.097,59.5 L 76.097,76.688 L 73.757,76.688 L 64.753,63.199 L 64.753,76.688 L 62.565,76.688 z "
   id="path5" />
</g>
<g
   id="g7"
   transform="matrix(0.95,0,0,0.95,8.6524,5.032125)">
	<path
   d="M 96.916,136.237 L 96.916,119.05 L 99.256,119.05 L 108.26,132.539 L 108.26,119.05 L 110.448,119.05 L 110.448,136.238 L 108.108,136.238 L 99.104,122.749 L 99.104,136.238 L 96.916,136.238 L 96.916,136.237 z "
   id="path9" />
</g>
<path
   d="M 75.331,106.14823 L 74.52255,106.62323 L 73.716,106.14823 L 73.716,80.023225 L 75.331,80.023225 L 75.331,106.14823 z "
   id="polygon11" />
<path
   d="M 79.368504,80.023229 L 80.983504,80.023229 L 80.983504,103.34573 L 79.368504,103.34573 L 79.368504,80.023229 z "
   id="rect13" />
<path
   d="M 97.751,119.11478 L 96.9435,120.49228 L 74.52255,107.52573 L 74.52255,106.62323 L 75.331,106.14823 L 97.751,119.11478 z "
   id="polygon15" />
<path
   d="M 139.0285,106.14823 L 140.6435,107.09823 L 117.3685,120.49228 L 116.56005,119.11478 L 139.0285,106.14823 z "
   id="polygon17" />
<path
   d="M 133.756,102.63228 L 134.5635,104.05728 L 114.566,115.60073 L 113.7585,114.22323 L 133.756,102.63228 z "
   id="polygon19" />
<path
   d="M 139.0285,69.382275 L 139.83505,68.907275 L 140.6435,69.382275 L 140.6435,107.09823 L 139.0285,106.14823 L 139.0285,69.382275 z "
   id="polygon21" />
<path
   d="M 107.156,50.999775 L 107.156,50.049775 L 107.9635,49.574775 L 139.83505,68.004775 L 139.83505,68.907275 L 139.0285,69.382275 L 107.156,50.999775 z "
   id="polygon23" />
<path
   d="M 106.776,57.317275 L 107.5835,55.892275 L 134.5635,71.473225 L 133.756,72.898225 L 106.776,57.317275 z "
   id="polygon25" />
<path
   d="M 84.641,64.014775 L 83.8335,62.589775 L 106.34755,49.574775 L 107.156,50.049775 L 107.156,50.999775 L 84.641,64.014775 z "
   id="polygon27" />
<path
   d="M 172.421,49.148225 L 172.421,50.999775 L 140.6435,69.382275 L 139.83505,68.907275 L 139.83505,68.004775 L 172.421,49.148225 z "
   id="polygon29" />
<g
   id="g31"
   transform="matrix(0.95,0,0,0.95,8.6524,5.032125)">
	<path
   d="M 199.966,76.688 L 199.966,59.5 L 202.306,59.5 L 211.31,72.989 L 211.31,59.5 L 213.498,59.5 L 213.498,76.688 L 211.158,76.688 L 202.154,63.199 L 202.154,76.688 L 199.966,76.688 z "
   id="path33" />
</g>
<path
   d="M 195.6485,62.542275 L 194.841,63.967275 L 172.421,50.999775 L 172.421,49.148225 L 195.6485,62.542275 z "
   id="polygon35" />
<g
   id="g37"
   transform="matrix(0.95,0,0,0.95,8.6524,5.032125)">
	<path
   d="M 262.582,84.521 L 264.723,84.333 C 264.825,85.194 265.061,85.9 265.432,86.452 C 265.803,87.004 266.379,87.451 267.161,87.791 C 267.942,88.132 268.823,88.302 269.8,88.302 C 270.667,88.302 271.433,88.173 272.097,87.914 C 272.761,87.656 273.256,87.302 273.581,86.851 C 273.905,86.401 274.067,85.91 274.067,85.377 C 274.067,84.837 273.909,84.365 273.592,83.962 C 273.275,83.56 272.756,83.221 272.037,82.946 C 271.576,82.766 270.555,82.486 268.975,82.106 C 267.396,81.727 266.289,81.369 265.658,81.033 C 264.838,80.602 264.226,80.069 263.825,79.431 C 263.424,78.793 263.222,78.08 263.222,77.289 C 263.222,76.422 263.468,75.61 263.96,74.855 C 264.452,74.1 265.173,73.527 266.118,73.136 C 267.065,72.744 268.116,72.549 269.274,72.549 C 270.547,72.549 271.672,72.755 272.645,73.165 C 273.62,73.576 274.368,74.181 274.891,74.978 C 275.416,75.776 275.698,76.68 275.737,77.689 L 273.549,77.861 C 273.432,76.768 273.033,75.944 272.358,75.385 C 271.682,74.827 270.682,74.548 269.362,74.548 C 267.985,74.548 266.981,74.801 266.352,75.306 C 265.723,75.811 265.409,76.419 265.409,77.131 C 265.409,77.75 265.632,78.259 266.077,78.657 C 266.515,79.056 267.659,79.466 269.509,79.885 C 271.359,80.304 272.627,80.67 273.316,80.983 C 274.319,81.444 275.058,82.028 275.537,82.736 C 276.014,83.444 276.254,84.258 276.254,85.181 C 276.254,86.096 275.992,86.957 275.469,87.767 C 274.946,88.577 274.194,89.205 273.213,89.655 C 272.233,90.105 271.129,90.33 269.904,90.33 C 268.349,90.33 267.047,90.103 265.996,89.65 C 264.945,89.197 264.122,88.515 263.525,87.605 C 262.928,86.699 262.613,85.67 262.582,84.521 z "
   id="path39" />
</g>
<path
   d="M 209.7085,105.71978 L 208.996,106.43228 L 208.141,106.10073 L 204.246,80.069775 L 205.861,79.832275 L 209.7085,105.71978 z "
   id="polygon41" />
<path
   d="M 245.47505,113.31978 L 245.9035,114.26978 L 245.3335,114.93573 L 209.2335,107.28823 L 208.996,106.43228 L 209.7085,105.71978 L 245.47505,113.31978 z "
   id="polygon43" />
<path
   d="M 243.196,107.05073 L 242.86255,108.66478 L 214.031,102.53728 L 214.36255,100.92323 L 243.196,107.05073 z "
   id="polygon45" />
<path
   d="M 258.3485,91.042275 L 259.7735,91.849775 L 246.806,114.31728 L 245.9035,114.26978 L 245.47505,113.31978 L 258.3485,91.042275 z "
   id="polygon47" />
<path
   d="M 239.30005,54.562275 L 239.7285,52.614775 L 258.681,73.704775 L 257.4935,74.798225 L 239.30005,54.562275 z "
   id="polygon49" />
<path
   d="M 215.0285,65.344775 L 214.411,63.873225 L 239.7285,52.614775 L 239.30005,54.562275 L 215.0285,65.344775 z "
   id="polygon51" />
<path
   d="M 217.356,70.523225 L 216.691,69.049775 L 237.7335,59.692275 L 238.3985,61.164775 L 217.356,70.523225 z "
   id="polygon53" />
<g
   id="g55"
   transform="matrix(0.95,0,0,0.95,8.6524,5.032125)">
	<path
   d="M 0,136.188 L 0,119 L 2.281,119 L 2.281,126.063 L 11.172,126.063 L 11.172,119 L 13.453,119 L 13.453,136.188 L 11.172,136.188 L 11.172,128.094 L 2.281,128.094 L 2.281,136.188 L 0,136.188 z "
   id="path57" />
</g>
<g
   id="g59"
   transform="matrix(0.95,0,0,0.95,8.6524,5.032125)">
	<path
   d="M 15.462,137.281 L 17.04,137.062 C 17.223,137.958 17.532,138.604 17.968,139 C 18.405,139.395 18.94,139.593 19.575,139.593 C 20.328,139.593 20.961,139.335 21.474,138.821 C 21.987,138.305 22.243,137.667 22.243,136.905 C 22.243,136.179 22.005,135.581 21.527,135.109 C 21.05,134.637 20.444,134.402 19.708,134.402 C 19.407,134.402 19.033,134.461 18.586,134.578 L 18.763,133.187 C 18.869,133.199 18.954,133.205 19.019,133.205 C 19.693,133.205 20.3,133.03 20.84,132.679 C 21.38,132.328 21.65,131.787 21.65,131.056 C 21.65,130.477 21.453,129.997 21.059,129.618 C 20.665,129.238 20.157,129.048 19.534,129.048 C 18.917,129.048 18.402,129.242 17.991,129.63 C 17.58,130.018 17.315,130.6 17.198,131.376 L 15.62,131.095 C 15.813,130.033 16.254,129.21 16.94,128.627 C 17.626,128.043 18.48,127.751 19.501,127.751 C 20.205,127.751 20.854,127.901 21.446,128.203 C 22.038,128.504 22.491,128.915 22.806,129.435 C 23.119,129.956 23.277,130.508 23.277,131.093 C 23.277,131.649 23.128,132.155 22.829,132.611 C 22.53,133.067 22.088,133.429 21.502,133.699 C 22.264,133.875 22.856,134.24 23.281,134.793 C 23.705,135.348 23.918,136.04 23.918,136.872 C 23.918,137.998 23.507,138.951 22.685,139.733 C 21.863,140.515 20.824,140.907 19.568,140.907 C 18.435,140.907 17.494,140.57 16.746,139.898 C 15.994,139.224 15.567,138.353 15.462,137.281 z "
   id="path61" />
</g>
<g
   id="g63"
   transform="matrix(0.95,0,0,0.95,8.6524,5.032125)">
	<path
   d="M 38.039,130.16 L 40.32,130.734 C 39.844,132.604 38.987,134.03 37.751,135.011 C 36.514,135.992 35.001,136.484 33.214,136.484 C 31.364,136.484 29.86,136.107 28.701,135.352 C 27.542,134.598 26.66,133.504 26.055,132.074 C 25.45,130.643 25.148,129.106 25.148,127.465 C 25.148,125.675 25.489,124.112 26.172,122.779 C 26.855,121.446 27.826,120.432 29.087,119.741 C 30.347,119.05 31.733,118.703 33.247,118.703 C 34.964,118.703 36.407,119.141 37.577,120.017 C 38.748,120.894 39.563,122.125 40.023,123.714 L 37.789,124.241 C 37.391,122.991 36.814,122.081 36.058,121.511 C 35.301,120.941 34.349,120.656 33.203,120.656 C 31.885,120.656 30.783,120.972 29.897,121.605 C 29.012,122.238 28.39,123.087 28.031,124.154 C 27.672,125.221 27.493,126.32 27.493,127.453 C 27.493,128.914 27.705,130.189 28.13,131.279 C 28.555,132.369 29.215,133.183 30.112,133.722 C 31.009,134.261 31.979,134.531 33.024,134.531 C 34.295,134.531 35.37,134.164 36.251,133.429 C 37.132,132.694 37.727,131.605 38.039,130.16 z "
   id="path65" />
</g>
<path
   d="M 50.916,121.15728 L 50.1085,119.77978 L 73.716,106.14823 L 74.52255,106.62323 L 74.52255,107.52573 L 50.916,121.15728 z "
   id="polygon67" />
<g
   id="g69"
   transform="matrix(0.95,0,0,0.95,8.6524,5.032125)">
	<path
   d="M 96.916,17.188 L 96.916,0 L 99.256,0 L 108.26,13.489 L 108.26,0 L 110.448,0 L 110.448,17.188 L 108.108,17.188 L 99.104,3.698 L 99.104,17.187 L 96.916,17.187 L 96.916,17.188 z "
   id="path71" />
	<path
   d="M 114.357,17.188 L 114.357,0 L 116.638,0 L 116.638,7.063 L 125.529,7.063 L 125.529,0 L 127.81,0 L 127.81,17.188 L 125.529,17.188 L 125.529,9.094 L 116.638,9.094 L 116.638,17.188 L 114.357,17.188 z "
   id="path73" />
</g>
<g
   id="g75"
   transform="matrix(0.95,0,0,0.95,8.6524,5.032125)">
	<path
   d="M 138.592,20.172 L 138.592,21.688 L 130.061,21.688 C 130.049,21.307 130.111,20.941 130.247,20.589 C 130.465,20.009 130.814,19.438 131.295,18.876 C 131.775,18.314 132.465,17.665 133.365,16.929 C 134.761,15.776 135.707,14.865 136.205,14.195 C 136.703,13.525 136.952,12.89 136.952,12.292 C 136.952,11.666 136.727,11.139 136.277,10.708 C 135.827,10.278 135.24,10.063 134.517,10.063 C 133.751,10.063 133.14,10.292 132.681,10.751 C 132.222,11.21 131.99,11.845 131.984,12.656 L 130.359,12.484 C 130.47,11.268 130.89,10.342 131.619,9.706 C 132.347,9.068 133.325,8.75 134.553,8.75 C 135.792,8.75 136.773,9.093 137.495,9.779 C 138.217,10.465 138.578,11.315 138.578,12.329 C 138.578,12.845 138.472,13.352 138.261,13.85 C 138.05,14.348 137.698,14.873 137.208,15.424 C 136.717,15.975 135.904,16.731 134.768,17.692 C 133.817,18.49 133.206,19.03 132.935,19.315 C 132.664,19.598 132.439,19.884 132.262,20.171 L 138.592,20.171 L 138.592,20.172 z "
   id="path77" />
</g>
<path
   d="M 106.34755,23.544775 L 107.9635,23.544775 L 107.9635,49.574775 L 107.156,50.049775 L 106.34755,49.574775 L 106.34755,23.544775 z "
   id="polygon79" />
<g
   id="g81"
   transform="matrix(0.95,0,0,0.95,8.6524,5.032125)">
	<path
   d="M 146.4,142.688 L 146.4,125.5 L 148.681,125.5 L 148.681,132.563 L 157.572,132.563 L 157.572,125.5 L 159.853,125.5 L 159.853,142.688 L 157.572,142.688 L 157.572,134.594 L 148.681,134.594 L 148.681,142.688 L 146.4,142.688 z "
   id="path83" />
</g>
<g
   id="g85"
   transform="matrix(0.95,0,0,0.95,8.6524,5.032125)">
	<path
   d="M 161.861,143.781 L 163.439,143.562 C 163.622,144.458 163.931,145.104 164.367,145.5 C 164.804,145.895 165.339,146.093 165.974,146.093 C 166.727,146.093 167.36,145.835 167.873,145.321 C 168.386,144.805 168.642,144.167 168.642,143.405 C 168.642,142.679 168.404,142.081 167.926,141.609 C 167.449,141.137 166.843,140.902 166.107,140.902 C 165.806,140.902 165.432,140.961 164.985,141.078 L 165.162,139.687 C 165.268,139.699 165.353,139.705 165.418,139.705 C 166.092,139.705 166.699,139.53 167.239,139.179 C 167.779,138.828 168.049,138.287 168.049,137.556 C 168.049,136.977 167.852,136.497 167.458,136.118 C 167.064,135.738 166.556,135.548 165.933,135.548 C 165.316,135.548 164.801,135.742 164.39,136.13 C 163.979,136.518 163.714,137.1 163.597,137.876 L 162.019,137.595 C 162.212,136.533 162.653,135.71 163.339,135.127 C 164.025,134.543 164.879,134.251 165.9,134.251 C 166.604,134.251 167.253,134.401 167.845,134.703 C 168.437,135.004 168.89,135.415 169.205,135.935 C 169.518,136.456 169.676,137.008 169.676,137.593 C 169.676,138.149 169.527,138.655 169.228,139.111 C 168.929,139.567 168.487,139.929 167.901,140.199 C 168.663,140.375 169.255,140.74 169.68,141.293 C 170.104,141.848 170.317,142.54 170.317,143.372 C 170.317,144.498 169.906,145.451 169.084,146.233 C 168.262,147.015 167.223,147.407 165.967,147.407 C 164.834,147.407 163.893,147.07 163.145,146.398 C 162.394,145.724 161.967,144.853 161.861,143.781 z "
   id="path87" />
</g>
<g
   id="g89"
   transform="matrix(0.95,0,0,0.95,8.6524,5.032125)">
	<path
   d="M 184.439,136.66 L 186.72,137.234 C 186.243,139.104 185.386,140.53 184.15,141.511 C 182.914,142.492 181.401,142.984 179.614,142.984 C 177.764,142.984 176.26,142.607 175.101,141.852 C 173.942,141.098 173.06,140.004 172.455,138.574 C 171.85,137.143 171.548,135.606 171.548,133.965 C 171.548,132.175 171.889,130.612 172.572,129.279 C 173.255,127.946 174.226,126.932 175.487,126.241 C 176.747,125.55 178.133,125.203 179.647,125.203 C 181.364,125.203 182.807,125.641 183.977,126.517 C 185.149,127.394 185.963,128.625 186.424,130.214 L 184.19,130.741 C 183.792,129.491 183.214,128.581 182.458,128.011 C 181.702,127.441 180.749,127.156 179.603,127.156 C 178.285,127.156 177.184,127.472 176.298,128.105 C 175.413,128.738 174.791,129.587 174.432,130.654 C 174.073,131.721 173.894,132.82 173.894,133.953 C 173.894,135.414 174.106,136.689 174.531,137.779 C 174.956,138.869 175.616,139.683 176.513,140.222 C 177.41,140.761 178.38,141.031 179.425,141.031 C 180.696,141.031 181.772,140.664 182.653,139.929 C 183.534,139.194 184.127,138.105 184.439,136.66 z "
   id="path91" />
</g>
<path
   d="M 189.046,125.47978 L 187.9535,124.29228 L 208.141,106.10073 L 208.996,106.43228 L 209.2335,107.28823 L 189.046,125.47978 z "
   id="polygon93" />
<path
   d="M 261.7685,147.90073 L 260.67505,149.41978 L 245.3335,114.93573 L 245.9035,114.26978 L 246.806,114.31728 L 261.7685,147.90073 z "
   id="polygon95" />
<path
   d="M 299.1985,151.84228 L 298.106,153.36323 L 260.67505,149.41978 L 261.7685,147.90073 L 299.1985,151.84228 z "
   id="polygon97" />
<g
   id="g99"
   transform="matrix(0.95,0,0,0.95,8.6524,5.032125)">
	<path
   d="M 313.193,192.622 C 313.193,189.769 313.959,187.537 315.492,185.924 C 317.023,184.31 319.002,183.503 321.424,183.503 C 323.012,183.503 324.442,183.882 325.715,184.64 C 326.989,185.399 327.961,186.455 328.629,187.811 C 329.297,189.167 329.631,190.705 329.631,192.423 C 329.631,194.166 329.279,195.725 328.576,197.1 C 327.873,198.475 326.876,199.517 325.586,200.224 C 324.297,200.931 322.905,201.285 321.412,201.285 C 319.795,201.285 318.348,200.894 317.074,200.113 C 315.8,199.332 314.836,198.264 314.178,196.913 C 313.52,195.562 313.193,194.131 313.193,192.622 z M 315.537,192.651 C 315.537,194.721 316.094,196.352 317.209,197.544 C 318.322,198.735 319.721,199.331 321.4,199.331 C 323.113,199.331 324.521,198.729 325.629,197.526 C 326.734,196.323 327.287,194.616 327.287,192.405 C 327.287,191.007 327.051,189.786 326.578,188.743 C 326.105,187.7 325.413,186.891 324.502,186.317 C 323.592,185.743 322.57,185.456 321.436,185.456 C 319.827,185.456 318.44,186.009 317.28,187.114 C 316.117,188.22 315.537,190.065 315.537,192.651 z "
   id="path101" />
	<path
   d="M 332.643,200.987 L 332.643,183.8 L 334.924,183.8 L 334.924,190.863 L 343.815,190.863 L 343.815,183.8 L 346.096,183.8 L 346.096,200.988 L 343.815,200.988 L 343.815,192.894 L 334.924,192.894 L 334.924,200.988 L 332.643,200.988 L 332.643,200.987 z "
   id="path103" />
</g>
<path
   d="M 310.6935,177.63573 L 309.221,178.30073 L 298.106,153.36323 L 299.1985,151.84228 L 310.6935,177.63573 z "
   id="polygon105" />
<path
   style="fill:none;stroke:#000000;stroke-width:1.35000002"
   d="M 210.136,54.799775 L 217.736,54.799775 M 213.936,50.999775 L 213.936,58.599775"
   id="path107" />
</svg>