<?xml version="1.0" encoding="UTF-8" standalone="no"?>
<!-- Created with Inkscape (http://www.inkscape.org/) -->
<svg
   xmlns:svg="http://www.w3.org/2000/svg"
   xmlns="http://www.w3.org/2000/svg"
   version="1.0"
   width="1000"
   height="350"
   viewBox="0 0 1000 350"
   id="svg2">
  <defs
     id="defs73" />
  <g
     id="g2469">
    <path
       d="M 108.8,96 L 17.1,43.099998"
       id="line8"
       style="font-size:60px;stroke:#000000;stroke-width:4;stroke-linecap:round;font-family:Helvetica" />
    <path
       d="M 575.5,234.3 L 608.20001,334.89999"
       id="line10"
       style="font-size:60px;stroke:#000000;stroke-width:4;stroke-linecap:round;font-family:Helvetica" />
    <path
       d="M 108.8,96 L 108.8,164"
       id="line12"
       style="font-size:60px;stroke:#000000;stroke-width:4;stroke-linecap:round;font-family:Helvetica" />
    <path
       d="M 128.8,104.5 L 128.8,155.5"
       id="line14"
       style="font-size:60px;stroke:#000000;stroke-width:4;stroke-linecap:round;font-family:Helvetica" />
    <path
       d="M 637.59998,148.8 L 575.5,234.3"
       id="line16"
       style="font-size:60px;stroke:#000000;stroke-width:4;stroke-linecap:round;font-family:Helvetica" />
    <path
       d="M 612.40002,147.39999 L 565.90002,211.5"
       id="line18"
       style="font-size:60px;stroke:#000000;stroke-width:4;stroke-linecap:round;font-family:Helvetica" />
    <path
       d="M 383.5,254.39999 L 448,217.2"
       id="line20"
       style="font-size:60px;stroke:#000000;stroke-width:4;stroke-linecap:round;font-family:Helvetica" />
    <path
       d="M 108.8,96 L 172,59.5"
       id="line22"
       style="font-size:60px;stroke:#000000;stroke-width:4;stroke-linecap:round;font-family:Helvetica" />
    <path
       d="M 292,96 L 292,201.60001"
       id="line24"
       style="font-size:60px;stroke:#000000;stroke-width:4;stroke-linecap:round;font-family:Helvetica" />
    <path
       d="M 743.40002,148.8 L 796.29999,240.5"
       id="line26"
       style="font-size:60px;stroke:#000000;stroke-width:4;stroke-linecap:round;font-family:Helvetica" />
    <path
       d="M 475,96 L 548,72.300003"
       id="line28"
       style="font-size:60px;stroke:#000000;stroke-width:4;stroke-linecap:round;font-family:Helvetica" />
    <path
       d="M 292,201.60001 L 383.5,254.39999"
       id="line30"
       style="font-size:60px;stroke:#000000;stroke-width:4;stroke-linecap:round;font-family:Helvetica" />
    <path
       d="M 228,59 L 292,96"
       id="line32"
       style="font-size:60px;stroke:#000000;stroke-width:4;stroke-linecap:round;font-family:Helvetica" />
    <path
       d="M 228,82.400002 L 276,110.2"
       id="line34"
       style="font-size:60px;stroke:#000000;stroke-width:4;stroke-linecap:round;font-family:Helvetica" />
    <path
       d="M 356,59.099998 L 292,96"
       id="line36"
       style="font-size:60px;stroke:#000000;stroke-width:4;stroke-linecap:round;font-family:Helvetica" />
    <path
       d="M 637.59998,148.8 L 743.40002,148.8"
       id="line38"
       style="font-size:60px;stroke:#000000;stroke-width:4;stroke-linecap:round;font-family:Helvetica" />
    <path
       d="M 292,201.60001 L 200.39999,254.60001"
       id="line40"
       style="font-size:60px;stroke:#000000;stroke-width:4;stroke-linecap:round;font-family:Helvetica" />
    <path
       d="M 272.5,189.5 L 203.8,229.2"
       id="line42"
       style="font-size:60px;stroke:#000000;stroke-width:4;stroke-linecap:round;font-family:Helvetica" />
    <path
       d="M 475,164 L 475,96"
       id="line44"
       style="font-size:60px;stroke:#000000;stroke-width:4;stroke-linecap:round;font-family:Helvetica" />
    <path
       d="M 495,155.5 L 495,104.5"
       id="line46"
       style="font-size:60px;stroke:#000000;stroke-width:4;stroke-linecap:round;font-family:Helvetica" />
    <path
       d="M 796.29999,240.5 L 872,240.5"
       id="line48"
       style="font-size:60px;stroke:#000000;stroke-width:4;stroke-linecap:round;font-family:Helvetica" />
    <path
       d="M 136,217.39999 L 200.39999,254.60001"
       id="line52"
       style="font-size:60px;stroke:#000000;stroke-width:4;stroke-linecap:round;font-family:Helvetica" />
    <path
       d="M 593.40002,88 L 637.59998,148.8"
       id="line54"
       style="font-size:60px;stroke:#000000;stroke-width:4;stroke-linecap:round;font-family:Helvetica" />
    <path
       d="M 181.77031,59.099998 L 181.77031,16.15078 L 187.60039,16.15078 L 210.15898,49.871483 L 210.15898,16.15078 L 215.6082,16.15078 L 215.6082,59.099998 L 209.77812,59.099998 L 187.21953,25.349998 L 187.21953,59.099998 L 181.77031,59.099998 z"
       id="text56"
       style="font-size:60px;fill:#000000;stroke-linecap:round;font-family:Helvetica" />
    <path
       d="M 89.770309,217.60001 L 89.770309,174.65079 L 95.600388,174.65079 L 118.15898,208.37149 L 118.15898,174.65079 L 123.6082,174.65079 L 123.6082,217.60001 L 117.77812,217.60001 L 95.219528,183.85001 L 95.219528,217.60001 L 89.770309,217.60001 z"
       id="text58"
       style="font-size:60px;fill:#000000;stroke-linecap:round;font-family:Helvetica" />
    <path
       d="M 365.77032,59.200001 L 365.77032,16.250782 L 371.6004,16.250782 L 394.159,49.971485 L 394.159,16.250782 L 399.60822,16.250782 L 399.60822,59.200001 L 393.77814,59.200001 L 371.21954,25.450001 L 371.21954,59.200001 L 365.77032,59.200001 z M 409.36407,59.200001 L 409.36407,16.250782 L 415.04767,16.250782 L 415.04767,33.887501 L 437.37189,33.887501 L 437.37189,16.250782 L 443.05548,16.250782 L 443.05548,59.200001 L 437.37189,59.200001 L 437.37189,38.95586 L 415.04767,38.95586 L 415.04767,59.200001 L 409.36407,59.200001 z"
       id="text60"
       style="font-size:60px;fill:#000000;stroke-linecap:round;font-family:Helvetica" />
    <path
       d="M 457.77032,217.60001 L 457.77032,174.65079 L 463.6004,174.65079 L 486.159,208.37149 L 486.159,174.65079 L 491.60822,174.65079 L 491.60822,217.60001 L 485.77814,217.60001 L 463.21954,183.85001 L 463.21954,217.60001 L 457.77032,217.60001 z"
       id="text64"
       style="font-size:60px;fill:#000000;stroke-linecap:round;font-family:Helvetica" />
    <path
       d="M 555.89532,65.501175 L 561.25665,65.032425 C 561.51055,67.180875 562.10137,68.943568 563.02911,70.320511 C 563.95684,71.697472 565.39727,72.810752 567.3504,73.660355 C 569.30351,74.509969 571.50078,74.934773 573.9422,74.934769 C 576.11015,74.934773 578.02421,74.612508 579.68439,73.967972 C 581.34452,73.323447 582.57987,72.439658 583.39044,71.316605 C 584.20096,70.193567 584.60623,68.967982 584.60626,67.639847 C 584.60623,66.292204 584.21561,65.115447 583.43439,64.109573 C 582.65311,63.10373 581.36405,62.259004 579.5672,61.575394 C 578.41483,61.126193 575.86601,60.427952 571.92072,59.480667 C 567.97539,58.533422 565.21172,57.639868 563.6297,56.800003 C 561.57891,55.725808 560.05059,54.392801 559.04474,52.80098 C 558.03887,51.209211 557.53595,49.426986 557.53595,47.4543 C 557.53595,45.286365 558.15118,43.26 559.38165,41.375198 C 560.61211,39.490473 562.40899,38.05981 564.77228,37.083206 C 567.13555,36.106687 569.7625,35.618406 572.65314,35.618362 C 575.83671,35.618406 578.64432,36.131101 581.07599,37.156448 C 583.5076,38.18188 585.37771,39.690668 586.68634,41.682816 C 587.9949,43.675039 588.69802,45.930896 588.79572,48.450394 L 583.3465,48.86055 C 583.0535,46.145739 582.06229,44.09496 580.37286,42.708206 C 578.68339,41.321525 576.18827,40.628167 572.88751,40.628128 C 569.45,40.628167 566.94512,41.258049 565.37286,42.517776 C 563.80059,43.777578 563.01446,45.296131 563.01447,47.073441 C 563.01446,48.61644 563.5711,49.88597 564.68439,50.882034 C 565.77812,51.878155 568.63457,52.898662 573.25372,53.943558 C 577.87284,54.988504 581.04178,55.901589 582.76056,56.682816 C 585.26053,57.835181 587.10623,59.29514 588.29767,61.062698 C 589.48904,62.830293 590.08474,64.866424 590.08478,67.171097 C 590.08474,69.456263 589.43044,71.609581 588.12189,73.631058 C 586.81326,75.652546 584.93338,77.22481 582.48224,78.347855 C 580.03104,79.470901 577.27225,80.032424 574.20587,80.032425 C 570.31914,80.032424 567.0623,79.466019 564.43536,78.333206 C 561.8084,77.200396 559.74786,75.496296 558.25372,73.220901 C 556.75958,70.945519 555.97345,68.37228 555.89532,65.501175 L 555.89532,65.501175 z"
       id="text68"
       style="font-size:60px;fill:#000000;stroke-linecap:round;font-family:Helvetica" />
    <path
       d="M 880.1004,235.58203 C 880.1004,228.45315 882.01446,222.8721 885.84259,218.83887 C 889.6707,214.80571 894.6121,212.78911 900.66681,212.78906 C 904.63163,212.78911 908.20584,213.73637 911.38947,215.63086 C 914.57302,217.52543 916.99978,220.16703 918.66974,223.55566 C 920.33962,226.94437 921.17458,230.78714 921.17462,235.08398 C 921.17458,239.43947 920.29567,243.33595 918.5379,246.77344 C 916.78005,250.21094 914.28982,252.81348 911.0672,254.58105 C 907.84451,256.34863 904.36795,257.23242 900.63751,257.23242 C 896.59452,257.23242 892.98125,256.25586 889.79767,254.30273 C 886.61407,252.34961 884.20196,249.6836 882.56134,246.30469 C 880.92071,242.92579 880.1004,239.35158 880.1004,235.58203 L 880.1004,235.58203 z M 885.95978,235.66992 C 885.95977,240.84572 887.35137,244.92286 890.13458,247.90137 C 892.91777,250.87989 896.40898,252.36914 900.60822,252.36914 C 904.88553,252.36914 908.40604,250.86524 911.16974,247.85742 C 913.93337,244.84962 915.31521,240.58205 915.31525,235.05469 C 915.31521,231.55862 914.72439,228.50686 913.54279,225.89941 C 912.36111,223.29203 910.6326,221.27054 908.35724,219.83496 C 906.08182,218.39945 903.52811,217.68168 900.69611,217.68164 C 896.67265,217.68168 893.21074,219.06351 890.31036,221.82715 C 887.40996,224.59085 885.95977,229.20511 885.95978,235.66992 L 885.95978,235.66992 z M 928.64532,256.5 L 928.64532,213.55078 L 934.32892,213.55078 L 934.32892,231.1875 L 956.65314,231.1875 L 956.65314,213.55078 L 962.33673,213.55078 L 962.33673,256.5 L 956.65314,256.5 L 956.65314,236.25586 L 934.32892,236.25586 L 934.32892,256.5 L 928.64532,256.5 z"
       id="text70"
       style="font-size:60px;fill:#000000;stroke-linecap:round;font-family:Helvetica" />
    <path
       d="M 575.39918,234.54036 L 532.10182,223.90592"
       id="path2227"
       style="fill:none;fill-opacity:0.75;fill-rule:evenodd;stroke:#000000;stroke-width:4;stroke-linecap:round;stroke-linejoin:miter;stroke-miterlimit:4;stroke-dasharray:none;stroke-opacity:1" />
    <path
       d="M 472.42392,247.03401 L 472.42392,237.61214 L 463.07236,237.61214 L 463.07236,233.67464 L 472.42392,233.67464 L 472.42392,224.32307 L 476.40829,224.32307 L 476.40829,233.67464 L 485.75986,233.67464 L 485.75986,237.61214 L 476.40829,237.61214 L 476.40829,247.03401 L 472.42392,247.03401 z"
       id="text4225"
       style="font-size:48px;font-style:normal;font-weight:normal;fill:#000000;fill-opacity:1;stroke:none;stroke-width:1px;stroke-linecap:butt;stroke-linejoin:miter;stroke-opacity:1;font-family:Bitstream Vera Sans" />
    <path
       d="M 472.59106,71.092194 L 472.59106,75.146881 L 449.88013,75.146881 C 449.84888,74.131257 450.01294,73.154696 450.37231,72.217194 C 450.95044,70.670323 451.87622,69.146887 453.14966,67.646881 C 454.42309,66.14689 456.26293,64.412517 458.66919,62.443756 C 462.40355,59.381272 464.92699,56.955493 466.2395,55.166412 C 467.55198,53.377372 468.20823,51.685967 468.20825,50.092194 C 468.20823,48.420345 467.61058,47.01019 466.41528,45.861725 C 465.21995,44.713318 463.66136,44.1391 461.7395,44.139069 C 459.70824,44.1391 458.08324,44.748474 456.8645,45.967194 C 455.64574,47.185972 455.02856,48.87347 455.01294,51.029694 L 450.677,50.584381 C 450.97387,47.350034 452.09106,44.885193 454.02856,43.18985 C 455.96606,41.494571 458.56762,40.646916 461.83325,40.646881 C 465.13011,40.646916 467.73948,41.560977 469.66138,43.389069 C 471.58323,45.217224 472.54417,47.482846 472.54419,50.185944 C 472.54417,51.560967 472.26292,52.912528 471.70044,54.240631 C 471.13792,55.568776 470.20432,56.967212 468.89966,58.435944 C 467.59495,59.904709 465.42698,61.920332 462.39575,64.482819 C 459.86449,66.607827 458.23949,68.049232 457.52075,68.807037 C 456.80199,69.564855 456.20824,70.326573 455.7395,71.092194 L 472.59106,71.092194 z"
       id="text4229"
       style="font-size:48px;font-style:normal;font-weight:normal;fill:#000000;fill-opacity:1;stroke:none;stroke-width:1px;stroke-linecap:butt;stroke-linejoin:miter;stroke-opacity:1;font-family:Bitstream Vera Sans" />
    <path
       d="M 543.39918,226.54036 L 500.10182,215.90592"
       id="path2416"
       style="fill:none;fill-opacity:0.75;fill-rule:evenodd;stroke:#000000;stroke-width:4;stroke-linecap:round;stroke-linejoin:miter;stroke-miterlimit:4;stroke-dasharray:none;stroke-opacity:1" />
  </g>
</svg>
