<?xml version="1.0" encoding="UTF-8" standalone="no"?>
<!-- Created with Inkscape (http://www.inkscape.org/) -->

<svg
   xmlns:dc="http://purl.org/dc/elements/1.1/"
   xmlns:cc="http://creativecommons.org/ns#"
   xmlns:rdf="http://www.w3.org/1999/02/22-rdf-syntax-ns#"
   xmlns:svg="http://www.w3.org/2000/svg"
   xmlns="http://www.w3.org/2000/svg"
   xmlns:sodipodi="http://sodipodi.sourceforge.net/DTD/sodipodi-0.dtd"
   xmlns:inkscape="http://www.inkscape.org/namespaces/inkscape"
   id="svg2"
   version="1.1"
   inkscape:version="0.91 r13725"
   xml:space="preserve"
   width="1477.7875"
   height="2047.225"
   viewBox="0 0 1477.7875 2047.225"
   sodipodi:docname="Brainwashing Machine Final.svg"><metadata
     id="metadata8"><rdf:RDF><cc:Work
         rdf:about=""><dc:format>image/svg+xml</dc:format><dc:type
           rdf:resource="http://purl.org/dc/dcmitype/StillImage" /><dc:title></dc:title></cc:Work></rdf:RDF></metadata><defs
     id="defs6"><clipPath
       clipPathUnits="userSpaceOnUse"
       id="clipPath18"><path
         d="m 0,1637.777 1182.228,0 L 1182.228,0 0,0 0,1637.777 Z"
         id="path20"
         inkscape:connector-curvature="0" /></clipPath></defs><sodipodi:namedview
     pagecolor="#ffffff"
     bordercolor="#666666"
     borderopacity="1"
     objecttolerance="10"
     gridtolerance="10"
     guidetolerance="10"
     inkscape:pageopacity="0"
     inkscape:pageshadow="2"
     inkscape:window-width="640"
     inkscape:window-height="480"
     id="namedview4"
     showgrid="false"
     inkscape:zoom="0.42594244"
     inkscape:cx="-41.658285"
     inkscape:cy="939.09403"
     inkscape:current-layer="g10" /><g
     id="g10"
     inkscape:groupmode="layer"
     inkscape:label="Brainwashing Machine"
     transform="matrix(1.25,0,0,-1.25,0,2047.225)"><path
       d="m 24.123,1310.64 1133.981,0 0,-1277.221 -1133.981,0 0,1277.221 z"
       style="fill:#000000;fill-opacity:1;fill-rule:nonzero;stroke:none"
       id="path12"
       inkscape:connector-curvature="0" /><g
       id="g14"><g
         id="g16"
         clip-path="url(#clipPath18)"><g
           id="g22"
           transform="translate(63.9123,1604.3577)"><path
             d="m 0,0 1054.404,0 c 21.974,0 39.789,-17.814 39.789,-39.789 l 0,-190.986 c 0,-21.975 -17.815,-39.789 -39.789,-39.789 L 0,-270.564 c -21.975,0 -39.789,17.814 -39.789,39.789 l 0,190.986 C -39.789,-17.814 -21.975,0 0,0"
             style="fill:#000000;fill-opacity:1;fill-rule:nonzero;stroke:none"
             id="path24"
             inkscape:connector-curvature="0" /></g><g
           id="g26"
           transform="translate(101.7117,1565.2886)"><path
             d="m 0,0 258.627,0 c 16.481,0 29.842,-13.361 29.842,-29.842 l 0,-123.345 c 0,-16.481 -13.361,-29.841 -29.842,-29.841 l -258.627,0 c -16.481,0 -29.842,13.36 -29.842,29.841 l 0,123.345 C -29.842,-13.361 -16.481,0 0,0"
             style="fill:#ffffff;fill-opacity:1;fill-rule:nonzero;stroke:none"
             id="path28"
             inkscape:connector-curvature="0" /></g><g
           id="g30"
           transform="translate(719.7333,1469.4963)"><path
             d="m 0,0 c 0,-27.192 -22.044,-49.236 -49.236,-49.236 -27.193,0 -49.236,22.044 -49.236,49.236 0,27.192 22.043,49.236 49.236,49.236 C -22.044,49.236 0,27.192 0,0"
             style="fill:#ffffff;fill-opacity:1;fill-rule:nonzero;stroke:none"
             id="path32"
             inkscape:connector-curvature="0" /></g><g
           id="g34"
           transform="translate(873.0411,1471.9302)"><path
             d="m 0,0 c 0,-27.192 -22.044,-49.236 -49.236,-49.236 -27.193,0 -49.236,22.044 -49.236,49.236 0,27.193 22.043,49.236 49.236,49.236 C -22.044,49.236 0,27.193 0,0"
             style="fill:#ffffff;fill-opacity:1;fill-rule:nonzero;stroke:none"
             id="path36"
             inkscape:connector-curvature="0" /></g><g
           id="g38"
           transform="translate(1046.6553,1541.9617)"><path
             d="m 0,0 -14.97,-14.97 c -26.812,18.127 -63.475,15.382 -87.213,-8.356 -23.738,-23.738 -26.571,-60.487 -8.442,-87.299 l -13.143,-13.143 17.669,-17.669 13.055,13.056 c 26.899,-18.958 64.281,-16.491 88.344,7.572 24.066,24.066 26.537,61.444 7.572,88.344 L 17.669,-17.669 0,0 Z"
             style="fill:#ffffff;fill-opacity:1;fill-rule:nonzero;stroke:none"
             id="path40"
             inkscape:connector-curvature="0" /></g><g
           id="g42"
           transform="translate(967.1185,779.4595)"><path
             d="m 0,0 c 0,-207.661 -168.343,-376.004 -376.004,-376.004 -207.662,0 -376.005,168.342 -376.005,376.004 0,207.661 168.343,376.004 376.005,376.004 C -168.343,376.004 0,207.661 0,0 Z"
             style="fill:#ffffff;fill-opacity:1;fill-rule:nonzero;stroke:none"
             id="path44"
             inkscape:connector-curvature="0" /></g><g
           id="g46"
           transform="translate(803.0502,292.6925)"><path
             d="m 0,0 258.627,0 c 16.481,0 29.842,-13.361 29.842,-29.842 l 0,-123.345 c 0,-16.481 -13.361,-29.842 -29.842,-29.842 l -258.627,0 c -16.481,0 -29.842,13.361 -29.842,29.842 l 0,123.345 C -29.842,-13.361 -16.481,0 0,0"
             style="fill:#ffffff;fill-opacity:1;fill-rule:nonzero;stroke:none"
             id="path48"
             inkscape:connector-curvature="0" /></g><g
           id="g50"
           transform="translate(551.7733,1032.6639)"><path
             d="m 0,0 c -12.466,-10.482 -29.003,-17.148 -45.489,-13.993 -9.516,2.188 -17.911,9.872 -28.088,8.294 -8.192,-13.484 12.212,-17.3 20.659,-22.185 1.475,-15.468 -4.733,-30.072 -16.334,-40.198 -10.634,12.212 -26.001,18.217 -41.877,19.336 -1.577,-2.239 -4.732,-6.716 -6.309,-8.955 9.108,-9.465 26.408,-7.277 32.463,-19.743 -20.251,-3.714 -39.078,-13.433 -51.544,-30.123 0.712,-2.9 2.086,-8.752 2.798,-11.652 12.365,1.425 16.334,15.112 27.121,19.336 19.386,7.886 42.436,12.262 55.717,30.071 9.464,11.246 11.143,26.205 15.265,39.74 16.791,0.102 32.005,7.531 45.082,17.555 6.31,-6.259 12.874,-12.263 19.641,-18.115 -4.121,-10.38 -6.716,-21.269 -7.734,-32.412 -12.416,-6.564 -44.116,-6.615 -35.262,-27.426 12.161,4.885 23.915,11.143 37.246,12.466 7.684,-14.858 15.723,-33.888 35.161,-35.109 -0.407,3.256 -1.12,9.82 -1.527,13.128 -17.86,15.57 -25.543,41.571 -13.789,63.146 17.809,-2.239 35.72,-1.12 53.58,-0.764 15.57,-7.785 27.731,-20.607 32.565,-37.602 -14.095,-2.951 -41.114,-1.425 -41.979,-20.76 13.077,-7.379 27.833,8.751 42.691,5.342 -0.865,-20.862 -20.607,-31.242 -30.58,-47.321 -11.551,-17.555 -9.261,-40.096 -4.376,-59.533 3.918,-0.458 11.703,-1.272 15.57,-1.73 -2.188,16.638 -7.327,34.499 0.203,50.527 6.055,9.667 14.502,17.503 21.778,26.255 15.723,-2.493 24.729,-19.284 40.656,-19.641 4.274,19.489 -17.911,25.951 -30.988,33.583 3.511,16.893 3.002,34.448 -2.951,50.731 13.179,8.497 31.089,16.333 30.784,34.804 -16.639,-0.102 -23.864,-17.708 -38.01,-23.763 -14.094,16.894 -36.127,22.389 -56.836,26.307 4.122,13.738 9.871,26.968 15.468,40.147 C 86.908,19.59 79.174,19.285 75.256,19.081 67.776,5.75 64.316,-9.312 61.619,-24.22 44.014,-22.745 26.714,-13.179 18.827,3.053 14.705,10.482 14.858,21.931 4.325,23.406 -2.799,17.351 0,8.09 0,0 m -14.603,52.868 c 22.185,16.13 51.392,19.793 75.968,6.513 23.712,7.276 51.646,4.325 68.896,-14.96 9.566,-12.67 27.528,-11.907 38.824,-22.389 17.605,-12.11 23.151,-34.193 24.627,-54.343 11.449,-13.687 20.201,-30.733 19.794,-48.949 -4.834,-16.588 -11.602,-32.616 -13.281,-49.967 -3.358,-25.442 -30.275,-35.67 -40.198,-57.447 12.619,4.477 24.323,10.939 35.059,18.979 28.647,-26.968 71.083,-35.059 108.533,-24.678 16.588,4.834 30.734,15.061 45.388,23.762 18.878,-70.931 13.891,-148.426 -16.588,-215.439 -35.872,-80.344 -105.989,-144.661 -189.387,-173.002 -65.435,-22.186 -138.3,-23.102 -203.939,-1.273 -83.448,27.375 -154.837,90.369 -190.964,170.51 -33.329,69.557 -37.654,151.326 -16.588,225.107 15.265,-11.398 30.733,-23.661 49.356,-29.055 36.331,-10.583 77.546,-3.46 106.601,21.422 21.32,-14.909 45.947,-27.121 72.661,-25.645 29.664,-2.697 56.989,11.194 80.293,27.986 9.159,-8.956 19.845,-16.436 32.616,-19.031 -5.393,15.621 -13.586,31.446 -28.393,39.995 -14.501,7.123 -30.071,11.601 -44.319,19.233 -15.672,-8.039 -31.751,-20.098 -50.476,-15.977 -9.769,0.712 -20.76,6.666 -29.156,-1.272 -12.059,-9.312 -27.375,-12.059 -42.284,-10.279 -37.857,3.257 -66.453,48.034 -51.341,83.398 4.682,12.772 13.942,22.999 24.271,31.497 2.392,30.682 26.46,54.801 56.175,60.449 15.469,27.68 46.915,41.011 77.852,34.855"
             style="fill:#000001;fill-opacity:1;fill-rule:nonzero;stroke:none"
             id="path52"
             inkscape:connector-curvature="0" /></g></g></g></g></svg>