<?xml version="1.0" encoding="UTF-8" standalone="no"?>
<!-- Created with Inkscape (http://www.inkscape.org/) -->

<svg
   xmlns:dc="http://purl.org/dc/elements/1.1/"
   xmlns:cc="http://creativecommons.org/ns#"
   xmlns:rdf="http://www.w3.org/1999/02/22-rdf-syntax-ns#"
   xmlns:svg="http://www.w3.org/2000/svg"
   xmlns="http://www.w3.org/2000/svg"
   xmlns:sodipodi="http://sodipodi.sourceforge.net/DTD/sodipodi-0.dtd"
   xmlns:inkscape="http://www.inkscape.org/namespaces/inkscape"
   id="svg1"
   sodipodi:docname="danger-brainwashing.svg"
   viewBox="0 0 753.36 668.64"
   sodipodi:version="0.32"
   version="1.1"
   inkscape:version="0.91 r13725"
   inkscape:export-filename="F:\_GRAFIKA\Brainwashing\danger-brainwashing.png"
   inkscape:export-xdpi="178"
   inkscape:export-ydpi="178">
  <title
     id="title4210">Danger - brainwashing</title>
  <defs
     id="defs15" />
  <sodipodi:namedview
     id="base"
     bordercolor="#666666"
     inkscape:pageshadow="2"
     inkscape:window-width="2560"
     fit-margin-left="20"
     fit-margin-right="20"
     pagecolor="#ffffff"
     fit-margin-top="20"
     inkscape:window-maximized="1"
     inkscape:zoom="0.71241259"
     inkscape:window-x="-9"
     showgrid="false"
     borderopacity="1.0"
     inkscape:current-layer="layer1"
     inkscape:cx="451.28972"
     inkscape:cy="-14.387507"
     inkscape:window-y="-9"
     fit-margin-bottom="20"
     inkscape:window-height="1369"
     inkscape:pageopacity="0.0" />
  <g
     id="layer1"
     inkscape:label="Layer 1"
     inkscape:groupmode="layer"
     transform="translate(8.5833 -45.091)">
    <g
       id="g4195">
      <g
         id="g2119">
        <path
           inkscape:radius="-0.56398124"
           transform="matrix(.80662 0 0 .80662 133.19 123.15)"
           inkscape:original="M 291.31250 -66.250000 C 280.25379 -65.706287 270.22703 -59.586667 264.68750 -50.000000 C 129.47917 184.20833 -5.7291671 418.41667 -140.93750 652.62500 C -146.76339 662.70968 -146.75810 675.13101 -140.93750 685.21875 C -135.11691 695.30650 -124.36529 701.52810 -112.71875 701.53125 C 156.57292 701.58333 425.86458 701.63542 695.15625 701.68750 C 706.77537 701.68103 717.51606 695.48946 723.34375 685.43750 C 729.17146 675.38555 729.20513 662.99280 723.43750 652.90625 C 589.35417 418.64583 455.27083 184.38542 321.18750 -49.875000 C 315.10044 -60.516625 303.55768 -66.843410 291.31250 -66.250000 z "
           d="m291.34-65.688c-10.868 0.53434-20.712 6.5473-26.156 15.969l-405.62 702.62c-5.7255 9.9109-5.7205 22.117 0 32.031 5.7205 9.9143 16.273 16.028 27.719 16.031l807.88 0.15625c11.419-0.006 21.96-6.09 27.688-15.969 5.7273-9.8788 5.7621-22.056 0.0937-31.969l-402.25-702.77c-5.98-10.462-17.31-16.681-29.35-16.098z"
           sodipodi:type="inkscape:offset"
           style="stroke:#000000;stroke-linecap:round;stroke-width:12.5;fill:none"
           id="path1825" />
        <path
           inkscape:radius="-1.3749481"
           transform="matrix(.80662 0 0 .80662 133.19 123.15)"
           inkscape:original="M 292.84375 -34.406250 C 292.55766 -34.384962 292.41873 -34.300416 292.28125 -34.062500 C 157.07292 200.14583 21.864583 434.35417 -113.34375 668.56250 C -113.50493 668.84151 -113.51690 668.98116 -113.34375 669.28125 C -113.16085 669.59824 -113.03490 669.65616 -112.71875 669.65625 C 156.57292 669.70833 425.86458 669.76042 695.15625 669.81250 C 695.49264 669.81231 695.57989 669.76217 695.75000 669.46875 C 695.91472 669.18463 695.92457 668.96940 695.78125 668.71875 C 561.69842 434.45921 427.61508 200.23005 293.53125 -34.031250 C 293.36499 -34.321919 293.19028 -34.413549 292.87500 -34.406250 C 292.86355 -34.405985 292.85557 -34.406809 292.84375 -34.406250 z "
           d="m292.91-32.375-404.5 700.66 805.62 0.15625c-133.71-233.61-267.41-467.2-401.12-700.82z"
           sodipodi:type="inkscape:offset"
           style="stroke-linejoin:round;fill-rule:evenodd;stroke:#000000;stroke-linecap:round;stroke-width:29.444;fill:#ffcc00"
           id="path1937" />
      </g>
      <g
         transform="matrix(-1.0913828,0,0,1.0913828,1200.1015,59.83582)"
         inkscape:label="Calque 1"
         id="layer1-1">
        <g
           transform="translate(-2.2181,0)"
           id="g4115">
          <path
             sodipodi:nodetypes="ccccccccccccccccccccccsccccscccccscccc"
             d="m 753.45746,163.6 c -5.8528,0 -10.627,4.1707 -11.156,9.5 -5.7136,-3.3879 -19.944,-11.048 -27.656,-7.875 -8.6064,3.5408 -8.9032,14.924 0,18.875 7.6988,3.4169 22.194,-4.5452 27.812,-7.9375 0.60211,2.7862 2.3832,5.1473 4.8438,6.6562 l -0.8125,0 0,8.7812 -8.3125,0 0,23 c 0.21589,6.2395 -1.6133,10.566 -8.5938,10.5 l -29.688,-0.28125 0,-4.0938 -22.5,0 0,3.95504 -34.37698,-0.34104 -17.91609,37.96931 52.29307,0.11369 0,3.303 22.5,0 0,-3.0625 23.844,0 c 10.344,5.669 13.97,13.25 31.594,13.25 19.236,0 21.109,-13.215 31.281,-12.906 10.726,0.32534 19.274,10.524 20.125,26.188 l 30.625,0 c 0.12505,-43.8 -29.182,-61.669 -58.219,-64.094 -8.3791,-0.69961 -10.188,-5.6258 -10.188,-10.5 l 0,-23.031 -8.5625,0 0,-8.75 -0.75,0 c 2.4605,-1.509 4.2416,-3.8701 4.8438,-6.6562 5.6189,3.3923 20.114,11.354 27.812,7.9375 8.9032,-3.9514 8.6064,-15.334 0,-18.875 -7.712,-3.1729 -21.943,4.4871 -27.656,7.875 -0.52911,-5.3293 -5.3348,-9.5 -11.188,-9.5 z"
             inkscape:connector-curvature="0"
             style="color:#000000;fill:#000000;stroke:#000000;stroke-width:0.79977;stroke-linecap:round;stroke-linejoin:round"
             id="rect2904" />
        </g>
      </g>
      <g
         id="g10"
         inkscape:label="Television Brainwashing"
         transform="matrix(0.5876137,0,0,-0.5876137,-689.85867,766.80565)">
        <path
           inkscape:connector-curvature="0"
           id="path26"
           style="fill:#000001;fill-opacity:1;fill-rule:nonzero;stroke:none"
           d="m 1886.9182,299.54098 c -16.49,0.369 -25.815,17.755 -42.095,20.336 -7.534,-9.062 -16.28,-17.175 -22.549,-27.185 -7.798,-16.596 -2.476,-35.088 -0.211,-52.316 -4.004,0.474 -12.065,1.317 -16.121,1.791 -5.058,20.126 -7.429,43.465 4.53,61.641 10.327,16.649 30.768,27.396 31.664,48.997 -15.384,3.53 -30.663,-13.171 -44.203,-5.532 0.896,20.021 28.872,18.44 43.465,21.496 -5.005,17.596 -17.596,30.873 -33.718,38.934 -18.492,-0.369 -37.037,-1.528 -55.477,0.79 -12.17,-22.338 -4.215,-49.26 14.278,-65.382 0.421,-3.424 1.159,-10.221 1.58,-13.592 -20.125,1.264 -28.45,20.968 -36.405,36.352 -13.803,-1.37 -25.973,-7.85 -38.565,-12.908 -9.167,21.548 23.655,21.601 36.51,28.397 1.054,11.538 3.741,22.813 8.008,33.561 -7.007,6.058 -13.803,12.275 -20.336,18.755 -13.54,-10.379 -29.293,-18.071 -46.679,-18.176 -4.267,-14.014 -6.006,-29.503 -15.805,-41.147 -13.751,-18.439 -37.617,-22.97 -57.69,-31.136 -11.169,-4.373 -15.278,-18.545 -28.081,-20.021 -0.737,3.003 -2.16,9.062 -2.897,12.065 12.907,17.281 32.401,27.344 53.369,31.19 -6.269,12.907 -24.182,10.642 -33.613,20.441 1.634,2.318 4.9,6.955 6.533,9.273 16.438,-1.159 32.349,-7.376 43.36,-20.02 12.012,10.484 18.44,25.604 16.912,41.621 -8.746,5.057 -29.873,9.009 -21.39,22.97 10.537,1.633 19.23,-6.322 29.082,-8.588 17.07,-3.266 34.192,3.636 47.1,14.489 0,8.377 -2.898,17.965 4.478,24.235 10.906,-1.528 10.748,-13.382 15.015,-21.074 8.166,-16.807 26.079,-26.711 44.308,-28.239 2.792,15.436 6.375,31.031 14.12,44.835 4.056,0.21 12.064,0.526 16.068,0.684 -5.795,-13.645 -11.748,-27.343 -16.016,-41.568 21.443,-4.057 44.255,-9.746 58.849,-27.238 14.646,6.27 22.128,24.499 39.356,24.604 0.316,-19.125 -18.229,-27.238 -31.875,-36.036 6.164,-16.86 6.691,-35.036 3.056,-52.527 13.54,-7.903 36.511,-14.594 32.085,-34.772 m -97.956,-65.4 c 21.374,-11.511 47.159,-7.833 69.317,2.394 5.616,2.808 12.71,5.409 15,11.405 0.369,0.967 0,2.524 0,3.384 -0.038,-0.014 -0.074,-0.029 -0.112,-0.042 10.274,22.549 38.144,33.138 41.621,59.481 1.739,17.965 8.746,34.561 13.751,51.736 0.421,18.861 -8.64,36.511 -20.494,50.683 -1.528,20.863 -7.271,43.728 -25.5,56.267 -11.696,10.853 -30.294,10.063 -40.198,23.182 -17.86,19.967 -46.784,23.023 -71.335,15.489 -25.447,13.751 -55.688,9.957 -78.659,-6.744 -32.032,6.375 -64.591,-7.428 -80.607,-36.089 -30.768,-5.848 -55.688,-30.82 -58.164,-62.589 -10.695,-8.799 -20.284,-19.388 -25.131,-32.612 -15.647,-36.616 13.962,-82.979 53.159,-86.35 15.437,-1.844 31.295,1.001 43.781,10.642 8.693,8.219 20.073,2.055 30.188,1.317 19.388,-4.267 36.037,8.219 52.264,16.543 14.751,-7.903 30.873,-12.539 45.888,-19.915 15.331,-8.851 23.813,-25.236 29.398,-41.41" />
      </g>
      <path
         inkscape:connector-curvature="0"
         id="path4185"
         d="M 291.15261,378.7446 248.96914,483.45887"
         style="fill:none;fill-rule:evenodd;stroke:#000000;stroke-width:5;stroke-linecap:butt;stroke-linejoin:miter;stroke-miterlimit:4;stroke-dasharray:none;stroke-opacity:1" />
      <path
         sodipodi:nodetypes="cc"
         style="fill:none;fill-rule:evenodd;stroke:#000000;stroke-width:5;stroke-linecap:butt;stroke-linejoin:miter;stroke-miterlimit:4;stroke-dasharray:none;stroke-opacity:1"
         d="m 299.04709,378.7446 -17.87538,90.46761"
         id="path4187"
         inkscape:connector-curvature="0" />
      <path
         inkscape:connector-curvature="0"
         id="path4189"
         d="m 307.04586,378.7446 -6.25546,87.3446"
         style="fill:none;fill-rule:evenodd;stroke:#000000;stroke-width:5;stroke-linecap:butt;stroke-linejoin:miter;stroke-miterlimit:4;stroke-dasharray:none;stroke-opacity:1"
         sodipodi:nodetypes="cc" />
      <path
         sodipodi:nodetypes="cc"
         style="fill:none;fill-rule:evenodd;stroke:#000000;stroke-width:5;stroke-linecap:butt;stroke-linejoin:miter;stroke-miterlimit:4;stroke-dasharray:none;stroke-opacity:1"
         d="m 315.04586,378.7446 8.30773,82.43172"
         id="path4191"
         inkscape:connector-curvature="0" />
      <path
         inkscape:connector-curvature="0"
         id="path4193"
         d="m 323.04586,378.7446 30.94209,84.18632"
         style="fill:none;fill-rule:evenodd;stroke:#000000;stroke-width:5;stroke-linecap:butt;stroke-linejoin:miter;stroke-miterlimit:4;stroke-dasharray:none;stroke-opacity:1"
         sodipodi:nodetypes="cc" />
    </g>
  </g>
  <metadata
     id="metadata13">
    <rdf:RDF>
      <cc:Work>
        <dc:format>image/svg+xml</dc:format>
        <dc:type
           rdf:resource="http://purl.org/dc/dcmitype/StillImage" />
        <cc:license
           rdf:resource="http://creativecommons.org/publicdomain/zero/1.0/" />
        <dc:publisher>
          <cc:Agent
             rdf:about="http://openclipart.org/">
            <dc:title>Openclipart</dc:title>
          </cc:Agent>
        </dc:publisher>
        <dc:title>Danger - brainwashing</dc:title>
        <dc:date>2017-02-07</dc:date>
        <dc:description>warning sign of brainwashing with human brain under water faucet</dc:description>
        <dc:source></dc:source>
        <dc:creator>
          <cc:Agent>
            <dc:title>Jan Helebrant</dc:title>
          </cc:Agent>
        </dc:creator>
        <dc:subject>
          <rdf:Bag>
            <rdf:li>danger</rdf:li>
            <rdf:li>faucet</rdf:li>
            <rdf:li>water</rdf:li>
            <rdf:li>brain</rdf:li>
            <rdf:li>symbol</rdf:li>
            <rdf:li>warning</rdf:li>
            <rdf:li>sign</rdf:li>
            <rdf:li>brainwash</rdf:li>
            <rdf:li>brainwashing</rdf:li>
            <rdf:li>remix+218970</rdf:li>
            <rdf:li>remix+105637</rdf:li>
          </rdf:Bag>
        </dc:subject>
      </cc:Work>
      <cc:License
         rdf:about="http://creativecommons.org/publicdomain/zero/1.0/">
        <cc:permits
           rdf:resource="http://creativecommons.org/ns#Reproduction" />
        <cc:permits
           rdf:resource="http://creativecommons.org/ns#Distribution" />
        <cc:permits
           rdf:resource="http://creativecommons.org/ns#DerivativeWorks" />
      </cc:License>
    </rdf:RDF>
  </metadata>
</svg>
