<?xml version="1.0" encoding="UTF-8" ?>
<!DOCTYPE svg PUBLIC "-//W3C//DTD SVG 1.1//EN" "http://www.w3.org/Graphics/SVG/1.1/DTD/svg11.dtd">
<svg width="653pt" height="567pt" viewBox="0 0 653 567" version="1.1" xmlns="http://www.w3.org/2000/svg">
<path fill="#000000" opacity="1.00" d=" M 326.05 0.00 L 326.95 0.00 C 335.26 17.70 337.39 39.44 354.62 51.38 C 369.44 66.85 379.05 87.20 379.73 108.76 C 401.34 128.73 422.17 155.12 425.53 185.61 C 422.81 196.03 433.78 199.61 439.46 205.55 C 454.59 221.09 467.72 240.60 468.53 262.95 C 468.26 278.07 461.70 292.23 453.52 304.66 C 469.17 302.38 486.01 304.82 499.40 313.59 C 521.40 329.37 531.48 356.59 534.63 382.54 C 564.10 399.68 578.58 434.02 586.10 465.80 C 608.80 479.85 622.16 505.09 626.68 530.86 C 634.34 542.56 643.38 553.97 653.00 564.31 L 653.00 566.05 C 628.18 560.02 603.81 558.66 579.45 567.00 L 560.69 567.00 C 550.70 564.91 541.28 561.12 532.00 557.05 C 501.05 567.91 464.70 570.90 434.91 555.03 C 409.86 564.35 379.80 571.03 355.16 556.87 C 341.08 549.61 332.54 534.38 326.13 521.47 C 319.48 540.47 304.35 557.49 284.29 562.39 C 262.11 568.58 238.94 563.00 218.09 555.02 C 191.03 569.37 158.57 568.06 129.70 560.27 C 117.09 552.27 105.42 566.95 92.28 567.00 L 73.44 567.00 C 49.03 560.45 24.70 558.71 0.00 566.06 L 0.00 564.32 C 9.60 553.96 18.67 542.57 26.32 530.86 C 30.84 505.09 44.20 479.85 66.90 465.80 C 74.42 434.02 88.90 399.68 118.37 382.54 C 121.52 356.59 131.60 329.37 153.60 313.59 C 166.99 304.82 183.83 302.38 199.48 304.66 C 191.30 292.23 184.74 278.07 184.47 262.95 C 185.28 240.60 198.41 221.09 213.54 205.55 C 219.22 199.61 230.19 196.03 227.47 185.61 C 230.83 155.12 251.66 128.73 273.27 108.76 C 273.95 87.20 283.56 66.85 298.38 51.38 C 315.61 39.44 317.74 17.70 326.05 0.00 M 326.11 13.05 C 316.34 38.41 307.99 64.27 304.31 91.45 C 323.43 81.31 314.23 52.53 326.89 38.01 C 331.95 51.70 336.00 65.90 338.12 80.36 C 339.03 85.91 344.43 88.61 348.64 91.46 C 344.57 64.39 337.37 37.60 326.11 13.05 M 308.06 49.38 C 284.70 69.26 267.88 108.26 289.01 135.40 C 294.40 142.21 294.15 129.91 293.36 126.47 C 282.17 107.56 287.82 83.52 301.83 67.78 C 305.87 63.03 307.78 53.32 308.06 49.38 M 344.01 49.06 C 346.87 55.42 346.59 63.09 351.61 68.35 C 365.34 83.98 370.81 107.85 359.57 126.43 C 358.96 129.93 358.51 142.19 363.99 135.40 C 385.33 108.06 367.94 68.18 344.01 49.06 M 326.21 53.33 C 324.62 61.22 320.95 70.54 320.73 77.53 C 325.17 73.56 328.26 75.01 332.88 77.51 C 330.59 69.63 329.33 60.21 326.21 53.33 M 302.48 74.53 C 297.80 80.13 293.05 90.26 294.51 96.84 C 301.57 94.23 300.63 79.35 302.48 74.53 M 349.86 74.24 C 353.55 81.12 350.97 93.81 358.49 96.84 C 359.76 90.21 355.35 79.29 349.86 74.24 M 325.48 81.42 C 316.41 89.78 305.96 96.13 295.38 102.31 C 288.97 104.12 293.46 112.69 293.84 117.01 C 301.58 108.40 312.96 104.36 321.00 96.02 C 323.12 93.82 326.54 90.12 329.35 93.57 C 337.99 103.03 350.34 107.88 359.16 117.02 C 359.50 112.68 364.05 104.13 357.62 102.31 C 346.27 96.42 335.58 87.47 325.48 81.42 M 326.18 97.53 C 323.79 101.62 319.58 103.80 315.96 106.59 C 312.77 114.82 314.28 124.06 312.40 132.62 C 315.47 137.34 323.51 141.62 326.16 134.33 C 330.59 143.52 345.44 134.02 339.56 125.05 C 341.42 112.87 335.86 103.47 326.18 97.53 M 308.39 111.35 C 293.11 118.91 300.61 139.35 297.45 152.84 C 296.46 162.66 307.04 152.90 306.12 147.96 C 304.88 136.42 310.34 120.09 308.39 111.35 M 343.13 111.23 C 345.47 124.38 347.01 137.66 347.24 151.08 C 349.41 153.25 351.44 157.71 354.68 157.52 C 357.33 145.40 353.23 132.81 353.44 120.52 C 352.17 116.03 347.52 112.25 343.13 111.23 M 273.65 116.21 C 247.82 138.59 222.88 175.53 236.38 210.51 C 243.37 232.82 268.21 243.74 289.20 248.74 C 294.81 252.81 295.37 241.56 290.44 241.86 C 272.19 240.34 254.01 229.94 245.48 213.47 C 230.19 182.97 248.47 146.81 273.39 127.34 C 278.32 125.33 276.10 119.25 273.65 116.21 M 379.08 116.10 C 377.19 119.54 374.54 125.25 379.61 127.34 C 399.89 143.00 413.45 167.42 413.43 193.15 C 411.62 218.69 389.41 240.05 363.90 241.60 C 358.04 240.18 357.32 252.55 363.80 248.73 C 382.93 244.55 403.39 235.12 413.71 217.71 C 432.84 181.46 407.43 139.66 379.08 116.10 M 277.55 130.56 C 261.16 143.40 247.72 162.97 245.56 183.92 C 261.61 177.94 277.81 171.06 291.97 161.11 C 295.33 149.28 285.86 136.84 277.55 130.56 M 374.36 130.36 C 367.65 139.60 355.93 147.89 360.95 161.08 C 375.15 171.01 391.36 177.94 407.44 183.92 C 405.18 162.98 391.38 141.67 374.36 130.36 M 310.74 139.31 C 307.88 148.90 318.30 149.68 324.81 149.86 C 331.84 149.78 344.73 150.42 342.58 139.72 C 332.82 145.73 320.29 146.62 310.74 139.31 M 313.93 153.50 C 294.40 167.25 273.79 180.49 250.54 187.32 C 243.30 187.66 243.78 195.20 246.33 199.65 C 271.27 184.07 301.57 176.30 323.40 155.71 C 321.16 154.37 316.97 153.66 313.93 153.50 M 336.25 153.74 C 334.22 154.76 330.86 154.15 329.60 155.71 C 351.49 175.91 382.27 185.20 407.06 199.19 C 408.34 195.42 410.11 189.48 404.75 188.10 C 383.34 181.88 363.95 170.87 345.86 158.04 C 343.19 155.95 340.05 152.27 336.25 153.74 M 326.18 159.50 C 322.55 163.31 319.05 167.93 313.53 168.89 C 307.89 172.93 310.95 180.29 310.16 186.07 C 320.87 182.52 332.02 182.65 342.76 186.05 C 342.27 180.29 345.01 171.99 338.87 168.67 C 333.22 167.96 330.37 162.09 326.18 159.50 M 302.61 177.46 C 294.03 178.65 298.00 187.95 296.19 193.79 C 304.06 193.93 309.35 180.68 302.61 177.46 M 349.07 177.32 C 344.14 183.65 349.44 192.75 356.82 193.78 C 355.30 187.58 358.68 177.38 349.07 177.32 M 289.35 184.33 C 275.60 191.31 260.05 195.22 247.91 205.27 C 253.20 223.16 271.38 234.34 289.10 236.50 C 296.02 234.42 287.31 229.38 284.67 227.29 C 275.48 217.36 284.34 206.43 290.38 198.04 C 289.17 193.80 294.52 184.71 289.35 184.33 M 362.18 184.30 C 355.92 199.67 381.30 212.01 368.33 227.29 C 365.69 229.38 356.97 234.42 363.90 236.50 C 380.40 234.41 397.33 224.79 403.83 208.78 C 404.56 206.64 406.86 203.54 402.19 202.96 C 389.89 194.76 375.60 189.61 362.18 184.30 M 317.99 189.66 C 303.79 193.13 280.18 207.53 289.42 224.34 C 291.74 227.53 295.21 222.96 295.75 220.42 C 303.69 214.65 316.44 207.11 324.22 216.99 C 327.42 225.68 319.40 233.09 311.46 234.88 C 309.84 239.90 314.12 245.47 318.87 240.88 C 325.96 232.16 332.47 242.80 339.98 242.37 C 347.83 231.78 326.54 233.09 328.31 222.12 C 328.44 205.55 353.90 212.87 358.81 223.64 C 363.46 229.09 366.41 219.29 366.61 215.58 C 359.34 197.47 337.87 185.06 317.99 189.66 M 226.31 201.21 C 204.46 218.61 183.48 246.37 192.10 275.88 C 195.19 293.88 208.50 310.49 226.00 315.99 C 245.77 323.69 267.86 326.91 285.98 339.00 C 295.46 343.07 301.21 352.45 310.05 356.88 C 300.75 331.86 295.94 303.18 276.07 283.94 C 265.35 272.28 246.17 261.03 231.23 271.57 C 225.28 276.46 226.92 292.18 237.28 288.21 C 245.30 285.04 249.13 297.13 241.80 300.80 C 224.94 311.07 203.73 296.12 200.16 278.92 C 189.49 253.98 207.00 226.95 226.46 211.49 C 230.52 209.56 231.18 201.62 226.31 201.21 M 425.20 201.19 C 422.39 204.03 422.61 208.72 426.02 211.00 C 441.59 223.59 455.24 241.40 456.02 262.10 C 458.07 283.95 436.99 312.80 412.47 301.62 C 400.55 295.04 411.54 283.24 421.06 288.36 C 434.59 276.44 413.48 261.80 401.32 268.43 C 363.97 280.11 352.39 325.32 343.72 356.76 C 366.72 333.49 399.35 324.29 429.91 315.30 C 444.50 308.39 456.87 295.34 460.02 279.10 C 470.75 248.98 449.34 216.74 425.20 201.19 M 231.49 214.29 C 210.46 228.39 194.65 256.64 206.14 281.58 C 210.40 294.16 229.21 304.65 239.00 294.31 C 224.62 297.97 216.45 276.80 226.88 267.96 C 235.05 258.87 248.15 260.28 258.27 264.54 C 295.25 280.12 307.12 323.64 315.84 359.69 C 318.83 365.28 326.13 373.12 319.75 378.49 C 305.21 373.69 289.71 383.45 274.63 385.21 C 247.60 392.02 216.00 392.46 193.36 373.66 C 182.64 366.61 176.22 350.13 184.67 339.63 C 192.55 332.05 207.68 331.93 211.04 343.87 C 214.11 333.38 202.59 323.15 193.06 321.34 C 160.98 316.78 138.39 349.33 137.27 378.20 C 163.75 371.68 188.54 393.36 205.12 410.90 C 235.79 398.76 268.46 393.33 301.20 391.22 C 285.20 418.22 264.24 442.16 239.91 461.96 C 231.79 465.44 239.52 473.60 240.38 478.74 C 244.01 499.52 246.45 524.30 230.94 541.03 C 254.45 554.09 291.36 552.81 306.07 527.12 C 313.18 516.89 311.57 495.82 297.39 493.98 C 302.35 500.14 302.52 512.40 293.18 516.26 C 282.27 523.88 268.26 512.75 265.45 501.59 C 256.59 472.75 271.81 443.71 290.84 422.84 C 300.50 409.37 317.41 401.15 322.51 384.57 C 323.77 380.56 329.52 380.04 330.48 384.58 C 333.38 395.78 342.95 402.56 350.53 410.47 C 375.11 434.50 399.93 469.05 386.15 505.12 C 381.69 521.43 355.28 523.92 352.17 505.75 C 347.21 500.67 362.21 492.63 351.73 494.29 C 340.20 502.01 340.72 519.94 348.80 530.24 C 365.10 553.25 399.26 553.15 422.08 541.03 C 403.13 520.31 410.20 489.38 416.78 465.45 C 391.48 444.36 368.52 419.81 351.82 391.25 C 383.40 393.58 415.34 397.93 444.86 410.20 C 450.74 413.09 451.91 404.41 455.97 401.95 C 472.44 389.09 493.25 371.61 515.71 378.22 C 514.55 349.09 491.75 316.40 459.36 321.40 C 450.16 323.60 438.85 333.51 441.96 343.86 C 445.22 330.50 464.72 332.39 470.12 342.48 C 475.72 352.89 469.73 366.07 460.77 372.78 C 440.12 390.53 410.73 392.50 385.22 386.53 C 367.64 384.96 350.71 374.01 333.31 378.53 C 326.18 373.92 334.07 365.51 336.85 360.28 C 345.02 330.56 352.05 296.94 376.81 275.76 C 389.08 265.60 409.70 254.17 425.11 266.93 C 436.56 275.24 428.99 298.09 414.01 294.30 C 421.11 303.32 439.06 296.74 443.76 286.89 C 460.59 261.79 444.22 228.85 421.18 214.17 C 411.29 238.80 382.39 250.69 358.37 255.52 C 352.20 287.69 342.89 321.14 326.14 348.89 C 312.35 321.95 301.14 293.44 296.58 263.42 C 296.37 258.87 294.96 252.81 289.27 254.51 C 266.40 248.81 241.18 236.48 231.49 214.29 M 311.88 218.25 C 307.90 219.14 312.49 226.83 311.76 229.85 C 317.02 227.29 323.63 214.14 311.88 218.25 M 334.70 218.18 C 333.25 222.66 337.79 227.25 341.20 229.99 C 343.59 223.64 344.54 214.53 334.70 218.18 M 302.98 221.46 C 293.89 226.31 298.43 235.07 298.39 243.17 C 304.09 275.31 312.47 308.53 326.81 337.27 C 342.21 303.03 352.32 265.30 356.18 228.46 C 353.97 225.46 351.17 220.25 346.73 221.67 C 348.76 243.92 340.31 264.77 335.84 286.10 C 332.94 293.00 331.45 301.67 326.14 306.74 C 313.20 280.66 306.42 249.91 305.84 221.67 C 304.90 221.33 303.95 221.26 302.98 221.46 M 326.15 243.68 C 322.06 244.92 318.12 246.68 314.18 248.36 C 315.82 263.11 321.78 278.86 326.89 291.63 C 330.39 277.10 337.96 263.52 338.81 248.36 C 334.64 246.73 330.58 244.34 326.15 243.68 M 186.22 308.53 C 149.14 309.33 125.98 346.22 124.62 379.65 C 131.72 381.74 133.68 373.80 133.71 368.63 C 137.78 346.84 150.74 325.67 172.07 317.61 C 188.22 313.61 210.12 316.76 216.32 334.74 C 220.92 341.74 214.12 355.79 205.74 348.23 C 206.78 335.82 190.12 337.79 187.45 346.73 C 184.26 362.67 200.25 374.00 213.41 378.64 C 241.52 389.79 270.66 378.75 298.73 374.22 C 300.10 374.08 300.36 373.46 299.52 372.35 C 278.76 366.36 259.06 355.67 243.92 340.09 C 228.10 324.60 210.49 306.66 186.22 308.53 M 466.02 308.50 C 429.11 306.94 412.40 345.36 382.93 359.98 C 373.94 366.34 361.53 368.54 352.89 373.74 C 386.29 380.36 426.79 393.74 456.04 369.01 C 465.16 364.02 471.32 346.31 459.81 340.64 C 454.39 336.24 446.31 341.33 447.28 348.23 C 438.30 356.15 431.17 340.17 437.36 333.38 C 444.81 314.78 469.14 313.07 485.54 319.38 C 504.19 329.35 515.86 348.48 519.35 369.19 C 519.31 374.24 521.61 381.73 528.38 379.65 C 526.99 345.99 503.42 308.79 466.02 308.50 M 237.09 325.94 C 257.93 347.69 283.64 365.68 313.87 370.46 C 295.44 346.40 266.41 332.77 237.09 325.94 M 414.30 326.45 C 385.49 333.07 357.24 346.95 339.13 370.46 C 362.21 365.04 386.56 356.37 402.79 337.80 C 405.73 334.10 416.25 328.40 414.30 326.45 M 140.62 382.51 C 102.47 385.89 82.39 425.01 74.41 458.35 C 71.16 465.20 83.63 462.70 83.10 457.50 C 86.56 429.45 104.10 400.47 131.70 391.35 C 153.80 384.69 178.32 395.26 190.97 414.07 C 192.41 418.15 201.70 413.30 197.00 410.27 C 182.85 394.62 162.98 380.49 140.62 382.51 M 500.13 382.64 C 481.93 386.91 466.24 397.75 454.71 412.04 C 454.52 414.74 461.39 417.79 462.47 413.49 C 476.67 392.17 506.41 382.90 529.51 394.46 C 552.30 407.17 566.78 431.86 569.88 457.54 C 569.98 462.13 575.47 462.54 578.95 462.40 C 572.99 423.62 545.08 377.21 500.13 382.64 M 326.14 389.27 C 313.85 420.47 318.68 453.34 325.99 484.92 C 336.16 455.05 338.21 418.52 326.14 389.27 M 142.70 394.62 C 140.71 394.49 139.09 395.05 137.84 396.29 C 135.93 412.04 139.61 427.77 140.74 443.44 C 157.63 441.30 155.02 415.13 173.11 416.37 C 177.65 415.36 182.68 422.25 186.17 418.62 C 179.26 402.69 159.82 393.53 142.70 394.62 M 502.82 394.62 C 488.54 397.10 471.67 404.65 466.66 419.15 C 472.73 421.41 477.19 413.66 483.63 416.56 C 498.39 419.50 496.85 440.88 512.20 443.47 C 513.45 427.79 517.07 412.05 515.16 396.28 C 511.67 393.91 506.91 394.37 502.82 394.62 M 131.20 396.89 C 119.04 396.23 124.04 407.83 125.48 414.47 C 129.47 435.61 127.39 457.26 126.47 478.54 C 127.78 481.75 131.16 483.76 133.46 486.34 C 137.66 456.90 133.45 424.05 131.20 396.89 M 292.47 397.39 C 255.85 400.50 219.88 410.25 186.25 424.75 C 180.85 425.36 178.56 433.62 180.54 437.66 C 205.94 424.09 235.73 414.58 263.60 412.80 C 250.11 438.01 223.93 457.21 200.97 474.10 C 203.19 477.65 211.20 479.85 215.20 476.33 C 244.74 454.86 273.44 426.02 292.47 397.39 M 359.83 397.15 C 381.38 427.80 408.25 454.72 438.54 476.76 C 441.79 480.78 457.41 475.69 449.40 471.53 C 426.26 456.35 402.67 436.52 389.40 412.81 C 417.57 414.44 447.25 424.65 473.14 437.66 C 475.65 426.58 466.04 424.80 458.94 421.10 C 426.94 409.12 393.97 400.03 359.83 397.15 M 520.42 396.58 C 521.03 426.34 514.57 456.43 519.54 486.35 C 522.44 482.90 528.11 480.35 526.60 474.87 C 524.83 452.14 523.68 428.86 529.35 406.53 C 531.94 400.12 526.92 396.73 520.42 396.58 M 317.44 401.36 C 292.33 426.99 259.30 459.32 269.55 499.28 C 271.01 511.79 289.87 519.77 296.79 507.51 C 301.01 499.72 288.21 498.20 292.84 490.97 C 297.69 486.16 306.49 490.56 309.02 496.00 C 320.60 510.94 310.79 531.39 298.52 542.51 C 279.72 556.25 253.98 555.05 233.29 546.56 C 229.03 544.34 221.52 547.05 223.19 552.64 C 246.15 562.24 274.55 566.13 296.87 552.91 C 313.07 542.34 325.92 524.16 324.95 504.13 C 324.14 487.23 318.39 471.17 315.42 454.61 C 310.57 437.47 316.71 416.57 317.44 401.36 M 334.85 401.19 C 344.31 432.48 335.82 464.23 328.80 494.89 C 322.53 526.86 349.33 558.69 381.09 561.06 C 397.65 561.77 414.59 559.41 429.80 552.61 C 431.43 546.71 423.37 544.02 419.03 546.84 C 395.82 556.74 361.94 556.37 346.79 533.18 C 335.48 520.82 335.51 496.36 352.45 489.29 C 360.90 485.65 363.87 497.26 356.89 500.16 C 350.80 512.57 370.61 518.03 377.44 509.44 C 390.06 495.74 385.46 474.69 380.35 458.68 C 369.55 436.70 352.56 417.21 334.85 401.19 M 118.40 404.39 C 100.89 416.81 90.13 438.74 88.36 459.98 C 100.36 460.81 112.59 466.46 121.87 455.70 C 124.06 438.65 120.51 419.61 118.40 404.39 M 533.88 404.14 C 533.45 421.53 527.46 439.81 532.10 456.73 C 541.79 466.58 552.94 460.39 564.64 459.98 C 562.75 438.64 552.05 415.99 533.88 404.14 M 252.37 420.42 C 237.78 423.35 222.71 425.28 208.91 430.77 C 208.42 439.78 211.55 450.66 221.77 452.94 C 233.42 444.36 245.17 430.31 252.37 420.42 M 399.89 420.27 C 409.56 431.57 418.84 443.42 430.61 452.67 C 442.40 453.22 452.35 426.19 434.42 427.57 C 423.14 423.94 411.40 422.80 399.89 420.27 M 169.08 422.58 C 143.38 444.47 162.59 493.81 197.18 494.07 C 206.65 500.91 221.40 480.60 205.68 481.38 C 196.55 479.61 180.87 466.31 192.02 457.87 C 199.83 451.11 206.57 464.45 213.62 460.72 C 222.48 455.42 209.38 449.46 204.63 448.03 C 205.15 441.42 205.51 427.91 195.87 435.71 C 197.57 442.62 195.94 453.92 186.85 455.58 C 173.10 455.48 172.55 435.85 177.04 426.44 C 180.23 421.34 172.07 422.02 169.08 422.58 M 477.17 422.51 C 475.56 422.34 474.61 423.88 475.43 425.26 C 480.78 433.73 478.90 446.30 473.21 453.67 C 462.26 460.71 452.76 445.76 457.65 436.19 C 448.70 427.82 447.02 440.22 448.45 447.38 C 445.12 450.02 433.92 451.96 436.68 458.19 C 444.02 468.96 454.09 448.09 462.85 459.12 C 470.60 472.10 450.70 481.89 440.21 483.35 C 439.46 489.86 446.07 496.20 452.81 494.11 C 477.59 494.51 498.75 470.83 495.18 446.46 C 494.73 436.42 490.40 419.27 477.17 422.51 M 188.53 439.41 C 185.26 441.53 178.31 442.38 182.19 447.74 C 185.87 455.85 194.74 438.76 188.53 439.41 M 462.49 439.01 C 461.12 443.43 466.81 454.27 470.80 447.76 C 474.87 441.92 466.24 440.61 462.49 439.01 M 152.19 443.35 C 146.94 447.49 138.78 449.90 141.36 458.07 C 149.78 458.79 154.83 448.76 152.19 443.35 M 500.23 443.02 C 498.96 450.64 503.23 458.06 511.64 458.07 C 514.23 449.72 505.64 447.19 500.23 443.02 M 151.49 459.48 C 136.74 462.71 140.31 475.89 138.19 486.63 C 147.41 492.08 161.34 498.49 168.99 487.12 C 160.13 480.44 154.99 467.69 151.49 459.48 M 500.28 459.46 C 499.40 471.09 490.35 479.24 483.94 487.86 C 493.10 498.50 505.21 491.39 514.78 486.63 C 513.23 475.62 515.54 461.30 500.28 459.46 M 193.51 462.28 C 188.55 466.56 197.82 475.21 202.26 468.27 C 212.59 463.28 198.04 460.10 193.51 462.28 M 450.56 462.43 C 439.93 463.50 458.97 477.17 460.15 467.09 C 463.96 460.78 454.40 461.29 450.56 462.43 M 120.34 463.44 C 109.55 468.27 100.58 476.20 90.82 482.72 C 86.50 485.13 86.72 492.06 87.71 495.47 C 98.19 488.48 108.90 479.12 120.32 472.52 C 121.70 470.35 124.76 462.67 120.34 463.44 M 531.35 463.15 C 529.18 465.97 531.30 472.40 534.84 474.16 C 546.09 479.83 555.39 489.82 566.03 495.58 C 565.59 491.34 566.64 485.24 562.21 482.71 C 551.92 476.19 542.81 467.47 531.35 463.15 M 86.23 465.56 C 57.29 470.44 37.96 499.27 32.89 526.46 C 40.94 520.72 45.67 511.09 50.20 502.19 C 56.52 487.61 70.99 477.58 86.37 474.70 C 92.19 475.05 99.30 472.72 102.07 467.32 C 97.53 464.92 91.32 465.92 86.23 465.56 M 558.27 465.70 C 541.85 465.83 562.40 477.72 569.66 475.29 C 598.61 478.73 601.84 511.21 620.11 526.46 C 614.81 497.23 591.30 463.61 558.27 465.70 M 230.46 470.34 C 227.60 471.34 224.61 474.06 226.65 477.24 C 234.54 494.11 234.59 515.89 223.00 531.02 C 202.96 559.55 161.26 559.43 132.18 546.31 C 129.98 548.87 121.46 553.48 127.83 555.25 C 157.38 564.21 194.00 567.73 219.65 547.65 C 242.65 529.89 242.29 496.73 233.34 471.58 C 233.27 469.95 231.68 469.71 230.46 470.34 M 420.29 470.16 C 412.00 491.76 409.52 520.11 424.96 539.05 C 449.58 569.39 494.72 565.28 528.03 553.99 C 525.83 551.23 523.33 547.42 520.21 546.44 C 490.29 560.31 446.99 558.50 427.77 528.23 C 418.76 512.92 418.56 493.14 426.40 477.26 C 428.71 473.37 423.85 469.76 420.29 470.16 M 219.35 478.17 C 215.42 482.29 218.72 489.54 213.91 493.66 C 203.94 504.02 185.19 493.32 176.08 504.89 C 188.24 515.07 201.35 526.98 216.75 531.95 C 228.00 522.53 229.29 504.79 226.84 491.21 C 225.55 487.30 225.73 477.53 219.35 478.17 M 431.43 478.19 C 420.74 493.34 422.79 519.01 436.24 531.95 C 451.74 527.38 463.61 514.65 476.71 505.62 C 468.96 491.57 443.89 506.65 436.92 489.96 C 434.50 486.81 437.81 477.29 431.43 478.19 M 81.55 480.31 C 78.29 481.57 75.32 483.54 72.33 485.34 C 72.54 499.03 72.22 512.95 69.31 526.28 C 81.59 530.47 93.81 537.04 105.27 543.89 C 109.60 543.26 115.40 540.29 117.05 536.15 C 104.36 530.19 91.79 523.83 78.26 519.94 C 83.48 507.02 80.66 492.78 84.47 479.65 C 83.48 479.82 82.51 480.04 81.55 480.31 M 117.58 480.42 C 115.72 481.36 111.01 483.62 114.98 485.18 C 124.71 488.77 127.80 500.06 126.93 509.53 C 144.88 508.93 126.63 481.19 117.58 480.42 M 532.53 480.32 C 525.96 487.77 516.83 496.18 518.56 507.15 C 521.44 508.57 528.71 512.99 526.31 505.12 C 525.38 495.66 531.47 487.65 539.75 483.94 C 538.73 481.80 535.14 479.40 532.53 480.32 M 568.53 479.65 C 572.35 492.78 569.53 507.03 574.74 519.94 C 561.07 523.02 549.46 531.05 536.33 535.37 C 535.74 540.24 543.37 542.17 547.00 544.00 C 558.85 537.60 571.09 530.31 583.69 526.27 C 580.78 512.94 580.25 499.04 580.68 485.35 C 576.81 483.14 573.09 480.21 568.53 479.65 M 108.14 487.35 C 96.38 494.03 81.65 503.33 85.18 518.11 C 97.98 527.31 111.16 517.61 123.10 511.54 C 123.92 505.19 123.77 497.72 116.17 498.25 C 121.18 492.30 113.09 488.87 108.14 487.35 M 544.18 487.54 C 531.05 488.08 540.51 500.84 530.23 500.43 C 526.18 516.80 557.82 529.09 568.15 516.63 C 569.58 501.52 555.71 493.50 544.18 487.54 M 67.43 488.27 C 60.47 493.74 54.99 501.20 51.11 509.11 C 57.10 502.90 68.37 497.28 67.43 488.27 M 584.67 488.46 C 585.33 498.14 596.00 502.55 601.82 509.26 C 597.96 501.14 592.69 492.92 584.67 488.46 M 134.95 490.14 C 135.72 494.21 136.74 498.45 139.17 501.89 C 162.41 511.10 184.05 524.59 202.59 541.44 C 206.30 545.30 211.36 538.71 212.81 536.04 C 187.71 520.33 164.04 499.35 134.95 490.14 M 516.49 490.52 C 488.06 500.26 465.04 520.53 440.00 536.00 C 442.12 539.39 447.10 545.46 451.03 541.05 C 469.35 524.33 490.73 510.88 513.83 501.89 C 515.52 499.10 519.73 490.82 516.49 490.52 M 170.76 491.42 C 167.87 492.94 159.77 496.71 165.51 499.57 C 171.21 504.96 177.29 497.69 182.89 495.83 C 181.70 492.02 174.54 490.51 170.76 491.42 M 476.82 491.63 C 460.06 493.98 486.67 508.04 489.70 497.20 C 487.64 492.87 481.51 489.63 476.82 491.63 M 66.22 502.52 C 45.31 518.91 26.52 538.68 11.21 560.19 C 38.09 556.74 64.45 550.43 89.74 540.63 C 89.46 536.82 82.03 535.43 78.13 534.49 C 63.54 539.90 48.44 544.04 33.14 547.05 C 41.56 533.94 55.12 523.90 66.06 512.77 C 67.18 510.07 69.14 503.02 66.22 502.52 M 586.16 502.36 C 584.42 504.84 585.65 511.02 587.70 514.14 C 599.06 524.18 611.57 534.54 619.84 547.05 C 604.60 543.87 589.44 539.98 574.87 534.49 C 570.98 535.43 563.51 536.82 563.27 540.61 C 588.50 550.48 614.91 557.11 641.82 560.18 C 626.20 538.73 607.59 518.24 586.16 502.36 M 139.69 508.50 C 127.85 515.29 114.58 519.44 102.70 525.90 C 117.98 537.19 133.50 520.45 147.88 514.92 C 156.39 510.99 143.43 507.05 139.69 508.50 M 509.37 508.54 C 505.18 508.01 498.50 512.43 505.02 515.03 C 519.53 520.07 535.01 537.40 550.30 525.89 C 536.92 520.05 523.23 512.14 509.37 508.54 M 155.17 515.34 C 140.12 517.86 141.21 532.62 135.06 542.93 C 154.92 552.11 179.92 553.62 199.99 544.79 C 187.75 533.21 171.61 520.69 155.17 515.34 M 495.44 515.36 C 480.24 522.99 464.59 533.10 453.06 544.78 C 472.96 554.11 498.17 551.84 517.94 542.93 C 511.86 532.04 511.92 515.50 495.44 515.36 M 63.39 522.47 C 57.61 527.95 50.39 533.34 46.01 540.00 C 54.75 538.06 63.40 535.64 71.94 532.94 C 70.85 529.29 62.35 531.24 63.54 526.37 C 63.57 525.04 66.14 520.70 63.39 522.47 M 588.21 521.88 C 592.36 528.28 586.42 530.55 581.04 532.06 C 588.13 536.20 598.24 537.94 606.83 539.99 C 602.29 533.28 594.96 526.72 588.21 521.88 M 136.47 525.51 C 122.18 528.99 117.80 546.54 103.18 550.14 C 86.42 559.38 64.50 547.70 48.92 557.97 C 73.85 565.34 104.99 565.84 125.48 547.48 C 130.97 541.70 137.54 532.25 136.47 525.51 M 515.75 525.30 C 522.87 563.67 575.42 569.49 603.71 557.24 C 582.96 548.32 555.34 561.06 537.46 542.53 C 530.50 536.35 525.78 526.93 515.75 525.30 M 94.38 543.54 C 87.66 545.16 79.85 547.20 74.33 550.29 C 78.18 554.23 115.46 545.51 94.38 543.54 M 554.64 543.37 C 543.90 550.09 577.08 552.69 578.51 549.82 C 570.96 546.76 562.94 543.40 554.64 543.37 Z" />
</svg>
