<?xml version="1.0" encoding="UTF-8" ?>
<!DOCTYPE svg PUBLIC "-//W3C//DTD SVG 1.1//EN" "http://www.w3.org/Graphics/SVG/1.1/DTD/svg11.dtd">
<svg width="679pt" height="679pt" viewBox="0 0 679 679" version="1.1" xmlns="http://www.w3.org/2000/svg">
<path fill="#000000" opacity="1.00" d=" M 336.71 2.49 C 380.52 13.04 414.68 48.84 449.86 75.62 C 493.28 78.93 538.37 82.31 578.59 100.41 C 596.86 140.88 599.67 186.23 603.47 229.86 C 628.29 258.47 652.38 288.23 670.13 321.85 C 673.05 329.50 679.89 337.67 675.14 345.98 C 658.41 384.47 630.80 416.85 603.89 448.56 C 599.69 492.16 597.07 537.98 578.59 578.59 C 538.12 596.86 492.76 599.67 449.14 603.47 C 420.53 628.29 390.77 652.38 357.15 670.13 C 349.50 673.05 341.32 679.89 333.02 675.14 C 294.53 658.41 262.15 630.80 230.44 603.89 C 186.84 599.69 141.02 597.07 100.41 578.59 C 82.14 538.12 79.33 492.76 75.53 449.14 C 50.71 420.53 26.62 390.77 8.87 357.15 C 5.95 349.50 -0.90 341.32 3.86 333.02 C 20.59 294.53 48.20 262.15 75.11 230.44 C 79.31 186.84 81.93 141.02 100.41 100.41 C 140.65 82.24 185.75 79.35 229.15 75.61 C 262.57 48.54 296.00 18.54 336.71 2.49 M 339.14 8.53 C 298.26 22.54 265.43 52.69 232.86 80.05 C 190.38 85.17 144.59 85.45 105.53 105.53 C 88.49 137.44 86.59 174.84 81.99 210.01 C 79.79 219.26 84.47 231.30 75.69 237.85 C 49.90 269.16 21.07 300.61 8.53 339.86 C 22.54 380.73 52.69 413.57 80.05 446.14 C 85.17 488.62 85.45 534.41 105.53 573.47 C 137.44 590.51 174.84 592.41 210.01 597.01 C 219.26 599.21 231.30 594.53 237.85 603.31 C 269.16 629.10 300.61 657.93 339.86 670.47 C 380.73 656.46 413.57 626.31 446.14 598.95 C 488.62 593.82 534.41 593.55 573.47 573.47 C 590.51 541.56 592.41 504.16 597.01 468.99 C 599.21 459.74 594.53 447.70 603.31 441.15 C 629.10 409.84 657.93 378.38 670.47 339.14 C 656.46 298.26 626.31 265.43 598.95 232.86 C 593.82 190.38 593.55 144.59 573.47 105.53 C 541.56 88.49 504.16 86.59 468.99 81.99 C 459.74 79.79 447.70 84.47 441.15 75.69 C 409.84 49.90 378.38 21.07 339.14 8.53 Z" />
<path fill="#000000" opacity="1.00" d=" M 339.12 13.58 C 371.31 21.63 397.09 44.42 422.99 64.00 C 433.96 71.83 442.03 87.31 457.66 84.36 C 495.68 88.25 536.92 89.48 570.34 109.69 C 590.75 147.11 591.18 191.77 595.55 233.23 C 622.32 265.70 653.07 297.95 665.42 339.12 C 653.87 380.89 621.96 412.95 595.55 445.90 C 593.47 479.52 589.92 513.31 580.87 545.85 C 576.00 555.81 574.85 569.75 563.02 574.07 C 526.14 589.93 485.20 591.98 445.77 595.55 C 413.29 622.32 381.05 653.07 339.88 665.42 C 298.11 653.87 266.05 621.96 233.10 595.55 C 199.48 593.47 165.69 589.92 133.15 580.87 C 123.19 576.00 109.25 574.85 104.93 563.02 C 89.07 526.14 87.02 485.20 83.45 445.77 C 56.68 413.29 25.93 381.05 13.58 339.88 C 25.13 298.11 57.04 266.05 83.45 233.10 C 85.53 199.48 89.08 165.69 98.13 133.15 C 103.00 123.19 104.14 109.25 115.98 104.93 C 152.86 89.07 193.79 87.02 233.23 83.45 C 265.70 56.68 297.95 25.93 339.12 13.58 M 339.15 20.59 C 308.79 28.13 283.22 49.73 261.35 70.06 C 277.35 64.79 292.96 57.94 309.64 54.68 C 315.48 41.72 292.51 57.84 289.34 52.50 C 305.31 41.78 321.97 28.84 341.50 26.48 C 359.15 31.78 374.87 41.71 389.59 52.54 C 388.64 58.51 362.64 41.36 369.34 54.66 C 386.11 57.61 401.62 64.83 417.65 70.06 C 395.54 49.84 369.92 27.31 339.15 20.59 M 336.47 30.34 C 328.98 33.57 327.42 43.13 323.77 49.72 C 314.12 68.01 326.97 91.28 314.43 108.01 C 323.15 128.18 321.34 150.75 322.84 172.18 C 330.06 167.99 332.01 157.30 339.85 154.30 C 346.47 158.53 349.73 168.69 355.70 171.75 C 358.64 151.00 355.91 128.06 364.56 107.98 C 351.39 90.77 365.48 66.23 354.30 47.64 C 351.19 41.72 347.53 28.31 340.20 30.93 C 360.55 63.06 352.28 103.46 349.27 139.12 C 347.90 150.00 328.45 147.98 329.16 136.78 C 326.51 105.15 320.63 71.53 333.07 41.15 C 333.43 39.03 342.79 29.93 336.47 30.34 M 339.11 51.16 C 330.89 73.15 333.62 97.37 333.32 120.29 C 334.41 124.20 335.25 134.13 342.10 130.36 C 349.87 116.55 344.70 99.79 345.50 84.76 C 344.42 73.86 344.97 60.01 339.11 51.16 M 303.61 63.49 C 279.16 67.48 257.00 79.46 234.79 89.81 C 211.63 98.02 187.36 105.55 167.60 120.66 C 164.48 120.76 166.78 125.33 168.41 123.37 C 188.72 108.19 213.13 99.80 237.07 92.13 C 259.59 80.95 282.47 68.96 307.75 65.78 C 310.97 64.16 306.96 59.90 303.61 63.49 M 370.21 62.86 C 369.76 64.92 370.71 66.21 372.84 66.26 C 397.24 69.53 419.47 80.89 441.22 91.83 C 465.06 99.75 489.72 107.59 509.94 123.03 C 511.74 124.77 514.17 122.78 511.81 121.16 C 486.20 100.30 452.22 95.96 423.90 80.11 C 406.55 72.97 389.28 63.97 370.21 62.86 M 295.62 74.51 C 280.20 76.75 266.25 84.20 251.90 89.89 C 226.37 103.48 194.86 107.51 174.16 129.28 C 174.75 135.10 181.15 137.55 183.88 142.19 C 187.49 150.42 198.93 143.74 203.16 151.05 C 205.32 158.13 203.76 167.02 210.00 172.27 C 219.61 173.65 228.91 177.11 238.73 177.04 C 235.16 169.05 247.16 171.15 248.08 177.03 C 252.11 185.81 258.32 193.28 264.66 200.46 C 265.38 204.52 258.94 202.69 257.90 200.25 C 249.38 188.93 233.82 191.02 221.53 187.48 C 228.45 202.19 246.43 208.07 253.22 222.57 C 244.26 220.93 235.20 220.60 226.14 220.08 C 244.26 237.88 267.65 250.33 285.77 268.16 C 294.31 277.47 267.24 264.54 275.27 272.94 C 290.00 285.11 304.59 297.51 317.45 311.65 C 322.43 313.38 332.79 317.46 328.85 323.72 C 323.92 322.18 322.18 323.93 323.73 328.85 C 316.52 332.99 313.85 320.98 310.71 316.33 C 295.30 303.69 284.34 286.59 269.98 273.06 C 269.87 277.36 274.28 286.89 270.51 287.53 C 250.90 269.99 238.86 244.31 220.15 226.25 C 220.09 235.43 222.17 245.22 221.50 253.73 C 208.78 244.54 201.30 229.41 187.72 221.11 C 189.19 230.93 190.86 240.81 193.41 250.40 C 195.40 254.67 206.77 260.21 201.14 264.96 C 192.59 257.48 183.30 250.87 173.17 245.67 C 170.72 241.60 171.37 236.63 177.01 238.80 C 176.56 228.79 173.48 219.18 172.01 209.33 C 166.13 204.46 158.29 204.32 151.16 203.15 C 143.98 199.44 149.96 188.68 143.20 184.79 C 138.35 181.73 135.44 174.91 129.30 174.24 C 114.19 187.11 109.16 206.88 101.21 224.24 C 94.09 250.96 74.95 274.37 73.93 302.75 C 71.77 313.68 84.25 308.09 90.29 309.89 C 98.33 313.58 102.05 299.80 110.20 302.60 C 117.20 308.45 128.26 318.14 136.16 308.08 C 141.02 303.82 159.08 298.75 149.14 292.08 C 157.74 283.70 168.62 295.00 178.57 293.58 C 182.88 291.83 194.21 295.16 186.21 298.50 C 171.35 297.02 160.38 307.64 148.64 315.15 C 162.14 321.67 181.28 312.81 194.81 316.68 C 190.59 324.88 180.15 328.82 174.07 336.11 C 199.32 334.24 224.17 328.14 249.36 326.58 C 262.06 327.42 244.80 332.70 245.18 338.09 C 264.96 335.16 285.03 335.46 304.82 335.00 C 309.93 329.44 328.10 332.46 316.31 339.17 C 327.45 347.31 310.59 348.94 304.26 343.63 C 284.68 344.23 264.94 342.99 245.38 340.86 C 244.30 346.20 262.29 351.58 249.36 352.42 C 224.21 350.54 199.31 344.50 174.02 342.89 C 180.04 350.42 191.62 354.07 194.78 363.07 C 179.65 364.17 162.78 358.70 148.58 363.77 C 157.44 369.05 165.44 376.60 175.18 379.99 C 178.96 381.20 190.52 377.61 188.76 384.98 C 177.57 384.76 166.76 387.69 156.07 390.59 C 152.02 389.63 146.25 386.17 152.71 383.68 C 147.91 376.24 136.61 372.34 129.50 366.29 C 121.55 365.78 115.83 372.99 109.54 376.74 C 101.81 378.20 98.51 366.20 91.03 368.95 C 85.67 371.02 77.85 366.62 74.18 371.45 C 72.66 402.06 93.87 427.05 101.47 455.49 C 109.38 472.62 114.41 492.06 129.28 504.84 C 135.10 504.25 137.55 497.85 142.19 495.12 C 150.42 491.50 143.74 480.07 151.05 475.84 C 158.13 473.67 167.02 475.23 172.27 469.00 C 173.65 459.39 177.11 450.09 177.04 440.27 C 169.05 443.83 171.15 431.84 177.03 430.92 C 185.81 426.89 193.28 420.68 200.46 414.34 C 204.52 413.62 202.69 420.06 200.25 421.10 C 188.93 429.61 191.02 445.18 187.48 457.47 C 202.19 450.55 208.07 432.57 222.57 425.78 C 220.93 434.73 220.60 443.80 220.08 452.86 C 237.88 434.74 250.33 411.35 268.16 393.23 C 277.47 384.69 264.54 411.76 272.94 403.73 C 285.11 389.00 297.51 374.41 311.65 361.55 C 313.38 356.56 317.46 346.21 323.72 350.15 C 322.18 355.07 323.93 356.81 328.85 355.27 C 332.99 362.48 320.98 365.15 316.33 368.29 C 303.69 383.70 286.59 394.65 273.06 409.02 C 277.36 409.13 286.89 404.71 287.53 408.49 C 269.99 428.10 244.31 440.14 226.25 458.85 C 235.43 458.91 245.22 456.82 253.73 457.50 C 244.54 470.22 229.41 477.70 221.11 491.28 C 230.93 489.81 240.81 488.14 250.40 485.59 C 254.67 483.59 260.21 472.22 264.96 477.86 C 257.48 486.41 250.87 495.70 245.67 505.83 C 241.60 508.27 236.63 507.63 238.80 501.99 C 228.79 502.44 219.18 505.51 209.33 506.99 C 204.46 512.87 204.32 520.70 203.15 527.84 C 199.44 535.02 188.68 529.04 184.79 535.80 C 181.73 540.64 174.91 543.56 174.24 549.70 C 195.40 572.06 227.97 575.83 253.94 590.07 C 271.51 596.52 288.85 607.30 308.25 604.56 C 311.60 600.01 308.35 593.87 309.89 588.71 C 313.83 580.38 297.87 575.87 303.37 567.48 C 309.78 561.22 317.51 550.12 308.02 542.87 C 304.16 537.77 298.70 519.96 292.08 529.86 C 283.70 521.26 295.00 510.38 293.58 500.43 C 291.83 496.10 295.16 484.79 298.50 492.79 C 297.02 507.64 307.64 518.62 315.15 530.36 C 321.67 516.85 312.81 497.72 316.68 484.19 C 324.88 488.41 328.82 498.85 336.11 504.93 C 334.24 479.68 328.14 454.82 326.58 429.64 C 327.42 416.94 332.70 434.20 338.09 433.82 C 335.16 414.04 335.46 393.96 335.00 374.18 C 329.44 369.07 332.46 350.89 339.17 362.69 C 347.31 351.55 348.94 368.41 343.63 374.74 C 344.23 394.32 342.99 414.06 340.86 433.62 C 346.20 434.69 351.58 416.71 352.42 429.64 C 350.54 454.79 344.50 479.69 342.89 504.98 C 350.42 498.95 354.07 487.38 363.07 484.22 C 364.17 499.35 358.70 516.22 363.77 530.42 C 369.05 521.56 376.60 513.56 379.99 503.82 C 381.20 500.02 377.61 488.48 384.98 490.23 C 384.73 501.42 387.73 512.20 390.56 522.90 C 390.05 528.15 384.61 533.05 384.03 525.01 C 375.54 530.94 373.58 542.03 367.02 549.63 C 363.57 560.96 382.42 566.36 375.07 576.85 C 364.83 583.26 371.76 595.21 370.38 604.49 C 389.87 607.52 407.39 596.56 425.05 590.07 C 451.02 575.62 483.60 572.14 504.80 549.70 C 500.50 540.88 492.52 529.95 481.05 531.49 C 469.67 528.62 478.31 511.27 468.25 506.50 C 458.84 505.41 449.86 501.73 440.28 501.96 C 442.47 507.50 437.82 508.79 433.48 505.65 C 427.90 496.09 422.13 486.54 414.34 478.54 C 413.62 474.48 420.05 476.30 421.10 478.75 C 429.61 490.07 445.18 487.98 457.47 491.52 C 450.55 476.81 432.57 470.93 425.78 456.43 C 434.73 458.07 443.80 458.40 452.86 458.92 C 434.74 441.12 411.35 428.67 393.23 410.84 C 384.69 401.53 411.76 414.45 403.73 406.06 C 389.00 393.89 374.41 381.48 361.55 367.35 C 356.56 365.62 346.21 361.54 350.15 355.28 C 355.07 356.82 356.81 355.07 355.27 350.15 C 362.48 346.01 365.15 358.02 368.29 362.67 C 383.70 375.31 394.65 392.41 409.02 405.94 C 409.13 401.64 404.71 392.10 408.49 391.47 C 428.10 409.00 440.14 434.69 458.85 452.75 C 458.91 443.57 456.82 433.77 457.50 425.27 C 470.22 434.46 477.70 449.59 491.28 457.89 C 489.97 448.27 488.03 438.73 485.84 429.28 C 484.04 423.56 472.88 421.15 477.06 414.18 C 485.36 418.92 492.56 427.03 501.82 431.05 C 507.75 432.06 509.91 443.37 501.99 440.19 C 502.44 450.21 505.51 459.81 506.99 469.67 C 512.87 474.54 520.70 474.67 527.84 475.85 C 535.02 479.55 529.04 490.32 535.80 494.21 C 540.64 497.26 543.56 504.09 549.70 504.76 C 572.06 483.60 575.83 451.03 590.07 425.06 C 596.52 407.49 607.30 390.15 604.56 370.75 C 600.01 367.39 593.87 370.64 588.71 369.11 C 580.38 365.17 575.87 381.13 567.48 375.63 C 561.23 369.24 550.10 361.46 542.89 371.01 C 537.73 374.80 521.11 380.81 529.89 386.95 C 521.22 395.24 510.41 384.04 500.43 385.42 C 496.10 387.15 484.79 383.85 492.79 380.50 C 507.64 381.98 518.62 371.36 530.36 363.85 C 516.85 357.33 497.72 366.19 484.19 362.32 C 488.41 354.12 498.85 350.18 504.93 342.89 C 479.67 344.75 454.83 350.86 429.64 352.42 C 416.95 351.57 434.21 346.30 433.82 340.91 C 414.04 343.83 393.96 343.54 374.18 344.00 C 369.07 349.55 350.89 346.54 362.69 339.83 C 351.55 331.68 368.41 330.05 374.74 335.37 C 394.32 334.77 414.06 336.01 433.62 338.14 C 434.69 332.80 416.71 327.42 429.64 326.58 C 454.79 328.46 479.69 334.50 504.98 336.11 C 498.95 328.58 487.38 324.93 484.22 315.93 C 499.35 314.83 516.22 320.30 530.42 315.23 C 521.56 309.94 513.56 302.40 503.82 299.01 C 500.02 297.78 488.48 301.39 490.24 294.02 C 501.42 294.23 512.24 291.31 522.93 288.41 C 526.98 289.37 532.74 292.83 526.29 295.32 C 531.09 302.76 542.39 306.65 549.50 312.71 C 557.45 313.22 563.16 306.01 569.46 302.26 C 577.19 300.80 580.49 312.79 587.97 310.05 C 593.32 307.98 601.15 312.38 604.82 307.55 C 606.34 276.94 585.13 251.95 577.53 223.51 C 569.62 206.38 564.59 186.94 549.72 174.16 C 543.90 174.75 541.45 181.15 536.81 183.88 C 528.58 187.49 535.26 198.93 527.95 203.16 C 520.86 205.32 511.98 203.76 506.73 210.00 C 505.35 219.61 501.89 228.91 501.96 238.73 C 509.95 235.16 507.85 247.16 501.97 248.08 C 493.19 252.11 485.71 258.32 478.54 264.66 C 474.48 265.38 476.30 258.94 478.75 257.90 C 490.07 249.38 487.98 233.82 491.52 221.53 C 476.81 228.45 470.93 246.43 456.43 253.22 C 458.07 244.26 458.40 235.20 458.92 226.14 C 441.12 244.26 428.67 267.65 410.84 285.77 C 401.53 294.31 414.45 267.24 406.06 275.27 C 393.89 290.00 381.48 304.59 367.35 317.45 C 365.62 322.43 361.54 332.79 355.28 328.85 C 356.82 323.92 355.07 322.18 350.15 323.73 C 346.01 316.52 358.02 313.85 362.67 310.71 C 375.31 295.30 392.41 284.34 405.94 269.98 C 401.64 269.87 392.10 274.28 391.47 270.51 C 409.00 250.90 434.69 238.86 452.75 220.15 C 443.57 220.09 433.77 222.17 425.27 221.50 C 434.46 208.78 449.59 201.30 457.89 187.72 C 448.06 189.19 438.19 190.86 428.60 193.41 C 424.32 195.40 418.79 206.77 414.04 201.14 C 421.52 192.59 428.13 183.30 433.33 173.17 C 437.40 170.72 442.36 171.37 440.20 177.01 C 450.21 176.56 459.81 173.48 469.67 172.01 C 474.54 166.13 474.67 158.29 475.85 151.16 C 479.55 143.98 490.32 149.96 494.21 143.20 C 497.26 138.35 504.09 135.44 504.76 129.30 C 491.89 114.19 472.12 109.16 454.76 101.21 C 428.04 94.09 404.63 74.95 376.25 73.93 C 365.32 71.77 370.91 84.25 369.11 90.29 C 365.41 98.33 379.20 102.05 376.40 110.20 C 370.55 117.20 360.86 128.26 370.92 136.16 C 375.18 141.02 380.24 159.08 386.92 149.14 C 395.30 157.74 384.00 168.62 385.42 178.57 C 387.15 182.88 383.85 194.21 380.50 186.21 C 381.98 171.35 371.36 160.38 363.85 148.64 C 357.33 162.14 366.19 181.28 362.32 194.81 C 354.12 190.59 350.18 180.15 342.89 174.07 C 344.76 199.32 350.86 224.17 352.42 249.36 C 351.57 262.06 346.30 244.80 340.91 245.18 C 343.83 264.96 343.54 285.03 344.00 304.82 C 349.55 309.93 346.54 328.10 339.83 316.31 C 331.68 327.45 330.05 310.59 335.37 304.26 C 334.77 284.68 336.01 264.94 338.14 245.38 C 332.80 244.30 327.42 262.29 326.58 249.36 C 328.46 224.21 334.50 199.31 336.11 174.02 C 328.58 180.04 324.93 191.62 315.93 194.78 C 314.83 179.65 320.30 162.78 315.23 148.58 C 309.94 157.44 302.40 165.44 299.01 175.18 C 297.78 178.96 301.39 190.52 294.02 188.76 C 294.23 177.57 291.31 166.76 288.41 156.07 C 289.37 152.02 292.83 146.25 295.32 152.71 C 302.76 147.91 306.65 136.61 312.71 129.50 C 313.22 121.55 306.01 115.83 302.26 109.54 C 301.62 103.25 307.85 99.57 310.64 94.67 C 308.40 84.46 313.56 67.05 295.62 74.51 M 200.35 93.54 C 171.05 96.03 139.57 97.72 114.03 114.03 C 97.26 141.16 94.71 174.43 93.59 205.47 C 100.64 190.73 106.19 175.09 115.82 161.70 C 117.93 159.61 117.00 154.15 113.38 155.14 C 108.13 160.40 106.49 169.65 100.94 173.79 C 103.98 154.34 107.90 134.31 118.37 117.36 C 135.54 108.06 154.76 103.80 173.92 100.79 C 171.95 107.09 147.43 111.21 158.91 116.99 C 173.57 107.88 189.53 100.49 205.46 93.61 C 204.18 93.59 201.63 93.56 200.35 93.54 M 474.38 93.64 C 485.78 99.95 504.01 105.99 516.67 115.43 C 518.76 117.83 524.78 117.41 523.86 113.38 C 518.60 108.13 509.35 106.49 505.21 100.94 C 524.65 103.98 544.69 107.90 561.64 118.37 C 570.94 135.54 575.20 154.76 578.21 173.92 C 571.91 171.95 567.79 147.43 562.01 158.91 C 571.12 173.57 578.51 189.53 585.39 205.46 C 583.78 174.48 581.88 141.12 564.97 114.03 C 538.10 97.41 505.15 94.76 474.38 93.64 M 124.74 118.30 C 114.55 121.18 118.39 133.42 121.46 140.58 C 126.06 158.28 142.50 168.23 153.83 181.30 C 157.62 185.21 154.73 193.37 160.79 195.30 C 179.84 202.70 192.97 219.37 208.11 231.86 C 214.53 227.59 199.69 204.35 215.82 208.36 C 220.72 207.46 229.84 212.44 231.86 208.13 C 219.84 192.89 202.82 180.33 195.66 161.45 C 193.11 153.62 181.81 158.19 178.06 150.89 C 164.17 135.10 147.28 118.15 124.74 118.30 M 548.65 118.33 C 528.38 121.50 513.95 136.28 501.00 150.93 C 497.03 158.27 485.09 153.52 483.10 162.18 C 475.52 180.57 459.28 193.31 447.14 208.11 C 451.41 214.53 474.65 199.69 470.64 215.82 C 471.53 220.72 466.56 229.84 470.87 231.86 C 486.11 219.84 498.67 202.82 517.55 195.66 C 525.38 193.11 520.81 181.81 528.11 178.06 C 543.20 164.86 558.15 149.70 560.92 128.87 C 562.43 122.07 555.14 115.88 548.65 118.33 M 122.31 166.35 C 100.56 190.84 96.70 225.06 81.06 253.06 C 74.00 269.70 65.70 286.24 63.20 304.35 C 58.13 308.91 66.34 310.47 66.04 306.99 C 69.40 282.31 80.68 259.77 91.83 237.78 C 99.75 213.94 107.59 189.27 123.03 169.06 C 124.03 168.23 123.93 165.34 122.31 166.35 M 556.04 165.92 C 554.90 166.79 555.35 168.05 555.98 169.08 C 571.30 189.32 579.29 213.92 587.17 237.78 C 598.33 260.03 610.05 282.74 613.22 307.75 C 612.90 309.00 616.86 309.61 616.01 308.04 C 613.23 282.64 600.86 259.65 590.09 236.90 C 580.55 212.70 574.17 185.36 556.04 165.92 M 339.09 180.07 C 337.63 194.94 334.72 209.63 333.21 224.48 C 336.93 228.64 337.17 221.11 339.85 220.32 C 341.52 222.51 342.54 228.14 345.79 224.46 C 343.93 209.70 341.76 194.24 339.09 180.07 M 231.10 231.10 C 237.30 242.49 246.18 252.88 254.23 263.24 C 257.08 259.64 256.11 254.03 263.02 255.03 C 253.74 245.85 242.30 237.63 231.10 231.10 M 446.46 231.47 C 436.10 238.68 425.52 246.08 415.76 254.23 C 419.35 257.08 424.96 256.11 423.97 263.02 C 433.03 255.33 438.17 243.90 446.25 235.16 C 446.97 234.13 449.19 230.07 446.46 231.47 M 69.35 261.14 C 49.80 284.60 27.79 308.55 20.55 339.09 C 27.57 369.82 49.67 395.58 70.06 417.65 C 64.79 401.65 57.94 386.03 54.68 369.36 C 41.72 363.52 57.84 386.49 52.50 389.66 C 41.78 373.69 28.84 357.03 26.48 337.50 C 31.78 319.85 41.71 304.13 52.54 289.41 C 58.51 290.35 41.36 316.36 54.66 309.66 C 56.74 293.09 66.57 276.16 69.35 261.14 M 608.94 261.35 C 614.21 277.35 621.06 292.96 624.32 309.64 C 637.27 315.48 621.15 292.51 626.50 289.34 C 637.22 305.31 650.16 321.97 652.52 341.50 C 647.21 359.15 637.29 374.87 626.46 389.59 C 620.49 388.64 637.64 362.64 624.34 369.34 C 621.39 386.11 614.17 401.62 608.94 417.65 C 629.16 395.73 651.03 370.30 658.45 339.91 C 651.43 309.18 629.33 283.42 608.94 261.35 M 107.27 314.35 C 90.63 328.12 66.47 313.33 48.33 324.40 C 42.26 327.64 28.38 331.21 30.93 338.80 C 62.54 318.59 102.31 326.79 137.49 329.42 C 147.35 329.06 148.44 342.90 142.79 347.81 C 127.67 354.07 110.64 350.84 94.78 352.90 C 72.93 355.37 49.57 351.82 30.93 340.20 C 28.18 346.76 40.07 350.66 45.60 353.38 C 64.70 365.54 89.91 351.82 108.01 364.57 C 128.18 355.85 150.75 357.66 172.18 356.16 C 167.83 349.20 158.42 346.97 154.30 339.85 C 157.01 332.30 170.85 329.25 171.13 322.77 C 149.89 321.36 127.51 322.32 107.27 314.35 M 570.99 314.43 C 550.82 323.15 528.25 321.34 506.82 322.84 C 511.00 330.06 521.70 332.01 524.70 339.85 C 520.47 346.47 510.30 349.73 507.25 355.70 C 527.99 358.64 550.94 355.91 571.02 364.56 C 588.23 351.39 612.77 365.48 631.36 354.30 C 637.28 351.19 650.69 347.53 648.07 340.20 C 616.46 360.41 576.69 352.21 541.51 349.58 C 531.65 349.94 530.56 336.09 536.21 331.19 C 551.33 324.93 568.35 328.15 584.22 326.10 C 606.07 323.63 629.43 327.18 648.07 338.80 C 650.82 332.23 638.93 328.34 633.40 325.62 C 614.30 313.46 589.08 327.17 570.99 314.43 M 572.27 332.66 C 564.89 333.68 544.97 330.93 549.28 342.57 C 574.29 349.91 602.82 346.11 627.85 339.88 C 612.00 331.13 590.36 334.29 572.27 332.66 M 83.13 333.55 C 72.84 334.76 59.47 334.20 51.16 339.89 C 73.15 348.11 97.37 345.38 120.29 345.68 C 124.20 344.58 134.13 343.75 130.36 336.90 C 116.01 329.03 98.74 334.27 83.13 333.55 M 220.57 333.53 C 207.15 335.79 192.93 337.25 180.07 339.91 C 194.94 341.36 209.63 344.28 224.48 345.79 C 228.64 342.07 221.11 341.83 220.32 339.15 C 224.95 338.18 228.87 331.74 220.57 333.53 M 454.52 333.21 C 450.35 336.93 457.89 337.17 458.68 339.85 C 456.49 341.52 450.86 342.54 454.54 345.79 C 469.30 343.93 484.76 341.76 498.93 339.09 C 484.06 337.63 469.37 334.72 454.52 333.21 M 62.91 370.08 C 65.49 396.62 78.86 420.40 89.81 444.21 C 98.02 467.37 105.55 491.64 120.66 511.40 C 120.76 514.50 125.33 512.22 123.37 510.59 C 108.19 490.27 99.80 465.87 92.13 441.93 C 81.15 419.64 69.11 397.09 65.99 372.09 C 66.16 370.10 64.38 370.12 62.91 370.08 M 614.37 370.27 C 609.00 393.16 600.21 417.74 588.15 439.18 C 579.38 463.48 572.05 489.18 555.97 509.94 C 554.23 511.74 556.22 514.17 557.84 511.81 C 579.38 484.85 583.96 449.34 600.75 419.77 C 606.43 404.17 617.96 384.56 614.37 370.27 M 254.37 416.36 C 245.80 425.95 237.34 436.75 231.10 447.90 C 242.49 441.69 252.88 432.82 263.24 424.77 C 258.57 423.24 255.23 419.86 254.37 416.36 M 423.86 415.93 C 423.46 420.85 421.67 424.27 415.96 423.97 C 425.26 433.14 436.69 441.37 447.90 447.90 C 441.16 436.78 433.41 425.04 423.86 415.93 M 207.42 447.33 C 192.80 459.96 179.98 476.06 161.45 483.34 C 153.62 485.89 158.19 497.19 150.89 500.94 C 135.10 514.83 118.15 531.72 118.30 554.26 C 121.18 564.45 133.42 560.61 140.58 557.54 C 158.28 552.94 168.23 536.50 181.30 525.17 C 185.21 521.38 193.37 524.27 195.30 518.21 C 202.70 499.16 219.37 486.03 231.86 470.89 C 227.59 464.47 204.35 479.31 208.36 463.18 C 207.26 458.50 213.13 447.69 207.42 447.33 M 469.43 446.88 C 468.60 454.83 471.78 462.59 470.75 470.62 C 463.18 472.54 453.01 467.29 446.99 470.15 C 458.12 485.86 475.94 497.95 483.03 516.86 C 485.18 525.44 497.01 520.71 500.94 528.11 C 514.83 543.90 531.72 560.85 554.26 560.70 C 564.45 557.82 560.61 545.58 557.54 538.42 C 552.72 515.67 524.79 507.79 520.89 485.19 C 500.17 477.69 486.47 458.78 469.43 446.88 M 335.17 453.33 C 332.11 466.47 338.47 484.66 339.91 498.93 C 341.36 484.06 344.28 469.37 345.79 454.52 C 342.53 450.88 341.53 456.48 339.85 458.68 C 337.48 458.37 337.53 453.01 335.17 453.33 M 93.66 474.39 C 95.27 505.09 97.26 538.14 114.03 564.97 C 141.16 581.74 174.43 584.29 205.47 585.41 C 190.73 578.36 175.09 572.81 161.70 563.18 C 159.61 561.07 154.15 562.00 155.14 565.62 C 160.40 570.86 169.65 572.50 173.79 578.06 C 154.34 575.02 134.31 571.10 117.36 560.63 C 108.06 543.46 103.80 524.23 100.79 505.08 C 107.09 507.05 111.21 531.57 116.99 520.09 C 107.91 506.02 99.87 487.23 93.66 474.39 M 585.41 473.53 C 578.36 488.26 572.81 503.91 563.18 517.30 C 561.07 519.39 562.00 524.85 565.62 523.86 C 570.86 518.60 572.50 509.35 578.06 505.21 C 575.02 524.65 571.10 544.69 560.63 561.64 C 543.46 570.94 524.23 575.20 505.08 578.21 C 507.05 571.91 531.57 567.79 520.09 562.01 C 505.43 571.12 489.47 578.51 473.54 585.39 C 504.52 583.78 537.88 581.88 564.97 564.97 C 581.74 537.84 584.29 504.57 585.41 473.53 M 322.86 506.89 C 321.03 528.24 322.82 550.77 314.44 571.02 C 327.61 588.23 313.51 612.77 324.70 631.36 C 327.81 637.28 331.47 650.69 338.80 648.07 C 318.59 616.46 326.79 576.69 329.42 541.51 C 329.06 531.65 342.90 530.56 347.81 536.21 C 354.07 551.33 350.84 568.35 352.90 584.22 C 355.37 606.07 351.82 629.43 340.20 648.07 C 346.76 650.82 350.66 638.93 353.38 633.40 C 365.54 614.30 351.82 589.08 364.57 570.99 C 355.85 550.82 357.66 528.25 356.16 506.82 C 348.94 511.00 346.98 521.70 339.15 524.70 C 332.41 520.22 329.96 511.21 322.86 506.89 M 337.53 548.19 C 328.84 560.34 334.43 577.06 333.41 590.91 C 334.23 603.05 333.69 617.89 339.89 627.84 C 348.11 605.85 345.38 581.63 345.68 558.71 C 344.35 554.96 344.25 545.83 337.53 548.19 M 167.13 555.29 C 165.30 555.40 166.63 557.83 167.67 558.35 C 193.37 578.70 226.95 583.19 255.10 598.89 C 271.11 605.55 286.97 613.50 304.35 615.80 C 308.91 620.81 310.47 612.68 306.99 612.96 C 282.05 609.59 259.33 598.04 237.07 586.87 C 212.60 579.28 188.14 570.13 167.13 555.29 M 511.24 555.33 C 490.64 570.48 466.15 579.21 441.93 586.87 C 419.40 598.05 396.53 610.03 371.25 613.22 C 369.99 612.90 369.39 616.86 370.96 616.01 C 404.57 612.75 432.39 591.33 464.24 582.25 C 480.52 575.52 497.59 569.63 511.40 558.34 C 514.25 558.62 512.58 554.34 511.24 555.33 M 261.35 608.94 C 283.27 629.16 308.70 651.03 339.09 658.45 C 369.82 651.43 395.58 629.33 417.65 608.94 C 401.65 614.21 386.03 621.06 369.36 624.32 C 363.52 637.27 386.49 621.15 389.66 626.50 C 373.69 637.22 357.03 650.16 337.50 652.52 C 319.85 647.21 304.13 637.29 289.41 626.46 C 290.35 620.49 316.36 637.64 309.66 624.34 C 292.89 621.39 277.38 614.17 261.35 608.94 Z" />
<path fill="#000000" opacity="1.00" d=" M 287.75 80.37 C 292.15 80.85 304.55 76.70 303.09 85.48 C 288.11 101.74 280.15 123.74 265.25 139.48 C 255.81 137.14 252.25 148.50 242.42 145.79 C 223.92 140.77 205.03 136.76 185.95 134.25 C 180.57 133.22 184.23 126.90 186.67 124.69 C 198.40 113.60 214.16 108.45 229.03 103.01 C 248.96 96.37 266.74 83.83 287.75 80.37 M 281.56 89.51 C 253.33 97.89 224.35 107.96 199.63 124.47 C 223.69 119.80 249.84 116.11 269.45 99.43 C 272.72 97.12 292.39 88.67 281.56 89.51 M 279.51 100.47 C 258.47 113.67 235.99 122.57 211.85 128.18 C 223.02 131.80 239.23 138.25 251.98 133.30 C 247.77 124.16 260.30 134.92 262.79 127.76 C 266.74 120.30 281.17 105.57 279.51 100.47 Z" />
<path fill="#000000" opacity="1.00" d=" M 378.59 80.34 C 397.22 77.94 414.46 87.63 430.79 95.20 C 451.37 105.26 475.73 108.88 492.85 125.16 C 495.24 127.43 498.08 133.36 493.05 134.25 C 474.19 136.68 455.54 140.63 437.22 145.46 C 427.15 149.50 423.40 137.03 413.81 139.46 C 399.61 125.50 393.02 104.72 379.20 89.88 C 376.25 87.90 373.44 80.78 378.59 80.34 M 393.26 88.86 C 403.67 98.15 419.42 103.94 431.09 112.92 C 446.69 117.90 463.00 120.92 478.86 125.16 C 465.79 111.06 444.85 108.45 428.18 99.82 C 417.38 93.89 405.50 90.20 393.26 88.86 M 398.04 100.01 C 405.93 110.05 410.02 127.46 423.07 131.05 C 423.22 126.71 432.16 129.94 427.05 133.19 C 439.68 139.57 454.71 130.51 466.90 128.99 C 460.71 124.78 450.72 124.28 442.96 120.93 C 426.12 118.66 413.70 105.64 398.04 100.01 Z" />
<path fill="#000000" opacity="1.00" d=" M 259.51 99.43 C 256.71 106.26 235.66 115.44 226.01 114.07 C 236.41 108.56 248.60 104.74 259.51 99.43 Z" />
<path fill="#000000" opacity="1.00" d=" M 418.01 98.94 C 429.44 104.23 442.44 108.15 452.98 114.12 C 442.25 114.25 426.13 109.16 418.01 98.94 Z" />
<path fill="#000000" opacity="1.00" d=" M 267.46 111.38 C 272.64 110.17 266.50 117.93 264.34 119.39 C 253.60 125.74 238.51 134.76 226.81 128.09 C 241.48 124.90 254.30 118.10 267.46 111.38 Z" />
<path fill="#000000" opacity="1.00" d=" M 409.23 110.96 C 423.83 115.99 436.45 125.61 452.20 128.10 C 438.46 134.31 415.68 125.22 409.23 110.96 Z" />
<path fill="#000000" opacity="1.00" d=" M 291.32 120.22 C 301.36 119.39 308.86 137.70 298.37 140.71 C 291.17 126.48 283.79 148.82 279.38 155.08 C 290.66 173.28 290.21 196.07 289.12 216.74 C 308.79 208.85 297.34 182.92 308.95 170.90 C 309.54 191.58 311.54 215.60 294.40 231.07 C 271.90 232.05 254.88 212.99 242.49 198.19 C 258.88 201.48 269.33 224.16 287.73 218.01 C 274.17 202.26 255.91 187.77 250.94 166.03 C 243.47 164.97 221.57 154.51 228.69 170.07 C 217.91 175.42 210.38 156.24 219.41 150.06 C 230.27 151.83 241.96 153.89 252.32 155.31 C 255.18 146.55 261.82 142.59 270.76 146.97 C 278.37 139.60 284.10 128.65 291.32 120.22 M 271.75 167.60 C 253.85 173.99 276.85 196.06 282.47 202.37 C 282.38 191.21 282.80 171.03 271.75 167.60 Z" />
<path fill="#000000" opacity="1.00" d=" M 386.20 120.32 C 394.34 125.60 399.21 137.38 405.78 145.27 C 409.97 150.77 419.49 140.39 422.44 147.58 C 427.10 165.22 449.21 146.58 460.93 151.14 C 467.79 158.45 460.49 175.04 450.31 170.07 C 457.44 154.53 435.50 164.93 428.08 166.06 C 423.18 187.91 404.74 202.16 391.26 218.01 C 409.47 223.83 420.51 201.85 436.65 198.05 C 424.18 213.39 407.14 232.01 384.60 231.07 C 367.34 215.98 370.63 192.89 369.55 172.53 C 372.51 167.71 374.47 177.74 375.22 180.43 C 373.89 194.01 377.42 210.28 389.82 216.51 C 388.90 196.10 387.73 173.59 399.61 155.78 C 395.93 149.04 387.89 126.50 380.54 140.70 C 369.79 137.67 377.50 121.76 386.20 120.32 M 404.48 167.28 C 397.18 177.56 395.95 190.89 396.55 203.15 C 403.88 193.60 415.12 183.71 414.35 170.77 C 410.44 171.43 408.07 166.17 404.48 167.28 Z" />
<path fill="#000000" opacity="1.00" d=" M 122.15 122.15 C 158.39 127.89 180.19 162.78 202.92 188.22 C 214.15 200.08 193.62 213.49 185.14 200.82 C 161.23 178.01 127.20 157.48 122.15 122.15 M 136.14 136.14 C 145.99 158.52 165.95 176.16 184.47 191.61 C 190.80 197.27 196.90 189.50 191.25 183.83 C 175.90 165.49 158.16 146.07 136.14 136.14 Z" />
<path fill="#000000" opacity="1.00" d=" M 553.39 122.30 C 559.58 120.09 555.70 128.65 555.50 131.41 C 543.26 162.15 515.12 182.22 490.78 202.92 C 478.92 214.15 465.51 193.62 478.18 185.14 C 500.28 161.57 520.04 130.25 553.39 122.30 M 540.63 136.51 C 519.80 148.34 502.13 165.85 487.39 184.47 C 482.74 189.12 487.34 196.84 493.20 192.26 C 511.68 179.73 526.77 161.79 539.50 143.53 C 540.57 141.61 545.53 135.08 540.63 136.51 Z" />
<path fill="#000000" opacity="1.00" d=" M 130.27 183.30 C 132.79 182.06 133.99 184.74 134.47 186.77 C 136.67 205.39 140.76 223.72 145.46 241.78 C 149.50 251.85 137.03 255.60 139.46 265.19 C 125.50 279.39 104.72 285.97 89.88 299.80 C 87.90 302.74 80.78 305.55 80.34 300.41 C 77.43 274.65 95.36 253.24 102.74 229.75 C 109.41 213.35 114.03 192.63 130.27 183.30 M 124.44 200.43 C 110.41 215.16 107.74 236.69 98.18 254.17 C 93.25 263.87 88.93 276.14 89.67 285.89 C 97.87 272.95 105.29 259.44 113.60 246.54 C 117.12 231.60 122.79 213.50 124.44 200.43 M 128.19 211.87 C 122.48 236.53 113.01 259.21 99.97 280.89 C 110.10 273.15 127.44 268.94 131.05 255.93 C 126.71 255.78 129.94 246.84 133.19 251.95 C 139.31 239.31 131.12 223.05 128.19 211.87 Z" />
<path fill="#000000" opacity="1.00" d=" M 546.37 183.09 C 560.27 186.05 564.90 203.16 570.57 214.42 C 577.78 239.72 593.44 261.85 598.63 287.75 C 598.14 292.15 602.30 304.55 593.52 303.09 C 581.25 292.84 567.47 284.46 553.83 276.17 C 546.08 272.79 535.97 266.83 539.77 256.89 C 530.60 252.28 532.40 241.23 535.50 233.48 C 540.97 217.20 541.05 199.13 546.37 183.09 M 554.36 200.40 C 555.33 210.56 560.01 220.32 561.41 230.58 C 563.85 251.84 579.90 267.55 589.33 285.89 C 589.96 273.90 583.84 259.63 577.93 248.07 C 570.90 232.00 565.67 211.68 554.36 200.40 M 549.23 212.37 C 548.58 225.60 539.93 239.05 545.70 251.98 C 552.34 247.22 548.63 257.53 548.36 259.50 C 556.80 268.46 568.30 274.87 578.97 280.95 C 574.03 269.16 566.72 258.41 560.73 247.13 C 557.26 235.82 554.98 220.25 549.23 212.37 Z" />
<path fill="#000000" opacity="1.00" d=" M 153.83 216.14 C 162.12 212.89 174.36 219.69 170.07 228.69 C 154.53 221.56 164.93 243.49 166.06 250.92 C 187.91 255.82 202.16 274.26 218.01 287.74 C 223.83 269.53 201.85 258.49 198.05 242.35 C 213.39 254.82 232.01 271.86 231.07 294.40 C 215.98 311.66 192.89 308.37 172.53 309.45 C 167.71 306.48 177.74 304.52 180.43 303.78 C 194.01 305.11 210.28 301.58 216.51 289.18 C 196.10 290.09 173.59 291.27 155.78 279.39 C 149.04 283.07 126.50 291.11 140.70 298.46 C 137.48 309.59 120.14 300.90 120.18 291.33 C 128.05 285.05 136.33 279.31 144.67 273.68 C 151.41 269.67 139.79 258.83 148.26 256.21 C 166.94 251.20 141.94 225.49 153.83 216.14 M 171.49 264.34 C 170.33 267.16 166.98 271.16 167.28 274.52 C 177.56 281.82 190.89 283.05 203.15 282.45 C 193.75 275.05 184.22 264.75 171.49 264.34 Z" />
<path fill="#000000" opacity="1.00" d=" M 516.60 216.42 C 541.88 211.56 517.51 244.80 525.48 253.62 C 534.86 255.33 534.84 263.99 531.92 271.53 C 540.69 277.96 549.50 284.42 558.31 290.75 C 561.07 300.70 541.12 309.25 538.29 298.37 C 552.52 291.17 530.17 283.79 523.92 279.38 C 505.72 290.66 482.93 290.21 462.26 289.12 C 470.15 308.79 496.08 297.34 508.10 308.95 C 487.42 309.54 463.40 311.54 447.93 294.40 C 446.94 271.90 466.01 254.88 480.81 242.49 C 477.52 258.88 454.83 269.33 460.99 287.73 C 476.74 274.17 491.23 255.91 512.97 250.94 C 513.57 243.98 524.65 222.07 509.69 228.52 C 505.47 225.92 510.20 215.10 516.60 216.42 M 503.54 264.52 C 492.74 267.56 484.26 275.41 475.86 282.45 C 488.10 282.98 501.46 281.79 511.72 274.52 C 510.88 270.82 509.70 261.86 503.54 264.52 Z" />
<path fill="#000000" opacity="1.00" d=" M 318.44 223.36 C 320.54 238.46 314.88 258.95 313.14 276.02 C 300.00 264.19 282.43 256.20 271.72 242.24 C 281.84 242.95 291.30 248.77 301.46 247.55 C 308.97 240.98 312.32 231.00 318.44 223.36 M 310.44 253.13 C 308.13 258.05 304.64 260.05 299.31 258.01 C 299.94 261.82 305.86 262.76 309.03 264.68 C 309.32 260.97 311.73 255.54 310.44 253.13 Z" />
<path fill="#000000" opacity="1.00" d=" M 359.92 222.92 C 366.72 230.28 369.74 240.90 377.54 247.55 C 387.64 248.43 397.33 243.72 407.28 242.21 C 396.58 256.19 379.03 264.24 365.82 275.97 C 364.05 258.29 359.80 240.63 359.92 222.92 M 367.73 253.14 C 365.93 264.78 374.97 266.56 379.69 258.01 C 373.71 260.86 371.11 256.48 367.73 253.14 Z" />
<path fill="#000000" opacity="1.00" d=" M 113.35 226.27 C 115.51 234.85 108.88 253.27 98.94 260.99 C 103.75 249.44 108.80 237.92 113.35 226.27 Z" />
<path fill="#000000" opacity="1.00" d=" M 564.18 225.68 C 570.94 235.79 574.55 249.46 580.01 260.97 C 570.04 251.94 565.76 238.78 564.18 225.68 Z" />
<path fill="#000000" opacity="1.00" d=" M 128.10 226.80 C 134.31 240.54 125.22 263.32 110.96 269.77 C 115.99 255.17 125.61 242.55 128.10 226.80 Z" />
<path fill="#000000" opacity="1.00" d=" M 550.20 227.23 C 554.20 239.92 562.42 255.91 568.04 269.80 C 553.20 263.61 545.95 241.47 550.20 227.23 Z" />
<path fill="#000000" opacity="1.00" d=" M 242.21 271.72 C 256.19 282.42 264.24 299.97 275.97 313.18 C 258.29 314.95 240.63 319.20 222.92 319.08 C 230.28 312.27 240.90 309.25 247.55 301.46 C 248.43 291.36 243.72 281.66 242.21 271.72 M 258.01 299.31 C 260.05 304.64 258.05 308.13 253.13 310.44 C 255.54 311.73 260.97 309.32 264.68 309.03 C 262.76 305.86 261.82 299.94 258.01 299.31 Z" />
<path fill="#000000" opacity="1.00" d=" M 435.40 272.42 C 438.66 277.51 429.30 292.26 431.45 301.46 C 438.11 309.26 448.74 312.29 456.10 319.09 C 438.36 319.53 420.60 315.29 402.98 313.14 C 414.14 299.98 422.86 284.05 435.40 272.42 M 419.44 299.29 C 411.65 307.15 416.65 312.62 425.87 310.44 C 418.87 309.00 421.68 301.54 419.44 299.29 Z" />
<path fill="#000000" opacity="1.00" d=" M 331.47 275.94 C 334.97 287.76 329.76 298.28 326.55 309.02 C 319.20 301.13 304.70 301.02 301.13 289.01 C 307.56 290.55 315.40 289.88 320.34 294.91 C 323.25 288.17 326.78 281.60 331.47 275.94 Z" />
<path fill="#000000" opacity="1.00" d=" M 347.04 276.49 C 352.20 279.14 355.56 288.76 358.66 294.91 C 363.58 289.89 371.41 290.55 377.83 289.03 C 374.14 300.64 360.18 301.04 352.47 308.72 C 350.18 298.00 343.65 288.42 347.04 276.49 Z" />
<path fill="#000000" opacity="1.00" d=" M 288.98 301.15 C 300.91 305.05 300.96 318.78 308.72 326.53 C 298.10 328.65 287.26 336.14 275.98 331.29 C 281.74 326.80 288.20 323.22 294.91 320.34 C 289.86 315.41 290.61 307.55 288.98 301.15 Z" />
<path fill="#000000" opacity="1.00" d=" M 388.46 301.38 C 391.47 303.70 388.23 316.07 384.09 320.34 C 390.83 323.25 397.39 326.78 403.06 331.47 C 391.23 334.97 380.72 329.76 369.98 326.55 C 377.74 319.22 377.62 306.59 388.46 301.38 Z" />
<path fill="#000000" opacity="1.00" d=" M 339.18 330.52 C 352.87 333.42 346.02 352.80 334.75 345.63 C 328.73 340.32 332.74 334.12 339.18 330.52 Z" />
<path fill="#000000" opacity="1.00" d=" M 276.80 347.37 C 288.39 344.10 298.50 349.46 309.02 352.45 C 301.13 359.79 301.02 374.29 289.01 377.87 C 290.55 371.44 289.88 363.60 294.91 358.66 C 288.96 355.90 278.35 351.24 276.80 347.37 Z" />
<path fill="#000000" opacity="1.00" d=" M 384.02 347.61 C 390.11 347.24 397.58 345.59 403.02 347.71 C 397.25 352.19 390.80 355.78 384.09 358.66 C 389.11 363.58 388.44 371.41 389.97 377.83 C 378.36 374.14 377.96 360.18 370.28 352.47 C 375.54 353.02 379.55 349.64 384.02 347.61 Z" />
<path fill="#000000" opacity="1.00" d=" M 225.37 359.51 C 242.32 360.47 259.22 363.47 276.02 365.86 C 264.19 379.00 256.20 396.57 242.24 407.28 C 243.05 397.39 248.33 388.17 247.70 378.24 C 243.76 370.70 233.81 369.76 228.34 363.68 C 226.58 362.54 220.04 359.72 225.37 359.51 M 253.14 367.73 C 256.48 371.11 260.86 373.71 258.01 379.69 C 261.82 379.06 262.76 373.14 264.68 369.97 C 260.84 369.23 256.98 368.48 253.14 367.73 Z" />
<path fill="#000000" opacity="1.00" d=" M 449.46 359.62 C 451.70 359.30 453.90 359.40 456.08 359.92 C 448.72 366.72 438.10 369.74 431.45 377.54 C 430.57 387.64 435.28 397.33 436.79 407.28 C 422.81 396.58 414.76 379.03 403.03 365.82 C 418.49 363.59 434.01 361.93 449.46 359.62 M 421.66 368.55 C 411.83 367.71 415.53 374.31 419.44 379.71 C 423.46 379.87 417.68 372.92 421.45 371.68 C 423.88 370.63 430.11 365.37 421.66 368.55 Z" />
<path fill="#000000" opacity="1.00" d=" M 173.38 369.44 C 189.39 371.68 208.52 366.38 221.97 377.89 C 236.12 381.70 229.49 396.79 226.55 406.48 C 218.12 417.13 208.68 429.46 198.19 436.51 C 201.37 419.69 223.55 411.50 218.22 391.21 C 202.25 404.57 187.90 423.15 166.03 428.06 C 164.97 435.52 154.51 457.43 170.07 450.31 C 175.42 461.09 156.24 468.62 150.06 459.59 C 151.83 448.73 153.89 437.04 155.31 426.68 C 146.55 423.82 142.59 417.18 146.97 408.24 C 139.64 400.95 129.28 394.92 120.69 388.25 C 117.92 378.29 137.88 369.75 140.71 380.63 C 126.48 387.82 148.82 395.20 155.08 399.62 C 173.28 388.34 196.07 388.79 216.74 389.88 C 209.97 377.38 194.63 374.20 181.03 375.31 C 178.53 375.38 166.53 371.27 173.38 369.44 M 191.25 396.47 C 181.69 398.17 159.34 400.57 170.76 414.40 C 183.84 415.32 193.51 403.76 203.14 396.55 C 199.17 396.74 195.22 396.48 191.25 396.47 Z" />
<path fill="#000000" opacity="1.00" d=" M 501.42 369.62 C 502.45 369.67 509.10 368.32 507.91 371.82 C 492.77 379.29 471.76 371.73 462.28 389.07 C 481.56 390.07 505.55 387.06 523.22 399.61 C 530.95 397.22 537.23 391.07 544.04 386.80 C 543.54 383.28 537.75 383.27 537.86 379.15 C 544.68 369.98 557.92 378.75 558.87 387.70 C 550.76 394.10 542.21 399.90 533.73 405.78 C 528.22 409.97 538.61 419.49 531.42 422.44 C 513.81 427.12 532.41 449.21 527.81 461.01 C 520.41 467.71 503.99 460.46 508.93 450.31 C 524.52 457.67 514.72 433.60 511.74 427.09 C 490.20 422.99 476.58 404.18 460.99 391.26 C 455.17 409.47 477.15 420.51 480.95 436.65 C 465.63 424.42 447.45 407.52 448.00 385.35 C 460.16 367.95 482.77 370.73 501.42 369.62 M 476.12 395.83 C 484.52 404.62 507.30 425.68 511.95 405.19 C 502.68 396.48 488.14 397.00 476.12 395.83 Z" />
<path fill="#000000" opacity="1.00" d=" M 326.53 370.28 C 328.64 380.90 336.14 391.73 331.29 403.02 C 326.80 397.25 323.22 390.80 320.34 384.09 C 315.42 389.11 307.59 388.44 301.17 389.97 C 304.86 378.36 318.82 377.96 326.53 370.28 Z" />
<path fill="#000000" opacity="1.00" d=" M 351.91 370.48 C 360.24 377.34 374.06 378.20 377.87 389.99 C 371.44 388.44 363.60 389.11 358.66 384.09 C 355.74 390.83 352.22 397.39 347.53 403.06 C 344.02 391.46 349.29 381.05 351.91 370.48 Z" />
<path fill="#000000" opacity="1.00" d=" M 81.46 376.17 C 94.10 379.33 104.65 391.86 117.00 398.01 C 125.48 404.52 143.87 407.96 139.23 422.11 C 149.29 427.38 146.10 439.48 142.67 447.81 C 139.27 462.74 136.32 477.86 134.25 493.05 C 133.22 498.43 126.90 494.77 124.69 492.33 C 108.93 475.47 105.34 451.64 95.45 431.54 C 87.93 414.40 76.16 395.30 81.46 376.17 M 88.87 393.29 C 90.34 403.43 92.56 413.62 97.19 422.84 C 107.00 441.40 110.77 462.90 124.47 479.37 C 120.98 448.20 108.64 417.04 88.87 393.29 M 99.97 398.11 C 112.85 419.83 122.69 442.43 128.18 467.15 C 131.80 455.98 138.25 439.77 133.30 427.03 C 129.95 432.21 126.66 423.20 131.07 423.08 C 127.76 409.94 109.82 405.93 99.97 398.11 Z" />
<path fill="#000000" opacity="1.00" d=" M 592.68 376.27 C 593.94 376.23 596.45 376.14 597.71 376.10 C 602.25 394.17 592.52 412.04 585.07 428.07 C 574.13 449.37 570.77 474.92 553.84 492.85 C 551.57 495.24 545.64 498.08 544.75 493.06 C 542.44 474.17 538.43 455.53 533.52 437.19 C 529.51 427.14 541.98 423.39 539.54 413.81 C 554.78 398.79 576.98 391.50 592.68 376.27 M 589.33 393.11 C 581.13 406.05 573.70 419.55 565.40 432.46 C 561.32 447.84 557.74 463.41 553.84 478.86 C 567.94 465.79 570.55 444.85 579.18 428.18 C 584.75 417.51 590.13 404.08 589.33 393.11 M 578.19 398.44 C 568.47 406.32 551.33 410.20 547.95 423.07 C 552.29 423.22 549.06 432.16 545.81 427.05 C 539.43 439.68 548.48 454.71 550.01 466.90 C 554.23 460.42 554.93 450.23 558.30 442.18 C 559.84 426.28 575.50 411.46 578.19 398.44 Z" />
<path fill="#000000" opacity="1.00" d=" M 312.51 403.44 C 315.62 418.61 318.78 438.92 319.08 456.08 C 312.27 448.72 309.25 438.10 301.46 431.45 C 291.36 430.57 281.66 435.28 271.72 436.79 C 282.19 422.93 299.61 415.17 312.51 403.44 M 308.32 414.59 C 305.18 415.93 302.19 417.62 299.29 419.44 C 299.52 423.42 307.43 417.08 308.14 422.73 C 312.82 431.54 310.17 415.81 308.32 414.59 Z" />
<path fill="#000000" opacity="1.00" d=" M 365.86 402.98 C 379.00 414.81 396.57 422.79 407.28 436.76 C 397.16 436.05 387.70 430.23 377.54 431.45 C 369.74 438.11 366.71 448.74 359.91 456.10 C 359.46 438.36 363.71 420.60 365.86 402.98 M 369.97 414.32 C 369.69 418.03 367.26 423.45 368.56 425.87 C 370.87 420.95 374.36 418.95 379.69 420.99 C 379.06 417.17 373.14 416.24 369.97 414.32 Z" />
<path fill="#000000" opacity="1.00" d=" M 110.96 409.23 C 125.38 415.66 134.22 438.39 128.09 452.19 C 125.62 436.43 115.98 423.83 110.96 409.23 Z" />
<path fill="#000000" opacity="1.00" d=" M 567.20 409.50 C 565.39 421.61 552.18 437.23 550.90 452.20 C 544.64 438.60 553.69 416.63 567.20 409.50 Z" />
<path fill="#000000" opacity="1.00" d=" M 98.99 418.03 C 108.95 427.06 113.24 440.21 114.82 453.32 C 108.06 443.21 104.45 429.54 98.99 418.03 Z" />
<path fill="#000000" opacity="1.00" d=" M 579.43 418.43 C 576.35 427.36 570.25 442.99 564.88 452.98 C 564.68 442.42 569.78 426.80 579.43 418.43 Z" />
<path fill="#000000" opacity="1.00" d=" M 289.55 448.47 C 312.93 455.26 308.89 488.10 308.78 507.96 C 297.91 496.06 308.51 469.83 289.18 462.49 C 290.37 483.28 290.76 505.80 279.08 524.02 C 283.71 529.93 291.57 552.84 298.41 538.25 C 309.73 541.75 300.84 558.43 291.30 558.87 C 285.09 550.93 279.31 542.68 273.68 534.33 C 269.46 527.70 258.13 539.45 255.87 530.07 C 252.45 516.38 237.07 528.93 227.18 527.30 C 212.05 536.29 212.06 506.11 226.04 508.12 C 232.47 508.11 224.94 515.00 228.18 517.93 C 235.74 516.26 243.59 515.33 250.92 512.94 C 256.42 492.31 271.81 476.94 287.02 462.93 C 290.00 457.52 277.93 463.10 276.07 461.87 C 261.93 461.04 255.20 482.17 242.26 480.20 C 255.03 466.79 268.97 449.05 289.55 448.47 M 282.43 476.43 C 274.48 485.12 265.19 495.24 264.10 507.55 C 282.22 521.93 283.01 485.69 282.43 476.43 Z" />
<path fill="#000000" opacity="1.00" d=" M 384.62 448.24 C 407.59 446.30 422.55 465.88 437.02 480.27 C 423.10 481.92 417.39 461.13 403.03 461.92 C 399.73 462.91 390.68 457.17 391.07 462.76 C 405.00 474.21 418.40 487.84 425.04 504.93 C 425.16 518.53 442.22 514.32 450.87 517.90 C 453.37 514.82 449.91 511.33 450.66 508.24 C 462.22 505.03 467.86 522.57 459.62 528.91 C 448.72 527.18 437.05 525.11 426.68 523.69 C 423.82 532.45 417.18 536.41 408.24 532.03 C 401.13 539.63 394.46 549.50 388.27 558.62 C 377.28 561.71 369.42 540.99 380.53 538.30 C 387.91 552.46 395.14 530.26 399.62 523.92 C 388.34 505.72 388.79 482.93 389.88 462.26 C 370.20 470.14 381.66 496.08 370.05 508.10 C 369.63 487.68 367.11 463.07 384.62 448.24 M 396.53 476.63 C 396.25 488.59 396.97 502.83 405.19 511.96 C 426.50 507.58 403.02 483.01 396.53 476.63 Z" />
<path fill="#000000" opacity="1.00" d=" M 193.68 473.37 C 205.68 470.38 210.16 488.25 200.40 494.46 C 177.64 518.11 157.27 551.90 122.15 556.85 C 124.42 535.66 140.34 518.31 155.41 504.40 C 168.79 494.84 178.23 479.86 193.68 473.37 M 189.27 485.45 C 178.82 488.69 171.72 497.83 164.42 505.41 C 154.34 517.11 141.13 527.89 136.14 542.86 C 157.73 533.83 173.81 514.32 189.68 497.63 C 192.64 494.29 196.47 485.42 189.27 485.45 Z" />
<path fill="#000000" opacity="1.00" d=" M 479.89 473.26 C 492.99 472.25 501.72 485.73 510.73 493.27 C 530.44 510.25 553.50 529.50 556.85 556.85 C 522.46 552.10 502.35 519.18 479.84 496.23 C 472.69 489.91 469.77 477.84 479.89 473.26 M 488.28 485.19 C 481.16 489.54 490.02 497.88 492.82 502.20 C 508.55 516.45 522.74 534.95 542.86 542.86 C 537.60 527.17 523.65 516.14 513.21 503.79 C 505.89 496.65 498.82 487.35 488.28 485.19 Z" />
<path fill="#000000" opacity="1.00" d=" M 242.66 533.39 C 252.26 530.08 255.86 541.98 265.19 539.54 C 279.39 553.50 285.97 574.28 299.81 589.12 C 302.75 591.09 305.51 598.21 300.40 598.65 C 281.78 600.83 264.50 591.50 248.21 583.80 C 227.63 573.74 203.27 570.12 186.15 553.84 C 183.76 551.56 180.91 545.64 185.94 544.74 C 205.16 542.65 223.98 538.07 242.66 533.39 M 242.26 543.36 C 232.39 545.86 221.14 546.79 212.10 550.01 C 222.16 554.93 236.07 557.58 247.86 561.03 C 258.67 567.34 269.45 573.93 280.89 579.03 C 273.15 568.89 268.94 551.57 255.92 547.95 C 248.86 555.18 253.87 538.86 242.26 543.36 M 200.14 553.84 C 213.21 567.94 234.15 570.55 250.82 579.18 C 261.48 584.75 274.92 590.13 285.89 589.33 C 272.95 581.13 259.44 573.70 246.54 565.40 C 231.15 561.32 215.59 557.74 200.14 553.84 Z" />
<path fill="#000000" opacity="1.00" d=" M 429.75 533.29 C 451.80 535.72 474.35 542.46 495.91 546.41 C 488.69 566.10 462.96 569.82 445.61 577.60 C 426.17 585.35 407.55 596.38 386.71 599.81 C 382.76 599.78 373.96 600.57 375.99 593.59 C 388.10 578.48 398.32 561.84 407.88 545.00 C 413.01 535.56 424.21 541.94 429.75 533.29 M 435.43 543.38 C 424.17 540.21 431.05 554.07 423.31 548.62 C 411.03 549.03 405.36 569.47 398.05 578.97 C 419.84 566.27 442.40 556.26 467.16 550.82 C 458.73 546.07 445.68 545.88 435.43 543.38 M 476.26 554.29 C 461.62 558.83 446.38 561.26 431.76 565.73 C 419.22 574.15 405.76 581.15 393.11 589.33 C 402.15 589.85 413.66 586.15 422.84 581.81 C 440.16 572.39 460.42 569.13 476.16 556.75 C 483.13 555.01 478.19 553.76 476.26 554.29 Z" />
<path fill="#000000" opacity="1.00" d=" M 233.47 548.36 C 246.66 549.65 264.43 554.42 269.77 568.04 C 258.46 566.44 251.00 555.38 239.23 554.92 C 234.27 554.96 219.28 548.96 233.47 548.36 Z" />
<path fill="#000000" opacity="1.00" d=" M 440.67 548.65 C 444.31 546.65 457.57 550.16 448.39 552.51 C 433.32 552.87 422.98 564.63 409.20 568.04 C 413.23 555.20 429.44 552.14 440.67 548.65 Z" />
<path fill="#000000" opacity="1.00" d=" M 225.79 564.09 C 238.62 566.04 252.48 569.56 260.99 580.06 C 249.67 574.31 235.17 571.48 225.79 564.09 Z" />
<path fill="#000000" opacity="1.00" d=" M 452.50 564.32 C 446.26 570.04 428.70 574.74 418.03 580.01 C 426.88 570.30 439.65 565.87 452.50 564.32 Z" />
</svg>
